v 1.000027 0.303170 -0.490979
v 0.949962 0.374705 -0.494149
v 0.945421 0.285757 -0.437296
v 0.680213 -0.060919 -0.925189
v 0.791925 0.028772 -0.791484
v 0.671420 -0.171616 -0.734583
v 1.000400 0.189173 -0.453469
v 0.955567 0.220145 -0.419971
v 0.917641 0.184229 -0.372541
v 0.939948 0.095585 -0.391148
v 0.877043 0.276475 -0.369671
v 0.896928 0.371011 -0.455597
v 0.821092 0.368573 -0.390127
v 0.933180 0.428407 -0.560578
v 0.833387 0.454517 -0.498885
v 0.853026 0.462961 -0.639464
v 0.735451 0.524329 -0.568223
v 0.840748 0.343501 -0.712640
v 0.621145 0.535551 -0.673703
v 0.780236 -0.168109 -0.633353
v 0.936560 0.099870 -0.692824
v 1.034668 0.136029 -0.558026
v 0.940451 0.005673 -0.428339
v 0.913490 -0.081923 -0.557449
v 0.723117 0.258652 -0.880615
v 0.495623 0.405380 -0.829976
v 0.606012 0.154340 -0.980376
v 0.450321 0.253922 -0.893652
v 0.507172 0.095794 -0.983151
v 0.437050 0.144365 -0.905686
v 0.572089 -0.114956 -0.859322
v 0.600039 -0.159065 -0.778098
v 0.557673 -0.167838 -0.730888
v 0.628221 -0.190935 -0.646015
v 0.719026 -0.182566 -0.547320
v 0.526541 -0.016326 -0.952238
v 0.445532 0.036070 -0.896351
v 0.518426 -0.060292 -0.886384
v 0.454787 -0.052447 -0.849678
v 0.500503 -0.119797 -0.801576
v 0.746511 0.454341 -0.434771
v 0.810011 -0.128872 -0.444873
v 0.849976 0.161159 -0.290699
v 0.868676 0.058785 -0.313137
v 0.809486 0.262679 -0.290301
v 0.749870 0.360301 -0.313616
v 0.670189 0.447972 -0.361718
v 0.648926 0.516119 -0.509246
v 0.858532 -0.042165 -0.362110
v 0.537514 0.519061 -0.610346
v 0.435849 0.430789 -0.719297
v 0.378825 0.304714 -0.784270
v 0.648110 -0.207632 -0.469694
v 0.561665 -0.214785 -0.570765
v 0.731095 -0.163298 -0.370505
v 0.353278 0.181941 -0.812006
v 0.351589 0.063526 -0.814482
v 0.372777 -0.044767 -0.790356
v 0.418642 -0.133083 -0.736401
v 0.484181 -0.190282 -0.661332
v 0.790898 -0.083439 -0.284416
v 0.798045 0.134550 -0.194540
v 0.812594 0.021829 -0.224126
v 0.754775 0.246935 -0.194300
v 0.690000 0.352194 -0.221158
v 0.604403 0.444731 -0.272232
v 0.573899 0.507670 -0.436594
v 0.507161 0.507810 -0.349398
v 0.466787 0.512193 -0.530571
v 0.372149 0.444026 -0.621508
v 0.661804 -0.211880 -0.296112
v 0.572616 -0.248826 -0.402940
v 0.735093 -0.138576 -0.200796
v 0.310820 0.333131 -0.684126
v 0.277160 0.209558 -0.719678
v 0.267666 0.083874 -0.733043
v 0.280569 -0.038250 -0.721943
v 0.326561 -0.149239 -0.678686
v 0.399067 -0.220800 -0.602820
v 0.483073 -0.251994 -0.507534
v 0.767117 0.095386 -0.083698
v 0.774787 -0.031358 -0.125238
v 0.719560 0.225646 -0.080912
v 0.646161 0.342478 -0.111669
v 0.553082 0.442569 -0.167130
v 0.401036 0.520918 -0.441448
v 0.448805 0.515364 -0.248226
v 0.336668 0.540185 -0.343025
v 0.304804 0.464842 -0.528590
v 0.664373 -0.211616 -0.125787
v 0.724629 -0.111428 -0.032172
v 0.240704 0.361217 -0.591875
v 0.202744 0.237261 -0.632058
v 0.186889 0.105870 -0.654300
v 0.190756 -0.028678 -0.656274
v 0.226270 -0.158172 -0.629573
v 0.298774 -0.254850 -0.557072
v 0.389927 -0.297044 -0.456823
v 0.484957 -0.300375 -0.347428
v 0.578902 -0.271546 -0.235067
v 0.234785 0.493674 -0.434678
v 0.732299 0.029241 0.033527
v 0.683880 0.182689 0.038942
v 0.600464 0.313744 0.003159
v 0.502913 0.420947 -0.058145
v 0.395354 0.501153 -0.135916
v 0.279995 0.538152 -0.228356
v 0.173300 0.508593 -0.324803
v 0.100577 0.415815 -0.403639
v 0.167760 0.392853 -0.502673
v 0.127688 0.267739 -0.547014
v 0.107940 0.134279 -0.575321
v 0.187103 -0.264183 -0.509088
v 0.125163 -0.146240 -0.571559
v 0.279122 -0.321683 -0.407554
v 0.376153 -0.331695 -0.295079
v 0.470677 -0.309642 -0.180055
v 0.057535 0.292180 -0.457286
v 0.104698 -0.005383 -0.586655
v 0.553199 -0.258002 -0.067121
v 0.613501 -0.168402 0.037148
v 0.597596 0.119430 0.119605
v 0.629557 -0.033018 0.108751
v 0.524129 0.256871 0.085757
v 0.335749 0.447845 -0.040464
v 0.435769 0.366823 0.029689
v 0.034641 0.158163 -0.492044
v 0.229998 0.492653 -0.123046
v 0.125604 0.484215 -0.215143
v 0.045515 0.411645 -0.301526
v -0.004119 0.300805 -0.365870
v -0.032735 0.173841 -0.407601
v 0.026958 0.021293 -0.507770
v 0.038527 -0.116603 -0.498106
v 0.086498 -0.237330 -0.445133
v 0.170359 -0.305687 -0.348077
v 0.262533 -0.323227 -0.241450
v 0.351548 -0.307945 -0.136504
v 0.429921 -0.262940 -0.030910
v -0.045581 0.040257 -0.427276
v 0.487019 -0.182297 0.066689
v 0.508020 -0.064320 0.133680
v 0.492056 0.071253 0.152911
v 0.433175 0.200548 0.134507
v 0.171312 0.440528 -0.038894
v 0.267236 0.390014 0.033504
v 0.074672 0.444960 -0.122797
v -0.007399 0.393673 -0.207778
v -0.101047 0.179313 -0.327572
v -0.065298 0.297518 -0.278810
v -0.118525 0.051210 -0.352447
v -0.037909 -0.092749 -0.419534
v -0.068828 0.374664 -0.126110
v 0.013366 0.415481 -0.040870
v -0.115313 -0.079070 -0.346367
v 0.000761 -0.208843 -0.370237
v 0.071381 -0.280734 -0.283562
v 0.156949 -0.307333 -0.181527
v 0.241543 -0.298988 -0.080849
v 0.316732 -0.261161 0.015344
v 0.373714 -0.191013 0.100389
v 0.398867 -0.084312 0.165494
v 0.389036 0.038554 0.189931
v 0.341454 0.158958 0.184849
v 0.356293 0.307787 0.091979
v 0.274795 0.264441 0.154551
v 0.194443 0.348549 0.105859
v 0.105103 0.403236 0.039600
v -0.131228 0.290284 -0.198456
v -0.083349 -0.195643 -0.298095
v -0.201164 0.279868 -0.122364
v -0.122163 0.339649 -0.045471
v -0.170652 0.180976 -0.252034
v -0.190775 0.054909 -0.282483
v -0.191465 -0.076062 -0.278165
v -0.164493 -0.192451 -0.232817
v 0.214297 -0.272085 0.074733
v 0.274064 -0.206915 0.155244
v 0.305547 -0.107927 0.215874
v 0.298469 0.010187 0.247221
v 0.257466 0.126907 0.249971
v 0.196441 0.232636 0.227164
v 0.122453 0.318021 0.184166
v 0.036545 0.364911 0.114340
v -0.049871 0.378351 0.037936
v -0.239760 0.179697 -0.178111
v -0.025730 -0.273238 -0.209880
v 0.054875 -0.307266 -0.112625
v 0.137930 -0.305601 -0.016420
v -0.287709 0.146462 -0.081684
v -0.250564 0.241744 -0.032143
v -0.219935 0.053537 -0.191633
v -0.304934 0.036058 -0.113456
v -0.229991 -0.070876 -0.186267
v 0.176125 0.098769 0.294955
v 0.210001 -0.007008 0.291382
v -0.036858 0.321943 0.184611
v 0.044739 0.272016 0.240204
v -0.119665 0.338149 0.114172
v -0.193066 0.311587 0.036376
v -0.201288 -0.178601 -0.154024
v 0.127989 -0.237250 0.116751
v 0.179342 -0.187119 0.190738
v 0.204738 -0.105265 0.246616
v -0.091261 -0.238953 -0.133266
v -0.153263 -0.262633 -0.086747
v -0.369382 0.133866 -0.003723
v -0.388378 0.024751 -0.033004
v -0.310438 -0.084250 -0.116046
v -0.286943 -0.202958 -0.095341
v -0.234588 -0.300691 -0.041717
v -0.011540 -0.256835 -0.046599
v -0.082438 -0.308965 -0.004138
v 0.063243 -0.260126 0.034960
v -0.009724 -0.320258 0.089143
v 0.059244 -0.298512 0.182517
v 0.115708 -0.243912 0.270615
v 0.114895 0.070152 0.391746
v 0.151533 -0.044270 0.386676
v 0.118892 0.194959 0.277311
v 0.051070 0.167367 0.367588
v -0.027182 0.242674 0.323126
v -0.111314 0.292784 0.263519
v -0.196279 0.312567 0.192136
v -0.273197 0.291604 0.115555
v -0.332140 0.227488 0.046053
v -0.391058 -0.091399 -0.039626
v 0.151378 -0.156982 0.343232
v -0.163843 -0.356282 0.042088
v -0.371195 -0.208518 -0.024451
v -0.323923 -0.309828 0.024379
v -0.255351 -0.368653 0.104728
v -0.091360 -0.368521 0.142913
v 0.041075 0.036347 0.478078
v 0.076175 -0.081168 0.472709
v -0.021740 0.136054 0.451222
v -0.404618 0.203808 0.131592
v -0.346204 0.264406 0.198859
v -0.439949 0.115539 0.083199
v -0.458327 0.012440 0.055874
v -0.461242 -0.095145 0.049550
v -0.445153 -0.199949 0.064485
v -0.185116 -0.380465 0.204121
v -0.024280 -0.343365 0.245184
v 0.033282 -0.286500 0.341488
v 0.071728 -0.197222 0.422961
v -0.099179 0.211854 0.404427
v -0.183206 0.262896 0.344272
v -0.268682 0.283445 0.274226
v -0.406396 -0.291218 0.105009
v -0.120790 -0.355469 0.305227
v -0.520330 -0.003111 0.149627
v -0.501192 0.090164 0.175384
v -0.524980 -0.101025 0.145103
v -0.512266 -0.193301 0.160683
v -0.480272 -0.274390 0.196441
v -0.346221 -0.351035 0.178859
v -0.279549 -0.366535 0.269632
v -0.219463 -0.345242 0.362960
v -0.059820 0.003703 0.533747
v -0.028501 -0.106397 0.526448
v -0.113939 0.096516 0.509916
v -0.183694 0.168199 0.467639
v -0.259535 0.215933 0.412733
v -0.338324 0.235390 0.349575
v -0.410223 0.220255 0.281846
v -0.466138 0.167854 0.220986
v -0.067026 -0.300057 0.399093
v -0.032448 -0.215361 0.478092
v -0.428022 -0.331623 0.261060
v -0.170477 -0.294550 0.451050
v -0.168637 -0.016536 0.577553
v -0.279725 0.129166 0.523206
v -0.347108 0.171219 0.475417
v -0.416470 0.188246 0.418953
v -0.480709 0.174555 0.358879
v -0.531713 0.129806 0.305182
v -0.566417 0.062358 0.264572
v -0.586904 -0.020667 0.241370
v -0.593457 -0.109592 0.237363
v -0.583982 -0.195803 0.253393
v -0.555179 -0.270915 0.286885
v -0.508753 -0.325734 0.345959
v -0.369076 -0.350597 0.343241
v -0.314115 -0.335260 0.428534
v -0.269837 -0.290195 0.510458
v -0.141365 -0.216534 0.523976
v -0.137591 -0.116844 0.568150
v -0.219720 0.066511 0.558495
v -0.243841 -0.217640 0.580092
v -0.454506 -0.346853 0.422302
v -0.562250 0.135984 0.430204
v -0.606845 0.095158 0.383600
v -0.638554 0.035717 0.349152
v -0.659686 -0.038487 0.329535
v -0.668207 -0.121223 0.326851
v -0.633292 -0.276942 0.375019
v -0.588624 -0.330024 0.430736
v -0.537247 -0.351107 0.503199
v -0.403457 -0.334716 0.503682
v -0.362441 -0.293015 0.582244
v -0.337930 -0.223605 0.649054
v -0.272589 -0.029365 0.632403
v -0.242296 -0.124057 0.622682
v -0.324478 0.048854 0.616120
v -0.384474 0.105340 0.583082
v -0.446044 0.140127 0.539059
v -0.506896 0.151619 0.485700
v -0.339261 -0.131887 0.690996
v -0.490053 -0.340394 0.582003
v -0.684053 0.064308 0.460568
v -0.713006 0.011798 0.432788
v -0.734096 -0.053135 0.417251
v -0.745450 -0.130703 0.416194
v -0.740481 -0.213759 0.431931
v -0.711538 -0.287761 0.463895
v -0.666951 -0.338163 0.516609
v -0.619212 -0.357544 0.584903
v -0.372474 -0.037986 0.699669
v -0.428059 0.037885 0.681963
v -0.550837 0.115516 0.604838
v -0.491040 0.088747 0.647935
v -0.602713 0.120329 0.554281
v -0.647174 0.102586 0.502187
v -0.576923 -0.348183 0.659457
v -0.451644 -0.300354 0.658932
v -0.429071 -0.232151 0.724647
v -0.433526 -0.140671 0.765493
v -0.471793 -0.045544 0.772291
v -0.542058 -0.311645 0.732770
v -0.526780 -0.153857 0.840822
v -0.573618 -0.052562 0.845524
v -0.533627 0.028687 0.750000
v -0.603589 0.073817 0.712324
v -0.702040 0.088063 0.625134
v -0.662653 0.089424 0.671753
v -0.730930 0.071507 0.577452
v -0.757078 0.039629 0.539195
v -0.782672 -0.003850 0.516957
v -0.805993 -0.057961 0.507305
v -0.823423 -0.130026 0.507423
v -0.822990 -0.223598 0.524784
v -0.788327 -0.302337 0.554882
v -0.741957 -0.347945 0.603218
v -0.700732 -0.364205 0.665624
v -0.667468 -0.357385 0.732680
v -0.637181 -0.328797 0.799640
v -0.520381 -0.246740 0.797816
v -0.642890 0.020468 0.815455
v -0.612312 -0.270554 0.863356
v -0.617919 -0.178757 0.913843
v -0.681297 -0.056534 0.918576
v -0.789485 0.056123 0.741880
v -0.726876 0.056863 0.771608
v -0.806273 0.051645 0.699180
v -0.809002 0.044309 0.656188
v -0.820395 0.024601 0.620008
v -0.842735 -0.006571 0.603318
v -0.869366 -0.044661 0.601186
v -0.897278 -0.102082 0.603563
v -0.935620 -0.231305 0.673473
v -0.856029 -0.326966 0.653858
v -0.807075 -0.359791 0.691345
v -0.778424 -0.370710 0.745012
v -0.764214 -0.368331 0.801523
v -0.744255 -0.352888 0.854772
v -0.707887 -0.310360 0.909299
v -0.748555 0.016105 0.868503
v -0.753738 -0.235182 0.978797
v -0.851607 0.019432 0.670642
v -0.834972 0.030380 0.659535
v -0.884329 0.014147 0.686433
v -0.925339 -0.023018 0.770974
v -0.880870 -0.371716 0.745570
v -0.915627 -0.157934 0.840630
v -0.833884 -0.366079 0.731925
v -0.857023 -0.260988 0.881917
v -0.807733 -0.323437 0.906436
v -0.836073 -0.099699 0.995290
v -0.856067 0.001423 0.898615
v -0.819559 0.054543 0.797957
v -0.833785 0.074072 0.715082
v -0.828029 0.011758 0.729224
v -0.833141 0.047260 0.687488
v -0.813059 -0.372199 0.756794
v -0.825911 -0.370666 0.793029
v -0.843969 -0.390071 0.864454
v -0.661204 -0.204087 0.342190
v -0.966175 -0.329630 0.819618
v 1.030274 0.329445 -0.631836
f 3 1 2 12
f 2 14 15 12
f 13 11 3 12
f 6 4 5 20
f 5 21 24 20
f 6 20 35 34
f 7 8 9 10
f 8 3 11 9
f 9 11 45 43
f 22 7 10 23
f 10 9 43 44
f 11 13 46 45
f 13 12 15 41
f 13 41 47 46
f 15 14 16 17
f 15 17 48 41
f 16 18 19 17
f 17 19 50 48
f 18 25 26 19
f 19 26 51 50
f 21 22 23 24
f 23 10 44 49
f 35 20 24 42
f 24 23 49 42
f 25 27 28 26
f 26 28 52 51
f 27 29 30 28
f 28 30 56 52
f 29 36 37 30
f 30 37 57 56
f 31 32 33 40
f 34 33 32 6
f 33 34 54 60
f 59 40 33 60
f 53 54 34 35
f 35 42 55 53
f 36 38 39 37
f 37 39 58 57
f 39 38 31 40
f 39 40 59 58
f 43 45 64 62
f 44 43 62 63
f 45 46 65 64
f 46 47 66 65
f 47 41 48 67
f 68 66 47 67
f 48 50 69 67
f 49 61 55 42
f 49 44 63 61
f 50 51 70 69
f 70 51 52 74
f 52 56 75 74
f 71 72 53 55
f 54 53 72 80
f 55 61 73 71
f 56 57 76 75
f 77 76 57 58
f 78 77 58 59
f 59 60 79 78
f 60 54 80 79
f 61 63 82 73
f 62 64 83 81
f 63 62 81 82
f 64 65 84 83
f 65 66 85 84
f 66 68 87 85
f 68 67 69 86
f 68 86 88 87
f 69 70 89 86
f 70 74 92 89
f 71 73 90 100
f 100 99 72 71
f 91 90 73 82
f 74 75 93 92
f 75 76 94 93
f 76 77 95 94
f 77 78 96 95
f 97 96 78 79
f 79 80 98 97
f 80 72 99 98
f 81 83 103 102
f 82 81 102 91
f 104 103 83 84
f 85 105 104 84
f 85 87 106 105
f 107 106 87 88
f 88 86 89 101
f 108 107 88 101
f 110 101 89 92
f 90 91 121 120
f 111 110 92 93
f 93 94 112 111
f 94 95 119 112
f 95 96 114 119
f 96 97 113 114
f 115 113 97 98
f 98 99 116 115
f 99 100 117 116
f 100 90 120 117
f 109 108 101 110
f 121 91 102 123
f 102 103 122 123
f 124 122 103 104
f 126 124 104 105
f 106 125 126 105
f 128 125 106 107
f 129 128 107 108
f 108 109 130 129
f 109 110 111 118
f 109 118 131 130
f 118 111 112 127
f 133 127 112 119
f 113 115 136 135
f 135 134 114 113
f 115 116 137 136
f 138 137 116 117
f 117 120 139 138
f 118 127 132 131
f 119 114 134 133
f 120 121 141 139
f 121 123 142 141
f 123 122 143 142
f 124 144 143 122
f 165 144 124 126
f 125 128 145 146
f 146 165 126 125
f 128 129 147 145
f 148 147 129 130
f 130 131 150 148
f 131 132 149 150
f 133 140 132 127
f 132 140 151 149
f 140 133 134 152
f 134 135 156 152
f 157 156 135 136
f 136 137 158 157
f 137 138 159 158
f 138 139 160 159
f 161 160 139 141
f 140 152 155 151
f 141 142 162 161
f 142 143 163 162
f 143 144 164 163
f 144 165 166 164
f 145 147 154 168
f 146 145 168 167
f 147 148 153 154
f 149 151 174 173
f 153 148 150 169
f 173 169 150 149
f 151 155 175 174
f 153 169 171 172
f 154 153 172 185
f 155 152 156 170
f 155 170 176 175
f 170 156 157 187
f 157 158 188 187
f 189 188 158 159
f 159 160 177 189
f 160 161 178 177
f 179 178 161 162
f 179 162 163 180
f 163 164 181 180
f 164 166 182 181
f 165 146 167 166
f 166 167 183 182
f 167 168 184 183
f 168 154 185 184
f 173 186 171 169
f 171 186 190 191
f 200 172 171 191
f 192 186 173 174
f 192 174 175 194
f 176 170 187 205
f 194 175 176 201
f 178 203 202 177
f 179 180 196 204
f 203 178 179 204
f 180 181 195 196
f 220 195 181 182
f 198 220 182 183
f 197 198 183 184
f 184 185 199 197
f 185 172 200 199
f 193 190 186 192
f 205 187 188 212
f 188 189 214 212
f 189 177 202 214
f 190 193 208 207
f 191 190 207 226
f 209 193 192 194
f 194 201 210 209
f 195 220 221 218
f 196 195 218 219
f 197 199 224 223
f 198 197 223 222
f 199 200 225 224
f 200 191 226 225
f 205 206 201 176
f 201 206 211 210
f 202 203 217 216
f 203 204 228 217
f 204 196 219 228
f 205 212 213 206
f 207 208 240 239
f 209 227 208 193
f 208 227 241 240
f 230 227 209 210
f 210 211 231 230
f 211 206 213 229
f 211 229 232 231
f 212 214 215 213
f 213 215 233 229
f 214 202 216 215
f 244 233 215 216
f 216 217 245 244
f 217 228 246 245
f 218 221 236 234
f 219 218 234 235
f 220 198 222 221
f 236 221 222 247
f 222 223 248 247
f 223 224 249 248
f 224 225 238 249
f 225 226 237 238
f 226 207 239 237
f 227 230 242 241
f 228 219 235 246
f 250 242 230 231
f 231 232 257 250
f 233 243 232 229
f 232 243 258 257
f 262 260 234 236
f 235 234 260 261
f 236 247 263 262
f 237 239 253 267
f 238 237 267 266
f 239 240 252 253
f 240 241 254 252
f 241 242 255 254
f 242 250 256 255
f 243 233 244 251
f 243 251 259 258
f 244 245 268 251
f 245 246 269 268
f 246 235 261 269
f 247 248 264 263
f 248 249 265 264
f 249 238 266 265
f 252 254 280 279
f 253 252 279 278
f 281 280 254 255
f 255 256 282 281
f 256 250 257 270
f 257 258 284 270
f 258 259 285 284
f 268 271 259 251
f 259 271 286 285
f 288 261 260 272
f 272 260 262 289
f 262 263 273 289
f 263 264 274 273
f 264 265 275 274
f 265 266 276 275
f 266 267 277 276
f 267 253 278 277
f 268 269 287 271
f 269 261 288 287
f 282 256 270 283
f 291 283 270 284
f 305 303 272 289
f 305 289 273 306
f 273 274 307 306
f 274 275 308 307
f 275 276 292 308
f 276 277 293 292
f 277 278 294 293
f 278 279 295 294
f 279 280 296 295
f 388 296 280 281
f 281 282 297 388
f 282 283 298 297
f 283 291 299 298
f 284 285 300 291
f 285 286 301 300
f 287 290 286 271
f 286 290 302 301
f 290 287 288 304
f 288 272 303 304
f 309 302 290 304
f 292 293 311 324
f 311 293 294 312
f 294 295 313 312
f 295 296 314 313
f 315 314 296 388
f 297 316 315 388
f 297 298 317 316
f 298 299 318 317
f 299 291 300 310
f 299 310 325 318
f 300 301 326 310
f 301 302 327 326
f 302 309 328 327
f 303 305 320 319
f 304 303 319 309
f 320 305 306 322
f 306 307 321 322
f 307 308 323 321
f 308 292 324 323
f 311 312 339 338
f 339 312 313 340
f 340 313 314 341
f 314 315 342 341
f 315 316 343 342
f 316 317 344 343
f 317 318 345 344
f 318 325 346 345
f 319 329 328 309
f 319 320 333 329
f 320 322 334 333
f 334 322 321 336
f 321 323 335 336
f 323 324 337 335
f 324 311 338 337
f 326 330 325 310
f 325 330 347 346
f 326 327 348 330
f 327 328 331 348
f 331 328 329 332
f 331 351 350 348
f 331 332 352 351
f 332 329 333 349
f 332 349 368 352
f 333 334 354 349
f 334 336 353 354
f 353 336 335 355
f 335 337 356 355
f 337 338 357 356
f 338 339 358 357
f 359 358 339 340
f 359 340 341 360
f 341 342 361 360
f 342 343 362 361
f 343 344 363 362
f 344 345 364 363
f 345 346 365 364
f 346 347 366 365
f 347 330 348 350
f 347 350 367 366
f 349 354 381 368
f 367 350 351 369
f 351 352 379 369
f 352 368 380 379
f 353 355 383 382
f 354 353 382 381
f 355 356 384 383
f 356 357 371 384
f 357 358 370 371
f 358 359 372 370
f 359 360 373 372
f 373 360 361 375
f 361 362 374 389
f 362 363 376 374
f 363 364 385 376
f 364 365 386 385
f 365 366 387 386
f 366 367 378 387
f 367 369 377 378
f 3 8 7 1
f 1 390 14 2
f 16 14 390 18
f 18 21 5 25
f 25 5 4 27
f 27 4 36 29
f 36 4 31 38
f 31 4 6 32
f 390 1 7 22
f 381 373 380 368
f 380 373 375 379
f 379 375 377 369
f 377 389 387 378
f 387 389 374 386
f 386 374 376 385
f 373 381 382 372
f 372 382 383 370
f 370 383 384 371
f 389 377 375 361
f 390 22 21 18
