v 0.466048 0.159605 -0.935423
v 0.493096 0.027721 -0.935804
v 0.568242 -0.095169 -0.885100
v 0.656351 -0.155497 -0.807845
v 0.733950 -0.173630 -0.732368
v 0.830787 -0.157543 -0.629948
v 0.911002 -0.098372 -0.535363
v 0.960557 0.000233 -0.463742
v 0.966921 0.158558 -0.423583
v 0.926654 0.300075 -0.434669
v 0.871003 0.400806 -0.470152
v 0.779839 0.495973 -0.543124
v 0.659785 0.535222 -0.657518
v 0.571152 0.495780 -0.756514
v 0.504995 0.400580 -0.844385
v 0.469530 0.270233 -0.908349
v 0.395907 0.144586 -0.865220
v 0.422718 0.012404 -0.865906
v 0.497382 -0.110715 -0.815744
v 0.585316 -0.171135 -0.738688
v 0.663063 -0.189304 -0.663066
v 0.760487 -0.173227 -0.560048
v 0.841517 -0.113999 -0.464618
v 0.891725 -0.015222 -0.392293
v 0.898182 0.143512 -0.351952
v 0.857364 0.285464 -0.363509
v 0.801105 0.386519 -0.399545
v 0.709198 0.482013 -0.473207
v 0.588749 0.521379 -0.587979
v 0.500292 0.481771 -0.686831
v 0.434524 0.386240 -0.774375
v 0.399357 0.255496 -0.838118
v 0.326649 0.129027 -0.794229
v 0.352793 -0.004721 -0.795930
v 0.426192 -0.129187 -0.747347
v 0.513918 -0.190192 -0.670628
v 0.592462 -0.208552 -0.594232
v 0.692222 -0.192414 -0.488813
v 0.789391 -0.128034 -0.406901
v 0.841107 -0.028650 -0.332905
v 0.847778 0.131326 -0.292081
v 0.805689 0.274504 -0.304677
v 0.748011 0.376445 -0.341975
v 0.654310 0.472832 -0.417282
v 0.532742 0.512533 -0.533127
v 0.444463 0.472504 -0.631887
v 0.364338 0.373858 -0.703657
v 0.330008 0.241299 -0.766931
v 0.272093 0.116278 -0.738722
v 0.297361 -0.020739 -0.742014
v 0.369268 -0.148151 -0.695582
v 0.457204 -0.210473 -0.618928
v 0.537429 -0.229234 -0.540899
v 0.641393 -0.212863 -0.431133
v 0.713020 -0.167844 -0.348336
v 0.796708 -0.044576 -0.267690
v 0.803835 0.118607 -0.225717
v 0.748339 0.262733 -0.220706
v 0.665706 0.393915 -0.277302
v 0.586447 0.467614 -0.342666
v 0.460637 0.508605 -0.462574
v 0.356686 0.449116 -0.581492
v 0.308575 0.367401 -0.648047
v 0.275330 0.231294 -0.710965
v 0.200605 0.099407 -0.670289
v 0.224453 -0.045756 -0.676763
v 0.279044 -0.161313 -0.645515
v 0.383742 -0.246455 -0.556576
v 0.468181 -0.266219 -0.474451
v 0.581631 -0.249113 -0.354831
v 0.671414 -0.193227 -0.282276
v 0.750686 -0.089146 -0.210222
v 0.768506 0.105326 -0.150667
v 0.710537 0.255904 -0.146813
v 0.620011 0.393052 -0.210210
v 0.535001 0.470002 -0.280763
v 0.403123 0.512848 -0.406480
v 0.281955 0.452508 -0.512068
v 0.226398 0.335858 -0.593661
v 0.203642 0.221117 -0.641314
v 0.126884 0.082828 -0.604078
v 0.149664 -0.071203 -0.613529
v 0.219412 -0.186910 -0.597930
v 0.325797 -0.276141 -0.508134
v 0.413881 -0.296771 -0.422467
v 0.508070 -0.286334 -0.323955
v 0.621860 -0.229854 -0.195618
v 0.719098 -0.112764 -0.133544
v 0.739198 0.091801 -0.069514
v 0.655913 0.284800 -0.082524
v 0.576092 0.394790 -0.140749
v 0.470729 0.477731 -0.199724
v 0.329231 0.523532 -0.334648
v 0.222322 0.456538 -0.458185
v 0.151609 0.333386 -0.525543
v 0.129766 0.211735 -0.573731
v 0.055197 0.067737 -0.535470
v 0.077795 -0.088099 -0.545491
v 0.131076 -0.212060 -0.517369
v 0.238464 -0.303437 -0.427005
v 0.328446 -0.324517 -0.339492
v 0.425469 -0.313900 -0.238045
v 0.518441 -0.271837 -0.134055
v 0.594948 -0.177774 -0.004733
v 0.602931 0.096308 0.092798
v 0.551186 0.265902 0.044833
v 0.484004 0.384532 -0.029746
v 0.387099 0.468529 -0.110962
v 0.241897 0.515470 -0.249430
v 0.120496 0.422370 -0.393332
v 0.079740 0.321147 -0.456515
v 0.058053 0.198102 -0.504841
v 0.001267 0.057068 -0.478881
v 0.024376 -0.093942 -0.487354
v 0.064242 -0.212641 -0.440716
v 0.169743 -0.299832 -0.351391
v 0.256013 -0.320031 -0.267486
v 0.373378 -0.302577 -0.143789
v 0.436132 -0.251934 -0.037757
v 0.488305 -0.151680 0.068003
v 0.507205 0.047469 0.129656
v 0.477378 0.208239 0.102224
v 0.382435 0.348874 0.035053
v 0.294166 0.427720 -0.038429
v 0.158719 0.471662 -0.167562
v 0.067153 0.416099 -0.304097
v 0.026321 0.302839 -0.401027
v 0.004198 0.183530 -0.449005
v -0.067461 0.044407 -0.406732
v -0.043064 -0.097161 -0.411881
v 0.012195 -0.209914 -0.379354
v 0.116203 -0.292987 -0.290681
v 0.198780 -0.312309 -0.210365
v 0.308145 -0.295543 -0.094994
v 0.364431 -0.247614 0.003850
v 0.442113 -0.127692 0.108757
v 0.427368 0.037749 0.159961
v 0.401444 0.190987 0.134917
v 0.315301 0.324771 0.075286
v 0.233498 0.399889 0.007623
v 0.105050 0.441686 -0.114811
v 0.015106 0.388650 -0.249150
v -0.041119 0.275082 -0.330770
v -0.064346 0.163179 -0.378302
v -0.139019 0.031574 -0.337513
v -0.113261 -0.103455 -0.339881
v -0.040542 -0.229064 -0.292236
v 0.047213 -0.290577 -0.215596
v 0.126414 -0.309094 -0.138561
v 0.227877 -0.292874 -0.031383
v 0.314040 -0.232713 0.069492
v 0.368231 -0.132061 0.146287
v 0.375252 0.030330 0.187983
v 0.331082 0.175800 0.173746
v 0.271057 0.279372 0.134395
v 0.174317 0.377395 0.056329
v 0.050646 0.417734 -0.061529
v -0.053237 0.359316 -0.180151
v -0.101863 0.278899 -0.246956
v -0.135713 0.144930 -0.310039
v -0.211824 0.017913 -0.269745
v -0.185192 -0.114598 -0.270683
v -0.110878 -0.237989 -0.220937
v -0.023035 -0.298525 -0.143999
v 0.054878 -0.316734 -0.068216
v 0.152842 -0.300652 0.035356
v 0.234590 -0.241334 0.131538
v 0.285364 -0.142353 0.204485
v 0.291901 0.016815 0.245001
v 0.250606 0.159203 0.233048
v 0.193816 0.260575 0.196537
v 0.101244 0.356390 0.122263
v -0.019602 0.395874 0.007110
v -0.107967 0.356113 -0.091681
v -0.173456 0.260260 -0.179007
v -0.208399 0.129116 -0.242606
v -0.242362 0.004381 -0.189849
v -0.234283 -0.118647 -0.176629
v -0.168768 -0.227441 -0.132775
v -0.048288 -0.303097 -0.119021
v 0.029500 -0.321276 -0.043359
v 0.072834 -0.284507 0.102095
v 0.149868 -0.233238 0.191747
v 0.210481 -0.140103 0.242399
v 0.216615 0.003753 0.279248
v 0.177910 0.137626 0.268133
v 0.124758 0.234799 0.234449
v 0.039113 0.326991 0.166486
v -0.086262 0.355592 0.075502
v -0.150239 0.323409 -0.027857
v -0.208467 0.230157 -0.107207
v -0.239334 0.106498 -0.165049
v -0.314916 -0.011440 -0.122284
v -0.291798 -0.139658 -0.125903
v -0.240317 -0.245455 -0.095760
v -0.146464 -0.324600 -0.016633
v -0.073228 -0.342121 0.054516
v 0.021115 -0.323372 0.154951
v 0.101945 -0.261495 0.250740
v 0.153079 -0.163321 0.323884
v 0.159716 -0.013092 0.362600
v 0.117999 0.116681 0.347536
v 0.043146 0.229357 0.294961
v -0.049448 0.304882 0.216352
v -0.143031 0.328649 0.125730
v -0.223554 0.295570 0.036377
v -0.281563 0.211754 -0.040744
v -0.311948 0.092971 -0.097056
v -0.386885 -0.026873 -0.054037
v -0.364083 -0.160571 -0.059144
v -0.312922 -0.273211 -0.030783
v -0.236868 -0.348416 0.030986
v -0.143610 -0.376466 0.120364
v -0.046188 -0.354758 0.224577
v 0.038154 -0.287199 0.325163
v 0.091895 -0.183240 0.402202
v 0.098896 -0.028964 0.442152
v 0.054997 0.100750 0.424844
v -0.023271 0.211656 0.368401
v -0.119161 0.285722 0.286112
v -0.214890 0.309887 0.193380
v -0.296150 0.279086 0.103758
v -0.353955 0.197800 0.027384
v -0.383963 0.079486 -0.028443
v -0.438847 -0.038709 0.004316
v -0.416462 -0.170419 -0.000795
v -0.379790 -0.281654 0.044165
v -0.305864 -0.354959 0.104161
v -0.215279 -0.382245 0.190970
v -0.120707 -0.360950 0.292181
v -0.038875 -0.294982 0.389863
v 0.013243 -0.193713 0.464670
v 0.020028 -0.043960 0.503438
v -0.022540 0.081799 0.486651
v -0.098471 0.189187 0.431849
v -0.191544 0.260884 0.351936
v -0.284515 0.284353 0.261877
v -0.363486 0.254690 0.174836
v -0.406521 0.182173 0.084313
v -0.435978 0.065990 0.029504
v -0.498584 -0.053538 0.085195
v -0.477004 -0.176513 0.081118
v -0.428936 -0.280389 0.108181
v -0.358179 -0.349830 0.165758
v -0.272351 -0.375641 0.248017
v -0.183592 -0.355354 0.343071
v -0.107382 -0.292726 0.434296
v -0.059114 -0.196756 0.504042
v -0.052851 -0.055413 0.540488
v -0.092235 0.063312 0.525459
v -0.162841 0.164600 0.474806
v -0.250008 0.232219 0.400064
v -0.337878 0.254420 0.314950
v -0.413274 0.226570 0.231950
v -0.467459 0.152563 0.160824
v -0.495811 0.044420 0.108852
v -0.557526 -0.068172 0.166930
v -0.524022 -0.180256 0.146246
v -0.477621 -0.277717 0.172968
v -0.410183 -0.342922 0.228052
v -0.329568 -0.367110 0.305327
v -0.247361 -0.347913 0.393451
v -0.177596 -0.288934 0.477311
v -0.154734 -0.199065 0.550898
v -0.149264 -0.069793 0.583968
v -0.163821 0.044194 0.562202
v -0.228303 0.138698 0.516367
v -0.308780 0.201782 0.447501
v -0.391014 0.222582 0.367852
v -0.462614 0.196763 0.289163
v -0.514769 0.127844 0.221194
v -0.554836 0.021969 0.188840
v -0.606639 -0.079671 0.228266
v -0.586166 -0.186890 0.226408
v -0.541398 -0.277760 0.252860
v -0.477310 -0.338616 0.305445
v -0.402048 -0.361135 0.377602
v -0.326641 -0.343052 0.458537
v -0.263605 -0.287812 0.534723
v -0.224455 -0.203639 0.592639
v -0.219436 -0.081147 0.623806
v -0.251266 0.021720 0.613131
v -0.309347 0.109218 0.572350
v -0.382869 0.167616 0.509599
v -0.459295 0.186972 0.435579
v -0.527047 0.163258 0.361273
v -0.577194 0.099599 0.296474
v -0.603993 0.006078 0.249198
v -0.671393 -0.094444 0.304030
v -0.651349 -0.196744 0.302777
v -0.607762 -0.283536 0.328890
v -0.545881 -0.341694 0.379791
v -0.473937 -0.363184 0.448775
v -0.402588 -0.345805 0.525411
v -0.343480 -0.292899 0.597086
v -0.307020 -0.212427 0.651465
v -0.302367 -0.095802 0.681012
v -0.331972 0.002158 0.671567
v -0.386331 0.085402 0.633687
v -0.455729 0.140958 0.574548
v -0.528597 0.159429 0.503979
v -0.593857 0.136978 0.432488
v -0.642591 0.076504 0.369811
v -0.668798 -0.012491 0.324103
v -0.735337 -0.129578 0.376293
v -0.717624 -0.208230 0.377684
v -0.675176 -0.292120 0.403249
v -0.615106 -0.348343 0.452710
v -0.545537 -0.369103 0.519421
v -0.476815 -0.352255 0.593259
v -0.420084 -0.301045 0.662142
v -0.385190 -0.223210 0.714361
v -0.380745 -0.110677 0.742824
v -0.409063 -0.016075 0.733981
v -0.461198 0.064286 0.697764
v -0.527979 0.117916 0.640890
v -0.598371 0.135773 0.572721
v -0.661662 0.114150 0.503420
v -0.709087 0.055825 0.442538
v -0.734654 -0.030070 0.398142
v -0.801265 -0.143822 0.450968
v -0.784018 -0.220182 0.452369
v -0.742779 -0.301464 0.477253
v -0.684486 -0.355941 0.525269
v -0.617057 -0.376046 0.589931
v -0.550534 -0.359694 0.661415
v -0.495682 -0.310031 0.728049
v -0.461979 -0.234568 0.778545
v -0.457692 -0.125657 0.806078
v -0.485037 -0.033991 0.797607
v -0.535432 0.043869 0.762635
v -0.600058 0.095830 0.707610
v -0.668262 0.113142 0.641562
v -0.729662 0.092222 0.574343
v -0.775724 0.035753 0.515250
v -0.800582 -0.047430 0.472155
v -0.867143 -0.158110 0.525686
v -0.844283 -0.249137 0.529708
v -0.810387 -0.310934 0.551226
v -0.753885 -0.363691 0.597776
v -0.688565 -0.383152 0.660419
v -0.624158 -0.367293 0.729636
v -0.571078 -0.319158 0.794132
v -0.535026 -0.229810 0.849982
v -0.534343 -0.140668 0.869628
v -0.560783 -0.051866 0.861472
v -0.609545 0.023559 0.827653
v -0.672107 0.073895 0.774392
v -0.738169 0.090675 0.710421
v -0.797674 0.070433 0.645285
v -0.842338 0.015769 0.588003
v -0.866460 -0.064768 0.546224
f 1 2 18 17
f 2 3 19 18
f 3 4 20 19
f 4 5 21 20
f 5 6 22 21
f 6 7 23 22
f 7 8 24 23
f 8 9 25 24
f 9 10 26 25
f 10 11 27 26
f 11 12 28 27
f 12 13 29 28
f 13 14 30 29
f 14 15 31 30
f 15 16 32 31
f 16 1 17 32
f 17 18 34 33
f 18 19 35 34
f 19 20 36 35
f 20 21 37 36
f 21 22 38 37
f 22 23 39 38
f 23 24 40 39
f 24 25 41 40
f 25 26 42 41
f 26 27 43 42
f 27 28 44 43
f 28 29 45 44
f 29 30 46 45
f 30 31 47 46
f 31 32 48 47
f 32 17 33 48
f 33 34 50 49
f 34 35 51 50
f 35 36 52 51
f 36 37 53 52
f 37 38 54 53
f 38 39 55 54
f 39 40 56 55
f 40 41 57 56
f 41 42 58 57
f 42 43 59 58
f 43 44 60 59
f 44 45 61 60
f 45 46 62 61
f 46 47 63 62
f 47 48 64 63
f 48 33 49 64
f 49 50 66 65
f 50 51 67 66
f 51 52 68 67
f 52 53 69 68
f 53 54 70 69
f 54 55 71 70
f 55 56 72 71
f 56 57 73 72
f 57 58 74 73
f 58 59 75 74
f 59 60 76 75
f 60 61 77 76
f 61 62 78 77
f 62 63 79 78
f 63 64 80 79
f 64 49 65 80
f 65 66 82 81
f 66 67 83 82
f 67 68 84 83
f 68 69 85 84
f 69 70 86 85
f 70 71 87 86
f 71 72 88 87
f 72 73 89 88
f 73 74 90 89
f 74 75 91 90
f 75 76 92 91
f 76 77 93 92
f 77 78 94 93
f 78 79 95 94
f 79 80 96 95
f 80 65 81 96
f 81 82 98 97
f 82 83 99 98
f 83 84 100 99
f 84 85 101 100
f 85 86 102 101
f 86 87 103 102
f 87 88 104 103
f 88 89 105 104
f 89 90 106 105
f 90 91 107 106
f 91 92 108 107
f 92 93 109 108
f 93 94 110 109
f 94 95 111 110
f 95 96 112 111
f 96 81 97 112
f 97 98 114 113
f 98 99 115 114
f 99 100 116 115
f 100 101 117 116
f 101 102 118 117
f 102 103 119 118
f 103 104 120 119
f 104 105 121 120
f 105 106 122 121
f 106 107 123 122
f 107 108 124 123
f 108 109 125 124
f 109 110 126 125
f 110 111 127 126
f 111 112 128 127
f 112 97 113 128
f 113 114 130 129
f 114 115 131 130
f 115 116 132 131
f 116 117 133 132
f 117 118 134 133
f 118 119 135 134
f 119 120 136 135
f 120 121 137 136
f 121 122 138 137
f 122 123 139 138
f 123 124 140 139
f 124 125 141 140
f 125 126 142 141
f 126 127 143 142
f 127 128 144 143
f 128 113 129 144
f 129 130 146 145
f 130 131 147 146
f 131 132 148 147
f 132 133 149 148
f 133 134 150 149
f 134 135 151 150
f 135 136 152 151
f 136 137 153 152
f 137 138 154 153
f 138 139 155 154
f 139 140 156 155
f 140 141 157 156
f 141 142 158 157
f 142 143 159 158
f 143 144 160 159
f 144 129 145 160
f 145 146 162 161
f 146 147 163 162
f 147 148 164 163
f 148 149 165 164
f 149 150 166 165
f 150 151 167 166
f 151 152 168 167
f 152 153 169 168
f 153 154 170 169
f 154 155 171 170
f 155 156 172 171
f 156 157 173 172
f 157 158 174 173
f 158 159 175 174
f 159 160 176 175
f 160 145 161 176
f 161 162 178 177
f 162 163 179 178
f 163 164 180 179
f 164 165 181 180
f 165 166 182 181
f 166 167 183 182
f 167 168 184 183
f 168 169 185 184
f 169 170 186 185
f 170 171 187 186
f 171 172 188 187
f 172 173 189 188
f 173 174 190 189
f 174 175 191 190
f 175 176 192 191
f 176 161 177 192
f 177 178 194 193
f 178 179 195 194
f 179 180 196 195
f 180 181 197 196
f 181 182 198 197
f 182 183 199 198
f 183 184 200 199
f 184 185 201 200
f 185 186 202 201
f 186 187 203 202
f 187 188 204 203
f 188 189 205 204
f 189 190 206 205
f 190 191 207 206
f 191 192 208 207
f 192 177 193 208
f 193 194 210 209
f 194 195 211 210
f 195 196 212 211
f 196 197 213 212
f 197 198 214 213
f 198 199 215 214
f 199 200 216 215
f 200 201 217 216
f 201 202 218 217
f 202 203 219 218
f 203 204 220 219
f 204 205 221 220
f 205 206 222 221
f 206 207 223 222
f 207 208 224 223
f 208 193 209 224
f 209 210 226 225
f 210 211 227 226
f 211 212 228 227
f 212 213 229 228
f 213 214 230 229
f 214 215 231 230
f 215 216 232 231
f 216 217 233 232
f 217 218 234 233
f 218 219 235 234
f 219 220 236 235
f 220 221 237 236
f 221 222 238 237
f 222 223 239 238
f 223 224 240 239
f 224 209 225 240
f 225 226 242 241
f 226 227 243 242
f 227 228 244 243
f 228 229 245 244
f 229 230 246 245
f 230 231 247 246
f 231 232 248 247
f 232 233 249 248
f 233 234 250 249
f 234 235 251 250
f 235 236 252 251
f 236 237 253 252
f 237 238 254 253
f 238 239 255 254
f 239 240 256 255
f 240 225 241 256
f 241 242 258 257
f 242 243 259 258
f 243 244 260 259
f 244 245 261 260
f 245 246 262 261
f 246 247 263 262
f 247 248 264 263
f 248 249 265 264
f 249 250 266 265
f 250 251 267 266
f 251 252 268 267
f 252 253 269 268
f 253 254 270 269
f 254 255 271 270
f 255 256 272 271
f 256 241 257 272
f 257 258 274 273
f 258 259 275 274
f 259 260 276 275
f 260 261 277 276
f 261 262 278 277
f 262 263 279 278
f 263 264 280 279
f 264 265 281 280
f 265 266 282 281
f 266 267 283 282
f 267 268 284 283
f 268 269 285 284
f 269 270 286 285
f 270 271 287 286
f 271 272 288 287
f 272 257 273 288
f 273 274 290 289
f 274 275 291 290
f 275 276 292 291
f 276 277 293 292
f 277 278 294 293
f 278 279 295 294
f 279 280 296 295
f 280 281 297 296
f 281 282 298 297
f 282 283 299 298
f 283 284 300 299
f 284 285 301 300
f 285 286 302 301
f 286 287 303 302
f 287 288 304 303
f 288 273 289 304
f 289 290 306 305
f 290 291 307 306
f 291 292 308 307
f 292 293 309 308
f 293 294 310 309
f 294 295 311 310
f 295 296 312 311
f 296 297 313 312
f 297 298 314 313
f 298 299 315 314
f 299 300 316 315
f 300 301 317 316
f 301 302 318 317
f 302 303 319 318
f 303 304 320 319
f 304 289 305 320
f 305 306 322 321
f 306 307 323 322
f 307 308 324 323
f 308 309 325 324
f 309 310 326 325
f 310 311 327 326
f 311 312 328 327
f 312 313 329 328
f 313 314 330 329
f 314 315 331 330
f 315 316 332 331
f 316 317 333 332
f 317 318 334 333
f 318 319 335 334
f 319 320 336 335
f 320 305 321 336
f 321 322 338 337
f 322 323 339 338
f 323 324 340 339
f 324 325 341 340
f 325 326 342 341
f 326 327 343 342
f 327 328 344 343
f 328 329 345 344
f 329 330 346 345
f 330 331 347 346
f 331 332 348 347
f 332 333 349 348
f 333 334 350 349
f 334 335 351 350
f 335 336 352 351
f 336 321 337 352
