v 0.936874 0.143885 -0.429205
v 0.914653 0.268360 -0.459611
v 0.880980 0.121580 -0.374263
v 0.167888 -0.704462 -0.424058
v 0.439311 -0.490503 -0.446575
v 0.039636 -0.795067 -0.116605
v 0.867340 -0.080488 -0.323316
v 0.854256 -0.004041 -0.320874
v 0.799074 -0.065082 -0.256565
v 0.729813 -0.264483 -0.185605
v 0.817540 0.117663 -0.311469
v 0.864206 0.267551 -0.423591
v 0.793380 0.271636 -0.363021
v 0.908667 0.347532 -0.536600
v 0.817241 0.390039 -0.483092
v 0.834482 0.396584 -0.621325
v 0.727059 0.481717 -0.560014
v 0.791063 0.210826 -0.664040
v 0.613717 0.495837 -0.666437
v 0.150156 -0.795945 -0.017042
v 0.680774 -0.325735 -0.442627
v 0.830308 -0.228095 -0.358132
v 0.601643 -0.473833 -0.096935
v 0.404328 -0.690410 -0.059413
v 0.628570 0.048121 -0.788135
v 0.471852 0.321193 -0.806724
v 0.424490 -0.180853 -0.802821
v 0.373344 0.067320 -0.818357
v 0.271446 -0.300155 -0.752576
v 0.278710 -0.156930 -0.750807
v 0.023102 -0.725936 -0.322332
v -0.001098 -0.763665 -0.190098
v -0.022996 -0.727077 -0.162908
v 0.018484 -0.745531 -0.049603
v 0.123726 -0.733581 0.034972
v 0.127590 -0.557183 -0.562005
v 0.159434 -0.395891 -0.616506
v 0.068385 -0.617581 -0.446178
v 0.047355 -0.560858 -0.451150
v -0.011318 -0.670513 -0.300939
v 0.733868 0.394733 -0.422404
v 0.298279 -0.663646 0.055676
v 0.731734 -0.086296 -0.175041
v 0.643479 -0.303642 -0.092861
v 0.754614 0.108223 -0.236628
v 0.726424 0.267679 -0.290682
v 0.660433 0.391284 -0.352176
v 0.642183 0.474641 -0.502650
v 0.488206 -0.512141 0.000123
v 0.531156 0.478546 -0.604127
v 0.421155 0.364090 -0.704925
v 0.336181 0.174403 -0.742558
v 0.076801 -0.674733 0.089131
v -0.024275 -0.687677 0.002370
v 0.225684 -0.625955 0.123862
v 0.248684 -0.047764 -0.709698
v 0.137367 -0.286409 -0.604941
v 0.018241 -0.489310 -0.443567
v -0.061026 -0.615534 -0.267215
v -0.073132 -0.672850 -0.116198
v 0.405727 -0.516168 0.092338
v 0.679601 -0.109086 -0.078683
v 0.575326 -0.330316 0.007957
v 0.705267 0.097862 -0.145874
v 0.671560 0.264957 -0.203121
v 0.598174 0.392399 -0.266138
v 0.569027 0.467567 -0.431828
v 0.504841 0.471298 -0.347129
v 0.462405 0.473446 -0.526285
v 0.363114 0.387643 -0.612669
v 0.148988 -0.588458 0.205497
v 0.008137 -0.620377 0.149204
v 0.323420 -0.516052 0.201881
v 0.285107 0.231939 -0.658974
v 0.207447 0.028935 -0.651488
v 0.106433 -0.202684 -0.575333
v -0.018944 -0.414122 -0.428975
v -0.120846 -0.557185 -0.241057
v -0.140291 -0.616099 -0.075249
v -0.090707 -0.629813 0.053707
v 0.640528 -0.147732 0.040124
v 0.509255 -0.368173 0.134492
v 0.674684 0.080833 -0.037016
v 0.633095 0.260826 -0.098889
v 0.550605 0.395101 -0.164707
v 0.399434 0.487321 -0.439881
v 0.449272 0.483862 -0.248683
v 0.337800 0.513069 -0.344133
v 0.301020 0.419432 -0.524889
v 0.219275 -0.494009 0.309584
v 0.408819 -0.402186 0.276737
v 0.227442 0.283024 -0.578903
v 0.160115 0.096701 -0.590361
v 0.072231 -0.124505 -0.542147
v -0.053520 -0.338972 -0.417336
v -0.176747 -0.487319 -0.235363
v -0.219747 -0.549279 -0.049882
v -0.172428 -0.561659 0.093243
v -0.075605 -0.555220 0.200885
v 0.056842 -0.535096 0.275586
v 0.235346 0.459037 -0.435227
v 0.580363 -0.209694 0.182143
v 0.638350 0.035584 0.083476
v 0.591561 0.232321 0.011867
v 0.503759 0.374156 -0.058972
v 0.398372 0.471106 -0.138869
v 0.283426 0.513980 -0.231712
v 0.176971 0.480578 -0.328394
v 0.103171 0.370502 -0.406177
v 0.163945 0.334147 -0.498941
v 0.106523 0.161186 -0.526311
v 0.036370 -0.043728 -0.505315
v -0.272823 -0.456661 -0.059212
v -0.204645 -0.395220 -0.248958
v -0.236789 -0.467448 0.097083
v -0.143744 -0.461063 0.213456
v -0.019067 -0.445178 0.298988
v 0.051406 0.210686 -0.451291
v -0.073752 -0.249527 -0.412105
v 0.128540 -0.414397 0.348259
v 0.300130 -0.352647 0.343671
v 0.547790 -0.024489 0.168324
v 0.468122 -0.222203 0.266658
v 0.517808 0.169507 0.091939
v 0.341920 0.413413 -0.046500
v 0.440106 0.314368 0.025446
v -0.004270 0.022001 -0.453983
v 0.236251 0.465818 -0.129162
v 0.132253 0.456598 -0.221647
v 0.052782 0.372075 -0.308634
v -0.000055 0.235115 -0.369845
v -0.047722 0.069828 -0.392941
v -0.090289 -0.162502 -0.393085
v -0.202657 -0.294211 -0.262192
v -0.275484 -0.349950 -0.091061
v -0.253940 -0.358321 0.066950
v -0.172917 -0.353055 0.184485
v -0.063246 -0.342348 0.269226
v 0.069278 -0.319205 0.321852
v -0.115566 -0.092528 -0.358821
v 0.220270 -0.274250 0.327609
v 0.363419 -0.188692 0.275121
v 0.444477 -0.049945 0.199451
v 0.430935 0.113985 0.136697
v 0.181784 0.410805 -0.049137
v 0.278227 0.351464 0.022752
v 0.085374 0.416354 -0.133264
v 0.004856 0.357607 -0.219765
v -0.097311 0.101233 -0.331226
v -0.052394 0.243599 -0.291432
v -0.151347 -0.037256 -0.320342
v -0.204687 -0.205503 -0.256400
v -0.050587 0.343220 -0.143953
v 0.029275 0.388729 -0.056431
v -0.222674 -0.129811 -0.241352
v -0.267366 -0.249364 -0.107969
v -0.257002 -0.253501 0.037644
v -0.189106 -0.246918 0.156965
v -0.090771 -0.237574 0.244204
v 0.026693 -0.222477 0.299045
v 0.157011 -0.195660 0.312357
v 0.283337 -0.138519 0.278499
v 0.355757 -0.041625 0.222483
v 0.349571 0.088493 0.176910
v 0.365849 0.251065 0.082633
v 0.293225 0.212781 0.136524
v 0.212521 0.311669 0.088175
v 0.121297 0.374540 0.023760
v -0.109101 0.247986 -0.220100
v -0.277059 -0.158846 -0.108618
v -0.168768 0.250164 -0.154052
v -0.095573 0.312908 -0.071479
v -0.149785 0.126800 -0.272445
v -0.192601 0.007385 -0.280697
v -0.251116 -0.064561 -0.219817
v -0.297515 -0.077164 -0.102702
v -0.014990 -0.124927 0.299010
v 0.105996 -0.111408 0.319639
v 0.221221 -0.080724 0.298358
v 0.288003 -0.014295 0.257459
v 0.282718 0.086020 0.225271
v 0.227840 0.195157 0.196451
v 0.149973 0.288363 0.157247
v 0.060705 0.339804 0.090708
v -0.026470 0.354857 0.015047
v -0.202214 0.148900 -0.214837
v -0.272851 -0.148538 0.031840
v -0.214404 -0.139600 0.150770
v -0.124959 -0.132634 0.240724
v -0.230005 0.147035 -0.138127
v -0.203184 0.227586 -0.078488
v -0.197342 0.041058 -0.213732
v -0.249955 0.081220 -0.167234
v -0.246156 -0.006172 -0.170456
v 0.219798 0.092483 0.252236
v 0.227053 0.024017 0.274702
v -0.001134 0.304513 0.149668
v 0.085637 0.252940 0.200200
v -0.085478 0.321740 0.080731
v -0.155260 0.295096 -0.000604
v -0.279357 -0.013883 -0.077661
v -0.018532 -0.048642 0.260071
v 0.078294 -0.037740 0.289578
v 0.166894 -0.017447 0.283633
v -0.249823 -0.063598 0.021831
v -0.283448 0.002818 0.040594
v -0.287254 0.170946 -0.084055
v -0.296759 0.130198 -0.122621
v -0.284703 0.059057 -0.141219
v -0.323581 0.068343 -0.059503
v -0.336750 0.086386 0.058213
v -0.181813 -0.059878 0.119954
v -0.242804 0.014769 0.152724
v -0.107427 -0.056682 0.201901
v -0.170168 0.028096 0.246080
v -0.074865 0.039124 0.313695
v 0.033629 0.048913 0.350900
v 0.187021 0.117004 0.321197
v 0.199802 0.074008 0.339461
v 0.165426 0.176528 0.231794
v 0.119505 0.180487 0.300648
v 0.030562 0.243121 0.266644
v -0.061834 0.289185 0.215120
v -0.149814 0.308372 0.146687
v -0.222383 0.289663 0.065852
v -0.268183 0.235074 -0.016506
v -0.316756 0.130953 -0.112304
v 0.138049 0.056741 0.356270
v -0.301014 0.103774 0.176261
v -0.348449 0.157184 -0.046700
v -0.362762 0.185790 0.062369
v -0.329680 0.206521 0.177432
v -0.225206 0.123107 0.273835
v 0.148354 0.154449 0.373143
v 0.164250 0.144644 0.386559
v 0.074300 0.192139 0.357280
v -0.319107 0.240089 0.047949
v -0.278053 0.282294 0.132198
v -0.329512 0.196906 -0.024825
v -0.328419 0.182237 -0.071195
v -0.335471 0.205136 -0.073472
v -0.352733 0.245786 -0.025915
v -0.254937 0.226988 0.272415
v -0.124604 0.139828 0.343316
v -0.011243 0.150311 0.385040
v 0.098361 0.150979 0.396911
v -0.019992 0.239636 0.326971
v -0.116194 0.278968 0.278725
v -0.206057 0.296624 0.212969
v -0.360926 0.281734 0.060533
v -0.157196 0.243753 0.340838
v -0.349333 0.239230 -0.017633
v -0.356630 0.228531 0.033982
v -0.347088 0.281633 -0.028901
v -0.352403 0.333389 0.004314
v -0.353190 0.376248 0.072136
v -0.332177 0.309007 0.165122
v -0.265179 0.328058 0.255575
v -0.176933 0.341908 0.321360
v 0.088341 0.207301 0.388823
v 0.106665 0.225304 0.394236
v 0.017689 0.214151 0.381163
v -0.073621 0.239500 0.359971
v -0.165009 0.265409 0.320273
v -0.249421 0.278627 0.262615
v -0.315132 0.270812 0.188833
v -0.350753 0.246611 0.108123
v -0.050072 0.252262 0.382509
v 0.049635 0.247395 0.397802
v -0.326934 0.407512 0.162181
v -0.081008 0.347202 0.363536
v 0.022892 0.268830 0.390209
v -0.132113 0.258900 0.378820
v -0.217020 0.270305 0.348171
v -0.292942 0.277522 0.298124
v -0.349849 0.274522 0.230878
v -0.378545 0.267163 0.155361
v -0.381044 0.272086 0.083251
v -0.370040 0.304781 0.029245
v -0.361553 0.362742 0.010527
v -0.359659 0.426081 0.033971
v -0.354663 0.474948 0.090751
v -0.329153 0.510299 0.170283
v -0.269166 0.428595 0.245513
v -0.192097 0.441143 0.309182
v -0.107655 0.443794 0.351821
v 0.003749 0.336813 0.382033
v 0.048025 0.302987 0.386590
v -0.048097 0.254583 0.390622
v -0.034011 0.428519 0.374848
v -0.276698 0.533073 0.248379
v -0.389744 0.299048 0.261467
v -0.409363 0.305457 0.190434
v -0.406544 0.328779 0.122211
v -0.392253 0.379008 0.067946
v -0.378924 0.451143 0.043890
v -0.362849 0.579752 0.110485
v -0.336367 0.617062 0.183992
v -0.286304 0.640479 0.257740
v -0.205976 0.546051 0.310517
v -0.128767 0.547117 0.353677
v -0.062635 0.526497 0.379774
v -0.034176 0.336369 0.399200
v -0.001292 0.385691 0.386945
v -0.111172 0.306269 0.407475
v -0.197862 0.296583 0.400547
v -0.277478 0.296871 0.374177
v -0.344073 0.298473 0.326434
v -0.039275 0.474147 0.397565
v -0.219947 0.654442 0.317800
v -0.437224 0.358853 0.219133
v -0.430008 0.396334 0.155974
v -0.413392 0.457930 0.103555
v -0.396060 0.542338 0.074440
v -0.384557 0.628760 0.083785
v -0.371642 0.689534 0.131427
v -0.343547 0.726325 0.200273
v -0.295808 0.749562 0.268566
v -0.083699 0.408736 0.417205
v -0.171542 0.363588 0.431050
v -0.339942 0.337414 0.398552
v -0.263650 0.343597 0.425514
v -0.394968 0.336436 0.351076
v -0.427459 0.341122 0.287273
v -0.234918 0.764355 0.324925
v -0.147260 0.654684 0.361200
v -0.086417 0.630023 0.389481
v -0.071580 0.567825 0.411457
v -0.129702 0.485395 0.437676
v -0.168333 0.765062 0.367212
v -0.100199 0.669369 0.423562
v -0.175689 0.565758 0.456291
v -0.231412 0.425487 0.454389
v -0.331446 0.398491 0.446128
v -0.439701 0.392105 0.368528
v -0.400368 0.392790 0.415200
v -0.457711 0.398920 0.310203
v -0.459663 0.421243 0.248279
v -0.450643 0.464506 0.192184
v -0.434419 0.530835 0.143851
v -0.413994 0.625802 0.106940
v -0.396074 0.738583 0.107197
v -0.378784 0.804128 0.154289
v -0.348651 0.835832 0.218506
v -0.305150 0.858518 0.278687
v -0.253785 0.875658 0.328037
v -0.196141 0.879674 0.368238
v -0.111035 0.739510 0.397414
v -0.293060 0.490753 0.473270
v -0.139156 0.855913 0.400540
v -0.123322 0.787338 0.430055
v -0.226410 0.646846 0.473629
v -0.457573 0.474673 0.417221
v -0.402682 0.464149 0.454498
v -0.475096 0.472069 0.375240
v -0.479121 0.467950 0.333516
v -0.477558 0.481589 0.284663
v -0.470987 0.520163 0.239693
v -0.460252 0.578887 0.201012
v -0.441018 0.671692 0.157274
v -0.400634 0.898139 0.150177
v -0.379347 0.927343 0.187592
v -0.347949 0.942112 0.242253
v -0.312560 0.964635 0.289328
v -0.278035 0.990199 0.325968
v -0.237134 1.000969 0.358734
v -0.180114 0.979026 0.393059
v -0.356662 0.549062 0.485174
v -0.169248 0.971647 0.407080
v -0.484804 0.514359 0.311854
v -0.485180 0.492371 0.317387
v -0.500710 0.537291 0.311197
v -0.472192 0.635645 0.327730
v -0.366868 1.033180 0.242799
v -0.340921 0.880154 0.278482
v -0.346056 0.989805 0.254757
v -0.268138 1.006805 0.305900
v -0.238901 1.052033 0.350035
v -0.272487 0.820336 0.444019
v -0.414320 0.617943 0.466522
v -0.468238 0.501252 0.454313
v -0.516752 0.461407 0.404977
v -0.445578 0.535452 0.355130
v -0.494280 0.481398 0.356032
v -0.326049 0.996000 0.280426
v -0.315519 1.026871 0.293790
v -0.299791 1.097378 0.332168
v -0.372259 0.524948 0.059560
v -0.365114 1.104514 0.231692
v 0.969539 0.178542 -0.572428
f 3 1 2 12
f 2 14 15 12
f 13 11 3 12
f 6 4 5 20
f 5 21 24 20
f 6 20 35 34
f 7 8 9 10
f 8 3 11 9
f 9 11 45 43
f 22 7 10 23
f 10 9 43 44
f 11 13 46 45
f 13 12 15 41
f 13 41 47 46
f 15 14 16 17
f 15 17 48 41
f 16 18 19 17
f 17 19 50 48
f 18 25 26 19
f 19 26 51 50
f 21 22 23 24
f 23 10 44 49
f 35 20 24 42
f 24 23 49 42
f 25 27 28 26
f 26 28 52 51
f 27 29 30 28
f 28 30 56 52
f 29 36 37 30
f 30 37 57 56
f 31 32 33 40
f 34 33 32 6
f 33 34 54 60
f 59 40 33 60
f 53 54 34 35
f 35 42 55 53
f 36 38 39 37
f 37 39 58 57
f 39 38 31 40
f 39 40 59 58
f 43 45 64 62
f 44 43 62 63
f 45 46 65 64
f 46 47 66 65
f 47 41 48 67
f 68 66 47 67
f 48 50 69 67
f 49 61 55 42
f 49 44 63 61
f 50 51 70 69
f 70 51 52 74
f 52 56 75 74
f 71 72 53 55
f 54 53 72 80
f 55 61 73 71
f 56 57 76 75
f 77 76 57 58
f 78 77 58 59
f 59 60 79 78
f 60 54 80 79
f 61 63 82 73
f 62 64 83 81
f 63 62 81 82
f 64 65 84 83
f 65 66 85 84
f 66 68 87 85
f 68 67 69 86
f 68 86 88 87
f 69 70 89 86
f 70 74 92 89
f 71 73 90 100
f 100 99 72 71
f 91 90 73 82
f 74 75 93 92
f 75 76 94 93
f 76 77 95 94
f 77 78 96 95
f 97 96 78 79
f 79 80 98 97
f 80 72 99 98
f 81 83 103 102
f 82 81 102 91
f 104 103 83 84
f 85 105 104 84
f 85 87 106 105
f 107 106 87 88
f 88 86 89 101
f 108 107 88 101
f 110 101 89 92
f 90 91 121 120
f 111 110 92 93
f 93 94 112 111
f 94 95 119 112
f 95 96 114 119
f 96 97 113 114
f 115 113 97 98
f 98 99 116 115
f 99 100 117 116
f 100 90 120 117
f 109 108 101 110
f 121 91 102 123
f 102 103 122 123
f 124 122 103 104
f 126 124 104 105
f 106 125 126 105
f 128 125 106 107
f 129 128 107 108
f 108 109 130 129
f 109 110 111 118
f 109 118 131 130
f 118 111 112 127
f 133 127 112 119
f 113 115 136 135
f 135 134 114 113
f 115 116 137 136
f 138 137 116 117
f 117 120 139 138
f 118 127 132 131
f 119 114 134 133
f 120 121 141 139
f 121 123 142 141
f 123 122 143 142
f 124 144 143 122
f 165 144 124 126
f 125 128 145 146
f 146 165 126 125
f 128 129 147 145
f 148 147 129 130
f 130 131 150 148
f 131 132 149 150
f 133 140 132 127
f 132 140 151 149
f 140 133 134 152
f 134 135 156 152
f 157 156 135 136
f 136 137 158 157
f 137 138 159 158
f 138 139 160 159
f 161 160 139 141
f 140 152 155 151
f 141 142 162 161
f 142 143 163 162
f 143 144 164 163
f 144 165 166 164
f 145 147 154 168
f 146 145 168 167
f 147 148 153 154
f 149 151 174 173
f 153 148 150 169
f 173 169 150 149
f 151 155 175 174
f 153 169 171 172
f 154 153 172 185
f 155 152 156 170
f 155 170 176 175
f 170 156 157 187
f 157 158 188 187
f 189 188 158 159
f 159 160 177 189
f 160 161 178 177
f 179 178 161 162
f 179 162 163 180
f 163 164 181 180
f 164 166 182 181
f 165 146 167 166
f 166 167 183 182
f 167 168 184 183
f 168 154 185 184
f 173 186 171 169
f 171 186 190 191
f 200 172 171 191
f 192 186 173 174
f 192 174 175 194
f 176 170 187 205
f 194 175 176 201
f 178 203 202 177
f 179 180 196 204
f 203 178 179 204
f 180 181 195 196
f 220 195 181 182
f 198 220 182 183
f 197 198 183 184
f 184 185 199 197
f 185 172 200 199
f 193 190 186 192
f 205 187 188 212
f 188 189 214 212
f 189 177 202 214
f 190 193 208 207
f 191 190 207 226
f 209 193 192 194
f 194 201 210 209
f 195 220 221 218
f 196 195 218 219
f 197 199 224 223
f 198 197 223 222
f 199 200 225 224
f 200 191 226 225
f 205 206 201 176
f 201 206 211 210
f 202 203 217 216
f 203 204 228 217
f 204 196 219 228
f 205 212 213 206
f 207 208 240 239
f 209 227 208 193
f 208 227 241 240
f 230 227 209 210
f 210 211 231 230
f 211 206 213 229
f 211 229 232 231
f 212 214 215 213
f 213 215 233 229
f 214 202 216 215
f 244 233 215 216
f 216 217 245 244
f 217 228 246 245
f 218 221 236 234
f 219 218 234 235
f 220 198 222 221
f 236 221 222 247
f 222 223 248 247
f 223 224 249 248
f 224 225 238 249
f 225 226 237 238
f 226 207 239 237
f 227 230 242 241
f 228 219 235 246
f 250 242 230 231
f 231 232 257 250
f 233 243 232 229
f 232 243 258 257
f 262 260 234 236
f 235 234 260 261
f 236 247 263 262
f 237 239 253 267
f 238 237 267 266
f 239 240 252 253
f 240 241 254 252
f 241 242 255 254
f 242 250 256 255
f 243 233 244 251
f 243 251 259 258
f 244 245 268 251
f 245 246 269 268
f 246 235 261 269
f 247 248 264 263
f 248 249 265 264
f 249 238 266 265
f 252 254 280 279
f 253 252 279 278
f 281 280 254 255
f 255 256 282 281
f 256 250 257 270
f 257 258 284 270
f 258 259 285 284
f 268 271 259 251
f 259 271 286 285
f 288 261 260 272
f 272 260 262 289
f 262 263 273 289
f 263 264 274 273
f 264 265 275 274
f 265 266 276 275
f 266 267 277 276
f 267 253 278 277
f 268 269 287 271
f 269 261 288 287
f 282 256 270 283
f 291 283 270 284
f 305 303 272 289
f 305 289 273 306
f 273 274 307 306
f 274 275 308 307
f 275 276 292 308
f 276 277 293 292
f 277 278 294 293
f 278 279 295 294
f 279 280 296 295
f 388 296 280 281
f 281 282 297 388
f 282 283 298 297
f 283 291 299 298
f 284 285 300 291
f 285 286 301 300
f 287 290 286 271
f 286 290 302 301
f 290 287 288 304
f 288 272 303 304
f 309 302 290 304
f 292 293 311 324
f 311 293 294 312
f 294 295 313 312
f 295 296 314 313
f 315 314 296 388
f 297 316 315 388
f 297 298 317 316
f 298 299 318 317
f 299 291 300 310
f 299 310 325 318
f 300 301 326 310
f 301 302 327 326
f 302 309 328 327
f 303 305 320 319
f 304 303 319 309
f 320 305 306 322
f 306 307 321 322
f 307 308 323 321
f 308 292 324 323
f 311 312 339 338
f 339 312 313 340
f 340 313 314 341
f 314 315 342 341
f 315 316 343 342
f 316 317 344 343
f 317 318 345 344
f 318 325 346 345
f 319 329 328 309
f 319 320 333 329
f 320 322 334 333
f 334 322 321 336
f 321 323 335 336
f 323 324 337 335
f 324 311 338 337
f 326 330 325 310
f 325 330 347 346
f 326 327 348 330
f 327 328 331 348
f 331 328 329 332
f 331 351 350 348
f 331 332 352 351
f 332 329 333 349
f 332 349 368 352
f 333 334 354 349
f 334 336 353 354
f 353 336 335 355
f 335 337 356 355
f 337 338 357 356
f 338 339 358 357
f 359 358 339 340
f 359 340 341 360
f 341 342 361 360
f 342 343 362 361
f 343 344 363 362
f 344 345 364 363
f 345 346 365 364
f 346 347 366 365
f 347 330 348 350
f 347 350 367 366
f 349 354 381 368
f 367 350 351 369
f 351 352 379 369
f 352 368 380 379
f 353 355 383 382
f 354 353 382 381
f 355 356 384 383
f 356 357 371 384
f 357 358 370 371
f 358 359 372 370
f 359 360 373 372
f 373 360 361 375
f 361 362 374 389
f 362 363 376 374
f 363 364 385 376
f 364 365 386 385
f 365 366 387 386
f 366 367 378 387
f 367 369 377 378
f 3 8 7 1
f 1 390 14 2
f 16 14 390 18
f 18 21 5 25
f 25 5 4 27
f 27 4 36 29
f 36 4 31 38
f 31 4 6 32
f 390 1 7 22
f 381 373 380 368
f 380 373 375 379
f 379 375 377 369
f 377 389 387 378
f 387 389 374 386
f 386 374 376 385
f 373 381 382 372
f 372 382 383 370
f 370 383 384 371
f 389 377 375 361
f 390 22 21 18
