v 0.314260 -0.134613 -0.786952
v 0.175361 -0.441907 -0.625013
v 0.044870 -0.702899 -0.373166
v 0.028576 -0.804082 -0.193788
v 0.075556 -0.830397 -0.088362
v 0.199533 -0.807145 -0.012488
v 0.382040 -0.708789 -0.017960
v 0.599569 -0.504967 -0.110642
v 0.814123 -0.136959 -0.274124
v 0.869899 0.149175 -0.379154
v 0.845558 0.313394 -0.445264
v 0.768688 0.445309 -0.532216
v 0.652014 0.494986 -0.649918
v 0.559981 0.445058 -0.745587
v 0.479503 0.313057 -0.819449
v 0.398581 0.094422 -0.838950
v 0.249170 -0.140515 -0.721690
v 0.115938 -0.428626 -0.565829
v -0.004035 -0.662305 -0.325285
v -0.013925 -0.749994 -0.152542
v 0.035171 -0.772552 -0.048895
v 0.157924 -0.752679 0.029348
v 0.334728 -0.667574 0.031097
v 0.543580 -0.486230 -0.051756
v 0.750439 -0.142816 -0.207437
v 0.803412 0.135909 -0.310735
v 0.777593 0.299016 -0.376546
v 0.699362 0.430981 -0.463586
v 0.582085 0.480767 -0.581461
v 0.490433 0.430668 -0.677188
v 0.410955 0.298603 -0.751321
v 0.331520 0.081893 -0.771764
v 0.186408 -0.143868 -0.657052
v 0.057449 -0.413066 -0.507040
v -0.054421 -0.619875 -0.277236
v -0.058757 -0.694429 -0.110467
v -0.007149 -0.713362 -0.007724
v 0.116263 -0.696803 0.074560
v 0.299633 -0.633546 0.072154
v 0.503378 -0.469702 -0.002557
v 0.705024 -0.145613 -0.152446
v 0.754845 0.127488 -0.254944
v 0.726650 0.289958 -0.321082
v 0.645906 0.422299 -0.409061
v 0.527266 0.472305 -0.527771
v 0.436030 0.421877 -0.623638
v 0.343660 0.287813 -0.683431
v 0.266713 0.072274 -0.705019
v 0.138003 -0.144632 -0.607562
v 0.009951 -0.400610 -0.460885
v -0.098750 -0.586943 -0.237790
v -0.099459 -0.651273 -0.074430
v -0.045113 -0.667377 0.028914
v 0.081407 -0.653404 0.116615
v 0.216647 -0.609154 0.137189
v 0.468044 -0.453175 0.053792
v 0.666911 -0.146945 -0.091785
v 0.703254 0.121974 -0.176605
v 0.652398 0.322138 -0.264284
v 0.580652 0.419859 -0.336997
v 0.457279 0.470759 -0.459289
v 0.349441 0.396143 -0.574406
v 0.291167 0.284644 -0.631021
v 0.217034 0.068216 -0.653943
v 0.075941 -0.142602 -0.548350
v -0.055160 -0.384211 -0.403260
v -0.153868 -0.526332 -0.222064
v -0.161355 -0.595929 -0.023392
v -0.101919 -0.608439 0.083191
v 0.033144 -0.597683 0.181670
v 0.183584 -0.572708 0.194893
v 0.394714 -0.472213 0.137971
v 0.638372 -0.146507 -0.023377
v 0.671569 0.122739 -0.108696
v 0.610448 0.326347 -0.200857
v 0.531754 0.426212 -0.277587
v 0.401773 0.478438 -0.405159
v 0.278380 0.405266 -0.508572
v 0.209800 0.247955 -0.577425
v 0.153973 0.069242 -0.592731
v 0.014501 -0.134902 -0.494151
v -0.117941 -0.357749 -0.351772
v -0.203565 -0.488274 -0.184196
v -0.207495 -0.545483 0.013505
v -0.143845 -0.555506 0.123071
v -0.037352 -0.550563 0.209549
v 0.144978 -0.518898 0.270843
v 0.369218 -0.448932 0.208689
v 0.617233 -0.143365 0.049787
v 0.633397 0.179107 -0.060499
v 0.570552 0.334051 -0.135331
v 0.470773 0.439824 -0.199767
v 0.330377 0.494151 -0.335769
v 0.221581 0.413961 -0.457460
v 0.141653 0.254288 -0.515804
v 0.090226 0.073429 -0.535055
v -0.041059 -0.119607 -0.441317
v -0.163504 -0.312388 -0.309465
v -0.252764 -0.407851 -0.141917
v -0.249261 -0.449709 0.050062
v -0.182389 -0.456967 0.160180
v -0.073772 -0.453402 0.250287
v 0.066026 -0.437335 0.308473
v 0.262943 -0.369893 0.320017
v 0.536426 -0.063133 0.157850
v 0.541140 0.174626 0.054660
v 0.484911 0.330796 -0.030633
v 0.390540 0.433848 -0.114328
v 0.245644 0.488572 -0.253096
v 0.122967 0.378118 -0.395749
v 0.075599 0.247800 -0.452465
v 0.028468 0.073235 -0.475902
v -0.079625 -0.102429 -0.399757
v -0.186257 -0.266151 -0.281324
v -0.261886 -0.326507 -0.121715
v -0.250114 -0.359035 0.059290
v -0.185081 -0.364761 0.163969
v -0.049377 -0.359845 0.269728
v 0.080570 -0.324627 0.310035
v 0.250742 -0.261554 0.300375
v 0.439566 -0.087168 0.195818
v 0.468593 0.112785 0.110817
v 0.388798 0.295670 0.028829
v 0.301605 0.391414 -0.045705
v 0.165837 0.442649 -0.174525
v 0.073681 0.376343 -0.310483
v 0.026623 0.232258 -0.401323
v -0.017487 0.069759 -0.427795
v -0.125935 -0.075271 -0.349536
v -0.209382 -0.202242 -0.249197
v -0.265269 -0.261303 -0.107953
v -0.246500 -0.287157 0.064097
v -0.183556 -0.291763 0.163617
v -0.057163 -0.287790 0.262331
v 0.061278 -0.256186 0.300378
v 0.257892 -0.206406 0.288952
v 0.378614 -0.063474 0.207649
v 0.401186 0.107087 0.135170
v 0.326486 0.273564 0.064346
v 0.244574 0.363385 -0.003210
v 0.115282 0.411836 -0.124819
v 0.025255 0.348654 -0.259077
v -0.033911 0.209365 -0.337821
v -0.074318 0.066980 -0.368548
v -0.172631 -0.043707 -0.304635
v -0.237102 -0.138908 -0.218747
v -0.278073 -0.184946 -0.059895
v -0.249634 -0.197868 0.074765
v -0.188327 -0.201025 0.169302
v -0.071190 -0.198274 0.261149
v 0.073013 -0.185841 0.305252
v 0.220159 -0.152480 0.291123
v 0.341027 -0.044820 0.221460
v 0.341329 0.106983 0.163723
v 0.288312 0.228406 0.117517
v 0.189928 0.342816 0.041059
v 0.064717 0.388837 -0.075292
v -0.037032 0.321963 -0.196001
v -0.084613 0.227849 -0.263830
v -0.130757 0.071966 -0.314887
v -0.218304 -0.007996 -0.263406
v -0.268825 -0.075227 -0.188877
v -0.296754 -0.102874 -0.039123
v -0.263754 -0.109992 0.091459
v -0.202533 -0.111745 0.183570
v -0.089824 -0.110203 0.272718
v 0.045726 -0.103338 0.316275
v 0.180556 -0.083713 0.307002
v 0.284970 -0.008754 0.251780
v 0.276885 0.114117 0.207343
v 0.221577 0.221405 0.169383
v 0.123704 0.327203 0.100294
v 0.000168 0.370751 -0.012227
v -0.085489 0.326896 -0.113668
v -0.145685 0.221061 -0.206172
v -0.185358 0.084605 -0.265142
v -0.226552 0.022179 -0.205314
v -0.271012 -0.006756 -0.140703
v -0.285793 -0.018142 -0.018308
v -0.270345 -0.078483 0.098184
v -0.208922 -0.079770 0.189853
v -0.092004 -0.020321 0.263331
v 0.028109 -0.018426 0.310845
v 0.148347 -0.025863 0.303176
v 0.232204 0.021853 0.264000
v 0.218303 0.115555 0.228623
v 0.163015 0.207129 0.197027
v 0.069277 0.302764 0.136981
v -0.057552 0.334990 0.047419
v -0.119726 0.298973 -0.057703
v -0.169896 0.202473 -0.144935
v -0.201120 0.089749 -0.202427
v -0.267354 0.066968 -0.168806
v -0.301590 0.046994 -0.116324
v -0.324461 0.047753 -0.013455
v -0.294924 0.050040 0.128583
v -0.236446 0.050357 0.214167
v -0.126316 0.050014 0.299160
v 0.005178 0.048263 0.345392
v 0.128329 0.046436 0.348093
v 0.206822 0.066465 0.316524
v 0.179958 0.129895 0.286930
v 0.094690 0.219747 0.244543
v -0.008749 0.291185 0.176542
v -0.105733 0.314723 0.089248
v -0.181503 0.282073 -0.004755
v -0.227691 0.204118 -0.093439
v -0.249901 0.114718 -0.157748
v -0.304371 0.117825 -0.134748
v -0.333022 0.122029 -0.089526
v -0.356632 0.135970 0.011972
v -0.339358 0.142852 0.131237
v -0.268986 0.144482 0.243000
v -0.153819 0.143268 0.329856
v -0.016115 0.137499 0.378246
v 0.109733 0.124762 0.384754
v 0.180992 0.117627 0.361850
v 0.141654 0.153838 0.340081
v 0.044835 0.223927 0.301783
v -0.066276 0.285661 0.234383
v -0.166758 0.307520 0.146300
v -0.241929 0.279783 0.050722
v -0.283050 0.213498 -0.041971
v -0.295468 0.144372 -0.115004
v -0.326717 0.161820 -0.105364
v -0.347877 0.183525 -0.067882
v -0.366936 0.224909 0.031592
v -0.347345 0.236042 0.144736
v -0.278141 0.238855 0.252458
v -0.166841 0.236721 0.337307
v -0.035475 0.227314 0.386538
v 0.081508 0.205672 0.397896
v 0.140303 0.174642 0.385791
v 0.092411 0.182565 0.374212
v -0.009850 0.229626 0.345164
v -0.122768 0.279132 0.284664
v -0.221883 0.297694 0.200613
v -0.293047 0.274405 0.105936
v -0.319507 0.220491 -0.000800
v -0.324434 0.170319 -0.079603
v -0.346149 0.222688 -0.063909
v -0.356131 0.262410 -0.037113
v -0.365830 0.293730 0.046453
v -0.343759 0.308088 0.151653
v -0.277319 0.311926 0.252876
v -0.173274 0.308977 0.332978
v -0.052473 0.296712 0.380587
v 0.052370 0.269201 0.394994
v 0.099457 0.223176 0.391508
v 0.048376 0.209860 0.387921
v -0.053178 0.235623 0.367539
v -0.163424 0.271894 0.315373
v -0.258535 0.286553 0.237341
v -0.324808 0.268362 0.145417
v -0.353692 0.230666 0.049543
v -0.350992 0.209109 -0.032802
v -0.362006 0.288732 -0.024317
v -0.360997 0.324963 -0.013217
v -0.363519 0.361953 0.061360
v -0.338950 0.379279 0.158376
v -0.275622 0.384107 0.252560
v -0.179644 0.380344 0.327213
v -0.070407 0.365387 0.372465
v 0.012942 0.350155 0.386886
v 0.046257 0.289455 0.392719
v 0.005368 0.243133 0.396711
v -0.093697 0.248207 0.384703
v -0.200133 0.270365 0.341228
v -0.290677 0.280653 0.269707
v -0.351929 0.268091 0.180897
v -0.375747 0.245877 0.085210
v -0.372400 0.256807 0.010390
v -0.375414 0.344124 0.002094
v -0.369394 0.406616 0.014373
v -0.364630 0.449665 0.079954
v -0.337402 0.470185 0.168594
v -0.277232 0.476075 0.255514
v -0.189652 0.471416 0.324543
v -0.092465 0.453529 0.367324
v -0.013382 0.415556 0.386178
v 0.011865 0.344984 0.397560
v -0.042330 0.293839 0.408760
v -0.139291 0.275976 0.406010
v -0.242316 0.281598 0.372118
v -0.328409 0.286556 0.307553
v -0.384296 0.280688 0.221642
v -0.402388 0.276431 0.125487
v -0.389634 0.299978 0.039524
v -0.392441 0.418998 0.031174
v -0.380687 0.491855 0.038030
v -0.371187 0.540059 0.097485
v -0.342205 0.563074 0.180567
v -0.283909 0.569756 0.262899
v -0.201469 0.564425 0.328687
v -0.111745 0.544268 0.370414
v -0.040897 0.501735 0.391157
v -0.023268 0.420010 0.408012
v -0.080346 0.352001 0.425441
v -0.178443 0.314480 0.430342
v -0.281292 0.305763 0.403922
v -0.365286 0.306005 0.344237
v -0.417008 0.305916 0.259504
v -0.429506 0.317171 0.161382
v -0.411067 0.361045 0.072004
v -0.403823 0.516467 0.052023
v -0.392159 0.580340 0.059332
v -0.379550 0.632724 0.114084
v -0.349521 0.657646 0.192929
v -0.292556 0.664916 0.271969
v -0.213550 0.659092 0.335748
v -0.128772 0.637215 0.377197
v -0.063463 0.591021 0.399665
v -0.051427 0.499740 0.420702
v -0.111725 0.416791 0.443141
v -0.212508 0.361448 0.454508
v -0.316862 0.339419 0.434387
v -0.399902 0.335198 0.378589
v -0.447872 0.340513 0.294302
v -0.454689 0.366134 0.193698
v -0.430550 0.428399 0.100683
v -0.416620 0.602171 0.074729
v -0.402524 0.671370 0.079211
v -0.387712 0.726893 0.129945
v -0.357081 0.753235 0.205019
v -0.301378 0.760947 0.281149
v -0.225263 0.754753 0.343252
v -0.144514 0.731591 0.384555
v -0.083605 0.682645 0.408440
v -0.075886 0.583844 0.432615
v -0.138792 0.488178 0.458929
v -0.242143 0.416637 0.475754
v -0.348227 0.381884 0.461282
v -0.430554 0.373274 0.409047
v -0.474893 0.383873 0.325140
v -0.476251 0.423158 0.222321
v -0.447038 0.501991 0.126337
v -0.427475 0.691412 0.095626
v -0.408846 0.778702 0.103786
v -0.395213 0.822199 0.145125
v -0.364278 0.849542 0.216684
v -0.309893 0.857579 0.290021
v -0.236521 0.851109 0.350470
v -0.159449 0.827028 0.391498
v -0.095893 0.762419 0.420445
v -0.097962 0.671945 0.442783
v -0.162499 0.566017 0.471892
v -0.267586 0.480194 0.493167
v -0.374983 0.433474 0.483761
v -0.456513 0.420596 0.434919
v -0.497375 0.436312 0.351547
v -0.493817 0.488356 0.247098
v -0.460515 0.581624 0.149150
f 1 2 18 17
f 2 3 19 18
f 3 4 20 19
f 4 5 21 20
f 5 6 22 21
f 6 7 23 22
f 7 8 24 23
f 8 9 25 24
f 9 10 26 25
f 10 11 27 26
f 11 12 28 27
f 12 13 29 28
f 13 14 30 29
f 14 15 31 30
f 15 16 32 31
f 16 1 17 32
f 17 18 34 33
f 18 19 35 34
f 19 20 36 35
f 20 21 37 36
f 21 22 38 37
f 22 23 39 38
f 23 24 40 39
f 24 25 41 40
f 25 26 42 41
f 26 27 43 42
f 27 28 44 43
f 28 29 45 44
f 29 30 46 45
f 30 31 47 46
f 31 32 48 47
f 32 17 33 48
f 33 34 50 49
f 34 35 51 50
f 35 36 52 51
f 36 37 53 52
f 37 38 54 53
f 38 39 55 54
f 39 40 56 55
f 40 41 57 56
f 41 42 58 57
f 42 43 59 58
f 43 44 60 59
f 44 45 61 60
f 45 46 62 61
f 46 47 63 62
f 47 48 64 63
f 48 33 49 64
f 49 50 66 65
f 50 51 67 66
f 51 52 68 67
f 52 53 69 68
f 53 54 70 69
f 54 55 71 70
f 55 56 72 71
f 56 57 73 72
f 57 58 74 73
f 58 59 75 74
f 59 60 76 75
f 60 61 77 76
f 61 62 78 77
f 62 63 79 78
f 63 64 80 79
f 64 49 65 80
f 65 66 82 81
f 66 67 83 82
f 67 68 84 83
f 68 69 85 84
f 69 70 86 85
f 70 71 87 86
f 71 72 88 87
f 72 73 89 88
f 73 74 90 89
f 74 75 91 90
f 75 76 92 91
f 76 77 93 92
f 77 78 94 93
f 78 79 95 94
f 79 80 96 95
f 80 65 81 96
f 81 82 98 97
f 82 83 99 98
f 83 84 100 99
f 84 85 101 100
f 85 86 102 101
f 86 87 103 102
f 87 88 104 103
f 88 89 105 104
f 89 90 106 105
f 90 91 107 106
f 91 92 108 107
f 92 93 109 108
f 93 94 110 109
f 94 95 111 110
f 95 96 112 111
f 96 81 97 112
f 97 98 114 113
f 98 99 115 114
f 99 100 116 115
f 100 101 117 116
f 101 102 118 117
f 102 103 119 118
f 103 104 120 119
f 104 105 121 120
f 105 106 122 121
f 106 107 123 122
f 107 108 124 123
f 108 109 125 124
f 109 110 126 125
f 110 111 127 126
f 111 112 128 127
f 112 97 113 128
f 113 114 130 129
f 114 115 131 130
f 115 116 132 131
f 116 117 133 132
f 117 118 134 133
f 118 119 135 134
f 119 120 136 135
f 120 121 137 136
f 121 122 138 137
f 122 123 139 138
f 123 124 140 139
f 124 125 141 140
f 125 126 142 141
f 126 127 143 142
f 127 128 144 143
f 128 113 129 144
f 129 130 146 145
f 130 131 147 146
f 131 132 148 147
f 132 133 149 148
f 133 134 150 149
f 134 135 151 150
f 135 136 152 151
f 136 137 153 152
f 137 138 154 153
f 138 139 155 154
f 139 140 156 155
f 140 141 157 156
f 141 142 158 157
f 142 143 159 158
f 143 144 160 159
f 144 129 145 160
f 145 146 162 161
f 146 147 163 162
f 147 148 164 163
f 148 149 165 164
f 149 150 166 165
f 150 151 167 166
f 151 152 168 167
f 152 153 169 168
f 153 154 170 169
f 154 155 171 170
f 155 156 172 171
f 156 157 173 172
f 157 158 174 173
f 158 159 175 174
f 159 160 176 175
f 160 145 161 176
f 161 162 178 177
f 162 163 179 178
f 163 164 180 179
f 164 165 181 180
f 165 166 182 181
f 166 167 183 182
f 167 168 184 183
f 168 169 185 184
f 169 170 186 185
f 170 171 187 186
f 171 172 188 187
f 172 173 189 188
f 173 174 190 189
f 174 175 191 190
f 175 176 192 191
f 176 161 177 192
f 177 178 194 193
f 178 179 195 194
f 179 180 196 195
f 180 181 197 196
f 181 182 198 197
f 182 183 199 198
f 183 184 200 199
f 184 185 201 200
f 185 186 202 201
f 186 187 203 202
f 187 188 204 203
f 188 189 205 204
f 189 190 206 205
f 190 191 207 206
f 191 192 208 207
f 192 177 193 208
f 193 194 210 209
f 194 195 211 210
f 195 196 212 211
f 196 197 213 212
f 197 198 214 213
f 198 199 215 214
f 199 200 216 215
f 200 201 217 216
f 201 202 218 217
f 202 203 219 218
f 203 204 220 219
f 204 205 221 220
f 205 206 222 221
f 206 207 223 222
f 207 208 224 223
f 208 193 209 224
f 209 210 226 225
f 210 211 227 226
f 211 212 228 227
f 212 213 229 228
f 213 214 230 229
f 214 215 231 230
f 215 216 232 231
f 216 217 233 232
f 217 218 234 233
f 218 219 235 234
f 219 220 236 235
f 220 221 237 236
f 221 222 238 237
f 222 223 239 238
f 223 224 240 239
f 224 209 225 240
f 225 226 242 241
f 226 227 243 242
f 227 228 244 243
f 228 229 245 244
f 229 230 246 245
f 230 231 247 246
f 231 232 248 247
f 232 233 249 248
f 233 234 250 249
f 234 235 251 250
f 235 236 252 251
f 236 237 253 252
f 237 238 254 253
f 238 239 255 254
f 239 240 256 255
f 240 225 241 256
f 241 242 258 257
f 242 243 259 258
f 243 244 260 259
f 244 245 261 260
f 245 246 262 261
f 246 247 263 262
f 247 248 264 263
f 248 249 265 264
f 249 250 266 265
f 250 251 267 266
f 251 252 268 267
f 252 253 269 268
f 253 254 270 269
f 254 255 271 270
f 255 256 272 271
f 256 241 257 272
f 257 258 274 273
f 258 259 275 274
f 259 260 276 275
f 260 261 277 276
f 261 262 278 277
f 262 263 279 278
f 263 264 280 279
f 264 265 281 280
f 265 266 282 281
f 266 267 283 282
f 267 268 284 283
f 268 269 285 284
f 269 270 286 285
f 270 271 287 286
f 271 272 288 287
f 272 257 273 288
f 273 274 290 289
f 274 275 291 290
f 275 276 292 291
f 276 277 293 292
f 277 278 294 293
f 278 279 295 294
f 279 280 296 295
f 280 281 297 296
f 281 282 298 297
f 282 283 299 298
f 283 284 300 299
f 284 285 301 300
f 285 286 302 301
f 286 287 303 302
f 287 288 304 303
f 288 273 289 304
f 289 290 306 305
f 290 291 307 306
f 291 292 308 307
f 292 293 309 308
f 293 294 310 309
f 294 295 311 310
f 295 296 312 311
f 296 297 313 312
f 297 298 314 313
f 298 299 315 314
f 299 300 316 315
f 300 301 317 316
f 301 302 318 317
f 302 303 319 318
f 303 304 320 319
f 304 289 305 320
f 305 306 322 321
f 306 307 323 322
f 307 308 324 323
f 308 309 325 324
f 309 310 326 325
f 310 311 327 326
f 311 312 328 327
f 312 313 329 328
f 313 314 330 329
f 314 315 331 330
f 315 316 332 331
f 316 317 333 332
f 317 318 334 333
f 318 319 335 334
f 319 320 336 335
f 320 305 321 336
f 321 322 338 337
f 322 323 339 338
f 323 324 340 339
f 324 325 341 340
f 325 326 342 341
f 326 327 343 342
f 327 328 344 343
f 328 329 345 344
f 329 330 346 345
f 330 331 347 346
f 331 332 348 347
f 332 333 349 348
f 333 334 350 349
f 334 335 351 350
f 335 336 352 351
f 336 321 337 352
