v 0.219810 -0.121153 -0.694566
v 0.010791 -0.386967 -0.464039
v -0.188628 -0.582050 -0.144769
v -0.233289 -0.644415 0.062354
v -0.193766 -0.658651 0.175075
v -0.063199 -0.646122 0.244502
v 0.146909 -0.585952 0.212032
v 0.419022 -0.437357 0.065959
v 0.719193 -0.123289 -0.181269
v 0.825318 0.146725 -0.335547
v 0.821093 0.308679 -0.421333
v 0.755166 0.440982 -0.518990
v 0.641474 0.491067 -0.639608
v 0.546443 0.440729 -0.732345
v 0.455004 0.308343 -0.795486
v 0.345757 0.093707 -0.787280
v 0.157710 -0.127627 -0.632228
v -0.040147 -0.373309 -0.413155
v -0.220794 -0.540916 -0.113262
v -0.254766 -0.590219 0.083037
v -0.211909 -0.600876 0.192786
v -0.083660 -0.591539 0.265653
v 0.116535 -0.544166 0.244522
v 0.373132 -0.418057 0.114968
v 0.658516 -0.129706 -0.117523
v 0.759648 0.132463 -0.267928
v 0.753461 0.293427 -0.352942
v 0.685998 0.426003 -0.450514
v 0.571663 0.476290 -0.571267
v 0.477049 0.425687 -0.664096
v 0.386782 0.293015 -0.727677
v 0.279766 0.080201 -0.721140
v 0.098903 -0.131626 -0.571459
v -0.089136 -0.356838 -0.363658
v -0.253573 -0.496566 -0.082436
v -0.277827 -0.532777 0.103816
v -0.231278 -0.539871 0.211508
v -0.103443 -0.533723 0.289465
v 0.095449 -0.508895 0.271877
v 0.341625 -0.400666 0.155662
v 0.616142 -0.132997 -0.065507
v 0.712225 0.123128 -0.213255
v 0.703143 0.283601 -0.298088
v 0.632917 0.416778 -0.396356
v 0.517148 0.467371 -0.517873
v 0.423014 0.416351 -0.610907
v 0.320378 0.281234 -0.660657
v 0.216827 0.069406 -0.656223
v 0.054339 -0.132924 -0.525727
v -0.128730 -0.342690 -0.325234
v -0.283837 -0.459721 -0.056749
v -0.301223 -0.485111 0.122925
v -0.251012 -0.489254 0.230313
v -0.120906 -0.485722 0.314508
v 0.025801 -0.469819 0.323865
v 0.315303 -0.382219 0.203194
v 0.581676 -0.134829 -0.008413
v 0.663105 0.116205 -0.137334
v 0.633697 0.314903 -0.245992
v 0.568770 0.413689 -0.325374
v 0.448089 0.465322 -0.450299
v 0.336112 0.389661 -0.561368
v 0.269229 0.277217 -0.609561
v 0.169411 0.064220 -0.607360
v -0.001715 -0.131614 -0.472391
v -0.183029 -0.322168 -0.278185
v -0.315812 -0.401175 -0.063659
v -0.340307 -0.418182 0.151650
v -0.283803 -0.418278 0.261101
v -0.146224 -0.418268 0.357118
v 0.008312 -0.425846 0.366335
v 0.242761 -0.384475 0.286603
v 0.557489 -0.134892 0.055739
v 0.634262 0.115647 -0.072204
v 0.593583 0.318379 -0.184360
v 0.521237 0.419638 -0.267300
v 0.393728 0.472739 -0.397290
v 0.267021 0.398205 -0.497461
v 0.186843 0.239228 -0.554970
v 0.110468 0.063471 -0.550176
v -0.055405 -0.124917 -0.425772
v -0.231849 -0.291530 -0.240353
v -0.349266 -0.355872 -0.041680
v -0.366129 -0.358305 0.168672
v -0.304547 -0.355553 0.280261
v -0.197047 -0.357071 0.365754
v -0.007796 -0.360339 0.420279
v 0.229008 -0.355312 0.345835
v 0.541621 -0.132322 0.123746
v 0.605326 0.169748 -0.033042
v 0.555775 0.325391 -0.120876
v 0.462191 0.432867 -0.191373
v 0.323928 0.488265 -0.329462
v 0.211797 0.406497 -0.447890
v 0.121907 0.244226 -0.496490
v 0.051649 0.065651 -0.497321
v -0.101128 -0.111212 -0.382561
v -0.258490 -0.246439 -0.216555
v -0.367379 -0.273482 -0.029806
v -0.371666 -0.260213 0.169793
v -0.305893 -0.254694 0.280984
v -0.196752 -0.257561 0.370579
v -0.054274 -0.267015 0.426145
v 0.158646 -0.257837 0.422034
v 0.488124 -0.062823 0.205096
v 0.518617 0.162376 0.076690
v 0.472900 0.320559 -0.018884
v 0.383311 0.425975 -0.107257
v 0.240234 0.481988 -0.247804
v 0.113391 0.368924 -0.386382
v 0.058220 0.236213 -0.435465
v -0.005242 0.063501 -0.442929
v -0.130572 -0.095750 -0.349923
v -0.263829 -0.204269 -0.205447
v -0.347374 -0.202736 -0.038095
v -0.340368 -0.183698 0.147573
v -0.275942 -0.177359 0.252845
v -0.139724 -0.182869 0.358101
v -0.000975 -0.180269 0.389798
v 0.182366 -0.176323 0.367256
v 0.396677 -0.081816 0.237769
v 0.445354 0.099211 0.133548
v 0.377906 0.283112 0.039483
v 0.294739 0.381471 -0.038989
v 0.160565 0.434183 -0.169369
v 0.065867 0.366172 -0.302839
v 0.010684 0.219206 -0.385732
v -0.047236 0.058552 -0.398695
v -0.163757 -0.071245 -0.312541
v -0.263632 -0.147725 -0.196132
v -0.327694 -0.147675 -0.046892
v -0.311558 -0.125261 0.127733
v -0.248873 -0.118468 0.227506
v -0.122262 -0.124388 0.326007
v 0.003855 -0.123331 0.356547
v 0.206341 -0.139125 0.339377
v 0.346754 -0.060380 0.238813
v 0.382126 0.091846 0.153813
v 0.316929 0.259232 0.073694
v 0.238329 0.351794 0.002899
v 0.110391 0.401836 -0.120035
v 0.018049 0.336834 -0.252029
v -0.047483 0.194142 -0.324545
v -0.097942 0.053796 -0.345440
v -0.195841 -0.042580 -0.281932
v -0.267800 -0.090483 -0.188719
v -0.311547 -0.071546 -0.027152
v -0.282952 -0.049274 0.107355
v -0.221439 -0.041685 0.201691
v -0.104487 -0.048350 0.293718
v 0.039524 -0.070388 0.338010
v 0.188433 -0.090560 0.322155
v 0.317734 -0.043397 0.244244
v 0.327610 0.089845 0.177142
v 0.279921 0.211428 0.125725
v 0.184950 0.329565 0.045929
v 0.060744 0.377310 -0.071406
v -0.042531 0.307941 -0.190623
v -0.093024 0.210857 -0.255602
v -0.146384 0.056415 -0.299601
v -0.225361 -0.009864 -0.256503
v -0.275209 -0.030937 -0.182633
v -0.300154 0.004274 -0.035797
v -0.265086 0.031251 0.092762
v -0.203191 0.039911 0.184213
v -0.091078 0.032253 0.273945
v 0.042432 0.005662 0.319496
v 0.174663 -0.026508 0.312767
v 0.277908 -0.010360 0.258688
v 0.271478 0.094213 0.212632
v 0.217781 0.201927 0.173096
v 0.121200 0.311902 0.102743
v -0.001907 0.357387 -0.010198
v -0.087996 0.311582 -0.111216
v -0.149485 0.201572 -0.202454
v -0.191228 0.066242 -0.259401
v -0.219625 0.018427 -0.212089
v -0.252378 0.030007 -0.158929
v -0.259781 0.072053 -0.043751
v -0.260086 0.061088 0.088148
v -0.197830 0.070149 0.179003
v -0.062305 0.101121 0.234281
v 0.054503 0.074877 0.285028
v 0.162863 0.022597 0.288977
v 0.239159 0.018254 0.257197
v 0.220694 0.093605 0.226284
v 0.163747 0.185102 0.196312
v 0.069307 0.284955 0.136951
v -0.056966 0.318489 0.046846
v -0.119680 0.280971 -0.057749
v -0.169110 0.180303 -0.145703
v -0.197922 0.069740 -0.205556
v -0.240882 0.060228 -0.194700
v -0.261086 0.085496 -0.155943
v -0.273417 0.138724 -0.063383
v -0.237198 0.184433 0.072119
v -0.177379 0.194559 0.156391
v -0.068686 0.183721 0.242789
v 0.057662 0.147860 0.294056
v 0.171331 0.095799 0.306030
v 0.233471 0.060137 0.290457
v 0.194292 0.104840 0.272910
v 0.101945 0.195133 0.237446
v -0.004404 0.270632 0.172293
v -0.102063 0.295636 0.085658
v -0.176865 0.260957 -0.009291
v -0.219562 0.178833 -0.101390
v -0.233618 0.091185 -0.173675
v -0.256481 0.107718 -0.181591
v -0.263299 0.159975 -0.157726
v -0.271908 0.230237 -0.070900
v -0.246791 0.278207 0.040692
v -0.173881 0.295416 0.149974
v -0.060661 0.282138 0.238733
v 0.070192 0.239288 0.293825
v 0.182792 0.173220 0.313291
v 0.229235 0.108053 0.314661
v 0.169543 0.125129 0.312801
v 0.060080 0.195974 0.286872
v -0.056611 0.262200 0.224930
v -0.158486 0.285745 0.138208
v -0.231848 0.255868 0.040861
v -0.266517 0.184930 -0.058144
v -0.264569 0.117006 -0.145227
v -0.260754 0.148799 -0.169885
v -0.255119 0.217889 -0.158613
v -0.249793 0.311917 -0.082991
v -0.221012 0.362596 0.021164
v -0.148900 0.380398 0.126042
v -0.039848 0.366560 0.213089
v 0.083503 0.321393 0.270160
v 0.184505 0.248494 0.297151
v 0.211851 0.161317 0.315807
v 0.136283 0.150036 0.331299
v 0.015533 0.197730 0.320336
v -0.106045 0.251976 0.268307
v -0.207397 0.272364 0.186444
v -0.275688 0.246779 0.088957
v -0.294899 0.188920 -0.024870
v -0.280378 0.139952 -0.122695
v -0.255657 0.205648 -0.152423
v -0.234547 0.289141 -0.156040
v -0.224181 0.370819 -0.092100
v -0.192032 0.422101 0.003241
v -0.122421 0.439962 0.101364
v -0.020844 0.425982 0.183879
v 0.091147 0.380239 0.240106
v 0.178362 0.305044 0.271755
v 0.190461 0.206626 0.302492
v 0.107319 0.174331 0.330266
v -0.017014 0.199995 0.332165
v -0.138588 0.240762 0.291079
v -0.236733 0.257252 0.216015
v -0.299147 0.236783 0.120317
v -0.315172 0.194514 0.011865
v -0.287169 0.175034 -0.095231
v -0.245347 0.267354 -0.138427
v -0.216675 0.345136 -0.154385
v -0.197684 0.428426 -0.100851
v -0.162258 0.479864 -0.014455
v -0.095519 0.497668 0.076392
v -0.002223 0.483597 0.153670
v 0.097483 0.437607 0.208244
v 0.168085 0.376318 0.235133
v 0.163448 0.268504 0.278089
v 0.081413 0.204520 0.322328
v -0.044247 0.208562 0.336334
v -0.164708 0.234740 0.306577
v -0.259155 0.246789 0.238874
v -0.315509 0.232065 0.145272
v -0.323557 0.205833 0.034161
v -0.285796 0.218890 -0.074321
v -0.237062 0.319154 -0.133235
v -0.195230 0.419115 -0.155985
v -0.167440 0.504410 -0.112926
v -0.128518 0.556168 -0.035725
v -0.064673 0.573950 0.047599
v 0.019981 0.559731 0.119490
v 0.106848 0.513318 0.172366
v 0.165560 0.435283 0.211146
v 0.150759 0.320408 0.261700
v 0.057572 0.250995 0.311042
v -0.070380 0.231089 0.338605
v -0.190764 0.240134 0.321692
v -0.281889 0.246745 0.262050
v -0.331561 0.238881 0.170059
v -0.330324 0.231281 0.054999
v -0.283804 0.258715 -0.063993
v -0.225040 0.389273 -0.132569
v -0.175112 0.497861 -0.163054
v -0.141259 0.585886 -0.127419
v -0.099904 0.638345 -0.056440
v -0.037721 0.656234 0.022091
v 0.041602 0.641830 0.090927
v 0.120373 0.594725 0.143368
v 0.169641 0.514432 0.185220
v 0.144697 0.390654 0.243717
v 0.044981 0.304452 0.302852
v -0.088486 0.264223 0.342351
v -0.212021 0.258576 0.336165
v -0.302183 0.260415 0.282513
v -0.346360 0.258416 0.190400
v -0.335972 0.266731 0.069892
v -0.279254 0.315125 -0.056929
v -0.196754 0.487702 -0.150521
v -0.153900 0.580342 -0.173721
v -0.115872 0.670897 -0.143833
v -0.072952 0.723990 -0.077596
v -0.011942 0.741979 -0.002513
v 0.063808 0.727446 0.064450
v 0.137157 0.679756 0.117078
v 0.179927 0.597377 0.161593
v 0.147167 0.465429 0.226448
v 0.040782 0.364167 0.293967
v -0.099655 0.305559 0.344122
v -0.228031 0.286345 0.347497
v -0.318389 0.283690 0.298857
v -0.357451 0.287142 0.205856
v -0.337812 0.310120 0.079376
v -0.271003 0.377460 -0.055377
v -0.177179 0.568139 -0.159480
v -0.130674 0.665374 -0.186698
v -0.089699 0.757652 -0.161557
v -0.045816 0.811052 -0.099444
v 0.014045 0.829054 -0.027381
v 0.086806 0.814480 0.038003
v 0.155792 0.766508 0.090812
v 0.193488 0.682730 0.137402
v 0.154767 0.544393 0.207003
v 0.042902 0.430211 0.281205
v -0.103995 0.354809 0.340626
v -0.237317 0.322569 0.352796
v -0.328102 0.315478 0.308835
v -0.362176 0.324280 0.214887
v -0.333655 0.361266 0.082842
v -0.257833 0.445774 -0.058733
v -0.154504 0.651929 -0.171380
v -0.096241 0.773730 -0.201988
v -0.062456 0.845482 -0.180361
v -0.018049 0.898822 -0.121979
v 0.040566 0.916739 -0.052779
v 0.110519 0.902207 0.011014
v 0.175618 0.854271 0.063753
v 0.209319 0.749291 0.121903
v 0.166045 0.627165 0.184546
v 0.050408 0.502492 0.263637
v -0.101527 0.412134 0.330737
v -0.239123 0.367531 0.350869
v -0.330204 0.356084 0.311370
v -0.359506 0.370114 0.216691
v -0.322942 0.420305 0.079957
v -0.239745 0.519920 -0.066795
f 1 2 18 17
f 2 3 19 18
f 3 4 20 19
f 4 5 21 20
f 5 6 22 21
f 6 7 23 22
f 7 8 24 23
f 8 9 25 24
f 9 10 26 25
f 10 11 27 26
f 11 12 28 27
f 12 13 29 28
f 13 14 30 29
f 14 15 31 30
f 15 16 32 31
f 16 1 17 32
f 17 18 34 33
f 18 19 35 34
f 19 20 36 35
f 20 21 37 36
f 21 22 38 37
f 22 23 39 38
f 23 24 40 39
f 24 25 41 40
f 25 26 42 41
f 26 27 43 42
f 27 28 44 43
f 28 29 45 44
f 29 30 46 45
f 30 31 47 46
f 31 32 48 47
f 32 17 33 48
f 33 34 50 49
f 34 35 51 50
f 35 36 52 51
f 36 37 53 52
f 37 38 54 53
f 38 39 55 54
f 39 40 56 55
f 40 41 57 56
f 41 42 58 57
f 42 43 59 58
f 43 44 60 59
f 44 45 61 60
f 45 46 62 61
f 46 47 63 62
f 47 48 64 63
f 48 33 49 64
f 49 50 66 65
f 50 51 67 66
f 51 52 68 67
f 52 53 69 68
f 53 54 70 69
f 54 55 71 70
f 55 56 72 71
f 56 57 73 72
f 57 58 74 73
f 58 59 75 74
f 59 60 76 75
f 60 61 77 76
f 61 62 78 77
f 62 63 79 78
f 63 64 80 79
f 64 49 65 80
f 65 66 82 81
f 66 67 83 82
f 67 68 84 83
f 68 69 85 84
f 69 70 86 85
f 70 71 87 86
f 71 72 88 87
f 72 73 89 88
f 73 74 90 89
f 74 75 91 90
f 75 76 92 91
f 76 77 93 92
f 77 78 94 93
f 78 79 95 94
f 79 80 96 95
f 80 65 81 96
f 81 82 98 97
f 82 83 99 98
f 83 84 100 99
f 84 85 101 100
f 85 86 102 101
f 86 87 103 102
f 87 88 104 103
f 88 89 105 104
f 89 90 106 105
f 90 91 107 106
f 91 92 108 107
f 92 93 109 108
f 93 94 110 109
f 94 95 111 110
f 95 96 112 111
f 96 81 97 112
f 97 98 114 113
f 98 99 115 114
f 99 100 116 115
f 100 101 117 116
f 101 102 118 117
f 102 103 119 118
f 103 104 120 119
f 104 105 121 120
f 105 106 122 121
f 106 107 123 122
f 107 108 124 123
f 108 109 125 124
f 109 110 126 125
f 110 111 127 126
f 111 112 128 127
f 112 97 113 128
f 113 114 130 129
f 114 115 131 130
f 115 116 132 131
f 116 117 133 132
f 117 118 134 133
f 118 119 135 134
f 119 120 136 135
f 120 121 137 136
f 121 122 138 137
f 122 123 139 138
f 123 124 140 139
f 124 125 141 140
f 125 126 142 141
f 126 127 143 142
f 127 128 144 143
f 128 113 129 144
f 129 130 146 145
f 130 131 147 146
f 131 132 148 147
f 132 133 149 148
f 133 134 150 149
f 134 135 151 150
f 135 136 152 151
f 136 137 153 152
f 137 138 154 153
f 138 139 155 154
f 139 140 156 155
f 140 141 157 156
f 141 142 158 157
f 142 143 159 158
f 143 144 160 159
f 144 129 145 160
f 145 146 162 161
f 146 147 163 162
f 147 148 164 163
f 148 149 165 164
f 149 150 166 165
f 150 151 167 166
f 151 152 168 167
f 152 153 169 168
f 153 154 170 169
f 154 155 171 170
f 155 156 172 171
f 156 157 173 172
f 157 158 174 173
f 158 159 175 174
f 159 160 176 175
f 160 145 161 176
f 161 162 178 177
f 162 163 179 178
f 163 164 180 179
f 164 165 181 180
f 165 166 182 181
f 166 167 183 182
f 167 168 184 183
f 168 169 185 184
f 169 170 186 185
f 170 171 187 186
f 171 172 188 187
f 172 173 189 188
f 173 174 190 189
f 174 175 191 190
f 175 176 192 191
f 176 161 177 192
f 177 178 194 193
f 178 179 195 194
f 179 180 196 195
f 180 181 197 196
f 181 182 198 197
f 182 183 199 198
f 183 184 200 199
f 184 185 201 200
f 185 186 202 201
f 186 187 203 202
f 187 188 204 203
f 188 189 205 204
f 189 190 206 205
f 190 191 207 206
f 191 192 208 207
f 192 177 193 208
f 193 194 210 209
f 194 195 211 210
f 195 196 212 211
f 196 197 213 212
f 197 198 214 213
f 198 199 215 214
f 199 200 216 215
f 200 201 217 216
f 201 202 218 217
f 202 203 219 218
f 203 204 220 219
f 204 205 221 220
f 205 206 222 221
f 206 207 223 222
f 207 208 224 223
f 208 193 209 224
f 209 210 226 225
f 210 211 227 226
f 211 212 228 227
f 212 213 229 228
f 213 214 230 229
f 214 215 231 230
f 215 216 232 231
f 216 217 233 232
f 217 218 234 233
f 218 219 235 234
f 219 220 236 235
f 220 221 237 236
f 221 222 238 237
f 222 223 239 238
f 223 224 240 239
f 224 209 225 240
f 225 226 242 241
f 226 227 243 242
f 227 228 244 243
f 228 229 245 244
f 229 230 246 245
f 230 231 247 246
f 231 232 248 247
f 232 233 249 248
f 233 234 250 249
f 234 235 251 250
f 235 236 252 251
f 236 237 253 252
f 237 238 254 253
f 238 239 255 254
f 239 240 256 255
f 240 225 241 256
f 241 242 258 257
f 242 243 259 258
f 243 244 260 259
f 244 245 261 260
f 245 246 262 261
f 246 247 263 262
f 247 248 264 263
f 248 249 265 264
f 249 250 266 265
f 250 251 267 266
f 251 252 268 267
f 252 253 269 268
f 253 254 270 269
f 254 255 271 270
f 255 256 272 271
f 256 241 257 272
f 257 258 274 273
f 258 259 275 274
f 259 260 276 275
f 260 261 277 276
f 261 262 278 277
f 262 263 279 278
f 263 264 280 279
f 264 265 281 280
f 265 266 282 281
f 266 267 283 282
f 267 268 284 283
f 268 269 285 284
f 269 270 286 285
f 270 271 287 286
f 271 272 288 287
f 272 257 273 288
f 273 274 290 289
f 274 275 291 290
f 275 276 292 291
f 276 277 293 292
f 277 278 294 293
f 278 279 295 294
f 279 280 296 295
f 280 281 297 296
f 281 282 298 297
f 282 283 299 298
f 283 284 300 299
f 284 285 301 300
f 285 286 302 301
f 286 287 303 302
f 287 288 304 303
f 288 273 289 304
f 289 290 306 305
f 290 291 307 306
f 291 292 308 307
f 292 293 309 308
f 293 294 310 309
f 294 295 311 310
f 295 296 312 311
f 296 297 313 312
f 297 298 314 313
f 298 299 315 314
f 299 300 316 315
f 300 301 317 316
f 301 302 318 317
f 302 303 319 318
f 303 304 320 319
f 304 289 305 320
f 305 306 322 321
f 306 307 323 322
f 307 308 324 323
f 308 309 325 324
f 309 310 326 325
f 310 311 327 326
f 311 312 328 327
f 312 313 329 328
f 313 314 330 329
f 314 315 331 330
f 315 316 332 331
f 316 317 333 332
f 317 318 334 333
f 318 319 335 334
f 319 320 336 335
f 320 305 321 336
f 321 322 338 337
f 322 323 339 338
f 323 324 340 339
f 324 325 341 340
f 325 326 342 341
f 326 327 343 342
f 327 328 344 343
f 328 329 345 344
f 329 330 346 345
f 330 331 347 346
f 331 332 348 347
f 332 333 349 348
f 333 334 350 349
f 334 335 351 350
f 335 336 352 351
f 336 321 337 352
