v 0.889221 0.142737 -0.382594
v 0.884092 0.264554 -0.429718
v 0.831983 0.120108 -0.326336
v -0.071705 -0.595065 -0.189701
v 0.257107 -0.429181 -0.268353
v -0.217266 -0.629022 0.134683
v 0.781882 -0.070838 -0.239725
v 0.784913 -0.000147 -0.253046
v 0.720879 -0.058135 -0.180079
v 0.609762 -0.237202 -0.068177
v 0.770663 0.114983 -0.265615
v 0.834773 0.263126 -0.394801
v 0.766342 0.266183 -0.336573
v 0.885854 0.343601 -0.514286
v 0.799675 0.385398 -0.465910
v 0.816047 0.392659 -0.603293
v 0.715867 0.477640 -0.549067
v 0.751905 0.208576 -0.625738
v 0.603358 0.491863 -0.656305
v -0.107428 -0.631458 0.234913
v 0.537517 -0.290207 -0.302501
v 0.710395 -0.204117 -0.240839
v 0.430978 -0.411355 0.070000
v 0.173257 -0.575999 0.166608
v 0.563560 0.051515 -0.724544
v 0.448424 0.316326 -0.783808
v 0.315313 -0.161708 -0.696029
v 0.316971 0.067303 -0.763216
v 0.138581 -0.268094 -0.622614
v 0.181457 -0.141860 -0.655679
v -0.215822 -0.594323 -0.088630
v -0.248120 -0.607760 0.051526
v -0.255993 -0.571946 0.064997
v -0.218780 -0.576661 0.182476
v -0.110085 -0.570458 0.263673
v -0.067984 -0.479266 -0.370704
v 0.009190 -0.348085 -0.469544
v -0.140263 -0.520017 -0.242089
v -0.142419 -0.473241 -0.265523
v -0.229784 -0.544351 -0.087248
v 0.718046 0.389430 -0.406929
v 0.083443 -0.534606 0.265818
v 0.654019 -0.079153 -0.099024
v 0.520137 -0.270115 0.027785
v 0.709571 0.104286 -0.192569
v 0.701144 0.261124 -0.265954
v 0.645802 0.385235 -0.337864
v 0.631549 0.470040 -0.492249
v 0.313933 -0.433944 0.170588
v 0.520811 0.473951 -0.594009
v 0.403352 0.358399 -0.687511
v 0.298847 0.169464 -0.706040
v -0.133604 -0.506891 0.294938
v -0.238669 -0.514406 0.212080
v 0.028347 -0.486520 0.316887
v 0.177490 -0.043425 -0.640059
v 0.018864 -0.255462 -0.489028
v -0.147380 -0.413460 -0.281566
v -0.258137 -0.491136 -0.074411
v -0.284480 -0.514044 0.090531
v 0.237178 -0.424571 0.257204
v 0.602714 -0.101154 -0.003478
v 0.452105 -0.289554 0.128485
v 0.662426 0.092533 -0.103969
v 0.648417 0.257169 -0.180484
v 0.585175 0.385583 -0.253424
v 0.559047 0.462388 -0.422067
v 0.496143 0.465645 -0.338620
v 0.452823 0.468297 -0.516912
v 0.348683 0.381330 -0.598554
v -0.030198 -0.429985 0.380768
v -0.179366 -0.438076 0.332609
v 0.162541 -0.402592 0.359245
v 0.257470 0.224822 -0.631942
v 0.153758 0.026791 -0.598973
v 0.011989 -0.183634 -0.482953
v -0.158934 -0.350103 -0.292045
v -0.295170 -0.433457 -0.070542
v -0.328577 -0.449283 0.108923
v -0.281332 -0.444535 0.240167
v 0.562269 -0.136094 0.116674
v 0.384335 -0.312073 0.256682
v 0.633655 0.074229 0.003116
v 0.612201 0.251676 -0.078452
v 0.539396 0.387512 -0.153742
v 0.391528 0.481883 -0.432148
v 0.442219 0.477890 -0.241784
v 0.331863 0.507604 -0.338325
v 0.290038 0.412799 -0.514146
v 0.073825 -0.348327 0.451856
v 0.285134 -0.315363 0.397719
v 0.207295 0.274594 -0.559196
v 0.120461 0.089879 -0.551574
v -0.000957 -0.115825 -0.470558
v -0.168540 -0.287443 -0.304830
v -0.325091 -0.368853 -0.090261
v -0.381363 -0.373242 0.108202
v -0.335309 -0.360730 0.252565
v -0.235945 -0.353297 0.357720
v -0.098424 -0.351839 0.427459
v 0.227600 0.452449 -0.427650
v 0.498413 -0.186052 0.262302
v 0.596683 0.028850 0.124233
v 0.571481 0.221367 0.031508
v 0.493310 0.365218 -0.048752
v 0.392116 0.464268 -0.132749
v 0.278576 0.508035 -0.226969
v 0.171295 0.473823 -0.322842
v 0.093378 0.361059 -0.396598
v 0.149944 0.325095 -0.485246
v 0.078503 0.151070 -0.498904
v -0.017066 -0.044571 -0.453047
v -0.400612 -0.287949 0.065784
v -0.321424 -0.294545 -0.134731
v -0.364238 -0.265362 0.221748
v -0.268207 -0.254209 0.335200
v -0.139410 -0.252822 0.416701
v 0.031817 0.198490 -0.432130
v -0.161735 -0.215081 -0.326044
v 0.015381 -0.254719 0.458945
v 0.201028 -0.247411 0.440607
v 0.506061 -0.028743 0.209140
v 0.395707 -0.185244 0.337491
v 0.496854 0.156321 0.112435
v 0.335246 0.404375 -0.039972
v 0.429013 0.302845 0.036296
v -0.042247 0.014336 -0.416837
v 0.231314 0.458135 -0.124333
v 0.127211 0.448595 -0.216716
v 0.045145 0.361611 -0.301164
v -0.014197 0.221291 -0.356011
v -0.074035 0.057438 -0.367203
v -0.153396 -0.144150 -0.331357
v -0.287044 -0.219771 -0.179650
v -0.367252 -0.210052 -0.001298
v -0.343519 -0.179812 0.154572
v -0.259370 -0.165428 0.269048
v -0.146955 -0.164717 0.351105
v -0.009474 -0.169587 0.398883
v -0.158464 -0.085797 -0.316860
v 0.150614 -0.172798 0.395743
v 0.308772 -0.147335 0.328574
v 0.408305 -0.051028 0.234832
v 0.410909 0.099136 0.156286
v 0.176965 0.400722 -0.044424
v 0.271503 0.339535 0.029330
v 0.080850 0.406373 -0.128839
v -0.001073 0.345573 -0.213965
v -0.114321 0.085287 -0.314588
v -0.062251 0.228009 -0.281790
v -0.177401 -0.038892 -0.294858
v -0.260761 -0.152186 -0.201552
v -0.054374 0.329377 -0.140249
v 0.026124 0.376779 -0.053349
v -0.253821 -0.091492 -0.210885
v -0.325619 -0.137888 -0.050989
v -0.310929 -0.102907 0.090393
v -0.238748 -0.082415 0.205523
v -0.137672 -0.078981 0.290080
v -0.017621 -0.086789 0.342391
v 0.116298 -0.100421 0.352180
v 0.249910 -0.097211 0.311196
v 0.331497 -0.041542 0.246212
v 0.335089 0.071998 0.191076
v 0.354744 0.236448 0.093495
v 0.284891 0.195155 0.144676
v 0.207473 0.296903 0.093113
v 0.117759 0.362108 0.027221
v -0.114636 0.230433 -0.214686
v -0.304172 -0.066217 -0.082098
v -0.169570 0.230363 -0.153268
v -0.096766 0.296224 -0.070312
v -0.158243 0.107633 -0.264172
v -0.203705 -0.000503 -0.269836
v -0.259427 -0.036005 -0.211688
v -0.295734 0.002919 -0.104444
v -0.023606 0.003674 0.307437
v 0.096880 -0.019404 0.328556
v 0.211952 -0.038354 0.307423
v 0.280540 -0.014135 0.264759
v 0.278074 0.067340 0.229813
v 0.225093 0.174375 0.199138
v 0.148289 0.270732 0.158894
v 0.059437 0.324496 0.091948
v -0.027511 0.340181 0.016065
v -0.202321 0.126614 -0.214732
v -0.289819 -0.016139 0.048437
v -0.225691 0.010487 0.161810
v -0.133876 0.015590 0.249446
v -0.219315 0.121554 -0.148583
v -0.197721 0.203986 -0.083832
v -0.196035 0.028756 -0.215010
v -0.229659 0.065107 -0.187086
v -0.234452 0.012838 -0.181904
v 0.226366 0.071967 0.245811
v 0.237204 0.022133 0.264773
v 0.001454 0.285483 0.147136
v 0.088799 0.231314 0.197106
v -0.082939 0.303578 0.078248
v -0.152078 0.275313 -0.003717
v -0.256318 0.050879 -0.100196
v -0.002608 0.050846 0.244495
v 0.093651 0.034405 0.274557
v 0.179868 0.015405 0.270942
v -0.239106 0.038803 0.011348
v -0.247121 0.109126 0.005061
v -0.263822 0.141315 -0.106976
v -0.256097 0.108871 -0.162395
v -0.247519 0.073872 -0.177591
v -0.268808 0.134241 -0.113080
v -0.267733 0.202526 -0.009296
v -0.168344 0.051670 0.106778
v -0.198793 0.145125 0.109674
v -0.092560 0.056229 0.187359
v -0.120592 0.162993 0.197588
v -0.022898 0.160382 0.262864
v 0.084963 0.138899 0.300688
v 0.210838 0.093597 0.297900
v 0.235439 0.074250 0.304603
v 0.169766 0.152521 0.227549
v 0.135003 0.152543 0.285489
v 0.041232 0.217599 0.256208
v -0.053594 0.266586 0.207061
v -0.142261 0.287001 0.139299
v -0.213523 0.266776 0.057186
v -0.254759 0.208103 -0.029637
v -0.252771 0.138699 -0.174890
v 0.184040 0.101765 0.311283
v -0.221866 0.248794 0.098843
v -0.261416 0.214026 -0.131831
v -0.257560 0.293716 -0.040534
v -0.212945 0.344744 0.063248
v -0.138296 0.272431 0.188824
v 0.194750 0.128494 0.327761
v 0.231539 0.146916 0.320740
v 0.104586 0.159818 0.327656
v -0.295235 0.208812 0.024600
v -0.261527 0.255348 0.116033
v -0.290862 0.162828 -0.062630
v -0.266167 0.155709 -0.132087
v -0.244408 0.204323 -0.162545
v -0.234813 0.286381 -0.141259
v -0.130062 0.369119 0.150269
v -0.033470 0.272743 0.254173
v 0.079592 0.249996 0.296189
v 0.182139 0.202896 0.314963
v 0.000795 0.209608 0.306638
v -0.100288 0.252196 0.263166
v -0.191609 0.271266 0.198837
v -0.222770 0.366429 -0.074604
v -0.028072 0.369562 0.214535
v -0.263123 0.207759 -0.101960
v -0.298819 0.189753 -0.022567
v -0.227819 0.272784 -0.145564
v -0.203794 0.358894 -0.141047
v -0.182493 0.438973 -0.094830
v -0.180037 0.423575 0.016307
v -0.105150 0.448805 0.099043
v -0.013438 0.448807 0.161437
v 0.161593 0.178865 0.317172
v 0.206567 0.226075 0.296517
v 0.068436 0.177313 0.331526
v -0.037319 0.203740 0.324462
v -0.136498 0.232550 0.292385
v -0.223352 0.247119 0.237116
v -0.286273 0.237900 0.160604
v -0.311789 0.209861 0.070010
v 0.078190 0.345825 0.257050
v 0.169521 0.295688 0.280537
v -0.140941 0.497959 -0.019747
v 0.080791 0.424979 0.205273
v 0.122610 0.236129 0.292670
v -0.075700 0.217189 0.323639
v -0.170759 0.230755 0.302921
v -0.250105 0.239086 0.256223
v -0.303246 0.234792 0.185294
v -0.319388 0.224383 0.097496
v -0.299593 0.228271 0.003579
v -0.256603 0.268181 -0.081714
v -0.212078 0.346355 -0.135682
v -0.177682 0.440425 -0.144029
v -0.148949 0.522538 -0.110467
v -0.106834 0.583666 -0.047178
v -0.074311 0.526896 0.054917
v 0.006172 0.529130 0.115245
v 0.088352 0.506209 0.160096
v 0.155698 0.373736 0.233404
v 0.177131 0.297517 0.260305
v 0.025931 0.212902 0.318212
v 0.150814 0.453732 0.194061
v -0.044760 0.615268 0.021510
v -0.321221 0.252398 0.194442
v -0.325567 0.256377 0.108468
v -0.297673 0.279536 0.015720
v -0.248703 0.336831 -0.072467
v -0.196280 0.427621 -0.134763
v -0.119222 0.616618 -0.127818
v -0.075585 0.678536 -0.071091
v -0.015679 0.710679 -0.006972
v 0.029752 0.619677 0.079940
v 0.104377 0.597257 0.125627
v 0.157725 0.541704 0.164229
v 0.092335 0.297586 0.275454
v 0.158327 0.372116 0.230814
v -0.013803 0.258795 0.312233
v -0.120372 0.248835 0.324751
v -0.211110 0.250812 0.309258
v -0.280996 0.253150 0.264736
v 0.152957 0.452041 0.209533
v 0.054922 0.716740 0.048937
v -0.325306 0.303311 0.109660
v -0.291077 0.341223 0.020080
v -0.238888 0.409256 -0.067135
v -0.179602 0.510588 -0.137288
v -0.128499 0.625129 -0.166678
v -0.087976 0.717676 -0.146040
v -0.043141 0.777737 -0.093569
v 0.014256 0.808774 -0.034722
v 0.070380 0.362445 0.266492
v -0.050789 0.309452 0.312937
v -0.251062 0.284510 0.311614
v -0.164284 0.289410 0.328319
v -0.307976 0.283869 0.265985
v -0.333194 0.287351 0.195068
v 0.079782 0.816313 0.017103
v 0.124864 0.694499 0.095023
v 0.171667 0.635873 0.137037
v 0.155210 0.536996 0.189622
v 0.053219 0.430874 0.258752
v 0.144052 0.796398 0.061653
v 0.164420 0.630877 0.164726
v 0.037252 0.502470 0.248003
v -0.086186 0.364100 0.312336
v -0.208067 0.337238 0.325446
v -0.322791 0.331423 0.254173
v -0.283622 0.332008 0.301005
v -0.333514 0.337691 0.188720
v -0.318756 0.359204 0.110452
v -0.283745 0.402995 0.028933
v -0.232992 0.473831 -0.053175
v -0.167787 0.582581 -0.133886
v -0.099906 0.725373 -0.182499
v -0.053101 0.825027 -0.164277
v -0.008419 0.878079 -0.114290
v 0.044322 0.906884 -0.063149
v 0.101340 0.917887 -0.019327
v 0.158422 0.905275 0.021423
v 0.187371 0.738496 0.105529
v -0.122467 0.421701 0.306405
v 0.202702 0.852265 0.066152
v 0.186118 0.744833 0.127376
v 0.016230 0.573869 0.236291
v -0.301983 0.404097 0.265031
v -0.251057 0.394934 0.306186
v -0.319216 0.402163 0.222766
v -0.322749 0.399207 0.180560
v -0.311259 0.413204 0.121998
v -0.283591 0.451723 0.056392
v -0.244079 0.511597 -0.010437
v -0.182175 0.610990 -0.095913
v -0.046785 0.867619 -0.195939
v -0.007874 0.945529 -0.175763
v 0.031096 0.976793 -0.128509
v 0.075297 1.002448 -0.090053
v 0.118793 1.023247 -0.062188
v 0.162467 1.023876 -0.032136
v 0.208658 0.980977 0.012783
v -0.164169 0.472828 0.296887
v 0.211196 0.933340 0.034949
v -0.305521 0.442290 0.136489
v -0.316473 0.421818 0.152367
v -0.311955 0.462930 0.126567
v -0.240004 0.555256 0.100616
v 0.045559 1.062377 -0.160615
v -0.000505 0.815303 -0.054494
v 0.050475 1.021637 -0.133108
v 0.126925 0.977706 -0.080530
v 0.176892 1.051532 -0.056673
v 0.039142 0.738810 0.139200
v -0.193768 0.534896 0.250789
v -0.302715 0.427224 0.292407
v -0.370959 0.391716 0.262369
v -0.256912 0.461709 0.170587
v -0.333886 0.410594 0.199143
v 0.073122 1.030449 -0.110022
v 0.094580 1.056321 -0.107347
v 0.136865 1.128302 -0.094946
v -0.154175 0.530248 -0.153759
v 0.069873 1.100460 -0.193790
v 0.924228 0.177856 -0.528108
f 3 1 2 12
f 2 14 15 12
f 13 11 3 12
f 6 4 5 20
f 5 21 24 20
f 6 20 35 34
f 7 8 9 10
f 8 3 11 9
f 9 11 45 43
f 22 7 10 23
f 10 9 43 44
f 11 13 46 45
f 13 12 15 41
f 13 41 47 46
f 15 14 16 17
f 15 17 48 41
f 16 18 19 17
f 17 19 50 48
f 18 25 26 19
f 19 26 51 50
f 21 22 23 24
f 23 10 44 49
f 35 20 24 42
f 24 23 49 42
f 25 27 28 26
f 26 28 52 51
f 27 29 30 28
f 28 30 56 52
f 29 36 37 30
f 30 37 57 56
f 31 32 33 40
f 34 33 32 6
f 33 34 54 60
f 59 40 33 60
f 53 54 34 35
f 35 42 55 53
f 36 38 39 37
f 37 39 58 57
f 39 38 31 40
f 39 40 59 58
f 43 45 64 62
f 44 43 62 63
f 45 46 65 64
f 46 47 66 65
f 47 41 48 67
f 68 66 47 67
f 48 50 69 67
f 49 61 55 42
f 49 44 63 61
f 50 51 70 69
f 70 51 52 74
f 52 56 75 74
f 71 72 53 55
f 54 53 72 80
f 55 61 73 71
f 56 57 76 75
f 77 76 57 58
f 78 77 58 59
f 59 60 79 78
f 60 54 80 79
f 61 63 82 73
f 62 64 83 81
f 63 62 81 82
f 64 65 84 83
f 65 66 85 84
f 66 68 87 85
f 68 67 69 86
f 68 86 88 87
f 69 70 89 86
f 70 74 92 89
f 71 73 90 100
f 100 99 72 71
f 91 90 73 82
f 74 75 93 92
f 75 76 94 93
f 76 77 95 94
f 77 78 96 95
f 97 96 78 79
f 79 80 98 97
f 80 72 99 98
f 81 83 103 102
f 82 81 102 91
f 104 103 83 84
f 85 105 104 84
f 85 87 106 105
f 107 106 87 88
f 88 86 89 101
f 108 107 88 101
f 110 101 89 92
f 90 91 121 120
f 111 110 92 93
f 93 94 112 111
f 94 95 119 112
f 95 96 114 119
f 96 97 113 114
f 115 113 97 98
f 98 99 116 115
f 99 100 117 116
f 100 90 120 117
f 109 108 101 110
f 121 91 102 123
f 102 103 122 123
f 124 122 103 104
f 126 124 104 105
f 106 125 126 105
f 128 125 106 107
f 129 128 107 108
f 108 109 130 129
f 109 110 111 118
f 109 118 131 130
f 118 111 112 127
f 133 127 112 119
f 113 115 136 135
f 135 134 114 113
f 115 116 137 136
f 138 137 116 117
f 117 120 139 138
f 118 127 132 131
f 119 114 134 133
f 120 121 141 139
f 121 123 142 141
f 123 122 143 142
f 124 144 143 122
f 165 144 124 126
f 125 128 145 146
f 146 165 126 125
f 128 129 147 145
f 148 147 129 130
f 130 131 150 148
f 131 132 149 150
f 133 140 132 127
f 132 140 151 149
f 140 133 134 152
f 134 135 156 152
f 157 156 135 136
f 136 137 158 157
f 137 138 159 158
f 138 139 160 159
f 161 160 139 141
f 140 152 155 151
f 141 142 162 161
f 142 143 163 162
f 143 144 164 163
f 144 165 166 164
f 145 147 154 168
f 146 145 168 167
f 147 148 153 154
f 149 151 174 173
f 153 148 150 169
f 173 169 150 149
f 151 155 175 174
f 153 169 171 172
f 154 153 172 185
f 155 152 156 170
f 155 170 176 175
f 170 156 157 187
f 157 158 188 187
f 189 188 158 159
f 159 160 177 189
f 160 161 178 177
f 179 178 161 162
f 179 162 163 180
f 163 164 181 180
f 164 166 182 181
f 165 146 167 166
f 166 167 183 182
f 167 168 184 183
f 168 154 185 184
f 173 186 171 169
f 171 186 190 191
f 200 172 171 191
f 192 186 173 174
f 192 174 175 194
f 176 170 187 205
f 194 175 176 201
f 178 203 202 177
f 179 180 196 204
f 203 178 179 204
f 180 181 195 196
f 220 195 181 182
f 198 220 182 183
f 197 198 183 184
f 184 185 199 197
f 185 172 200 199
f 193 190 186 192
f 205 187 188 212
f 188 189 214 212
f 189 177 202 214
f 190 193 208 207
f 191 190 207 226
f 209 193 192 194
f 194 201 210 209
f 195 220 221 218
f 196 195 218 219
f 197 199 224 223
f 198 197 223 222
f 199 200 225 224
f 200 191 226 225
f 205 206 201 176
f 201 206 211 210
f 202 203 217 216
f 203 204 228 217
f 204 196 219 228
f 205 212 213 206
f 207 208 240 239
f 209 227 208 193
f 208 227 241 240
f 230 227 209 210
f 210 211 231 230
f 211 206 213 229
f 211 229 232 231
f 212 214 215 213
f 213 215 233 229
f 214 202 216 215
f 244 233 215 216
f 216 217 245 244
f 217 228 246 245
f 218 221 236 234
f 219 218 234 235
f 220 198 222 221
f 236 221 222 247
f 222 223 248 247
f 223 224 249 248
f 224 225 238 249
f 225 226 237 238
f 226 207 239 237
f 227 230 242 241
f 228 219 235 246
f 250 242 230 231
f 231 232 257 250
f 233 243 232 229
f 232 243 258 257
f 262 260 234 236
f 235 234 260 261
f 236 247 263 262
f 237 239 253 267
f 238 237 267 266
f 239 240 252 253
f 240 241 254 252
f 241 242 255 254
f 242 250 256 255
f 243 233 244 251
f 243 251 259 258
f 244 245 268 251
f 245 246 269 268
f 246 235 261 269
f 247 248 264 263
f 248 249 265 264
f 249 238 266 265
f 252 254 280 279
f 253 252 279 278
f 281 280 254 255
f 255 256 282 281
f 256 250 257 270
f 257 258 284 270
f 258 259 285 284
f 268 271 259 251
f 259 271 286 285
f 288 261 260 272
f 272 260 262 289
f 262 263 273 289
f 263 264 274 273
f 264 265 275 274
f 265 266 276 275
f 266 267 277 276
f 267 253 278 277
f 268 269 287 271
f 269 261 288 287
f 282 256 270 283
f 291 283 270 284
f 305 303 272 289
f 305 289 273 306
f 273 274 307 306
f 274 275 308 307
f 275 276 292 308
f 276 277 293 292
f 277 278 294 293
f 278 279 295 294
f 279 280 296 295
f 388 296 280 281
f 281 282 297 388
f 282 283 298 297
f 283 291 299 298
f 284 285 300 291
f 285 286 301 300
f 287 290 286 271
f 286 290 302 301
f 290 287 288 304
f 288 272 303 304
f 309 302 290 304
f 292 293 311 324
f 311 293 294 312
f 294 295 313 312
f 295 296 314 313
f 315 314 296 388
f 297 316 315 388
f 297 298 317 316
f 298 299 318 317
f 299 291 300 310
f 299 310 325 318
f 300 301 326 310
f 301 302 327 326
f 302 309 328 327
f 303 305 320 319
f 304 303 319 309
f 320 305 306 322
f 306 307 321 322
f 307 308 323 321
f 308 292 324 323
f 311 312 339 338
f 339 312 313 340
f 340 313 314 341
f 314 315 342 341
f 315 316 343 342
f 316 317 344 343
f 317 318 345 344
f 318 325 346 345
f 319 329 328 309
f 319 320 333 329
f 320 322 334 333
f 334 322 321 336
f 321 323 335 336
f 323 324 337 335
f 324 311 338 337
f 326 330 325 310
f 325 330 347 346
f 326 327 348 330
f 327 328 331 348
f 331 328 329 332
f 331 351 350 348
f 331 332 352 351
f 332 329 333 349
f 332 349 368 352
f 333 334 354 349
f 334 336 353 354
f 353 336 335 355
f 335 337 356 355
f 337 338 357 356
f 338 339 358 357
f 359 358 339 340
f 359 340 341 360
f 341 342 361 360
f 342 343 362 361
f 343 344 363 362
f 344 345 364 363
f 345 346 365 364
f 346 347 366 365
f 347 330 348 350
f 347 350 367 366
f 349 354 381 368
f 367 350 351 369
f 351 352 379 369
f 352 368 380 379
f 353 355 383 382
f 354 353 382 381
f 355 356 384 383
f 356 357 371 384
f 357 358 370 371
f 358 359 372 370
f 359 360 373 372
f 373 360 361 375
f 361 362 374 389
f 362 363 376 374
f 363 364 385 376
f 364 365 386 385
f 365 366 387 386
f 366 367 378 387
f 367 369 377 378
f 3 8 7 1
f 1 390 14 2
f 16 14 390 18
f 18 21 5 25
f 25 5 4 27
f 27 4 36 29
f 36 4 31 38
f 31 4 6 32
f 390 1 7 22
f 381 373 380 368
f 380 373 375 379
f 379 375 377 369
f 377 389 387 378
f 387 389 374 386
f 386 374 376 385
f 373 381 382 372
f 372 382 383 370
f 370 383 384 371
f 389 377 375 361
f 390 22 21 18
