# Wavefront OBJ generated by MESH-FLOW-RETOPOLOGY
# Archetype: articulated_limb, Q%=100.0%, V4%=100.0%
# Vertices: 320, Quads: 304

v 0.350405 -0.001263 0.000544
v 0.323292 0.133026 0.000895
v 0.247223 0.246440 0.000988
v 0.133823 0.322977 0.000987
v -0.000309 0.350258 0.001487
v -0.134240 0.323195 0.000677
v -0.247915 0.247307 0.000219
v -0.324233 0.132906 0.001368
v -0.350811 -0.001362 0.001259
v -0.324473 -0.135330 0.000918
v -0.248037 -0.250118 0.000807
v -0.134043 -0.325756 0.001287
v -0.000296 -0.351353 0.001330
v 0.133960 -0.325722 0.000733
v 0.247897 -0.249262 0.001389
v 0.324184 -0.135386 0.000381
v 0.350466 -0.000617 0.127436
v 0.324051 0.133202 0.127321
v 0.247441 0.246375 0.127898
v 0.134161 0.322661 0.127177
v -0.000022 0.349570 0.128004
v -0.133988 0.322469 0.127025
v -0.248247 0.246346 0.127421
v -0.324067 0.132789 0.126953
v -0.351013 -0.001940 0.128606
v -0.324650 -0.135604 0.127683
v -0.248313 -0.248591 0.127652
v -0.134606 -0.326016 0.127771
v 0.000109 -0.351933 0.127201
v 0.133908 -0.325218 0.127360
v 0.247812 -0.249767 0.127844
v 0.324028 -0.135413 0.128146
v 0.350484 -0.001422 0.254325
v 0.323991 0.133496 0.254495
v 0.247987 0.247065 0.254392
v 0.133878 0.322042 0.254258
v -0.000315 0.349526 0.255090
v -0.134453 0.322769 0.253348
v -0.248200 0.246625 0.254341
v -0.323858 0.132478 0.254029
v -0.351342 -0.000956 0.253770
v -0.323766 -0.135802 0.253457
v -0.247882 -0.249156 0.254288
v -0.134263 -0.324812 0.254300
v 0.000210 -0.352321 0.254693
v 0.133422 -0.325117 0.254455
v 0.247527 -0.248892 0.254237
v 0.323378 -0.134930 0.254254
v 0.350499 -0.001629 0.381582
v 0.324423 0.132725 0.380972
v 0.247751 0.246608 0.381361
v 0.133946 0.322676 0.381374
v -0.000955 0.349308 0.381564
v -0.134725 0.323180 0.380777
v -0.248737 0.247072 0.380707
v -0.324487 0.132606 0.380336
v -0.350930 -0.001018 0.381444
v -0.323999 -0.135538 0.380955
v -0.248386 -0.249711 0.381085
v -0.135042 -0.325323 0.380009
v -0.000461 -0.351792 0.381516
v 0.133847 -0.325340 0.380806
v 0.247663 -0.249353 0.381427
v 0.324500 -0.135391 0.380750
v 0.350517 -0.000823 0.507784
v 0.323745 0.133284 0.507792
v 0.247828 0.247200 0.507711
v 0.133815 0.322362 0.507434
v 0.000335 0.349870 0.507648
v -0.134668 0.322588 0.506322
v -0.248503 0.246294 0.507474
v -0.324582 0.133058 0.507552
v -0.350720 -0.001224 0.508046
v -0.324356 -0.136490 0.508595
v -0.248549 -0.248740 0.508041
v -0.134897 -0.325454 0.508282
v 0.000072 -0.352403 0.508144
v 0.133952 -0.325447 0.508112
v 0.246998 -0.249634 0.508658
v 0.323824 -0.135306 0.507514
v 0.350917 -0.001272 0.634415
v 0.323554 0.133410 0.634749
v 0.248040 0.247005 0.633914
v 0.133877 0.323294 0.634251
v -0.001057 0.349086 0.635220
v -0.134271 0.322289 0.634897
v -0.248453 0.246437 0.634985
v -0.324299 0.134222 0.635023
v -0.350927 -0.000822 0.633967
v -0.323754 -0.135394 0.634564
v -0.248849 -0.248810 0.634154
v -0.134468 -0.325038 0.634432
v -0.000292 -0.351894 0.634588
v 0.134192 -0.325474 0.634353
v 0.247220 -0.248889 0.633768
v 0.324674 -0.135509 0.634382
v 0.350490 -0.001070 0.761462
v 0.324094 0.133167 0.761041
v 0.247709 0.247021 0.761021
v 0.133916 0.322469 0.761129
v 0.000117 0.349719 0.761082
v -0.134706 0.322801 0.761332
v -0.248784 0.246981 0.761162
v -0.324243 0.133020 0.760942
v -0.351356 -0.001642 0.760860
v -0.324331 -0.135840 0.761502
v -0.248405 -0.249330 0.761340
v -0.134700 -0.325103 0.760547
v 0.000188 -0.351650 0.760919
v 0.133724 -0.325677 0.761129
v 0.247856 -0.249025 0.761349
v 0.324167 -0.135957 0.761437
v 0.350931 -0.001190 0.887978
v 0.324122 0.133260 0.888045
v 0.247753 0.246947 0.888329
v 0.133946 0.323368 0.888701
v 0.000073 0.349582 0.888018
v -0.135050 0.322451 0.888205
v -0.248268 0.247144 0.888149
v -0.324208 0.132805 0.888471
v -0.351234 -0.001928 0.888185
v -0.324483 -0.135844 0.888301
v -0.248365 -0.249387 0.888103
v -0.134156 -0.325438 0.887944
v -0.000790 -0.352514 0.887286
v 0.134344 -0.325776 0.888069
v 0.246980 -0.249060 0.888476
v 0.324136 -0.134724 0.888351
v 0.350904 -0.001378 1.014769
v 0.323152 0.132555 1.015134
v 0.248208 0.246550 1.015430
v 0.133310 0.322323 1.015091
v 0.000469 0.348958 1.014950
v -0.134956 0.323427 1.015143
v -0.248278 0.246727 1.015084
v -0.324571 0.133358 1.014962
v -0.351075 -0.001523 1.014622
v -0.323876 -0.134959 1.014397
v -0.248408 -0.249084 1.014288
v -0.134510 -0.325898 1.014878
v -0.001032 -0.352831 1.015004
v 0.133652 -0.325685 1.014361
v 0.248235 -0.249654 1.014484
v 0.324597 -0.135098 1.015716
v 0.350709 -0.001603 1.141071
v 0.323869 0.132285 1.142216
v 0.248528 0.246768 1.141515
v 0.134051 0.323615 1.141703
v 0.000306 0.349230 1.141522
v -0.134090 0.322997 1.142089
v -0.248251 0.246366 1.142060
v -0.324524 0.133144 1.141983
v -0.350985 -0.000906 1.141888
v -0.323847 -0.136350 1.141654
v -0.247998 -0.249467 1.141713
v -0.134376 -0.325673 1.141367
v -0.000002 -0.351904 1.141777
v 0.134954 -0.324826 1.141124
v 0.247197 -0.249282 1.141439
v 0.323774 -0.136794 1.141223
v 0.350653 -0.000938 1.269069
v 0.323817 0.133234 1.268996
v 0.248108 0.247176 1.267760
v 0.133688 0.322796 1.267842
v -0.000243 0.349839 1.267825
v -0.134678 0.323205 1.268506
v -0.247928 0.247295 1.268063
v -0.325083 0.133489 1.268207
v -0.350769 -0.001124 1.268666
v -0.323980 -0.135588 1.268761
v -0.248384 -0.249362 1.268526
v -0.134103 -0.325199 1.268130
v -0.000412 -0.351744 1.268391
v 0.133740 -0.324765 1.268215
v 0.248114 -0.249608 1.268734
v 0.324616 -0.134922 1.268412
v 0.350499 -0.000958 1.394940
v 0.324559 0.132959 1.395675
v 0.248110 0.246727 1.395536
v 0.134191 0.322392 1.395423
v -0.000545 0.349946 1.394983
v -0.135037 0.323776 1.395510
v -0.248506 0.246826 1.395046
v -0.324083 0.132898 1.395256
v -0.351492 -0.001419 1.395059
v -0.324159 -0.135375 1.395366
v -0.248433 -0.249214 1.395078
v -0.135289 -0.325775 1.395323
v -0.000690 -0.351970 1.396004
v 0.134439 -0.324685 1.395333
v 0.247844 -0.250048 1.395064
v 0.323985 -0.135899 1.396073
v 0.350508 -0.001625 1.522544
v 0.323443 0.132798 1.522122
v 0.247599 0.245842 1.521884
v 0.133940 0.322975 1.522294
v -0.000543 0.349837 1.521928
v -0.134274 0.322602 1.521824
v -0.248689 0.246948 1.522064
v -0.323934 0.133110 1.521806
v -0.351328 -0.000951 1.521611
v -0.324862 -0.135733 1.521210
v -0.247968 -0.248886 1.522664
v -0.135059 -0.325689 1.521979
v -0.000324 -0.351685 1.520984
v 0.133987 -0.325472 1.521668
v 0.247660 -0.249471 1.522271
v 0.323710 -0.136318 1.521422
v 0.349969 -0.001115 1.649113
v 0.323948 0.132911 1.648284
v 0.248524 0.246137 1.648782
v 0.134208 0.323195 1.649377
v -0.000540 0.349468 1.649232
v -0.133948 0.322926 1.648056
v -0.248173 0.247343 1.648817
v -0.324215 0.134006 1.648741
v -0.350935 -0.001595 1.647984
v -0.324771 -0.135462 1.649159
v -0.249300 -0.249405 1.648714
v -0.134454 -0.325507 1.648777
v 0.000016 -0.351915 1.648732
v 0.134255 -0.325145 1.648677
v 0.247952 -0.249980 1.649773
v 0.323464 -0.136065 1.649544
v 0.350738 -0.001170 1.776042
v 0.324207 0.133375 1.774786
v 0.247479 0.246240 1.775195
v 0.134487 0.323001 1.775288
v 0.000274 0.349213 1.775578
v -0.134314 0.322510 1.775306
v -0.248132 0.246284 1.775912
v -0.324568 0.132697 1.775605
v -0.351157 -0.000820 1.775115
v -0.324250 -0.135361 1.775065
v -0.247996 -0.248821 1.776101
v -0.134705 -0.324919 1.774785
v 0.000615 -0.352808 1.775398
v 0.134077 -0.325212 1.775324
v 0.247866 -0.249820 1.775437
v 0.323838 -0.135424 1.775505
v 0.350480 -0.000638 1.902781
v 0.323602 0.132865 1.902318
v 0.247844 0.246607 1.902460
v 0.134348 0.322715 1.902634
v -0.000375 0.350174 1.901836
v -0.134652 0.322691 1.901855
v -0.248938 0.246342 1.902977
v -0.323814 0.133181 1.902235
v -0.351233 -0.001029 1.902171
v -0.324023 -0.135326 1.902804
v -0.247909 -0.248844 1.902633
v -0.134883 -0.325051 1.901199
v -0.000409 -0.352206 1.902587
v 0.133760 -0.325200 1.902197
v 0.246833 -0.249343 1.901788
v 0.324178 -0.135555 1.901541
v 0.350852 -0.002039 2.028727
v 0.324122 0.132681 2.028622
v 0.247604 0.247370 2.029297
v 0.134137 0.322822 2.028761
v -0.000283 0.350028 2.028857
v -0.134706 0.322570 2.028578
v -0.248608 0.246563 2.029036
v -0.323663 0.132762 2.028926
v -0.351135 -0.000810 2.029438
v -0.324742 -0.135553 2.028737
v -0.248287 -0.249393 2.028635
v -0.134258 -0.325467 2.029192
v -0.000040 -0.352010 2.028920
v 0.134229 -0.325928 2.029364
v 0.247925 -0.249207 2.028433
v 0.323820 -0.135979 2.029599
v 0.350496 -0.001672 2.155738
v 0.323474 0.133139 2.155211
v 0.246937 0.246890 2.155948
v 0.133460 0.322164 2.155979
v -0.000045 0.349609 2.156305
v -0.134098 0.323192 2.156076
v -0.248262 0.246652 2.155155
v -0.323926 0.132541 2.155856
v -0.351008 -0.001586 2.156217
v -0.324475 -0.135635 2.155575
v -0.248391 -0.250358 2.156025
v -0.134252 -0.325181 2.155992
v 0.000041 -0.352606 2.155206
v 0.134265 -0.325098 2.155584
v 0.248071 -0.249633 2.155690
v 0.324501 -0.136185 2.155057
v 0.350846 -0.001164 2.282420
v 0.323765 0.132671 2.281735
v 0.247921 0.247063 2.283082
v 0.134329 0.322806 2.281821
v -0.000007 0.349408 2.282540
v -0.134936 0.321787 2.282745
v -0.248081 0.246330 2.282263
v -0.325058 0.132701 2.282677
v -0.351262 -0.001759 2.282208
v -0.324525 -0.135993 2.282069
v -0.248826 -0.249640 2.282600
v -0.134522 -0.325908 2.282859
v -0.000359 -0.351976 2.282523
v 0.133530 -0.325505 2.282516
v 0.248392 -0.249678 2.282277
v 0.323038 -0.135447 2.282447
v 0.350503 -0.001945 2.409335
v 0.323787 0.132691 2.409223
v 0.248028 0.246668 2.408870
v 0.134447 0.322740 2.409575
v -0.000688 0.350102 2.409519
v -0.134614 0.322170 2.409323
v -0.248055 0.245997 2.409873
v -0.323449 0.132758 2.409497
v -0.350621 -0.001600 2.409200
v -0.324099 -0.135060 2.408950
v -0.248535 -0.249342 2.408563
v -0.134038 -0.324822 2.409572
v -0.000194 -0.352230 2.409393
v 0.133898 -0.324931 2.408723
v 0.247884 -0.249826 2.409161
v 0.323716 -0.135796 2.409119

f 1 2 18 17
f 2 3 19 18
f 3 4 20 19
f 4 5 21 20
f 5 6 22 21
f 6 7 23 22
f 7 8 24 23
f 8 9 25 24
f 9 10 26 25
f 10 11 27 26
f 11 12 28 27
f 12 13 29 28
f 13 14 30 29
f 14 15 31 30
f 15 16 32 31
f 16 1 17 32
f 17 18 34 33
f 18 19 35 34
f 19 20 36 35
f 20 21 37 36
f 21 22 38 37
f 22 23 39 38
f 23 24 40 39
f 24 25 41 40
f 25 26 42 41
f 26 27 43 42
f 27 28 44 43
f 28 29 45 44
f 29 30 46 45
f 30 31 47 46
f 31 32 48 47
f 32 17 33 48
f 33 34 50 49
f 34 35 51 50
f 35 36 52 51
f 36 37 53 52
f 37 38 54 53
f 38 39 55 54
f 39 40 56 55
f 40 41 57 56
f 41 42 58 57
f 42 43 59 58
f 43 44 60 59
f 44 45 61 60
f 45 46 62 61
f 46 47 63 62
f 47 48 64 63
f 48 33 49 64
f 49 50 66 65
f 50 51 67 66
f 51 52 68 67
f 52 53 69 68
f 53 54 70 69
f 54 55 71 70
f 55 56 72 71
f 56 57 73 72
f 57 58 74 73
f 58 59 75 74
f 59 60 76 75
f 60 61 77 76
f 61 62 78 77
f 62 63 79 78
f 63 64 80 79
f 64 49 65 80
f 65 66 82 81
f 66 67 83 82
f 67 68 84 83
f 68 69 85 84
f 69 70 86 85
f 70 71 87 86
f 71 72 88 87
f 72 73 89 88
f 73 74 90 89
f 74 75 91 90
f 75 76 92 91
f 76 77 93 92
f 77 78 94 93
f 78 79 95 94
f 79 80 96 95
f 80 65 81 96
f 81 82 98 97
f 82 83 99 98
f 83 84 100 99
f 84 85 101 100
f 85 86 102 101
f 86 87 103 102
f 87 88 104 103
f 88 89 105 104
f 89 90 106 105
f 90 91 107 106
f 91 92 108 107
f 92 93 109 108
f 93 94 110 109
f 94 95 111 110
f 95 96 112 111
f 96 81 97 112
f 97 98 114 113
f 98 99 115 114
f 99 100 116 115
f 100 101 117 116
f 101 102 118 117
f 102 103 119 118
f 103 104 120 119
f 104 105 121 120
f 105 106 122 121
f 106 107 123 122
f 107 108 124 123
f 108 109 125 124
f 109 110 126 125
f 110 111 127 126
f 111 112 128 127
f 112 97 113 128
f 113 114 130 129
f 114 115 131 130
f 115 116 132 131
f 116 117 133 132
f 117 118 134 133
f 118 119 135 134
f 119 120 136 135
f 120 121 137 136
f 121 122 138 137
f 122 123 139 138
f 123 124 140 139
f 124 125 141 140
f 125 126 142 141
f 126 127 143 142
f 127 128 144 143
f 128 113 129 144
f 129 130 146 145
f 130 131 147 146
f 131 132 148 147
f 132 133 149 148
f 133 134 150 149
f 134 135 151 150
f 135 136 152 151
f 136 137 153 152
f 137 138 154 153
f 138 139 155 154
f 139 140 156 155
f 140 141 157 156
f 141 142 158 157
f 142 143 159 158
f 143 144 160 159
f 144 129 145 160
f 145 146 162 161
f 146 147 163 162
f 147 148 164 163
f 148 149 165 164
f 149 150 166 165
f 150 151 167 166
f 151 152 168 167
f 152 153 169 168
f 153 154 170 169
f 154 155 171 170
f 155 156 172 171
f 156 157 173 172
f 157 158 174 173
f 158 159 175 174
f 159 160 176 175
f 160 145 161 176
f 161 162 178 177
f 162 163 179 178
f 163 164 180 179
f 164 165 181 180
f 165 166 182 181
f 166 167 183 182
f 167 168 184 183
f 168 169 185 184
f 169 170 186 185
f 170 171 187 186
f 171 172 188 187
f 172 173 189 188
f 173 174 190 189
f 174 175 191 190
f 175 176 192 191
f 176 161 177 192
f 177 178 194 193
f 178 179 195 194
f 179 180 196 195
f 180 181 197 196
f 181 182 198 197
f 182 183 199 198
f 183 184 200 199
f 184 185 201 200
f 185 186 202 201
f 186 187 203 202
f 187 188 204 203
f 188 189 205 204
f 189 190 206 205
f 190 191 207 206
f 191 192 208 207
f 192 177 193 208
f 193 194 210 209
f 194 195 211 210
f 195 196 212 211
f 196 197 213 212
f 197 198 214 213
f 198 199 215 214
f 199 200 216 215
f 200 201 217 216
f 201 202 218 217
f 202 203 219 218
f 203 204 220 219
f 204 205 221 220
f 205 206 222 221
f 206 207 223 222
f 207 208 224 223
f 208 193 209 224
f 209 210 226 225
f 210 211 227 226
f 211 212 228 227
f 212 213 229 228
f 213 214 230 229
f 214 215 231 230
f 215 216 232 231
f 216 217 233 232
f 217 218 234 233
f 218 219 235 234
f 219 220 236 235
f 220 221 237 236
f 221 222 238 237
f 222 223 239 238
f 223 224 240 239
f 224 209 225 240
f 225 226 242 241
f 226 227 243 242
f 227 228 244 243
f 228 229 245 244
f 229 230 246 245
f 230 231 247 246
f 231 232 248 247
f 232 233 249 248
f 233 234 250 249
f 234 235 251 250
f 235 236 252 251
f 236 237 253 252
f 237 238 254 253
f 238 239 255 254
f 239 240 256 255
f 240 225 241 256
f 241 242 258 257
f 242 243 259 258
f 243 244 260 259
f 244 245 261 260
f 245 246 262 261
f 246 247 263 262
f 247 248 264 263
f 248 249 265 264
f 249 250 266 265
f 250 251 267 266
f 251 252 268 267
f 252 253 269 268
f 253 254 270 269
f 254 255 271 270
f 255 256 272 271
f 256 241 257 272
f 257 258 274 273
f 258 259 275 274
f 259 260 276 275
f 260 261 277 276
f 261 262 278 277
f 262 263 279 278
f 263 264 280 279
f 264 265 281 280
f 265 266 282 281
f 266 267 283 282
f 267 268 284 283
f 268 269 285 284
f 269 270 286 285
f 270 271 287 286
f 271 272 288 287
f 272 257 273 288
f 273 274 290 289
f 274 275 291 290
f 275 276 292 291
f 276 277 293 292
f 277 278 294 293
f 278 279 295 294
f 279 280 296 295
f 280 281 297 296
f 281 282 298 297
f 282 283 299 298
f 283 284 300 299
f 284 285 301 300
f 285 286 302 301
f 286 287 303 302
f 287 288 304 303
f 288 273 289 304
f 289 290 306 305
f 290 291 307 306
f 291 292 308 307
f 292 293 309 308
f 293 294 310 309
f 294 295 311 310
f 295 296 312 311
f 296 297 313 312
f 297 298 314 313
f 298 299 315 314
f 299 300 316 315
f 300 301 317 316
f 301 302 318 317
f 302 303 319 318
f 303 304 320 319
f 304 289 305 320
