# Wavefront OBJ generated by MESH-FLOW-RETOPOLOGY
# Archetype: humanoid_smplx, Q%=100.0%, V4%=100.0%
# Vertices: 320, Quads: 304

v 0.220677 0.000055 0.903442
v 0.203456 0.084618 0.903792
v 0.155554 0.155877 0.903886
v 0.084309 0.204246 0.903884
v -0.000096 0.221636 0.904385
v -0.084302 0.204465 0.903574
v -0.155821 0.156744 0.903117
v -0.203972 0.084498 0.904266
v -0.220658 -0.000044 0.904157
v -0.204211 -0.084286 0.903815
v -0.155943 -0.156919 0.903705
v -0.084105 -0.204389 0.904185
v -0.000083 -0.220096 0.904227
v 0.084447 -0.204356 0.903631
v 0.156228 -0.156062 0.904287
v 0.204348 -0.084342 0.903279
v 0.220738 0.000701 0.940519
v 0.204215 0.084794 0.940405
v 0.155772 0.155812 0.940982
v 0.084648 0.203930 0.940260
v 0.000191 0.220949 0.941088
v -0.084049 0.203739 0.940109
v -0.156154 0.155783 0.940504
v -0.203805 0.084381 0.940037
v -0.220861 -0.000622 0.941690
v -0.204389 -0.084560 0.940767
v -0.156219 -0.155392 0.940736
v -0.084667 -0.204650 0.940854
v 0.000322 -0.220675 0.940284
v 0.084394 -0.203851 0.940444
v 0.156144 -0.156567 0.940927
v 0.204192 -0.084369 0.941230
v 0.220757 -0.000104 0.977595
v 0.204155 0.085088 0.977764
v 0.156318 0.156501 0.977661
v 0.084364 0.203312 0.977528
v -0.000102 0.220905 0.978360
v -0.084515 0.204038 0.976618
v -0.156106 0.156062 0.977611
v -0.203597 0.084071 0.977298
v -0.221190 0.000362 0.977039
v -0.203504 -0.084759 0.976726
v -0.155788 -0.155957 0.977557
v -0.084325 -0.203445 0.977570
v 0.000423 -0.221063 0.977963
v 0.083909 -0.203750 0.977725
v 0.155859 -0.155693 0.977507
v 0.203542 -0.083886 0.977524
v 0.220772 -0.000311 1.015038
v 0.204587 0.084318 1.014428
v 0.156083 0.156044 1.014816
v 0.084433 0.203945 1.014830
v -0.000742 0.220687 1.015020
v -0.084786 0.204450 1.014233
v -0.156643 0.156509 1.014163
v -0.204226 0.084198 1.013792
v -0.220777 0.000300 1.014900
v -0.203737 -0.084495 1.014410
v -0.156292 -0.156511 1.014541
v -0.085103 -0.203957 1.013465
v -0.000249 -0.220534 1.014972
v 0.084333 -0.203973 1.014262
v 0.155994 -0.156153 1.014883
v 0.204664 -0.084348 1.014206
v 0.220790 0.000495 1.051426
v 0.203909 0.084877 1.051434
v 0.156159 0.156637 1.051353
v 0.084302 0.203631 1.051076
v 0.000548 0.221248 1.051290
v -0.084730 0.203857 1.049963
v -0.156409 0.155731 1.051116
v -0.204321 0.084651 1.051193
v -0.220568 0.000094 1.051688
v -0.204094 -0.085446 1.052237
v -0.156455 -0.155541 1.051682
v -0.084958 -0.204087 1.051923
v 0.000284 -0.221145 1.051785
v 0.084439 -0.204080 1.051754
v 0.155329 -0.156434 1.052300
v 0.203988 -0.084262 1.051156
v 0.221190 0.000046 1.088243
v 0.203718 0.085003 1.088577
v 0.156371 0.156442 1.087742
v 0.084364 0.204563 1.088079
v -0.000844 0.220464 1.089048
v -0.084333 0.203558 1.088725
v -0.156359 0.155874 1.088812
v -0.204038 0.085814 1.088851
v -0.220775 0.000496 1.087795
v -0.203493 -0.084350 1.088392
v -0.156755 -0.155611 1.087981
v -0.084529 -0.203671 1.088260
v -0.000079 -0.220636 1.088416
v 0.084678 -0.204107 1.088180
v 0.155551 -0.155690 1.087596
v 0.204838 -0.084465 1.088210
v 0.220763 0.000248 1.125475
v 0.204258 0.084760 1.125055
v 0.156040 0.156458 1.125035
v 0.084403 0.203739 1.125142
v 0.000330 0.221098 1.125096
v -0.084768 0.204070 1.125346
v -0.156690 0.156417 1.125175
v -0.203981 0.084612 1.124956
v -0.221203 -0.000324 1.124874
v -0.204070 -0.084796 1.125516
v -0.156311 -0.156130 1.125354
v -0.084762 -0.203736 1.124561
v 0.000400 -0.220392 1.124932
v 0.084210 -0.204310 1.125143
v 0.156187 -0.155825 1.125363
v 0.204331 -0.084913 1.125451
v 0.221203 0.000128 1.162177
v 0.204286 0.084852 1.162245
v 0.156085 0.156384 1.162529
v 0.084433 0.204638 1.162901
v 0.000286 0.220960 1.162218
v -0.085112 0.203721 1.162405
v -0.156175 0.156581 1.162349
v -0.203947 0.084397 1.162670
v -0.221082 -0.000610 1.162385
v -0.204222 -0.084800 1.162501
v -0.156271 -0.156187 1.162303
v -0.084218 -0.204072 1.162143
v -0.000577 -0.221257 1.161485
v 0.084830 -0.204409 1.162269
v 0.155311 -0.155861 1.162675
v 0.204300 -0.083680 1.162550
v 0.221177 -0.000060 1.199154
v 0.203316 0.084147 1.199520
v 0.156540 0.155987 1.199815
v 0.083797 0.203593 1.199477
v 0.000681 0.220337 1.199336
v -0.085018 0.204696 1.199529
v -0.156184 0.156164 1.199469
v -0.204310 0.084950 1.199347
v -0.220923 -0.000205 1.199007
v -0.203615 -0.083915 1.198782
v -0.156314 -0.155884 1.198674
v -0.084571 -0.204531 1.199263
v -0.000820 -0.221573 1.199389
v 0.084139 -0.204319 1.198746
v 0.156566 -0.156455 1.198870
v 0.204761 -0.084055 1.200101
v 0.220982 -0.000285 1.235642
v 0.204032 0.083877 1.236788
v 0.156860 0.156204 1.236087
v 0.084538 0.204884 1.236275
v 0.000519 0.220609 1.236093
v -0.084151 0.204266 1.236660
v -0.156157 0.155802 1.236631
v -0.204262 0.084736 1.236554
v -0.220832 0.000412 1.236459
v -0.203585 -0.085307 1.236225
v -0.155904 -0.156267 1.236284
v -0.084437 -0.204306 1.235938
v 0.000211 -0.220646 1.236349
v 0.085441 -0.203459 1.235696
v 0.155528 -0.156083 1.236010
v 0.203938 -0.085750 1.235794
v 0.220926 0.000380 1.273827
v 0.203981 0.084826 1.273753
v 0.156439 0.156612 1.272517
v 0.084175 0.204065 1.272600
v -0.000031 0.221218 1.272583
v -0.084740 0.204474 1.273264
v -0.155834 0.156732 1.272820
v -0.204821 0.085081 1.272964
v -0.220616 0.000194 1.273424
v -0.203718 -0.084544 1.273518
v -0.156290 -0.156162 1.273283
v -0.084164 -0.203832 1.272888
v -0.000199 -0.220486 1.273149
v 0.084226 -0.203398 1.272972
v 0.156446 -0.156409 1.273491
v 0.204780 -0.083878 1.273169
v 0.220772 0.000360 1.309883
v 0.204723 0.084551 1.310618
v 0.156441 0.156163 1.310479
v 0.084678 0.203662 1.310366
v -0.000332 0.221324 1.309926
v -0.085099 0.205045 1.310454
v -0.156412 0.156263 1.309989
v -0.203822 0.084491 1.310199
v -0.221339 -0.000101 1.310003
v -0.203898 -0.084331 1.310309
v -0.156339 -0.156015 1.310022
v -0.085351 -0.204408 1.310267
v -0.000478 -0.220713 1.310947
v 0.084926 -0.203318 1.310277
v 0.156175 -0.156849 1.310007
v 0.204149 -0.084855 1.311016
v 0.220781 -0.000307 1.347674
v 0.203607 0.084391 1.347251
v 0.155931 0.155279 1.347014
v 0.084426 0.204245 1.347424
v -0.000330 0.221215 1.347058
v -0.084335 0.203871 1.346953
v -0.156595 0.156385 1.347193
v -0.203673 0.084702 1.346936
v -0.221176 0.000367 1.346740
v -0.204601 -0.084690 1.346340
v -0.155874 -0.155687 1.347793
v -0.085120 -0.204322 1.347108
v -0.000111 -0.220427 1.346114
v 0.084474 -0.204105 1.346797
v 0.155991 -0.156271 1.347400
v 0.203874 -0.085274 1.346551
v 0.220241 0.000203 1.384428
v 0.204112 0.084503 1.383600
v 0.156855 0.155574 1.384098
v 0.084695 0.204464 1.384693
v -0.000327 0.220846 1.384548
v -0.084010 0.204195 1.383371
v -0.156079 0.156780 1.384132
v -0.203953 0.085598 1.384056
v -0.220783 -0.000277 1.383300
v -0.204510 -0.084418 1.384475
v -0.157206 -0.156206 1.384029
v -0.084516 -0.204141 1.384092
v 0.000228 -0.220657 1.384048
v 0.084741 -0.203778 1.383992
v 0.156284 -0.156780 1.385089
v 0.203628 -0.085021 1.384859
v 0.221011 0.000148 1.421543
v 0.204371 0.084967 1.420287
v 0.155810 0.155676 1.420697
v 0.084974 0.204271 1.420789
v 0.000486 0.220591 1.421079
v -0.084376 0.203779 1.420807
v -0.156039 0.155721 1.421413
v -0.204307 0.084289 1.421107
v -0.221005 0.000498 1.420616
v -0.203988 -0.084317 1.420567
v -0.155902 -0.155622 1.421602
v -0.084766 -0.203553 1.420286
v 0.000828 -0.221550 1.420900
v 0.084564 -0.203845 1.420825
v 0.156197 -0.156621 1.420938
v 0.204002 -0.084381 1.421006
v 0.220753 0.000680 1.458468
v 0.203766 0.084457 1.458006
v 0.156175 0.156044 1.458147
v 0.084835 0.203984 1.458321
v -0.000162 0.221552 1.457523
v -0.084713 0.203960 1.457542
v -0.156845 0.155779 1.458664
v -0.203553 0.084774 1.457922
v -0.221081 0.000289 1.457858
v -0.203761 -0.084282 1.458492
v -0.155815 -0.155645 1.458320
v -0.084944 -0.203684 1.456886
v -0.000196 -0.220948 1.458274
v 0.084247 -0.203833 1.457884
v 0.155164 -0.156144 1.457476
v 0.204342 -0.084511 1.457229
v 0.221124 -0.000721 1.494600
v 0.204286 0.084274 1.494495
v 0.155935 0.156807 1.495170
v 0.084624 0.204091 1.494635
v -0.000071 0.221406 1.494730
v -0.084768 0.203839 1.494452
v -0.156514 0.156000 1.494909
v -0.203401 0.084354 1.494799
v -0.220983 0.000508 1.495311
v -0.204481 -0.084509 1.494610
v -0.156193 -0.156194 1.494508
v -0.084320 -0.204100 1.495065
v 0.000173 -0.220752 1.494793
v 0.084716 -0.204561 1.495237
v 0.156257 -0.156007 1.494306
v 0.203984 -0.084936 1.495472
v 0.220769 -0.000354 1.531798
v 0.203638 0.084731 1.531270
v 0.155268 0.156327 1.532007
v 0.083947 0.203434 1.532038
v 0.000167 0.220987 1.532365
v -0.084160 0.204461 1.532136
v -0.156168 0.156089 1.531214
v -0.203665 0.084134 1.531915
v -0.220855 -0.000268 1.532277
v -0.204214 -0.084591 1.531635
v -0.156297 -0.157159 1.532084
v -0.084314 -0.203814 1.532051
v 0.000254 -0.221348 1.531266
v 0.084752 -0.203731 1.531643
v 0.156402 -0.156434 1.531750
v 0.204665 -0.085141 1.531116
v 0.221119 0.000154 1.568666
v 0.203929 0.084263 1.567980
v 0.156253 0.156500 1.569328
v 0.084816 0.204075 1.568066
v 0.000206 0.220786 1.568786
v -0.084998 0.203057 1.568990
v -0.155988 0.155767 1.568508
v -0.204796 0.084293 1.568922
v -0.221110 -0.000441 1.568453
v -0.204264 -0.084949 1.568314
v -0.156732 -0.156440 1.568846
v -0.084584 -0.204542 1.569104
v -0.000147 -0.220719 1.568768
v 0.084017 -0.204138 1.568761
v 0.156723 -0.156479 1.568523
v 0.203201 -0.084403 1.568692
v 0.220776 -0.000627 1.605766
v 0.203951 0.084283 1.605654
v 0.156360 0.156105 1.605301
v 0.084933 0.204009 1.606006
v -0.000475 0.221481 1.605950
v -0.084675 0.203439 1.605754
v -0.155961 0.155434 1.606304
v -0.203187 0.084350 1.605928
v -0.220469 -0.000282 1.605631
v -0.203838 -0.084016 1.605381
v -0.156441 -0.156143 1.604994
v -0.084100 -0.203455 1.606003
v 0.000018 -0.220972 1.605824
v 0.084385 -0.203564 1.605154
v 0.156215 -0.156627 1.605592
v 0.203880 -0.084752 1.605550

f 1 2 18 17
f 2 3 19 18
f 3 4 20 19
f 4 5 21 20
f 5 6 22 21
f 6 7 23 22
f 7 8 24 23
f 8 9 25 24
f 9 10 26 25
f 10 11 27 26
f 11 12 28 27
f 12 13 29 28
f 13 14 30 29
f 14 15 31 30
f 15 16 32 31
f 16 1 17 32
f 17 18 34 33
f 18 19 35 34
f 19 20 36 35
f 20 21 37 36
f 21 22 38 37
f 22 23 39 38
f 23 24 40 39
f 24 25 41 40
f 25 26 42 41
f 26 27 43 42
f 27 28 44 43
f 28 29 45 44
f 29 30 46 45
f 30 31 47 46
f 31 32 48 47
f 32 17 33 48
f 33 34 50 49
f 34 35 51 50
f 35 36 52 51
f 36 37 53 52
f 37 38 54 53
f 38 39 55 54
f 39 40 56 55
f 40 41 57 56
f 41 42 58 57
f 42 43 59 58
f 43 44 60 59
f 44 45 61 60
f 45 46 62 61
f 46 47 63 62
f 47 48 64 63
f 48 33 49 64
f 49 50 66 65
f 50 51 67 66
f 51 52 68 67
f 52 53 69 68
f 53 54 70 69
f 54 55 71 70
f 55 56 72 71
f 56 57 73 72
f 57 58 74 73
f 58 59 75 74
f 59 60 76 75
f 60 61 77 76
f 61 62 78 77
f 62 63 79 78
f 63 64 80 79
f 64 49 65 80
f 65 66 82 81
f 66 67 83 82
f 67 68 84 83
f 68 69 85 84
f 69 70 86 85
f 70 71 87 86
f 71 72 88 87
f 72 73 89 88
f 73 74 90 89
f 74 75 91 90
f 75 76 92 91
f 76 77 93 92
f 77 78 94 93
f 78 79 95 94
f 79 80 96 95
f 80 65 81 96
f 81 82 98 97
f 82 83 99 98
f 83 84 100 99
f 84 85 101 100
f 85 86 102 101
f 86 87 103 102
f 87 88 104 103
f 88 89 105 104
f 89 90 106 105
f 90 91 107 106
f 91 92 108 107
f 92 93 109 108
f 93 94 110 109
f 94 95 111 110
f 95 96 112 111
f 96 81 97 112
f 97 98 114 113
f 98 99 115 114
f 99 100 116 115
f 100 101 117 116
f 101 102 118 117
f 102 103 119 118
f 103 104 120 119
f 104 105 121 120
f 105 106 122 121
f 106 107 123 122
f 107 108 124 123
f 108 109 125 124
f 109 110 126 125
f 110 111 127 126
f 111 112 128 127
f 112 97 113 128
f 113 114 130 129
f 114 115 131 130
f 115 116 132 131
f 116 117 133 132
f 117 118 134 133
f 118 119 135 134
f 119 120 136 135
f 120 121 137 136
f 121 122 138 137
f 122 123 139 138
f 123 124 140 139
f 124 125 141 140
f 125 126 142 141
f 126 127 143 142
f 127 128 144 143
f 128 113 129 144
f 129 130 146 145
f 130 131 147 146
f 131 132 148 147
f 132 133 149 148
f 133 134 150 149
f 134 135 151 150
f 135 136 152 151
f 136 137 153 152
f 137 138 154 153
f 138 139 155 154
f 139 140 156 155
f 140 141 157 156
f 141 142 158 157
f 142 143 159 158
f 143 144 160 159
f 144 129 145 160
f 145 146 162 161
f 146 147 163 162
f 147 148 164 163
f 148 149 165 164
f 149 150 166 165
f 150 151 167 166
f 151 152 168 167
f 152 153 169 168
f 153 154 170 169
f 154 155 171 170
f 155 156 172 171
f 156 157 173 172
f 157 158 174 173
f 158 159 175 174
f 159 160 176 175
f 160 145 161 176
f 161 162 178 177
f 162 163 179 178
f 163 164 180 179
f 164 165 181 180
f 165 166 182 181
f 166 167 183 182
f 167 168 184 183
f 168 169 185 184
f 169 170 186 185
f 170 171 187 186
f 171 172 188 187
f 172 173 189 188
f 173 174 190 189
f 174 175 191 190
f 175 176 192 191
f 176 161 177 192
f 177 178 194 193
f 178 179 195 194
f 179 180 196 195
f 180 181 197 196
f 181 182 198 197
f 182 183 199 198
f 183 184 200 199
f 184 185 201 200
f 185 186 202 201
f 186 187 203 202
f 187 188 204 203
f 188 189 205 204
f 189 190 206 205
f 190 191 207 206
f 191 192 208 207
f 192 177 193 208
f 193 194 210 209
f 194 195 211 210
f 195 196 212 211
f 196 197 213 212
f 197 198 214 213
f 198 199 215 214
f 199 200 216 215
f 200 201 217 216
f 201 202 218 217
f 202 203 219 218
f 203 204 220 219
f 204 205 221 220
f 205 206 222 221
f 206 207 223 222
f 207 208 224 223
f 208 193 209 224
f 209 210 226 225
f 210 211 227 226
f 211 212 228 227
f 212 213 229 228
f 213 214 230 229
f 214 215 231 230
f 215 216 232 231
f 216 217 233 232
f 217 218 234 233
f 218 219 235 234
f 219 220 236 235
f 220 221 237 236
f 221 222 238 237
f 222 223 239 238
f 223 224 240 239
f 224 209 225 240
f 225 226 242 241
f 226 227 243 242
f 227 228 244 243
f 228 229 245 244
f 229 230 246 245
f 230 231 247 246
f 231 232 248 247
f 232 233 249 248
f 233 234 250 249
f 234 235 251 250
f 235 236 252 251
f 236 237 253 252
f 237 238 254 253
f 238 239 255 254
f 239 240 256 255
f 240 225 241 256
f 241 242 258 257
f 242 243 259 258
f 243 244 260 259
f 244 245 261 260
f 245 246 262 261
f 246 247 263 262
f 247 248 264 263
f 248 249 265 264
f 249 250 266 265
f 250 251 267 266
f 251 252 268 267
f 252 253 269 268
f 253 254 270 269
f 254 255 271 270
f 255 256 272 271
f 256 241 257 272
f 257 258 274 273
f 258 259 275 274
f 259 260 276 275
f 260 261 277 276
f 261 262 278 277
f 262 263 279 278
f 263 264 280 279
f 264 265 281 280
f 265 266 282 281
f 266 267 283 282
f 267 268 284 283
f 268 269 285 284
f 269 270 286 285
f 270 271 287 286
f 271 272 288 287
f 272 257 273 288
f 273 274 290 289
f 274 275 291 290
f 275 276 292 291
f 276 277 293 292
f 277 278 294 293
f 278 279 295 294
f 279 280 296 295
f 280 281 297 296
f 281 282 298 297
f 282 283 299 298
f 283 284 300 299
f 284 285 301 300
f 285 286 302 301
f 286 287 303 302
f 287 288 304 303
f 288 273 289 304
f 289 290 306 305
f 290 291 307 306
f 291 292 308 307
f 292 293 309 308
f 293 294 310 309
f 294 295 311 310
f 295 296 312 311
f 296 297 313 312
f 297 298 314 313
f 298 299 315 314
f 299 300 316 315
f 300 301 317 316
f 301 302 318 317
f 302 303 319 318
f 303 304 320 319
f 304 289 305 320
