# Benchmark: MeshGPT (Autoregressive)
v 0.403815 -0.001062 -0.995026
v 0.384911 0.150256 -0.997023
v 0.309716 0.286032 -1.000748
v 0.183038 0.369054 -1.004294
v 0.030625 0.384828 -1.017370
v -0.127992 0.347208 -1.014262
v -0.265738 0.250547 -1.002435
v -0.354866 0.122588 -1.013280
v -0.390082 -0.028414 -1.021588
v -0.357145 -0.184964 -1.022965
v -0.275553 -0.299232 -1.022150
v -0.154199 -0.378969 -1.030640
v 0.000524 -0.424090 -1.039615
v 0.155088 -0.387007 -1.036714
v 0.283888 -0.301912 -1.046601
v 0.365027 -0.174918 -1.036618
v 0.398295 -0.034511 -0.915017
v 0.364958 0.114744 -0.909013
v 0.286351 0.253199 -0.914392
v 0.154066 0.343638 -0.905618
v -0.002727 0.373697 -0.913184
v -0.164878 0.350541 -0.901535
v -0.294728 0.272299 -0.897990
v -0.385916 0.145727 -0.885553
v -0.415985 0.004964 -0.905544
v -0.378585 -0.147639 -0.906913
v -0.290810 -0.292891 -0.907618
v -0.157979 -0.367847 -0.910587
v -0.010919 -0.402217 -0.902428
v 0.145116 -0.375749 -0.897683
v 0.275949 -0.281353 -0.902461
v 0.360417 -0.154654 -0.912897
v 0.393505 0.000487 -0.793989
v 0.361515 0.142671 -0.796048
v 0.272496 0.266695 -0.796033
v 0.146243 0.368536 -0.793439
v -0.004579 0.398453 -0.807026
v -0.157673 0.368529 -0.786416
v -0.288736 0.284177 -0.785814
v -0.384184 0.163131 -0.779195
v -0.407972 0.002671 -0.767842
v -0.387971 -0.146002 -0.750893
v -0.308133 -0.280403 -0.750681
v -0.181218 -0.379119 -0.750715
v -0.035178 -0.405547 -0.758336
v 0.131206 -0.380893 -0.761064
v 0.268098 -0.303183 -0.759463
v 0.365436 -0.184946 -0.758255
v 0.398044 -0.024593 -0.650365
v 0.357533 0.133473 -0.647952
v 0.273229 0.266687 -0.653139
v 0.145628 0.356293 -0.658382
v 0.007181 0.390911 -0.667078
v -0.141137 0.353340 -0.660233
v -0.262486 0.260977 -0.652307
v -0.346839 0.138396 -0.637530
v -0.380080 -0.019879 -0.644742
v -0.356694 -0.172750 -0.642215
v -0.268374 -0.295379 -0.642309
v -0.128021 -0.383619 -0.621608
v 0.028856 -0.420088 -0.630851
v 0.184480 -0.390552 -0.626015
v 0.316628 -0.303563 -0.633360
v 0.390351 -0.176394 -0.627331
v 0.421612 -0.031955 -0.509143
v 0.393258 0.115609 -0.508773
v 0.306048 0.238099 -0.506851
v 0.179657 0.334915 -0.499660
v 0.014940 0.359547 -0.496895
v -0.134785 0.334672 -0.468607
v -0.260901 0.258079 -0.463712
v -0.343485 0.126879 -0.460511
v -0.380912 -0.026965 -0.466995
v -0.350598 -0.161183 -0.483832
v -0.259377 -0.303014 -0.489280
v -0.122183 -0.388423 -0.499162
v 0.024161 -0.412897 -0.505981
v 0.177931 -0.381583 -0.511923
v 0.323171 -0.289524 -0.528175
v 0.409699 -0.164570 -0.521678
v 0.432455 -0.011918 -0.400462
v 0.407357 0.132414 -0.403483
v 0.315489 0.257992 -0.390256
v 0.187524 0.336012 -0.384067
v 0.049370 0.375731 -0.396844
v -0.109397 0.355983 -0.402875
v -0.237505 0.275766 -0.410350
v -0.326484 0.121387 -0.418274
v -0.360595 -0.040002 -0.405476
v -0.342706 -0.194855 -0.404724
v -0.246002 -0.333980 -0.396072
v -0.117628 -0.426182 -0.393151
v 0.035556 -0.458974 -0.393360
v 0.184248 -0.425295 -0.389011
v 0.324951 -0.345863 -0.373539
v 0.394984 -0.214739 -0.370550
v 0.426573 -0.063981 -0.256150
v 0.391276 0.087125 -0.251144
v 0.306439 0.214211 -0.245954
v 0.178086 0.309908 -0.243045
v 0.017646 0.338440 -0.239348
v -0.131446 0.310294 -0.240638
v -0.252268 0.221412 -0.238575
v -0.341753 0.092428 -0.232359
v -0.366974 -0.051972 -0.224803
v -0.337685 -0.197729 -0.229958
v -0.249761 -0.326712 -0.231780
v -0.116744 -0.417950 -0.218204
v 0.027150 -0.455787 -0.212346
v 0.185217 -0.418314 -0.210791
v 0.313607 -0.336546 -0.213542
v 0.393885 -0.197139 -0.217894
v 0.417020 -0.044772 -0.100125
v 0.381561 0.103778 -0.101307
v 0.296253 0.231626 -0.107931
v 0.167729 0.309262 -0.121482
v 0.008552 0.340483 -0.121294
v -0.133533 0.319002 -0.124729
v -0.264230 0.226616 -0.126941
v -0.353900 0.101574 -0.135276
v -0.380986 -0.037668 -0.137759
v -0.348213 -0.183934 -0.142389
v -0.260636 -0.312373 -0.143002
v -0.137692 -0.397712 -0.140516
v 0.025911 -0.419667 -0.125418
v 0.172055 -0.381733 -0.126052
v 0.317882 -0.300744 -0.134517
v 0.398587 -0.186570 -0.140233
v 0.422043 -0.031002 -0.021411
v 0.405122 0.130611 -0.027338
v 0.310091 0.265057 -0.038737
v 0.193297 0.361535 -0.043144
v 0.025458 0.402702 -0.044651
v -0.119128 0.359900 -0.049821
v -0.250214 0.273938 -0.053637
v -0.333445 0.136326 -0.054938
v -0.364414 -0.012127 -0.049628
v -0.344026 -0.176497 -0.040184
v -0.255786 -0.311078 -0.029016
v -0.126211 -0.387601 -0.029690
v 0.041615 -0.403846 -0.032768
v 0.200485 -0.368287 -0.023299
v 0.320947 -0.276360 -0.016591
v 0.392625 -0.155937 -0.033942
v 0.420081 0.002761 0.094248
v 0.389399 0.168232 0.082232
v 0.288814 0.296968 0.084245
v 0.158555 0.367234 0.082544
v -0.004756 0.402918 0.084411
v -0.164858 0.368407 0.075252
v -0.294637 0.289079 0.067025
v -0.377003 0.154988 0.060608
v -0.407975 -0.006113 0.056284
v -0.386408 -0.143852 0.056657
v -0.304398 -0.272347 0.055881
v -0.175464 -0.354759 0.061816
v -0.025569 -0.390221 0.059584
v 0.110848 -0.371801 0.070051
v 0.254940 -0.286915 0.074030
v 0.345156 -0.133337 0.082020
v 0.375597 0.011609 0.186402
v 0.347688 0.158409 0.175082
v 0.256888 0.279659 0.188094
v 0.134927 0.366434 0.198995
v -0.016826 0.390392 0.209792
v -0.165087 0.352362 0.206997
v -0.301101 0.255721 0.212889
v -0.372415 0.116295 0.215756
v -0.407746 -0.039048 0.209635
v -0.383623 -0.190187 0.201927
v -0.294274 -0.318857 0.199073
v -0.171018 -0.408556 0.203971
v -0.013380 -0.444951 0.203634
v 0.146000 -0.425526 0.206720
v 0.270963 -0.332196 0.199648
v 0.344286 -0.212952 0.199091
v 0.377739 -0.064428 0.320737
v 0.335421 0.090715 0.310372
v 0.245071 0.223342 0.303114
v 0.113859 0.320160 0.298323
v -0.031228 0.343907 0.302224
v -0.171981 0.296721 0.295780
v -0.296562 0.211365 0.298563
v -0.387361 0.085120 0.297190
v -0.408128 -0.063281 0.299660
v -0.380518 -0.217568 0.296116
v -0.290341 -0.347991 0.298262
v -0.144332 -0.425404 0.295592
v 0.017617 -0.456752 0.279880
v 0.162243 -0.438401 0.277750
v 0.291787 -0.336063 0.280916
v 0.376456 -0.197795 0.264462
v 0.408437 -0.037013 0.371940
v 0.386436 0.120141 0.370344
v 0.303911 0.268666 0.373397
v 0.175205 0.352415 0.368405
v 0.027624 0.376974 0.370689
v -0.130223 0.351125 0.374895
v -0.252938 0.261236 0.374297
v -0.348360 0.128919 0.378693
v -0.373842 -0.030271 0.386695
v -0.334029 -0.178958 0.402111
v -0.254684 -0.317251 0.388837
v -0.114551 -0.397558 0.389327
v 0.039131 -0.435530 0.409008
v 0.191632 -0.402820 0.414692
v 0.323553 -0.313061 0.408504
v 0.412255 -0.167629 0.418967
v 0.453230 -0.017899 0.528726
v 0.419687 0.136318 0.537157
v 0.317974 0.278504 0.535634
v 0.183521 0.357614 0.522675
v 0.035552 0.389103 0.513038
v -0.128890 0.356512 0.526511
v -0.261620 0.258780 0.524740
v -0.351273 0.109261 0.524510
v -0.384225 -0.036713 0.538906
v -0.345756 -0.190383 0.530028
v -0.240236 -0.318205 0.530110
v -0.112356 -0.401978 0.528974
v 0.034683 -0.435329 0.528740
v 0.182196 -0.408943 0.529584
v 0.308842 -0.309107 0.509218
v 0.402894 -0.168717 0.494102
v 0.429376 -0.017871 0.602351
v 0.391780 0.127388 0.617597
v 0.311367 0.267950 0.624318
v 0.171786 0.351227 0.628986
v 0.008578 0.387884 0.627863
v -0.147717 0.363381 0.632043
v -0.280473 0.285822 0.624341
v -0.362546 0.160488 0.622872
v -0.390770 -0.002490 0.630937
v -0.362111 -0.159478 0.639638
v -0.281109 -0.299809 0.627980
v -0.146755 -0.395673 0.642220
v -0.009923 -0.412047 0.644034
v 0.142804 -0.385302 0.647220
v 0.272695 -0.289490 0.648091
v 0.360965 -0.162247 0.647612
v 0.394120 -0.021941 0.754883
v 0.369615 0.133322 0.753863
v 0.283045 0.266551 0.750152
v 0.147291 0.355416 0.743220
v -0.002416 0.373354 0.751983
v -0.151763 0.345938 0.760039
v -0.268794 0.267964 0.746088
v -0.365892 0.133991 0.747033
v -0.392511 -0.023893 0.749174
v -0.368164 -0.180707 0.738992
v -0.288601 -0.319752 0.732526
v -0.150509 -0.412276 0.754030
v 0.006250 -0.439596 0.747865
v 0.164452 -0.411985 0.749476
v 0.313428 -0.324316 0.758911
v 0.393513 -0.193156 0.772743
v 0.418188 -0.024560 0.895504
v 0.382692 0.134353 0.902447
v 0.300233 0.252811 0.896059
v 0.167867 0.340150 0.900277
v 0.015567 0.361519 0.902480
v -0.133440 0.336909 0.909976
v -0.257590 0.255032 0.908332
v -0.358066 0.129675 0.908888
v -0.386888 -0.032268 0.899524
v -0.348876 -0.184354 0.904071
v -0.262776 -0.312644 0.910408
v -0.137773 -0.397423 0.905736
v 0.011352 -0.429131 0.906506
v 0.160294 -0.387873 0.898670
v 0.288340 -0.303808 0.909130
v 0.376338 -0.165276 0.896650
v 0.408566 -0.004882 1.014357
v 0.385958 0.144414 1.024606
v 0.316248 0.271743 1.020201
v 0.196305 0.371027 1.015377
v 0.038275 0.399252 1.004436
v -0.123385 0.361122 0.998362
v -0.254608 0.276549 1.010336
v -0.350114 0.154591 1.008279
v -0.381719 0.006640 0.999325
v -0.349065 -0.145421 1.003134
v -0.260955 -0.256640 0.998111
v -0.136139 -0.349183 0.993921
v 0.011362 -0.371314 1.005073
v 0.159597 -0.348406 1.008491
v 0.284865 -0.257681 1.009709
v 0.359852 -0.117034 1.023113
f 1 2 18 17
f 2 3 19 18
f 3 4 20 19
f 4 5 21 20
f 5 6 22 21
f 6 7 23 22
f 7 8 24 23
f 8 9 25 24
f 9 10 26 25
f 10 11 27 26
f 11 12 28 27
f 12 13 29 28
f 13 14 30 29
f 14 15 31 30
f 15 16 32 31
f 16 1 17 32
f 17 18 34 33
f 18 19 35 34
f 19 20 36 35
f 20 21 37 36
f 21 22 38 37
f 22 23 39 38
f 23 24 40 39
f 24 25 41 40
f 25 26 42 41
f 26 27 43 42
f 27 28 44 43
f 28 29 45 44
f 29 30 46 45
f 30 31 47 46
f 31 32 48 47
f 32 17 33 48
f 33 34 50 49
f 34 35 51 50
f 35 36 52 51
f 36 37 53 52
f 37 38 54 53
f 38 39 55 54
f 39 40 56 55
f 40 41 57 56
f 41 42 58 57
f 42 43 59 58
f 43 44 60 59
f 44 45 61
f 45 46 62 61
f 46 47 63 62
f 47 48 64 63
f 48 33 49 64
f 49 50 66 65
f 50 51 67 66
f 51 52 68 67
f 52 53 69 68
f 53 54 70
f 54 55 71 70
f 55 56 72 71
f 56 57 73 72
f 57 58 74 73
f 58 59 75 74
f 59 60 76 75
f 60 61 77 76
f 61 62 78 77
f 62 63 79 78
f 63 64 80 79
f 64 49 65 80
f 65 66 82 81
f 66 67 83 82
f 67 68 84 83
f 68 69 85 84
f 69 70 86 85
f 70 71 87 86
f 71 72 88 87
f 72 73 89 88
f 73 74 90 89
f 74 75 91 90
f 75 76 92 91
f 76 77 93 92
f 77 78 94 93
f 78 79 95 94
f 79 80 96
f 80 65 81 96
f 81 82 98 97
f 82 83 99 98
f 83 84 100 99
f 84 85 101 100
f 85 86 102 101
f 86 87 103
f 87 88 104
f 88 89 105 104
f 89 90 106 105
f 90 91 107 106
f 91 92 108 107
f 92 93 109 108
f 93 94 110 109
f 94 95 111 110
f 95 96 112 111
f 96 81 97 112
f 97 98 114 113
f 98 99 115 114
f 99 100 116 115
f 100 101 117 116
f 101 102 118 117
f 102 103 119 118
f 103 104 120 119
f 104 105 121 120
f 105 106 122 121
f 106 107 123 122
f 107 108 124 123
f 108 109 125 124
f 109 110 126 125
f 110 111 127 126
f 111 112 128 127
f 112 97 113 128
f 113 114 130 129
f 114 115 131 130
f 115 116 132 131
f 116 117 133 132
f 117 118 134 133
f 118 119 135
f 119 120 136 135
f 120 121 137 136
f 121 122 138 137
f 122 123 139 138
f 123 124 140 139
f 124 125 141 140
f 125 126 142 141
f 126 127 143 142
f 127 128 144 143
f 128 113 129 144
f 129 130 146 145
f 130 131 147 146
f 131 132 148 147
f 132 133 149
f 133 134 150 149
f 134 135 151 150
f 135 136 152 151
f 136 137 153 152
f 137 138 154 153
f 138 139 155 154
f 139 140 156 155
f 140 141 157 156
f 141 142 158 157
f 142 143 159 158
f 143 144 160 159
f 144 129 145 160
f 145 146 162 161
f 146 147 163 162
f 147 148 164 163
f 148 149 165 164
f 149 150 166
f 150 151 167 166
f 151 152 168 167
f 152 153 169 168
f 153 154 170 169
f 154 155 171 170
f 155 156 172 171
f 156 157 173 172
f 157 158 174 173
f 158 159 175
f 159 160 176 175
f 160 145 161 176
f 161 162 178 177
f 162 163 179 178
f 163 164 180 179
f 164 165 181 180
f 165 166 182 181
f 166 167 183 182
f 167 168 184 183
f 168 169 185
f 169 170 186 185
f 170 171 187 186
f 171 172 188 187
f 172 173 189 188
f 173 174 190
f 174 175 191 190
f 175 176 192 191
f 176 161 177 192
f 177 178 194 193
f 178 179 195 194
f 179 180 196 195
f 180 181 197 196
f 181 182 198 197
f 182 183 199 198
f 183 184 200 199
f 184 185 201 200
f 185 186 202
f 186 187 203 202
f 187 188 204 203
f 188 189 205 204
f 189 190 206 205
f 190 191 207 206
f 191 192 208 207
f 192 177 193 208
f 193 194 210 209
f 194 195 211 210
f 195 196 212 211
f 196 197 213 212
f 197 198 214 213
f 198 199 215 214
f 199 200 216 215
f 200 201 217 216
f 201 202 218 217
f 202 203 219 218
f 203 204 220 219
f 204 205 221 220
f 205 206 222 221
f 206 207 223 222
f 207 208 224 223
f 208 193 209 224
f 209 210 226 225
f 210 211 227 226
f 211 212 228 227
f 212 213 229 228
f 213 214 230 229
f 214 215 231 230
f 215 216 232 231
f 216 217 233 232
f 217 218 234 233
f 218 219 235 234
f 219 220 236 235
f 220 221 237 236
f 221 222 238 237
f 222 223 239 238
f 223 224 240 239
f 224 209 225
f 225 226 242 241
f 226 227 243 242
f 227 228 244 243
f 228 229 245 244
f 229 230 246 245
f 230 231 247 246
f 231 232 248 247
f 232 233 249 248
f 233 234 250 249
f 234 235 251
f 235 236 252 251
f 236 237 253 252
f 237 238 254 253
f 238 239 255 254
f 239 240 256 255
f 240 225 241 256
f 241 242 258 257
f 242 243 259 258
f 243 244 260 259
f 244 245 261 260
f 245 246 262 261
f 246 247 263 262
f 247 248 264 263
f 248 249 265 264
f 249 250 266 265
f 250 251 267 266
f 251 252 268 267
f 252 253 269 268
f 253 254 270 269
f 254 255 271 270
f 255 256 272 271
f 256 241 257 272
f 257 258 274 273
f 258 259 275 274
f 259 260 276 275
f 260 261 277 276
f 261 262 278 277
f 262 263 279 278
f 263 264 280 279
f 264 265 281 280
f 265 266 282 281
f 266 267 283 282
f 267 268 284 283
f 268 269 285 284
f 269 270 286 285
f 270 271 287 286
f 271 272 288 287
f 272 257 273 288
