# Benchmark: Ours (Deformation Flow)
v 0.401393 0.000055 -1.003673
v 0.370416 0.153775 -1.003323
v 0.283340 0.283662 -1.003229
v 0.153466 0.371206 -1.003230
v -0.000096 0.402352 -1.002730
v -0.153459 0.371424 -1.003541
v -0.283606 0.284529 -1.003998
v -0.370932 0.153655 -1.002849
v -0.401374 -0.000044 -1.002958
v -0.371171 -0.153443 -1.003300
v -0.283728 -0.284704 -1.003410
v -0.153261 -0.371349 -1.002930
v -0.000083 -0.400811 -1.002888
v 0.153604 -0.371315 -1.003484
v 0.284014 -0.283848 -1.002828
v 0.371308 -0.153499 -1.003836
v 0.401454 0.000701 -0.897894
v 0.371175 0.153951 -0.898008
v 0.283558 0.283597 -0.897431
v 0.153805 0.370890 -0.898152
v 0.000191 0.401665 -0.897325
v -0.153206 0.370698 -0.898304
v -0.283939 0.283569 -0.897908
v -0.370765 0.153538 -0.898376
v -0.401577 -0.000622 -0.896723
v -0.371348 -0.153717 -0.897646
v -0.284004 -0.283177 -0.897677
v -0.153824 -0.371609 -0.897559
v 0.000322 -0.401391 -0.898129
v 0.153551 -0.370811 -0.897969
v 0.283929 -0.284353 -0.897486
v 0.371152 -0.153526 -0.897183
v 0.401473 -0.000104 -0.792116
v 0.371115 0.154245 -0.791946
v 0.284104 0.284287 -0.792050
v 0.153522 0.370271 -0.792183
v -0.000102 0.401621 -0.791351
v -0.153672 0.370998 -0.793093
v -0.283891 0.283848 -0.792100
v -0.370557 0.153228 -0.792413
v -0.401906 0.000362 -0.792671
v -0.370464 -0.153916 -0.792984
v -0.283574 -0.283742 -0.792153
v -0.153482 -0.370405 -0.792141
v 0.000423 -0.401779 -0.791748
v 0.153066 -0.370710 -0.791986
v 0.283644 -0.283478 -0.792204
v 0.370502 -0.153043 -0.792187
v 0.401488 -0.000311 -0.685971
v 0.371547 0.153475 -0.686581
v 0.283868 0.283830 -0.686192
v 0.153590 0.370905 -0.686179
v -0.000742 0.401402 -0.685989
v -0.153943 0.371409 -0.686776
v -0.284428 0.284294 -0.686846
v -0.371186 0.153355 -0.687217
v -0.401493 0.000300 -0.686109
v -0.370697 -0.153652 -0.686598
v -0.284078 -0.284297 -0.686468
v -0.154260 -0.370916 -0.687544
v -0.000249 -0.401250 -0.686037
v 0.153490 -0.370933 -0.686747
v 0.283779 -0.283939 -0.686126
v 0.371624 -0.153505 -0.686803
v 0.401506 0.000495 -0.580881
v 0.370868 0.154034 -0.580873
v 0.283945 0.284422 -0.580954
v 0.153459 0.370591 -0.581231
v 0.000548 0.401964 -0.581017
v -0.153887 0.370817 -0.582343
v -0.284195 0.283516 -0.581191
v -0.371281 0.153808 -0.581114
v -0.401284 0.000094 -0.580619
v -0.371054 -0.154603 -0.580070
v -0.284241 -0.283326 -0.580624
v -0.154115 -0.371047 -0.580383
v 0.000285 -0.401861 -0.580521
v 0.153596 -0.371040 -0.580553
v 0.283115 -0.284220 -0.580007
v 0.370947 -0.153419 -0.581151
v 0.401906 0.000046 -0.475362
v 0.370677 0.154160 -0.475028
v 0.284157 0.284227 -0.475863
v 0.153521 0.371523 -0.475526
v -0.000844 0.401180 -0.474557
v -0.153490 0.370518 -0.474880
v -0.284144 0.283660 -0.474792
v -0.370998 0.154971 -0.474754
v -0.401490 0.000496 -0.475810
v -0.370453 -0.153507 -0.475213
v -0.284541 -0.283397 -0.475623
v -0.153686 -0.370631 -0.475345
v -0.000079 -0.401352 -0.475189
v 0.153835 -0.371067 -0.475424
v 0.283337 -0.283475 -0.476009
v 0.371798 -0.153622 -0.475395
v 0.401479 0.000248 -0.369427
v 0.371218 0.153917 -0.369848
v 0.283826 0.284243 -0.369868
v 0.153560 0.370698 -0.369760
v 0.000330 0.401814 -0.369807
v -0.153925 0.371030 -0.369557
v -0.284476 0.284203 -0.369727
v -0.370941 0.153769 -0.369947
v -0.401919 -0.000324 -0.370029
v -0.371030 -0.153953 -0.369387
v -0.284097 -0.283916 -0.369548
v -0.153919 -0.370696 -0.370342
v 0.000400 -0.401108 -0.369970
v 0.153367 -0.371270 -0.369760
v 0.283973 -0.283611 -0.369540
v 0.371291 -0.154070 -0.369451
v 0.401919 0.000128 -0.264023
v 0.371246 0.154009 -0.263956
v 0.283870 0.284169 -0.263672
v 0.153590 0.371598 -0.263299
v 0.000286 0.401676 -0.263983
v -0.154269 0.370681 -0.263795
v -0.283960 0.284366 -0.263852
v -0.370907 0.153554 -0.263530
v -0.401797 -0.000610 -0.263816
v -0.371181 -0.153957 -0.263699
v -0.284057 -0.283973 -0.263898
v -0.153375 -0.371031 -0.264057
v -0.000577 -0.401972 -0.264715
v 0.153987 -0.371369 -0.263932
v 0.283097 -0.283646 -0.263525
v 0.371260 -0.152837 -0.263650
v 0.401893 -0.000060 -0.158344
v 0.370275 0.153304 -0.157979
v 0.284325 0.283772 -0.157683
v 0.152954 0.370553 -0.158021
v 0.000681 0.401052 -0.158162
v -0.154174 0.371656 -0.157970
v -0.283970 0.283949 -0.158029
v -0.371269 0.154107 -0.158151
v -0.401639 -0.000205 -0.158491
v -0.370574 -0.153072 -0.158716
v -0.284100 -0.283670 -0.158825
v -0.153728 -0.371491 -0.158235
v -0.000820 -0.402289 -0.158109
v 0.153296 -0.371278 -0.158752
v 0.284351 -0.284240 -0.158629
v 0.371721 -0.153212 -0.157397
v 0.401698 -0.000285 -0.053154
v 0.370992 0.153034 -0.052008
v 0.284645 0.283990 -0.052710
v 0.153695 0.371844 -0.052522
v 0.000519 0.401325 -0.052703
v -0.153308 0.371226 -0.052136
v -0.283943 0.283588 -0.052165
v -0.371222 0.153893 -0.052242
v -0.401548 0.000412 -0.052337
v -0.370545 -0.154464 -0.052571
v -0.283689 -0.284053 -0.052512
v -0.153594 -0.371266 -0.052858
v 0.000211 -0.401362 -0.052448
v 0.154598 -0.370419 -0.053100
v 0.283313 -0.283869 -0.052786
v 0.370898 -0.154907 -0.053002
v 0.401642 0.000380 0.053733
v 0.370941 0.153983 0.053659
v 0.284225 0.284398 0.052423
v 0.153332 0.371025 0.052506
v -0.000031 0.401933 0.052488
v -0.153897 0.371434 0.053170
v -0.283619 0.284518 0.052726
v -0.371781 0.154238 0.052870
v -0.401332 0.000194 0.053329
v -0.370678 -0.153701 0.053424
v -0.284075 -0.283948 0.053189
v -0.153321 -0.370792 0.052794
v -0.000199 -0.401202 0.053054
v 0.153383 -0.370358 0.052878
v 0.284231 -0.284195 0.053397
v 0.371739 -0.153035 0.053075
v 0.401488 0.000360 0.158491
v 0.371682 0.153708 0.159226
v 0.284227 0.283949 0.159087
v 0.153835 0.370621 0.158974
v -0.000332 0.402040 0.158534
v -0.154256 0.372005 0.159062
v -0.284197 0.284048 0.158597
v -0.370781 0.153648 0.158807
v -0.402055 -0.000101 0.158611
v -0.370858 -0.153488 0.158917
v -0.284125 -0.283800 0.158630
v -0.154508 -0.371368 0.158874
v -0.000478 -0.401429 0.159555
v 0.154083 -0.370278 0.158885
v 0.283960 -0.284634 0.158615
v 0.371109 -0.154012 0.159624
v 0.401497 -0.000307 0.264984
v 0.370567 0.153548 0.264561
v 0.283716 0.283065 0.264323
v 0.153584 0.371204 0.264734
v -0.000330 0.401931 0.264367
v -0.153492 0.370831 0.264263
v -0.284380 0.284171 0.264503
v -0.370632 0.153859 0.264246
v -0.401892 0.000367 0.264050
v -0.371561 -0.153847 0.263650
v -0.283660 -0.283473 0.265103
v -0.154277 -0.371282 0.264418
v -0.000111 -0.401143 0.263424
v 0.153631 -0.371065 0.264107
v 0.283776 -0.284057 0.264710
v 0.370834 -0.154431 0.263861
v 0.400957 0.000203 0.370440
v 0.371072 0.153660 0.369612
v 0.284641 0.283359 0.370110
v 0.153852 0.371424 0.370705
v -0.000327 0.401562 0.370559
v -0.153167 0.371155 0.369383
v -0.283864 0.284566 0.370144
v -0.370913 0.154755 0.370068
v -0.401499 -0.000277 0.369312
v -0.371470 -0.153575 0.370487
v -0.284991 -0.283991 0.370041
v -0.153673 -0.371100 0.370104
v 0.000228 -0.401373 0.370060
v 0.153898 -0.370738 0.370004
v 0.284069 -0.284566 0.371101
v 0.370588 -0.154178 0.370871
v 0.401727 0.000148 0.476257
v 0.371331 0.154124 0.475001
v 0.283596 0.283462 0.475411
v 0.154131 0.371230 0.475503
v 0.000486 0.401307 0.475793
v -0.153533 0.370739 0.475521
v -0.283824 0.283507 0.476127
v -0.371267 0.153446 0.475821
v -0.401721 0.000498 0.475330
v -0.370948 -0.153474 0.475281
v -0.283687 -0.283407 0.476317
v -0.153923 -0.370512 0.475000
v 0.000828 -0.402266 0.475614
v 0.153721 -0.370805 0.475539
v 0.283983 -0.284406 0.475652
v 0.370962 -0.153538 0.475720
v 0.401469 0.000680 0.581885
v 0.370726 0.153614 0.581422
v 0.283960 0.283829 0.581563
v 0.153992 0.370944 0.581738
v -0.000162 0.402268 0.580940
v -0.153870 0.370920 0.580958
v -0.284630 0.283564 0.582081
v -0.370513 0.153931 0.581338
v -0.401797 0.000289 0.581274
v -0.370721 -0.153439 0.581908
v -0.283600 -0.283430 0.581737
v -0.154101 -0.370644 0.580302
v -0.000196 -0.401664 0.581690
v 0.153404 -0.370793 0.581300
v 0.282949 -0.283929 0.580892
v 0.371301 -0.153668 0.580645
v 0.401840 -0.000721 0.686718
v 0.371245 0.153431 0.686613
v 0.283720 0.284592 0.687289
v 0.153781 0.371051 0.686753
v -0.000071 0.402122 0.686848
v -0.153925 0.370799 0.686570
v -0.284299 0.283785 0.687028
v -0.370361 0.153511 0.686917
v -0.401699 0.000508 0.687429
v -0.371440 -0.153666 0.686729
v -0.283979 -0.283979 0.686627
v -0.153477 -0.371060 0.687183
v 0.000173 -0.401468 0.686911
v 0.153873 -0.371521 0.687355
v 0.284042 -0.283793 0.686424
v 0.370943 -0.154093 0.687590
v 0.401485 -0.000354 0.792618
v 0.370598 0.153888 0.792090
v 0.283053 0.284112 0.792828
v 0.153104 0.370393 0.792858
v 0.000167 0.401703 0.793185
v -0.153317 0.371421 0.792956
v -0.283954 0.283875 0.792034
v -0.370625 0.153291 0.792736
v -0.401571 -0.000268 0.793097
v -0.371174 -0.153748 0.792455
v -0.284083 -0.284944 0.792904
v -0.153471 -0.370774 0.792871
v 0.000254 -0.402064 0.792086
v 0.153909 -0.370691 0.792463
v 0.284187 -0.284219 0.792570
v 0.371624 -0.154298 0.791937
v 0.401835 0.000154 0.898188
v 0.370889 0.153420 0.897502
v 0.284038 0.284285 0.898850
v 0.153973 0.371035 0.897588
v 0.000206 0.401502 0.898308
v -0.154155 0.370017 0.898513
v -0.283773 0.283552 0.898030
v -0.371756 0.153450 0.898444
v -0.401826 -0.000441 0.897975
v -0.371223 -0.154106 0.897837
v -0.284517 -0.284226 0.898368
v -0.153741 -0.371501 0.898626
v -0.000147 -0.401434 0.898290
v 0.153174 -0.371098 0.898283
v 0.284509 -0.284264 0.898045
v 0.370161 -0.153560 0.898214
v 0.401492 -0.000627 1.003990
v 0.370911 0.153440 1.003878
v 0.284145 0.283890 1.003526
v 0.154091 0.370969 1.004231
v -0.000475 0.402197 1.004175
v -0.153832 0.370399 1.003978
v -0.283747 0.283219 1.004528
v -0.370147 0.153507 1.004152
v -0.401185 -0.000282 1.003855
v -0.370797 -0.153173 1.003606
v -0.284226 -0.283928 1.003218
v -0.153257 -0.370415 1.004227
v 0.000018 -0.401688 1.004048
v 0.153542 -0.370524 1.003378
v 0.284000 -0.284412 1.003816
v 0.370840 -0.153909 1.003774
f 1 2 18 17
f 2 3 19 18
f 3 4 20 19
f 4 5 21 20
f 5 6 22 21
f 6 7 23 22
f 7 8 24 23
f 8 9 25 24
f 9 10 26 25
f 10 11 27 26
f 11 12 28 27
f 12 13 29 28
f 13 14 30 29
f 14 15 31 30
f 15 16 32 31
f 16 1 17 32
f 17 18 34 33
f 18 19 35 34
f 19 20 36 35
f 20 21 37 36
f 21 22 38 37
f 22 23 39 38
f 23 24 40 39
f 24 25 41 40
f 25 26 42 41
f 26 27 43 42
f 27 28 44 43
f 28 29 45 44
f 29 30 46 45
f 30 31 47 46
f 31 32 48 47
f 32 17 33 48
f 33 34 50 49
f 34 35 51 50
f 35 36 52 51
f 36 37 53 52
f 37 38 54 53
f 38 39 55 54
f 39 40 56 55
f 40 41 57 56
f 41 42 58 57
f 42 43 59 58
f 43 44 60 59
f 44 45 61 60
f 45 46 62 61
f 46 47 63 62
f 47 48 64 63
f 48 33 49 64
f 49 50 66 65
f 50 51 67 66
f 51 52 68 67
f 52 53 69 68
f 53 54 70 69
f 54 55 71 70
f 55 56 72 71
f 56 57 73 72
f 57 58 74 73
f 58 59 75 74
f 59 60 76 75
f 60 61 77 76
f 61 62 78 77
f 62 63 79 78
f 63 64 80 79
f 64 49 65 80
f 65 66 82 81
f 66 67 83 82
f 67 68 84 83
f 68 69 85 84
f 69 70 86 85
f 70 71 87 86
f 71 72 88 87
f 72 73 89 88
f 73 74 90 89
f 74 75 91 90
f 75 76 92 91
f 76 77 93 92
f 77 78 94 93
f 78 79 95 94
f 79 80 96 95
f 80 65 81 96
f 81 82 98 97
f 82 83 99 98
f 83 84 100 99
f 84 85 101 100
f 85 86 102 101
f 86 87 103 102
f 87 88 104 103
f 88 89 105 104
f 89 90 106 105
f 90 91 107 106
f 91 92 108 107
f 92 93 109 108
f 93 94 110 109
f 94 95 111 110
f 95 96 112 111
f 96 81 97 112
f 97 98 114 113
f 98 99 115 114
f 99 100 116 115
f 100 101 117 116
f 101 102 118 117
f 102 103 119 118
f 103 104 120 119
f 104 105 121 120
f 105 106 122 121
f 106 107 123 122
f 107 108 124 123
f 108 109 125 124
f 109 110 126 125
f 110 111 127 126
f 111 112 128 127
f 112 97 113 128
f 113 114 130 129
f 114 115 131 130
f 115 116 132 131
f 116 117 133 132
f 117 118 134 133
f 118 119 135 134
f 119 120 136 135
f 120 121 137 136
f 121 122 138 137
f 122 123 139 138
f 123 124 140 139
f 124 125 141 140
f 125 126 142 141
f 126 127 143 142
f 127 128 144 143
f 128 113 129 144
f 129 130 146 145
f 130 131 147 146
f 131 132 148 147
f 132 133 149 148
f 133 134 150 149
f 134 135 151 150
f 135 136 152 151
f 136 137 153 152
f 137 138 154 153
f 138 139 155 154
f 139 140 156 155
f 140 141 157 156
f 141 142 158 157
f 142 143 159 158
f 143 144 160 159
f 144 129 145 160
f 145 146 162 161
f 146 147 163 162
f 147 148 164 163
f 148 149 165 164
f 149 150 166 165
f 150 151 167 166
f 151 152 168 167
f 152 153 169 168
f 153 154 170 169
f 154 155 171 170
f 155 156 172 171
f 156 157 173 172
f 157 158 174 173
f 158 159 175 174
f 159 160 176 175
f 160 145 161 176
f 161 162 178 177
f 162 163 179 178
f 163 164 180 179
f 164 165 181 180
f 165 166 182 181
f 166 167 183 182
f 167 168 184 183
f 168 169 185 184
f 169 170 186 185
f 170 171 187 186
f 171 172 188 187
f 172 173 189 188
f 173 174 190 189
f 174 175 191 190
f 175 176 192 191
f 176 161 177 192
f 177 178 194 193
f 178 179 195 194
f 179 180 196 195
f 180 181 197 196
f 181 182 198 197
f 182 183 199 198
f 183 184 200 199
f 184 185 201 200
f 185 186 202 201
f 186 187 203 202
f 187 188 204 203
f 188 189 205 204
f 189 190 206 205
f 190 191 207 206
f 191 192 208 207
f 192 177 193 208
f 193 194 210 209
f 194 195 211 210
f 195 196 212 211
f 196 197 213 212
f 197 198 214 213
f 198 199 215 214
f 199 200 216 215
f 200 201 217 216
f 201 202 218 217
f 202 203 219 218
f 203 204 220 219
f 204 205 221 220
f 205 206 222 221
f 206 207 223 222
f 207 208 224 223
f 208 193 209 224
f 209 210 226 225
f 210 211 227 226
f 211 212 228 227
f 212 213 229 228
f 213 214 230 229
f 214 215 231 230
f 215 216 232 231
f 216 217 233 232
f 217 218 234 233
f 218 219 235 234
f 219 220 236 235
f 220 221 237 236
f 221 222 238 237
f 222 223 239 238
f 223 224 240 239
f 224 209 225 240
f 225 226 242 241
f 226 227 243 242
f 227 228 244 243
f 228 229 245 244
f 229 230 246 245
f 230 231 247 246
f 231 232 248 247
f 232 233 249 248
f 233 234 250 249
f 234 235 251 250
f 235 236 252 251
f 236 237 253 252
f 237 238 254 253
f 238 239 255 254
f 239 240 256 255
f 240 225 241 256
f 241 242 258 257
f 242 243 259 258
f 243 244 260 259
f 244 245 261 260
f 245 246 262 261
f 246 247 263 262
f 247 248 264 263
f 248 249 265 264
f 249 250 266 265
f 250 251 267 266
f 251 252 268 267
f 252 253 269 268
f 253 254 270 269
f 254 255 271 270
f 255 256 272 271
f 256 241 257 272
f 257 258 274 273
f 258 259 275 274
f 259 260 276 275
f 260 261 277 276
f 261 262 278 277
f 262 263 279 278
f 263 264 280 279
f 264 265 281 280
f 265 266 282 281
f 266 267 283 282
f 267 268 284 283
f 268 269 285 284
f 269 270 286 285
f 270 271 287 286
f 271 272 288 287
f 272 257 273 288
f 273 274 290 289
f 274 275 291 290
f 275 276 292 291
f 276 277 293 292
f 277 278 294 293
f 278 279 295 294
f 279 280 296 295
f 280 281 297 296
f 281 282 298 297
f 282 283 299 298
f 283 284 300 299
f 284 285 301 300
f 285 286 302 301
f 286 287 303 302
f 287 288 304 303
f 288 273 289 304
f 289 290 306 305
f 290 291 307 306
f 291 292 308 307
f 292 293 309 308
f 293 294 310 309
f 294 295 311 310
f 295 296 312 311
f 296 297 313 312
f 297 298 314 313
f 298 299 315 314
f 299 300 316 315
f 300 301 317 316
f 301 302 318 317
f 302 303 319 318
f 303 304 320 319
f 304 289 305 320
