# Wavefront OBJ generated by MESH-FLOW-RETOPOLOGY
# Archetype: planar_hinge, Q%=100.0%, V4%=100.0%
# Vertices: 320, Quads: 304

v -1.003835 0.300853 -0.000258
v -1.004243 0.277981 0.115274
v -1.004266 0.212338 0.213013
v -1.003853 0.115181 0.278257
v -1.003734 0.000577 0.301668
v -1.003414 -0.114962 0.277946
v -1.003277 -0.212449 0.212244
v -1.003548 -0.278282 0.115748
v -1.003421 -0.301210 0.000458
v -1.003787 -0.278016 -0.115065
v -1.003399 -0.213747 -0.212821
v -1.003217 -0.115692 -0.277586
v -1.003721 0.000596 -0.300454
v -1.003716 0.114703 -0.278140
v -1.003592 0.212763 -0.212239
v -1.003352 0.278071 -0.115601
v -0.898128 0.301500 -0.000129
v -0.897838 0.278157 0.114938
v -0.898401 0.212272 0.213160
v -0.897869 0.114865 0.277683
v -0.897801 -0.000110 0.301422
v -0.897516 -0.115688 0.277532
v -0.897963 -0.213410 0.212683
v -0.897735 -0.278399 0.114569
v -0.897977 -0.301788 0.001042
v -0.898318 -0.278290 -0.115062
v -0.898028 -0.212220 -0.212739
v -0.898133 -0.115953 -0.277865
v -0.897670 0.000016 -0.301346
v -0.898122 0.115208 -0.278276
v -0.898030 0.212258 -0.212547
v -0.897861 0.278044 -0.114599
v -0.792463 0.300695 -0.000002
v -0.792252 0.278451 0.115348
v -0.792209 0.212962 0.212891
v -0.792506 0.114247 0.278002
v -0.792448 -0.000154 0.301745
v -0.792335 -0.115389 0.277092
v -0.792269 -0.213130 0.212840
v -0.791881 -0.278710 0.114882
v -0.792660 -0.300804 -0.000558
v -0.791788 -0.278489 -0.116052
v -0.791951 -0.212785 -0.212866
v -0.792145 -0.114748 -0.278099
v -0.791923 -0.000372 -0.300617
v -0.792961 0.115309 -0.277943
v -0.792669 0.213132 -0.212917
v -0.792865 0.278527 -0.115254
v -0.686802 0.300488 0.000492
v -0.686174 0.277680 0.115063
v -0.686798 0.212505 0.213097
v -0.686791 0.114881 0.278356
v -0.687441 -0.000372 0.301456
v -0.686960 -0.114977 0.277758
v -0.687159 -0.212684 0.212443
v -0.686863 -0.278582 0.114427
v -0.686601 -0.300866 0.000354
v -0.686375 -0.278225 -0.115317
v -0.686809 -0.213339 -0.212832
v -0.687277 -0.115260 -0.279153
v -0.686948 0.000157 -0.300556
v -0.686891 0.115086 -0.278355
v -0.686887 0.212672 -0.212490
v -0.686097 0.278065 -0.115522
v -0.581138 0.301294 -0.000069
v -0.581206 0.278239 0.115120
v -0.581076 0.213097 0.212684
v -0.581276 0.114566 0.277652
v -0.580505 0.000189 0.300777
v -0.581257 -0.115570 0.276539
v -0.581280 -0.213462 0.212447
v -0.581312 -0.278130 0.114879
v -0.580745 -0.301072 0.000193
v -0.581085 -0.279176 -0.114438
v -0.581325 -0.212369 -0.212639
v -0.581486 -0.115390 -0.277643
v -0.580768 -0.000454 -0.300692
v -0.581139 0.114979 -0.277812
v -0.581905 0.212391 -0.212021
v -0.581127 0.278151 -0.115520
v -0.475091 0.300844 -0.000201
v -0.475750 0.278365 0.115314
v -0.475218 0.212903 0.212124
v -0.475567 0.115499 0.277706
v -0.476250 -0.000594 0.301587
v -0.475214 -0.115869 0.278353
v -0.475583 -0.213319 0.213195
v -0.475383 -0.276966 0.115588
v -0.475306 -0.300670 -0.000649
v -0.474838 -0.278080 -0.115233
v -0.475979 -0.212439 -0.213289
v -0.475410 -0.114974 -0.278255
v -0.475485 0.000055 -0.301010
v -0.475253 0.114952 -0.278335
v -0.476037 0.213135 -0.213675
v -0.474630 0.277948 -0.115415
v -0.369872 0.301046 0.000083
v -0.369564 0.278122 0.114843
v -0.369902 0.212918 0.212469
v -0.369882 0.114674 0.277821
v -0.369430 0.000039 0.300685
v -0.370003 -0.115356 0.278025
v -0.370268 -0.212775 0.212609
v -0.369680 -0.278169 0.114744
v -0.370088 -0.301490 -0.000519
v -0.369768 -0.278527 -0.115058
v -0.369889 -0.212959 -0.212865
v -0.369997 -0.115039 -0.278904
v -0.369360 0.000299 -0.301443
v -0.370075 0.114749 -0.278321
v -0.369755 0.213000 -0.212857
v -0.369491 0.277500 -0.115122
v -0.263786 0.300926 -0.000164
v -0.263890 0.278215 0.115084
v -0.264211 0.212844 0.213014
v -0.264206 0.115573 0.278631
v -0.263828 -0.000099 0.300859
v -0.264700 -0.115706 0.278135
v -0.264106 -0.212612 0.212834
v -0.263999 -0.278384 0.115510
v -0.264320 -0.301776 0.000043
v -0.264273 -0.278530 -0.115021
v -0.264203 -0.213015 -0.212865
v -0.263806 -0.115375 -0.278269
v -0.264691 -0.000565 -0.301839
v -0.263809 0.114650 -0.278144
v -0.264984 0.212964 -0.212493
v -0.263875 0.278732 -0.114972
v -0.158166 0.300739 -0.000136
v -0.159213 0.277510 0.115410
v -0.158110 0.212447 0.213352
v -0.159195 0.114528 0.278258
v -0.157786 -0.000722 0.301028
v -0.158959 -0.114731 0.278310
v -0.158470 -0.213029 0.213006
v -0.158715 -0.277831 0.115238
v -0.158515 -0.301371 -0.000283
v -0.158020 -0.277645 -0.115689
v -0.158600 -0.212713 -0.213444
v -0.158513 -0.115834 -0.278098
v -0.159287 -0.000882 -0.300883
v -0.158854 0.114740 -0.278616
v -0.158084 0.212370 -0.213248
v -0.157768 0.278358 -0.114370
v -0.052714 0.300513 -0.000598
v -0.052851 0.277240 0.115730
v -0.052144 0.212665 0.212674
v -0.052808 0.115819 0.278107
v -0.052303 -0.000450 0.300837
v -0.052447 -0.115160 0.278493
v -0.052796 -0.213390 0.213219
v -0.053021 -0.278044 0.115496
v -0.052779 -0.300754 0.000220
v -0.052345 -0.279037 -0.115195
v -0.052543 -0.213096 -0.212782
v -0.052733 -0.115609 -0.278373
v -0.052610 0.000045 -0.300873
v -0.051906 0.115600 -0.278615
v -0.053475 0.212742 -0.213056
v -0.052945 0.276663 -0.115626
v 0.052876 0.301179 0.000639
v 0.052744 0.278188 0.115747
v 0.053082 0.213073 0.212156
v 0.052475 0.115000 0.277483
v 0.052794 0.000159 0.300377
v 0.052611 -0.114952 0.278147
v 0.053173 -0.212460 0.212458
v 0.052066 -0.277699 0.114957
v 0.053084 -0.300972 0.000236
v 0.053169 -0.278275 -0.114850
v 0.052718 -0.212991 -0.212732
v 0.053186 -0.115135 -0.278372
v 0.052626 0.000205 -0.301022
v 0.052526 0.115661 -0.278288
v 0.053089 0.212416 -0.212523
v 0.053543 0.278535 -0.115200
v 0.158368 0.301158 -0.000254
v 0.159132 0.277914 0.115663
v 0.158731 0.212624 0.213169
v 0.158624 0.114597 0.278301
v 0.158139 0.000265 0.300772
v 0.157898 -0.114382 0.278388
v 0.158242 -0.212930 0.212679
v 0.158712 -0.278290 0.115243
v 0.158007 -0.301267 -0.000134
v 0.158635 -0.278061 -0.115009
v 0.158315 -0.212843 -0.212942
v 0.157646 -0.115711 -0.277942
v 0.157994 -0.000022 -0.300172
v 0.158872 0.115741 -0.277932
v 0.158464 0.211976 -0.212957
v 0.158559 0.277558 -0.114302
v 0.264024 0.300492 0.000588
v 0.263663 0.277753 0.115346
v 0.263866 0.211740 0.212754
v 0.264019 0.115180 0.278409
v 0.263788 0.000157 0.300954
v 0.264308 -0.115555 0.277939
v 0.263705 -0.212808 0.212934
v 0.264507 -0.278079 0.115031
v 0.263817 -0.300799 -0.000346
v 0.263579 -0.278420 -0.115927
v 0.264425 -0.212515 -0.212119
v 0.263523 -0.115625 -0.278049
v 0.264007 0.000264 -0.301955
v 0.264066 0.114954 -0.278360
v 0.263927 0.212554 -0.212512
v 0.263930 0.277139 -0.115716
v 0.369131 0.301002 0.000394
v 0.369814 0.277865 0.114746
v 0.370437 0.212034 0.212889
v 0.369934 0.115400 0.278730
v 0.369437 -0.000213 0.301495
v 0.370279 -0.115231 0.277408
v 0.369867 -0.212413 0.212924
v 0.369872 -0.277183 0.115203
v 0.369856 -0.301443 -0.000735
v 0.369316 -0.278148 -0.114741
v 0.368741 -0.213034 -0.212832
v 0.369774 -0.115444 -0.278014
v 0.369992 0.000034 -0.300969
v 0.369980 0.115281 -0.278114
v 0.369865 0.212045 -0.211772
v 0.369330 0.277392 -0.114356
v 0.475547 0.300946 0.000560
v 0.475720 0.278329 0.114484
v 0.475038 0.212137 0.212540
v 0.475859 0.115206 0.277877
v 0.475896 -0.000467 0.301078
v 0.475559 -0.115648 0.277895
v 0.475554 -0.213472 0.213257
v 0.475165 -0.278491 0.115304
v 0.475281 -0.300669 -0.000368
v 0.475484 -0.278047 -0.115598
v 0.475690 -0.212450 -0.212208
v 0.475169 -0.114856 -0.278769
v 0.476238 -0.000859 -0.301066
v 0.475449 0.115214 -0.278230
v 0.475425 0.212204 -0.212872
v 0.475351 0.278032 -0.115158
v 0.580934 0.301479 0.000536
v 0.580761 0.277820 0.115254
v 0.581049 0.212505 0.213041
v 0.581366 0.114919 0.278461
v 0.580894 0.000493 0.300573
v 0.580869 -0.115467 0.277681
v 0.580395 -0.213414 0.213559
v 0.581565 -0.278007 0.115171
v 0.580851 -0.300878 -0.000074
v 0.581357 -0.278012 -0.114621
v 0.581424 -0.212473 -0.212439
v 0.580638 -0.114987 -0.279118
v 0.580861 -0.000257 -0.300641
v 0.580778 0.115226 -0.278120
v 0.580039 0.212681 -0.213284
v 0.581336 0.277902 -0.115885
v 0.686952 0.300078 -0.000281
v 0.686927 0.277636 0.114794
v 0.686456 0.213267 0.213116
v 0.686801 0.115027 0.277825
v 0.686632 0.000347 0.300831
v 0.686460 -0.115587 0.277642
v 0.686371 -0.213193 0.212855
v 0.687363 -0.278426 0.115098
v 0.686595 -0.300658 0.000430
v 0.686284 -0.278240 -0.115452
v 0.686692 -0.213022 -0.213200
v 0.686908 -0.115403 -0.277888
v 0.686876 -0.000061 -0.301071
v 0.686893 0.114498 -0.277716
v 0.686777 0.212818 -0.213402
v 0.686625 0.277477 -0.114590
v 0.792243 0.300445 -0.000033
v 0.791926 0.278093 0.114620
v 0.791435 0.212787 0.213004
v 0.791771 0.114369 0.278279
v 0.792516 -0.000072 0.301517
v 0.792714 -0.114965 0.278377
v 0.792363 -0.213104 0.212210
v 0.792746 -0.278647 0.115266
v 0.792369 -0.301435 0.000447
v 0.792197 -0.278321 -0.115377
v 0.792234 -0.213987 -0.212573
v 0.792560 -0.115117 -0.277850
v 0.792603 -0.000657 -0.301547
v 0.792576 0.115328 -0.278259
v 0.792569 0.212391 -0.212907
v 0.792952 0.277272 -0.115895
v 0.898239 0.300953 -0.000114
v 0.897863 0.277626 0.114381
v 0.898066 0.212960 0.213375
v 0.898286 0.115010 0.277358
v 0.898201 -0.000273 0.300989
v 0.897523 -0.116370 0.278283
v 0.898190 -0.213426 0.212555
v 0.897261 -0.278488 0.115324
v 0.897761 -0.301607 -0.000326
v 0.897794 -0.278680 -0.115646
v 0.897446 -0.213268 -0.212760
v 0.897937 -0.115845 -0.277747
v 0.897849 -0.000027 -0.300994
v 0.897487 0.114921 -0.278090
v 0.898536 0.212346 -0.213083
v 0.897136 0.278010 -0.115268
v 1.003543 0.300171 0.000038
v 1.003531 0.277646 0.115107
v 1.003819 0.212566 0.212400
v 1.004050 0.114944 0.278350
v 1.003167 0.000422 0.301205
v 1.003492 -0.115987 0.278098
v 1.003863 -0.213759 0.213403
v 1.004516 -0.278430 0.115381
v 1.004048 -0.301448 -0.000097
v 1.003866 -0.277746 -0.115528
v 1.003383 -0.212971 -0.213561
v 1.004067 -0.114758 -0.277796
v 1.003660 -0.000281 -0.300886
v 1.003502 0.115495 -0.278646
v 1.003675 0.212198 -0.212963
v 1.003460 0.277661 -0.115359

f 1 2 18 17
f 2 3 19 18
f 3 4 20 19
f 4 5 21 20
f 5 6 22 21
f 6 7 23 22
f 7 8 24 23
f 8 9 25 24
f 9 10 26 25
f 10 11 27 26
f 11 12 28 27
f 12 13 29 28
f 13 14 30 29
f 14 15 31 30
f 15 16 32 31
f 16 1 17 32
f 17 18 34 33
f 18 19 35 34
f 19 20 36 35
f 20 21 37 36
f 21 22 38 37
f 22 23 39 38
f 23 24 40 39
f 24 25 41 40
f 25 26 42 41
f 26 27 43 42
f 27 28 44 43
f 28 29 45 44
f 29 30 46 45
f 30 31 47 46
f 31 32 48 47
f 32 17 33 48
f 33 34 50 49
f 34 35 51 50
f 35 36 52 51
f 36 37 53 52
f 37 38 54 53
f 38 39 55 54
f 39 40 56 55
f 40 41 57 56
f 41 42 58 57
f 42 43 59 58
f 43 44 60 59
f 44 45 61 60
f 45 46 62 61
f 46 47 63 62
f 47 48 64 63
f 48 33 49 64
f 49 50 66 65
f 50 51 67 66
f 51 52 68 67
f 52 53 69 68
f 53 54 70 69
f 54 55 71 70
f 55 56 72 71
f 56 57 73 72
f 57 58 74 73
f 58 59 75 74
f 59 60 76 75
f 60 61 77 76
f 61 62 78 77
f 62 63 79 78
f 63 64 80 79
f 64 49 65 80
f 65 66 82 81
f 66 67 83 82
f 67 68 84 83
f 68 69 85 84
f 69 70 86 85
f 70 71 87 86
f 71 72 88 87
f 72 73 89 88
f 73 74 90 89
f 74 75 91 90
f 75 76 92 91
f 76 77 93 92
f 77 78 94 93
f 78 79 95 94
f 79 80 96 95
f 80 65 81 96
f 81 82 98 97
f 82 83 99 98
f 83 84 100 99
f 84 85 101 100
f 85 86 102 101
f 86 87 103 102
f 87 88 104 103
f 88 89 105 104
f 89 90 106 105
f 90 91 107 106
f 91 92 108 107
f 92 93 109 108
f 93 94 110 109
f 94 95 111 110
f 95 96 112 111
f 96 81 97 112
f 97 98 114 113
f 98 99 115 114
f 99 100 116 115
f 100 101 117 116
f 101 102 118 117
f 102 103 119 118
f 103 104 120 119
f 104 105 121 120
f 105 106 122 121
f 106 107 123 122
f 107 108 124 123
f 108 109 125 124
f 109 110 126 125
f 110 111 127 126
f 111 112 128 127
f 112 97 113 128
f 113 114 130 129
f 114 115 131 130
f 115 116 132 131
f 116 117 133 132
f 117 118 134 133
f 118 119 135 134
f 119 120 136 135
f 120 121 137 136
f 121 122 138 137
f 122 123 139 138
f 123 124 140 139
f 124 125 141 140
f 125 126 142 141
f 126 127 143 142
f 127 128 144 143
f 128 113 129 144
f 129 130 146 145
f 130 131 147 146
f 131 132 148 147
f 132 133 149 148
f 133 134 150 149
f 134 135 151 150
f 135 136 152 151
f 136 137 153 152
f 137 138 154 153
f 138 139 155 154
f 139 140 156 155
f 140 141 157 156
f 141 142 158 157
f 142 143 159 158
f 143 144 160 159
f 144 129 145 160
f 145 146 162 161
f 146 147 163 162
f 147 148 164 163
f 148 149 165 164
f 149 150 166 165
f 150 151 167 166
f 151 152 168 167
f 152 153 169 168
f 153 154 170 169
f 154 155 171 170
f 155 156 172 171
f 156 157 173 172
f 157 158 174 173
f 158 159 175 174
f 159 160 176 175
f 160 145 161 176
f 161 162 178 177
f 162 163 179 178
f 163 164 180 179
f 164 165 181 180
f 165 166 182 181
f 166 167 183 182
f 167 168 184 183
f 168 169 185 184
f 169 170 186 185
f 170 171 187 186
f 171 172 188 187
f 172 173 189 188
f 173 174 190 189
f 174 175 191 190
f 175 176 192 191
f 176 161 177 192
f 177 178 194 193
f 178 179 195 194
f 179 180 196 195
f 180 181 197 196
f 181 182 198 197
f 182 183 199 198
f 183 184 200 199
f 184 185 201 200
f 185 186 202 201
f 186 187 203 202
f 187 188 204 203
f 188 189 205 204
f 189 190 206 205
f 190 191 207 206
f 191 192 208 207
f 192 177 193 208
f 193 194 210 209
f 194 195 211 210
f 195 196 212 211
f 196 197 213 212
f 197 198 214 213
f 198 199 215 214
f 199 200 216 215
f 200 201 217 216
f 201 202 218 217
f 202 203 219 218
f 203 204 220 219
f 204 205 221 220
f 205 206 222 221
f 206 207 223 222
f 207 208 224 223
f 208 193 209 224
f 209 210 226 225
f 210 211 227 226
f 211 212 228 227
f 212 213 229 228
f 213 214 230 229
f 214 215 231 230
f 215 216 232 231
f 216 217 233 232
f 217 218 234 233
f 218 219 235 234
f 219 220 236 235
f 220 221 237 236
f 221 222 238 237
f 222 223 239 238
f 223 224 240 239
f 224 209 225 240
f 225 226 242 241
f 226 227 243 242
f 227 228 244 243
f 228 229 245 244
f 229 230 246 245
f 230 231 247 246
f 231 232 248 247
f 232 233 249 248
f 233 234 250 249
f 234 235 251 250
f 235 236 252 251
f 236 237 253 252
f 237 238 254 253
f 238 239 255 254
f 239 240 256 255
f 240 225 241 256
f 241 242 258 257
f 242 243 259 258
f 243 244 260 259
f 244 245 261 260
f 245 246 262 261
f 246 247 263 262
f 247 248 264 263
f 248 249 265 264
f 249 250 266 265
f 250 251 267 266
f 251 252 268 267
f 252 253 269 268
f 253 254 270 269
f 254 255 271 270
f 255 256 272 271
f 256 241 257 272
f 257 258 274 273
f 258 259 275 274
f 259 260 276 275
f 260 261 277 276
f 261 262 278 277
f 262 263 279 278
f 263 264 280 279
f 264 265 281 280
f 265 266 282 281
f 266 267 283 282
f 267 268 284 283
f 268 269 285 284
f 269 270 286 285
f 270 271 287 286
f 271 272 288 287
f 272 257 273 288
f 273 274 290 289
f 274 275 291 290
f 275 276 292 291
f 276 277 293 292
f 277 278 294 293
f 278 279 295 294
f 279 280 296 295
f 280 281 297 296
f 281 282 298 297
f 282 283 299 298
f 283 284 300 299
f 284 285 301 300
f 285 286 302 301
f 286 287 303 302
f 287 288 304 303
f 288 273 289 304
f 289 290 306 305
f 290 291 307 306
f 291 292 308 307
f 292 293 309 308
f 293 294 310 309
f 294 295 311 310
f 295 296 312 311
f 296 297 313 312
f 297 298 314 313
f 298 299 315 314
f 299 300 316 315
f 300 301 317 316
f 301 302 318 317
f 302 303 319 318
f 303 304 320 319
f 304 289 305 320
