# Benchmark: QuadriFlow (Real C++)
v 0.320593 0.227073 -0.886173
v 0.306399 0.225227 -1.088988
v 0.217502 0.335746 -0.912134
v 0.048589 0.395214 -0.915386
v -0.097757 0.115462 -1.078683
v -0.194332 0.347499 -0.917044
v -0.254582 0.034936 -1.062620
v -0.333291 0.221175 -0.930512
v -0.396239 0.038186 -0.942037
v -0.388330 -0.049390 -0.975127
v -0.397038 -0.030075 -0.931191
v -0.382928 -0.108979 -0.939945
v -0.375279 -0.120902 -1.014067
v -0.352371 -0.185217 -0.965672
v -0.368500 -0.176003 -1.102144
v -0.290132 -0.273961 -0.967064
v -0.168877 -0.361105 -0.982349
v -0.020874 -0.141635 -1.133734
v 0.028506 -0.397192 -0.975396
v 0.189075 -0.078761 -1.185222
v 0.272984 -0.292701 -0.996148
v 0.369718 -0.152672 -0.976538
v 0.392772 0.052333 -1.020667
v 0.396915 -0.031319 -0.946614
v 0.400000 0.014488 -0.809165
v 0.380649 0.138874 -0.850027
v 0.382433 0.110610 -0.803690
v 0.287077 0.278608 -0.795252
v 0.185108 0.352429 -0.793993
v -0.142256 0.374032 -0.798358
v -0.276758 0.288928 -0.805456
v -0.351765 0.186350 -0.812514
v -0.380739 0.116195 -0.947393
v -0.390420 0.087561 -0.813148
v -0.400000 -0.010630 -0.812460
v -0.382814 -0.109353 -0.818100
v -0.340630 -0.207183 -0.828939
v -0.261835 -0.300083 -0.834592
v -0.137464 -0.374287 -0.840930
v 0.031340 -0.396913 -0.841922
v 0.210135 -0.339051 -0.845233
v 0.391903 0.080105 -0.679573
v 0.346068 0.197009 -0.799710
v 0.352530 0.184919 -0.675673
v 0.284957 0.280729 -0.672970
v 0.179994 0.355163 -0.671989
v 0.035478 0.396506 -0.795372
v 0.042586 0.395806 -0.672832
v -0.109240 0.382849 -0.675254
v -0.240088 0.320654 -0.679221
v -0.330043 0.226037 -0.683147
v -0.380131 0.118198 -0.685274
v -0.400000 0.005693 -0.687095
v -0.383573 -0.106852 -0.691054
v -0.336869 -0.215821 -0.696780
v -0.250183 -0.309646 -0.701434
v -0.127780 -0.377224 -0.704855
v 0.022932 -0.397741 -0.706129
v 0.175741 -0.357436 -0.705760
v 0.294526 -0.271159 -0.700575
v 0.383070 -0.108511 -0.821192
v 0.367677 -0.157600 -0.692494
v 0.396611 -0.034409 -0.684839
v 0.394265 0.058223 -0.553783
v 0.358272 0.174176 -0.550745
v 0.288242 0.277443 -0.548660
v 0.182956 0.353579 -0.547851
v 0.052323 0.394847 -0.548408
v -0.088740 0.390185 -0.549994
v -0.215994 0.336754 -0.552414
v -0.312207 0.247063 -0.554967
v -0.375383 0.138997 -0.557095
v -0.398172 0.018565 -0.559285
v -0.384921 -0.102407 -0.562241
v -0.336079 -0.217003 -0.565695
v -0.247143 -0.312141 -0.568894
v -0.127329 -0.377361 -0.570927
v 0.013146 -0.400000 -0.571671
v 0.154790 -0.368841 -0.570795
v 0.272527 -0.293158 -0.567551
v 0.352051 -0.185816 -0.562758
v 0.394995 -0.064559 -0.557818
v 0.395750 0.043155 -0.426687
v 0.364289 0.165778 -0.424557
v 0.292991 0.272695 -0.423075
v 0.188029 0.350868 -0.422347
v 0.061308 0.395642 -0.422645
v -0.074334 0.393051 -0.423594
v -0.301119 0.260573 -0.426903
v -0.369786 0.152509 -0.428548
v -0.397174 0.028692 -0.430398
v -0.388437 -0.097525 -0.432621
v -0.337357 -0.215090 -0.434863
v -0.248023 -0.311419 -0.436903
v -0.130594 -0.376371 -0.438288
v 0.004415 -0.400000 -0.438526
v 0.140480 -0.374768 -0.437891
v 0.256387 -0.304555 -0.435768
v 0.342435 -0.203806 -0.432862
v 0.391252 -0.083375 -0.429583
v 0.396819 0.032296 -0.298826
v 0.367627 0.157721 -0.297412
v 0.296241 0.266517 -0.296428
v 0.068342 0.394242 -0.295924
v -0.064536 0.395000 -0.296570
v -0.294759 0.270926 -0.298625
v -0.365574 0.162678 -0.299797
v -0.389539 -0.091988 -0.302675
v -0.339397 -0.212038 -0.304234
v -0.250444 -0.309432 -0.305568
v -0.135644 -0.376771 -0.306489
v -0.003146 -0.400000 -0.306562
v 0.129818 -0.376606 -0.306165
v 0.246746 -0.312467 -0.304769
v 0.336764 -0.215978 -0.303030
v 0.388747 -0.095971 -0.300965
v 0.397590 0.024465 -0.170856
v 0.370317 0.151225 -0.169836
v 0.300016 0.261917 -0.169099
v 0.074861 0.392946 -0.168664
v -0.056769 0.394409 -0.169013
v -0.288875 0.276810 -0.170050
v -0.362580 0.169906 -0.170876
v -0.390571 -0.086799 -0.172707
v -0.341713 -0.208572 -0.173828
v -0.253404 -0.307002 -0.174648
v -0.139690 -0.375095 -0.175228
v -0.008948 -0.400000 -0.175378
v 0.122735 -0.378755 -0.175128
v 0.240047 -0.317964 -0.174423
v 0.331503 -0.223852 -0.173214
v 0.384398 -0.104132 -0.172114
v 0.400000 0.018363 -0.042648
v 0.372453 0.146068 -0.041976
v 0.303154 0.258093 -0.041567
v 0.080557 0.391813 -0.041154
v -0.051055 0.394972 -0.041106
v -0.284232 0.281453 -0.041296
v -0.357996 0.174693 -0.041663
v -0.391594 -0.081657 -0.042640
v -0.342476 -0.203728 -0.043417
v -0.256501 -0.304461 -0.043966
v -0.143370 -0.373571 -0.044396
v -0.013467 -0.400000 -0.044593
v 0.117654 -0.380296 -0.044548
v 0.236229 -0.323233 -0.044272
v 0.327774 -0.229433 -0.043599
v 0.382467 -0.110497 -0.043111
v 0.400000 0.013415 0.085965
v 0.374214 0.141818 0.086149
v 0.305864 0.254791 0.086107
v 0.207595 0.342365 0.086083
v 0.084974 0.390934 0.086454
v -0.046914 0.395379 0.086857
v -0.280594 0.285091 0.087641
v -0.355512 0.179340 0.087842
v -0.392594 -0.076631 0.087579
v -0.344829 -0.199326 0.087076
v -0.146644 -0.372215 0.086203
v -0.016979 -0.400000 0.085949
v 0.113893 -0.381437 0.085802
v 0.232540 -0.325698 0.085791
v 0.325043 -0.233519 0.085893
v 0.380974 -0.115418 0.085916
v 0.400000 0.008895 0.214442
v 0.375805 0.137976 0.214191
v 0.308161 0.251992 0.213764
v 0.210010 0.340752 0.213687
v 0.087434 0.390445 0.214032
v -0.044527 0.395615 0.214720
v -0.277323 0.288362 0.216659
v -0.353162 0.183737 0.217462
v -0.393670 -0.071220 0.217954
v -0.346994 -0.195276 0.217547
v -0.149201 -0.371156 0.216663
v -0.019472 -0.400000 0.216384
v 0.111207 -0.382252 0.216016
v 0.229762 -0.327554 0.215741
v 0.322863 -0.236782 0.215464
v 0.379673 -0.119707 0.214917
v 0.400000 0.003499 0.342697
v 0.375673 0.132895 0.341794
v 0.310212 0.249493 0.341070
v 0.211263 0.339914 0.340869
v 0.087979 0.390336 0.341266
v -0.043659 0.395700 0.342249
v -0.274195 0.291490 0.345794
v -0.350291 0.189108 0.347354
v -0.394921 -0.064931 0.348694
v -0.349261 -0.191034 0.348087
v -0.150881 -0.370460 0.346994
v -0.020691 -0.397962 0.346603
v 0.109567 -0.382749 0.346135
v 0.227584 -0.329009 0.345694
v 0.319258 -0.238471 0.344998
v 0.378307 -0.124210 0.343846
v 0.400000 -0.004190 0.470705
v 0.377699 0.126215 0.468912
v 0.312517 0.246685 0.467852
v 0.210863 0.340182 0.467455
v 0.085513 0.390827 0.467605
v -0.045319 0.395536 0.469097
v -0.270594 0.295091 0.475249
v -0.346226 0.196713 0.477831
v -0.394540 -0.055442 0.479486
v -0.351979 -0.185950 0.478633
v -0.150848 -0.370474 0.477235
v -0.020446 -0.397986 0.476593
v 0.109015 -0.382917 0.476227
v 0.226116 -0.329990 0.475900
v 0.316913 -0.241328 0.474683
v 0.376530 -0.130070 0.472771
v 0.400000 -0.017011 0.598439
v 0.381294 0.114365 0.595912
v 0.315887 0.242578 0.593971
v 0.207382 0.342508 0.592269
v 0.077349 0.392451 0.592293
v -0.051816 0.394897 0.594659
v -0.264290 0.298069 0.604574
v -0.341078 0.209522 0.609145
v -0.396002 -0.040595 0.611042
v -0.355313 -0.179712 0.609212
v -0.147355 -0.371920 0.606990
v -0.016244 -0.400000 0.606613
v 0.225817 -0.330190 0.606382
v 0.314476 -0.244297 0.605061
v 0.375328 -0.139128 0.601544
v 0.396189 -0.038692 0.725287
v 0.389849 0.090430 0.722632
v 0.324590 0.234198 0.719543
v 0.194300 0.347516 0.715048
v 0.055480 0.394536 0.714333
v -0.067814 0.394347 0.717693
v -0.256639 0.304347 0.734349
v -0.328490 0.228361 0.742447
v -0.400000 -0.013639 0.744355
v -0.359577 -0.171735 0.739526
v -0.137230 -0.376114 0.735849
v -0.004229 -0.400000 0.736896
v 0.227353 -0.329163 0.737669
v 0.312506 -0.246698 0.737637
v 0.370142 -0.151649 0.729595
v 0.392576 -0.076719 0.849868
v 0.396771 0.032789 0.849170
v 0.339175 0.212369 0.846213
v 0.158481 0.367312 0.834657
v 0.007113 0.400000 0.831078
v -0.098787 0.386019 0.835915
v -0.246036 0.313050 0.865735
v -0.303064 0.258203 0.880063
v -0.395902 0.041613 0.880313
v -0.363703 -0.167195 0.867590
v -0.111633 -0.382123 0.862562
v 0.020069 -0.397640 0.867190
v 0.231069 -0.326681 0.870759
v 0.312088 -0.243314 0.857310
v 0.362078 -0.171116 0.853911
v 0.374079 -0.123592 0.937912
v 0.331878 -0.105307 1.029794
v 0.181518 0.035726 1.037270
v 0.012201 0.234408 1.018384
v -0.102910 0.348208 0.975891
v -0.168728 0.376304 0.916402
v -0.229343 0.325025 0.896070
v -0.252188 0.314729 0.931031
v -0.234569 0.118110 1.060811
v -0.183682 -0.076834 1.064668
v -0.082786 -0.364323 1.016288
v -0.013571 -0.254514 1.023123
v 0.237265 -0.327092 0.985730
v 0.356902 -0.241545 0.965263
v 0.346980 -0.176006 0.919958
v -0.288057 0.279391 1.030702
v -0.357099 0.176372 0.884558
v -0.378796 0.122600 0.745924
v -0.389129 0.094048 0.611421
v -0.392499 0.077105 0.479266
v -0.394498 0.067057 0.348327
v -0.395828 0.060373 0.217995
v -0.394606 0.054763 0.087927
v -0.395114 0.049605 -0.042015
v -0.395653 0.044138 -0.171684
v -0.396311 0.037458 -0.301139
v 0.144409 -0.369185 0.951813
v 0.127582 -0.377285 0.862140
v 0.117427 -0.380365 0.735900
v 0.111175 -0.382262 0.606280
v 0.099139 0.203075 -1.141681
v -0.188813 0.348671 0.888267
v -0.177561 0.356463 0.850030
v -0.171196 0.362045 0.725252
v -0.168138 0.363312 0.599243
v -0.167650 0.363514 0.471876
v -0.168783 0.363045 0.343915
v -0.170932 0.362155 0.215740
v -0.172999 0.358901 0.087359
v -0.177004 0.356761 -0.041112
v -0.182327 0.353915 -0.169404
v -0.189397 0.350136 -0.297441
v -0.199668 0.344647 -0.425165
v -0.385346 0.013202 -1.084923
v -0.223950 -0.273959 1.028099
v -0.256090 -0.304798 0.863541
v -0.264411 -0.297969 0.736641
v -0.266840 -0.295976 0.607648
v -0.266586 -0.296184 0.477748
v -0.264925 -0.297547 0.347475
v -0.262627 -0.299433 0.217070
v -0.259877 -0.301690 0.086596
v -0.211573 -0.187207 -1.190822
v 0.202799 0.342973 -0.041301
v 0.198187 0.345438 -0.168566
v 0.193141 0.348135 -0.295816
v 0.336132 0.214000 -0.842815
v 0.386445 0.075908 -0.898219
v -0.414822 -0.032434 -1.006358
v -0.388908 -0.094022 -0.976924
v 0.325818 -0.230477 -0.836189
v 0.379536 0.000974 -1.139960
v 0.426989 0.179784 -0.978044
v 0.066360 -0.401982 1.008750
v 0.168297 -0.292593 1.137342
f 2 3 1 320
f 4 3 2 288
f 3 29 28 1
f 47 29 3 4
f 5 6 4 288
f 30 47 4 6
f 7 8 6 5
f 33 8 7 301
f 8 31 30 6
f 32 31 8 33
f 10 11 9 316
f 9 33 301 316
f 12 11 10 317
f 11 35 34 9
f 36 35 11 12
f 13 14 12 317
f 15 16 14 13
f 14 37 36 12
f 17 16 15 310
f 16 38 37 14
f 39 38 16 17
f 18 19 17 310
f 20 21 19 18
f 19 40 39 17
f 22 21 20 319
f 21 41 40 19
f 318 41 21 22
f 23 24 22 319
f 22 24 61 318
f 25 61 24 315
f 26 27 25 315
f 42 63 25 27
f 25 63 62 61
f 43 27 26 314
f 28 45 44 43
f 46 45 28 29
f 28 43 314 1
f 30 49 48 47
f 31 50 49 30
f 51 50 31 32
f 34 32 33 9
f 34 52 51 32
f 35 53 52 34
f 54 53 35 36
f 37 55 54 36
f 38 56 55 37
f 57 56 38 39
f 40 58 57 39
f 41 59 58 40
f 60 59 41 318
f 43 44 42 27
f 44 65 64 42
f 45 66 65 44
f 67 66 45 46
f 47 48 46 29
f 48 68 67 46
f 49 69 68 48
f 50 70 69 49
f 71 70 50 51
f 52 72 71 51
f 53 73 72 52
f 74 73 53 54
f 55 75 74 54
f 56 76 75 55
f 77 76 56 57
f 58 78 77 57
f 59 79 78 58
f 80 79 59 60
f 61 62 60 318
f 62 81 80 60
f 64 82 63 42
f 63 82 81 62
f 65 84 83 64
f 66 85 84 65
f 86 85 66 67
f 68 87 86 67
f 69 88 87 68
f 300 88 69 70
f 89 300 70 71
f 72 90 89 71
f 73 91 90 72
f 92 91 73 74
f 75 93 92 74
f 76 94 93 75
f 95 94 76 77
f 78 96 95 77
f 79 97 96 78
f 98 97 79 80
f 81 99 98 80
f 83 100 82 64
f 82 100 99 81
f 84 102 101 83
f 85 103 102 84
f 313 103 85 86
f 104 313 86 87
f 88 105 104 87
f 299 105 88 300
f 90 107 106 89
f 283 107 90 91
f 108 283 91 92
f 93 109 108 92
f 94 110 109 93
f 111 110 94 95
f 96 112 111 95
f 97 113 112 96
f 114 113 97 98
f 99 115 114 98
f 101 116 100 83
f 100 116 115 99
f 102 118 117 101
f 103 119 118 102
f 312 119 103 313
f 105 121 120 104
f 298 121 105 299
f 106 299 300 89
f 107 123 122 106
f 282 123 107 283
f 109 125 124 108
f 110 126 125 109
f 127 126 110 111
f 112 128 127 111
f 113 129 128 112
f 130 129 113 114
f 115 131 130 114
f 117 132 116 101
f 116 132 131 115
f 118 134 133 117
f 119 135 134 118
f 311 135 119 312
f 120 312 313 104
f 121 137 136 120
f 297 137 121 298
f 122 298 299 106
f 123 139 138 122
f 281 139 123 282
f 124 282 283 108
f 125 141 140 124
f 126 142 141 125
f 143 142 126 127
f 128 144 143 127
f 129 145 144 128
f 146 145 129 130
f 131 147 146 130
f 133 148 132 117
f 132 148 147 131
f 134 150 149 133
f 135 151 150 134
f 152 151 135 311
f 136 153 152 311
f 136 311 312 120
f 137 154 153 136
f 296 154 137 297
f 138 297 298 122
f 139 156 155 138
f 280 156 139 281
f 140 281 282 124
f 141 158 157 140
f 309 158 141 142
f 159 309 142 143
f 144 160 159 143
f 145 161 160 144
f 162 161 145 146
f 147 163 162 146
f 149 164 148 133
f 148 164 163 147
f 150 166 165 149
f 151 167 166 150
f 168 167 151 152
f 153 169 168 152
f 154 170 169 153
f 295 170 154 296
f 155 296 297 138
f 156 172 171 155
f 279 172 156 280
f 157 280 281 140
f 158 174 173 157
f 308 174 158 309
f 160 176 175 159
f 161 177 176 160
f 178 177 161 162
f 163 179 178 162
f 165 180 164 149
f 164 180 179 163
f 166 182 181 165
f 167 183 182 166
f 184 183 167 168
f 169 185 184 168
f 170 186 185 169
f 294 186 170 295
f 171 295 296 155
f 172 188 187 171
f 278 188 172 279
f 173 279 280 157
f 174 190 189 173
f 307 190 174 308
f 175 308 309 159
f 176 192 191 175
f 177 193 192 176
f 194 193 177 178
f 179 195 194 178
f 181 196 180 165
f 180 196 195 179
f 182 198 197 181
f 183 199 198 182
f 200 199 183 184
f 185 201 200 184
f 186 202 201 185
f 293 202 186 294
f 187 294 295 171
f 188 204 203 187
f 277 204 188 278
f 189 278 279 173
f 190 206 205 189
f 306 206 190 307
f 191 307 308 175
f 192 208 207 191
f 193 209 208 192
f 210 209 193 194
f 195 211 210 194
f 197 212 196 181
f 196 212 211 195
f 198 214 213 197
f 199 215 214 198
f 216 215 199 200
f 201 217 216 200
f 202 218 217 201
f 292 218 202 293
f 203 293 294 187
f 204 220 219 203
f 276 220 204 277
f 205 277 278 189
f 206 222 221 205
f 305 222 206 306
f 207 306 307 191
f 208 224 223 207
f 287 224 208 209
f 225 287 209 210
f 211 226 225 210
f 213 227 212 197
f 212 227 226 211
f 214 229 228 213
f 215 230 229 214
f 231 230 215 216
f 217 232 231 216
f 218 233 232 217
f 291 233 218 292
f 219 292 293 203
f 220 235 234 219
f 275 235 220 276
f 221 276 277 205
f 222 237 236 221
f 304 237 222 305
f 223 305 306 207
f 224 239 238 223
f 286 239 224 287
f 226 241 240 225
f 228 242 227 213
f 227 242 241 226
f 229 244 243 228
f 230 245 244 229
f 246 245 230 231
f 232 247 246 231
f 233 248 247 232
f 290 248 233 291
f 234 291 292 219
f 235 250 249 234
f 274 250 235 275
f 236 275 276 221
f 237 252 251 236
f 303 252 237 304
f 238 304 305 223
f 239 254 253 238
f 285 254 239 286
f 240 286 287 225
f 241 256 255 240
f 243 257 242 228
f 242 257 256 241
f 244 259 258 243
f 245 260 259 244
f 261 260 245 246
f 247 262 261 246
f 248 263 262 247
f 289 263 248 290
f 249 290 291 234
f 250 265 264 249
f 273 265 250 274
f 251 274 275 236
f 252 267 266 251
f 302 267 252 303
f 253 303 304 238
f 254 321 268 253
f 284 321 254 285
f 255 285 286 240
f 256 271 270 255
f 258 272 257 243
f 257 272 271 256
f 264 289 290 249
f 266 273 274 251
f 268 302 303 253
f 270 284 285 255
f 1 26 315 320
f 320 23 319 2
f 2 319 20 288
f 288 20 18 5
f 5 18 310 7
f 7 310 15 301
f 301 15 13 316
f 316 13 317 10
f 23 320 315 24
f 259 271 272 258
f 322 321 284 270
f 269 267 302 268
f 267 260 261 266
f 266 261 262 273
f 273 262 263 265
f 265 263 289 264
f 260 269 322 259
f 321 322 269 268
f 322 270 271 259
