v -0.366559 -0.581932 -0.551504
v -0.370092 -0.837839 -0.230562
v -0.294636 -1.008180 0.114118
v -0.169121 -1.046547 0.249022
v -0.007115 -1.052410 0.286631
v 0.129010 -1.041267 0.255301
v 0.259775 -1.008874 0.164483
v 0.401673 -0.902348 -0.055974
v 0.505529 -0.572112 -0.485482
v 0.493934 -0.087889 -0.862622
v 0.422487 0.154193 -0.977775
v 0.279396 0.345364 -1.041273
v 0.109263 0.421630 -1.068646
v -0.122706 0.338140 -1.075004
v -0.245716 0.126659 -1.026306
v -0.314618 -0.146880 -0.899064
v -0.373887 -0.525540 -0.497874
v -0.376397 -0.764460 -0.189905
v -0.319582 -0.921388 0.093149
v -0.173013 -0.969894 0.270188
v -0.008461 -0.974994 0.307780
v 0.131029 -0.965333 0.277432
v 0.265929 -0.936810 0.188961
v 0.413039 -0.840069 -0.025591
v 0.513798 -0.540176 -0.453504
v 0.499583 -0.068976 -0.815377
v 0.398638 0.227242 -0.921354
v 0.278309 0.361838 -0.961044
v 0.102650 0.437073 -0.986979
v -0.132850 0.354629 -0.995752
v -0.255091 0.147529 -0.954203
v -0.324781 -0.109118 -0.822575
v -0.380440 -0.481155 -0.455892
v -0.382339 -0.707363 -0.156292
v -0.327616 -0.832676 0.129855
v -0.180148 -0.872752 0.305210
v -0.010556 -0.876805 0.343213
v 0.135725 -0.869171 0.313951
v 0.279077 -0.845950 0.227862
v 0.430210 -0.778655 0.008212
v 0.533093 -0.496133 -0.408949
v 0.514465 -0.039550 -0.751178
v 0.407189 0.250639 -0.845111
v 0.279794 0.382851 -0.880721
v 0.096266 0.457309 -0.905324
v -0.144373 0.375596 -0.916762
v -0.269141 0.180414 -0.863628
v -0.346830 -0.166817 -0.712127
v -0.389482 -0.424492 -0.402668
v -0.390697 -0.634062 -0.112999
v -0.336696 -0.742337 0.167883
v -0.186306 -0.795213 0.333809
v -0.012197 -0.798465 0.372291
v 0.140203 -0.792363 0.343767
v 0.291192 -0.773236 0.259273
v 0.417827 -0.741253 0.098379
v 0.559076 -0.451966 -0.363934
v 0.535276 -0.008010 -0.686791
v 0.418995 0.276272 -0.768121
v 0.283081 0.406524 -0.799786
v 0.088363 0.488116 -0.800798
v -0.160770 0.406823 -0.815763
v -0.303277 0.150009 -0.756099
v -0.358280 -0.122671 -0.641683
v -0.397544 -0.367481 -0.349712
v -0.397631 -0.556982 -0.074602
v -0.360356 -0.636872 0.148489
v -0.193363 -0.694144 0.365715
v -0.013984 -0.696489 0.404749
v 0.145556 -0.692098 0.377069
v 0.305447 -0.677703 0.294530
v 0.442795 -0.656592 0.140237
v 0.587248 -0.407691 -0.318834
v 0.541178 0.102272 -0.631418
v 0.434143 0.307243 -0.668228
v 0.287941 0.440959 -0.672820
v 0.080205 0.514488 -0.694918
v -0.206488 0.398794 -0.712669
v -0.316636 0.179129 -0.664443
v -0.368884 -0.083008 -0.567720
v -0.402918 -0.310024 -0.296980
v -0.401031 -0.474918 -0.044833
v -0.362834 -0.540704 0.165916
v -0.196372 -0.567603 0.382052
v -0.014998 -0.569137 0.420804
v 0.147110 -0.566249 0.394324
v 0.262472 -0.560158 0.342101
v 0.413709 -0.537989 0.221125
v 0.596980 -0.330714 -0.132949
v 0.548980 0.144454 -0.459128
v 0.430531 0.328942 -0.500221
v 0.281292 0.453379 -0.544212
v 0.069249 0.525752 -0.564890
v -0.220135 0.412029 -0.585972
v -0.326222 0.195060 -0.568402
v -0.376713 -0.051473 -0.488691
v -0.405190 -0.252171 -0.244390
v -0.400527 -0.389331 -0.022905
v -0.360292 -0.441821 0.169933
v -0.191685 -0.439155 0.369785
v -0.014815 -0.462910 0.411478
v 0.141188 -0.438278 0.382025
v 0.295985 -0.431450 0.308335
v 0.425026 -0.388754 0.181533
v 0.559435 -0.209435 -0.132176
v 0.507163 0.147511 -0.344692
v 0.396839 0.317498 -0.376451
v 0.259612 0.439414 -0.416060
v 0.056942 0.509092 -0.434616
v -0.225483 0.400088 -0.457348
v -0.331239 0.197993 -0.469575
v -0.381145 -0.027249 -0.405919
v -0.405729 -0.206556 -0.203141
v -0.397816 -0.303109 -0.004102
v -0.337171 -0.347638 0.207823
v -0.186884 -0.356500 0.355810
v -0.014175 -0.357082 0.391153
v 0.135497 -0.355928 0.367865
v 0.277649 -0.329256 0.294772
v 0.402262 -0.313643 0.181116
v 0.523966 -0.164675 -0.093110
v 0.486154 0.097364 -0.240344
v 0.370923 0.307394 -0.297494
v 0.236551 0.419449 -0.311704
v 0.046401 0.486094 -0.328047
v -0.197444 0.412997 -0.349597
v -0.333377 0.194732 -0.370583
v -0.383397 -0.005685 -0.322467
v -0.405979 -0.148372 -0.150718
v -0.395875 -0.236553 0.012034
v -0.331283 -0.248504 0.203086
v -0.180778 -0.252534 0.338817
v -0.013638 -0.252594 0.372011
v 0.128053 -0.252405 0.350708
v 0.264523 -0.250345 0.287303
v 0.409962 -0.233664 0.148684
v 0.492729 -0.119781 -0.053810
v 0.455641 0.106347 -0.172322
v 0.346495 0.299440 -0.219420
v 0.219608 0.406340 -0.230417
v 0.038271 0.470532 -0.244925
v -0.199301 0.400280 -0.267109
v -0.317071 0.240711 -0.275299
v -0.374950 0.066558 -0.274896
v -0.407223 -0.090122 -0.098440
v -0.394462 -0.153635 0.035493
v -0.328309 -0.172099 0.204521
v -0.177541 -0.171896 0.331719
v -0.013537 -0.171482 0.363498
v 0.123601 -0.172185 0.343697
v 0.254130 -0.172614 0.284643
v 0.386265 -0.144968 0.161625
v 0.468940 -0.074752 -0.013993
v 0.431834 0.118841 -0.105272
v 0.350564 0.259074 -0.119010
v 0.201088 0.395597 -0.127563
v 0.028239 0.456813 -0.139735
v -0.203201 0.389975 -0.163146
v -0.319838 0.240944 -0.198522
v -0.378033 0.085002 -0.189510
v -0.409853 -0.031788 -0.046359
v -0.296680 -0.035991 0.066200
v -0.263538 -0.038242 0.171281
v -0.175245 -0.070061 0.329758
v -0.013763 -0.068985 0.360102
v 0.119630 -0.070942 0.342067
v 0.245207 -0.074823 0.288007
v 0.350975 -0.039184 0.167575
v 0.429657 -0.002845 0.044682
v 0.371286 0.137466 -0.005662
v 0.252823 0.242383 -0.011054
v 0.137553 0.299488 -0.015890
v 0.017991 0.324429 -0.023908
v -0.143621 0.295085 -0.040881
v -0.237234 0.211059 -0.056276
v -0.290342 0.093613 -0.060844
v -0.330289 0.028135 0.010846
v -0.317487 0.008254 0.085573
v -0.269928 -0.005492 0.180087
v -0.169524 0.007553 0.313005
v -0.044651 0.011429 0.360342
v 0.103755 0.008098 0.341909
v 0.251582 -0.001724 0.264623
v 0.359555 0.008213 0.162255
v 0.410997 0.029215 0.074269
v 0.354943 0.150843 0.041307
v 0.247738 0.245717 0.022493
v 0.133996 0.300494 0.019083
v -0.016494 0.325357 0.008920
v -0.147992 0.296059 -0.006089
v -0.244278 0.215550 -0.023823
v -0.312085 0.111071 -0.018080
v -0.368348 0.073194 0.049570
v -0.351802 0.070254 0.112646
v -0.289908 0.094961 0.240556
v -0.181584 0.090220 0.341948
v -0.047248 0.095730 0.392865
v 0.133722 0.088791 0.360012
v 0.267682 0.092701 0.278203
v 0.344764 0.073290 0.191138
v 0.389974 0.073767 0.114961
v 0.353283 0.151979 0.103856
v 0.258376 0.238941 0.114396
v 0.124850 0.300832 0.115862
v -0.024365 0.321268 0.106815
v -0.137042 0.304840 0.093778
v -0.257352 0.244865 0.070649
v -0.347533 0.136041 0.039929
v -0.390496 0.131491 0.100097
v -0.371256 0.151359 0.146792
v -0.322535 0.187441 0.242167
v -0.219267 0.195494 0.363104
v -0.050141 0.182601 0.431754
v 0.135806 0.197808 0.406261
v 0.271731 0.171895 0.307006
v 0.366131 0.149540 0.207330
v 0.394494 0.131512 0.168356
v 0.354847 0.182198 0.185491
v 0.230618 0.265240 0.208889
v 0.121588 0.302968 0.211667
v -0.032060 0.318735 0.202869
v -0.149022 0.304831 0.188586
v -0.275297 0.255701 0.161281
v -0.359051 0.183681 0.123826
v -0.391649 0.190116 0.152006
v -0.370682 0.231539 0.177115
v -0.321108 0.282491 0.258553
v -0.217170 0.343220 0.377030
v -0.050348 0.378746 0.446567
v 0.163594 0.340958 0.402315
v 0.269256 0.291168 0.329226
v 0.359952 0.228910 0.238299
v 0.386213 0.189639 0.220147
v 0.344596 0.210218 0.264633
v 0.220720 0.275496 0.299635
v 0.112506 0.307045 0.305436
v -0.039756 0.320091 0.297650
v -0.155655 0.308117 0.282476
v -0.280575 0.267115 0.251240
v -0.362833 0.210977 0.203563
v -0.370086 0.248428 0.206074
v -0.348577 0.305771 0.206611
v -0.300468 0.366613 0.261184
v -0.204816 0.414364 0.356782
v -0.047075 0.449924 0.410599
v 0.120802 0.435132 0.384803
v 0.248500 0.376088 0.322112
v 0.317698 0.319778 0.271994
v 0.353383 0.247499 0.269942
v 0.312386 0.237531 0.337462
v 0.202788 0.283440 0.368066
v 0.099191 0.311930 0.377628
v -0.045903 0.324357 0.371823
v -0.156310 0.313383 0.356142
v -0.274602 0.276730 0.321222
v -0.351770 0.232343 0.265112
v -0.349342 0.280760 0.262035
v -0.326572 0.360196 0.232602
v -0.264623 0.440741 0.279496
v -0.167606 0.484960 0.348917
v -0.044029 0.514380 0.377011
v 0.113830 0.481675 0.367518
v 0.227833 0.434998 0.317080
v 0.290736 0.374231 0.288909
v 0.321955 0.292620 0.308879
v 0.282218 0.261019 0.391409
v 0.196223 0.287635 0.444914
v 0.078028 0.319521 0.467530
v -0.053706 0.331667 0.465441
v -0.153853 0.321805 0.449138
v -0.259779 0.290290 0.408503
v -0.336107 0.259972 0.323910
v -0.330765 0.323219 0.307983
v -0.307888 0.413210 0.261338
v -0.248621 0.498351 0.284419
v -0.157231 0.545948 0.333658
v -0.042720 0.560507 0.363267
v 0.104195 0.541696 0.351515
v 0.189557 0.504962 0.326773
v 0.259990 0.440843 0.317084
v 0.286439 0.349844 0.359075
v 0.248108 0.294275 0.458350
v 0.168033 0.304140 0.524380
v 0.059146 0.328971 0.555759
v -0.061324 0.339918 0.557367
v -0.174730 0.327251 0.533209
v -0.263715 0.301526 0.479866
v -0.319698 0.288687 0.379592
v -0.315094 0.377625 0.365454
v -0.291844 0.480954 0.300068
v -0.234913 0.572946 0.300682
v -0.148639 0.624727 0.331824
v -0.041571 0.640650 0.353843
v 0.071896 0.626358 0.352251
v 0.173341 0.578827 0.337910
v 0.243456 0.494690 0.343033
v 0.267199 0.394912 0.399188
v 0.229191 0.322321 0.511596
v 0.151913 0.319645 0.586765
v 0.047646 0.337924 0.624155
v -0.067148 0.347177 0.628114
v -0.174725 0.336691 0.602602
v -0.258552 0.318271 0.543795
v -0.306251 0.327191 0.449012
v -0.306740 0.432297 0.422053
v -0.282780 0.549918 0.339446
v -0.227040 0.650970 0.322872
v -0.143928 0.707923 0.341888
v -0.041618 0.725480 0.359250
v 0.066209 0.709425 0.360865
v 0.161993 0.656881 0.357147
v 0.227383 0.564548 0.378071
v 0.248313 0.452440 0.450603
v 0.210252 0.359659 0.579301
v 0.135403 0.341744 0.665081
v 0.035323 0.351043 0.709195
v -0.074280 0.357603 0.715674
v -0.176507 0.350279 0.688434
v -0.255561 0.341720 0.623233
v -0.299651 0.367171 0.517373
v -0.301019 0.487280 0.478124
v -0.276278 0.618950 0.379408
v -0.221318 0.729741 0.347629
v -0.140648 0.792363 0.356559
v -0.042116 0.811758 0.370244
v 0.061188 0.793938 0.374513
v 0.152382 0.736052 0.379613
v 0.213852 0.634793 0.414334
v 0.232318 0.510103 0.502147
v 0.194016 0.398564 0.646310
v 0.121036 0.366274 0.741845
v 0.024279 0.366534 0.792067
v -0.081180 0.370207 0.800787
v -0.179124 0.366178 0.771842
v -0.254335 0.367487 0.700689
v -0.295467 0.408493 0.584586
v -0.295845 0.542628 0.533789
v -0.270400 0.687243 0.420282
v -0.216184 0.807370 0.374328
v -0.137814 0.875622 0.373758
v -0.042847 0.896885 0.383984
v 0.056179 0.877319 0.390777
v 0.143026 0.814145 0.404178
v 0.200795 0.704255 0.451770
v 0.216954 0.567829 0.553686
v 0.178473 0.439116 0.711954
v 0.107286 0.393209 0.816553
v 0.013677 0.384571 0.872584
v -0.087863 0.385326 0.883458
v -0.181758 0.384606 0.852846
v -0.253347 0.395589 0.776036
v -0.291715 0.451245 0.650486
f 1 2 18 17
f 2 3 19 18
f 3 4 20 19
f 4 5 21 20
f 5 6 22 21
f 6 7 23 22
f 7 8 24 23
f 8 9 25 24
f 9 10 26 25
f 10 11 27 26
f 11 12 28 27
f 12 13 29 28
f 13 14 30 29
f 14 15 31 30
f 15 16 32 31
f 16 1 17 32
f 17 18 34 33
f 18 19 35 34
f 19 20 36 35
f 20 21 37 36
f 21 22 38 37
f 22 23 39 38
f 23 24 40 39
f 24 25 41 40
f 25 26 42 41
f 26 27 43 42
f 27 28 44 43
f 28 29 45 44
f 29 30 46 45
f 30 31 47 46
f 31 32 48 47
f 32 17 33 48
f 33 34 50 49
f 34 35 51 50
f 35 36 52 51
f 36 37 53 52
f 37 38 54 53
f 38 39 55 54
f 39 40 56 55
f 40 41 57 56
f 41 42 58 57
f 42 43 59 58
f 43 44 60 59
f 44 45 61 60
f 45 46 62 61
f 46 47 63 62
f 47 48 64 63
f 48 33 49 64
f 49 50 66 65
f 50 51 67 66
f 51 52 68 67
f 52 53 69 68
f 53 54 70 69
f 54 55 71 70
f 55 56 72 71
f 56 57 73 72
f 57 58 74 73
f 58 59 75 74
f 59 60 76 75
f 60 61 77 76
f 61 62 78 77
f 62 63 79 78
f 63 64 80 79
f 64 49 65 80
f 65 66 82 81
f 66 67 83 82
f 67 68 84 83
f 68 69 85 84
f 69 70 86 85
f 70 71 87 86
f 71 72 88 87
f 72 73 89 88
f 73 74 90 89
f 74 75 91 90
f 75 76 92 91
f 76 77 93 92
f 77 78 94 93
f 78 79 95 94
f 79 80 96 95
f 80 65 81 96
f 81 82 98 97
f 82 83 99 98
f 83 84 100 99
f 84 85 101 100
f 85 86 102 101
f 86 87 103 102
f 87 88 104 103
f 88 89 105 104
f 89 90 106 105
f 90 91 107 106
f 91 92 108 107
f 92 93 109 108
f 93 94 110 109
f 94 95 111 110
f 95 96 112 111
f 96 81 97 112
f 97 98 114 113
f 98 99 115 114
f 99 100 116 115
f 100 101 117 116
f 101 102 118 117
f 102 103 119 118
f 103 104 120 119
f 104 105 121 120
f 105 106 122 121
f 106 107 123 122
f 107 108 124 123
f 108 109 125 124
f 109 110 126 125
f 110 111 127 126
f 111 112 128 127
f 112 97 113 128
f 113 114 130 129
f 114 115 131 130
f 115 116 132 131
f 116 117 133 132
f 117 118 134 133
f 118 119 135 134
f 119 120 136 135
f 120 121 137 136
f 121 122 138 137
f 122 123 139 138
f 123 124 140 139
f 124 125 141 140
f 125 126 142 141
f 126 127 143 142
f 127 128 144 143
f 128 113 129 144
f 129 130 146 145
f 130 131 147 146
f 131 132 148 147
f 132 133 149 148
f 133 134 150 149
f 134 135 151 150
f 135 136 152 151
f 136 137 153 152
f 137 138 154 153
f 138 139 155 154
f 139 140 156 155
f 140 141 157 156
f 141 142 158 157
f 142 143 159 158
f 143 144 160 159
f 144 129 145 160
f 145 146 162 161
f 146 147 163 162
f 147 148 164 163
f 148 149 165 164
f 149 150 166 165
f 150 151 167 166
f 151 152 168 167
f 152 153 169 168
f 153 154 170 169
f 154 155 171 170
f 155 156 172 171
f 156 157 173 172
f 157 158 174 173
f 158 159 175 174
f 159 160 176 175
f 160 145 161 176
f 161 162 178 177
f 162 163 179 178
f 163 164 180 179
f 164 165 181 180
f 165 166 182 181
f 166 167 183 182
f 167 168 184 183
f 168 169 185 184
f 169 170 186 185
f 170 171 187 186
f 171 172 188 187
f 172 173 189 188
f 173 174 190 189
f 174 175 191 190
f 175 176 192 191
f 176 161 177 192
f 177 178 194 193
f 178 179 195 194
f 179 180 196 195
f 180 181 197 196
f 181 182 198 197
f 182 183 199 198
f 183 184 200 199
f 184 185 201 200
f 185 186 202 201
f 186 187 203 202
f 187 188 204 203
f 188 189 205 204
f 189 190 206 205
f 190 191 207 206
f 191 192 208 207
f 192 177 193 208
f 193 194 210 209
f 194 195 211 210
f 195 196 212 211
f 196 197 213 212
f 197 198 214 213
f 198 199 215 214
f 199 200 216 215
f 200 201 217 216
f 201 202 218 217
f 202 203 219 218
f 203 204 220 219
f 204 205 221 220
f 205 206 222 221
f 206 207 223 222
f 207 208 224 223
f 208 193 209 224
f 209 210 226 225
f 210 211 227 226
f 211 212 228 227
f 212 213 229 228
f 213 214 230 229
f 214 215 231 230
f 215 216 232 231
f 216 217 233 232
f 217 218 234 233
f 218 219 235 234
f 219 220 236 235
f 220 221 237 236
f 221 222 238 237
f 222 223 239 238
f 223 224 240 239
f 224 209 225 240
f 225 226 242 241
f 226 227 243 242
f 227 228 244 243
f 228 229 245 244
f 229 230 246 245
f 230 231 247 246
f 231 232 248 247
f 232 233 249 248
f 233 234 250 249
f 234 235 251 250
f 235 236 252 251
f 236 237 253 252
f 237 238 254 253
f 238 239 255 254
f 239 240 256 255
f 240 225 241 256
f 241 242 258 257
f 242 243 259 258
f 243 244 260 259
f 244 245 261 260
f 245 246 262 261
f 246 247 263 262
f 247 248 264 263
f 248 249 265 264
f 249 250 266 265
f 250 251 267 266
f 251 252 268 267
f 252 253 269 268
f 253 254 270 269
f 254 255 271 270
f 255 256 272 271
f 256 241 257 272
f 257 258 274 273
f 258 259 275 274
f 259 260 276 275
f 260 261 277 276
f 261 262 278 277
f 262 263 279 278
f 263 264 280 279
f 264 265 281 280
f 265 266 282 281
f 266 267 283 282
f 267 268 284 283
f 268 269 285 284
f 269 270 286 285
f 270 271 287 286
f 271 272 288 287
f 272 257 273 288
f 273 274 290 289
f 274 275 291 290
f 275 276 292 291
f 276 277 293 292
f 277 278 294 293
f 278 279 295 294
f 279 280 296 295
f 280 281 297 296
f 281 282 298 297
f 282 283 299 298
f 283 284 300 299
f 284 285 301 300
f 285 286 302 301
f 286 287 303 302
f 287 288 304 303
f 288 273 289 304
f 289 290 306 305
f 290 291 307 306
f 291 292 308 307
f 292 293 309 308
f 293 294 310 309
f 294 295 311 310
f 295 296 312 311
f 296 297 313 312
f 297 298 314 313
f 298 299 315 314
f 299 300 316 315
f 300 301 317 316
f 301 302 318 317
f 302 303 319 318
f 303 304 320 319
f 304 289 305 320
f 305 306 322 321
f 306 307 323 322
f 307 308 324 323
f 308 309 325 324
f 309 310 326 325
f 310 311 327 326
f 311 312 328 327
f 312 313 329 328
f 313 314 330 329
f 314 315 331 330
f 315 316 332 331
f 316 317 333 332
f 317 318 334 333
f 318 319 335 334
f 319 320 336 335
f 320 305 321 336
f 321 322 338 337
f 322 323 339 338
f 323 324 340 339
f 324 325 341 340
f 325 326 342 341
f 326 327 343 342
f 327 328 344 343
f 328 329 345 344
f 329 330 346 345
f 330 331 347 346
f 331 332 348 347
f 332 333 349 348
f 333 334 350 349
f 334 335 351 350
f 335 336 352 351
f 336 321 337 352
