v 0.457828 0.132073 -0.924177
v 0.203301 0.385978 -1.056033
v 0.358887 0.286237 -1.004709
v -0.241257 0.072300 -1.076029
v -0.242203 0.061693 -1.067938
v -0.161862 0.310304 -1.136344
v -0.140890 0.302075 -1.132746
v -0.333024 -0.269374 -0.889748
v -0.268435 0.090704 -1.058524
v -0.342284 -0.269364 -0.846574
v -0.108970 -1.123075 0.297967
v -0.107508 -1.119201 0.299428
v -0.187077 -1.136283 0.227543
v 0.104713 -1.097498 0.233176
v 0.107833 -1.089675 0.227008
v 0.196900 0.384256 -1.053974
v -0.360000 -0.662039 -0.564773
v -0.382426 -0.686597 -0.452449
v -0.336203 -0.990575 -0.164120
v -0.334835 -0.992453 -0.160144
v -0.381378 -0.793901 -0.463806
v -0.282754 -1.103382 0.098683
v -0.355625 -1.040316 -0.085245
v -0.266142 -1.128974 0.148173
v 0.340139 0.321976 -1.036984
v -0.026230 -1.129270 0.284735
v 0.243040 -1.028491 0.148087
v 0.117589 -1.095769 0.258281
v 0.362539 -0.937713 -0.023900
v 0.262147 -1.044074 0.176254
v 0.451163 -0.742136 -0.277436
v 0.390608 -0.947650 0.009788
v 0.511585 -0.451378 -0.566361
v 0.490495 -0.753910 -0.259925
v 0.517112 -0.125314 -0.803711
v 0.541136 -0.440150 -0.570956
v 0.531709 -0.102278 -0.790071
v 0.466246 0.161870 -0.886739
v 0.358434 0.338347 -0.917466
v 0.192097 0.431630 -1.048785
v 0.050427 0.438878 -1.080155
v -0.097618 0.403777 -1.101604
v -0.038508 0.439406 -1.062097
v -0.140890 0.302075 -1.132746
v -0.152883 0.363684 -1.030188
v -0.265677 0.171073 -0.972827
v 0.214164 0.449763 -0.926610
v -0.341305 -0.139773 -0.820441
v -0.385640 -0.528024 -0.497386
v -0.383474 -0.807895 -0.099844
v -0.376664 -0.942985 -0.059330
v -0.290028 -1.021207 0.167230
v -0.165650 -1.032205 0.274214
v 0.035896 0.491182 -0.926784
v -0.026303 -1.014573 0.311947
v 0.120148 -0.985277 0.292688
v 0.269898 -0.938399 0.214937
v 0.406692 -0.856160 0.063539
v 0.516480 -0.691497 -0.181842
v 0.571547 -0.079701 -0.683521
v 0.576658 -0.405238 -0.475681
v 0.506553 0.177542 -0.769161
v 0.397326 0.354134 -0.792493
v 0.254017 0.470189 -0.798381
v 0.086099 0.528280 -0.799575
v -0.088686 0.509708 -0.795899
v -0.133621 0.431793 -0.917135
v -0.259128 0.269613 -0.882614
v -0.340552 -0.001563 -0.782544
v -0.319428 -0.903278 0.157722
v -0.388174 -0.360771 -0.536472
v -0.402370 -0.654878 -0.173419
v -0.360249 -0.778661 0.133224
v -0.202026 -0.919679 0.297640
v -0.055424 -0.904541 0.351193
v 0.103724 -0.876538 0.344411
v 0.624977 -0.399511 -0.347136
v 0.263505 -0.837483 0.282709
v 0.416593 -0.773176 0.154188
v 0.545738 -0.646056 -0.064472
v 0.629177 -0.080291 -0.558876
v 0.562322 0.179918 -0.641328
v 0.448024 0.359321 -0.660230
v -0.254393 -0.803422 0.313978
v 0.302195 0.480526 -0.662684
v 0.134855 0.550816 -0.662743
v -0.046234 0.558245 -0.661539
v -0.243519 0.378521 -0.777905
v -0.217772 0.462701 -0.656741
v -0.338114 0.137888 -0.722302
v -0.389585 -0.192212 -0.554742
v -0.412865 -0.497362 -0.243655
v -0.394482 -0.645605 0.076330
v -0.314207 -0.678748 0.299099
v -0.172430 -0.668507 0.413214
v -0.106979 -0.791738 0.392186
v -0.003410 -0.645838 0.441393
v 0.059134 -0.766075 0.402612
v 0.231571 -0.731666 0.358526
v -0.329035 0.256637 -0.630362
v 0.398652 -0.680957 0.256614
v 0.549299 -0.592089 0.076721
v 0.651667 -0.404712 -0.185598
v 0.667372 -0.107527 -0.411740
v 0.598581 0.155467 -0.499690
v 0.480583 0.338215 -0.519514
v 0.335077 0.463058 -0.521860
v 0.171121 0.541454 -0.520823
v -0.007439 0.564494 -0.520841
v -0.185234 0.498276 -0.520670
v -0.312652 0.325244 -0.514727
v -0.387896 -0.038084 -0.534609
v -0.416268 -0.340038 -0.298770
v -0.412707 -0.510162 0.007916
v -0.354330 -0.550172 0.252547
v -0.227838 -0.539988 0.395871
v -0.062776 -0.518609 0.441980
v 0.171300 -0.616560 0.412473
v 0.107481 -0.493119 0.425503
v 0.269693 -0.462247 0.362855
v 0.343878 -0.575135 0.331908
v -0.382367 0.067775 -0.465748
v 0.499952 -0.509830 0.187966
v 0.645214 -0.149972 -0.258390
v 0.613516 -0.383074 -0.035475
v 0.588628 0.098068 -0.359754
v 0.481197 0.285840 -0.384482
v 0.344548 0.416926 -0.386815
v 0.189725 0.503302 -0.384641
v 0.019058 0.537518 -0.385899
v -0.154641 0.494154 -0.388020
v -0.291234 0.353225 -0.393458
v -0.371898 0.136126 -0.373936
v -0.414577 -0.202673 -0.310504
v -0.418525 -0.378028 -0.057547
v -0.410754 -0.099644 -0.277262
v -0.375069 -0.428097 0.187290
v -0.265457 -0.418271 0.347801
v -0.111175 -0.397235 0.411978
v 0.421452 -0.412968 0.245606
v 0.051155 -0.374574 0.409747
v 0.206852 -0.346298 0.361299
v 0.346642 -0.308477 0.270461
v -0.418423 -0.262227 -0.083159
v 0.456977 -0.257159 0.137834
v 0.584215 -0.172011 -0.129064
v 0.550839 0.037196 -0.236041
v 0.462211 0.222841 -0.262410
v -0.361696 0.178717 -0.273116
v -0.407091 -0.023960 -0.219144
v 0.537605 -0.326746 0.063270
v 0.340986 0.362553 -0.261321
v 0.196769 0.458061 -0.256198
v 0.035590 0.503573 -0.256496
v -0.130707 0.477821 -0.262850
v -0.272306 0.361781 -0.273669
v -0.417888 -0.166158 -0.077953
v -0.385172 -0.314108 0.130419
v -0.388713 -0.210861 0.107521
v -0.293214 -0.307628 0.293177
v -0.150394 -0.285998 0.374569
v 0.005599 -0.262276 0.387727
v 0.155458 -0.234726 0.354649
v 0.289609 -0.203855 0.284489
v 0.399461 -0.166005 0.179277
v 0.520548 -0.159482 -0.024786
v -0.306029 -0.202087 0.260348
v 0.469452 -0.107752 0.055385
v 0.481010 -0.004677 -0.030745
v 0.510823 0.000876 -0.127327
v 0.443016 0.172187 -0.150901
v 0.336299 0.316680 -0.140301
v 0.202879 0.422469 -0.129838
v 0.045779 0.480268 -0.130049
v -0.119685 0.466363 -0.139892
v -0.264506 0.364354 -0.157948
v -0.358592 0.201093 -0.169065
v -0.406920 0.030405 -0.146416
v -0.419275 -0.086551 -0.049132
v -0.391299 -0.118991 0.105931
v -0.308984 -0.103220 0.251917
v -0.177274 -0.179355 0.346668
v -0.031415 -0.154656 0.372708
v 0.115751 -0.126304 0.353504
v 0.247691 -0.098372 0.300373
v 0.433768 0.139057 -0.047592
v -0.185632 -0.075496 0.337190
v 0.358413 -0.069658 0.218069
v 0.430655 -0.036310 0.118269
v -0.222481 0.316995 -0.048467
v -0.307400 0.194754 -0.066458
v -0.349051 0.067207 -0.064156
v -0.351706 -0.014887 -0.009603
v -0.321625 -0.037768 0.094709
v 0.439253 0.020453 0.044795
v 0.398227 0.117348 0.033999
v 0.343811 0.281993 -0.018424
v 0.199489 0.354835 -0.011223
v 0.052109 0.394382 -0.017620
v -0.094454 0.386162 -0.030336
v -0.244222 -0.021176 0.205211
v -0.162062 0.014139 0.298661
v -0.048539 -0.046085 0.368388
v 0.083167 -0.022426 0.346669
v 0.203072 -0.002148 0.288880
v 0.311569 0.020296 0.228011
v -0.063263 0.058342 0.385306
v 0.376643 0.038092 0.150937
v 0.400509 0.068783 0.105056
v 0.376656 0.134146 0.110748
v 0.301563 0.211931 0.051016
v 0.182605 0.281242 0.066535
v 0.053090 0.316862 0.070783
v -0.076999 0.317649 0.067954
v -0.196419 0.280428 0.059108
v -0.292512 0.207566 0.042605
v -0.350661 0.118512 0.026521
v -0.365793 0.064625 0.045877
v -0.348553 0.067595 0.124535
v -0.300860 0.100286 0.239876
v -0.218551 0.140515 0.356126
v -0.096521 0.175678 0.439088
v 0.066980 0.086889 0.392660
v 0.193785 0.110525 0.351371
v 0.297797 0.125933 0.277372
v 0.048758 0.202675 0.455569
v 0.369980 0.126212 0.202642
v 0.388625 0.165258 0.191717
v 0.404101 0.129106 0.167970
v 0.303331 0.216826 0.141850
v 0.189267 0.280440 0.163682
v 0.060120 0.311452 0.172511
v -0.070238 0.313851 0.173127
v -0.195642 0.290470 0.166680
v -0.306446 0.237363 0.147355
v -0.378328 0.166890 0.114931
v -0.397399 0.136527 0.103397
v -0.378977 0.166767 0.153404
v -0.332042 0.220466 0.255798
v -0.253032 0.269842 0.373104
v -0.131294 0.307212 0.465074
v 0.020254 0.332136 0.483288
v 0.183829 0.228115 0.408164
v 0.155851 0.348598 0.426677
v 0.289261 0.239280 0.325813
v 0.359771 0.225096 0.249492
v 0.313857 0.230455 0.235739
v 0.196823 0.283448 0.261505
v 0.067337 0.309634 0.272000
v -0.062240 0.314049 0.275412
v -0.187752 0.298323 0.271436
v -0.300927 0.259366 0.254000
v 0.392135 0.200193 0.222919
v 0.375014 0.202109 0.262988
v -0.373834 0.210193 0.212184
v -0.392024 0.205064 0.171925
v -0.372093 0.257095 0.184001
v -0.325223 0.326053 0.253085
v -0.248734 0.383977 0.344638
v 0.256255 0.347829 0.341281
v -0.138619 0.424410 0.416435
v -0.006116 0.443259 0.432685
v 0.115346 0.447981 0.392379
v 0.211402 0.433714 0.331907
v 0.322182 0.317726 0.275668
v 0.277612 0.391612 0.293138
v 0.350226 0.271180 0.267413
v 0.299645 0.244147 0.320411
v 0.185972 0.288309 0.354463
v 0.064767 0.312418 0.370261
v -0.057740 0.319154 0.378013
v -0.176496 0.307354 0.375980
v -0.280166 0.275526 0.354294
v -0.341517 0.247621 0.301487
v -0.354058 0.269017 0.243459
v 0.332797 0.244561 0.322912
v -0.334608 0.335342 0.224900
v -0.290496 0.410826 0.256138
v -0.219469 0.472469 0.313453
v 0.180414 0.508347 0.325386
v 0.245907 0.454606 0.319321
v 0.303867 0.330376 0.313264
v -0.122023 0.512966 0.360766
v -0.011853 0.530334 0.372744
v 0.091890 0.531204 0.353637
v 0.264973 0.260831 0.392115
v 0.049582 0.319278 0.468214
v 0.160787 0.295040 0.439907
v -0.060288 0.327733 0.482629
v -0.168085 0.318229 0.481304
v 0.283787 0.286718 0.387848
v -0.257910 0.294571 0.451767
v -0.308557 0.288432 0.386300
v -0.297425 0.416478 0.274428
v -0.317986 0.333825 0.313582
v -0.256198 0.497602 0.279163
v -0.191813 0.560907 0.309347
v 0.227872 0.516463 0.360920
v 0.268940 0.377311 0.372352
v 0.243117 0.418607 0.444708
v -0.105801 0.601295 0.338981
v -0.009809 0.619543 0.350450
v 0.083592 0.618092 0.345980
v 0.167221 0.587409 0.340039
v 0.221278 0.285815 0.466423
v 0.241601 0.323982 0.466980
v 0.131950 0.308198 0.524382
v 0.032486 0.329106 0.564673
v -0.066757 0.338056 0.587891
v -0.161397 0.332736 0.589232
v -0.242212 0.320800 0.554826
v -0.289583 0.334478 0.474737
v -0.298074 0.401953 0.382508
v 0.218374 0.451119 0.531878
v 0.215617 0.573593 0.418010
v -0.276938 0.503642 0.324523
v -0.234311 0.596693 0.313104
v -0.172763 0.663389 0.327529
v -0.092428 0.704452 0.346935
v -0.005037 0.721902 0.357641
v 0.081245 0.715380 0.360650
v 0.160881 0.671878 0.370200
v 0.206107 0.358777 0.557649
v 0.183222 0.315736 0.550479
v 0.106153 0.326871 0.612443
v 0.017120 0.342194 0.659132
v -0.151400 0.351750 0.701131
v -0.070459 0.350805 0.690175
v -0.228033 0.351950 0.669041
v -0.279450 0.383464 0.566733
v -0.287241 0.473362 0.448314
v -0.263435 0.594719 0.372202
v -0.219405 0.699754 0.348654
v -0.156158 0.771228 0.352821
v -0.079707 0.812966 0.365755
v -0.003263 0.826522 0.375032
v 0.071030 0.818287 0.383640
v 0.147436 0.765807 0.406962
v 0.201010 0.629194 0.485062
v 0.201051 0.478849 0.599896
v 0.155377 0.347074 0.636793
v 0.171621 0.383551 0.650196
v 0.164741 0.362754 0.646561
v 0.010243 0.358358 0.749234
v 0.090484 0.348090 0.695472
v -0.066339 0.367147 0.787933
v -0.199077 0.385500 0.810666
v -0.271184 0.435413 0.661889
v 0.122540 0.597288 0.687078
v -0.278882 0.541802 0.509749
v -0.251357 0.686006 0.415519
v -0.203387 0.806507 0.385023
v -0.136408 0.878647 0.380172
v -0.061096 0.920081 0.389971
v -0.008209 0.892274 0.388068
v 0.036887 0.909527 0.400509
v 0.114968 0.890314 0.440530
v 0.109394 0.357402 0.714169
v 0.128919 0.406391 0.774743
v 0.062780 0.368688 0.778992
v -0.009256 0.374279 0.815845
v -0.123239 0.375391 0.820595
v -0.023693 0.389396 0.878072
v -0.105764 0.424927 0.997407
v -0.210423 0.599837 0.667538
v -0.266758 0.626282 0.543281
v -0.246891 0.741833 0.454198
v -0.198087 0.895985 0.434297
v -0.130442 0.945026 0.397886
v -0.043034 0.997856 0.405683
v -0.030579 0.774736 0.535980
v -0.019705 1.104221 0.448832
f 1 3 38 37
f 3 2 16 25
f 3 25 39 38
f 4 5 6 7
f 5 8 9 6
f 6 9 46 45
f 7 6 45 43
f 10 9 8 17
f 9 10 48 46
f 10 18 49 48
f 13 11 12 24
f 12 14 15 26
f 55 53 12 26
f 15 27 28 26
f 40 25 16 41
f 18 10 17 21
f 50 49 18 51
f 19 20 21 17
f 20 22 23 21
f 21 23 51 18
f 22 13 24 23
f 23 24 52 51
f 24 12 53 52
f 26 28 56 55
f 27 29 30 28
f 28 30 57 56
f 30 29 31 32
f 30 32 58 57
f 31 33 34 32
f 32 34 59 58
f 33 35 36 34
f 34 36 61 59
f 35 1 37 36
f 36 37 60 61
f 37 38 62 60
f 39 25 40 47
f 62 38 39 63
f 39 47 64 63
f 40 41 42 43
f 54 47 40 43
f 43 42 44 7
f 54 43 45 67
f 45 46 68 67
f 46 48 69 68
f 47 54 65 64
f 69 48 49 71
f 49 50 72 71
f 50 51 52 70
f 73 72 50 70
f 52 53 74 70
f 53 55 75 74
f 66 65 54 67
f 76 75 55 56
f 76 56 57 78
f 57 58 79 78
f 58 59 80 79
f 59 61 77 80
f 77 61 60 81
f 60 62 82 81
f 62 63 83 82
f 85 83 63 64
f 65 86 85 64
f 65 66 87 86
f 88 66 67 68
f 68 69 90 88
f 69 71 91 90
f 71 72 92 91
f 72 73 93 92
f 73 70 74 84
f 73 84 94 93
f 84 74 75 96
f 75 76 98 96
f 76 78 99 98
f 77 81 104 103
f 78 79 101 99
f 79 80 102 101
f 80 77 103 102
f 81 82 105 104
f 105 82 83 106
f 95 94 84 96
f 85 107 106 83
f 86 108 107 85
f 109 108 86 87
f 88 89 87 66
f 110 109 87 89
f 100 89 88 90
f 89 100 111 110
f 112 100 90 91
f 91 92 113 112
f 92 93 114 113
f 93 94 115 114
f 94 95 116 115
f 95 97 117 116
f 97 95 96 98
f 97 98 99 118
f 97 118 119 117
f 99 101 121 118
f 123 121 101 102
f 102 103 125 123
f 103 104 124 125
f 104 105 126 124
f 127 126 105 106
f 128 127 106 107
f 108 129 128 107
f 108 109 130 129
f 109 110 131 130
f 110 111 132 131
f 111 100 112 122
f 111 122 133 132
f 134 122 112 113
f 135 134 113 114
f 114 115 137 135
f 115 116 138 137
f 116 117 139 138
f 141 139 117 119
f 120 119 118 121
f 119 120 142 141
f 120 121 123 140
f 120 140 143 142
f 124 126 147 146
f 140 123 125 151
f 125 124 146 151
f 126 127 148 147
f 152 148 127 128
f 128 129 153 152
f 129 130 154 153
f 155 154 130 131
f 131 132 156 155
f 132 133 149 156
f 134 136 133 122
f 133 136 150 149
f 136 134 135 144
f 158 144 135 137
f 160 158 137 138
f 161 160 138 139
f 139 141 162 161
f 145 143 140 151
f 141 142 163 162
f 164 163 142 143
f 143 145 165 164
f 150 136 144 157
f 145 151 146 166
f 145 166 168 165
f 146 147 170 166
f 147 148 171 170
f 148 152 172 171
f 176 156 149 177
f 149 150 178 177
f 150 157 179 178
f 152 153 173 172
f 153 154 174 173
f 154 155 175 174
f 155 156 176 175
f 158 159 157 144
f 157 159 180 179
f 159 158 160 167
f 182 167 160 161
f 183 182 161 162
f 162 163 184 183
f 163 164 185 184
f 185 164 165 188
f 165 168 189 188
f 169 168 166 170
f 180 159 167 181
f 168 169 195 189
f 169 186 196 195
f 186 169 170 171
f 197 186 171 172
f 172 173 198 197
f 173 174 199 198
f 174 175 200 199
f 175 176 190 200
f 191 190 176 177
f 177 178 192 191
f 178 179 193 192
f 179 180 194 193
f 181 167 182 187
f 194 180 181 201
f 187 182 183 203
f 204 203 183 184
f 204 184 185 205
f 185 188 206 205
f 186 197 211 196
f 201 181 187 202
f 206 188 189 208
f 189 195 209 208
f 216 215 190 191
f 191 192 217 216
f 192 193 218 217
f 193 194 219 218
f 194 201 220 219
f 195 196 210 209
f 196 211 230 210
f 197 198 212 211
f 198 199 213 212
f 214 213 199 200
f 200 190 215 214
f 201 202 221 220
f 202 187 203 207
f 202 207 222 221
f 203 204 223 207
f 204 205 224 223
f 225 224 205 206
f 206 208 227 225
f 208 209 229 227
f 209 210 228 229
f 210 230 247 228
f 211 212 231 230
f 212 213 232 231
f 232 213 214 233
f 234 233 214 215
f 215 216 235 234
f 216 217 236 235
f 217 218 237 236
f 218 219 238 237
f 219 220 239 238
f 220 221 240 239
f 241 240 221 222
f 222 207 223 226
f 222 226 242 241
f 226 223 224 243
f 224 225 245 243
f 225 227 246 245
f 226 243 244 242
f 228 247 268 254
f 246 227 229 253
f 229 228 254 253
f 230 231 248 247
f 231 232 249 248
f 232 233 250 249
f 233 234 251 250
f 234 235 252 251
f 255 252 235 236
f 236 237 256 255
f 237 238 257 256
f 238 239 258 257
f 239 240 259 258
f 240 241 261 259
f 241 242 262 261
f 242 244 263 262
f 244 243 245 260
f 260 245 246 265
f 246 253 267 265
f 247 248 269 268
f 248 249 270 269
f 249 250 271 270
f 250 251 272 271
f 251 252 273 272
f 252 255 274 273
f 253 254 276 267
f 254 268 286 276
f 255 256 275 274
f 275 256 257 277
f 257 258 278 277
f 258 259 279 278
f 263 244 260 264
f 266 264 260 265
f 279 259 261 283
f 261 262 284 283
f 262 263 285 284
f 263 264 280 285
f 266 265 267 282
f 280 264 266 281
f 286 268 269 288
f 269 270 287 288
f 270 271 289 287
f 271 272 290 289
f 290 272 273 292
f 273 274 293 292
f 293 274 275 295
f 275 277 294 295
f 282 267 276 291
f 276 286 305 291
f 277 278 296 294
f 278 279 297 296
f 280 281 298 304
f 282 299 281 266
f 281 299 300 298
f 297 279 283 301
f 283 284 302 301
f 284 285 303 302
f 285 280 304 303
f 286 288 307 305
f 308 307 288 287
f 308 287 289 309
f 289 290 310 309
f 290 292 311 310
f 291 306 299 282
f 292 293 312 311
f 293 295 313 312
f 295 294 316 313
f 316 294 296 317
f 296 297 318 317
f 297 301 319 318
f 298 300 314 315
f 322 304 298 315
f 299 306 323 300
f 300 323 342 314
f 301 302 320 319
f 302 303 321 320
f 321 303 304 322
f 305 324 306 291
f 305 307 325 324
f 307 308 326 325
f 326 308 309 328
f 309 310 327 328
f 310 311 329 327
f 311 312 330 329
f 312 313 331 330
f 313 316 332 331
f 314 342 359 340
f 315 314 340 339
f 333 332 316 317
f 318 334 333 317
f 318 319 335 334
f 319 320 336 335
f 320 321 337 336
f 321 322 338 337
f 322 315 339 338
f 324 341 323 306
f 323 341 343 342
f 341 324 325 345
f 325 326 344 345
f 326 328 346 344
f 327 329 347 362
f 362 346 328 327
f 329 330 348 347
f 330 331 350 348
f 331 332 351 350
f 352 351 332 333
f 334 353 352 333
f 334 335 354 353
f 335 336 355 354
f 336 337 356 355
f 337 338 357 356
f 338 339 349 357
f 341 345 358 343
f 358 345 344 360
f 360 344 346 361
f 346 362 363 361
f 347 348 365 364
f 348 350 366 365
f 350 351 367 366
f 351 352 368 367
f 352 353 369 368
f 353 354 370 369
f 357 349 371 372
f 362 347 364 363
f 342 358 360 359
f 359 349 339 340
f 349 364 365 371
f 371 365 368 372
f 372 370 356 357
f 356 370 354 355
f 370 372 368 369
f 368 365 366 367
f 364 349 359 363
f 363 359 360 361
