v 0.465844 0.296351 -1.015926
v 0.205842 0.456684 -1.085113
v 0.363085 0.388654 -1.052750
v -0.230345 0.273685 -1.200916
v -0.230922 0.268180 -1.197054
v -0.157781 0.407683 -1.183054
v -0.136642 0.402396 -1.181371
v -0.305297 0.124895 -1.207101
v -0.258397 0.280889 -1.173419
v -0.314934 0.118982 -1.159606
v 0.019628 -0.405372 -1.173936
v 0.020824 -0.406049 -1.169420
v -0.061262 -0.367610 -1.212499
v 0.225758 -0.354261 -1.152275
v 0.227775 -0.350208 -1.145806
v 0.199457 0.455381 -1.083246
v -0.302178 -0.026278 -1.226587
v -0.321715 -0.057615 -1.147330
v -0.241182 -0.184618 -1.251707
v -0.239518 -0.186167 -1.251114
v -0.310794 -0.072220 -1.271687
v -0.166673 -0.301554 -1.229953
v -0.253191 -0.219124 -1.257678
v -0.145153 -0.327446 -1.236637
v 0.343744 0.412899 -1.078254
v 0.101614 -0.392926 -1.178533
v 0.352260 -0.298223 -1.102022
v 0.239915 -0.367969 -1.141830
v 0.455098 -0.208867 -1.083308
v 0.374227 -0.312794 -1.106578
v 0.518272 -0.094633 -1.045545
v 0.485295 -0.222528 -1.073972
v 0.551220 0.034727 -1.020013
v 0.558943 -0.100578 -1.043361
v 0.535760 0.171867 -1.017150
v 0.579883 0.038905 -1.014434
v 0.548955 0.179163 -0.987460
v 0.473034 0.309605 -0.964429
v 0.361239 0.418931 -0.949574
v 0.194001 0.489569 -1.070575
v 0.052299 0.495514 -1.101574
v -0.095271 0.469995 -1.128470
v -0.036714 0.495199 -1.082628
v -0.136642 0.402396 -1.181371
v -0.150208 0.439057 -1.060807
v -0.259014 0.316137 -1.049086
v 0.215536 0.499974 -0.942312
v -0.322398 0.159313 -1.036844
v -0.339614 -0.015371 -1.024189
v -0.303835 -0.190637 -1.011366
v -0.282506 -0.221222 -1.137043
v -0.177908 -0.332352 -1.116067
v -0.046611 -0.389508 -1.088284
v 0.036883 0.532285 -0.938078
v 0.092815 -0.405018 -1.051445
v 0.234444 -0.383187 -1.015522
v 0.374204 -0.326528 -0.978929
v 0.494764 -0.236718 -0.944511
v 0.580319 -0.114887 -0.912522
v 0.586531 0.175600 -0.855029
v 0.612172 0.029001 -0.882165
v 0.512051 0.310324 -0.832089
v 0.399371 0.424873 -0.815903
v 0.254886 0.512717 -0.808331
v 0.086606 0.560230 -0.805374
v -0.088129 0.544266 -0.802272
v -0.132190 0.485020 -0.933511
v -0.255509 0.369236 -0.924038
v -0.329173 0.212144 -0.912783
v -0.218752 -0.321009 -0.994594
v -0.356397 0.036126 -0.900186
v -0.339960 -0.141475 -0.887751
v -0.272569 -0.300214 -0.870346
v -0.091538 -0.401450 -0.966978
v 0.056554 -0.428574 -0.930486
v 0.211662 -0.413060 -0.891016
v 0.659749 0.000192 -0.745130
v 0.362644 -0.361206 -0.852014
v 0.501106 -0.273816 -0.813117
v 0.608046 -0.150593 -0.777636
v 0.642859 0.158698 -0.715477
v 0.566792 0.302362 -0.692486
v 0.449441 0.423167 -0.676456
v -0.153096 -0.410385 -0.845438
v 0.302661 0.517695 -0.668014
v 0.135032 0.576971 -0.664764
v -0.046105 0.583140 -0.663007
v -0.242062 0.439766 -0.794578
v -0.217361 0.501617 -0.661440
v -0.332487 0.277887 -0.786710
v -0.370249 0.096374 -0.776048
v -0.367468 -0.086402 -0.763256
v -0.322648 -0.258083 -0.745871
v -0.225089 -0.397603 -0.720924
v -0.076389 -0.473595 -0.686051
v -0.001872 -0.457282 -0.810841
v 0.091662 -0.483510 -0.646778
v 0.161599 -0.453281 -0.770169
v 0.326431 -0.408545 -0.727222
v -0.326816 0.345007 -0.655763
v 0.480626 -0.327238 -0.681633
v 0.611687 -0.207887 -0.637355
v 0.687656 -0.051574 -0.597521
v 0.680795 0.121523 -0.565381
v 0.602401 0.275142 -0.543409
v 0.481535 0.400946 -0.530412
v 0.335232 0.499377 -0.523632
v 0.171056 0.566120 -0.520083
v -0.007558 0.586207 -0.519481
v -0.185299 0.527899 -0.519922
v -0.312004 0.387174 -0.522145
v -0.377769 0.160225 -0.650521
v -0.386474 -0.026147 -0.639782
v -0.357715 -0.204948 -0.621499
v -0.280355 -0.359691 -0.594144
v -0.144458 -0.459090 -0.558471
v 0.021280 -0.484077 -0.520100
v 0.260174 -0.447642 -0.604753
v 0.186627 -0.457577 -0.480381
v 0.339760 -0.395604 -0.439110
v 0.421551 -0.374310 -0.557120
v -0.377477 0.207163 -0.521711
v 0.560530 -0.263711 -0.505386
v 0.659429 0.063752 -0.421089
v 0.650330 -0.111881 -0.456836
v 0.592314 0.222698 -0.401946
v 0.481783 0.353714 -0.391192
v 0.344377 0.456509 -0.384860
v 0.189394 0.529630 -0.380851
v 0.018695 0.559568 -0.381755
v -0.155040 0.520922 -0.383450
v -0.291446 0.402310 -0.391025
v -0.370077 0.237915 -0.394785
v -0.396723 0.027244 -0.514865
v -0.379850 -0.146464 -0.500207
v -0.400869 0.065135 -0.390399
v -0.317340 -0.305663 -0.473469
v -0.196884 -0.418105 -0.437076
v -0.040288 -0.458425 -0.399377
v 0.476907 -0.296345 -0.389108
v 0.118584 -0.443909 -0.362031
v 0.266461 -0.392088 -0.320970
v 0.394309 -0.309046 -0.275129
v -0.392649 -0.102803 -0.378173
v 0.489252 -0.197155 -0.231574
v 0.599190 0.003413 -0.300462
v 0.554473 0.160980 -0.277633
v 0.462280 0.295900 -0.263206
v -0.361924 0.254895 -0.270513
v -0.402696 0.090547 -0.269441
v 0.572627 -0.157267 -0.337587
v 0.340312 0.405690 -0.253612
v 0.196042 0.486286 -0.247867
v 0.034892 0.526170 -0.248510
v -0.131476 0.502982 -0.254053
v -0.273220 0.402733 -0.263215
v -0.401950 -0.072015 -0.260379
v -0.342635 -0.253579 -0.356445
v -0.358295 -0.221021 -0.240632
v -0.239259 -0.370145 -0.324382
v -0.092596 -0.425234 -0.286970
v 0.061170 -0.423658 -0.248317
v 0.204457 -0.383451 -0.206174
v 0.328645 -0.313628 -0.162300
v 0.425412 -0.214961 -0.117745
v 0.535151 -0.050122 -0.191929
v -0.264789 -0.336328 -0.211677
v 0.481023 -0.088172 -0.077055
v 0.482217 0.052778 -0.044560
v 0.513759 0.103888 -0.160926
v 0.442095 0.242009 -0.140359
v 0.334790 0.359353 -0.123027
v 0.201567 0.450060 -0.114813
v 0.044648 0.501490 -0.117102
v -0.120889 0.488725 -0.126108
v -0.266122 0.398132 -0.139458
v -0.360474 0.257855 -0.147523
v -0.406599 0.103098 -0.150097
v -0.410888 -0.054534 -0.145123
v -0.370667 -0.201465 -0.130219
v -0.278052 -0.319959 -0.102131
v -0.131603 -0.397784 -0.176074
v 0.013146 -0.407800 -0.137335
v 0.154757 -0.378118 -0.092942
v 0.278133 -0.319296 -0.048057
v 0.431177 0.192826 -0.017936
v -0.150499 -0.383398 -0.064944
v 0.377661 -0.232869 -0.002239
v 0.437590 -0.116891 0.038890
v -0.225211 0.347922 -0.017220
v -0.310952 0.235097 -0.025800
v -0.352047 0.101026 -0.029871
v -0.350033 -0.036150 -0.028753
v -0.311363 -0.162302 -0.022748
v 0.437542 0.015395 0.064384
v 0.393458 0.141939 0.088583
v 0.340991 0.317796 0.013847
v 0.197084 0.382595 0.016299
v 0.049990 0.418471 0.006639
v -0.096641 0.410910 -0.005304
v -0.226394 -0.261516 0.001164
v -0.139378 -0.338855 0.039027
v -0.014369 -0.398726 -0.022710
v 0.111949 -0.366787 0.017241
v 0.223275 -0.301260 0.057646
v 0.322480 -0.227531 0.103128
v -0.037114 -0.409008 0.086019
v 0.377382 -0.121362 0.142478
v 0.394523 -0.001887 0.173567
v 0.368926 0.119637 0.199224
v 0.296902 0.239106 0.104367
v 0.178561 0.305326 0.112820
v 0.049408 0.338682 0.112930
v -0.080761 0.338582 0.111005
v -0.200828 0.301091 0.109577
v -0.298215 0.224197 0.107883
v -0.357642 0.109533 0.106424
v -0.371248 -0.024203 0.108315
v -0.347858 -0.157198 0.116584
v -0.291599 -0.281447 0.133878
v -0.201704 -0.388334 0.163297
v -0.075622 -0.457215 0.199885
v 0.090057 -0.403356 0.128525
v 0.209284 -0.350394 0.173980
v 0.302704 -0.260337 0.221217
v 0.067559 -0.459678 0.240383
v 0.364856 -0.147675 0.261291
v 0.377264 0.104091 0.321746
v 0.393009 -0.022412 0.294922
v 0.296670 0.222583 0.218088
v 0.183785 0.290648 0.226423
v 0.055143 0.321715 0.229476
v -0.075311 0.322800 0.231193
v -0.201434 0.296142 0.232972
v -0.313941 0.232653 0.233139
v -0.388694 0.123012 0.233578
v -0.409240 -0.012059 0.238924
v -0.387465 -0.149905 0.250565
v -0.333220 -0.281658 0.269279
v -0.246320 -0.399101 0.296287
v -0.119503 -0.480249 0.330109
v 0.030281 -0.484256 0.368517
v 0.194153 -0.398916 0.289999
v 0.157088 -0.412403 0.412517
v 0.288065 -0.297509 0.339503
v 0.348321 -0.176737 0.380548
v 0.304931 0.210944 0.337896
v 0.189670 0.276796 0.343369
v 0.060865 0.305749 0.346070
v -0.068777 0.308839 0.350230
v -0.195099 0.287616 0.355537
v -0.310406 0.231932 0.362490
v 0.375357 -0.047371 0.414962
v 0.359324 0.081956 0.442565
v -0.387528 0.129742 0.368925
v -0.409872 0.000893 0.376208
v -0.389905 -0.129219 0.387865
v -0.338581 -0.251788 0.405971
v -0.256360 -0.356862 0.431932
v 0.246081 -0.302081 0.457728
v -0.142771 -0.424097 0.463951
v -0.011505 -0.428006 0.494362
v 0.103434 -0.369171 0.528724
v 0.190945 -0.274559 0.566053
v 0.302941 -0.179995 0.495891
v 0.250518 -0.162500 0.603254
v 0.327499 -0.055246 0.527542
v 0.288018 0.194096 0.453487
v 0.176860 0.261485 0.458761
v 0.056617 0.291766 0.463550
v -0.065863 0.297753 0.470988
v -0.185606 0.278017 0.480245
v -0.292128 0.220527 0.491212
v -0.359027 0.121173 0.501900
v -0.377464 0.005368 0.511359
v 0.312816 0.067635 0.551606
v -0.360568 -0.107694 0.522029
v -0.315063 -0.211570 0.537326
v -0.240982 -0.297309 0.559683
v 0.149363 -0.232958 0.680791
v 0.211291 -0.134915 0.715529
v 0.275669 -0.043976 0.636011
v -0.141846 -0.347570 0.587661
v -0.033097 -0.348446 0.615895
v 0.066135 -0.305758 0.648426
v 0.250260 0.174891 0.560519
v 0.039547 0.279127 0.583071
v 0.149333 0.243651 0.571011
v -0.070174 0.287824 0.595786
v -0.179265 0.266861 0.609263
v 0.260229 0.070034 0.657480
v -0.272871 0.205940 0.623007
v -0.330213 0.111483 0.634167
v -0.331036 -0.096993 0.659131
v -0.347034 0.005011 0.646057
v -0.290699 -0.184677 0.674048
v -0.225420 -0.253730 0.694008
v 0.186268 -0.109759 0.837113
v 0.236230 -0.021163 0.746746
v 0.206683 0.001806 0.861715
v -0.138997 -0.292719 0.718935
v -0.044486 -0.293765 0.747356
v 0.045740 -0.261119 0.779226
v 0.126170 -0.199219 0.809900
v 0.203556 0.164575 0.669267
v 0.215431 0.084711 0.766517
v 0.118018 0.229800 0.683843
v 0.020309 0.266357 0.704046
v -0.078759 0.275849 0.725252
v -0.174973 0.255463 0.744627
v -0.260269 0.196847 0.761495
v -0.315598 0.105413 0.772493
v -0.333056 0.002975 0.782907
v 0.179325 0.027282 0.978821
v 0.167717 -0.084637 0.966251
v -0.318266 -0.094491 0.797548
v -0.278275 -0.174676 0.816298
v -0.217181 -0.234287 0.835932
v -0.137255 -0.266545 0.860014
v -0.051331 -0.267063 0.887510
v 0.032569 -0.237078 0.917778
v 0.110539 -0.176670 0.946406
v 0.177716 0.100696 0.882604
v 0.162683 0.161872 0.785571
v 0.089617 0.219401 0.801712
v 0.002531 0.253552 0.826109
v -0.167671 0.244874 0.887366
v -0.084972 0.261874 0.856288
v -0.249039 0.194140 0.909467
v -0.309920 0.101969 0.915485
v -0.328441 -0.000813 0.919877
v -0.312603 -0.096158 0.934969
v -0.272615 -0.171304 0.957678
v -0.210778 -0.225712 0.977988
v -0.135395 -0.252278 1.003154
v -0.060352 -0.250041 1.028453
v 0.012133 -0.223791 1.057758
v 0.087955 -0.164805 1.087768
v 0.147421 -0.064081 1.098436
v 0.159850 0.040667 1.071469
v 0.131925 0.159509 0.905216
v 0.142223 0.120271 0.986675
v 0.138556 0.141146 0.946268
v -0.007187 0.238858 0.948731
v 0.071001 0.207447 0.918464
v -0.083737 0.247058 0.987068
v -0.222268 0.202438 1.076096
v -0.306327 0.099185 1.064123
v 0.070717 0.023749 1.280229
v -0.326035 -0.003766 1.049447
v -0.308271 -0.099923 1.066940
v -0.265962 -0.170386 1.101247
v -0.200823 -0.220971 1.117447
v -0.127392 -0.239116 1.148774
v -0.071671 -0.243383 1.114437
v -0.029768 -0.225733 1.163428
v 0.045045 -0.169726 1.240855
v 0.087637 0.190974 0.963188
v 0.099430 0.147961 1.112266
v 0.041747 0.210113 1.019727
v -0.029247 0.226563 1.044649
v -0.142293 0.237389 1.038683
v -0.045323 0.223125 1.125643
v -0.131560 0.211553 1.292661
v -0.262441 0.025612 1.262926
v -0.321141 -0.020909 1.165737
v -0.308941 -0.094652 1.164415
v -0.269797 -0.153210 1.255072
v -0.200991 -0.217142 1.205368
v -0.115604 -0.244217 1.236304
v -0.096461 -0.073794 1.290049
v -0.104534 -0.212542 1.419764
f 1 3 38 37
f 3 2 16 25
f 3 25 39 38
f 4 5 6 7
f 5 8 9 6
f 6 9 46 45
f 7 6 45 43
f 10 9 8 17
f 9 10 48 46
f 10 18 49 48
f 13 11 12 24
f 12 14 15 26
f 55 53 12 26
f 15 27 28 26
f 40 25 16 41
f 18 10 17 21
f 50 49 18 51
f 19 20 21 17
f 20 22 23 21
f 21 23 51 18
f 22 13 24 23
f 23 24 52 51
f 24 12 53 52
f 26 28 56 55
f 27 29 30 28
f 28 30 57 56
f 30 29 31 32
f 30 32 58 57
f 31 33 34 32
f 32 34 59 58
f 33 35 36 34
f 34 36 61 59
f 35 1 37 36
f 36 37 60 61
f 37 38 62 60
f 39 25 40 47
f 62 38 39 63
f 39 47 64 63
f 40 41 42 43
f 54 47 40 43
f 43 42 44 7
f 54 43 45 67
f 45 46 68 67
f 46 48 69 68
f 47 54 65 64
f 69 48 49 71
f 49 50 72 71
f 50 51 52 70
f 73 72 50 70
f 52 53 74 70
f 53 55 75 74
f 66 65 54 67
f 76 75 55 56
f 76 56 57 78
f 57 58 79 78
f 58 59 80 79
f 59 61 77 80
f 77 61 60 81
f 60 62 82 81
f 62 63 83 82
f 85 83 63 64
f 65 86 85 64
f 65 66 87 86
f 88 66 67 68
f 68 69 90 88
f 69 71 91 90
f 71 72 92 91
f 72 73 93 92
f 73 70 74 84
f 73 84 94 93
f 84 74 75 96
f 75 76 98 96
f 76 78 99 98
f 77 81 104 103
f 78 79 101 99
f 79 80 102 101
f 80 77 103 102
f 81 82 105 104
f 105 82 83 106
f 95 94 84 96
f 85 107 106 83
f 86 108 107 85
f 109 108 86 87
f 88 89 87 66
f 110 109 87 89
f 100 89 88 90
f 89 100 111 110
f 112 100 90 91
f 91 92 113 112
f 92 93 114 113
f 93 94 115 114
f 94 95 116 115
f 95 97 117 116
f 97 95 96 98
f 97 98 99 118
f 97 118 119 117
f 99 101 121 118
f 123 121 101 102
f 102 103 125 123
f 103 104 124 125
f 104 105 126 124
f 127 126 105 106
f 128 127 106 107
f 108 129 128 107
f 108 109 130 129
f 109 110 131 130
f 110 111 132 131
f 111 100 112 122
f 111 122 133 132
f 134 122 112 113
f 135 134 113 114
f 114 115 137 135
f 115 116 138 137
f 116 117 139 138
f 141 139 117 119
f 120 119 118 121
f 119 120 142 141
f 120 121 123 140
f 120 140 143 142
f 124 126 147 146
f 140 123 125 151
f 125 124 146 151
f 126 127 148 147
f 152 148 127 128
f 128 129 153 152
f 129 130 154 153
f 155 154 130 131
f 131 132 156 155
f 132 133 149 156
f 134 136 133 122
f 133 136 150 149
f 136 134 135 144
f 158 144 135 137
f 160 158 137 138
f 161 160 138 139
f 139 141 162 161
f 145 143 140 151
f 141 142 163 162
f 164 163 142 143
f 143 145 165 164
f 150 136 144 157
f 145 151 146 166
f 145 166 168 165
f 146 147 170 166
f 147 148 171 170
f 148 152 172 171
f 176 156 149 177
f 149 150 178 177
f 150 157 179 178
f 152 153 173 172
f 153 154 174 173
f 154 155 175 174
f 155 156 176 175
f 158 159 157 144
f 157 159 180 179
f 159 158 160 167
f 182 167 160 161
f 183 182 161 162
f 162 163 184 183
f 163 164 185 184
f 185 164 165 188
f 165 168 189 188
f 169 168 166 170
f 180 159 167 181
f 168 169 195 189
f 169 186 196 195
f 186 169 170 171
f 197 186 171 172
f 172 173 198 197
f 173 174 199 198
f 174 175 200 199
f 175 176 190 200
f 191 190 176 177
f 177 178 192 191
f 178 179 193 192
f 179 180 194 193
f 181 167 182 187
f 194 180 181 201
f 187 182 183 203
f 204 203 183 184
f 204 184 185 205
f 185 188 206 205
f 186 197 211 196
f 201 181 187 202
f 206 188 189 208
f 189 195 209 208
f 216 215 190 191
f 191 192 217 216
f 192 193 218 217
f 193 194 219 218
f 194 201 220 219
f 195 196 210 209
f 196 211 230 210
f 197 198 212 211
f 198 199 213 212
f 214 213 199 200
f 200 190 215 214
f 201 202 221 220
f 202 187 203 207
f 202 207 222 221
f 203 204 223 207
f 204 205 224 223
f 225 224 205 206
f 206 208 227 225
f 208 209 229 227
f 209 210 228 229
f 210 230 247 228
f 211 212 231 230
f 212 213 232 231
f 232 213 214 233
f 234 233 214 215
f 215 216 235 234
f 216 217 236 235
f 217 218 237 236
f 218 219 238 237
f 219 220 239 238
f 220 221 240 239
f 241 240 221 222
f 222 207 223 226
f 222 226 242 241
f 226 223 224 243
f 224 225 245 243
f 225 227 246 245
f 226 243 244 242
f 228 247 268 254
f 246 227 229 253
f 229 228 254 253
f 230 231 248 247
f 231 232 249 248
f 232 233 250 249
f 233 234 251 250
f 234 235 252 251
f 255 252 235 236
f 236 237 256 255
f 237 238 257 256
f 238 239 258 257
f 239 240 259 258
f 240 241 261 259
f 241 242 262 261
f 242 244 263 262
f 244 243 245 260
f 260 245 246 265
f 246 253 267 265
f 247 248 269 268
f 248 249 270 269
f 249 250 271 270
f 250 251 272 271
f 251 252 273 272
f 252 255 274 273
f 253 254 276 267
f 254 268 286 276
f 255 256 275 274
f 275 256 257 277
f 257 258 278 277
f 258 259 279 278
f 263 244 260 264
f 266 264 260 265
f 279 259 261 283
f 261 262 284 283
f 262 263 285 284
f 263 264 280 285
f 266 265 267 282
f 280 264 266 281
f 286 268 269 288
f 269 270 287 288
f 270 271 289 287
f 271 272 290 289
f 290 272 273 292
f 273 274 293 292
f 293 274 275 295
f 275 277 294 295
f 282 267 276 291
f 276 286 305 291
f 277 278 296 294
f 278 279 297 296
f 280 281 298 304
f 282 299 281 266
f 281 299 300 298
f 297 279 283 301
f 283 284 302 301
f 284 285 303 302
f 285 280 304 303
f 286 288 307 305
f 308 307 288 287
f 308 287 289 309
f 289 290 310 309
f 290 292 311 310
f 291 306 299 282
f 292 293 312 311
f 293 295 313 312
f 295 294 316 313
f 316 294 296 317
f 296 297 318 317
f 297 301 319 318
f 298 300 314 315
f 322 304 298 315
f 299 306 323 300
f 300 323 342 314
f 301 302 320 319
f 302 303 321 320
f 321 303 304 322
f 305 324 306 291
f 305 307 325 324
f 307 308 326 325
f 326 308 309 328
f 309 310 327 328
f 310 311 329 327
f 311 312 330 329
f 312 313 331 330
f 313 316 332 331
f 314 342 359 340
f 315 314 340 339
f 333 332 316 317
f 318 334 333 317
f 318 319 335 334
f 319 320 336 335
f 320 321 337 336
f 321 322 338 337
f 322 315 339 338
f 324 341 323 306
f 323 341 343 342
f 341 324 325 345
f 325 326 344 345
f 326 328 346 344
f 327 329 347 362
f 362 346 328 327
f 329 330 348 347
f 330 331 350 348
f 331 332 351 350
f 352 351 332 333
f 334 353 352 333
f 334 335 354 353
f 335 336 355 354
f 336 337 356 355
f 337 338 357 356
f 338 339 349 357
f 341 345 358 343
f 358 345 344 360
f 360 344 346 361
f 346 362 363 361
f 347 348 365 364
f 348 350 366 365
f 350 351 367 366
f 351 352 368 367
f 352 353 369 368
f 353 354 370 369
f 357 349 371 372
f 362 347 364 363
f 342 358 360 359
f 359 349 339 340
f 349 364 365 371
f 371 365 368 372
f 372 370 356 357
f 356 370 354 355
f 370 372 368 369
f 368 365 366 367
f 364 349 359 363
f 363 359 360 361
