v -0.315854 -0.013812 -1.131861
v -0.291480 -0.145321 -1.130333
v -0.186647 -0.303438 -1.121898
v -0.050357 -0.374887 -1.110318
v 0.113688 -0.389556 -1.096053
v 0.246055 -0.362823 -1.084366
v 0.367931 -0.304478 -1.073450
v 0.489595 -0.191354 -1.062303
v 0.555351 -0.009532 -1.055725
v 0.511063 0.192444 -1.058670
v 0.430125 0.311366 -1.065197
v 0.282565 0.428373 -1.077553
v 0.111327 0.482530 -1.092266
v -0.119412 0.423476 -1.112696
v -0.237218 0.296454 -1.123570
v -0.294514 0.166656 -1.129170
v -0.328085 -0.014453 -1.022113
v -0.303819 -0.150112 -1.020614
v -0.220777 -0.287546 -1.037749
v -0.059929 -0.384396 -1.024140
v 0.106642 -0.399527 -1.009656
v 0.242433 -0.372095 -0.997666
v 0.368616 -0.312248 -0.986368
v 0.495963 -0.196177 -0.974710
v 0.560842 -0.009802 -0.991950
v 0.515276 0.194850 -0.994994
v 0.403786 0.348551 -0.980269
v 0.280892 0.436594 -0.990603
v 0.104293 0.491680 -1.005780
v -0.130160 0.431541 -1.026540
v -0.247821 0.302178 -1.037412
v -0.307579 0.171428 -1.019470
v -0.338497 -0.014999 -0.935967
v -0.314348 -0.155187 -0.934499
v -0.235171 -0.300829 -0.928248
v -0.073574 -0.403081 -0.914598
v 0.098034 -0.419136 -0.899678
v 0.240658 -0.390308 -0.887085
v 0.375434 -0.327466 -0.875022
v 0.508388 -0.202928 -0.886597
v 0.576305 -0.010162 -0.903542
v 0.528061 0.200101 -0.906794
v 0.411329 0.358416 -0.892507
v 0.281776 0.448566 -0.903413
v 0.097483 0.504984 -0.919256
v -0.142300 0.443288 -0.940488
v -0.263525 0.313885 -0.927911
v -0.327418 0.134065 -0.934316
v -0.352463 -0.015731 -0.826371
v -0.328495 -0.162815 -0.824950
v -0.250487 -0.316575 -0.818839
v -0.084748 -0.419805 -0.828592
v 0.091385 -0.436689 -0.813281
v 0.240145 -0.406607 -0.800146
v 0.382638 -0.341075 -0.787397
v 0.496385 -0.241750 -0.800766
v 0.598446 -0.010511 -0.814551
v 0.546746 0.206990 -0.818072
v 0.422169 0.370521 -0.804446
v 0.284502 0.463238 -0.816049
v 0.089086 0.526928 -0.809070
v -0.159432 0.462680 -0.831077
v -0.297677 0.287996 -0.820194
v -0.342284 0.140173 -0.824768
v -0.365481 -0.016413 -0.716692
v -0.341653 -0.168892 -0.715308
v -0.285266 -0.297785 -0.710972
v -0.098586 -0.439357 -0.719071
v 0.082825 -0.457208 -0.703303
v 0.238744 -0.425664 -0.689537
v 0.390240 -0.356994 -0.675986
v 0.515188 -0.254064 -0.688360
v 0.622766 -0.010856 -0.725370
v 0.547776 0.256632 -0.706935
v 0.436249 0.386123 -0.692325
v 0.288656 0.485832 -0.681002
v 0.080553 0.546376 -0.698907
v -0.205470 0.452703 -0.724325
v -0.312601 0.297474 -0.710634
v -0.356006 0.144841 -0.715126
v -0.375851 -0.016957 -0.606781
v -0.352054 -0.170639 -0.605405
v -0.295822 -0.300629 -0.601088
v -0.111822 -0.447026 -0.585682
v 0.071545 -0.465236 -0.569745
v 0.230116 -0.433150 -0.555744
v 0.340058 -0.385969 -0.545922
v 0.479622 -0.292222 -0.533300
v 0.626589 -0.053588 -0.471844
v 0.552605 0.263656 -0.500616
v 0.431439 0.392759 -0.510612
v 0.281537 0.491893 -0.547016
v 0.069283 0.553157 -0.565280
v -0.219699 0.458278 -0.590962
v -0.323396 0.299199 -0.600750
v -0.366532 0.145492 -0.605223
v -0.383155 -0.017339 -0.496601
v -0.359263 -0.167376 -0.495201
v -0.302562 -0.294046 -0.490827
v -0.119910 -0.431509 -0.451737
v 0.061305 -0.453690 -0.459767
v 0.211498 -0.418052 -0.422721
v 0.358706 -0.350876 -0.409552
v 0.473674 -0.249660 -0.375282
v 0.577710 -0.012637 -0.341346
v 0.509362 0.251963 -0.369867
v 0.397071 0.376716 -0.379107
v 0.259470 0.476032 -0.414435
v 0.056703 0.535652 -0.431878
v -0.225517 0.443528 -0.456957
v -0.329411 0.291948 -0.490489
v -0.373360 0.141492 -0.495018
v -0.387661 -0.017576 -0.409938
v -0.364554 -0.161100 -0.384815
v -0.285934 -0.310610 -0.378630
v -0.123912 -0.415932 -0.364957
v 0.050560 -0.432511 -0.349789
v 0.197068 -0.402890 -0.336854
v 0.329717 -0.334020 -0.301188
v 0.443494 -0.240649 -0.290819
v 0.538349 -0.013083 -0.257729
v 0.487972 0.201648 -0.261147
v 0.370654 0.363492 -0.294417
v 0.236032 0.455246 -0.305759
v 0.045882 0.512680 -0.322109
v -0.197959 0.449798 -0.343701
v -0.332554 0.279302 -0.380002
v -0.377966 0.134698 -0.384632
v -0.392972 -0.017854 -0.299583
v -0.368778 -0.156277 -0.298103
v -0.290115 -0.296621 -0.268112
v -0.128942 -0.395817 -0.254485
v 0.039816 -0.411350 -0.239812
v 0.178575 -0.383311 -0.227560
v 0.308490 -0.322163 -0.215930
v 0.440761 -0.203539 -0.203830
v 0.503207 -0.013522 -0.173743
v 0.456042 0.194482 -0.176911
v 0.345637 0.351220 -0.209601
v 0.218722 0.440535 -0.220280
v 0.037479 0.496426 -0.235859
v -0.200192 0.435347 -0.256904
v -0.317729 0.303956 -0.267775
v -0.373021 0.171634 -0.296973
v -0.399283 -0.018185 -0.189317
v -0.374953 -0.151389 -0.187801
v -0.294591 -0.288810 -0.181409
v -0.133898 -0.384537 -0.167808
v 0.031625 -0.399477 -0.153415
v 0.165996 -0.372335 -0.141551
v 0.290393 -0.313110 -0.130411
v 0.408754 -0.196916 -0.095777
v 0.475502 -0.013949 -0.089107
v 0.430683 0.189141 -0.092093
v 0.348790 0.308621 -0.098701
v 0.199658 0.426163 -0.111192
v 0.027042 0.480559 -0.126024
v -0.204652 0.421226 -0.146539
v -0.321363 0.295720 -0.181072
v -0.378283 0.164496 -0.186646
v -0.406986 -0.018588 -0.079172
v -0.288988 -0.129136 -0.021846
v -0.246944 -0.233710 -0.018652
v -0.141402 -0.375558 -0.057603
v 0.021494 -0.390016 -0.043437
v 0.152302 -0.363602 -0.031888
v 0.272217 -0.305940 -0.021147
v 0.362570 -0.177257 0.034859
v 0.429934 -0.010094 0.041510
v 0.367566 0.177971 0.036922
v 0.249492 0.279239 0.027070
v 0.134655 0.331697 0.017277
v 0.015295 0.354445 0.006953
v -0.146554 0.327676 -0.007310
v -0.240762 0.249966 -0.015897
v -0.293817 0.130833 -0.021078
v -0.332675 -0.014694 0.038158
v -0.313444 -0.132131 0.039300
v -0.255949 -0.236164 0.020086
v -0.144734 -0.353546 0.029265
v -0.016689 -0.387176 0.040298
v 0.128983 -0.358194 0.053158
v 0.268955 -0.273875 0.065773
v 0.365126 -0.153369 0.098489
v 0.408493 -0.011586 0.102927
v 0.349931 0.176442 0.098671
v 0.243927 0.277365 0.066111
v 0.130730 0.329006 0.056457
v -0.019510 0.352158 0.043437
v -0.151302 0.324864 0.031798
v -0.248366 0.248239 0.022966
v -0.317174 0.129405 0.040172
v -0.374635 -0.016893 0.121540
v -0.352698 -0.138757 0.122899
v -0.280125 -0.282024 0.128583
v -0.161733 -0.375157 0.114739
v -0.023985 -0.412566 0.126603
v 0.152747 -0.366052 0.142257
v 0.276501 -0.270537 0.177267
v 0.345407 -0.162898 0.183781
v 0.383610 -0.013965 0.187800
v 0.346168 0.151076 0.185285
v 0.252854 0.254356 0.177605
v 0.120440 0.318279 0.166329
v -0.028436 0.338629 0.153415
v -0.141384 0.322291 0.143472
v -0.262763 0.260680 0.132585
v -0.354872 0.128256 0.123931
v -0.401843 -0.018319 0.229976
v -0.378650 -0.146577 0.231415
v -0.321979 -0.270375 0.235799
v -0.206899 -0.391276 0.221539
v -0.031019 -0.445733 0.212895
v 0.149231 -0.403378 0.252598
v 0.275475 -0.288477 0.264154
v 0.358398 -0.139657 0.295842
v 0.383117 -0.015520 0.298570
v 0.345190 0.152240 0.296024
v 0.223886 0.265217 0.285943
v 0.115906 0.307774 0.276704
v -0.037347 0.324825 0.263392
v -0.154656 0.309808 0.253075
v -0.282320 0.253932 0.241665
v -0.368648 0.154743 0.233668
v -0.408095 -0.018646 0.340248
v -0.385060 -0.146505 0.341675
v -0.328751 -0.271114 0.346024
v -0.217338 -0.394362 0.378955
v -0.047788 -0.450711 0.417271
v 0.162730 -0.385792 0.412200
v 0.263279 -0.294927 0.397640
v 0.345342 -0.140102 0.405518
v 0.369781 -0.015954 0.408222
v 0.332271 0.149174 0.405701
v 0.212326 0.257484 0.395717
v 0.105419 0.297572 0.386561
v -0.046371 0.313161 0.373370
v -0.162703 0.298871 0.363141
v -0.289364 0.246064 0.351833
v -0.375094 0.150911 0.343907
v -0.391616 -0.017783 0.452511
v -0.370178 -0.135807 0.453843
v -0.317656 -0.248728 0.457915
v -0.214394 -0.363502 0.466412
v -0.055225 -0.406925 0.503880
v 0.109126 -0.360716 0.518451
v 0.232444 -0.268452 0.505886
v 0.296729 -0.160886 0.511995
v 0.331908 -0.015188 0.515736
v 0.297015 0.139944 0.513398
v 0.192918 0.249527 0.481043
v 0.090918 0.290154 0.472318
v -0.053587 0.306420 0.459767
v -0.164511 0.292093 0.450010
v -0.284913 0.238996 0.439248
v -0.366325 0.145028 0.431705
v -0.373738 0.011810 0.541267
v -0.353638 -0.124941 0.542396
v -0.288042 -0.250975 0.547550
v -0.185705 -0.340729 0.556080
v -0.062682 -0.359967 0.590502
v 0.095209 -0.332974 0.580659
v 0.203937 -0.240978 0.590580
v 0.263884 -0.145746 0.596253
v 0.296545 -0.014309 0.599709
v 0.264207 0.131344 0.597550
v 0.183467 0.223304 0.590917
v 0.068106 0.280445 0.581100
v -0.062818 0.298720 0.569745
v -0.163615 0.283981 0.560871
v -0.272240 0.228877 0.551128
v -0.355278 0.111613 0.543336
v -0.358866 0.010372 0.629618
v -0.340157 -0.115604 0.630675
v -0.279292 -0.227805 0.635479
v -0.184295 -0.305514 0.643423
v -0.068073 -0.334228 0.653446
v 0.076696 -0.297690 0.666262
v 0.159242 -0.237562 0.673749
v 0.226198 -0.129408 0.703855
v 0.256042 -0.013415 0.706994
v 0.226556 0.121455 0.705035
v 0.152776 0.211841 0.699003
v 0.047412 0.270651 0.690067
v -0.072014 0.290339 0.679723
v -0.186646 0.267344 0.669602
v -0.279557 0.202877 0.661189
v -0.341711 0.105689 0.631553
v -0.347939 0.008877 0.741385
v -0.330488 -0.107512 0.742377
v -0.273895 -0.208233 0.746860
v -0.185547 -0.276282 0.754267
v -0.077371 -0.300717 0.763606
v 0.035089 -0.278687 0.773533
v 0.134497 -0.215325 0.782508
v 0.204488 -0.121898 0.789051
v 0.232877 -0.013130 0.792029
v 0.204852 0.115915 0.790172
v 0.134642 0.204526 0.784443
v 0.034384 0.263174 0.775952
v -0.079205 0.283124 0.766120
v -0.188170 0.260259 0.756495
v -0.276436 0.196306 0.748490
v -0.331953 0.099571 0.743197
v -0.344349 0.007695 0.852513
v -0.327689 -0.102855 0.853462
v -0.273771 -0.197557 0.857739
v -0.189614 -0.260964 0.864802
v -0.086565 -0.283487 0.873702
v 0.020577 -0.262821 0.883157
v 0.115289 -0.203631 0.891703
v 0.181964 -0.115949 0.897930
v 0.208983 -0.013045 0.900762
v 0.182320 0.110191 0.898996
v 0.115442 0.195923 0.893546
v 0.019923 0.253131 0.885462
v -0.088296 0.272740 0.876097
v -0.192102 0.250480 0.866926
v -0.276185 0.188281 0.859295
v -0.329084 0.094830 0.854245
v -0.343418 0.006626 0.963409
v -0.327381 -0.099443 0.964324
v -0.275557 -0.190104 0.968437
v -0.194700 -0.250688 0.975224
v -0.095720 -0.272156 0.983773
v 0.007165 -0.252371 0.992853
v 0.098087 -0.195758 1.001056
v 0.162069 -0.111803 1.007030
v 0.187969 -0.013100 1.009745
v 0.162411 0.105189 1.008054
v 0.098235 0.187817 1.002825
v 0.006543 0.243045 0.995067
v -0.097369 0.262008 0.986075
v -0.197071 0.240543 0.977266
v -0.277859 0.180569 0.969933
v -0.328710 0.090587 0.965078
v -0.343065 0.005582 1.074254
v -0.327614 -0.096301 1.075138
v -0.277759 -0.183352 1.079095
v -0.200009 -0.241508 1.085622
v -0.104866 -0.262108 1.093840
v -0.006009 -0.243098 1.102564
v 0.081321 -0.188715 1.110443
v 0.142747 -0.108048 1.116179
v 0.167582 -0.013185 1.118783
v 0.143071 0.100344 1.117161
v 0.081460 0.179818 1.112142
v -0.006602 0.232950 1.104692
v -0.106437 0.251201 1.096053
v -0.202267 0.230571 1.087586
v -0.279951 0.172925 1.080535
v -0.328880 0.086453 1.075864
f 1 2 18 17
f 2 3 19 18
f 3 4 20 19
f 4 5 21 20
f 5 6 22 21
f 6 7 23 22
f 7 8 24 23
f 8 9 25 24
f 9 10 26 25
f 10 11 27 26
f 11 12 28 27
f 12 13 29 28
f 13 14 30 29
f 14 15 31 30
f 15 16 32 31
f 16 1 17 32
f 17 18 34 33
f 18 19 35 34
f 19 20 36 35
f 20 21 37 36
f 21 22 38 37
f 22 23 39 38
f 23 24 40 39
f 24 25 41 40
f 25 26 42 41
f 26 27 43 42
f 27 28 44 43
f 28 29 45 44
f 29 30 46 45
f 30 31 47 46
f 31 32 48 47
f 32 17 33 48
f 33 34 50 49
f 34 35 51 50
f 35 36 52 51
f 36 37 53 52
f 37 38 54 53
f 38 39 55 54
f 39 40 56 55
f 40 41 57 56
f 41 42 58 57
f 42 43 59 58
f 43 44 60 59
f 44 45 61 60
f 45 46 62 61
f 46 47 63 62
f 47 48 64 63
f 48 33 49 64
f 49 50 66 65
f 50 51 67 66
f 51 52 68 67
f 52 53 69 68
f 53 54 70 69
f 54 55 71 70
f 55 56 72 71
f 56 57 73 72
f 57 58 74 73
f 58 59 75 74
f 59 60 76 75
f 60 61 77 76
f 61 62 78 77
f 62 63 79 78
f 63 64 80 79
f 64 49 65 80
f 65 66 82 81
f 66 67 83 82
f 67 68 84 83
f 68 69 85 84
f 69 70 86 85
f 70 71 87 86
f 71 72 88 87
f 72 73 89 88
f 73 74 90 89
f 74 75 91 90
f 75 76 92 91
f 76 77 93 92
f 77 78 94 93
f 78 79 95 94
f 79 80 96 95
f 80 65 81 96
f 81 82 98 97
f 82 83 99 98
f 83 84 100 99
f 84 85 101 100
f 85 86 102 101
f 86 87 103 102
f 87 88 104 103
f 88 89 105 104
f 89 90 106 105
f 90 91 107 106
f 91 92 108 107
f 92 93 109 108
f 93 94 110 109
f 94 95 111 110
f 95 96 112 111
f 96 81 97 112
f 97 98 114 113
f 98 99 115 114
f 99 100 116 115
f 100 101 117 116
f 101 102 118 117
f 102 103 119 118
f 103 104 120 119
f 104 105 121 120
f 105 106 122 121
f 106 107 123 122
f 107 108 124 123
f 108 109 125 124
f 109 110 126 125
f 110 111 127 126
f 111 112 128 127
f 112 97 113 128
f 113 114 130 129
f 114 115 131 130
f 115 116 132 131
f 116 117 133 132
f 117 118 134 133
f 118 119 135 134
f 119 120 136 135
f 120 121 137 136
f 121 122 138 137
f 122 123 139 138
f 123 124 140 139
f 124 125 141 140
f 125 126 142 141
f 126 127 143 142
f 127 128 144 143
f 128 113 129 144
f 129 130 146 145
f 130 131 147 146
f 131 132 148 147
f 132 133 149 148
f 133 134 150 149
f 134 135 151 150
f 135 136 152 151
f 136 137 153 152
f 137 138 154 153
f 138 139 155 154
f 139 140 156 155
f 140 141 157 156
f 141 142 158 157
f 142 143 159 158
f 143 144 160 159
f 144 129 145 160
f 145 146 162 161
f 146 147 163 162
f 147 148 164 163
f 148 149 165 164
f 149 150 166 165
f 150 151 167 166
f 151 152 168 167
f 152 153 169 168
f 153 154 170 169
f 154 155 171 170
f 155 156 172 171
f 156 157 173 172
f 157 158 174 173
f 158 159 175 174
f 159 160 176 175
f 160 145 161 176
f 161 162 178 177
f 162 163 179 178
f 163 164 180 179
f 164 165 181 180
f 165 166 182 181
f 166 167 183 182
f 167 168 184 183
f 168 169 185 184
f 169 170 186 185
f 170 171 187 186
f 171 172 188 187
f 172 173 189 188
f 173 174 190 189
f 174 175 191 190
f 175 176 192 191
f 176 161 177 192
f 177 178 194 193
f 178 179 195 194
f 179 180 196 195
f 180 181 197 196
f 181 182 198 197
f 182 183 199 198
f 183 184 200 199
f 184 185 201 200
f 185 186 202 201
f 186 187 203 202
f 187 188 204 203
f 188 189 205 204
f 189 190 206 205
f 190 191 207 206
f 191 192 208 207
f 192 177 193 208
f 193 194 210 209
f 194 195 211 210
f 195 196 212 211
f 196 197 213 212
f 197 198 214 213
f 198 199 215 214
f 199 200 216 215
f 200 201 217 216
f 201 202 218 217
f 202 203 219 218
f 203 204 220 219
f 204 205 221 220
f 205 206 222 221
f 206 207 223 222
f 207 208 224 223
f 208 193 209 224
f 209 210 226 225
f 210 211 227 226
f 211 212 228 227
f 212 213 229 228
f 213 214 230 229
f 214 215 231 230
f 215 216 232 231
f 216 217 233 232
f 217 218 234 233
f 218 219 235 234
f 219 220 236 235
f 220 221 237 236
f 221 222 238 237
f 222 223 239 238
f 223 224 240 239
f 224 209 225 240
f 225 226 242 241
f 226 227 243 242
f 227 228 244 243
f 228 229 245 244
f 229 230 246 245
f 230 231 247 246
f 231 232 248 247
f 232 233 249 248
f 233 234 250 249
f 234 235 251 250
f 235 236 252 251
f 236 237 253 252
f 237 238 254 253
f 238 239 255 254
f 239 240 256 255
f 240 225 241 256
f 241 242 258 257
f 242 243 259 258
f 243 244 260 259
f 244 245 261 260
f 245 246 262 261
f 246 247 263 262
f 247 248 264 263
f 248 249 265 264
f 249 250 266 265
f 250 251 267 266
f 251 252 268 267
f 252 253 269 268
f 253 254 270 269
f 254 255 271 270
f 255 256 272 271
f 256 241 257 272
f 257 258 274 273
f 258 259 275 274
f 259 260 276 275
f 260 261 277 276
f 261 262 278 277
f 262 263 279 278
f 263 264 280 279
f 264 265 281 280
f 265 266 282 281
f 266 267 283 282
f 267 268 284 283
f 268 269 285 284
f 269 270 286 285
f 270 271 287 286
f 271 272 288 287
f 272 257 273 288
f 273 274 290 289
f 274 275 291 290
f 275 276 292 291
f 276 277 293 292
f 277 278 294 293
f 278 279 295 294
f 279 280 296 295
f 280 281 297 296
f 281 282 298 297
f 282 283 299 298
f 283 284 300 299
f 284 285 301 300
f 285 286 302 301
f 286 287 303 302
f 287 288 304 303
f 288 273 289 304
f 289 290 306 305
f 290 291 307 306
f 291 292 308 307
f 292 293 309 308
f 293 294 310 309
f 294 295 311 310
f 295 296 312 311
f 296 297 313 312
f 297 298 314 313
f 298 299 315 314
f 299 300 316 315
f 300 301 317 316
f 301 302 318 317
f 302 303 319 318
f 303 304 320 319
f 304 289 305 320
f 305 306 322 321
f 306 307 323 322
f 307 308 324 323
f 308 309 325 324
f 309 310 326 325
f 310 311 327 326
f 311 312 328 327
f 312 313 329 328
f 313 314 330 329
f 314 315 331 330
f 315 316 332 331
f 316 317 333 332
f 317 318 334 333
f 318 319 335 334
f 319 320 336 335
f 320 305 321 336
f 321 322 338 337
f 322 323 339 338
f 323 324 340 339
f 324 325 341 340
f 325 326 342 341
f 326 327 343 342
f 327 328 344 343
f 328 329 345 344
f 329 330 346 345
f 330 331 347 346
f 331 332 348 347
f 332 333 349 348
f 333 334 350 349
f 334 335 351 350
f 335 336 352 351
f 336 321 337 352
