# tube retopo
v -0.499544 -0.112606 -0.945051
v -0.461826 -0.103133 -0.965106
v -0.430343 -0.078377 -0.981846
v -0.409520 -0.042233 -0.992918
v -0.402191 0.000000 -0.996815
v -0.409520 0.042234 -0.992918
v -0.430344 0.078378 -0.981846
v -0.461828 0.103134 -0.965105
v -0.499547 0.112607 -0.945049
v -0.537939 0.104972 -0.924636
v -0.571047 0.080978 -0.907033
v -0.593493 0.044072 -0.895098
v -0.601495 0.000000 -0.890843
v -0.593493 -0.044073 -0.895098
v -0.571045 -0.080979 -0.907033
v -0.537936 -0.104973 -0.924638
v -0.455913 -0.118184 -0.862975
v -0.416308 -0.108288 -0.884033
v -0.383224 -0.082324 -0.901624
v -0.361332 -0.044369 -0.913265
v -0.353628 0.000000 -0.917361
v -0.361331 0.044363 -0.913265
v -0.383217 0.082313 -0.901628
v -0.416293 0.108279 -0.884041
v -0.455894 0.118182 -0.862985
v -0.496172 0.110129 -0.841569
v -0.530883 0.084929 -0.823113
v -0.554402 0.046211 -0.810608
v -0.562781 0.000000 -0.806153
v -0.554404 -0.046206 -0.810606
v -0.530892 -0.084920 -0.823108
v -0.496188 -0.110124 -0.841561
v -0.412264 -0.125602 -0.780909
v -0.370155 -0.115137 -0.803298
v -0.334950 -0.087564 -0.822017
v -0.311642 -0.047205 -0.834410
v -0.303439 0.000000 -0.838772
v -0.311642 0.047208 -0.834410
v -0.334954 0.087569 -0.822015
v -0.370162 0.115141 -0.803295
v -0.412272 0.125603 -0.780904
v -0.455055 0.116978 -0.758157
v -0.491884 0.090166 -0.738574
v -0.516817 0.049045 -0.725317
v -0.525692 0.000000 -0.720598
v -0.516816 -0.049047 -0.725317
v -0.491880 -0.090170 -0.738576
v -0.455047 -0.116980 -0.758160
v -0.368635 -0.133736 -0.698832
v -0.323776 -0.122656 -0.722683
v -0.286238 -0.093320 -0.742643
v -0.261369 -0.050321 -0.755866
v -0.252620 0.000000 -0.760518
v -0.261368 0.050317 -0.755866
v -0.286233 0.093313 -0.742646
v -0.323766 0.122650 -0.722689
v -0.368622 0.133735 -0.698838
v -0.414154 0.124496 -0.674629
v -0.453318 0.095923 -0.653805
v -0.479812 0.052161 -0.639718
v -0.489235 0.000000 -0.634707
v -0.479814 -0.052157 -0.639717
v -0.453324 -0.095917 -0.653802
v -0.414165 -0.124492 -0.674623
v -0.324983 -0.141868 -0.616767
v -0.277378 -0.130164 -0.642078
v -0.237516 -0.099064 -0.663274
v -0.211095 -0.053429 -0.677322
v -0.201800 0.000000 -0.682264
v -0.211096 0.053433 -0.677321
v -0.237521 0.099071 -0.663271
v -0.277389 0.130170 -0.642073
v -0.324997 0.141869 -0.616759
v -0.373275 0.132006 -0.591089
v -0.414764 0.101668 -0.569029
v -0.442810 0.055270 -0.554117
v -0.452778 0.000000 -0.548817
v -0.442808 -0.055274 -0.554118
v -0.414757 -0.101674 -0.569033
v -0.373263 -0.132010 -0.591096
v -0.281356 -0.150002 -0.534688
v -0.231002 -0.137684 -0.561462
v -0.188804 -0.104822 -0.583899
v -0.160823 -0.056545 -0.598777
v -0.150980 0.000000 -0.604011
v -0.160822 0.056543 -0.598777
v -0.188802 0.104818 -0.583900
v -0.230996 0.137681 -0.561465
v -0.281350 0.150002 -0.534692
v -0.332377 0.139523 -0.507560
v -0.376199 0.107423 -0.484259
v -0.405805 0.058385 -0.468518
v -0.416320 0.000000 -0.462927
v -0.405806 -0.058383 -0.468517
v -0.376202 -0.107420 -0.484258
v -0.332383 -0.139521 -0.507557
v -0.237702 -0.156996 -0.452625
v -0.184986 -0.144138 -0.480654
v -0.140791 -0.109758 -0.504153
v -0.111476 -0.059216 -0.519740
v -0.101165 0.000000 -0.525223
v -0.111478 0.059222 -0.519739
v -0.140799 0.109769 -0.504149
v -0.185001 0.144147 -0.480646
v -0.237719 0.156998 -0.452615
v -0.291110 0.145983 -0.424227
v -0.336932 0.112366 -0.399863
v -0.367874 0.061059 -0.383411
v -0.378858 0.000000 -0.377570
v -0.367871 -0.061065 -0.383413
v -0.336922 -0.112374 -0.399868
v -0.291093 -0.145989 -0.424236
v -0.194077 -0.162402 -0.370545
v -0.139533 -0.149138 -0.399547
v -0.093785 -0.113589 -0.423872
v -0.063431 -0.061290 -0.440011
v -0.052755 0.000000 -0.445688
v -0.063431 0.061290 -0.440011
v -0.093784 0.113588 -0.423872
v -0.139532 0.149138 -0.399547
v -0.194076 0.162402 -0.370546
v -0.249293 0.150977 -0.341186
v -0.296665 0.116189 -0.315998
v -0.328643 0.063128 -0.298995
v -0.339991 0.000000 -0.292961
v -0.328643 -0.063128 -0.298995
v -0.296666 -0.116188 -0.315998
v -0.249294 -0.150977 -0.341186
v -0.150442 -0.167808 -0.288471
v -0.094068 -0.154141 -0.318446
v -0.046764 -0.117422 -0.343598
v -0.015369 -0.063366 -0.360291
v -0.004327 0.000000 -0.366162
v -0.015367 0.063359 -0.360292
v -0.046758 0.117414 -0.343601
v -0.094059 0.154136 -0.318450
v -0.150432 0.167807 -0.288476
v -0.207473 0.155967 -0.258147
v -0.256388 0.120006 -0.232139
v -0.289396 0.065195 -0.214588
v -0.301107 0.000000 -0.208361
v -0.289399 -0.065189 -0.214587
v -0.256395 -0.120000 -0.232135
v -0.207482 -0.155964 -0.258143
v -0.106794 -0.173291 -0.206404
v -0.048467 -0.159481 -0.237417
v 0.000643 -0.121680 -0.263529
v 0.033310 -0.065726 -0.280899
v 0.044793 0.000000 -0.287004
v 0.033309 0.065727 -0.280899
v 0.000641 0.121681 -0.263529
v -0.048469 0.159483 -0.237416
v -0.106797 0.173291 -0.206403
v -0.165584 0.160742 -0.175145
v -0.215807 0.123462 -0.148441
v -0.249587 0.066987 -0.130480
v -0.261530 0.000000 -0.124129
v -0.249586 -0.066987 -0.130480
v -0.215806 -0.123463 -0.148442
v -0.165582 -0.160743 -0.175146
v -0.063146 -0.178345 -0.124337
v -0.002181 -0.166693 -0.156753
v 0.050656 -0.128885 -0.184847
v 0.086625 -0.070258 -0.203972
v 0.099500 0.000000 -0.210818
v 0.086630 0.070247 -0.203975
v 0.050675 0.128867 -0.184857
v -0.002147 0.166681 -0.156771
v -0.063107 0.178349 -0.124358
v -0.122698 0.162938 -0.092673
v -0.172216 0.123572 -0.066344
v -0.204867 0.066502 -0.048983
v -0.216366 0.000000 -0.042869
v -0.204870 -0.066490 -0.048982
v -0.172231 -0.123551 -0.066336
v -0.122730 -0.162919 -0.092656
v -0.019464 -0.181845 -0.042288
v 0.044994 -0.176195 -0.076561
v 0.104552 -0.140386 -0.108229
v 0.147158 -0.078121 -0.130883
v 0.163152 0.000000 -0.139387
v 0.147135 0.078170 -0.130871
v 0.104524 0.140412 -0.108214
v 0.045004 0.176191 -0.076567
v -0.019430 0.181849 -0.042306
v -0.077995 0.160138 -0.011167
v -0.123358 0.117688 0.012953
v -0.151794 0.062068 0.028072
v -0.161922 0.000000 0.033458
v -0.151777 -0.062131 0.028064
v -0.123328 -0.117730 0.012937
v -0.078003 -0.160133 -0.011163
v 0.024210 -0.187013 0.039765
v 0.090388 -0.180962 0.004577
v 0.151386 -0.144064 -0.027856
v 0.194986 -0.080145 -0.051038
v 0.211350 0.000000 -0.059739
v 0.195009 0.080096 -0.051051
v 0.151417 0.144035 -0.027873
v 0.090385 0.180963 0.004579
v 0.024185 0.187010 0.039778
v -0.036102 0.164909 0.071833
v -0.082912 0.121385 0.096722
v -0.112351 0.064107 0.112375
v -0.122843 0.000000 0.117954
v -0.112367 -0.064044 0.112384
v -0.082945 -0.121339 0.096740
v -0.036101 -0.164909 0.071833
v 0.067808 -0.204608 0.121858
v 0.137640 -0.190942 0.084728
v 0.197984 -0.147435 0.052643
v 0.238966 -0.080296 0.030852
v 0.253601 0.000000 0.023071
v 0.238961 0.080306 0.030855
v 0.197967 0.147451 0.052652
v 0.137609 0.190952 0.084745
v 0.067772 0.204604 0.121878
v -0.000685 0.187180 0.158277
v -0.057709 0.142120 0.188597
v -0.095374 0.076539 0.208624
v -0.108636 0.000000 0.215675
v -0.095371 -0.076550 0.208622
v -0.057695 -0.142140 0.188590
v -0.000656 -0.187198 0.158261
v 0.111396 -0.222659 0.203957
v 0.186404 -0.205093 0.164075
v 0.249656 -0.156590 0.130443
v 0.291773 -0.084620 0.108049
v 0.306575 0.000000 0.100179
v 0.291774 0.084619 0.108049
v 0.249658 0.156588 0.130442
v 0.186406 0.205092 0.164074
v 0.111399 0.222659 0.203956
v 0.035929 0.206353 0.244084
v -0.028435 0.158372 0.278307
v -0.071665 0.085880 0.301293
v -0.086928 0.000000 0.309408
v -0.071666 -0.085879 0.301293
v -0.028437 -0.158370 0.278308
v 0.035927 -0.206352 0.244085
v 0.155041 -0.240284 0.286026
v 0.235903 -0.221095 0.243031
v 0.303964 -0.168661 0.206842
v 0.349225 -0.091095 0.182776
v 0.365136 0.000000 0.174316
v 0.349224 0.091102 0.182777
v 0.303957 0.168671 0.206846
v 0.235892 0.221102 0.243037
v 0.155028 0.240286 0.286033
v 0.073498 0.222924 0.329383
v 0.003825 0.171249 0.366429
v -0.043052 0.092925 0.391354
v -0.059632 0.000000 0.400169
v -0.043049 -0.092931 0.391352
v 0.003834 -0.171258 0.366424
v 0.073511 -0.222929 0.329376
v 0.198670 -0.257989 0.368103
v 0.285512 -0.237449 0.321929
v 0.358641 -0.181178 0.283045
v 0.407290 -0.097869 0.257178
v 0.424390 0.000000 0.248086
v 0.407290 0.097869 0.257178
v 0.358640 0.181179 0.283045
v 0.285511 0.237449 0.321929
v 0.198669 0.257989 0.368104
v 0.111155 0.239288 0.414636
v 0.036402 0.183779 0.454382
v -0.013870 0.099708 0.481113
v -0.031643 0.000000 0.490563
v -0.013870 -0.099708 0.481113
v 0.036402 -0.183779 0.454382
v 0.111155 -0.239288 0.414636
v 0.242305 -0.267433 0.450177
v 0.332339 -0.246176 0.402305
v 0.408174 -0.187858 0.361983
v 0.458632 -0.101484 0.335154
v 0.476367 0.000000 0.325724
v 0.458633 0.101478 0.335153
v 0.408181 0.187848 0.361979
v 0.332352 0.246168 0.402298
v 0.242321 0.267431 0.450169
v 0.151614 0.248017 0.498398
v 0.074151 0.190463 0.539586
v 0.022066 0.103327 0.567280
v 0.003656 0.000000 0.577069
v 0.022064 -0.103321 0.567281
v 0.074143 -0.190456 0.539590
v 0.151600 -0.248012 0.498406
v 0.285950 -0.260873 0.532246
v 0.373766 -0.240112 0.485553
v 0.447720 -0.183216 0.446231
v 0.496920 -0.098972 0.420071
v 0.514214 0.000000 0.410876
v 0.496919 0.098974 0.420071
v 0.447717 0.183219 0.446233
v 0.373761 0.240115 0.485556
v 0.285944 0.260873 0.532249
v 0.197455 0.241952 0.579299
v 0.121877 0.185817 0.619485
v 0.071053 0.100811 0.646508
v 0.053087 0.000000 0.656061
v 0.071054 -0.100813 0.646508
v 0.121880 -0.185820 0.619483
v 0.197460 -0.241954 0.579297
v 0.329582 -0.254234 0.614321
v 0.415156 -0.233981 0.568821
v 0.487210 -0.178525 0.530509
v 0.535142 -0.096433 0.505023
v 0.551990 0.000000 0.496065
v 0.535143 0.096429 0.505023
v 0.487215 0.178518 0.530506
v 0.415165 0.233976 0.568816
v 0.329593 0.254233 0.614315
v 0.243347 0.235821 0.660173
v 0.169667 0.181128 0.699350
v 0.120110 0.098274 0.725700
v 0.102588 0.000000 0.735016
v 0.120108 -0.098270 0.725701
v 0.169661 -0.181122 0.699353
v 0.243336 -0.235818 0.660179
v 0.373231 -0.247593 0.696388
v 0.456559 -0.227842 0.652082
v 0.526708 -0.173824 0.614783
v 0.573365 -0.093889 0.589975
v 0.589766 0.000000 0.581254
v 0.573364 0.093892 0.589975
v 0.526703 0.173830 0.614785
v 0.456551 0.227847 0.652086
v 0.373220 0.247595 0.696393
v 0.289218 0.229684 0.741058
v 0.217444 0.176427 0.779221
v 0.169162 0.095729 0.804893
v 0.152088 0.000000 0.813971
v 0.169164 -0.095733 0.804892
v 0.217450 -0.176432 0.779218
v 0.289227 -0.229687 0.741053
v 0.416859 -0.240955 0.778465
v 0.497946 -0.221713 0.735351
v 0.566197 -0.169135 0.699061
v 0.611586 -0.091351 0.674927
v 0.627542 0.000000 0.666443
v 0.611587 0.091349 0.674927
v 0.566200 0.169131 0.699060
v 0.497952 0.221710 0.735348
v 0.416866 0.240954 0.778462
v 0.335107 0.223552 0.821934
v 0.265232 0.171736 0.859087
v 0.218218 0.093191 0.884085
v 0.201589 0.000000 0.892926
v 0.218217 -0.093189 0.884085
v 0.265228 -0.171733 0.859089
v 0.335101 -0.223550 0.821937
v 0.460512 -0.234676 0.860530
v 0.539475 -0.215906 0.818544
v 0.605922 -0.164688 0.783214
v 0.650106 -0.088944 0.759721
v 0.665638 0.000000 0.751462
v 0.650104 0.088949 0.759722
v 0.605916 0.164696 0.783217
v 0.539463 0.215914 0.818551
v 0.460497 0.234678 0.860538
v 0.380860 0.217750 0.902882
v 0.312786 0.167294 0.939077
v 0.266976 0.090786 0.963435
v 0.250770 0.000000 0.972051
v 0.266979 -0.090791 0.963433
v 0.312794 -0.167301 0.939073
v 0.380873 -0.217754 0.902875
v 0.504138 -0.228480 0.942609
v 0.581009 -0.210187 0.901735
v 0.645686 -0.160313 0.867346
v 0.688688 -0.086577 0.844482
v 0.703805 0.000000 0.836444
v 0.688688 0.086576 0.844482
v 0.645687 0.160312 0.867346
v 0.581011 0.210186 0.901734
v 0.504140 0.228480 0.942607
v 0.426596 0.212026 0.983838
v 0.360296 0.162914 1.019091
v 0.315670 0.088416 1.042819
v 0.299880 0.000000 1.051214
v 0.315670 -0.088415 1.042819
v 0.360294 -0.162913 1.019092
v 0.426594 -0.212025 0.983839
f 1 2 18 17
f 2 3 19 18
f 3 4 20 19
f 4 5 21 20
f 5 6 22 21
f 6 7 23 22
f 7 8 24 23
f 8 9 25 24
f 9 10 26 25
f 10 11 27 26
f 11 12 28 27
f 12 13 29 28
f 13 14 30 29
f 14 15 31 30
f 15 16 32 31
f 16 1 17 32
f 17 18 34 33
f 18 19 35 34
f 19 20 36 35
f 20 21 37 36
f 21 22 38 37
f 22 23 39 38
f 23 24 40 39
f 24 25 41 40
f 25 26 42 41
f 26 27 43 42
f 27 28 44 43
f 28 29 45 44
f 29 30 46 45
f 30 31 47 46
f 31 32 48 47
f 32 17 33 48
f 33 34 50 49
f 34 35 51 50
f 35 36 52 51
f 36 37 53 52
f 37 38 54 53
f 38 39 55 54
f 39 40 56 55
f 40 41 57 56
f 41 42 58 57
f 42 43 59 58
f 43 44 60 59
f 44 45 61 60
f 45 46 62 61
f 46 47 63 62
f 47 48 64 63
f 48 33 49 64
f 49 50 66 65
f 50 51 67 66
f 51 52 68 67
f 52 53 69 68
f 53 54 70 69
f 54 55 71 70
f 55 56 72 71
f 56 57 73 72
f 57 58 74 73
f 58 59 75 74
f 59 60 76 75
f 60 61 77 76
f 61 62 78 77
f 62 63 79 78
f 63 64 80 79
f 64 49 65 80
f 65 66 82 81
f 66 67 83 82
f 67 68 84 83
f 68 69 85 84
f 69 70 86 85
f 70 71 87 86
f 71 72 88 87
f 72 73 89 88
f 73 74 90 89
f 74 75 91 90
f 75 76 92 91
f 76 77 93 92
f 77 78 94 93
f 78 79 95 94
f 79 80 96 95
f 80 65 81 96
f 81 82 98 97
f 82 83 99 98
f 83 84 100 99
f 84 85 101 100
f 85 86 102 101
f 86 87 103 102
f 87 88 104 103
f 88 89 105 104
f 89 90 106 105
f 90 91 107 106
f 91 92 108 107
f 92 93 109 108
f 93 94 110 109
f 94 95 111 110
f 95 96 112 111
f 96 81 97 112
f 97 98 114 113
f 98 99 115 114
f 99 100 116 115
f 100 101 117 116
f 101 102 118 117
f 102 103 119 118
f 103 104 120 119
f 104 105 121 120
f 105 106 122 121
f 106 107 123 122
f 107 108 124 123
f 108 109 125 124
f 109 110 126 125
f 110 111 127 126
f 111 112 128 127
f 112 97 113 128
f 113 114 130 129
f 114 115 131 130
f 115 116 132 131
f 116 117 133 132
f 117 118 134 133
f 118 119 135 134
f 119 120 136 135
f 120 121 137 136
f 121 122 138 137
f 122 123 139 138
f 123 124 140 139
f 124 125 141 140
f 125 126 142 141
f 126 127 143 142
f 127 128 144 143
f 128 113 129 144
f 129 130 146 145
f 130 131 147 146
f 131 132 148 147
f 132 133 149 148
f 133 134 150 149
f 134 135 151 150
f 135 136 152 151
f 136 137 153 152
f 137 138 154 153
f 138 139 155 154
f 139 140 156 155
f 140 141 157 156
f 141 142 158 157
f 142 143 159 158
f 143 144 160 159
f 144 129 145 160
f 145 146 162 161
f 146 147 163 162
f 147 148 164 163
f 148 149 165 164
f 149 150 166 165
f 150 151 167 166
f 151 152 168 167
f 152 153 169 168
f 153 154 170 169
f 154 155 171 170
f 155 156 172 171
f 156 157 173 172
f 157 158 174 173
f 158 159 175 174
f 159 160 176 175
f 160 145 161 176
f 161 162 178 177
f 162 163 179 178
f 163 164 180 179
f 164 165 181 180
f 165 166 182 181
f 166 167 183 182
f 167 168 184 183
f 168 169 185 184
f 169 170 186 185
f 170 171 187 186
f 171 172 188 187
f 172 173 189 188
f 173 174 190 189
f 174 175 191 190
f 175 176 192 191
f 176 161 177 192
f 177 178 194 193
f 178 179 195 194
f 179 180 196 195
f 180 181 197 196
f 181 182 198 197
f 182 183 199 198
f 183 184 200 199
f 184 185 201 200
f 185 186 202 201
f 186 187 203 202
f 187 188 204 203
f 188 189 205 204
f 189 190 206 205
f 190 191 207 206
f 191 192 208 207
f 192 177 193 208
f 193 194 210 209
f 194 195 211 210
f 195 196 212 211
f 196 197 213 212
f 197 198 214 213
f 198 199 215 214
f 199 200 216 215
f 200 201 217 216
f 201 202 218 217
f 202 203 219 218
f 203 204 220 219
f 204 205 221 220
f 205 206 222 221
f 206 207 223 222
f 207 208 224 223
f 208 193 209 224
f 209 210 226 225
f 210 211 227 226
f 211 212 228 227
f 212 213 229 228
f 213 214 230 229
f 214 215 231 230
f 215 216 232 231
f 216 217 233 232
f 217 218 234 233
f 218 219 235 234
f 219 220 236 235
f 220 221 237 236
f 221 222 238 237
f 222 223 239 238
f 223 224 240 239
f 224 209 225 240
f 225 226 242 241
f 226 227 243 242
f 227 228 244 243
f 228 229 245 244
f 229 230 246 245
f 230 231 247 246
f 231 232 248 247
f 232 233 249 248
f 233 234 250 249
f 234 235 251 250
f 235 236 252 251
f 236 237 253 252
f 237 238 254 253
f 238 239 255 254
f 239 240 256 255
f 240 225 241 256
f 241 242 258 257
f 242 243 259 258
f 243 244 260 259
f 244 245 261 260
f 245 246 262 261
f 246 247 263 262
f 247 248 264 263
f 248 249 265 264
f 249 250 266 265
f 250 251 267 266
f 251 252 268 267
f 252 253 269 268
f 253 254 270 269
f 254 255 271 270
f 255 256 272 271
f 256 241 257 272
f 257 258 274 273
f 258 259 275 274
f 259 260 276 275
f 260 261 277 276
f 261 262 278 277
f 262 263 279 278
f 263 264 280 279
f 264 265 281 280
f 265 266 282 281
f 266 267 283 282
f 267 268 284 283
f 268 269 285 284
f 269 270 286 285
f 270 271 287 286
f 271 272 288 287
f 272 257 273 288
f 273 274 290 289
f 274 275 291 290
f 275 276 292 291
f 276 277 293 292
f 277 278 294 293
f 278 279 295 294
f 279 280 296 295
f 280 281 297 296
f 281 282 298 297
f 282 283 299 298
f 283 284 300 299
f 284 285 301 300
f 285 286 302 301
f 286 287 303 302
f 287 288 304 303
f 288 273 289 304
f 289 290 306 305
f 290 291 307 306
f 291 292 308 307
f 292 293 309 308
f 293 294 310 309
f 294 295 311 310
f 295 296 312 311
f 296 297 313 312
f 297 298 314 313
f 298 299 315 314
f 299 300 316 315
f 300 301 317 316
f 301 302 318 317
f 302 303 319 318
f 303 304 320 319
f 304 289 305 320
f 305 306 322 321
f 306 307 323 322
f 307 308 324 323
f 308 309 325 324
f 309 310 326 325
f 310 311 327 326
f 311 312 328 327
f 312 313 329 328
f 313 314 330 329
f 314 315 331 330
f 315 316 332 331
f 316 317 333 332
f 317 318 334 333
f 318 319 335 334
f 319 320 336 335
f 320 305 321 336
f 321 322 338 337
f 322 323 339 338
f 323 324 340 339
f 324 325 341 340
f 325 326 342 341
f 326 327 343 342
f 327 328 344 343
f 328 329 345 344
f 329 330 346 345
f 330 331 347 346
f 331 332 348 347
f 332 333 349 348
f 333 334 350 349
f 334 335 351 350
f 335 336 352 351
f 336 321 337 352
f 337 338 354 353
f 338 339 355 354
f 339 340 356 355
f 340 341 357 356
f 341 342 358 357
f 342 343 359 358
f 343 344 360 359
f 344 345 361 360
f 345 346 362 361
f 346 347 363 362
f 347 348 364 363
f 348 349 365 364
f 349 350 366 365
f 350 351 367 366
f 351 352 368 367
f 352 337 353 368
f 353 354 370 369
f 354 355 371 370
f 355 356 372 371
f 356 357 373 372
f 357 358 374 373
f 358 359 375 374
f 359 360 376 375
f 360 361 377 376
f 361 362 378 377
f 362 363 379 378
f 363 364 380 379
f 364 365 381 380
f 365 366 382 381
f 366 367 383 382
f 367 368 384 383
f 368 353 369 384
