# tube retopo
v -0.827536 -0.223145 0.308048
v -0.789845 -0.207386 0.381310
v -0.758565 -0.159903 0.444301
v -0.738569 -0.088045 0.487092
v -0.732938 -0.003022 0.502946
v -0.742478 0.081939 0.489464
v -0.765617 0.153756 0.448948
v -0.798704 0.201579 0.387922
v -0.836646 0.218415 0.315935
v -0.873719 0.202032 0.243946
v -0.904421 0.155093 0.182636
v -0.924219 0.084628 0.140951
v -0.930148 0.001031 0.124980
v -0.921226 -0.083306 0.137191
v -0.898665 -0.155667 0.176024
v -0.865775 -0.204883 0.235944
v -0.731406 -0.229585 0.266169
v -0.690840 -0.214272 0.337922
v -0.657590 -0.167130 0.400761
v -0.636803 -0.094718 0.444931
v -0.631894 -0.007750 0.463142
v -0.643873 0.080432 0.452025
v -0.671079 0.155954 0.412920
v -0.709336 0.206684 0.351873
v -0.752582 0.224442 0.278711
v -0.793857 0.206345 0.205345
v -0.826668 0.156007 0.143424
v -0.846162 0.081897 0.102102
v -0.849715 -0.004373 0.086937
v -0.837109 -0.089978 0.099506
v -0.810256 -0.162400 0.137834
v -0.773239 -0.211301 0.196135
v -0.653616 -0.235012 0.238485
v -0.611011 -0.217468 0.311095
v -0.574253 -0.167412 0.372576
v -0.548791 -0.092493 0.413602
v -0.538379 -0.003944 0.427945
v -0.544583 0.085021 0.413391
v -0.566553 0.161054 0.372094
v -0.601093 0.212582 0.310298
v -0.643059 0.231577 0.237429
v -0.686077 0.214895 0.164648
v -0.723506 0.164904 0.103088
v -0.749504 0.089213 0.062121
v -0.760003 -0.000492 0.047940
v -0.753386 -0.090319 0.062663
v -0.730745 -0.166416 0.104039
v -0.695669 -0.217172 0.165778
v -0.547506 -0.241880 0.195667
v -0.516036 -0.222716 0.275959
v -0.491547 -0.168078 0.344086
v -0.477561 -0.088079 0.389141
v -0.475851 0.004177 0.404320
v -0.486209 0.094230 0.388148
v -0.506606 0.168971 0.344501
v -0.533841 0.218711 0.281014
v -0.564135 0.236936 0.207205
v -0.593504 0.222289 0.133386
v -0.618166 0.176175 0.069052
v -0.634512 0.103239 0.022875
v -0.639390 0.012434 0.002356
v -0.631112 -0.082572 0.012121
v -0.610461 -0.165631 0.052091
v -0.580859 -0.221956 0.116708
v -0.452169 -0.248388 0.159134
v -0.412388 -0.230147 0.235426
v -0.380994 -0.175653 0.301431
v -0.362843 -0.094088 0.346106
v -0.360378 0.001038 0.362318
v -0.373465 0.094770 0.348070
v -0.399749 0.173177 0.306364
v -0.435135 0.225227 0.244381
v -0.474472 0.243694 0.171901
v -0.512169 0.226724 0.099847
v -0.543020 0.176800 0.038233
v -0.562550 0.100481 -0.004575
v -0.567502 0.008071 -0.022513
v -0.556501 -0.087078 -0.012482
v -0.530687 -0.170095 0.024959
v -0.493910 -0.227150 0.085085
v -0.364414 -0.254075 0.122952
v -0.322680 -0.238775 0.195767
v -0.288321 -0.186420 0.260978
v -0.266875 -0.104404 0.307302
v -0.261923 -0.005458 0.326001
v -0.274367 0.094312 0.313175
v -0.302231 0.178208 0.270879
v -0.340715 0.232710 0.207316
v -0.383506 0.250316 0.134101
v -0.424108 0.229732 0.063158
v -0.456726 0.175289 0.004652
v -0.476819 0.095454 -0.034028
v -0.481430 0.001713 -0.048332
v -0.470004 -0.092561 -0.037147
v -0.444000 -0.174152 -0.001753
v -0.407006 -0.231034 0.053904
v -0.275971 -0.260911 0.102213
v -0.228611 -0.241480 0.171570
v -0.189638 -0.184799 0.231577
v -0.164822 -0.100179 0.272264
v -0.157551 -0.001037 0.286930
v -0.168526 0.097455 0.273423
v -0.195874 0.180702 0.234369
v -0.235539 0.236694 0.176446
v -0.281853 0.257462 0.108973
v -0.328202 0.239970 0.042247
v -0.367780 0.186498 -0.014061
v -0.394472 0.104476 -0.052153
v -0.403791 0.005779 -0.066843
v -0.393829 -0.094662 -0.055960
v -0.365866 -0.181113 -0.020604
v -0.324323 -0.239689 0.034718
v -0.191064 -0.267040 0.072941
v -0.140930 -0.248250 0.137667
v -0.099189 -0.191224 0.194633
v -0.072079 -0.104873 0.233976
v -0.063478 -0.002713 0.248614
v -0.074449 0.099392 0.235935
v -0.103198 0.185825 0.198389
v -0.145414 0.243651 0.142812
v -0.194907 0.264470 0.078757
v -0.244429 0.245456 0.016430
v -0.286606 0.189569 -0.035145
v -0.314948 0.105055 -0.069258
v -0.324856 0.004353 -0.081887
v -0.314500 -0.097527 -0.071601
v -0.285313 -0.185101 -0.039451
v -0.241863 -0.244764 0.010891
v -0.113389 -0.262477 0.045363
v -0.061466 -0.245644 0.102036
v -0.017468 -0.190570 0.153039
v 0.011820 -0.105347 0.188962
v 0.021899 -0.003323 0.202591
v 0.011273 0.099127 0.191045
v -0.018331 0.185595 0.156699
v -0.062290 0.242642 0.106451
v -0.113863 0.262010 0.049670
v -0.165264 0.241617 -0.004242
v -0.208799 0.185341 -0.047707
v -0.237953 0.101987 -0.075732
v -0.248311 0.003807 -0.085730
v -0.238216 -0.095077 -0.076945
v -0.209079 -0.180350 -0.050138
v -0.165247 -0.239271 -0.007787
v -0.042183 -0.245643 0.021657
v 0.009025 -0.228299 0.067171
v 0.051975 -0.175595 0.107887
v 0.080365 -0.095853 0.136122
v 0.090262 -0.001671 0.146255
v 0.080496 0.092257 0.136354
v 0.052667 0.171613 0.108659
v 0.010828 0.224666 0.068788
v -0.039052 0.243845 0.024079
v -0.089776 0.226572 -0.018229
v -0.133768 0.175437 -0.052343
v -0.164115 0.097843 -0.074444
v -0.175740 0.005131 -0.082504
v -0.166460 -0.088869 -0.075807
v -0.137588 -0.169795 -0.054717
v -0.093790 -0.224996 -0.020981
v 0.010915 -0.227278 -0.008957
v 0.062234 -0.213686 0.025579
v 0.106117 -0.165881 0.057759
v 0.135569 -0.090923 0.080778
v 0.145968 -0.001056 0.089187
v 0.135739 0.088553 0.080889
v 0.106872 0.163056 0.058205
v 0.064189 0.211192 0.026636
v 0.014261 0.226677 -0.007342
v -0.035541 0.208518 -0.038125
v -0.077895 0.160080 -0.061894
v -0.106669 0.089034 -0.076754
v -0.117648 0.005389 -0.082041
v -0.109046 -0.079380 -0.077588
v -0.081784 -0.153490 -0.063369
v -0.039707 -0.205683 -0.039896
v 0.056359 -0.210318 -0.037011
v 0.107852 -0.195459 -0.014434
v 0.151155 -0.150527 0.006300
v 0.179925 -0.082661 0.020976
v 0.190207 -0.002443 0.026367
v 0.180737 0.077879 0.021275
v 0.152926 0.146215 0.006892
v 0.110685 0.192302 -0.013615
v 0.060082 0.209189 -0.036120
v 0.008642 0.194347 -0.056736
v -0.035733 0.150097 -0.072707
v -0.066064 0.083175 -0.082623
v -0.077487 0.003614 -0.086033
v -0.068074 -0.076726 -0.082887
v -0.039198 -0.145742 -0.073247
v 0.004608 -0.192774 -0.057515
v 0.086988 -0.192844 -0.071546
v 0.137745 -0.179316 -0.059803
v 0.180919 -0.138865 -0.048823
v 0.210174 -0.077356 -0.040866
v 0.221121 -0.003951 -0.037823
v 0.212027 0.070132 -0.040505
v 0.184178 0.133443 -0.048288
v 0.141697 0.176264 -0.059349
v 0.090903 0.192126 -0.071339
v 0.039400 0.178640 -0.082142
v -0.004935 0.137761 -0.090343
v -0.035089 0.075604 -0.095297
v -0.046141 0.001709 -0.096883
v -0.036295 -0.072417 -0.095153
v -0.007280 -0.135297 -0.090164
v 0.036093 -0.177469 -0.082095
v 0.095240 -0.185661 -0.115929
v 0.146944 -0.172336 -0.111763
v 0.190690 -0.133038 -0.107378
v 0.220107 -0.073822 -0.103990
v 0.231030 -0.003603 -0.102681
v 0.221907 0.067177 -0.103917
v 0.193938 0.127935 -0.107326
v 0.151025 0.169395 -0.111850
v 0.099430 0.185005 -0.116213
v 0.046990 0.172220 -0.119466
v 0.001848 0.132911 -0.121309
v -0.028828 0.073072 -0.122023
v -0.040111 0.001949 -0.122087
v -0.030217 -0.069452 -0.121759
v -0.000813 -0.130143 -0.120884
v 0.043330 -0.170900 -0.119040
v 0.065510 -0.180417 -0.167869
v 0.118828 -0.167748 -0.170314
v 0.164110 -0.129592 -0.171584
v 0.194630 -0.071774 -0.172024
v 0.205932 -0.003085 -0.172136
v 0.196375 0.066060 -0.172167
v 0.167325 0.125166 -0.171910
v 0.123006 0.165210 -0.170858
v 0.069995 0.180037 -0.168603
v 0.016328 0.167350 -0.165242
v -0.029718 0.129101 -0.161500
v -0.060969 0.071172 -0.158483
v -0.072541 0.002417 -0.157196
v -0.062635 -0.066709 -0.158078
v -0.032822 -0.125722 -0.160803
v 0.012228 -0.165655 -0.164436
v 0.024146 -0.175060 -0.224397
v 0.077942 -0.162786 -0.232989
v 0.123726 -0.125837 -0.239692
v 0.154673 -0.069820 -0.243905
v 0.166211 -0.003209 -0.245435
v 0.156618 0.063918 -0.244257
v 0.127250 0.121362 -0.240383
v 0.082405 0.160328 -0.233967
v 0.028788 0.174792 -0.225539
v -0.025434 0.162492 -0.216198
v -0.071889 0.125319 -0.207545
v -0.103359 0.069011 -0.201322
v -0.114966 0.002213 -0.198898
v -0.104947 -0.064888 -0.200823
v -0.074909 -0.122108 -0.206646
v -0.029541 -0.160783 -0.215074
v -0.021221 -0.169660 -0.287234
v 0.031497 -0.157880 -0.301559
v 0.076576 -0.122408 -0.313450
v 0.107302 -0.068443 -0.321367
v 0.119007 -0.003987 -0.324358
v 0.109786 0.061243 -0.322060
v 0.080862 0.117251 -0.314691
v 0.036504 0.155338 -0.303093
v -0.016561 0.169525 -0.288769
v -0.070157 0.157550 -0.273810
v -0.115949 0.121268 -0.260635
v -0.146808 0.066352 -0.251536
v -0.157988 0.001360 -0.248156
v -0.147889 -0.063675 -0.251088
v -0.118251 -0.118873 -0.259742
v -0.073760 -0.156009 -0.272523
v -0.072362 -0.164289 -0.355896
v -0.020249 -0.152852 -0.373744
v 0.024322 -0.118488 -0.388738
v 0.054710 -0.066238 -0.398816
v 0.066292 -0.003844 -0.402634
v 0.057176 0.059299 -0.399660
v 0.028576 0.113528 -0.390226
v -0.015278 0.150429 -0.375543
v -0.067730 0.164207 -0.357647
v -0.120700 0.152658 -0.339210
v -0.165957 0.117550 -0.323164
v -0.196460 0.064359 -0.312187
v -0.207517 0.001379 -0.308150
v -0.197545 -0.061652 -0.311714
v -0.168259 -0.115136 -0.322201
v -0.124290 -0.151096 -0.337783
v -0.127588 -0.158919 -0.428841
v -0.075116 -0.147827 -0.447973
v -0.030317 -0.114301 -0.464030
v 0.000052 -0.063405 -0.474766
v 0.011401 -0.002845 -0.478750
v 0.001991 0.058184 -0.475461
v -0.026799 0.110379 -0.465313
v -0.070649 0.145755 -0.449644
v -0.122919 0.158884 -0.430641
v -0.175636 0.147746 -0.411121
v -0.220721 0.114045 -0.394148
v -0.251248 0.062947 -0.382505
v -0.262536 0.002276 -0.378155
v -0.252880 -0.058707 -0.381832
v -0.223804 -0.110726 -0.392896
v -0.179795 -0.145900 -0.409471
v -0.184371 -0.152962 -0.504859
v -0.133110 -0.142268 -0.525364
v -0.089347 -0.109943 -0.542658
v -0.059705 -0.060894 -0.554257
v -0.048669 -0.002573 -0.558551
v -0.057915 0.056153 -0.554955
v -0.086061 0.106341 -0.543956
v -0.128862 0.140338 -0.527072
v -0.179830 0.152953 -0.506723
v -0.231207 0.142254 -0.485945
v -0.275145 0.109871 -0.467967
v -0.304917 0.060746 -0.455675
v -0.315963 0.002375 -0.451084
v -0.306602 -0.056346 -0.454952
v -0.278281 -0.106476 -0.466635
v -0.235350 -0.140398 -0.484212
v -0.241121 -0.144912 -0.583068
v -0.192192 -0.134782 -0.604144
v -0.150409 -0.104147 -0.621994
v -0.122109 -0.057665 -0.634001
v -0.111581 -0.002404 -0.638448
v -0.120426 0.053232 -0.634707
v -0.147311 0.100771 -0.623304
v -0.188169 0.132971 -0.605867
v -0.236798 0.144919 -0.584944
v -0.285796 0.134789 -0.563680
v -0.327688 0.104124 -0.545356
v -0.356072 0.057599 -0.532864
v -0.366610 0.002306 -0.528208
v -0.357696 -0.053331 -0.532137
v -0.330702 -0.100840 -0.544015
v -0.289760 -0.132996 -0.561936
v -0.296834 -0.136871 -0.662806
v -0.249858 -0.127300 -0.683308
v -0.209757 -0.098263 -0.700692
v -0.182655 -0.054218 -0.712377
v -0.172666 -0.001925 -0.716667
v -0.181270 0.050619 -0.712964
v -0.207113 0.095414 -0.701822
v -0.246236 0.125682 -0.684871
v -0.292700 0.136875 -0.664610
v -0.339473 0.127324 -0.644073
v -0.379482 0.098478 -0.626398
v -0.406654 0.054683 -0.614336
v -0.416836 0.002552 -0.609803
v -0.408435 -0.050011 -0.613541
v -0.382686 -0.094997 -0.624974
v -0.343491 -0.125516 -0.642303
v -0.352564 -0.128655 -0.743350
v -0.303293 -0.120546 -0.757500
v -0.260553 -0.093084 -0.769588
v -0.231554 -0.050202 -0.777685
v -0.221679 0.001052 -0.780421
v -0.232255 0.051642 -0.777486
v -0.260665 0.093270 -0.769550
v -0.301541 0.120082 -0.757994
v -0.348431 0.128976 -0.744544
v -0.394728 0.119410 -0.731071
v -0.434352 0.093083 -0.719396
v -0.461911 0.053305 -0.711200
v -0.473104 0.005306 -0.707853
v -0.465683 -0.043950 -0.710071
v -0.440319 -0.086877 -0.717623
v -0.400643 -0.116705 -0.729334
v -0.407213 -0.120443 -0.828619
v -0.357965 -0.113175 -0.836794
v -0.314416 -0.087752 -0.843831
v -0.284358 -0.046741 -0.848577
v -0.274686 0.003013 -0.850083
v -0.286881 0.051415 -0.848180
v -0.316928 0.089710 -0.843429
v -0.357857 0.113192 -0.836811
v -0.403201 0.120693 -0.829295
v -0.447774 0.112162 -0.821732
v -0.486876 0.088860 -0.814965
v -0.515370 0.052486 -0.809959
v -0.527878 0.007085 -0.807743
v -0.520892 -0.040292 -0.808980
v -0.495124 -0.081305 -0.813518
v -0.455143 -0.109310 -0.820463
v -0.456415 -0.114571 -0.914149
v -0.410506 -0.106177 -0.922226
v -0.371034 -0.081223 -0.929050
v -0.344459 -0.042859 -0.933576
v -0.335838 0.002688 -0.935032
v -0.346411 0.047099 -0.933243
v -0.372994 0.083062 -0.928710
v -0.410252 0.106101 -0.922267
v -0.452641 0.114301 -0.914817
v -0.495318 0.107657 -0.907195
v -0.533695 0.086216 -0.900244
v -0.562153 0.051125 -0.895034
v -0.574654 0.006517 -0.892731
v -0.567508 -0.039976 -0.894048
v -0.541710 -0.079599 -0.898780
v -0.502347 -0.105494 -0.905928
v -0.511962 -0.108617 -0.998439
v -0.468188 -0.102001 -1.006498
v -0.429556 -0.079075 -1.013526
v -0.402800 -0.042354 -1.018343
v -0.394089 0.002262 -1.019901
v -0.404725 0.045801 -1.017995
v -0.431297 0.080458 -1.013207
v -0.467751 0.101913 -1.006575
v -0.508396 0.108865 -0.999096
v -0.548425 0.101177 -0.991650
v -0.583511 0.080032 -0.985062
v -0.608956 0.047043 -0.980250
v -0.619976 0.005927 -0.978157
v -0.613552 -0.036801 -0.979378
v -0.590408 -0.073667 -0.983761
v -0.554664 -0.098727 -0.990484
vn -0.06152 -0.99801 0.01388
vn 0.09949 -0.92320 0.37121
vn 0.23910 -0.70708 0.66548
vn 0.33451 -0.39125 0.85734
vn 0.37188 -0.02301 0.92799
vn 0.34521 0.35052 0.87061
vn 0.25578 0.67996 0.68719
vn 0.11446 0.91207 0.39374
vn -0.05590 0.99802 0.02886
vn -0.21988 0.91382 -0.34145
vn -0.34537 0.68168 -0.64500
vn -0.41858 0.35528 -0.83580
vn -0.43945 -0.00994 -0.89821
vn -0.41210 -0.37234 -0.83159
vn -0.33640 -0.69001 -0.64088
vn -0.21509 -0.91361 -0.34504
vn -0.06240 -0.99776 0.02404
vn 0.09329 -0.91693 0.38798
vn 0.22844 -0.69534 0.68140
vn 0.32079 -0.37891 0.86806
vn 0.35738 -0.01505 0.93384
vn 0.33271 0.35206 0.87485
vn 0.24793 0.67701 0.69296
vn 0.11307 0.90905 0.40105
vn -0.04973 0.99816 0.03475
vn -0.20686 0.91734 -0.34014
vn -0.32700 0.68696 -0.64897
vn -0.39638 0.36197 -0.84372
vn -0.41654 -0.00212 -0.90912
vn -0.39205 -0.36501 -0.84443
vn -0.32292 -0.68652 -0.65147
vn -0.20947 -0.91441 -0.34639
vn -0.05644 -0.99811 0.02447
vn 0.09381 -0.90852 0.40717
vn 0.22276 -0.67443 0.70394
vn 0.30776 -0.35295 0.88358
vn 0.33727 0.00762 0.94138
vn 0.30863 0.36548 0.87817
vn 0.22581 0.68002 0.69756
vn 0.09867 0.90730 0.40874
vn -0.04963 0.99785 0.04290
vn -0.18861 0.92298 -0.33545
vn -0.29327 0.69972 -0.65145
vn -0.35179 0.38313 -0.85408
vn -0.36906 0.02809 -0.92898
vn -0.35130 -0.33132 -0.87568
vn -0.29593 -0.66283 -0.68781
vn -0.19560 -0.90813 -0.37018
vn -0.05381 -0.99848 0.01232
vn 0.09837 -0.90681 0.40991
vn 0.22821 -0.66572 0.71045
vn 0.31143 -0.34131 0.88686
vn 0.33830 0.01649 0.94089
vn 0.30701 0.36919 0.87718
vn 0.22199 0.67989 0.69891
vn 0.09294 0.90687 0.41103
vn -0.05680 0.99750 0.04205
vn -0.19330 0.91991 -0.34117
vn -0.28885 0.69395 -0.65954
vn -0.33485 0.38203 -0.86135
vn -0.34315 0.04041 -0.93841
vn -0.32597 -0.30599 -0.89449
vn -0.27996 -0.63773 -0.71758
vn -0.18964 -0.89729 -0.39864
vn -0.05785 -0.99830 -0.00659
vn 0.09606 -0.91195 0.39889
vn 0.23102 -0.67381 0.70186
vn 0.31939 -0.35408 0.87899
vn 0.35058 -0.00191 0.93653
vn 0.32112 0.35041 0.87983
vn 0.23313 0.66890 0.70585
vn 0.09668 0.90557 0.41302
vn -0.06474 0.99751 0.02785
vn -0.20845 0.90454 -0.37198
vn -0.29701 0.65961 -0.69044
vn -0.32851 0.34440 -0.87947
vn -0.32447 0.01788 -0.94573
vn -0.30394 -0.30620 -0.90214
vn -0.26538 -0.62410 -0.73489
vn -0.18716 -0.88663 -0.42292
vn -0.06939 -0.99756 0.00822
vn 0.08147 -0.90094 0.42622
vn 0.21813 -0.65748 0.72121
vn 0.31050 -0.34507 0.88573
vn 0.34690 -0.00643 0.93788
vn 0.32363 0.33433 0.88515
vn 0.24082 0.65046 0.72035
vn 0.10639 0.89588 0.43138
vn -0.05399 0.99805 0.03138
vn -0.19038 0.89893 -0.39455
vn -0.26207 0.63862 -0.72352
vn -0.27692 0.32256 -0.90514
vn -0.26814 0.01218 -0.96330
vn -0.25752 -0.29389 -0.92050
vn -0.24021 -0.60800 -0.75673
vn -0.18534 -0.88187 -0.43353
vn -0.06841 -0.99732 0.02594
vn 0.08586 -0.88373 0.46005
vn 0.22535 -0.62955 0.74356
vn 0.31908 -0.32346 0.89082
vn 0.35740 -0.00133 0.93395
vn 0.33708 0.32131 0.88495
vn 0.25658 0.62777 0.73489
vn 0.12001 0.88040 0.45880
vn -0.04643 0.99770 0.04942
vn -0.18193 0.89635 -0.40431
vn -0.23775 0.62098 -0.74690
vn -0.23259 0.30643 -0.92304
vn -0.21460 0.01562 -0.97658
vn -0.21017 -0.27045 -0.93951
vn -0.21186 -0.58249 -0.78474
vn -0.17753 -0.87522 -0.44996
vn -0.00323 -0.99894 -0.04594
vn 0.15712 -0.89186 0.42416
vn 0.29968 -0.62821 0.71801
vn 0.39160 -0.32141 0.86217
vn 0.42598 -0.00602 0.90471
vn 0.40063 0.30970 0.86231
vn 0.31322 0.61654 0.72233
vn 0.16450 0.87982 0.44593
vn -0.01887 0.99976 0.01069
vn -0.15848 0.86883 -0.46906
vn -0.19598 0.56624 -0.80060
vn -0.16715 0.26322 -0.95015
vn -0.13289 0.01011 -0.99108
vn -0.12293 -0.23306 -0.96466
vn -0.13081 -0.52037 -0.84386
vn -0.10889 -0.83479 -0.53970
vn 0.11240 -0.97984 -0.16518
vn 0.28347 -0.89339 0.34858
vn 0.42818 -0.61958 0.65786
vn 0.51850 -0.31170 0.79624
vn 0.55362 -0.00445 0.83276
vn 0.53282 0.30277 0.79021
vn 0.45105 0.60963 0.65184
vn 0.30057 0.88220 0.36246
vn 0.10103 0.98903 -0.10773
vn -0.05231 0.80583 -0.58983
vn -0.08761 0.48186 -0.87185
vn -0.05269 0.20968 -0.97635
vn -0.01557 0.00831 -0.99984
vn -0.00631 -0.18040 -0.98357
vn -0.01810 -0.42725 -0.90395
vn 0.00002 -0.75435 -0.65648
vn 0.18022 -0.93794 -0.29630
vn 0.39142 -0.88788 0.24176
vn 0.55151 -0.60955 0.56947
vn 0.64095 -0.30062 0.70627
vn 0.67281 -0.00098 0.73981
vn 0.65062 0.29733 0.69878
vn 0.56620 0.60103 0.56407
vn 0.39905 0.87628 0.27000
vn 0.15974 0.96428 -0.21130
vn -0.02968 0.74125 -0.67057
vn -0.07338 0.41265 -0.90793
vn -0.03227 0.16955 -0.98499
vn 0.01152 0.00818 -0.99990
vn 0.02270 -0.13704 -0.99031
vn 0.01000 -0.34332 -0.93916
vn 0.03501 -0.66091 -0.74964
vn 0.16863 -0.91454 -0.36767
vn 0.44661 -0.88057 0.15858
vn 0.63927 -0.60014 0.48079
vn 0.73579 -0.29400 0.61006
vn 0.76766 -0.00300 0.64085
vn 0.74362 0.28720 0.60377
vn 0.65105 0.58963 0.47798
vn 0.45341 0.87044 0.19171
vn 0.15119 0.94883 -0.27724
vn -0.09332 0.70551 -0.70253
vn -0.15612 0.37905 -0.91211
vn -0.11396 0.15043 -0.98203
vn -0.06439 0.00658 -0.99790
vn -0.05183 -0.11916 -0.99152
vn -0.06619 -0.30698 -0.94941
vn -0.02883 -0.61746 -0.78607
vn 0.12606 -0.90680 -0.40226
vn 0.48208 -0.87417 0.05854
vn 0.71939 -0.59764 0.35399
vn 0.82881 -0.29396 0.47608
vn 0.86242 -0.00899 0.50611
vn 0.83688 0.27480 0.47341
vn 0.73503 0.57549 0.35852
vn 0.50425 0.85820 0.09607
vn 0.13628 0.93715 -0.32121
vn -0.17772 0.70372 -0.68789
vn -0.28959 0.38887 -0.87459
vn -0.27428 0.15846 -0.94851
vn -0.23391 0.00484 -0.97225
vn -0.21950 -0.13208 -0.96663
vn -0.21860 -0.32690 -0.91943
vn -0.14125 -0.62825 -0.76508
vn 0.05049 -0.95136 -0.30392
vn 0.48438 -0.87418 -0.03427
vn 0.77717 -0.60749 0.16422
vn 0.91579 -0.30436 0.26211
vn 0.95605 -0.01305 0.29292
vn 0.92111 0.27753 0.27302
vn 0.79104 0.58090 0.19186
vn 0.50953 0.86024 0.01903
vn 0.07299 0.96958 -0.23365
vn -0.35050 0.81718 -0.45757
vn -0.60812 0.53713 -0.58453
vn -0.71974 0.26046 -0.64353
vn -0.74487 0.00743 -0.66717
vn -0.70719 -0.24111 -0.66464
vn -0.59279 -0.50599 -0.62655
vn -0.35071 -0.77908 -0.51964
vn -0.01168 -0.99223 -0.12387
vn 0.45088 -0.87634 -0.16955
vn 0.77554 -0.61254 -0.15278
vn 0.94263 -0.31095 -0.12153
vn 0.99470 -0.01292 -0.10202
vn 0.95299 0.28554 -0.10139
vn 0.79879 0.59017 -0.11679
vn 0.48689 0.86351 -0.13147
vn 0.02663 0.99370 -0.10887
vn -0.43989 0.89770 -0.02518
vn -0.76486 0.63753 0.09243
vn -0.92579 0.32472 0.19355
vn -0.96983 0.01208 0.24346
vn -0.92708 -0.29963 0.22526
vn -0.77704 -0.61463 0.13575
vn -0.46762 -0.88392 -0.00259
vn -0.02662 -0.99715 -0.07057
vn 0.39425 -0.86602 -0.30754
vn 0.69108 -0.59877 -0.40483
vn 0.85291 -0.30505 -0.42366
vn 0.90927 -0.01297 -0.41600
vn 0.87193 0.28187 -0.40036
vn 0.72509 0.58276 -0.36692
vn 0.43480 0.85703 -0.27650
vn 0.01064 0.99676 -0.07971
vn -0.40509 0.89156 0.20256
vn -0.64898 0.60494 0.46138
vn -0.72521 0.29181 0.62363
vn -0.72634 0.01219 0.68722
vn -0.70427 -0.26028 0.66050
vn -0.63456 -0.56600 0.52628
vn -0.42161 -0.86873 0.25990
vn -0.03111 -0.99779 -0.05865
vn 0.35456 -0.88044 -0.31482
vn 0.64123 -0.62253 -0.44864
vn 0.80594 -0.32287 -0.49620
vn 0.86525 -0.01659 -0.50107
vn 0.82648 0.29258 -0.48097
vn 0.67709 0.59995 -0.42615
vn 0.39567 0.86735 -0.30192
vn 0.00318 0.99710 -0.07600
vn -0.37924 0.90011 0.21444
vn -0.62110 0.62900 0.46754
vn -0.71723 0.31262 0.62278
vn -0.73233 0.01043 0.68087
vn -0.70379 -0.28732 0.64971
vn -0.61225 -0.59927 0.51577
vn -0.39326 -0.88145 0.26152
vn -0.03337 -0.99811 -0.05159
vn 0.32943 -0.89484 -0.30122
vn 0.61081 -0.64811 -0.45482
vn 0.77941 -0.34233 -0.52472
vn 0.84105 -0.01979 -0.54059
vn 0.79972 0.30581 -0.51665
vn 0.64606 0.62024 -0.44488
vn 0.36928 0.87941 -0.30046
vn -0.00122 0.99755 -0.06997
vn -0.36395 0.90869 0.20448
vn -0.61458 0.65412 0.44092
vn -0.73549 0.33457 0.58917
vn -0.76509 0.00897 0.64386
vn -0.72881 -0.31432 0.60830
vn -0.61262 -0.63210 0.47451
vn -0.37880 -0.89414 0.23879
vn -0.03429 -0.99833 -0.04647
vn 0.31236 -0.90311 -0.29466
vn 0.58774 -0.66340 -0.46311
vn 0.75692 -0.35308 -0.54992
vn 0.81865 -0.01827 -0.57400
vn 0.77451 0.31925 -0.54610
vn 0.61828 0.63719 -0.46013
vn 0.34766 0.88830 -0.30010
vn -0.00369 0.99784 -0.06562
vn -0.34965 0.91537 0.19962
vn -0.60387 0.67343 0.42643
vn -0.74125 0.35304 0.57089
vn -0.78143 0.01162 0.62388
vn -0.74045 -0.32913 0.58601
vn -0.60921 -0.65081 0.45311
vn -0.36800 -0.90134 0.22841
vn -0.03637 -0.99826 -0.04632
vn 0.29997 -0.90871 -0.29029
vn 0.57177 -0.67474 -0.46670
vn 0.74208 -0.36110 -0.56473
vn 0.80393 -0.01604 -0.59451
vn 0.75685 0.33127 -0.56343
vn 0.59772 0.65123 -0.46759
vn 0.33117 0.89502 -0.29878
vn -0.00677 0.99783 -0.06554
vn -0.34163 0.92049 0.18972
vn -0.59949 0.68857 0.40802
vn -0.74995 0.36812 0.54960
vn -0.79849 0.01477 0.60183
vn -0.75367 -0.33929 0.56290
vn -0.61077 -0.66393 0.43146
vn -0.36330 -0.90636 0.21569
vn -0.04276 -0.99743 -0.05747
vn 0.28676 -0.91183 -0.29382
vn 0.55647 -0.68343 -0.47252
vn 0.72856 -0.36849 -0.57742
vn 0.79120 -0.01582 -0.61135
vn 0.74190 0.33902 -0.57848
vn 0.58018 0.66020 -0.47700
vn 0.31591 0.89842 -0.30504
vn -0.01395 0.99696 -0.07665
vn -0.34330 0.92402 0.16833
vn -0.60608 0.69950 0.37864
vn -0.76753 0.37861 0.51725
vn -0.82245 0.01565 0.56862
vn -0.77370 -0.34877 0.52891
vn -0.62031 -0.67519 0.39918
vn -0.36629 -0.91053 0.19174
vn -0.04806 -0.99663 -0.06652
vn 0.27857 -0.91416 -0.29445
vn 0.54838 -0.68991 -0.47255
vn 0.72279 -0.37376 -0.58127
vn 0.78621 -0.01480 -0.61778
vn 0.73458 0.34607 -0.58363
vn 0.56977 0.66786 -0.47889
vn 0.30585 0.90128 -0.30686
vn -0.01956 0.99617 -0.08522
vn -0.34629 0.92624 0.14889
vn -0.61377 0.70741 0.35051
vn -0.78423 0.38682 0.48513
vn -0.84446 0.01725 0.53534
vn -0.79277 -0.35455 0.49579
vn -0.63105 -0.68224 0.36922
vn -0.37105 -0.91282 0.17051
vn -0.05399 -0.99642 -0.06511
vn 0.27479 -0.91773 -0.28680
vn 0.54905 -0.69492 -0.46436
vn 0.72844 -0.37277 -0.57482
vn 0.79202 -0.00299 -0.61049
vn 0.73465 0.36507 -0.57185
vn 0.56299 0.68511 -0.46225
vn 0.29692 0.90961 -0.29059
vn -0.02470 0.99666 -0.07788
vn -0.34643 0.92741 0.14107
vn -0.61500 0.71640 0.32946
vn -0.79322 0.40116 0.45811
vn -0.86075 0.02953 0.50817
vn -0.81009 -0.34820 0.47171
vn -0.64394 -0.67976 0.35110
vn -0.37920 -0.91108 0.16170
vn -0.05561 -0.99652 -0.06211
vn 0.27358 -0.92055 -0.27883
vn 0.55135 -0.69822 -0.45662
vn 0.73549 -0.36716 -0.56943
vn 0.79716 0.01629 -0.60355
vn 0.73097 0.39145 -0.55897
vn 0.55080 0.70646 -0.44444
vn 0.28521 0.91780 -0.27623
vn -0.02805 0.99677 -0.07531
vn -0.34082 0.93137 0.12802
vn -0.60837 0.73293 0.30447
vn -0.79585 0.42553 0.43076
vn -0.87331 0.04988 0.48461
vn -0.82463 -0.33833 0.45335
vn -0.65330 -0.67721 0.33851
vn -0.38290 -0.91041 0.15666
vn -0.03406 -0.99792 -0.05468
vn 0.29296 -0.91858 -0.26531
vn 0.56788 -0.69460 -0.44164
vn 0.74797 -0.36161 -0.55658
vn 0.80502 0.02305 -0.59279
vn 0.73547 0.39682 -0.54919
vn 0.55529 0.70785 -0.43657
vn 0.29364 0.91610 -0.27301
vn -0.01199 0.99662 -0.08126
vn -0.32016 0.94044 0.11433
vn -0.59295 0.75119 0.29003
vn -0.79145 0.44424 0.41982
vn -0.87645 0.05895 0.47786
vn -0.82554 -0.34167 0.44917
vn -0.64389 -0.68737 0.33606
vn -0.36372 -0.91808 0.15759
vn -0.03235 -0.99830 -0.04851
vn 0.29672 -0.92100 -0.25242
vn 0.57460 -0.69956 -0.42479
vn 0.75849 -0.36665 -0.53876
vn 0.81764 0.02158 -0.57533
vn 0.74699 0.39877 -0.53197
vn 0.56430 0.71115 -0.41932
vn 0.29990 0.91908 -0.25565
vn -0.00818 0.99789 -0.06442
vn -0.31783 0.93948 0.12789
vn -0.59182 0.74902 0.29785
vn -0.79184 0.44177 0.42169
vn -0.87820 0.05666 0.47493
vn -0.82769 -0.34371 0.44361
vn -0.64492 -0.68899 0.33071
vn -0.36312 -0.91852 0.15640
vn -0.04824 -0.99769 -0.04777
vn 0.28297 -0.92636 -0.24857
vn 0.56645 -0.70969 -0.41890
vn 0.75931 -0.37484 -0.53192
vn 0.82340 0.02186 -0.56704
vn 0.75054 0.40676 -0.52080
vn 0.56184 0.72150 -0.40469
vn 0.29297 0.92564 -0.23951
vn -0.01915 0.99877 -0.04582
vn -0.32989 0.93283 0.14495
vn -0.59966 0.73920 0.30658
vn -0.79564 0.43433 0.42228
vn -0.88102 0.05474 0.46990
vn -0.83303 -0.34048 0.43605
vn -0.65525 -0.68260 0.32359
vn -0.37798 -0.91312 0.15281
f 1//1 17//17 18//18 2//2
f 2//2 18//18 19//19 3//3
f 3//3 19//19 20//20 4//4
f 4//4 20//20 21//21 5//5
f 5//5 21//21 22//22 6//6
f 6//6 22//22 23//23 7//7
f 7//7 23//23 24//24 8//8
f 8//8 24//24 25//25 9//9
f 9//9 25//25 26//26 10//10
f 10//10 26//26 27//27 11//11
f 11//11 27//27 28//28 12//12
f 12//12 28//28 29//29 13//13
f 13//13 29//29 30//30 14//14
f 14//14 30//30 31//31 15//15
f 15//15 31//31 32//32 16//16
f 16//16 32//32 17//17 1//1
f 17//17 33//33 34//34 18//18
f 18//18 34//34 35//35 19//19
f 19//19 35//35 36//36 20//20
f 20//20 36//36 37//37 21//21
f 21//21 37//37 38//38 22//22
f 22//22 38//38 39//39 23//23
f 23//23 39//39 40//40 24//24
f 24//24 40//40 41//41 25//25
f 25//25 41//41 42//42 26//26
f 26//26 42//42 43//43 27//27
f 27//27 43//43 44//44 28//28
f 28//28 44//44 45//45 29//29
f 29//29 45//45 46//46 30//30
f 30//30 46//46 47//47 31//31
f 31//31 47//47 48//48 32//32
f 32//32 48//48 33//33 17//17
f 33//33 49//49 50//50 34//34
f 34//34 50//50 51//51 35//35
f 35//35 51//51 52//52 36//36
f 36//36 52//52 53//53 37//37
f 37//37 53//53 54//54 38//38
f 38//38 54//54 55//55 39//39
f 39//39 55//55 56//56 40//40
f 40//40 56//56 57//57 41//41
f 41//41 57//57 58//58 42//42
f 42//42 58//58 59//59 43//43
f 43//43 59//59 60//60 44//44
f 44//44 60//60 61//61 45//45
f 45//45 61//61 62//62 46//46
f 46//46 62//62 63//63 47//47
f 47//47 63//63 64//64 48//48
f 48//48 64//64 49//49 33//33
f 49//49 65//65 66//66 50//50
f 50//50 66//66 67//67 51//51
f 51//51 67//67 68//68 52//52
f 52//52 68//68 69//69 53//53
f 53//53 69//69 70//70 54//54
f 54//54 70//70 71//71 55//55
f 55//55 71//71 72//72 56//56
f 56//56 72//72 73//73 57//57
f 57//57 73//73 74//74 58//58
f 58//58 74//74 75//75 59//59
f 59//59 75//75 76//76 60//60
f 60//60 76//76 77//77 61//61
f 61//61 77//77 78//78 62//62
f 62//62 78//78 79//79 63//63
f 63//63 79//79 80//80 64//64
f 64//64 80//80 65//65 49//49
f 65//65 81//81 82//82 66//66
f 66//66 82//82 83//83 67//67
f 67//67 83//83 84//84 68//68
f 68//68 84//84 85//85 69//69
f 69//69 85//85 86//86 70//70
f 70//70 86//86 87//87 71//71
f 71//71 87//87 88//88 72//72
f 72//72 88//88 89//89 73//73
f 73//73 89//89 90//90 74//74
f 74//74 90//90 91//91 75//75
f 75//75 91//91 92//92 76//76
f 76//76 92//92 93//93 77//77
f 77//77 93//93 94//94 78//78
f 78//78 94//94 95//95 79//79
f 79//79 95//95 96//96 80//80
f 80//80 96//96 81//81 65//65
f 81//81 97//97 98//98 82//82
f 82//82 98//98 99//99 83//83
f 83//83 99//99 100//100 84//84
f 84//84 100//100 101//101 85//85
f 85//85 101//101 102//102 86//86
f 86//86 102//102 103//103 87//87
f 87//87 103//103 104//104 88//88
f 88//88 104//104 105//105 89//89
f 89//89 105//105 106//106 90//90
f 90//90 106//106 107//107 91//91
f 91//91 107//107 108//108 92//92
f 92//92 108//108 109//109 93//93
f 93//93 109//109 110//110 94//94
f 94//94 110//110 111//111 95//95
f 95//95 111//111 112//112 96//96
f 96//96 112//112 97//97 81//81
f 97//97 113//113 114//114 98//98
f 98//98 114//114 115//115 99//99
f 99//99 115//115 116//116 100//100
f 100//100 116//116 117//117 101//101
f 101//101 117//117 118//118 102//102
f 102//102 118//118 119//119 103//103
f 103//103 119//119 120//120 104//104
f 104//104 120//120 121//121 105//105
f 105//105 121//121 122//122 106//106
f 106//106 122//122 123//123 107//107
f 107//107 123//123 124//124 108//108
f 108//108 124//124 125//125 109//109
f 109//109 125//125 126//126 110//110
f 110//110 126//126 127//127 111//111
f 111//111 127//127 128//128 112//112
f 112//112 128//128 113//113 97//97
f 113//113 129//129 130//130 114//114
f 114//114 130//130 131//131 115//115
f 115//115 131//131 132//132 116//116
f 116//116 132//132 133//133 117//117
f 117//117 133//133 134//134 118//118
f 118//118 134//134 135//135 119//119
f 119//119 135//135 136//136 120//120
f 120//120 136//136 137//137 121//121
f 121//121 137//137 138//138 122//122
f 122//122 138//138 139//139 123//123
f 123//123 139//139 140//140 124//124
f 124//124 140//140 141//141 125//125
f 125//125 141//141 142//142 126//126
f 126//126 142//142 143//143 127//127
f 127//127 143//143 144//144 128//128
f 128//128 144//144 129//129 113//113
f 129//129 145//145 146//146 130//130
f 130//130 146//146 147//147 131//131
f 131//131 147//147 148//148 132//132
f 132//132 148//148 149//149 133//133
f 133//133 149//149 150//150 134//134
f 134//134 150//150 151//151 135//135
f 135//135 151//151 152//152 136//136
f 136//136 152//152 153//153 137//137
f 137//137 153//153 154//154 138//138
f 138//138 154//154 155//155 139//139
f 139//139 155//155 156//156 140//140
f 140//140 156//156 157//157 141//141
f 141//141 157//157 158//158 142//142
f 142//142 158//158 159//159 143//143
f 143//143 159//159 160//160 144//144
f 144//144 160//160 145//145 129//129
f 145//145 161//161 162//162 146//146
f 146//146 162//162 163//163 147//147
f 147//147 163//163 164//164 148//148
f 148//148 164//164 165//165 149//149
f 149//149 165//165 166//166 150//150
f 150//150 166//166 167//167 151//151
f 151//151 167//167 168//168 152//152
f 152//152 168//168 169//169 153//153
f 153//153 169//169 170//170 154//154
f 154//154 170//170 171//171 155//155
f 155//155 171//171 172//172 156//156
f 156//156 172//172 173//173 157//157
f 157//157 173//173 174//174 158//158
f 158//158 174//174 175//175 159//159
f 159//159 175//175 176//176 160//160
f 160//160 176//176 161//161 145//145
f 161//161 177//177 178//178 162//162
f 162//162 178//178 179//179 163//163
f 163//163 179//179 180//180 164//164
f 164//164 180//180 181//181 165//165
f 165//165 181//181 182//182 166//166
f 166//166 182//182 183//183 167//167
f 167//167 183//183 184//184 168//168
f 168//168 184//184 185//185 169//169
f 169//169 185//185 186//186 170//170
f 170//170 186//186 187//187 171//171
f 171//171 187//187 188//188 172//172
f 172//172 188//188 189//189 173//173
f 173//173 189//189 190//190 174//174
f 174//174 190//190 191//191 175//175
f 175//175 191//191 192//192 176//176
f 176//176 192//192 177//177 161//161
f 177//177 193//193 194//194 178//178
f 178//178 194//194 195//195 179//179
f 179//179 195//195 196//196 180//180
f 180//180 196//196 197//197 181//181
f 181//181 197//197 198//198 182//182
f 182//182 198//198 199//199 183//183
f 183//183 199//199 200//200 184//184
f 184//184 200//200 201//201 185//185
f 185//185 201//201 202//202 186//186
f 186//186 202//202 203//203 187//187
f 187//187 203//203 204//204 188//188
f 188//188 204//204 205//205 189//189
f 189//189 205//205 206//206 190//190
f 190//190 206//206 207//207 191//191
f 191//191 207//207 208//208 192//192
f 192//192 208//208 193//193 177//177
f 193//193 209//209 210//210 194//194
f 194//194 210//210 211//211 195//195
f 195//195 211//211 212//212 196//196
f 196//196 212//212 213//213 197//197
f 197//197 213//213 214//214 198//198
f 198//198 214//214 215//215 199//199
f 199//199 215//215 216//216 200//200
f 200//200 216//216 217//217 201//201
f 201//201 217//217 218//218 202//202
f 202//202 218//218 219//219 203//203
f 203//203 219//219 220//220 204//204
f 204//204 220//220 221//221 205//205
f 205//205 221//221 222//222 206//206
f 206//206 222//222 223//223 207//207
f 207//207 223//223 224//224 208//208
f 208//208 224//224 209//209 193//193
f 209//209 225//225 226//226 210//210
f 210//210 226//226 227//227 211//211
f 211//211 227//227 228//228 212//212
f 212//212 228//228 229//229 213//213
f 213//213 229//229 230//230 214//214
f 214//214 230//230 231//231 215//215
f 215//215 231//231 232//232 216//216
f 216//216 232//232 233//233 217//217
f 217//217 233//233 234//234 218//218
f 218//218 234//234 235//235 219//219
f 219//219 235//235 236//236 220//220
f 220//220 236//236 237//237 221//221
f 221//221 237//237 238//238 222//222
f 222//222 238//238 239//239 223//223
f 223//223 239//239 240//240 224//224
f 224//224 240//240 225//225 209//209
f 225//225 241//241 242//242 226//226
f 226//226 242//242 243//243 227//227
f 227//227 243//243 244//244 228//228
f 228//228 244//244 245//245 229//229
f 229//229 245//245 246//246 230//230
f 230//230 246//246 247//247 231//231
f 231//231 247//247 248//248 232//232
f 232//232 248//248 249//249 233//233
f 233//233 249//249 250//250 234//234
f 234//234 250//250 251//251 235//235
f 235//235 251//251 252//252 236//236
f 236//236 252//252 253//253 237//237
f 237//237 253//253 254//254 238//238
f 238//238 254//254 255//255 239//239
f 239//239 255//255 256//256 240//240
f 240//240 256//256 241//241 225//225
f 241//241 257//257 258//258 242//242
f 242//242 258//258 259//259 243//243
f 243//243 259//259 260//260 244//244
f 244//244 260//260 261//261 245//245
f 245//245 261//261 262//262 246//246
f 246//246 262//262 263//263 247//247
f 247//247 263//263 264//264 248//248
f 248//248 264//264 265//265 249//249
f 249//249 265//265 266//266 250//250
f 250//250 266//266 267//267 251//251
f 251//251 267//267 268//268 252//252
f 252//252 268//268 269//269 253//253
f 253//253 269//269 270//270 254//254
f 254//254 270//270 271//271 255//255
f 255//255 271//271 272//272 256//256
f 256//256 272//272 257//257 241//241
f 257//257 273//273 274//274 258//258
f 258//258 274//274 275//275 259//259
f 259//259 275//275 276//276 260//260
f 260//260 276//276 277//277 261//261
f 261//261 277//277 278//278 262//262
f 262//262 278//278 279//279 263//263
f 263//263 279//279 280//280 264//264
f 264//264 280//280 281//281 265//265
f 265//265 281//281 282//282 266//266
f 266//266 282//282 283//283 267//267
f 267//267 283//283 284//284 268//268
f 268//268 284//284 285//285 269//269
f 269//269 285//285 286//286 270//270
f 270//270 286//286 287//287 271//271
f 271//271 287//287 288//288 272//272
f 272//272 288//288 273//273 257//257
f 273//273 289//289 290//290 274//274
f 274//274 290//290 291//291 275//275
f 275//275 291//291 292//292 276//276
f 276//276 292//292 293//293 277//277
f 277//277 293//293 294//294 278//278
f 278//278 294//294 295//295 279//279
f 279//279 295//295 296//296 280//280
f 280//280 296//296 297//297 281//281
f 281//281 297//297 298//298 282//282
f 282//282 298//298 299//299 283//283
f 283//283 299//299 300//300 284//284
f 284//284 300//300 301//301 285//285
f 285//285 301//301 302//302 286//286
f 286//286 302//302 303//303 287//287
f 287//287 303//303 304//304 288//288
f 288//288 304//304 289//289 273//273
f 289//289 305//305 306//306 290//290
f 290//290 306//306 307//307 291//291
f 291//291 307//307 308//308 292//292
f 292//292 308//308 309//309 293//293
f 293//293 309//309 310//310 294//294
f 294//294 310//310 311//311 295//295
f 295//295 311//311 312//312 296//296
f 296//296 312//312 313//313 297//297
f 297//297 313//313 314//314 298//298
f 298//298 314//314 315//315 299//299
f 299//299 315//315 316//316 300//300
f 300//300 316//316 317//317 301//301
f 301//301 317//317 318//318 302//302
f 302//302 318//318 319//319 303//303
f 303//303 319//319 320//320 304//304
f 304//304 320//320 305//305 289//289
f 305//305 321//321 322//322 306//306
f 306//306 322//322 323//323 307//307
f 307//307 323//323 324//324 308//308
f 308//308 324//324 325//325 309//309
f 309//309 325//325 326//326 310//310
f 310//310 326//326 327//327 311//311
f 311//311 327//327 328//328 312//312
f 312//312 328//328 329//329 313//313
f 313//313 329//329 330//330 314//314
f 314//314 330//330 331//331 315//315
f 315//315 331//331 332//332 316//316
f 316//316 332//332 333//333 317//317
f 317//317 333//333 334//334 318//318
f 318//318 334//334 335//335 319//319
f 319//319 335//335 336//336 320//320
f 320//320 336//336 321//321 305//305
f 321//321 337//337 338//338 322//322
f 322//322 338//338 339//339 323//323
f 323//323 339//339 340//340 324//324
f 324//324 340//340 341//341 325//325
f 325//325 341//341 342//342 326//326
f 326//326 342//342 343//343 327//327
f 327//327 343//343 344//344 328//328
f 328//328 344//344 345//345 329//329
f 329//329 345//345 346//346 330//330
f 330//330 346//346 347//347 331//331
f 331//331 347//347 348//348 332//332
f 332//332 348//348 349//349 333//333
f 333//333 349//349 350//350 334//334
f 334//334 350//350 351//351 335//335
f 335//335 351//351 352//352 336//336
f 336//336 352//352 337//337 321//321
f 337//337 353//353 354//354 338//338
f 338//338 354//354 355//355 339//339
f 339//339 355//355 356//356 340//340
f 340//340 356//356 357//357 341//341
f 341//341 357//357 358//358 342//342
f 342//342 358//358 359//359 343//343
f 343//343 359//359 360//360 344//344
f 344//344 360//360 361//361 345//345
f 345//345 361//361 362//362 346//346
f 346//346 362//362 363//363 347//347
f 347//347 363//363 364//364 348//348
f 348//348 364//364 365//365 349//349
f 349//349 365//365 366//366 350//350
f 350//350 366//366 367//367 351//351
f 351//351 367//367 368//368 352//352
f 352//352 368//368 353//353 337//337
f 353//353 369//369 370//370 354//354
f 354//354 370//370 371//371 355//355
f 355//355 371//371 372//372 356//356
f 356//356 372//372 373//373 357//357
f 357//357 373//373 374//374 358//358
f 358//358 374//374 375//375 359//359
f 359//359 375//375 376//376 360//360
f 360//360 376//376 377//377 361//361
f 361//361 377//377 378//378 362//362
f 362//362 378//378 379//379 363//363
f 363//363 379//379 380//380 364//364
f 364//364 380//380 381//381 365//365
f 365//365 381//381 382//382 366//366
f 366//366 382//382 383//383 367//367
f 367//367 383//383 384//384 368//368
f 368//368 384//384 369//369 353//353
f 369//369 385//385 386//386 370//370
f 370//370 386//386 387//387 371//371
f 371//371 387//387 388//388 372//372
f 372//372 388//388 389//389 373//373
f 373//373 389//389 390//390 374//374
f 374//374 390//390 391//391 375//375
f 375//375 391//391 392//392 376//376
f 376//376 392//392 393//393 377//377
f 377//377 393//393 394//394 378//378
f 378//378 394//394 395//395 379//379
f 379//379 395//395 396//396 380//380
f 380//380 396//396 397//397 381//381
f 381//381 397//397 398//398 382//382
f 382//382 398//398 399//399 383//383
f 383//383 399//399 400//400 384//384
f 384//384 400//400 385//385 369//369
f 385//385 401//401 402//402 386//386
f 386//386 402//402 403//403 387//387
f 387//387 403//403 404//404 388//388
f 388//388 404//404 405//405 389//389
f 389//389 405//405 406//406 390//390
f 390//390 406//406 407//407 391//391
f 391//391 407//407 408//408 392//392
f 392//392 408//408 409//409 393//393
f 393//393 409//409 410//410 394//394
f 394//394 410//410 411//411 395//395
f 395//395 411//411 412//412 396//396
f 396//396 412//412 413//413 397//397
f 397//397 413//413 414//414 398//398
f 398//398 414//414 415//415 399//399
f 399//399 415//415 416//416 400//400
f 400//400 416//416 401//401 385//385
