# tube retopo
v -0.108403 -0.257850 -0.578029
v 0.043656 -0.271316 -0.660102
v 0.187483 -0.205010 -0.726621
v 0.267776 -0.061457 -0.748780
v 0.261616 0.092423 -0.723901
v 0.194829 0.200102 -0.673549
v 0.105545 0.259006 -0.618191
v 0.004423 0.279120 -0.562042
v -0.110152 0.256681 -0.504782
v -0.220369 0.164497 -0.459623
v -0.278931 0.005372 -0.451111
v -0.227083 -0.154449 -0.500916
v -0.104330 -0.259247 -0.500129
v 0.047469 -0.270558 -0.509867
v 0.181766 -0.208831 -0.509067
v 0.261915 -0.090922 -0.497947
v 0.271146 0.044513 -0.480670
v 0.219049 0.166473 -0.461828
v 0.117294 0.251909 -0.445080
v -0.016481 0.276722 -0.434549
v -0.149419 0.230444 -0.433396
v -0.247600 0.123744 -0.442064
v -0.275725 -0.021494 -0.459600
v -0.221817 -0.162331 -0.481019
v -0.096134 -0.260878 -0.377229
v 0.050543 -0.269946 -0.389367
v 0.180285 -0.209820 -0.391771
v 0.260619 -0.097436 -0.384070
v 0.272839 0.036002 -0.368673
v 0.224142 0.158851 -0.349991
v 0.123777 0.247577 -0.331596
v -0.012951 0.277424 -0.317665
v -0.150473 0.229740 -0.313155
v -0.251343 0.118141 -0.319216
v -0.273638 -0.031983 -0.335895
v -0.215662 -0.171541 -0.357319
v -0.109507 -0.257112 -0.226125
v 0.042985 -0.271450 -0.251839
v 0.181239 -0.209183 -0.271881
v 0.263055 -0.085188 -0.279956
v 0.268423 0.058202 -0.274609
v 0.209031 0.181466 -0.259481
v 0.102935 0.259525 -0.238632
v -0.026365 0.274756 -0.216695
v -0.151275 0.229204 -0.198122
v -0.245872 0.126330 -0.187027
v -0.276799 -0.016095 -0.188127
v -0.225116 -0.157393 -0.202770
v -0.114965 -0.253465 -0.064929
v 0.038401 -0.272362 -0.115084
v 0.181293 -0.209146 -0.163671
v 0.265097 -0.074923 -0.194398
v 0.264113 0.079871 -0.197629
v 0.190892 0.202733 -0.176299
v 0.077749 0.264535 -0.140398
v -0.039906 0.272062 -0.101762
v -0.150715 0.229578 -0.064235
v -0.239850 0.135342 -0.032668
v -0.279426 -0.002884 -0.016438
v -0.230760 -0.148947 -0.029135
v -0.120027 -0.250083 0.099964
v 0.029641 -0.274104 0.018099
v 0.175094 -0.213288 -0.062444
v 0.266042 -0.070172 -0.114031
v 0.259407 0.103527 -0.112418
v 0.165431 0.219745 -0.062195
v 0.057740 0.268515 -0.003658
v -0.043408 0.271366 0.051824
v -0.140157 0.236633 0.105330
v -0.227674 0.153565 0.154334
v -0.277349 0.013329 0.183235
v -0.235118 -0.142423 0.161875
v -0.090477 -0.262003 0.296504
v 0.035174 -0.273003 0.182769
v 0.160100 -0.223307 0.070289
v 0.261915 -0.090921 -0.020476
v 0.259978 0.100658 -0.016833
v 0.162692 0.221575 0.072337
v 0.064726 0.267125 0.161378
v -0.024986 0.275030 0.242583
v -0.120151 0.250000 0.328394
v -0.221533 0.162755 0.419214
v -0.277782 -0.011151 0.468362
v -0.210285 -0.179589 0.405661
v -0.066925 -0.266688 0.579513
v 0.027671 -0.274496 0.446893
v 0.130059 -0.243380 0.303757
v 0.245118 -0.127457 0.143742
v 0.259217 0.104481 0.126378
v 0.144552 0.233696 0.288370
v 0.053373 0.269383 0.416490
v -0.022132 0.275598 0.522345
v -0.107098 0.258697 0.641216
v -0.215529 0.171741 0.792244
v -0.271214 -0.044168 0.868040
v -0.174945 -0.213388 0.731412
v 0.447680 -0.085202 0.274123
v 0.453502 -0.085990 0.229841
v 0.458622 -0.066680 0.190910
v 0.461879 -0.030988 0.166164
v 0.462358 0.012808 0.162548
v 0.460088 0.053894 0.179849
v 0.455438 0.082931 0.215233
v 0.449300 0.087628 0.261925
v 0.443499 0.068722 0.306033
v 0.439788 0.029011 0.334229
v 0.439543 -0.019832 0.336055
v 0.442388 -0.062514 0.314392
v 0.568534 -0.084132 0.279502
v 0.569798 -0.086806 0.233945
v 0.570949 -0.067732 0.192484
v 0.571683 -0.030242 0.166016
v 0.571763 0.015681 0.163119
v 0.571231 0.057591 0.182319
v 0.570178 0.084084 0.220260
v 0.568896 0.086727 0.266455
v 0.567734 0.067189 0.308327
v 0.567016 0.029040 0.334224
v 0.566949 -0.016855 0.336647
v 0.567488 -0.058307 0.317202
v 0.685660 -0.084215 0.279085
v 0.688349 -0.086794 0.233882
v 0.690796 -0.067898 0.192734
v 0.692378 -0.030849 0.166136
v 0.692564 0.015110 0.163006
v 0.691430 0.057234 0.182080
v 0.689175 0.084031 0.219991
v 0.686408 0.086715 0.266516
v 0.683903 0.066981 0.308640
v 0.682374 0.028443 0.334342
v 0.682246 -0.017622 0.336495
v 0.683418 -0.058926 0.316789
v 0.801576 -0.084407 0.278116
v 0.809041 -0.086960 0.234719
v 0.815942 -0.069149 0.194606
v 0.820757 -0.033259 0.166616
v 0.821441 0.013270 0.162640
v 0.818175 0.056552 0.181624
v 0.811558 0.084050 0.220089
v 0.803446 0.086570 0.267246
v 0.796132 0.066233 0.309759
v 0.791832 0.026356 0.334758
v 0.791620 -0.020175 0.335987
v 0.795134 -0.060764 0.315561
v 0.921762 -0.084375 0.278281
v 0.931079 -0.087114 0.235491
v 0.939786 -0.069750 0.195505
v 0.946028 -0.034379 0.166838
v 0.946960 0.012867 0.162559
v 0.942779 0.056753 0.181759
v 0.934295 0.084177 0.220724
v 0.924041 0.086457 0.267813
v 0.914808 0.065924 0.310220
v 0.909437 0.025715 0.334885
v 0.909231 -0.020952 0.335832
v 0.913709 -0.061209 0.315264
v 1.042701 -0.084466 0.277820
v 1.051968 -0.087068 0.235258
v 1.060616 -0.069777 0.195545
v 1.066863 -0.034444 0.166853
v 1.067810 0.012584 0.162503
v 1.063657 0.056478 0.181575
v 1.055227 0.084090 0.220291
v 1.044930 0.086503 0.267582
v 1.035662 0.065972 0.310148
v 1.030271 0.025607 0.334907
v 1.030080 -0.021212 0.335781
v 1.034596 -0.061541 0.315042
f 1 2 14 13
f 2 3 15 14
f 3 4 16 15
f 4 5 17 16
f 5 6 18 17
f 6 7 19 18
f 7 8 20 19
f 8 9 21 20
f 9 10 22 21
f 10 22 23 11
f 11 12 24 23
f 12 1 13 24
f 13 14 26 25
f 14 15 27 26
f 15 16 28 27
f 16 17 29 28
f 17 18 30 29
f 18 19 31 30
f 19 20 32 31
f 20 21 33 32
f 21 22 34 33
f 22 23 35 34
f 23 24 36 35
f 24 13 25 36
f 25 26 38 37
f 26 27 39 38
f 27 28 40 39
f 28 29 41 40
f 29 30 42 41
f 30 31 43 42
f 31 32 44 43
f 32 33 45 44
f 33 34 46 45
f 34 35 47 46
f 35 36 48 47
f 36 25 37 48
f 37 38 50 49
f 38 39 51 50
f 39 40 52 51
f 40 41 53 52
f 41 42 54 53
f 42 43 55 54
f 43 44 56 55
f 44 45 57 56
f 45 46 58 57
f 46 47 59 58
f 47 48 60 59
f 48 37 49 60
f 49 50 62 61
f 50 51 63 62
f 51 52 64 63
f 52 53 65 64
f 53 54 66 65
f 54 55 67 66
f 55 56 68 67
f 56 57 69 68
f 57 58 70 69
f 58 59 71 70
f 59 60 72 71
f 60 49 61 72
f 61 62 74 73
f 62 63 75 74
f 63 64 76 75
f 64 65 77 76
f 65 66 78 77
f 66 67 79 78
f 67 68 80 79
f 68 69 81 80
f 69 70 82 81
f 70 71 83 82
f 71 72 84 83
f 72 61 73 84
f 73 74 86 85
f 74 75 87 86
f 75 76 88 87
f 76 77 89 88
f 77 78 90 89
f 78 79 91 90
f 79 80 92 91
f 80 81 93 92
f 81 82 94 93
f 82 83 95 94
f 83 84 96 95
f 84 73 85 96
f 85 86 98 97
f 86 87 99 98
f 87 88 100 99
f 88 89 101 100
f 89 90 102 101
f 90 91 103 102
f 91 92 104 103
f 92 93 105 104
f 93 94 106 105
f 94 95 107 106
f 95 96 108 107
f 96 85 97 108
f 97 98 110 109
f 98 99 111 110
f 99 100 112 111
f 100 101 113 112
f 101 102 114 113
f 102 103 115 114
f 103 104 116 115
f 104 105 117 116
f 105 106 118 117
f 106 107 119 118
f 107 108 120 119
f 108 97 109 120
f 109 110 122 121
f 110 111 123 122
f 111 112 124 123
f 112 113 125 124
f 113 114 126 125
f 114 115 127 126
f 115 116 128 127
f 116 117 129 128
f 117 118 130 129
f 118 119 131 130
f 119 120 132 131
f 120 109 121 132
f 121 122 134 133
f 122 123 135 134
f 123 124 136 135
f 124 125 137 136
f 125 126 138 137
f 126 127 139 138
f 127 128 140 139
f 128 129 141 140
f 129 130 142 141
f 130 131 143 142
f 131 132 144 143
f 132 121 133 144
f 133 134 146 145
f 134 135 147 146
f 135 136 148 147
f 136 137 149 148
f 137 138 150 149
f 138 139 151 150
f 139 140 152 151
f 140 141 153 152
f 141 142 154 153
f 142 143 155 154
f 143 144 156 155
f 144 133 145 156
f 145 146 158 157
f 146 147 159 158
f 147 148 160 159
f 148 149 161 160
f 149 150 162 161
f 150 151 163 162
f 151 152 164 163
f 152 153 165 164
f 153 154 166 165
f 154 155 167 166
f 155 156 168 167
f 156 145 157 168
