# tube retopo
v 1.110278 0.000000 0.340000
v 1.110278 0.044148 0.326664
v 1.110278 0.076610 0.294227
v 1.110278 0.090000 0.250000
v 1.110278 0.076664 0.205852
v 1.110278 0.044227 0.173390
v 1.110278 -0.000000 0.160000
v 1.110278 -0.044148 0.173336
v 1.110278 -0.076610 0.205773
v 1.110278 -0.090000 0.250000
v 1.110278 -0.076664 0.294148
v 1.110278 -0.044227 0.326610
v 1.070556 0.000000 0.340000
v 1.070556 0.044144 0.326666
v 1.070556 0.076606 0.294234
v 1.070556 0.090000 0.250000
v 1.070556 0.076666 0.205856
v 1.070556 0.044234 0.173394
v 1.070556 0.000000 0.160000
v 1.070556 -0.044144 0.173334
v 1.070556 -0.076606 0.205766
v 1.070556 -0.090000 0.250000
v 1.070556 -0.076666 0.294144
v 1.070556 -0.044234 0.326606
v 1.030833 0.000000 0.340000
v 1.030833 0.044165 0.326652
v 1.030833 0.076639 0.294185
v 1.030833 0.090000 0.250000
v 1.030833 0.076652 0.205835
v 1.030833 0.044185 0.173361
v 1.030833 0.000000 0.160000
v 1.030833 -0.044165 0.173348
v 1.030833 -0.076639 0.205815
v 1.030833 -0.090000 0.250000
v 1.030833 -0.076652 0.294165
v 1.030833 -0.044185 0.326639
v 0.991111 0.000000 0.340000
v 0.991111 0.044209 0.326622
v 0.991111 0.076661 0.294152
v 0.991111 0.090000 0.250000
v 0.991111 0.076622 0.205791
v 0.991111 0.044152 0.173339
v 0.991111 -0.000000 0.160000
v 0.991111 -0.044209 0.173378
v 0.991111 -0.076661 0.205848
v 0.991111 -0.090000 0.250000
v 0.991111 -0.076622 0.294209
v 0.991111 -0.044152 0.326661
v 0.951389 0.000000 0.340000
v 0.951389 0.044237 0.326604
v 0.951389 0.076667 0.294143
v 0.951389 0.090000 0.250000
v 0.951389 0.076604 0.205763
v 0.951389 0.044143 0.173333
v 0.951389 -0.000000 0.160000
v 0.951389 -0.044237 0.173396
v 0.951389 -0.076667 0.205857
v 0.951389 -0.090000 0.250000
v 0.951389 -0.076604 0.294237
v 0.951389 -0.044143 0.326667
v 0.911667 0.000000 0.340000
v 0.911667 0.044208 0.326623
v 0.911667 0.076657 0.294157
v 0.911667 0.090000 0.250000
v 0.911667 0.076623 0.205792
v 0.911667 0.044157 0.173343
v 0.911667 0.000000 0.160000
v 0.911667 -0.044208 0.173377
v 0.911667 -0.076657 0.205843
v 0.911667 -0.090000 0.250000
v 0.911667 -0.076623 0.294208
v 0.911667 -0.044157 0.326657
v 0.871944 0.000000 0.340000
v 0.871944 0.044159 0.326656
v 0.871944 0.076625 0.294205
v 0.871944 0.090000 0.250000
v 0.871944 0.076656 0.205841
v 0.871944 0.044205 0.173375
v 0.871944 0.000000 0.160000
v 0.871944 -0.044159 0.173344
v 0.871944 -0.076625 0.205795
v 0.871944 -0.090000 0.250000
v 0.871944 -0.076656 0.294159
v 0.871944 -0.044205 0.326625
v 0.832222 0.000000 0.340000
v 0.832222 0.044143 0.326667
v 0.832222 0.076604 0.294236
v 0.832222 0.090000 0.250000
v 0.832222 0.076667 0.205857
v 0.832222 0.044236 0.173396
v 0.832222 -0.000000 0.160000
v 0.832222 -0.044143 0.173333
v 0.832222 -0.076604 0.205764
v 0.832222 -0.090000 0.250000
v 0.832222 -0.076667 0.294143
v 0.832222 -0.044236 0.326604
v 0.792500 0.000000 0.340000
v 0.792500 0.044151 0.326661
v 0.792500 0.076620 0.294212
v 0.792500 0.090000 0.250000
v 0.792500 0.076661 0.205849
v 0.792500 0.044212 0.173380
v 0.792500 0.000000 0.160000
v 0.792500 -0.044151 0.173339
v 0.792500 -0.076620 0.205788
v 0.792500 -0.090000 0.250000
v 0.792500 -0.076661 0.294151
v 0.792500 -0.044212 0.326620
v 0.752778 0.000000 0.340000
v 0.752778 0.044183 0.326640
v 0.752778 0.076651 0.294167
v 0.752778 0.090000 0.250000
v 0.752778 0.076640 0.205817
v 0.752778 0.044167 0.173349
v 0.752778 0.000000 0.160000
v 0.752778 -0.044183 0.173360
v 0.752778 -0.076651 0.205833
v 0.752778 -0.090000 0.250000
v 0.752778 -0.076640 0.294183
v 0.752778 -0.044167 0.326651
v 0.713056 0.000000 0.340000
v 0.713056 0.044233 0.326607
v 0.713056 0.076666 0.294145
v 0.713056 0.090000 0.250000
v 0.713056 0.076607 0.205767
v 0.713056 0.044145 0.173334
v 0.713056 0.000000 0.160000
v 0.713056 -0.044233 0.173393
v 0.713056 -0.076666 0.205855
v 0.713056 -0.090000 0.250000
v 0.713056 -0.076607 0.294233
v 0.713056 -0.044145 0.326666
v 0.673333 0.000000 0.340000
v 0.673333 0.044229 0.326609
v 0.673333 0.076664 0.294147
v 0.673333 0.090000 0.250000
v 0.673333 0.076609 0.205771
v 0.673333 0.044147 0.173336
v 0.673333 -0.000000 0.160000
v 0.673333 -0.044229 0.173391
v 0.673333 -0.076664 0.205853
v 0.673333 -0.090000 0.250000
v 0.673333 -0.076609 0.294229
v 0.673333 -0.044147 0.326664
v 0.633611 0.000000 0.340000
v 0.633611 0.044178 0.326643
v 0.633611 0.076647 0.294172
v 0.633611 0.090000 0.250000
v 0.633611 0.076643 0.205822
v 0.633611 0.044172 0.173353
v 0.633611 -0.000000 0.160000
v 0.633611 -0.044178 0.173357
v 0.633611 -0.076647 0.205828
v 0.633611 -0.090000 0.250000
v 0.633611 -0.076643 0.294178
v 0.633611 -0.044172 0.326647
v 0.593889 0.000000 0.340000
v 0.593889 0.044148 0.326663
v 0.593889 0.076612 0.294226
v 0.593889 0.090000 0.250000
v 0.593889 0.076663 0.205852
v 0.593889 0.044226 0.173388
v 0.593889 0.000000 0.160000
v 0.593889 -0.044148 0.173337
v 0.593889 -0.076612 0.205774
v 0.593889 -0.090000 0.250000
v 0.593889 -0.076663 0.294148
v 0.593889 -0.044226 0.326612
v 0.554167 0.000000 0.340000
v 0.554167 0.044144 0.326666
v 0.554167 0.076605 0.294235
v 0.554167 0.090000 0.250000
v 0.554167 0.076666 0.205856
v 0.554167 0.044235 0.173395
v 0.554167 0.000000 0.160000
v 0.554167 -0.044144 0.173334
v 0.554167 -0.076605 0.205765
v 0.554167 -0.090000 0.250000
v 0.554167 -0.076666 0.294144
v 0.554167 -0.044235 0.326605
v 0.514444 0.000000 0.340000
v 0.514444 0.044163 0.326653
v 0.514444 0.076637 0.294188
v 0.514444 0.090000 0.250000
v 0.514444 0.076653 0.205837
v 0.514444 0.044188 0.173363
v 0.514444 0.000000 0.160000
v 0.514444 -0.044163 0.173347
v 0.514444 -0.076637 0.205812
v 0.514444 -0.090000 0.250000
v 0.514444 -0.076653 0.294163
v 0.514444 -0.044188 0.326637
v 0.474722 0.000000 0.340000
v 0.474722 0.044207 0.326624
v 0.474722 0.076660 0.294153
v 0.474722 0.090000 0.250000
v 0.474722 0.076624 0.205793
v 0.474722 0.044153 0.173340
v 0.474722 0.000000 0.160000
v 0.474722 -0.044207 0.173376
v 0.474722 -0.076660 0.205847
v 0.474722 -0.090000 0.250000
v 0.474722 -0.076624 0.294207
v 0.474722 -0.044153 0.326660
v 0.435000 0.000000 0.340000
v 0.435000 0.044237 0.326604
v 0.435000 0.076667 0.294143
v 0.435000 0.090000 0.250000
v 0.435000 0.076604 0.205763
v 0.435000 0.044143 0.173333
v 0.435000 0.000000 0.160000
v 0.435000 -0.044237 0.173396
v 0.435000 -0.076667 0.205857
v 0.435000 -0.090000 0.250000
v 0.435000 -0.076604 0.294237
v 0.435000 -0.044143 0.326667
f 1 2 14 13
f 2 3 15 14
f 3 4 16 15
f 4 5 17 16
f 5 6 18 17
f 6 7 19 18
f 7 8 20 19
f 8 9 21 20
f 9 10 22 21
f 10 11 23 22
f 11 12 24 23
f 12 1 13 24
f 13 14 26 25
f 14 15 27 26
f 15 16 28 27
f 16 17 29 28
f 17 18 30 29
f 18 19 31 30
f 19 20 32 31
f 20 21 33 32
f 21 22 34 33
f 22 23 35 34
f 23 24 36 35
f 24 13 25 36
f 25 26 38 37
f 26 27 39 38
f 27 28 40 39
f 28 29 41 40
f 29 30 42 41
f 30 31 43 42
f 31 32 44 43
f 32 33 45 44
f 33 34 46 45
f 34 35 47 46
f 35 36 48 47
f 36 25 37 48
f 37 38 50 49
f 38 39 51 50
f 39 40 52 51
f 40 41 53 52
f 41 42 54 53
f 42 43 55 54
f 43 44 56 55
f 44 45 57 56
f 45 46 58 57
f 46 47 59 58
f 47 48 60 59
f 48 37 49 60
f 49 50 62 61
f 50 51 63 62
f 51 52 64 63
f 52 53 65 64
f 53 54 66 65
f 54 55 67 66
f 55 56 68 67
f 56 57 69 68
f 57 58 70 69
f 58 59 71 70
f 59 60 72 71
f 60 49 61 72
f 61 62 74 73
f 62 63 75 74
f 63 64 76 75
f 64 65 77 76
f 65 66 78 77
f 66 67 79 78
f 67 68 80 79
f 68 69 81 80
f 69 70 82 81
f 70 71 83 82
f 71 72 84 83
f 72 61 73 84
f 73 74 86 85
f 74 75 87 86
f 75 76 88 87
f 76 77 89 88
f 77 78 90 89
f 78 79 91 90
f 79 80 92 91
f 80 81 93 92
f 81 82 94 93
f 82 83 95 94
f 83 84 96 95
f 84 73 85 96
f 85 86 98 97
f 86 87 99 98
f 87 88 100 99
f 88 89 101 100
f 89 90 102 101
f 90 91 103 102
f 91 92 104 103
f 92 93 105 104
f 93 94 106 105
f 94 95 107 106
f 95 96 108 107
f 96 85 97 108
f 97 98 110 109
f 98 99 111 110
f 99 100 112 111
f 100 101 113 112
f 101 102 114 113
f 102 103 115 114
f 103 104 116 115
f 104 105 117 116
f 105 106 118 117
f 106 107 119 118
f 107 108 120 119
f 108 97 109 120
f 109 110 122 121
f 110 111 123 122
f 111 112 124 123
f 112 113 125 124
f 113 114 126 125
f 114 115 127 126
f 115 116 128 127
f 116 117 129 128
f 117 118 130 129
f 118 119 131 130
f 119 120 132 131
f 120 109 121 132
f 121 122 134 133
f 122 123 135 134
f 123 124 136 135
f 124 125 137 136
f 125 126 138 137
f 126 127 139 138
f 127 128 140 139
f 128 129 141 140
f 129 130 142 141
f 130 131 143 142
f 131 132 144 143
f 132 121 133 144
f 133 134 146 145
f 134 135 147 146
f 135 136 148 147
f 136 137 149 148
f 137 138 150 149
f 138 139 151 150
f 139 140 152 151
f 140 141 153 152
f 141 142 154 153
f 142 143 155 154
f 143 144 156 155
f 144 133 145 156
f 145 146 158 157
f 146 147 159 158
f 147 148 160 159
f 148 149 161 160
f 149 150 162 161
f 150 151 163 162
f 151 152 164 163
f 152 153 165 164
f 153 154 166 165
f 154 155 167 166
f 155 156 168 167
f 156 145 157 168
f 157 158 170 169
f 158 159 171 170
f 159 160 172 171
f 160 161 173 172
f 161 162 174 173
f 162 163 175 174
f 163 164 176 175
f 164 165 177 176
f 165 166 178 177
f 166 167 179 178
f 167 168 180 179
f 168 157 169 180
f 169 170 182 181
f 170 171 183 182
f 171 172 184 183
f 172 173 185 184
f 173 174 186 185
f 174 175 187 186
f 175 176 188 187
f 176 177 189 188
f 177 178 190 189
f 178 179 191 190
f 179 180 192 191
f 180 169 181 192
f 181 182 194 193
f 182 183 195 194
f 183 184 196 195
f 184 185 197 196
f 185 186 198 197
f 186 187 199 198
f 187 188 200 199
f 188 189 201 200
f 189 190 202 201
f 190 191 203 202
f 191 192 204 203
f 192 181 193 204
f 193 194 206 205
f 194 195 207 206
f 195 196 208 207
f 196 197 209 208
f 197 198 210 209
f 198 199 211 210
f 199 200 212 211
f 200 201 213 212
f 201 202 214 213
f 202 203 215 214
f 203 204 216 215
f 204 193 205 216
