# tube retopo
v -0.280000 0.000000 -0.900000
v -0.258686 0.107151 -0.900000
v -0.197990 0.197990 -0.900000
v -0.107151 0.258686 -0.900000
v -0.000000 0.280000 -0.900000
v 0.107151 0.258686 -0.900000
v 0.197990 0.197990 -0.900000
v 0.258686 0.107151 -0.900000
v 0.280000 0.000000 -0.900000
v 0.258686 -0.107151 -0.900000
v 0.197990 -0.197990 -0.900000
v 0.107151 -0.258686 -0.900000
v 0.000000 -0.280000 -0.900000
v -0.107151 -0.258686 -0.900000
v -0.197990 -0.197990 -0.900000
v -0.258686 -0.107151 -0.900000
v -0.280000 0.000000 -0.848571
v -0.258686 0.107151 -0.848571
v -0.197990 0.197990 -0.848571
v -0.107151 0.258686 -0.848571
v -0.000000 0.280000 -0.848571
v 0.107151 0.258686 -0.848571
v 0.197990 0.197990 -0.848571
v 0.258686 0.107151 -0.848571
v 0.280000 0.000000 -0.848571
v 0.258686 -0.107151 -0.848571
v 0.197990 -0.197990 -0.848571
v 0.107151 -0.258686 -0.848571
v 0.000000 -0.280000 -0.848571
v -0.107151 -0.258686 -0.848571
v -0.197990 -0.197990 -0.848571
v -0.258686 -0.107151 -0.848571
v -0.280000 0.000000 -0.797143
v -0.258686 0.107151 -0.797143
v -0.197990 0.197990 -0.797143
v -0.107151 0.258686 -0.797143
v -0.000000 0.280000 -0.797143
v 0.107151 0.258686 -0.797143
v 0.197990 0.197990 -0.797143
v 0.258686 0.107151 -0.797143
v 0.280000 0.000000 -0.797143
v 0.258686 -0.107151 -0.797143
v 0.197990 -0.197990 -0.797143
v 0.107151 -0.258686 -0.797143
v 0.000000 -0.280000 -0.797143
v -0.107151 -0.258686 -0.797143
v -0.197990 -0.197990 -0.797143
v -0.258686 -0.107151 -0.797143
v -0.280000 0.000000 -0.745714
v -0.258686 0.107151 -0.745714
v -0.197990 0.197990 -0.745714
v -0.107151 0.258686 -0.745714
v -0.000000 0.280000 -0.745714
v 0.107151 0.258686 -0.745714
v 0.197990 0.197990 -0.745714
v 0.258686 0.107151 -0.745714
v 0.280000 0.000000 -0.745714
v 0.258686 -0.107151 -0.745714
v 0.197990 -0.197990 -0.745714
v 0.107151 -0.258686 -0.745714
v 0.000000 -0.280000 -0.745714
v -0.107151 -0.258686 -0.745714
v -0.197990 -0.197990 -0.745714
v -0.258686 -0.107151 -0.745714
v -0.280000 0.000000 -0.694286
v -0.258686 0.107151 -0.694286
v -0.197990 0.197990 -0.694286
v -0.107151 0.258686 -0.694286
v -0.000000 0.280000 -0.694286
v 0.107151 0.258686 -0.694286
v 0.197990 0.197990 -0.694286
v 0.258686 0.107151 -0.694286
v 0.280000 0.000000 -0.694286
v 0.258686 -0.107151 -0.694286
v 0.197990 -0.197990 -0.694286
v 0.107151 -0.258686 -0.694286
v 0.000000 -0.280000 -0.694286
v -0.107151 -0.258686 -0.694286
v -0.197990 -0.197990 -0.694286
v -0.258686 -0.107151 -0.694286
v -0.280000 0.000000 -0.642857
v -0.258686 0.107151 -0.642857
v -0.197990 0.197990 -0.642857
v -0.107151 0.258686 -0.642857
v -0.000000 0.280000 -0.642857
v 0.107151 0.258686 -0.642857
v 0.197990 0.197990 -0.642857
v 0.258686 0.107151 -0.642857
v 0.280000 0.000000 -0.642857
v 0.258686 -0.107151 -0.642857
v 0.197990 -0.197990 -0.642857
v 0.107151 -0.258686 -0.642857
v 0.000000 -0.280000 -0.642857
v -0.107151 -0.258686 -0.642857
v -0.197990 -0.197990 -0.642857
v -0.258686 -0.107151 -0.642857
v -0.280000 0.000000 -0.591429
v -0.258686 0.107151 -0.591429
v -0.197990 0.197990 -0.591429
v -0.107151 0.258686 -0.591429
v -0.000000 0.280000 -0.591429
v 0.107151 0.258686 -0.591429
v 0.197990 0.197990 -0.591429
v 0.258686 0.107151 -0.591429
v 0.280000 0.000000 -0.591429
v 0.258686 -0.107151 -0.591429
v 0.197990 -0.197990 -0.591429
v 0.107151 -0.258686 -0.591429
v 0.000000 -0.280000 -0.591429
v -0.107151 -0.258686 -0.591429
v -0.197990 -0.197990 -0.591429
v -0.258686 -0.107151 -0.591429
v -0.280000 0.000000 -0.540000
v -0.258686 0.107151 -0.540000
v -0.197990 0.197990 -0.540000
v -0.107151 0.258686 -0.540000
v -0.000000 0.280000 -0.540000
v 0.107151 0.258686 -0.540000
v 0.197990 0.197990 -0.540000
v 0.258686 0.107151 -0.540000
v 0.280000 0.000000 -0.540000
v 0.258686 -0.107151 -0.540000
v 0.197990 -0.197990 -0.540000
v 0.107151 -0.258686 -0.540000
v 0.000000 -0.280000 -0.540000
v -0.107151 -0.258686 -0.540000
v -0.197990 -0.197990 -0.540000
v -0.258686 -0.107151 -0.540000
v -0.280000 0.000000 -0.488571
v -0.258686 0.107151 -0.488571
v -0.197990 0.197990 -0.488571
v -0.107151 0.258686 -0.488571
v -0.000000 0.280000 -0.488571
v 0.107151 0.258686 -0.488571
v 0.197990 0.197990 -0.488571
v 0.258686 0.107151 -0.488571
v 0.280000 0.000000 -0.488571
v 0.258686 -0.107151 -0.488571
v 0.197990 -0.197990 -0.488571
v 0.107151 -0.258686 -0.488571
v 0.000000 -0.280000 -0.488571
v -0.107151 -0.258686 -0.488571
v -0.197990 -0.197990 -0.488571
v -0.258686 -0.107151 -0.488571
v -0.280000 0.000000 -0.437143
v -0.258686 0.107151 -0.437143
v -0.197990 0.197990 -0.437143
v -0.107151 0.258686 -0.437143
v -0.000000 0.280000 -0.437143
v 0.107151 0.258686 -0.437143
v 0.197990 0.197990 -0.437143
v 0.258686 0.107151 -0.437143
v 0.280000 0.000000 -0.437143
v 0.258686 -0.107151 -0.437143
v 0.197990 -0.197990 -0.437143
v 0.107151 -0.258686 -0.437143
v 0.000000 -0.280000 -0.437143
v -0.107151 -0.258686 -0.437143
v -0.197990 -0.197990 -0.437143
v -0.258686 -0.107151 -0.437143
v -0.280000 0.000000 -0.385714
v -0.258686 0.107151 -0.385714
v -0.197990 0.197990 -0.385714
v -0.107151 0.258686 -0.385714
v -0.000000 0.280000 -0.385714
v 0.107151 0.258686 -0.385714
v 0.197990 0.197990 -0.385714
v 0.258686 0.107151 -0.385714
v 0.280000 0.000000 -0.385714
v 0.258686 -0.107151 -0.385714
v 0.197990 -0.197990 -0.385714
v 0.107151 -0.258686 -0.385714
v 0.000000 -0.280000 -0.385714
v -0.107151 -0.258686 -0.385714
v -0.197990 -0.197990 -0.385714
v -0.258686 -0.107151 -0.385714
v -0.280000 0.000000 -0.334286
v -0.258686 0.107151 -0.334286
v -0.197990 0.197990 -0.334286
v -0.107151 0.258686 -0.334286
v -0.000000 0.280000 -0.334286
v 0.107151 0.258686 -0.334286
v 0.197990 0.197990 -0.334286
v 0.258686 0.107151 -0.334286
v 0.280000 0.000000 -0.334286
v 0.258686 -0.107151 -0.334286
v 0.197990 -0.197990 -0.334286
v 0.107151 -0.258686 -0.334286
v 0.000000 -0.280000 -0.334286
v -0.107151 -0.258686 -0.334286
v -0.197990 -0.197990 -0.334286
v -0.258686 -0.107151 -0.334286
v -0.280000 0.000000 -0.282857
v -0.258686 0.107151 -0.282857
v -0.197990 0.197990 -0.282857
v -0.107151 0.258686 -0.282857
v -0.000000 0.280000 -0.282857
v 0.107151 0.258686 -0.282857
v 0.197990 0.197990 -0.282857
v 0.258686 0.107151 -0.282857
v 0.280000 0.000000 -0.282857
v 0.258686 -0.107151 -0.282857
v 0.197990 -0.197990 -0.282857
v 0.107151 -0.258686 -0.282857
v 0.000000 -0.280000 -0.282857
v -0.107151 -0.258686 -0.282857
v -0.197990 -0.197990 -0.282857
v -0.258686 -0.107151 -0.282857
v -0.280000 0.000000 -0.231429
v -0.258686 0.107151 -0.231429
v -0.197990 0.197990 -0.231429
v -0.107151 0.258686 -0.231429
v -0.000000 0.280000 -0.231429
v 0.107151 0.258686 -0.231429
v 0.197990 0.197990 -0.231429
v 0.258686 0.107151 -0.231429
v 0.280000 0.000000 -0.231429
v 0.258686 -0.107151 -0.231429
v 0.197990 -0.197990 -0.231429
v 0.107151 -0.258686 -0.231429
v 0.000000 -0.280000 -0.231429
v -0.107151 -0.258686 -0.231429
v -0.197990 -0.197990 -0.231429
v -0.258686 -0.107151 -0.231429
v -0.280000 0.000000 -0.180000
v -0.258686 0.107151 -0.180000
v -0.197990 0.197990 -0.180000
v -0.107151 0.258686 -0.180000
v -0.000000 0.280000 -0.180000
v 0.107151 0.258686 -0.180000
v 0.197990 0.197990 -0.180000
v 0.258686 0.107151 -0.180000
v 0.280000 0.000000 -0.180000
v 0.258686 -0.107151 -0.180000
v 0.197990 -0.197990 -0.180000
v 0.107151 -0.258686 -0.180000
v 0.000000 -0.280000 -0.180000
v -0.107151 -0.258686 -0.180000
v -0.197990 -0.197990 -0.180000
v -0.258686 -0.107151 -0.180000
v -0.280000 0.000000 -0.128571
v -0.258686 0.107151 -0.128571
v -0.197990 0.197990 -0.128571
v -0.107151 0.258686 -0.128571
v -0.000000 0.280000 -0.128571
v 0.107151 0.258686 -0.128571
v 0.197990 0.197990 -0.128571
v 0.258686 0.107151 -0.128571
v 0.280000 0.000000 -0.128571
v 0.258686 -0.107151 -0.128571
v 0.197990 -0.197990 -0.128571
v 0.107151 -0.258686 -0.128571
v 0.000000 -0.280000 -0.128571
v -0.107151 -0.258686 -0.128571
v -0.197990 -0.197990 -0.128571
v -0.258686 -0.107151 -0.128571
v -0.280000 0.000000 -0.077143
v -0.258686 0.107151 -0.077143
v -0.197990 0.197990 -0.077143
v -0.107151 0.258686 -0.077143
v -0.000000 0.280000 -0.077143
v 0.107151 0.258686 -0.077143
v 0.197990 0.197990 -0.077143
v 0.258686 0.107151 -0.077143
v 0.280000 0.000000 -0.077143
v 0.258686 -0.107151 -0.077143
v 0.197990 -0.197990 -0.077143
v 0.107151 -0.258686 -0.077143
v 0.000000 -0.280000 -0.077143
v -0.107151 -0.258686 -0.077143
v -0.197990 -0.197990 -0.077143
v -0.258686 -0.107151 -0.077143
v -0.280000 0.000000 -0.025714
v -0.258686 0.107151 -0.025714
v -0.197990 0.197990 -0.025714
v -0.107151 0.258686 -0.025714
v -0.000000 0.280000 -0.025714
v 0.107151 0.258686 -0.025714
v 0.197990 0.197990 -0.025714
v 0.258686 0.107151 -0.025714
v 0.280000 0.000000 -0.025714
v 0.258686 -0.107151 -0.025714
v 0.197990 -0.197990 -0.025714
v 0.107151 -0.258686 -0.025714
v 0.000000 -0.280000 -0.025714
v -0.107151 -0.258686 -0.025714
v -0.197990 -0.197990 -0.025714
v -0.258686 -0.107151 -0.025714
v -0.280000 0.000000 0.025714
v -0.258686 0.107151 0.025714
v -0.197990 0.197990 0.025714
v -0.107151 0.258686 0.025714
v -0.000000 0.280000 0.025714
v 0.107151 0.258686 0.025714
v 0.197990 0.197990 0.025714
v 0.258686 0.107151 0.025714
v 0.280000 0.000000 0.025714
v 0.258686 -0.107151 0.025714
v 0.197990 -0.197990 0.025714
v 0.107151 -0.258686 0.025714
v 0.000000 -0.280000 0.025714
v -0.107151 -0.258686 0.025714
v -0.197990 -0.197990 0.025714
v -0.258686 -0.107151 0.025714
v -0.280000 0.000000 0.077143
v -0.258686 0.107151 0.077143
v -0.197990 0.197990 0.077143
v -0.107151 0.258686 0.077143
v -0.000000 0.280000 0.077143
v 0.107151 0.258686 0.077143
v 0.197990 0.197990 0.077143
v 0.258686 0.107151 0.077143
v 0.280000 0.000000 0.077143
v 0.258686 -0.107151 0.077143
v 0.197990 -0.197990 0.077143
v 0.107151 -0.258686 0.077143
v 0.000000 -0.280000 0.077143
v -0.107151 -0.258686 0.077143
v -0.197990 -0.197990 0.077143
v -0.258686 -0.107151 0.077143
v -0.280000 0.000000 0.128571
v -0.258686 0.107151 0.128571
v -0.197990 0.197990 0.128571
v -0.107151 0.258686 0.128571
v -0.000000 0.280000 0.128571
v 0.107151 0.258686 0.128571
v 0.197990 0.197990 0.128571
v 0.258686 0.107151 0.128571
v 0.280000 0.000000 0.128571
v 0.258686 -0.107151 0.128571
v 0.197990 -0.197990 0.128571
v 0.107151 -0.258686 0.128571
v 0.000000 -0.280000 0.128571
v -0.107151 -0.258686 0.128571
v -0.197990 -0.197990 0.128571
v -0.258686 -0.107151 0.128571
v -0.280000 0.000000 0.180000
v -0.258686 0.107151 0.180000
v -0.197990 0.197990 0.180000
v -0.107151 0.258686 0.180000
v -0.000000 0.280000 0.180000
v 0.107151 0.258686 0.180000
v 0.197990 0.197990 0.180000
v 0.258686 0.107151 0.180000
v 0.280000 0.000000 0.180000
v 0.258686 -0.107151 0.180000
v 0.197990 -0.197990 0.180000
v 0.107151 -0.258686 0.180000
v 0.000000 -0.280000 0.180000
v -0.107151 -0.258686 0.180000
v -0.197990 -0.197990 0.180000
v -0.258686 -0.107151 0.180000
v -0.280000 0.000000 0.231429
v -0.258686 0.107151 0.231429
v -0.197990 0.197990 0.231429
v -0.107151 0.258686 0.231429
v -0.000000 0.280000 0.231429
v 0.107151 0.258686 0.231429
v 0.197990 0.197990 0.231429
v 0.258686 0.107151 0.231429
v 0.280000 0.000000 0.231429
v 0.258686 -0.107151 0.231429
v 0.197990 -0.197990 0.231429
v 0.107151 -0.258686 0.231429
v 0.000000 -0.280000 0.231429
v -0.107151 -0.258686 0.231429
v -0.197990 -0.197990 0.231429
v -0.258686 -0.107151 0.231429
v -0.280000 0.000000 0.282857
v -0.258686 0.107151 0.282857
v -0.197990 0.197990 0.282857
v -0.107151 0.258686 0.282857
v -0.000000 0.280000 0.282857
v 0.107151 0.258686 0.282857
v 0.197990 0.197990 0.282857
v 0.258686 0.107151 0.282857
v 0.280000 0.000000 0.282857
v 0.258686 -0.107151 0.282857
v 0.197990 -0.197990 0.282857
v 0.107151 -0.258686 0.282857
v 0.000000 -0.280000 0.282857
v -0.107151 -0.258686 0.282857
v -0.197990 -0.197990 0.282857
v -0.258686 -0.107151 0.282857
v -0.280000 0.000000 0.334286
v -0.258686 0.107151 0.334286
v -0.197990 0.197990 0.334286
v -0.107151 0.258686 0.334286
v -0.000000 0.280000 0.334286
v 0.107151 0.258686 0.334286
v 0.197990 0.197990 0.334286
v 0.258686 0.107151 0.334286
v 0.280000 0.000000 0.334286
v 0.258686 -0.107151 0.334286
v 0.197990 -0.197990 0.334286
v 0.107151 -0.258686 0.334286
v 0.000000 -0.280000 0.334286
v -0.107151 -0.258686 0.334286
v -0.197990 -0.197990 0.334286
v -0.258686 -0.107151 0.334286
v -0.280000 0.000000 0.385714
v -0.258686 0.107151 0.385714
v -0.197990 0.197990 0.385714
v -0.107151 0.258686 0.385714
v -0.000000 0.280000 0.385714
v 0.107151 0.258686 0.385714
v 0.197990 0.197990 0.385714
v 0.258686 0.107151 0.385714
v 0.280000 0.000000 0.385714
v 0.258686 -0.107151 0.385714
v 0.197990 -0.197990 0.385714
v 0.107151 -0.258686 0.385714
v 0.000000 -0.280000 0.385714
v -0.107151 -0.258686 0.385714
v -0.197990 -0.197990 0.385714
v -0.258686 -0.107151 0.385714
v -0.280000 0.000000 0.437143
v -0.258686 0.107151 0.437143
v -0.197990 0.197990 0.437143
v -0.107151 0.258686 0.437143
v -0.000000 0.280000 0.437143
v 0.107151 0.258686 0.437143
v 0.197990 0.197990 0.437143
v 0.258686 0.107151 0.437143
v 0.280000 0.000000 0.437143
v 0.258686 -0.107151 0.437143
v 0.197990 -0.197990 0.437143
v 0.107151 -0.258686 0.437143
v 0.000000 -0.280000 0.437143
v -0.107151 -0.258686 0.437143
v -0.197990 -0.197990 0.437143
v -0.258686 -0.107151 0.437143
v -0.280000 0.000000 0.488571
v -0.258686 0.107151 0.488571
v -0.197990 0.197990 0.488571
v -0.107151 0.258686 0.488571
v -0.000000 0.280000 0.488571
v 0.107151 0.258686 0.488571
v 0.197990 0.197990 0.488571
v 0.258686 0.107151 0.488571
v 0.280000 0.000000 0.488571
v 0.258686 -0.107151 0.488571
v 0.197990 -0.197990 0.488571
v 0.107151 -0.258686 0.488571
v 0.000000 -0.280000 0.488571
v -0.107151 -0.258686 0.488571
v -0.197990 -0.197990 0.488571
v -0.258686 -0.107151 0.488571
v -0.280000 0.000000 0.540000
v -0.258686 0.107151 0.540000
v -0.197990 0.197990 0.540000
v -0.107151 0.258686 0.540000
v -0.000000 0.280000 0.540000
v 0.107151 0.258686 0.540000
v 0.197990 0.197990 0.540000
v 0.258686 0.107151 0.540000
v 0.280000 0.000000 0.540000
v 0.258686 -0.107151 0.540000
v 0.197990 -0.197990 0.540000
v 0.107151 -0.258686 0.540000
v 0.000000 -0.280000 0.540000
v -0.107151 -0.258686 0.540000
v -0.197990 -0.197990 0.540000
v -0.258686 -0.107151 0.540000
v -0.280000 0.000000 0.591429
v -0.258686 0.107151 0.591429
v -0.197990 0.197990 0.591429
v -0.107151 0.258686 0.591429
v -0.000000 0.280000 0.591429
v 0.107151 0.258686 0.591429
v 0.197990 0.197990 0.591429
v 0.258686 0.107151 0.591429
v 0.280000 0.000000 0.591429
v 0.258686 -0.107151 0.591429
v 0.197990 -0.197990 0.591429
v 0.107151 -0.258686 0.591429
v 0.000000 -0.280000 0.591429
v -0.107151 -0.258686 0.591429
v -0.197990 -0.197990 0.591429
v -0.258686 -0.107151 0.591429
v -0.280000 0.000000 0.642857
v -0.258686 0.107151 0.642857
v -0.197990 0.197990 0.642857
v -0.107151 0.258686 0.642857
v -0.000000 0.280000 0.642857
v 0.107151 0.258686 0.642857
v 0.197990 0.197990 0.642857
v 0.258686 0.107151 0.642857
v 0.280000 0.000000 0.642857
v 0.258686 -0.107151 0.642857
v 0.197990 -0.197990 0.642857
v 0.107151 -0.258686 0.642857
v 0.000000 -0.280000 0.642857
v -0.107151 -0.258686 0.642857
v -0.197990 -0.197990 0.642857
v -0.258686 -0.107151 0.642857
v -0.280000 0.000000 0.694286
v -0.258686 0.107151 0.694286
v -0.197990 0.197990 0.694286
v -0.107151 0.258686 0.694286
v -0.000000 0.280000 0.694286
v 0.107151 0.258686 0.694286
v 0.197990 0.197990 0.694286
v 0.258686 0.107151 0.694286
v 0.280000 0.000000 0.694286
v 0.258686 -0.107151 0.694286
v 0.197990 -0.197990 0.694286
v 0.107151 -0.258686 0.694286
v 0.000000 -0.280000 0.694286
v -0.107151 -0.258686 0.694286
v -0.197990 -0.197990 0.694286
v -0.258686 -0.107151 0.694286
v -0.280000 0.000000 0.745714
v -0.258686 0.107151 0.745714
v -0.197990 0.197990 0.745714
v -0.107151 0.258686 0.745714
v -0.000000 0.280000 0.745714
v 0.107151 0.258686 0.745714
v 0.197990 0.197990 0.745714
v 0.258686 0.107151 0.745714
v 0.280000 0.000000 0.745714
v 0.258686 -0.107151 0.745714
v 0.197990 -0.197990 0.745714
v 0.107151 -0.258686 0.745714
v 0.000000 -0.280000 0.745714
v -0.107151 -0.258686 0.745714
v -0.197990 -0.197990 0.745714
v -0.258686 -0.107151 0.745714
v -0.280000 0.000000 0.797143
v -0.258686 0.107151 0.797143
v -0.197990 0.197990 0.797143
v -0.107151 0.258686 0.797143
v -0.000000 0.280000 0.797143
v 0.107151 0.258686 0.797143
v 0.197990 0.197990 0.797143
v 0.258686 0.107151 0.797143
v 0.280000 0.000000 0.797143
v 0.258686 -0.107151 0.797143
v 0.197990 -0.197990 0.797143
v 0.107151 -0.258686 0.797143
v 0.000000 -0.280000 0.797143
v -0.107151 -0.258686 0.797143
v -0.197990 -0.197990 0.797143
v -0.258686 -0.107151 0.797143
v -0.280000 0.000000 0.848571
v -0.258686 0.107151 0.848571
v -0.197990 0.197990 0.848571
v -0.107151 0.258686 0.848571
v -0.000000 0.280000 0.848571
v 0.107151 0.258686 0.848571
v 0.197990 0.197990 0.848571
v 0.258686 0.107151 0.848571
v 0.280000 0.000000 0.848571
v 0.258686 -0.107151 0.848571
v 0.197990 -0.197990 0.848571
v 0.107151 -0.258686 0.848571
v 0.000000 -0.280000 0.848571
v -0.107151 -0.258686 0.848571
v -0.197990 -0.197990 0.848571
v -0.258686 -0.107151 0.848571
v -0.280000 0.000000 0.900000
v -0.258686 0.107151 0.900000
v -0.197990 0.197990 0.900000
v -0.107151 0.258686 0.900000
v -0.000000 0.280000 0.900000
v 0.107151 0.258686 0.900000
v 0.197990 0.197990 0.900000
v 0.258686 0.107151 0.900000
v 0.280000 0.000000 0.900000
v 0.258686 -0.107151 0.900000
v 0.197990 -0.197990 0.900000
v 0.107151 -0.258686 0.900000
v 0.000000 -0.280000 0.900000
v -0.107151 -0.258686 0.900000
v -0.197990 -0.197990 0.900000
v -0.258686 -0.107151 0.900000
v 0.220000 0.000000 0.340000
v 0.220000 0.034442 0.333149
v 0.220000 0.063640 0.313640
v 0.220000 0.083149 0.284442
v 0.220000 0.090000 0.250000
v 0.220000 0.083149 0.215558
v 0.220000 0.063640 0.186360
v 0.220000 0.034442 0.166851
v 0.220000 0.000000 0.160000
v 0.220000 -0.034442 0.166851
v 0.220000 -0.063640 0.186360
v 0.220000 -0.083149 0.215558
v 0.220000 -0.090000 0.250000
v 0.220000 -0.083149 0.284442
v 0.220000 -0.063640 0.313640
v 0.220000 -0.034442 0.333149
v 0.254444 0.000000 0.340000
v 0.254444 0.034442 0.333149
v 0.254444 0.063640 0.313640
v 0.254444 0.083149 0.284442
v 0.254444 0.090000 0.250000
v 0.254444 0.083149 0.215558
v 0.254444 0.063640 0.186360
v 0.254444 0.034442 0.166851
v 0.254444 0.000000 0.160000
v 0.254444 -0.034442 0.166851
v 0.254444 -0.063640 0.186360
v 0.254444 -0.083149 0.215558
v 0.254444 -0.090000 0.250000
v 0.254444 -0.083149 0.284442
v 0.254444 -0.063640 0.313640
v 0.254444 -0.034442 0.333149
v 0.288889 0.000000 0.340000
v 0.288889 0.034442 0.333149
v 0.288889 0.063640 0.313640
v 0.288889 0.083149 0.284442
v 0.288889 0.090000 0.250000
v 0.288889 0.083149 0.215558
v 0.288889 0.063640 0.186360
v 0.288889 0.034442 0.166851
v 0.288889 0.000000 0.160000
v 0.288889 -0.034442 0.166851
v 0.288889 -0.063640 0.186360
v 0.288889 -0.083149 0.215558
v 0.288889 -0.090000 0.250000
v 0.288889 -0.083149 0.284442
v 0.288889 -0.063640 0.313640
v 0.288889 -0.034442 0.333149
v 0.323333 0.000000 0.340000
v 0.323333 0.034442 0.333149
v 0.323333 0.063640 0.313640
v 0.323333 0.083149 0.284442
v 0.323333 0.090000 0.250000
v 0.323333 0.083149 0.215558
v 0.323333 0.063640 0.186360
v 0.323333 0.034442 0.166851
v 0.323333 0.000000 0.160000
v 0.323333 -0.034442 0.166851
v 0.323333 -0.063640 0.186360
v 0.323333 -0.083149 0.215558
v 0.323333 -0.090000 0.250000
v 0.323333 -0.083149 0.284442
v 0.323333 -0.063640 0.313640
v 0.323333 -0.034442 0.333149
v 0.357778 0.000000 0.340000
v 0.357778 0.034442 0.333149
v 0.357778 0.063640 0.313640
v 0.357778 0.083149 0.284442
v 0.357778 0.090000 0.250000
v 0.357778 0.083149 0.215558
v 0.357778 0.063640 0.186360
v 0.357778 0.034442 0.166851
v 0.357778 0.000000 0.160000
v 0.357778 -0.034442 0.166851
v 0.357778 -0.063640 0.186360
v 0.357778 -0.083149 0.215558
v 0.357778 -0.090000 0.250000
v 0.357778 -0.083149 0.284442
v 0.357778 -0.063640 0.313640
v 0.357778 -0.034442 0.333149
v 0.392222 0.000000 0.340000
v 0.392222 0.034442 0.333149
v 0.392222 0.063640 0.313640
v 0.392222 0.083149 0.284442
v 0.392222 0.090000 0.250000
v 0.392222 0.083149 0.215558
v 0.392222 0.063640 0.186360
v 0.392222 0.034442 0.166851
v 0.392222 0.000000 0.160000
v 0.392222 -0.034442 0.166851
v 0.392222 -0.063640 0.186360
v 0.392222 -0.083149 0.215558
v 0.392222 -0.090000 0.250000
v 0.392222 -0.083149 0.284442
v 0.392222 -0.063640 0.313640
v 0.392222 -0.034442 0.333149
v 0.426667 0.000000 0.340000
v 0.426667 0.034442 0.333149
v 0.426667 0.063640 0.313640
v 0.426667 0.083149 0.284442
v 0.426667 0.090000 0.250000
v 0.426667 0.083149 0.215558
v 0.426667 0.063640 0.186360
v 0.426667 0.034442 0.166851
v 0.426667 0.000000 0.160000
v 0.426667 -0.034442 0.166851
v 0.426667 -0.063640 0.186360
v 0.426667 -0.083149 0.215558
v 0.426667 -0.090000 0.250000
v 0.426667 -0.083149 0.284442
v 0.426667 -0.063640 0.313640
v 0.426667 -0.034442 0.333149
v 0.461111 0.000000 0.340000
v 0.461111 0.034442 0.333149
v 0.461111 0.063640 0.313640
v 0.461111 0.083149 0.284442
v 0.461111 0.090000 0.250000
v 0.461111 0.083149 0.215558
v 0.461111 0.063640 0.186360
v 0.461111 0.034442 0.166851
v 0.461111 0.000000 0.160000
v 0.461111 -0.034442 0.166851
v 0.461111 -0.063640 0.186360
v 0.461111 -0.083149 0.215558
v 0.461111 -0.090000 0.250000
v 0.461111 -0.083149 0.284442
v 0.461111 -0.063640 0.313640
v 0.461111 -0.034442 0.333149
v 0.495556 0.000000 0.340000
v 0.495556 0.034442 0.333149
v 0.495556 0.063640 0.313640
v 0.495556 0.083149 0.284442
v 0.495556 0.090000 0.250000
v 0.495556 0.083149 0.215558
v 0.495556 0.063640 0.186360
v 0.495556 0.034442 0.166851
v 0.495556 0.000000 0.160000
v 0.495556 -0.034442 0.166851
v 0.495556 -0.063640 0.186360
v 0.495556 -0.083149 0.215558
v 0.495556 -0.090000 0.250000
v 0.495556 -0.083149 0.284442
v 0.495556 -0.063640 0.313640
v 0.495556 -0.034442 0.333149
v 0.530000 0.000000 0.340000
v 0.530000 0.034442 0.333149
v 0.530000 0.063640 0.313640
v 0.530000 0.083149 0.284442
v 0.530000 0.090000 0.250000
v 0.530000 0.083149 0.215558
v 0.530000 0.063640 0.186360
v 0.530000 0.034442 0.166851
v 0.530000 0.000000 0.160000
v 0.530000 -0.034442 0.166851
v 0.530000 -0.063640 0.186360
v 0.530000 -0.083149 0.215558
v 0.530000 -0.090000 0.250000
v 0.530000 -0.083149 0.284442
v 0.530000 -0.063640 0.313640
v 0.530000 -0.034442 0.333149
v 0.564444 0.000000 0.340000
v 0.564444 0.034442 0.333149
v 0.564444 0.063640 0.313640
v 0.564444 0.083149 0.284442
v 0.564444 0.090000 0.250000
v 0.564444 0.083149 0.215558
v 0.564444 0.063640 0.186360
v 0.564444 0.034442 0.166851
v 0.564444 0.000000 0.160000
v 0.564444 -0.034442 0.166851
v 0.564444 -0.063640 0.186360
v 0.564444 -0.083149 0.215558
v 0.564444 -0.090000 0.250000
v 0.564444 -0.083149 0.284442
v 0.564444 -0.063640 0.313640
v 0.564444 -0.034442 0.333149
v 0.598889 0.000000 0.340000
v 0.598889 0.034442 0.333149
v 0.598889 0.063640 0.313640
v 0.598889 0.083149 0.284442
v 0.598889 0.090000 0.250000
v 0.598889 0.083149 0.215558
v 0.598889 0.063640 0.186360
v 0.598889 0.034442 0.166851
v 0.598889 0.000000 0.160000
v 0.598889 -0.034442 0.166851
v 0.598889 -0.063640 0.186360
v 0.598889 -0.083149 0.215558
v 0.598889 -0.090000 0.250000
v 0.598889 -0.083149 0.284442
v 0.598889 -0.063640 0.313640
v 0.598889 -0.034442 0.333149
v 0.633333 0.000000 0.340000
v 0.633333 0.034442 0.333149
v 0.633333 0.063640 0.313640
v 0.633333 0.083149 0.284442
v 0.633333 0.090000 0.250000
v 0.633333 0.083149 0.215558
v 0.633333 0.063640 0.186360
v 0.633333 0.034442 0.166851
v 0.633333 0.000000 0.160000
v 0.633333 -0.034442 0.166851
v 0.633333 -0.063640 0.186360
v 0.633333 -0.083149 0.215558
v 0.633333 -0.090000 0.250000
v 0.633333 -0.083149 0.284442
v 0.633333 -0.063640 0.313640
v 0.633333 -0.034442 0.333149
v 0.667778 0.000000 0.340000
v 0.667778 0.034442 0.333149
v 0.667778 0.063640 0.313640
v 0.667778 0.083149 0.284442
v 0.667778 0.090000 0.250000
v 0.667778 0.083149 0.215558
v 0.667778 0.063640 0.186360
v 0.667778 0.034442 0.166851
v 0.667778 0.000000 0.160000
v 0.667778 -0.034442 0.166851
v 0.667778 -0.063640 0.186360
v 0.667778 -0.083149 0.215558
v 0.667778 -0.090000 0.250000
v 0.667778 -0.083149 0.284442
v 0.667778 -0.063640 0.313640
v 0.667778 -0.034442 0.333149
v 0.702222 0.000000 0.340000
v 0.702222 0.034442 0.333149
v 0.702222 0.063640 0.313640
v 0.702222 0.083149 0.284442
v 0.702222 0.090000 0.250000
v 0.702222 0.083149 0.215558
v 0.702222 0.063640 0.186360
v 0.702222 0.034442 0.166851
v 0.702222 0.000000 0.160000
v 0.702222 -0.034442 0.166851
v 0.702222 -0.063640 0.186360
v 0.702222 -0.083149 0.215558
v 0.702222 -0.090000 0.250000
v 0.702222 -0.083149 0.284442
v 0.702222 -0.063640 0.313640
v 0.702222 -0.034442 0.333149
v 0.736667 0.000000 0.340000
v 0.736667 0.034442 0.333149
v 0.736667 0.063640 0.313640
v 0.736667 0.083149 0.284442
v 0.736667 0.090000 0.250000
v 0.736667 0.083149 0.215558
v 0.736667 0.063640 0.186360
v 0.736667 0.034442 0.166851
v 0.736667 0.000000 0.160000
v 0.736667 -0.034442 0.166851
v 0.736667 -0.063640 0.186360
v 0.736667 -0.083149 0.215558
v 0.736667 -0.090000 0.250000
v 0.736667 -0.083149 0.284442
v 0.736667 -0.063640 0.313640
v 0.736667 -0.034442 0.333149
v 0.771111 0.000000 0.340000
v 0.771111 0.034442 0.333149
v 0.771111 0.063640 0.313640
v 0.771111 0.083149 0.284442
v 0.771111 0.090000 0.250000
v 0.771111 0.083149 0.215558
v 0.771111 0.063640 0.186360
v 0.771111 0.034442 0.166851
v 0.771111 0.000000 0.160000
v 0.771111 -0.034442 0.166851
v 0.771111 -0.063640 0.186360
v 0.771111 -0.083149 0.215558
v 0.771111 -0.090000 0.250000
v 0.771111 -0.083149 0.284442
v 0.771111 -0.063640 0.313640
v 0.771111 -0.034442 0.333149
v 0.805556 0.000000 0.340000
v 0.805556 0.034442 0.333149
v 0.805556 0.063640 0.313640
v 0.805556 0.083149 0.284442
v 0.805556 0.090000 0.250000
v 0.805556 0.083149 0.215558
v 0.805556 0.063640 0.186360
v 0.805556 0.034442 0.166851
v 0.805556 0.000000 0.160000
v 0.805556 -0.034442 0.166851
v 0.805556 -0.063640 0.186360
v 0.805556 -0.083149 0.215558
v 0.805556 -0.090000 0.250000
v 0.805556 -0.083149 0.284442
v 0.805556 -0.063640 0.313640
v 0.805556 -0.034442 0.333149
v 0.840000 0.000000 0.340000
v 0.840000 0.034442 0.333149
v 0.840000 0.063640 0.313640
v 0.840000 0.083149 0.284442
v 0.840000 0.090000 0.250000
v 0.840000 0.083149 0.215558
v 0.840000 0.063640 0.186360
v 0.840000 0.034442 0.166851
v 0.840000 0.000000 0.160000
v 0.840000 -0.034442 0.166851
v 0.840000 -0.063640 0.186360
v 0.840000 -0.083149 0.215558
v 0.840000 -0.090000 0.250000
v 0.840000 -0.083149 0.284442
v 0.840000 -0.063640 0.313640
v 0.840000 -0.034442 0.333149
v 0.874444 0.000000 0.340000
v 0.874444 0.034442 0.333149
v 0.874444 0.063640 0.313640
v 0.874444 0.083149 0.284442
v 0.874444 0.090000 0.250000
v 0.874444 0.083149 0.215558
v 0.874444 0.063640 0.186360
v 0.874444 0.034442 0.166851
v 0.874444 0.000000 0.160000
v 0.874444 -0.034442 0.166851
v 0.874444 -0.063640 0.186360
v 0.874444 -0.083149 0.215558
v 0.874444 -0.090000 0.250000
v 0.874444 -0.083149 0.284442
v 0.874444 -0.063640 0.313640
v 0.874444 -0.034442 0.333149
v 0.908889 0.000000 0.340000
v 0.908889 0.034442 0.333149
v 0.908889 0.063640 0.313640
v 0.908889 0.083149 0.284442
v 0.908889 0.090000 0.250000
v 0.908889 0.083149 0.215558
v 0.908889 0.063640 0.186360
v 0.908889 0.034442 0.166851
v 0.908889 0.000000 0.160000
v 0.908889 -0.034442 0.166851
v 0.908889 -0.063640 0.186360
v 0.908889 -0.083149 0.215558
v 0.908889 -0.090000 0.250000
v 0.908889 -0.083149 0.284442
v 0.908889 -0.063640 0.313640
v 0.908889 -0.034442 0.333149
v 0.943333 0.000000 0.340000
v 0.943333 0.034442 0.333149
v 0.943333 0.063640 0.313640
v 0.943333 0.083149 0.284442
v 0.943333 0.090000 0.250000
v 0.943333 0.083149 0.215558
v 0.943333 0.063640 0.186360
v 0.943333 0.034442 0.166851
v 0.943333 0.000000 0.160000
v 0.943333 -0.034442 0.166851
v 0.943333 -0.063640 0.186360
v 0.943333 -0.083149 0.215558
v 0.943333 -0.090000 0.250000
v 0.943333 -0.083149 0.284442
v 0.943333 -0.063640 0.313640
v 0.943333 -0.034442 0.333149
v 0.977778 0.000000 0.340000
v 0.977778 0.034442 0.333149
v 0.977778 0.063640 0.313640
v 0.977778 0.083149 0.284442
v 0.977778 0.090000 0.250000
v 0.977778 0.083149 0.215558
v 0.977778 0.063640 0.186360
v 0.977778 0.034442 0.166851
v 0.977778 0.000000 0.160000
v 0.977778 -0.034442 0.166851
v 0.977778 -0.063640 0.186360
v 0.977778 -0.083149 0.215558
v 0.977778 -0.090000 0.250000
v 0.977778 -0.083149 0.284442
v 0.977778 -0.063640 0.313640
v 0.977778 -0.034442 0.333149
v 1.012222 0.000000 0.340000
v 1.012222 0.034442 0.333149
v 1.012222 0.063640 0.313640
v 1.012222 0.083149 0.284442
v 1.012222 0.090000 0.250000
v 1.012222 0.083149 0.215558
v 1.012222 0.063640 0.186360
v 1.012222 0.034442 0.166851
v 1.012222 0.000000 0.160000
v 1.012222 -0.034442 0.166851
v 1.012222 -0.063640 0.186360
v 1.012222 -0.083149 0.215558
v 1.012222 -0.090000 0.250000
v 1.012222 -0.083149 0.284442
v 1.012222 -0.063640 0.313640
v 1.012222 -0.034442 0.333149
v 1.046667 0.000000 0.340000
v 1.046667 0.034442 0.333149
v 1.046667 0.063640 0.313640
v 1.046667 0.083149 0.284442
v 1.046667 0.090000 0.250000
v 1.046667 0.083149 0.215558
v 1.046667 0.063640 0.186360
v 1.046667 0.034442 0.166851
v 1.046667 0.000000 0.160000
v 1.046667 -0.034442 0.166851
v 1.046667 -0.063640 0.186360
v 1.046667 -0.083149 0.215558
v 1.046667 -0.090000 0.250000
v 1.046667 -0.083149 0.284442
v 1.046667 -0.063640 0.313640
v 1.046667 -0.034442 0.333149
v 1.081111 0.000000 0.340000
v 1.081111 0.034442 0.333149
v 1.081111 0.063640 0.313640
v 1.081111 0.083149 0.284442
v 1.081111 0.090000 0.250000
v 1.081111 0.083149 0.215558
v 1.081111 0.063640 0.186360
v 1.081111 0.034442 0.166851
v 1.081111 0.000000 0.160000
v 1.081111 -0.034442 0.166851
v 1.081111 -0.063640 0.186360
v 1.081111 -0.083149 0.215558
v 1.081111 -0.090000 0.250000
v 1.081111 -0.083149 0.284442
v 1.081111 -0.063640 0.313640
v 1.081111 -0.034442 0.333149
v 1.115556 0.000000 0.340000
v 1.115556 0.034442 0.333149
v 1.115556 0.063640 0.313640
v 1.115556 0.083149 0.284442
v 1.115556 0.090000 0.250000
v 1.115556 0.083149 0.215558
v 1.115556 0.063640 0.186360
v 1.115556 0.034442 0.166851
v 1.115556 0.000000 0.160000
v 1.115556 -0.034442 0.166851
v 1.115556 -0.063640 0.186360
v 1.115556 -0.083149 0.215558
v 1.115556 -0.090000 0.250000
v 1.115556 -0.083149 0.284442
v 1.115556 -0.063640 0.313640
v 1.115556 -0.034442 0.333149
v 1.150000 0.000000 0.340000
v 1.150000 0.034442 0.333149
v 1.150000 0.063640 0.313640
v 1.150000 0.083149 0.284442
v 1.150000 0.090000 0.250000
v 1.150000 0.083149 0.215558
v 1.150000 0.063640 0.186360
v 1.150000 0.034442 0.166851
v 1.150000 0.000000 0.160000
v 1.150000 -0.034442 0.166851
v 1.150000 -0.063640 0.186360
v 1.150000 -0.083149 0.215558
v 1.150000 -0.090000 0.250000
v 1.150000 -0.083149 0.284442
v 1.150000 -0.063640 0.313640
v 1.150000 -0.034442 0.333149
f 1 2 18
f 1 18 17
f 2 3 19
f 2 19 18
f 3 4 20
f 3 20 19
f 4 5 21
f 4 21 20
f 5 6 22
f 5 22 21
f 6 7 23
f 6 23 22
f 7 8 24
f 7 24 23
f 8 9 25
f 8 25 24
f 9 10 26
f 9 26 25
f 10 11 27
f 10 27 26
f 11 12 28
f 11 28 27
f 12 13 29
f 12 29 28
f 13 14 30
f 13 30 29
f 14 15 31
f 14 31 30
f 15 16 32
f 15 32 31
f 16 1 17
f 16 17 32
f 17 18 34
f 17 34 33
f 18 19 35
f 18 35 34
f 19 20 36
f 19 36 35
f 20 21 37
f 20 37 36
f 21 22 38
f 21 38 37
f 22 23 39
f 22 39 38
f 23 24 40
f 23 40 39
f 24 25 41
f 24 41 40
f 25 26 42
f 25 42 41
f 26 27 43
f 26 43 42
f 27 28 44
f 27 44 43
f 28 29 45
f 28 45 44
f 29 30 46
f 29 46 45
f 30 31 47
f 30 47 46
f 31 32 48
f 31 48 47
f 32 17 33
f 32 33 48
f 33 34 50
f 33 50 49
f 34 35 51
f 34 51 50
f 35 36 52
f 35 52 51
f 36 37 53
f 36 53 52
f 37 38 54
f 37 54 53
f 38 39 55
f 38 55 54
f 39 40 56
f 39 56 55
f 40 41 57
f 40 57 56
f 41 42 58
f 41 58 57
f 42 43 59
f 42 59 58
f 43 44 60
f 43 60 59
f 44 45 61
f 44 61 60
f 45 46 62
f 45 62 61
f 46 47 63
f 46 63 62
f 47 48 64
f 47 64 63
f 48 33 49
f 48 49 64
f 49 50 66
f 49 66 65
f 50 51 67
f 50 67 66
f 51 52 68
f 51 68 67
f 52 53 69
f 52 69 68
f 53 54 70
f 53 70 69
f 54 55 71
f 54 71 70
f 55 56 72
f 55 72 71
f 56 57 73
f 56 73 72
f 57 58 74
f 57 74 73
f 58 59 75
f 58 75 74
f 59 60 76
f 59 76 75
f 60 61 77
f 60 77 76
f 61 62 78
f 61 78 77
f 62 63 79
f 62 79 78
f 63 64 80
f 63 80 79
f 64 49 65
f 64 65 80
f 65 66 82
f 65 82 81
f 66 67 83
f 66 83 82
f 67 68 84
f 67 84 83
f 68 69 85
f 68 85 84
f 69 70 86
f 69 86 85
f 70 71 87
f 70 87 86
f 71 72 88
f 71 88 87
f 72 73 89
f 72 89 88
f 73 74 90
f 73 90 89
f 74 75 91
f 74 91 90
f 75 76 92
f 75 92 91
f 76 77 93
f 76 93 92
f 77 78 94
f 77 94 93
f 78 79 95
f 78 95 94
f 79 80 96
f 79 96 95
f 80 65 81
f 80 81 96
f 81 82 98
f 81 98 97
f 82 83 99
f 82 99 98
f 83 84 100
f 83 100 99
f 84 85 101
f 84 101 100
f 85 86 102
f 85 102 101
f 86 87 103
f 86 103 102
f 87 88 104
f 87 104 103
f 88 89 105
f 88 105 104
f 89 90 106
f 89 106 105
f 90 91 107
f 90 107 106
f 91 92 108
f 91 108 107
f 92 93 109
f 92 109 108
f 93 94 110
f 93 110 109
f 94 95 111
f 94 111 110
f 95 96 112
f 95 112 111
f 96 81 97
f 96 97 112
f 97 98 114
f 97 114 113
f 98 99 115
f 98 115 114
f 99 100 116
f 99 116 115
f 100 101 117
f 100 117 116
f 101 102 118
f 101 118 117
f 102 103 119
f 102 119 118
f 103 104 120
f 103 120 119
f 104 105 121
f 104 121 120
f 105 106 122
f 105 122 121
f 106 107 123
f 106 123 122
f 107 108 124
f 107 124 123
f 108 109 125
f 108 125 124
f 109 110 126
f 109 126 125
f 110 111 127
f 110 127 126
f 111 112 128
f 111 128 127
f 112 97 113
f 112 113 128
f 113 114 130
f 113 130 129
f 114 115 131
f 114 131 130
f 115 116 132
f 115 132 131
f 116 117 133
f 116 133 132
f 117 118 134
f 117 134 133
f 118 119 135
f 118 135 134
f 119 120 136
f 119 136 135
f 120 121 137
f 120 137 136
f 121 122 138
f 121 138 137
f 122 123 139
f 122 139 138
f 123 124 140
f 123 140 139
f 124 125 141
f 124 141 140
f 125 126 142
f 125 142 141
f 126 127 143
f 126 143 142
f 127 128 144
f 127 144 143
f 128 113 129
f 128 129 144
f 129 130 146
f 129 146 145
f 130 131 147
f 130 147 146
f 131 132 148
f 131 148 147
f 132 133 149
f 132 149 148
f 133 134 150
f 133 150 149
f 134 135 151
f 134 151 150
f 135 136 152
f 135 152 151
f 136 137 153
f 136 153 152
f 137 138 154
f 137 154 153
f 138 139 155
f 138 155 154
f 139 140 156
f 139 156 155
f 140 141 157
f 140 157 156
f 141 142 158
f 141 158 157
f 142 143 159
f 142 159 158
f 143 144 160
f 143 160 159
f 144 129 145
f 144 145 160
f 145 146 162
f 145 162 161
f 146 147 163
f 146 163 162
f 147 148 164
f 147 164 163
f 148 149 165
f 148 165 164
f 149 150 166
f 149 166 165
f 150 151 167
f 150 167 166
f 151 152 168
f 151 168 167
f 152 153 169
f 152 169 168
f 153 154 170
f 153 170 169
f 154 155 171
f 154 171 170
f 155 156 172
f 155 172 171
f 156 157 173
f 156 173 172
f 157 158 174
f 157 174 173
f 158 159 175
f 158 175 174
f 159 160 176
f 159 176 175
f 160 145 161
f 160 161 176
f 161 162 178
f 161 178 177
f 162 163 179
f 162 179 178
f 163 164 180
f 163 180 179
f 164 165 181
f 164 181 180
f 165 166 182
f 165 182 181
f 166 167 183
f 166 183 182
f 167 168 184
f 167 184 183
f 168 169 185
f 168 185 184
f 169 170 186
f 169 186 185
f 170 171 187
f 170 187 186
f 171 172 188
f 171 188 187
f 172 173 189
f 172 189 188
f 173 174 190
f 173 190 189
f 174 175 191
f 174 191 190
f 175 176 192
f 175 192 191
f 176 161 177
f 176 177 192
f 177 178 194
f 177 194 193
f 178 179 195
f 178 195 194
f 179 180 196
f 179 196 195
f 180 181 197
f 180 197 196
f 181 182 198
f 181 198 197
f 182 183 199
f 182 199 198
f 183 184 200
f 183 200 199
f 184 185 201
f 184 201 200
f 185 186 202
f 185 202 201
f 186 187 203
f 186 203 202
f 187 188 204
f 187 204 203
f 188 189 205
f 188 205 204
f 189 190 206
f 189 206 205
f 190 191 207
f 190 207 206
f 191 192 208
f 191 208 207
f 192 177 193
f 192 193 208
f 193 194 210
f 193 210 209
f 194 195 211
f 194 211 210
f 195 196 212
f 195 212 211
f 196 197 213
f 196 213 212
f 197 198 214
f 197 214 213
f 198 199 215
f 198 215 214
f 199 200 216
f 199 216 215
f 200 201 217
f 200 217 216
f 201 202 218
f 201 218 217
f 202 203 219
f 202 219 218
f 203 204 220
f 203 220 219
f 204 205 221
f 204 221 220
f 205 206 222
f 205 222 221
f 206 207 223
f 206 223 222
f 207 208 224
f 207 224 223
f 208 193 209
f 208 209 224
f 209 210 226
f 209 226 225
f 210 211 227
f 210 227 226
f 211 212 228
f 211 228 227
f 212 213 229
f 212 229 228
f 213 214 230
f 213 230 229
f 214 215 231
f 214 231 230
f 215 216 232
f 215 232 231
f 216 217 233
f 216 233 232
f 217 218 234
f 217 234 233
f 218 219 235
f 218 235 234
f 219 220 236
f 219 236 235
f 220 221 237
f 220 237 236
f 221 222 238
f 221 238 237
f 222 223 239
f 222 239 238
f 223 224 240
f 223 240 239
f 224 209 225
f 224 225 240
f 225 226 242
f 225 242 241
f 226 227 243
f 226 243 242
f 227 228 244
f 227 244 243
f 228 229 245
f 228 245 244
f 229 230 246
f 229 246 245
f 230 231 247
f 230 247 246
f 231 232 248
f 231 248 247
f 232 233 249
f 232 249 248
f 233 234 250
f 233 250 249
f 234 235 251
f 234 251 250
f 235 236 252
f 235 252 251
f 236 237 253
f 236 253 252
f 237 238 254
f 237 254 253
f 238 239 255
f 238 255 254
f 239 240 256
f 239 256 255
f 240 225 241
f 240 241 256
f 241 242 258
f 241 258 257
f 242 243 259
f 242 259 258
f 243 244 260
f 243 260 259
f 244 245 261
f 244 261 260
f 245 246 262
f 245 262 261
f 246 247 263
f 246 263 262
f 247 248 264
f 247 264 263
f 248 249 265
f 248 265 264
f 249 250 266
f 249 266 265
f 250 251 267
f 250 267 266
f 251 252 268
f 251 268 267
f 252 253 269
f 252 269 268
f 253 254 270
f 253 270 269
f 254 255 271
f 254 271 270
f 255 256 272
f 255 272 271
f 256 241 257
f 256 257 272
f 257 258 274
f 257 274 273
f 258 259 275
f 258 275 274
f 259 260 276
f 259 276 275
f 260 261 277
f 260 277 276
f 261 262 278
f 261 278 277
f 262 263 279
f 262 279 278
f 263 264 280
f 263 280 279
f 264 265 281
f 264 281 280
f 265 266 282
f 265 282 281
f 266 267 283
f 266 283 282
f 267 268 284
f 267 284 283
f 268 269 285
f 268 285 284
f 269 270 286
f 269 286 285
f 270 271 287
f 270 287 286
f 271 272 288
f 271 288 287
f 272 257 273
f 272 273 288
f 273 274 290
f 273 290 289
f 274 275 291
f 274 291 290
f 275 276 292
f 275 292 291
f 276 277 293
f 276 293 292
f 277 278 294
f 277 294 293
f 278 279 295
f 278 295 294
f 279 280 296
f 279 296 295
f 280 281 297
f 280 297 296
f 281 282 298
f 281 298 297
f 282 283 299
f 282 299 298
f 283 284 300
f 283 300 299
f 284 285 301
f 284 301 300
f 285 286 302
f 285 302 301
f 286 287 303
f 286 303 302
f 287 288 304
f 287 304 303
f 288 273 289
f 288 289 304
f 289 290 306
f 289 306 305
f 290 291 307
f 290 307 306
f 291 292 308
f 291 308 307
f 292 293 309
f 292 309 308
f 293 294 310
f 293 310 309
f 294 295 311
f 294 311 310
f 295 296 312
f 295 312 311
f 296 297 313
f 296 313 312
f 297 298 314
f 297 314 313
f 298 299 315
f 298 315 314
f 299 300 316
f 299 316 315
f 300 301 317
f 300 317 316
f 301 302 318
f 301 318 317
f 302 303 319
f 302 319 318
f 303 304 320
f 303 320 319
f 304 289 305
f 304 305 320
f 305 306 322
f 305 322 321
f 306 307 323
f 306 323 322
f 307 308 324
f 307 324 323
f 308 309 325
f 308 325 324
f 309 310 326
f 309 326 325
f 310 311 327
f 310 327 326
f 311 312 328
f 311 328 327
f 312 313 329
f 312 329 328
f 313 314 330
f 313 330 329
f 314 315 331
f 314 331 330
f 315 316 332
f 315 332 331
f 316 317 333
f 316 333 332
f 317 318 334
f 317 334 333
f 318 319 335
f 318 335 334
f 319 320 336
f 319 336 335
f 320 305 321
f 320 321 336
f 321 322 338
f 321 338 337
f 322 323 339
f 322 339 338
f 323 324 340
f 323 340 339
f 324 325 341
f 324 341 340
f 325 326 342
f 325 342 341
f 326 327 343
f 326 343 342
f 327 328 344
f 327 344 343
f 328 329 345
f 328 345 344
f 329 330 346
f 329 346 345
f 330 331 347
f 330 347 346
f 331 332 348
f 331 348 347
f 332 333 349
f 332 349 348
f 333 334 350
f 333 350 349
f 334 335 351
f 334 351 350
f 335 336 352
f 335 352 351
f 336 321 337
f 336 337 352
f 337 338 354
f 337 354 353
f 338 339 355
f 338 355 354
f 339 340 356
f 339 356 355
f 340 341 357
f 340 357 356
f 341 342 358
f 341 358 357
f 342 343 359
f 342 359 358
f 343 344 360
f 343 360 359
f 344 345 361
f 344 361 360
f 345 346 362
f 345 362 361
f 346 347 363
f 346 363 362
f 347 348 364
f 347 364 363
f 348 349 365
f 348 365 364
f 349 350 366
f 349 366 365
f 350 351 367
f 350 367 366
f 351 352 368
f 351 368 367
f 352 337 353
f 352 353 368
f 353 354 370
f 353 370 369
f 354 355 371
f 354 371 370
f 355 356 372
f 355 372 371
f 356 357 373
f 356 373 372
f 357 358 374
f 357 374 373
f 358 359 375
f 358 375 374
f 359 360 376
f 359 376 375
f 360 361 377
f 360 377 376
f 361 362 378
f 361 378 377
f 362 363 379
f 362 379 378
f 363 364 380
f 363 380 379
f 364 365 381
f 364 381 380
f 365 366 382
f 365 382 381
f 366 367 383
f 366 383 382
f 367 368 384
f 367 384 383
f 368 353 369
f 368 369 384
f 369 370 386
f 369 386 385
f 370 371 387
f 370 387 386
f 371 372 388
f 371 388 387
f 372 373 389
f 372 389 388
f 373 374 390
f 373 390 389
f 374 375 391
f 374 391 390
f 375 376 392
f 375 392 391
f 376 377 393
f 376 393 392
f 377 378 394
f 377 394 393
f 378 379 395
f 378 395 394
f 379 380 396
f 379 396 395
f 380 381 397
f 380 397 396
f 381 382 398
f 381 398 397
f 382 383 399
f 382 399 398
f 383 384 400
f 383 400 399
f 384 369 385
f 384 385 400
f 385 386 402
f 385 402 401
f 386 387 403
f 386 403 402
f 387 388 404
f 387 404 403
f 388 389 405
f 388 405 404
f 389 390 406
f 389 406 405
f 390 391 407
f 390 407 406
f 391 392 408
f 391 408 407
f 392 393 409
f 392 409 408
f 393 394 410
f 393 410 409
f 394 395 411
f 394 411 410
f 395 396 412
f 395 412 411
f 396 397 413
f 396 413 412
f 397 398 414
f 397 414 413
f 398 399 415
f 398 415 414
f 399 400 416
f 399 416 415
f 400 385 401
f 400 401 416
f 401 402 418
f 401 418 417
f 402 403 419
f 402 419 418
f 403 404 420
f 403 420 419
f 404 405 421
f 404 421 420
f 405 406 422
f 405 422 421
f 406 407 423
f 406 423 422
f 407 408 424
f 407 424 423
f 408 409 425
f 408 425 424
f 409 410 426
f 409 426 425
f 410 411 427
f 410 427 426
f 411 412 428
f 411 428 427
f 412 413 429
f 412 429 428
f 413 414 430
f 413 430 429
f 414 415 431
f 414 431 430
f 415 416 432
f 415 432 431
f 416 401 417
f 416 417 432
f 417 418 434
f 417 434 433
f 418 419 435
f 418 435 434
f 419 420 436
f 419 436 435
f 420 421 437
f 420 437 436
f 421 422 438
f 421 438 437
f 422 423 439
f 422 439 438
f 423 424 440
f 423 440 439
f 424 425 441
f 424 441 440
f 425 426 442
f 425 442 441
f 426 427 443
f 426 443 442
f 427 428 444
f 427 444 443
f 428 429 445
f 428 445 444
f 429 430 446
f 429 446 445
f 430 431 447
f 430 447 446
f 431 432 448
f 431 448 447
f 432 417 433
f 432 433 448
f 433 434 450
f 433 450 449
f 434 435 451
f 434 451 450
f 435 436 452
f 435 452 451
f 436 437 453
f 436 453 452
f 437 438 454
f 437 454 453
f 438 439 455
f 438 455 454
f 439 440 456
f 439 456 455
f 440 441 457
f 440 457 456
f 441 442 458
f 441 458 457
f 442 443 459
f 442 459 458
f 443 444 460
f 443 460 459
f 444 445 461
f 444 461 460
f 445 446 462
f 445 462 461
f 446 447 463
f 446 463 462
f 447 448 464
f 447 464 463
f 448 433 449
f 448 449 464
f 449 450 466
f 449 466 465
f 450 451 467
f 450 467 466
f 451 452 468
f 451 468 467
f 452 453 469
f 452 469 468
f 453 454 470
f 453 470 469
f 454 455 471
f 454 471 470
f 455 456 472
f 455 472 471
f 456 457 473
f 456 473 472
f 457 458 474
f 457 474 473
f 458 459 475
f 458 475 474
f 459 460 476
f 459 476 475
f 460 461 477
f 460 477 476
f 461 462 478
f 461 478 477
f 462 463 479
f 462 479 478
f 463 464 480
f 463 480 479
f 464 449 465
f 464 465 480
f 465 466 482
f 465 482 481
f 466 467 483
f 466 483 482
f 467 468 484
f 467 484 483
f 468 469 485
f 468 485 484
f 469 470 486
f 469 486 485
f 470 471 487
f 470 487 486
f 471 472 488
f 471 488 487
f 472 473 489
f 472 489 488
f 473 474 490
f 473 490 489
f 474 475 491
f 474 491 490
f 475 476 492
f 475 492 491
f 476 477 493
f 476 493 492
f 477 478 494
f 477 494 493
f 478 479 495
f 478 495 494
f 479 480 496
f 479 496 495
f 480 465 481
f 480 481 496
f 481 482 498
f 481 498 497
f 482 483 499
f 482 499 498
f 483 484 500
f 483 500 499
f 484 485 501
f 484 501 500
f 485 486 502
f 485 502 501
f 486 487 503
f 486 503 502
f 487 488 504
f 487 504 503
f 488 489 505
f 488 505 504
f 489 490 506
f 489 506 505
f 490 491 507
f 490 507 506
f 491 492 508
f 491 508 507
f 492 493 509
f 492 509 508
f 493 494 510
f 493 510 509
f 494 495 511
f 494 511 510
f 495 496 512
f 495 512 511
f 496 481 497
f 496 497 512
f 497 498 514
f 497 514 513
f 498 499 515
f 498 515 514
f 499 500 516
f 499 516 515
f 500 501 517
f 500 517 516
f 501 502 518
f 501 518 517
f 502 503 519
f 502 519 518
f 503 504 520
f 503 520 519
f 504 505 521
f 504 521 520
f 505 506 522
f 505 522 521
f 506 507 523
f 506 523 522
f 507 508 524
f 507 524 523
f 508 509 525
f 508 525 524
f 509 510 526
f 509 526 525
f 510 511 527
f 510 527 526
f 511 512 528
f 511 528 527
f 512 497 513
f 512 513 528
f 513 514 530
f 513 530 529
f 514 515 531
f 514 531 530
f 515 516 532
f 515 532 531
f 516 517 533
f 516 533 532
f 517 518 534
f 517 534 533
f 518 519 535
f 518 535 534
f 519 520 536
f 519 536 535
f 520 521 537
f 520 537 536
f 521 522 538
f 521 538 537
f 522 523 539
f 522 539 538
f 523 524 540
f 523 540 539
f 524 525 541
f 524 541 540
f 525 526 542
f 525 542 541
f 526 527 543
f 526 543 542
f 527 528 544
f 527 544 543
f 528 513 529
f 528 529 544
f 529 530 546
f 529 546 545
f 530 531 547
f 530 547 546
f 531 532 548
f 531 548 547
f 532 533 549
f 532 549 548
f 533 534 550
f 533 550 549
f 534 535 551
f 534 551 550
f 535 536 552
f 535 552 551
f 536 537 553
f 536 553 552
f 537 538 554
f 537 554 553
f 538 539 555
f 538 555 554
f 539 540 556
f 539 556 555
f 540 541 557
f 540 557 556
f 541 542 558
f 541 558 557
f 542 543 559
f 542 559 558
f 543 544 560
f 543 560 559
f 544 529 545
f 544 545 560
f 545 546 562
f 545 562 561
f 546 547 563
f 546 563 562
f 547 548 564
f 547 564 563
f 548 549 565
f 548 565 564
f 549 550 566
f 549 566 565
f 550 551 567
f 550 567 566
f 551 552 568
f 551 568 567
f 552 553 569
f 552 569 568
f 553 554 570
f 553 570 569
f 554 555 571
f 554 571 570
f 555 556 572
f 555 572 571
f 556 557 573
f 556 573 572
f 557 558 574
f 557 574 573
f 558 559 575
f 558 575 574
f 559 560 576
f 559 576 575
f 560 545 561
f 560 561 576
f 577 578 594
f 577 594 593
f 578 579 595
f 578 595 594
f 579 580 596
f 579 596 595
f 580 581 597
f 580 597 596
f 581 582 598
f 581 598 597
f 582 583 599
f 582 599 598
f 583 584 600
f 583 600 599
f 584 585 601
f 584 601 600
f 585 586 602
f 585 602 601
f 586 587 603
f 586 603 602
f 587 588 604
f 587 604 603
f 588 589 605
f 588 605 604
f 589 590 606
f 589 606 605
f 590 591 607
f 590 607 606
f 591 592 608
f 591 608 607
f 592 577 593
f 592 593 608
f 593 594 610
f 593 610 609
f 594 595 611
f 594 611 610
f 595 596 612
f 595 612 611
f 596 597 613
f 596 613 612
f 597 598 614
f 597 614 613
f 598 599 615
f 598 615 614
f 599 600 616
f 599 616 615
f 600 601 617
f 600 617 616
f 601 602 618
f 601 618 617
f 602 603 619
f 602 619 618
f 603 604 620
f 603 620 619
f 604 605 621
f 604 621 620
f 605 606 622
f 605 622 621
f 606 607 623
f 606 623 622
f 607 608 624
f 607 624 623
f 608 593 609
f 608 609 624
f 609 610 626
f 609 626 625
f 610 611 627
f 610 627 626
f 611 612 628
f 611 628 627
f 612 613 629
f 612 629 628
f 613 614 630
f 613 630 629
f 614 615 631
f 614 631 630
f 615 616 632
f 615 632 631
f 616 617 633
f 616 633 632
f 617 618 634
f 617 634 633
f 618 619 635
f 618 635 634
f 619 620 636
f 619 636 635
f 620 621 637
f 620 637 636
f 621 622 638
f 621 638 637
f 622 623 639
f 622 639 638
f 623 624 640
f 623 640 639
f 624 609 625
f 624 625 640
f 625 626 642
f 625 642 641
f 626 627 643
f 626 643 642
f 627 628 644
f 627 644 643
f 628 629 645
f 628 645 644
f 629 630 646
f 629 646 645
f 630 631 647
f 630 647 646
f 631 632 648
f 631 648 647
f 632 633 649
f 632 649 648
f 633 634 650
f 633 650 649
f 634 635 651
f 634 651 650
f 635 636 652
f 635 652 651
f 636 637 653
f 636 653 652
f 637 638 654
f 637 654 653
f 638 639 655
f 638 655 654
f 639 640 656
f 639 656 655
f 640 625 641
f 640 641 656
f 641 642 658
f 641 658 657
f 642 643 659
f 642 659 658
f 643 644 660
f 643 660 659
f 644 645 661
f 644 661 660
f 645 646 662
f 645 662 661
f 646 647 663
f 646 663 662
f 647 648 664
f 647 664 663
f 648 649 665
f 648 665 664
f 649 650 666
f 649 666 665
f 650 651 667
f 650 667 666
f 651 652 668
f 651 668 667
f 652 653 669
f 652 669 668
f 653 654 670
f 653 670 669
f 654 655 671
f 654 671 670
f 655 656 672
f 655 672 671
f 656 641 657
f 656 657 672
f 657 658 674
f 657 674 673
f 658 659 675
f 658 675 674
f 659 660 676
f 659 676 675
f 660 661 677
f 660 677 676
f 661 662 678
f 661 678 677
f 662 663 679
f 662 679 678
f 663 664 680
f 663 680 679
f 664 665 681
f 664 681 680
f 665 666 682
f 665 682 681
f 666 667 683
f 666 683 682
f 667 668 684
f 667 684 683
f 668 669 685
f 668 685 684
f 669 670 686
f 669 686 685
f 670 671 687
f 670 687 686
f 671 672 688
f 671 688 687
f 672 657 673
f 672 673 688
f 673 674 690
f 673 690 689
f 674 675 691
f 674 691 690
f 675 676 692
f 675 692 691
f 676 677 693
f 676 693 692
f 677 678 694
f 677 694 693
f 678 679 695
f 678 695 694
f 679 680 696
f 679 696 695
f 680 681 697
f 680 697 696
f 681 682 698
f 681 698 697
f 682 683 699
f 682 699 698
f 683 684 700
f 683 700 699
f 684 685 701
f 684 701 700
f 685 686 702
f 685 702 701
f 686 687 703
f 686 703 702
f 687 688 704
f 687 704 703
f 688 673 689
f 688 689 704
f 689 690 706
f 689 706 705
f 690 691 707
f 690 707 706
f 691 692 708
f 691 708 707
f 692 693 709
f 692 709 708
f 693 694 710
f 693 710 709
f 694 695 711
f 694 711 710
f 695 696 712
f 695 712 711
f 696 697 713
f 696 713 712
f 697 698 714
f 697 714 713
f 698 699 715
f 698 715 714
f 699 700 716
f 699 716 715
f 700 701 717
f 700 717 716
f 701 702 718
f 701 718 717
f 702 703 719
f 702 719 718
f 703 704 720
f 703 720 719
f 704 689 705
f 704 705 720
f 705 706 722
f 705 722 721
f 706 707 723
f 706 723 722
f 707 708 724
f 707 724 723
f 708 709 725
f 708 725 724
f 709 710 726
f 709 726 725
f 710 711 727
f 710 727 726
f 711 712 728
f 711 728 727
f 712 713 729
f 712 729 728
f 713 714 730
f 713 730 729
f 714 715 731
f 714 731 730
f 715 716 732
f 715 732 731
f 716 717 733
f 716 733 732
f 717 718 734
f 717 734 733
f 718 719 735
f 718 735 734
f 719 720 736
f 719 736 735
f 720 705 721
f 720 721 736
f 721 722 738
f 721 738 737
f 722 723 739
f 722 739 738
f 723 724 740
f 723 740 739
f 724 725 741
f 724 741 740
f 725 726 742
f 725 742 741
f 726 727 743
f 726 743 742
f 727 728 744
f 727 744 743
f 728 729 745
f 728 745 744
f 729 730 746
f 729 746 745
f 730 731 747
f 730 747 746
f 731 732 748
f 731 748 747
f 732 733 749
f 732 749 748
f 733 734 750
f 733 750 749
f 734 735 751
f 734 751 750
f 735 736 752
f 735 752 751
f 736 721 737
f 736 737 752
f 737 738 754
f 737 754 753
f 738 739 755
f 738 755 754
f 739 740 756
f 739 756 755
f 740 741 757
f 740 757 756
f 741 742 758
f 741 758 757
f 742 743 759
f 742 759 758
f 743 744 760
f 743 760 759
f 744 745 761
f 744 761 760
f 745 746 762
f 745 762 761
f 746 747 763
f 746 763 762
f 747 748 764
f 747 764 763
f 748 749 765
f 748 765 764
f 749 750 766
f 749 766 765
f 750 751 767
f 750 767 766
f 751 752 768
f 751 768 767
f 752 737 753
f 752 753 768
f 753 754 770
f 753 770 769
f 754 755 771
f 754 771 770
f 755 756 772
f 755 772 771
f 756 757 773
f 756 773 772
f 757 758 774
f 757 774 773
f 758 759 775
f 758 775 774
f 759 760 776
f 759 776 775
f 760 761 777
f 760 777 776
f 761 762 778
f 761 778 777
f 762 763 779
f 762 779 778
f 763 764 780
f 763 780 779
f 764 765 781
f 764 781 780
f 765 766 782
f 765 782 781
f 766 767 783
f 766 783 782
f 767 768 784
f 767 784 783
f 768 753 769
f 768 769 784
f 769 770 786
f 769 786 785
f 770 771 787
f 770 787 786
f 771 772 788
f 771 788 787
f 772 773 789
f 772 789 788
f 773 774 790
f 773 790 789
f 774 775 791
f 774 791 790
f 775 776 792
f 775 792 791
f 776 777 793
f 776 793 792
f 777 778 794
f 777 794 793
f 778 779 795
f 778 795 794
f 779 780 796
f 779 796 795
f 780 781 797
f 780 797 796
f 781 782 798
f 781 798 797
f 782 783 799
f 782 799 798
f 783 784 800
f 783 800 799
f 784 769 785
f 784 785 800
f 785 786 802
f 785 802 801
f 786 787 803
f 786 803 802
f 787 788 804
f 787 804 803
f 788 789 805
f 788 805 804
f 789 790 806
f 789 806 805
f 790 791 807
f 790 807 806
f 791 792 808
f 791 808 807
f 792 793 809
f 792 809 808
f 793 794 810
f 793 810 809
f 794 795 811
f 794 811 810
f 795 796 812
f 795 812 811
f 796 797 813
f 796 813 812
f 797 798 814
f 797 814 813
f 798 799 815
f 798 815 814
f 799 800 816
f 799 816 815
f 800 785 801
f 800 801 816
f 801 802 818
f 801 818 817
f 802 803 819
f 802 819 818
f 803 804 820
f 803 820 819
f 804 805 821
f 804 821 820
f 805 806 822
f 805 822 821
f 806 807 823
f 806 823 822
f 807 808 824
f 807 824 823
f 808 809 825
f 808 825 824
f 809 810 826
f 809 826 825
f 810 811 827
f 810 827 826
f 811 812 828
f 811 828 827
f 812 813 829
f 812 829 828
f 813 814 830
f 813 830 829
f 814 815 831
f 814 831 830
f 815 816 832
f 815 832 831
f 816 801 817
f 816 817 832
f 817 818 834
f 817 834 833
f 818 819 835
f 818 835 834
f 819 820 836
f 819 836 835
f 820 821 837
f 820 837 836
f 821 822 838
f 821 838 837
f 822 823 839
f 822 839 838
f 823 824 840
f 823 840 839
f 824 825 841
f 824 841 840
f 825 826 842
f 825 842 841
f 826 827 843
f 826 843 842
f 827 828 844
f 827 844 843
f 828 829 845
f 828 845 844
f 829 830 846
f 829 846 845
f 830 831 847
f 830 847 846
f 831 832 848
f 831 848 847
f 832 817 833
f 832 833 848
f 833 834 850
f 833 850 849
f 834 835 851
f 834 851 850
f 835 836 852
f 835 852 851
f 836 837 853
f 836 853 852
f 837 838 854
f 837 854 853
f 838 839 855
f 838 855 854
f 839 840 856
f 839 856 855
f 840 841 857
f 840 857 856
f 841 842 858
f 841 858 857
f 842 843 859
f 842 859 858
f 843 844 860
f 843 860 859
f 844 845 861
f 844 861 860
f 845 846 862
f 845 862 861
f 846 847 863
f 846 863 862
f 847 848 864
f 847 864 863
f 848 833 849
f 848 849 864
f 849 850 866
f 849 866 865
f 850 851 867
f 850 867 866
f 851 852 868
f 851 868 867
f 852 853 869
f 852 869 868
f 853 854 870
f 853 870 869
f 854 855 871
f 854 871 870
f 855 856 872
f 855 872 871
f 856 857 873
f 856 873 872
f 857 858 874
f 857 874 873
f 858 859 875
f 858 875 874
f 859 860 876
f 859 876 875
f 860 861 877
f 860 877 876
f 861 862 878
f 861 878 877
f 862 863 879
f 862 879 878
f 863 864 880
f 863 880 879
f 864 849 865
f 864 865 880
f 865 866 882
f 865 882 881
f 866 867 883
f 866 883 882
f 867 868 884
f 867 884 883
f 868 869 885
f 868 885 884
f 869 870 886
f 869 886 885
f 870 871 887
f 870 887 886
f 871 872 888
f 871 888 887
f 872 873 889
f 872 889 888
f 873 874 890
f 873 890 889
f 874 875 891
f 874 891 890
f 875 876 892
f 875 892 891
f 876 877 893
f 876 893 892
f 877 878 894
f 877 894 893
f 878 879 895
f 878 895 894
f 879 880 896
f 879 896 895
f 880 865 881
f 880 881 896
f 881 882 898
f 881 898 897
f 882 883 899
f 882 899 898
f 883 884 900
f 883 900 899
f 884 885 901
f 884 901 900
f 885 886 902
f 885 902 901
f 886 887 903
f 886 903 902
f 887 888 904
f 887 904 903
f 888 889 905
f 888 905 904
f 889 890 906
f 889 906 905
f 890 891 907
f 890 907 906
f 891 892 908
f 891 908 907
f 892 893 909
f 892 909 908
f 893 894 910
f 893 910 909
f 894 895 911
f 894 911 910
f 895 896 912
f 895 912 911
f 896 881 897
f 896 897 912
f 897 898 914
f 897 914 913
f 898 899 915
f 898 915 914
f 899 900 916
f 899 916 915
f 900 901 917
f 900 917 916
f 901 902 918
f 901 918 917
f 902 903 919
f 902 919 918
f 903 904 920
f 903 920 919
f 904 905 921
f 904 921 920
f 905 906 922
f 905 922 921
f 906 907 923
f 906 923 922
f 907 908 924
f 907 924 923
f 908 909 925
f 908 925 924
f 909 910 926
f 909 926 925
f 910 911 927
f 910 927 926
f 911 912 928
f 911 928 927
f 912 897 913
f 912 913 928
f 913 914 930
f 913 930 929
f 914 915 931
f 914 931 930
f 915 916 932
f 915 932 931
f 916 917 933
f 916 933 932
f 917 918 934
f 917 934 933
f 918 919 935
f 918 935 934
f 919 920 936
f 919 936 935
f 920 921 937
f 920 937 936
f 921 922 938
f 921 938 937
f 922 923 939
f 922 939 938
f 923 924 940
f 923 940 939
f 924 925 941
f 924 941 940
f 925 926 942
f 925 942 941
f 926 927 943
f 926 943 942
f 927 928 944
f 927 944 943
f 928 913 929
f 928 929 944
f 929 930 946
f 929 946 945
f 930 931 947
f 930 947 946
f 931 932 948
f 931 948 947
f 932 933 949
f 932 949 948
f 933 934 950
f 933 950 949
f 934 935 951
f 934 951 950
f 935 936 952
f 935 952 951
f 936 937 953
f 936 953 952
f 937 938 954
f 937 954 953
f 938 939 955
f 938 955 954
f 939 940 956
f 939 956 955
f 940 941 957
f 940 957 956
f 941 942 958
f 941 958 957
f 942 943 959
f 942 959 958
f 943 944 960
f 943 960 959
f 944 929 945
f 944 945 960
f 945 946 962
f 945 962 961
f 946 947 963
f 946 963 962
f 947 948 964
f 947 964 963
f 948 949 965
f 948 965 964
f 949 950 966
f 949 966 965
f 950 951 967
f 950 967 966
f 951 952 968
f 951 968 967
f 952 953 969
f 952 969 968
f 953 954 970
f 953 970 969
f 954 955 971
f 954 971 970
f 955 956 972
f 955 972 971
f 956 957 973
f 956 973 972
f 957 958 974
f 957 974 973
f 958 959 975
f 958 975 974
f 959 960 976
f 959 976 975
f 960 945 961
f 960 961 976
f 961 962 978
f 961 978 977
f 962 963 979
f 962 979 978
f 963 964 980
f 963 980 979
f 964 965 981
f 964 981 980
f 965 966 982
f 965 982 981
f 966 967 983
f 966 983 982
f 967 968 984
f 967 984 983
f 968 969 985
f 968 985 984
f 969 970 986
f 969 986 985
f 970 971 987
f 970 987 986
f 971 972 988
f 971 988 987
f 972 973 989
f 972 989 988
f 973 974 990
f 973 990 989
f 974 975 991
f 974 991 990
f 975 976 992
f 975 992 991
f 976 961 977
f 976 977 992
f 977 978 994
f 977 994 993
f 978 979 995
f 978 995 994
f 979 980 996
f 979 996 995
f 980 981 997
f 980 997 996
f 981 982 998
f 981 998 997
f 982 983 999
f 982 999 998
f 983 984 1000
f 983 1000 999
f 984 985 1001
f 984 1001 1000
f 985 986 1002
f 985 1002 1001
f 986 987 1003
f 986 1003 1002
f 987 988 1004
f 987 1004 1003
f 988 989 1005
f 988 1005 1004
f 989 990 1006
f 989 1006 1005
f 990 991 1007
f 990 1007 1006
f 991 992 1008
f 991 1008 1007
f 992 977 993
f 992 993 1008
f 993 994 1010
f 993 1010 1009
f 994 995 1011
f 994 1011 1010
f 995 996 1012
f 995 1012 1011
f 996 997 1013
f 996 1013 1012
f 997 998 1014
f 997 1014 1013
f 998 999 1015
f 998 1015 1014
f 999 1000 1016
f 999 1016 1015
f 1000 1001 1017
f 1000 1017 1016
f 1001 1002 1018
f 1001 1018 1017
f 1002 1003 1019
f 1002 1019 1018
f 1003 1004 1020
f 1003 1020 1019
f 1004 1005 1021
f 1004 1021 1020
f 1005 1006 1022
f 1005 1022 1021
f 1006 1007 1023
f 1006 1023 1022
f 1007 1008 1024
f 1007 1024 1023
f 1008 993 1009
f 1008 1009 1024
