# tube retopo
v -1.086111 0.000000 0.160000
v -1.086111 0.044226 0.173388
v -1.086111 0.076663 0.205852
v -1.086111 0.090000 0.250000
v -1.086111 0.076612 0.294226
v -1.086111 0.044148 0.326663
v -1.086111 0.000000 0.340000
v -1.086111 -0.044226 0.326612
v -1.086111 -0.076663 0.294148
v -1.086111 -0.090000 0.250000
v -1.086111 -0.076612 0.205774
v -1.086111 -0.044148 0.173337
v -1.022222 0.000000 0.160000
v -1.022222 0.044236 0.173395
v -1.022222 0.076666 0.205856
v -1.022222 0.090000 0.250000
v -1.022222 0.076605 0.294236
v -1.022222 0.044144 0.326666
v -1.022222 -0.000000 0.340000
v -1.022222 -0.044236 0.326605
v -1.022222 -0.076666 0.294144
v -1.022222 -0.090000 0.250000
v -1.022222 -0.076605 0.205764
v -1.022222 -0.044144 0.173334
v -0.958333 0.000000 0.160000
v -0.958333 0.044193 0.173366
v -0.958333 0.076655 0.205840
v -0.958333 0.090000 0.250000
v -0.958333 0.076634 0.294193
v -0.958333 0.044160 0.326655
v -0.958333 -0.000000 0.340000
v -0.958333 -0.044193 0.326634
v -0.958333 -0.076655 0.294160
v -0.958333 -0.090000 0.250000
v -0.958333 -0.076634 0.205807
v -0.958333 -0.044160 0.173345
v -0.894444 0.000000 0.160000
v -0.894444 0.044157 0.173343
v -0.894444 0.076630 0.205802
v -0.894444 0.090000 0.250000
v -0.894444 0.076657 0.294157
v -0.894444 0.044198 0.326630
v -0.894444 -0.000000 0.340000
v -0.894444 -0.044157 0.326657
v -0.894444 -0.076630 0.294198
v -0.894444 -0.090000 0.250000
v -0.894444 -0.076657 0.205843
v -0.894444 -0.044198 0.173370
v -0.830556 0.000000 0.160000
v -0.830556 0.044143 0.173333
v -0.830556 0.076604 0.205763
v -0.830556 0.090000 0.250000
v -0.830556 0.076667 0.294143
v -0.830556 0.044237 0.326604
v -0.830556 0.000000 0.340000
v -0.830556 -0.044143 0.326667
v -0.830556 -0.076604 0.294237
v -0.830556 -0.090000 0.250000
v -0.830556 -0.076667 0.205857
v -0.830556 -0.044237 0.173396
v -0.766667 0.000000 0.160000
v -0.766667 0.044150 0.173338
v -0.766667 0.076614 0.205778
v -0.766667 0.090000 0.250000
v -0.766667 0.076662 0.294150
v -0.766667 0.044222 0.326614
v -0.766667 -0.000000 0.340000
v -0.766667 -0.044150 0.326662
v -0.766667 -0.076614 0.294222
v -0.766667 -0.090000 0.250000
v -0.766667 -0.076662 0.205850
v -0.766667 -0.044222 0.173386
v -0.702778 0.000000 0.160000
v -0.702778 0.044182 0.173359
v -0.702778 0.076649 0.205830
v -0.702778 0.090000 0.250000
v -0.702778 0.076641 0.294182
v -0.702778 0.044170 0.326649
v -0.702778 -0.000000 0.340000
v -0.702778 -0.044182 0.326641
v -0.702778 -0.076649 0.294170
v -0.702778 -0.090000 0.250000
v -0.702778 -0.076641 0.205818
v -0.702778 -0.044170 0.173351
v -0.638889 0.000000 0.160000
v -0.638889 0.044229 0.173391
v -0.638889 0.076664 0.205853
v -0.638889 0.090000 0.250000
v -0.638889 0.076609 0.294229
v -0.638889 0.044147 0.326664
v -0.638889 -0.000000 0.340000
v -0.638889 -0.044229 0.326609
v -0.638889 -0.076664 0.294147
v -0.638889 -0.090000 0.250000
v -0.638889 -0.076609 0.205771
v -0.638889 -0.044147 0.173336
v -0.575000 0.000000 0.160000
v -0.575000 0.044234 0.173394
v -0.575000 0.076666 0.205856
v -0.575000 0.090000 0.250000
v -0.575000 0.076606 0.294234
v -0.575000 0.044144 0.326666
v -0.575000 0.000000 0.340000
v -0.575000 -0.044234 0.326606
v -0.575000 -0.076666 0.294144
v -0.575000 -0.090000 0.250000
v -0.575000 -0.076606 0.205766
v -0.575000 -0.044144 0.173334
v -0.511111 0.000000 0.160000
v -0.511111 0.044188 0.173363
v -0.511111 0.076653 0.205837
v -0.511111 0.090000 0.250000
v -0.511111 0.076637 0.294188
v -0.511111 0.044163 0.326653
v -0.511111 -0.000000 0.340000
v -0.511111 -0.044188 0.326637
v -0.511111 -0.076653 0.294163
v -0.511111 -0.090000 0.250000
v -0.511111 -0.076637 0.205812
v -0.511111 -0.044163 0.173347
v -0.447222 0.000000 0.160000
v -0.447222 0.044154 0.173341
v -0.447222 0.076626 0.205796
v -0.447222 0.090000 0.250000
v -0.447222 0.076659 0.294154
v -0.447222 0.044204 0.326626
v -0.447222 -0.000000 0.340000
v -0.447222 -0.044154 0.326659
v -0.447222 -0.076626 0.294204
v -0.447222 -0.090000 0.250000
v -0.447222 -0.076659 0.205846
v -0.447222 -0.044204 0.173374
v -0.383333 0.000000 0.160000
v -0.383333 0.044143 0.173333
v -0.383333 0.076604 0.205763
v -0.383333 0.090000 0.250000
v -0.383333 0.076667 0.294143
v -0.383333 0.044237 0.326604
v -0.383333 0.000000 0.340000
v -0.383333 -0.044143 0.326667
v -0.383333 -0.076604 0.294237
v -0.383333 -0.090000 0.250000
v -0.383333 -0.076667 0.205857
v -0.383333 -0.044237 0.173396
v -0.319444 0.000000 0.160000
v -0.319444 0.044152 0.173339
v -0.319444 0.076617 0.205782
v -0.319444 0.090000 0.250000
v -0.319444 0.076661 0.294152
v -0.319444 0.044218 0.326617
v -0.319444 0.000000 0.340000
v -0.319444 -0.044152 0.326661
v -0.319444 -0.076617 0.294218
v -0.319444 -0.090000 0.250000
v -0.319444 -0.076661 0.205848
v -0.319444 -0.044218 0.173383
vn 0.00003 0.00029 -1.00000
vn 0.00004 0.51403 -0.85777
vn 0.00001 0.85813 -0.51344
vn 0.00003 1.00000 0.00029
vn 0.00004 0.85777 0.51403
vn 0.00001 0.51344 0.85813
vn 0.00003 -0.00029 1.00000
vn 0.00004 -0.51403 0.85777
vn 0.00001 -0.85813 0.51344
vn 0.00003 -1.00000 -0.00029
vn 0.00004 -0.85777 -0.51403
vn 0.00001 -0.51344 -0.85813
vn -0.00005 0.00032 -1.00000
vn -0.00006 0.51406 -0.85775
vn -0.00001 0.85814 -0.51341
vn -0.00005 1.00000 0.00032
vn -0.00006 0.85775 0.51406
vn -0.00001 0.51341 0.85814
vn -0.00005 -0.00032 1.00000
vn -0.00006 -0.51406 0.85775
vn -0.00001 -0.85814 0.51341
vn -0.00005 -1.00000 -0.00032
vn -0.00006 -0.85775 -0.51406
vn -0.00001 -0.51341 -0.85814
vn -0.00011 0.00024 -1.00000
vn -0.00016 0.51396 -0.85781
vn -0.00005 0.85810 -0.51348
vn -0.00011 1.00000 0.00024
vn -0.00016 0.85781 0.51396
vn -0.00005 0.51348 0.85810
vn -0.00011 -0.00024 1.00000
vn -0.00016 -0.51396 0.85781
vn -0.00005 -0.85810 0.51348
vn -0.00011 -1.00000 -0.00024
vn -0.00016 -0.85781 -0.51396
vn -0.00005 -0.51348 -0.85810
vn -0.00007 -0.00002 -1.00000
vn -0.00014 0.51369 -0.85798
vn -0.00007 0.85796 -0.51372
vn -0.00007 1.00000 -0.00002
vn -0.00014 0.85798 0.51369
vn -0.00007 0.51372 0.85796
vn -0.00007 0.00002 1.00000
vn -0.00014 -0.51369 0.85798
vn -0.00007 -0.85796 0.51372
vn -0.00007 -1.00000 0.00002
vn -0.00014 -0.85798 -0.51369
vn -0.00007 -0.51372 -0.85796
vn -0.00001 -0.00026 -1.00000
vn -0.00003 0.51347 -0.85811
vn -0.00002 0.85780 -0.51398
vn -0.00001 1.00000 -0.00026
vn -0.00003 0.85811 0.51347
vn -0.00002 0.51398 0.85780
vn -0.00001 0.00026 1.00000
vn -0.00003 -0.51347 0.85811
vn -0.00002 -0.85780 0.51398
vn -0.00001 -1.00000 0.00026
vn -0.00003 -0.85811 -0.51347
vn -0.00002 -0.51398 -0.85780
vn 0.00006 -0.00031 -1.00000
vn 0.00012 0.51342 -0.85814
vn 0.00006 0.85776 -0.51405
vn 0.00006 1.00000 -0.00031
vn 0.00012 0.85814 0.51342
vn 0.00006 0.51405 0.85776
vn 0.00006 0.00031 1.00000
vn 0.00012 -0.51342 0.85814
vn 0.00006 -0.85776 0.51405
vn 0.00006 -1.00000 0.00031
vn 0.00012 -0.85814 -0.51342
vn 0.00006 -0.51405 -0.85776
vn 0.00011 -0.00011 -1.00000
vn 0.00018 0.51360 -0.85803
vn 0.00007 0.85789 -0.51383
vn 0.00011 1.00000 -0.00011
vn 0.00018 0.85803 0.51360
vn 0.00007 0.51383 0.85789
vn 0.00011 0.00011 1.00000
vn 0.00018 -0.51360 0.85803
vn 0.00007 -0.85789 0.51383
vn 0.00011 -1.00000 0.00011
vn 0.00018 -0.85803 -0.51360
vn 0.00007 -0.51383 -0.85789
vn 0.00007 0.00018 -1.00000
vn 0.00010 0.51390 -0.85785
vn 0.00002 0.85807 -0.51354
vn 0.00007 1.00000 0.00018
vn 0.00010 0.85785 0.51390
vn 0.00002 0.51354 0.85807
vn 0.00007 -0.00018 1.00000
vn 0.00010 -0.51390 0.85785
vn 0.00002 -0.85807 0.51354
vn 0.00007 -1.00000 -0.00018
vn 0.00010 -0.85785 -0.51390
vn 0.00002 -0.51354 -0.85807
vn -0.00006 0.00033 -1.00000
vn -0.00007 0.51407 -0.85775
vn -0.00002 0.85814 -0.51341
vn -0.00006 1.00000 0.00033
vn -0.00007 0.85775 0.51407
vn -0.00002 0.51341 0.85814
vn -0.00006 -0.00033 1.00000
vn -0.00007 -0.51407 0.85775
vn -0.00002 -0.85814 0.51341
vn -0.00006 -1.00000 -0.00033
vn -0.00007 -0.85775 -0.51407
vn -0.00002 -0.51341 -0.85814
vn -0.00011 0.00022 -1.00000
vn -0.00017 0.51394 -0.85783
vn -0.00006 0.85809 -0.51350
vn -0.00011 1.00000 0.00022
vn -0.00017 0.85783 0.51394
vn -0.00006 0.51350 0.85809
vn -0.00011 -0.00022 1.00000
vn -0.00017 -0.51394 0.85783
vn -0.00006 -0.85809 0.51350
vn -0.00011 -1.00000 -0.00022
vn -0.00017 -0.85783 -0.51394
vn -0.00006 -0.51350 -0.85809
vn -0.00006 -0.00005 -1.00000
vn -0.00013 0.51366 -0.85800
vn -0.00007 0.85794 -0.51375
vn -0.00006 1.00000 -0.00005
vn -0.00013 0.85800 0.51366
vn -0.00007 0.51375 0.85794
vn -0.00006 0.00005 1.00000
vn -0.00013 -0.51366 0.85800
vn -0.00007 -0.85794 0.51375
vn -0.00006 -1.00000 0.00005
vn -0.00013 -0.85800 -0.51366
vn -0.00007 -0.51375 -0.85794
vn -0.00000 -0.00027 -1.00000
vn -0.00002 0.51345 -0.85812
vn -0.00001 0.85779 -0.51400
vn -0.00000 1.00000 -0.00027
vn -0.00002 0.85812 0.51345
vn -0.00001 0.51400 0.85779
vn -0.00000 0.00027 1.00000
vn -0.00002 -0.51345 0.85812
vn -0.00001 -0.85779 0.51400
vn -0.00000 -1.00000 0.00027
vn -0.00002 -0.85812 -0.51345
vn -0.00001 -0.51400 -0.85779
vn 0.00003 -0.00036 -1.00000
vn 0.00006 0.51338 -0.85816
vn 0.00004 0.85773 -0.51410
vn 0.00003 1.00000 -0.00036
vn 0.00006 0.85816 0.51338
vn 0.00004 0.51410 0.85773
vn 0.00003 0.00036 1.00000
vn 0.00006 -0.51338 0.85816
vn 0.00004 -0.85773 0.51410
vn 0.00003 -1.00000 0.00036
vn 0.00006 -0.85816 -0.51338
vn 0.00004 -0.51410 -0.85773
f 1//1 2//2 14//14 13//13
f 2//2 3//3 15//15 14//14
f 3//3 4//4 16//16 15//15
f 4//4 5//5 17//17 16//16
f 5//5 6//6 18//18 17//17
f 6//6 7//7 19//19 18//18
f 7//7 8//8 20//20 19//19
f 8//8 9//9 21//21 20//20
f 9//9 10//10 22//22 21//21
f 10//10 11//11 23//23 22//22
f 11//11 12//12 24//24 23//23
f 12//12 1//1 13//13 24//24
f 13//13 14//14 26//26 25//25
f 14//14 15//15 27//27 26//26
f 15//15 16//16 28//28 27//27
f 16//16 17//17 29//29 28//28
f 17//17 18//18 30//30 29//29
f 18//18 19//19 31//31 30//30
f 19//19 20//20 32//32 31//31
f 20//20 21//21 33//33 32//32
f 21//21 22//22 34//34 33//33
f 22//22 23//23 35//35 34//34
f 23//23 24//24 36//36 35//35
f 24//24 13//13 25//25 36//36
f 25//25 26//26 38//38 37//37
f 26//26 27//27 39//39 38//38
f 27//27 28//28 40//40 39//39
f 28//28 29//29 41//41 40//40
f 29//29 30//30 42//42 41//41
f 30//30 31//31 43//43 42//42
f 31//31 32//32 44//44 43//43
f 32//32 33//33 45//45 44//44
f 33//33 34//34 46//46 45//45
f 34//34 35//35 47//47 46//46
f 35//35 36//36 48//48 47//47
f 36//36 25//25 37//37 48//48
f 37//37 38//38 50//50 49//49
f 38//38 39//39 51//51 50//50
f 39//39 40//40 52//52 51//51
f 40//40 41//41 53//53 52//52
f 41//41 42//42 54//54 53//53
f 42//42 43//43 55//55 54//54
f 43//43 44//44 56//56 55//55
f 44//44 45//45 57//57 56//56
f 45//45 46//46 58//58 57//57
f 46//46 47//47 59//59 58//58
f 47//47 48//48 60//60 59//59
f 48//48 37//37 49//49 60//60
f 49//49 50//50 62//62 61//61
f 50//50 51//51 63//63 62//62
f 51//51 52//52 64//64 63//63
f 52//52 53//53 65//65 64//64
f 53//53 54//54 66//66 65//65
f 54//54 55//55 67//67 66//66
f 55//55 56//56 68//68 67//67
f 56//56 57//57 69//69 68//68
f 57//57 58//58 70//70 69//69
f 58//58 59//59 71//71 70//70
f 59//59 60//60 72//72 71//71
f 60//60 49//49 61//61 72//72
f 61//61 62//62 74//74 73//73
f 62//62 63//63 75//75 74//74
f 63//63 64//64 76//76 75//75
f 64//64 65//65 77//77 76//76
f 65//65 66//66 78//78 77//77
f 66//66 67//67 79//79 78//78
f 67//67 68//68 80//80 79//79
f 68//68 69//69 81//81 80//80
f 69//69 70//70 82//82 81//81
f 70//70 71//71 83//83 82//82
f 71//71 72//72 84//84 83//83
f 72//72 61//61 73//73 84//84
f 73//73 74//74 86//86 85//85
f 74//74 75//75 87//87 86//86
f 75//75 76//76 88//88 87//87
f 76//76 77//77 89//89 88//88
f 77//77 78//78 90//90 89//89
f 78//78 79//79 91//91 90//90
f 79//79 80//80 92//92 91//91
f 80//80 81//81 93//93 92//92
f 81//81 82//82 94//94 93//93
f 82//82 83//83 95//95 94//94
f 83//83 84//84 96//96 95//95
f 84//84 73//73 85//85 96//96
f 85//85 86//86 98//98 97//97
f 86//86 87//87 99//99 98//98
f 87//87 88//88 100//100 99//99
f 88//88 89//89 101//101 100//100
f 89//89 90//90 102//102 101//101
f 90//90 91//91 103//103 102//102
f 91//91 92//92 104//104 103//103
f 92//92 93//93 105//105 104//104
f 93//93 94//94 106//106 105//105
f 94//94 95//95 107//107 106//106
f 95//95 96//96 108//108 107//107
f 96//96 85//85 97//97 108//108
f 97//97 98//98 110//110 109//109
f 98//98 99//99 111//111 110//110
f 99//99 100//100 112//112 111//111
f 100//100 101//101 113//113 112//112
f 101//101 102//102 114//114 113//113
f 102//102 103//103 115//115 114//114
f 103//103 104//104 116//116 115//115
f 104//104 105//105 117//117 116//116
f 105//105 106//106 118//118 117//117
f 106//106 107//107 119//119 118//118
f 107//107 108//108 120//120 119//119
f 108//108 97//97 109//109 120//120
f 109//109 110//110 122//122 121//121
f 110//110 111//111 123//123 122//122
f 111//111 112//112 124//124 123//123
f 112//112 113//113 125//125 124//124
f 113//113 114//114 126//126 125//125
f 114//114 115//115 127//127 126//126
f 115//115 116//116 128//128 127//127
f 116//116 117//117 129//129 128//128
f 117//117 118//118 130//130 129//129
f 118//118 119//119 131//131 130//130
f 119//119 120//120 132//132 131//131
f 120//120 109//109 121//121 132//132
f 121//121 122//122 134//134 133//133
f 122//122 123//123 135//135 134//134
f 123//123 124//124 136//136 135//135
f 124//124 125//125 137//137 136//136
f 125//125 126//126 138//138 137//137
f 126//126 127//127 139//139 138//138
f 127//127 128//128 140//140 139//139
f 128//128 129//129 141//141 140//140
f 129//129 130//130 142//142 141//141
f 130//130 131//131 143//143 142//142
f 131//131 132//132 144//144 143//143
f 132//132 121//121 133//133 144//144
f 133//133 134//134 146//146 145//145
f 134//134 135//135 147//147 146//146
f 135//135 136//136 148//148 147//147
f 136//136 137//137 149//149 148//148
f 137//137 138//138 150//150 149//149
f 138//138 139//139 151//151 150//150
f 139//139 140//140 152//152 151//151
f 140//140 141//141 153//153 152//152
f 141//141 142//142 154//154 153//153
f 142//142 143//143 155//155 154//154
f 143//143 144//144 156//156 155//155
f 144//144 133//133 145//145 156//156
