# tube retopo
v 0.531151 -0.107190 -1.012835
v 0.572553 -0.108329 -0.995815
v 0.615531 -0.091040 -0.978147
v 0.650762 -0.053564 -0.963664
v 0.667111 0.000000 -0.956944
v 0.650731 0.053616 -0.963677
v 0.615494 0.091070 -0.978162
v 0.572536 0.108329 -0.995822
v 0.531009 0.107139 -1.012893
v 0.495354 0.093355 -1.027550
v 0.467012 0.069231 -1.039201
v 0.448329 0.037028 -1.046882
v 0.441683 0.000000 -1.049614
v 0.448330 -0.037035 -1.046881
v 0.467017 -0.069239 -1.039200
v 0.495284 -0.093297 -1.027579
v 0.496223 -0.108329 -0.928555
v 0.528360 -0.095524 -0.905347
v 0.553258 -0.070301 -0.887367
v 0.568879 -0.037109 -0.876086
v 0.574271 0.000000 -0.872192
v 0.568880 0.037103 -0.876085
v 0.553260 0.070296 -0.887365
v 0.528364 0.095522 -0.905344
v 0.496286 0.108329 -0.928509
v 0.460860 0.105224 -0.954092
v 0.427646 0.084361 -0.978078
v 0.403250 0.047470 -0.995696
v 0.393126 0.000000 -1.003006
v 0.403187 -0.047338 -0.995741
v 0.427588 -0.084303 -0.978119
v 0.460812 -0.105202 -0.954127
v 0.422856 -0.108329 -0.863356
v 0.450249 -0.097231 -0.833687
v 0.472235 -0.072669 -0.809874
v 0.486378 -0.038731 -0.794556
v 0.491324 0.000000 -0.789199
v 0.486380 0.038728 -0.794555
v 0.472232 0.072673 -0.809878
v 0.450224 0.097245 -0.833715
v 0.422847 0.108329 -0.863367
v 0.393825 0.103128 -0.894800
v 0.367687 0.081122 -0.923110
v 0.349133 0.044895 -0.943206
v 0.341775 0.000000 -0.951175
v 0.349153 -0.044946 -0.943184
v 0.367705 -0.081144 -0.923091
v 0.393829 -0.103130 -0.894795
v 0.352033 -0.108329 -0.795290
v 0.382248 -0.099209 -0.767390
v 0.407540 -0.075481 -0.744036
v 0.424425 -0.040765 -0.728445
v 0.430634 0.000000 -0.722712
v 0.424420 0.040776 -0.728449
v 0.407529 0.075493 -0.744045
v 0.382235 0.099215 -0.767402
v 0.352021 0.108329 -0.795300
v 0.321211 0.101124 -0.823749
v 0.294459 0.078230 -0.848451
v 0.276016 0.042768 -0.865481
v 0.268958 0.000000 -0.871998
v 0.276014 -0.042763 -0.865483
v 0.294458 -0.078229 -0.848452
v 0.321223 -0.101130 -0.823738
v 0.289826 -0.108329 -0.719259
v 0.322692 -0.098863 -0.694745
v 0.350007 -0.074975 -0.674373
v 0.368119 -0.040391 -0.660864
v 0.374719 0.000000 -0.655941
v 0.368122 0.040384 -0.660862
v 0.350019 0.074963 -0.674364
v 0.322718 0.098851 -0.694726
v 0.289870 0.108329 -0.719225
v 0.256152 0.101492 -0.744373
v 0.226689 0.078789 -0.766348
v 0.206245 0.043223 -0.781597
v 0.198334 0.000000 -0.787497
v 0.206202 -0.043131 -0.781628
v 0.226627 -0.078723 -0.766395
v 0.256092 -0.101465 -0.744419
v 0.234613 -0.108329 -0.637978
v 0.268310 -0.097415 -0.615706
v 0.295493 -0.072902 -0.597740
v 0.313013 -0.038885 -0.586161
v 0.319159 0.000000 -0.582098
v 0.313011 0.038889 -0.586162
v 0.295494 0.072901 -0.597740
v 0.268325 0.097409 -0.615696
v 0.234632 0.108329 -0.637966
v 0.198968 0.102914 -0.661537
v 0.167028 0.080796 -0.682647
v 0.144429 0.044642 -0.697584
v 0.135508 0.000000 -0.703480
v 0.144476 -0.044739 -0.697553
v 0.167091 -0.080858 -0.682606
v 0.199006 -0.102930 -0.661512
v 0.181547 -0.108329 -0.555287
v 0.215905 -0.096981 -0.534441
v 0.243363 -0.072274 -0.517781
v 0.260893 -0.038426 -0.507145
v 0.266961 0.000000 -0.503464
v 0.260893 0.038426 -0.507145
v 0.243363 0.072273 -0.517781
v 0.215908 0.096980 -0.534439
v 0.181556 0.108329 -0.555282
v 0.144945 0.103371 -0.577495
v 0.111821 0.081444 -0.597592
v 0.088237 0.045089 -0.611902
v 0.078880 0.000000 -0.617579
v 0.088252 -0.045121 -0.611892
v 0.111876 -0.081498 -0.597559
v 0.144933 -0.103366 -0.577502
v 0.132808 -0.108329 -0.470087
v 0.168643 -0.097045 -0.451849
v 0.197323 -0.072367 -0.437253
v 0.215660 -0.038495 -0.427921
v 0.222021 0.000000 -0.424684
v 0.215661 0.038494 -0.427921
v 0.197322 0.072368 -0.437254
v 0.168639 0.097047 -0.451852
v 0.132800 0.108329 -0.470091
v 0.094660 0.103302 -0.489502
v 0.060235 0.081383 -0.507022
v 0.035688 0.045039 -0.519514
v 0.025960 0.000000 -0.524465
v 0.035684 -0.045030 -0.519517
v 0.060213 -0.081362 -0.507033
v 0.094667 -0.103305 -0.489498
v 0.092585 -0.108329 -0.380488
v 0.129600 -0.096430 -0.365442
v 0.158825 -0.071484 -0.353562
v 0.177256 -0.037851 -0.346070
v 0.183524 0.000000 -0.343522
v 0.177256 0.037851 -0.346070
v 0.158824 0.071485 -0.353562
v 0.129597 0.096432 -0.365443
v 0.092582 0.108329 -0.380489
v 0.052702 0.103919 -0.396700
v 0.016328 0.082273 -0.411486
v -0.009827 0.045680 -0.422118
v -0.020282 0.000000 -0.426368
v -0.009820 -0.045693 -0.422115
v 0.016343 -0.082287 -0.411480
v 0.052701 -0.103919 -0.396700
v 0.058857 -0.108329 -0.288257
v 0.096835 -0.096239 -0.276061
v 0.126684 -0.071203 -0.266476
v 0.145420 -0.037645 -0.260459
v 0.151748 0.000000 -0.258427
v 0.145420 0.037645 -0.260459
v 0.126686 0.071201 -0.266475
v 0.096846 0.096234 -0.276057
v 0.058887 0.108329 -0.288247
v 0.017824 0.104117 -0.301433
v -0.019812 0.082503 -0.313519
v -0.046854 0.045858 -0.322203
v -0.057696 0.000000 -0.325685
v -0.046816 -0.045927 -0.322191
v -0.019752 -0.082556 -0.313500
v 0.017782 -0.104101 -0.301447
v 0.032502 -0.108329 -0.193670
v 0.071625 -0.096505 -0.185203
v 0.102547 -0.071578 -0.178511
v 0.122064 -0.037914 -0.174287
v 0.128712 0.000000 -0.172848
v 0.122064 0.037915 -0.174287
v 0.102553 0.071572 -0.178510
v 0.071662 0.096491 -0.185195
v 0.032534 0.108329 -0.193663
v -0.009607 0.103805 -0.202783
v -0.047916 0.082065 -0.211074
v -0.075333 0.045562 -0.217008
v -0.086296 0.000000 -0.219380
v -0.075282 -0.045652 -0.216997
v -0.047858 -0.082114 -0.211062
v -0.009586 -0.103813 -0.202779
v 0.017444 -0.108329 -0.096764
v 0.057155 -0.096330 -0.092790
v 0.088438 -0.071340 -0.089660
v 0.108122 -0.037745 -0.087690
v 0.114792 0.000000 -0.087022
v 0.108122 0.037745 -0.087690
v 0.088433 0.071344 -0.089660
v 0.057124 0.096342 -0.092793
v 0.017371 0.108329 -0.096772
v -0.025533 0.103982 -0.101065
v -0.064655 0.082369 -0.104980
v -0.092757 0.045857 -0.107793
v -0.104087 0.000000 -0.108926
v -0.092829 -0.045731 -0.107800
v -0.064729 -0.082307 -0.104988
v -0.025542 -0.103979 -0.101066
v 0.013063 -0.108329 0.001336
v 0.052876 -0.096077 0.001191
v 0.084057 -0.070972 0.001078
v 0.103502 -0.037458 0.001007
v 0.110106 0.000000 0.000983
v 0.103502 0.037459 0.001007
v 0.084058 0.070972 0.001078
v 0.052880 0.096076 0.001191
v 0.013074 0.108329 0.001336
v -0.030121 0.104273 0.001494
v -0.069761 0.082769 0.001638
v -0.098372 0.046041 0.001742
v -0.109865 0.000000 0.001784
v -0.098355 -0.046071 0.001742
v -0.069726 -0.082798 0.001638
v -0.030139 -0.104266 0.001494
v 0.018056 -0.108329 0.099427
v 0.057760 -0.096202 0.095363
v 0.088924 -0.071139 0.092174
v 0.108441 -0.037590 0.090177
v 0.115034 0.000000 0.089502
v 0.108441 0.037591 0.090177
v 0.088929 0.071135 0.092174
v 0.057798 0.096188 0.095360
v 0.018084 0.108329 0.099424
v -0.024930 0.104103 0.103826
v -0.064227 0.082492 0.107847
v -0.092460 0.045873 0.110736
v -0.103797 0.000000 0.111896
v -0.092411 -0.045957 0.110731
v -0.064176 -0.082536 0.107842
v -0.024915 -0.104108 0.103824
v 0.033054 -0.108329 0.196480
v 0.072187 -0.096548 0.188204
v 0.103168 -0.071655 0.181652
v 0.122761 -0.037976 0.177508
v 0.129451 0.000000 0.176093
v 0.122761 0.037976 0.177507
v 0.103163 0.071659 0.181653
v 0.072159 0.096558 0.188210
v 0.032988 0.108329 0.196494
v -0.009109 0.103770 0.205398
v -0.047367 0.082064 0.213489
v -0.074773 0.045631 0.219286
v -0.085787 0.000000 0.221615
v -0.074842 -0.045509 0.219300
v -0.047440 -0.082001 0.213505
v -0.009120 -0.103766 0.205400
v 0.058739 -0.108329 0.291289
v 0.096915 -0.096576 0.279302
v 0.127155 -0.071692 0.269807
v 0.146289 -0.038002 0.263799
v 0.152828 0.000000 0.261746
v 0.146289 0.038002 0.263799
v 0.127155 0.071692 0.269807
v 0.096912 0.096577 0.279303
v 0.058731 0.108329 0.291291
v 0.017711 0.103770 0.304171
v -0.019573 0.082082 0.315878
v -0.046364 0.045547 0.324290
v -0.057057 0.000000 0.327647
v -0.046381 -0.045515 0.324295
v -0.019623 -0.082037 0.315894
v 0.017725 -0.103775 0.304167
v 0.091828 -0.108329 0.383717
v 0.129051 -0.097047 0.368493
v 0.158842 -0.072368 0.356308
v 0.177888 -0.038494 0.348517
v 0.184494 0.000000 0.345816
v 0.177887 0.038495 0.348518
v 0.158844 0.072367 0.356307
v 0.129061 0.097043 0.368489
v 0.091846 0.108329 0.383710
v 0.052235 0.103307 0.399912
v 0.016429 0.081347 0.414557
v -0.009032 0.045023 0.424971
v -0.019127 0.000000 0.429100
v -0.009017 -0.045051 0.424965
v 0.016494 -0.081406 0.414531
v 0.052217 -0.103300 0.399919
v 0.133004 -0.108329 0.472875
v 0.169102 -0.097396 0.454821
v 0.198213 -0.072871 0.440262
v 0.216965 -0.038860 0.430884
v 0.223537 0.000000 0.427596
v 0.216963 0.038863 0.430884
v 0.198213 0.072870 0.440262
v 0.169111 0.097393 0.454817
v 0.133020 0.108329 0.472867
v 0.094858 0.102954 0.491954
v 0.060582 0.080839 0.509096
v 0.036331 0.044658 0.521225
v 0.026764 0.000000 0.526010
v 0.036346 -0.044688 0.521217
v 0.060650 -0.080901 0.509063
v 0.094857 -0.102954 0.491954
v 0.179683 -0.108329 0.559314
v 0.214571 -0.098152 0.538403
v 0.243157 -0.073960 0.521269
v 0.261860 -0.039655 0.510059
v 0.268556 0.000000 0.506045
v 0.261858 0.039658 0.510060
v 0.243155 0.073962 0.521270
v 0.214570 0.098153 0.538403
v 0.179682 0.108329 0.559315
v 0.143363 0.102194 0.581084
v 0.111177 0.079756 0.600376
v 0.088637 0.043870 0.613886
v 0.079852 0.000000 0.619152
v 0.088634 -0.043865 0.613888
v 0.111173 -0.079753 0.600378
v 0.143364 -0.102195 0.581084
v 0.233903 -0.108329 0.641240
v 0.267338 -0.098191 0.618008
v 0.294739 -0.074016 0.598969
v 0.312681 -0.039698 0.586502
v 0.319113 0.000000 0.582033
v 0.312685 0.039689 0.586499
v 0.294746 0.074009 0.598964
v 0.267342 0.098189 0.618005
v 0.233920 0.108329 0.641228
v 0.199154 0.102153 0.665385
v 0.168417 0.079743 0.686742
v 0.146855 0.043884 0.701724
v 0.138437 0.000000 0.707573
v 0.146818 -0.043808 0.701750
v 0.168335 -0.079660 0.686799
v 0.199091 -0.102126 0.665428
v 0.291654 -0.108329 0.720615
v 0.323679 -0.098669 0.695143
v 0.350188 -0.074693 0.674057
v 0.367698 -0.040183 0.660130
v 0.374047 0.000000 0.655080
v 0.367691 0.040199 0.660136
v 0.350179 0.074703 0.674065
v 0.323666 0.098675 0.695153
v 0.291638 0.108329 0.720628
v 0.258642 0.101647 0.746872
v 0.229731 0.078983 0.769868
v 0.209638 0.043321 0.785850
v 0.201871 0.000000 0.792028
v 0.209650 -0.043349 0.785840
v 0.229749 -0.079003 0.769854
v 0.258662 -0.101656 0.746857
v 0.356081 -0.108329 0.794783
v 0.386734 -0.098141 0.768054
v 0.411844 -0.073943 0.746159
v 0.428268 -0.039643 0.731837
v 0.434147 0.000000 0.726711
v 0.428268 0.039644 0.731838
v 0.411843 0.073944 0.746160
v 0.386734 0.098141 0.768054
v 0.356081 0.108329 0.794783
v 0.324163 0.102204 0.822615
v 0.295870 0.079765 0.847285
v 0.276059 0.043876 0.864560
v 0.268338 0.000000 0.871293
v 0.276060 -0.043878 0.864560
v 0.295874 -0.079770 0.847282
v 0.324163 -0.102204 0.822614
v 0.420810 -0.108329 0.868703
v 0.451889 -0.098857 0.841913
v 0.477683 -0.075029 0.819679
v 0.494843 -0.040462 0.804887
v 0.501121 0.000000 0.799476
v 0.494858 0.040428 0.804875
v 0.477698 0.075013 0.819666
v 0.451897 0.098854 0.841907
v 0.420787 0.108329 0.868723
v 0.388904 0.101474 0.896205
v 0.361044 0.078749 0.920220
v 0.341718 0.043157 0.936879
v 0.334266 0.000000 0.943302
v 0.341759 -0.043249 0.936844
v 0.361098 -0.078808 0.920173
v 0.388950 -0.101496 0.896166
v 0.483512 -0.108329 0.942683
v 0.521089 -0.102032 0.923156
v 0.555149 -0.080359 0.905458
v 0.579941 -0.044922 0.892575
v 0.590157 0.000000 0.887266
v 0.580003 0.044807 0.892543
v 0.555175 0.080336 0.905444
v 0.521069 0.102040 0.923167
v 0.483608 0.108329 0.942633
v 0.446865 0.099686 0.961726
v 0.415129 0.076883 0.978217
v 0.392926 0.042189 0.989754
v 0.384288 0.000000 0.994243
v 0.392940 -0.042214 0.989747
v 0.415225 -0.076970 0.978167
v 0.446875 -0.099690 0.961721
v 0.508689 -0.094670 1.037655
v 0.552070 -0.108329 1.026180
v 0.609420 -0.103886 1.011010
v 0.641273 -0.080337 1.002584
v 0.616325 -0.064615 1.009184
v 0.591377 -0.048894 1.015783
v 0.566429 -0.033173 1.022382
v 0.541481 -0.017452 1.028981
v 0.516533 -0.001731 1.035580
v 0.491585 0.013991 1.042179
v 0.466637 0.029712 1.048778
v 0.451507 0.024831 1.052781
v 0.446504 0.000000 1.054104
v 0.451487 -0.024732 1.052786
v 0.461496 -0.048856 1.050138
v 0.479362 -0.073241 1.045413
f 1 2 18 17
f 2 3 19 18
f 3 4 20 19
f 4 5 21 20
f 5 6 22 21
f 6 7 23 22
f 7 8 24 23
f 8 9 25 24
f 9 10 26 25
f 10 11 27 26
f 11 12 28 27
f 12 13 29 28
f 13 14 30 29
f 14 15 31 30
f 15 16 32 31
f 16 1 17 32
f 17 18 34 33
f 18 19 35 34
f 19 20 36 35
f 20 21 37 36
f 21 22 38 37
f 22 23 39 38
f 23 24 40 39
f 24 25 41 40
f 25 26 42 41
f 26 27 43 42
f 27 28 44 43
f 28 29 45 44
f 29 30 46 45
f 30 31 47 46
f 31 32 48 47
f 32 17 33 48
f 33 34 50 49
f 34 35 51 50
f 35 36 52 51
f 36 37 53 52
f 37 38 54 53
f 38 39 55 54
f 39 40 56 55
f 40 41 57 56
f 41 42 58 57
f 42 43 59 58
f 43 44 60 59
f 44 45 61 60
f 45 46 62 61
f 46 47 63 62
f 47 48 64 63
f 48 33 49 64
f 49 50 66 65
f 50 51 67 66
f 51 52 68 67
f 52 53 69 68
f 53 54 70 69
f 54 55 71 70
f 55 56 72 71
f 56 57 73 72
f 57 58 74 73
f 58 59 75 74
f 59 60 76 75
f 60 61 77 76
f 61 62 78 77
f 62 63 79 78
f 63 64 80 79
f 64 49 65 80
f 65 66 82 81
f 66 67 83 82
f 67 68 84 83
f 68 69 85 84
f 69 70 86 85
f 70 71 87 86
f 71 72 88 87
f 72 73 89 88
f 73 74 90 89
f 74 75 91 90
f 75 76 92 91
f 76 77 93 92
f 77 78 94 93
f 78 79 95 94
f 79 80 96 95
f 80 65 81 96
f 81 82 98 97
f 82 83 99 98
f 83 84 100 99
f 84 85 101 100
f 85 86 102 101
f 86 87 103 102
f 87 88 104 103
f 88 89 105 104
f 89 90 106 105
f 90 91 107 106
f 91 92 108 107
f 92 93 109 108
f 93 94 110 109
f 94 95 111 110
f 95 96 112 111
f 96 81 97 112
f 97 98 114 113
f 98 99 115 114
f 99 100 116 115
f 100 101 117 116
f 101 102 118 117
f 102 103 119 118
f 103 104 120 119
f 104 105 121 120
f 105 106 122 121
f 106 107 123 122
f 107 108 124 123
f 108 109 125 124
f 109 110 126 125
f 110 111 127 126
f 111 112 128 127
f 112 97 113 128
f 113 114 130 129
f 114 115 131 130
f 115 116 132 131
f 116 117 133 132
f 117 118 134 133
f 118 119 135 134
f 119 120 136 135
f 120 121 137 136
f 121 122 138 137
f 122 123 139 138
f 123 124 140 139
f 124 125 141 140
f 125 126 142 141
f 126 127 143 142
f 127 128 144 143
f 128 113 129 144
f 129 130 146 145
f 130 131 147 146
f 131 132 148 147
f 132 133 149 148
f 133 134 150 149
f 134 135 151 150
f 135 136 152 151
f 136 137 153 152
f 137 138 154 153
f 138 139 155 154
f 139 140 156 155
f 140 141 157 156
f 141 142 158 157
f 142 143 159 158
f 143 144 160 159
f 144 129 145 160
f 145 146 162 161
f 146 147 163 162
f 147 148 164 163
f 148 149 165 164
f 149 150 166 165
f 150 151 167 166
f 151 152 168 167
f 152 153 169 168
f 153 154 170 169
f 154 155 171 170
f 155 156 172 171
f 156 157 173 172
f 157 158 174 173
f 158 159 175 174
f 159 160 176 175
f 160 145 161 176
f 161 162 178 177
f 162 163 179 178
f 163 164 180 179
f 164 165 181 180
f 165 166 182 181
f 166 167 183 182
f 167 168 184 183
f 168 169 185 184
f 169 170 186 185
f 170 171 187 186
f 171 172 188 187
f 172 173 189 188
f 173 174 190 189
f 174 175 191 190
f 175 176 192 191
f 176 161 177 192
f 177 178 194 193
f 178 179 195 194
f 179 180 196 195
f 180 181 197 196
f 181 182 198 197
f 182 183 199 198
f 183 184 200 199
f 184 185 201 200
f 185 186 202 201
f 186 187 203 202
f 187 188 204 203
f 188 189 205 204
f 189 190 206 205
f 190 191 207 206
f 191 192 208 207
f 192 177 193 208
f 193 194 210 209
f 194 195 211 210
f 195 196 212 211
f 196 197 213 212
f 197 198 214 213
f 198 199 215 214
f 199 200 216 215
f 200 201 217 216
f 201 202 218 217
f 202 203 219 218
f 203 204 220 219
f 204 205 221 220
f 205 206 222 221
f 206 207 223 222
f 207 208 224 223
f 208 193 209 224
f 209 210 226 225
f 210 211 227 226
f 211 212 228 227
f 212 213 229 228
f 213 214 230 229
f 214 215 231 230
f 215 216 232 231
f 216 217 233 232
f 217 218 234 233
f 218 219 235 234
f 219 220 236 235
f 220 221 237 236
f 221 222 238 237
f 222 223 239 238
f 223 224 240 239
f 224 209 225 240
f 225 226 242 241
f 226 227 243 242
f 227 228 244 243
f 228 229 245 244
f 229 230 246 245
f 230 231 247 246
f 231 232 248 247
f 232 233 249 248
f 233 234 250 249
f 234 235 251 250
f 235 236 252 251
f 236 237 253 252
f 237 238 254 253
f 238 239 255 254
f 239 240 256 255
f 240 225 241 256
f 241 242 258 257
f 242 243 259 258
f 243 244 260 259
f 244 245 261 260
f 245 246 262 261
f 246 247 263 262
f 247 248 264 263
f 248 249 265 264
f 249 250 266 265
f 250 251 267 266
f 251 252 268 267
f 252 253 269 268
f 253 254 270 269
f 254 255 271 270
f 255 256 272 271
f 256 241 257 272
f 257 258 274 273
f 258 259 275 274
f 259 260 276 275
f 260 261 277 276
f 261 262 278 277
f 262 263 279 278
f 263 264 280 279
f 264 265 281 280
f 265 266 282 281
f 266 267 283 282
f 267 268 284 283
f 268 269 285 284
f 269 270 286 285
f 270 271 287 286
f 271 272 288 287
f 272 257 273 288
f 273 274 290 289
f 274 275 291 290
f 275 276 292 291
f 276 277 293 292
f 277 278 294 293
f 278 279 295 294
f 279 280 296 295
f 280 281 297 296
f 281 282 298 297
f 282 283 299 298
f 283 284 300 299
f 284 285 301 300
f 285 286 302 301
f 286 287 303 302
f 287 288 304 303
f 288 273 289 304
f 289 290 306 305
f 290 291 307 306
f 291 292 308 307
f 292 293 309 308
f 293 294 310 309
f 294 295 311 310
f 295 296 312 311
f 296 297 313 312
f 297 298 314 313
f 298 299 315 314
f 299 300 316 315
f 300 301 317 316
f 301 302 318 317
f 302 303 319 318
f 303 304 320 319
f 304 289 305 320
f 305 306 322 321
f 306 307 323 322
f 307 308 324 323
f 308 309 325 324
f 309 310 326 325
f 310 311 327 326
f 311 312 328 327
f 312 313 329 328
f 313 314 330 329
f 314 315 331 330
f 315 316 332 331
f 316 317 333 332
f 317 318 334 333
f 318 319 335 334
f 319 320 336 335
f 320 305 321 336
f 321 322 338 337
f 322 323 339 338
f 323 324 340 339
f 324 325 341 340
f 325 326 342 341
f 326 327 343 342
f 327 328 344 343
f 328 329 345 344
f 329 330 346 345
f 330 331 347 346
f 331 332 348 347
f 332 333 349 348
f 333 334 350 349
f 334 335 351 350
f 335 336 352 351
f 336 321 337 352
f 337 338 354 353
f 338 339 355 354
f 339 340 356 355
f 340 341 357 356
f 341 342 358 357
f 342 343 359 358
f 343 344 360 359
f 344 345 361 360
f 345 346 362 361
f 346 347 363 362
f 347 348 364 363
f 348 349 365 364
f 349 350 366 365
f 350 351 367 366
f 351 352 368 367
f 352 337 353 368
f 353 354 370 369
f 354 355 371 370
f 355 356 372 371
f 356 357 373 372
f 357 358 374 373
f 358 359 375 374
f 359 360 376 375
f 360 361 377 376
f 361 362 378 377
f 362 363 379 378
f 363 364 380 379
f 364 365 381 380
f 365 366 382 381
f 366 367 383 382
f 367 368 384 383
f 368 353 369 384
f 369 370 386 385
f 370 371 387 386
f 371 372 388 387
f 372 373 389 388
f 373 374 390 389
f 374 375 391 390
f 375 376 392 391
f 376 377 393 392
f 377 378 394 393
f 378 379 395 394
f 379 380 396 395
f 380 381 397 396
f 381 382 398 397
f 382 383 399 398
f 383 384 400 399
f 384 369 385 400
