# tube retopo
v 0.533791 0.000000 -1.132653
v 0.538169 0.037622 -1.127669
v 0.550773 0.070707 -1.113316
v 0.570083 0.095263 -1.091327
v 0.593771 0.108329 -1.064353
v 0.618979 0.108329 -1.035647
v 0.642667 0.095263 -1.008673
v 0.661977 0.070707 -0.986684
v 0.674581 0.037622 -0.972331
v 0.678959 0.000000 -0.967347
v 0.674581 -0.037622 -0.972331
v 0.661977 -0.070707 -0.986684
v 0.642667 -0.095263 -1.008673
v 0.618979 -0.108329 -1.035647
v 0.593771 -0.108329 -1.064353
v 0.570083 -0.095263 -1.091327
v 0.550773 -0.070707 -1.113316
v 0.538169 -0.037622 -1.127669
v 0.499522 0.000000 -1.102556
v 0.503935 0.037622 -1.097602
v 0.516641 0.070707 -1.083340
v 0.536108 0.095263 -1.061489
v 0.559988 0.108329 -1.034685
v 0.585400 0.108329 -1.006160
v 0.609280 0.095263 -0.979356
v 0.628747 0.070707 -0.957505
v 0.641453 0.037622 -0.943243
v 0.645866 0.000000 -0.938289
v 0.641453 -0.037622 -0.943243
v 0.628747 -0.070707 -0.957505
v 0.609280 -0.095263 -0.979356
v 0.585400 -0.108329 -1.006160
v 0.559988 -0.108329 -1.034685
v 0.536108 -0.095263 -1.061489
v 0.516641 -0.070707 -1.083340
v 0.503935 -0.037622 -1.097602
v 0.465610 0.000000 -1.071899
v 0.470095 0.037622 -1.067011
v 0.483008 0.070707 -1.052936
v 0.502793 0.095263 -1.031372
v 0.527062 0.108329 -1.004920
v 0.552889 0.108329 -0.976770
v 0.577159 0.095263 -0.950318
v 0.596943 0.070707 -0.928754
v 0.609857 0.037622 -0.914680
v 0.614342 0.000000 -0.909791
v 0.609857 -0.037622 -0.914680
v 0.596943 -0.070707 -0.928754
v 0.577159 -0.095263 -0.950318
v 0.552889 -0.108329 -0.976770
v 0.527062 -0.108329 -1.004920
v 0.502793 -0.095263 -1.031372
v 0.483008 -0.070707 -1.052936
v 0.470095 -0.037622 -1.067011
v 0.432637 0.000000 -1.041188
v 0.437195 0.037622 -1.036368
v 0.450320 0.070707 -1.022490
v 0.470428 0.095263 -1.001228
v 0.495095 0.108329 -0.975146
v 0.521344 0.108329 -0.947390
v 0.546011 0.095263 -0.921307
v 0.566119 0.070707 -0.900045
v 0.579244 0.037622 -0.886167
v 0.583802 0.000000 -0.881347
v 0.579244 -0.037622 -0.886167
v 0.566119 -0.070707 -0.900045
v 0.546011 -0.095263 -0.921307
v 0.521344 -0.108329 -0.947390
v 0.495095 -0.108329 -0.975146
v 0.470428 -0.095263 -1.001228
v 0.450320 -0.070707 -1.022490
v 0.437195 -0.037622 -1.036368
v 0.400605 0.000000 -1.010421
v 0.405237 0.037622 -1.005673
v 0.418577 0.070707 -0.992001
v 0.439015 0.095263 -0.971056
v 0.464086 0.108329 -0.945362
v 0.490765 0.108329 -0.918019
v 0.515836 0.095263 -0.892325
v 0.536274 0.070707 -0.871379
v 0.549614 0.037622 -0.857707
v 0.554247 0.000000 -0.852959
v 0.549614 -0.037622 -0.857707
v 0.536274 -0.070707 -0.871379
v 0.515836 -0.095263 -0.892325
v 0.490765 -0.108329 -0.918019
v 0.464086 -0.108329 -0.945362
v 0.439015 -0.095263 -0.971056
v 0.418577 -0.070707 -0.992001
v 0.405237 -0.037622 -1.005673
v 0.369513 0.000000 -0.979594
v 0.374222 0.037622 -0.974921
v 0.387781 0.070707 -0.961467
v 0.408554 0.095263 -0.940853
v 0.434035 0.108329 -0.915567
v 0.461153 0.108329 -0.888658
v 0.486634 0.095263 -0.863372
v 0.507407 0.070707 -0.842758
v 0.520966 0.037622 -0.829304
v 0.525675 0.000000 -0.824631
v 0.520966 -0.037622 -0.829304
v 0.507407 -0.070707 -0.842758
v 0.486634 -0.095263 -0.863372
v 0.461153 -0.108329 -0.888658
v 0.434035 -0.108329 -0.915567
v 0.408554 -0.095263 -0.940853
v 0.387781 -0.070707 -0.961467
v 0.374222 -0.037622 -0.974921
v 0.339364 0.000000 -0.948705
v 0.344150 0.037622 -0.944111
v 0.357931 0.070707 -0.930885
v 0.379044 0.095263 -0.910620
v 0.404944 0.108329 -0.885762
v 0.432506 0.108329 -0.859308
v 0.458405 0.095263 -0.834450
v 0.479519 0.070707 -0.814186
v 0.493300 0.037622 -0.800959
v 0.498086 0.000000 -0.796365
v 0.493300 -0.037622 -0.800959
v 0.479519 -0.070707 -0.814186
v 0.458405 -0.095263 -0.834450
v 0.432506 -0.108329 -0.859308
v 0.404944 -0.108329 -0.885762
v 0.379044 -0.095263 -0.910620
v 0.357931 -0.070707 -0.930885
v 0.344150 -0.037622 -0.944111
v 0.310157 0.000000 -0.917750
v 0.315022 0.037622 -0.913240
v 0.329028 0.070707 -0.900252
v 0.350488 0.095263 -0.880354
v 0.376811 0.108329 -0.855945
v 0.404824 0.108329 -0.829970
v 0.431148 0.095263 -0.805561
v 0.452607 0.070707 -0.785663
v 0.466614 0.037622 -0.772676
v 0.471478 0.000000 -0.768165
v 0.466614 -0.037622 -0.772676
v 0.452607 -0.070707 -0.785663
v 0.431148 -0.095263 -0.805561
v 0.404824 -0.108329 -0.829970
v 0.376811 -0.108329 -0.855945
v 0.350488 -0.095263 -0.880354
v 0.329028 -0.070707 -0.900252
v 0.315022 -0.037622 -0.913240
v 0.281896 0.000000 -0.886727
v 0.286840 0.037622 -0.882304
v 0.301075 0.070707 -0.869567
v 0.322884 0.095263 -0.850054
v 0.349638 0.108329 -0.826117
v 0.378108 0.108329 -0.800644
v 0.404862 0.095263 -0.776707
v 0.426671 0.070707 -0.757194
v 0.440907 0.037622 -0.744457
v 0.445850 0.000000 -0.740034
v 0.440907 -0.037622 -0.744457
v 0.426671 -0.070707 -0.757194
v 0.404862 -0.095263 -0.776707
v 0.378108 -0.108329 -0.800644
v 0.349638 -0.108329 -0.826117
v 0.322884 -0.095263 -0.850054
v 0.301075 -0.070707 -0.869567
v 0.286840 -0.037622 -0.882304
v 0.254580 0.000000 -0.855632
v 0.259605 0.037622 -0.851300
v 0.274071 0.070707 -0.838827
v 0.296236 0.095263 -0.819717
v 0.323424 0.108329 -0.796276
v 0.352357 0.108329 -0.771330
v 0.379546 0.095263 -0.747888
v 0.401710 0.070707 -0.728779
v 0.416177 0.037622 -0.716306
v 0.421201 0.000000 -0.711974
v 0.416177 -0.037622 -0.716306
v 0.401710 -0.070707 -0.728779
v 0.379546 -0.095263 -0.747888
v 0.352357 -0.108329 -0.771330
v 0.323424 -0.108329 -0.796276
v 0.296236 -0.095263 -0.819717
v 0.274071 -0.070707 -0.838827
v 0.259605 -0.037622 -0.851300
v 0.228213 0.000000 -0.824461
v 0.233319 0.037622 -0.820226
v 0.248019 0.070707 -0.808029
v 0.270542 0.095263 -0.789343
v 0.298170 0.108329 -0.766422
v 0.327571 0.108329 -0.742029
v 0.355200 0.095263 -0.719107
v 0.377722 0.070707 -0.700421
v 0.392423 0.037622 -0.688225
v 0.397528 0.000000 -0.683989
v 0.392423 -0.037622 -0.688225
v 0.377722 -0.070707 -0.700421
v 0.355200 -0.095263 -0.719107
v 0.327571 -0.108329 -0.742029
v 0.298170 -0.108329 -0.766422
v 0.270542 -0.095263 -0.789343
v 0.248019 -0.070707 -0.808029
v 0.233319 -0.037622 -0.820226
v 0.202796 0.000000 -0.793213
v 0.207984 0.037622 -0.789078
v 0.222920 0.070707 -0.777172
v 0.245805 0.095263 -0.758930
v 0.273876 0.108329 -0.736554
v 0.303750 0.108329 -0.712742
v 0.331821 0.095263 -0.690365
v 0.354706 0.070707 -0.672124
v 0.369642 0.037622 -0.660218
v 0.374830 0.000000 -0.656083
v 0.369642 -0.037622 -0.660218
v 0.354706 -0.070707 -0.672124
v 0.331821 -0.095263 -0.690365
v 0.303750 -0.108329 -0.712742
v 0.273876 -0.108329 -0.736554
v 0.245805 -0.095263 -0.758930
v 0.222920 -0.070707 -0.777172
v 0.207984 -0.037622 -0.789078
v 0.178333 0.000000 -0.761883
v 0.183603 0.037622 -0.757854
v 0.198777 0.070707 -0.746252
v 0.222025 0.095263 -0.728477
v 0.250543 0.108329 -0.706672
v 0.280892 0.108329 -0.683469
v 0.309410 0.095263 -0.661664
v 0.332658 0.070707 -0.643889
v 0.347832 0.037622 -0.632287
v 0.353102 0.000000 -0.628258
v 0.347832 -0.037622 -0.632287
v 0.332658 -0.070707 -0.643889
v 0.309410 -0.095263 -0.661664
v 0.280892 -0.108329 -0.683469
v 0.250543 -0.108329 -0.706672
v 0.222025 -0.095263 -0.728477
v 0.198777 -0.070707 -0.746252
v 0.183603 -0.037622 -0.757854
v 0.154825 0.000000 -0.730468
v 0.160178 0.037622 -0.726550
v 0.175591 0.070707 -0.715267
v 0.199205 0.095263 -0.697981
v 0.228172 0.108329 -0.676776
v 0.258997 0.108329 -0.654210
v 0.287964 0.095263 -0.633005
v 0.311578 0.070707 -0.615719
v 0.326991 0.037622 -0.604436
v 0.332344 0.000000 -0.600517
v 0.326991 -0.037622 -0.604436
v 0.311578 -0.070707 -0.615719
v 0.287964 -0.095263 -0.633005
v 0.258997 -0.108329 -0.654210
v 0.228172 -0.108329 -0.676776
v 0.199205 -0.095263 -0.697981
v 0.175591 -0.070707 -0.715267
v 0.160178 -0.037622 -0.726550
v 0.132277 0.000000 -0.698967
v 0.137713 0.037622 -0.695164
v 0.153365 0.070707 -0.684215
v 0.177345 0.095263 -0.667441
v 0.206762 0.108329 -0.646864
v 0.238066 0.108329 -0.624967
v 0.267482 0.095263 -0.604390
v 0.291462 0.070707 -0.587616
v 0.307114 0.037622 -0.576667
v 0.312550 0.000000 -0.572864
v 0.307114 -0.037622 -0.576667
v 0.291462 -0.070707 -0.587616
v 0.267482 -0.095263 -0.604390
v 0.238066 -0.108329 -0.624967
v 0.206762 -0.108329 -0.646864
v 0.177345 -0.095263 -0.667441
v 0.153365 -0.070707 -0.684215
v 0.137713 -0.037622 -0.695164
v 0.110693 0.000000 -0.667374
v 0.116211 0.037622 -0.663693
v 0.132102 0.070707 -0.653095
v 0.156449 0.095263 -0.636856
v 0.186314 0.108329 -0.616937
v 0.218096 0.108329 -0.595739
v 0.247962 0.095263 -0.575820
v 0.272308 0.070707 -0.559581
v 0.288199 0.037622 -0.548983
v 0.293718 0.000000 -0.545302
v 0.288199 -0.037622 -0.548983
v 0.272308 -0.070707 -0.559581
v 0.247962 -0.095263 -0.575820
v 0.218096 -0.108329 -0.595739
v 0.186314 -0.108329 -0.616937
v 0.156449 -0.095263 -0.636856
v 0.132102 -0.070707 -0.653095
v 0.116211 -0.037622 -0.663693
v 0.090075 0.000000 -0.635689
v 0.095677 0.037622 -0.632136
v 0.111806 0.070707 -0.621903
v 0.136517 0.095263 -0.606225
v 0.166830 0.108329 -0.586993
v 0.199088 0.108329 -0.566528
v 0.229401 0.095263 -0.547296
v 0.254112 0.070707 -0.531618
v 0.270241 0.037622 -0.521386
v 0.275843 0.000000 -0.517832
v 0.270241 -0.037622 -0.521386
v 0.254112 -0.070707 -0.531618
v 0.229401 -0.095263 -0.547296
v 0.199088 -0.108329 -0.566528
v 0.166830 -0.108329 -0.586993
v 0.136517 -0.095263 -0.606225
v 0.111806 -0.070707 -0.621903
v 0.095677 -0.037622 -0.632136
v 0.070430 0.000000 -0.603909
v 0.076114 0.037622 -0.600488
v 0.092479 0.070707 -0.590638
v 0.117553 0.095263 -0.575546
v 0.148310 0.108329 -0.557034
v 0.181041 0.108329 -0.537333
v 0.211798 0.095263 -0.518820
v 0.236871 0.070707 -0.503728
v 0.253237 0.037622 -0.493878
v 0.258920 0.000000 -0.490457
v 0.253237 -0.037622 -0.493878
v 0.236871 -0.070707 -0.503728
v 0.211798 -0.095263 -0.518820
v 0.181041 -0.108329 -0.537333
v 0.148310 -0.108329 -0.557034
v 0.117553 -0.095263 -0.575546
v 0.092479 -0.070707 -0.590638
v 0.076114 -0.037622 -0.600488
v 0.051762 0.000000 -0.572032
v 0.057527 0.037622 -0.568750
v 0.074126 0.070707 -0.559299
v 0.099558 0.095263 -0.544819
v 0.130754 0.108329 -0.527057
v 0.163953 0.108329 -0.508155
v 0.195149 0.095263 -0.490392
v 0.220581 0.070707 -0.475912
v 0.237180 0.037622 -0.466461
v 0.242945 0.000000 -0.463179
v 0.237180 -0.037622 -0.466461
v 0.220581 -0.070707 -0.475912
v 0.195149 -0.095263 -0.490392
v 0.163953 -0.108329 -0.508155
v 0.130754 -0.108329 -0.527057
v 0.099558 -0.095263 -0.544819
v 0.074126 -0.070707 -0.559299
v 0.057527 -0.037622 -0.568750
v 0.034077 0.000000 -0.540057
v 0.039921 0.037622 -0.536919
v 0.056751 0.070707 -0.527884
v 0.082535 0.095263 -0.514042
v 0.114165 0.108329 -0.497063
v 0.147824 0.108329 -0.478994
v 0.179453 0.095263 -0.462014
v 0.205238 0.070707 -0.448172
v 0.222067 0.037622 -0.439137
v 0.227912 0.000000 -0.436000
v 0.222067 -0.037622 -0.439137
v 0.205238 -0.070707 -0.448172
v 0.179453 -0.095263 -0.462014
v 0.147824 -0.108329 -0.478994
v 0.114165 -0.108329 -0.497063
v 0.082535 -0.095263 -0.514042
v 0.056751 -0.070707 -0.527884
v 0.039921 -0.037622 -0.536919
v 0.017380 0.000000 -0.507981
v 0.023303 0.037622 -0.504994
v 0.040358 0.070707 -0.496393
v 0.066489 0.095263 -0.483216
v 0.098542 0.108329 -0.467052
v 0.132653 0.108329 -0.449850
v 0.164706 0.095263 -0.433685
v 0.190836 0.070707 -0.420508
v 0.207892 0.037622 -0.411907
v 0.213815 0.000000 -0.408920
v 0.207892 -0.037622 -0.411907
v 0.190836 -0.070707 -0.420508
v 0.164706 -0.095263 -0.433685
v 0.132653 -0.108329 -0.449850
v 0.098542 -0.108329 -0.467052
v 0.066489 -0.095263 -0.483216
v 0.040358 -0.070707 -0.496393
v 0.023303 -0.037622 -0.504994
v 0.001678 0.000000 -0.475806
v 0.007677 0.037622 -0.472976
v 0.024953 0.070707 -0.464826
v 0.051420 0.095263 -0.452340
v 0.083887 0.108329 -0.437023
v 0.118438 0.108329 -0.420723
v 0.150905 0.095263 -0.405407
v 0.177373 0.070707 -0.392920
v 0.194648 0.037622 -0.384771
v 0.200648 0.000000 -0.381940
v 0.194648 -0.037622 -0.384771
v 0.177373 -0.070707 -0.392920
v 0.150905 -0.095263 -0.405407
v 0.118438 -0.108329 -0.420723
v 0.083887 -0.108329 -0.437023
v 0.051420 -0.095263 -0.452340
v 0.024953 -0.070707 -0.464826
v 0.007677 -0.037622 -0.472976
v -0.013023 0.000000 -0.443532
v -0.006949 0.037622 -0.440864
v 0.010539 0.070707 -0.433182
v 0.037334 0.095263 -0.421414
v 0.070202 0.108329 -0.406977
v 0.105179 0.108329 -0.391614
v 0.138047 0.095263 -0.377178
v 0.164841 0.070707 -0.365409
v 0.182330 0.037622 -0.357728
v 0.188404 0.000000 -0.355060
v 0.182330 -0.037622 -0.357728
v 0.164841 -0.070707 -0.365409
v 0.138047 -0.095263 -0.377178
v 0.105179 -0.108329 -0.391614
v 0.070202 -0.108329 -0.406977
v 0.037334 -0.095263 -0.421414
v 0.010539 -0.070707 -0.433182
v -0.006949 -0.037622 -0.440864
v -0.026715 0.000000 -0.411158
v -0.020570 0.037622 -0.408659
v -0.002876 0.070707 -0.401463
v 0.024233 0.095263 -0.390438
v 0.057486 0.108329 -0.376914
v 0.092874 0.108329 -0.362522
v 0.126128 0.095263 -0.348998
v 0.153237 0.070707 -0.337973
v 0.170931 0.037622 -0.330777
v 0.177076 0.000000 -0.328278
v 0.170931 -0.037622 -0.330777
v 0.153237 -0.070707 -0.337973
v 0.126128 -0.095263 -0.348998
v 0.092874 -0.108329 -0.362522
v 0.057486 -0.108329 -0.376914
v 0.024233 -0.095263 -0.390438
v -0.002876 -0.070707 -0.401463
v -0.020570 -0.037622 -0.408659
v -0.039392 0.000000 -0.378688
v -0.033179 0.037622 -0.376363
v -0.015289 0.070707 -0.369670
v 0.012120 0.095263 -0.359414
v 0.045743 0.108329 -0.346835
v 0.081523 0.108329 -0.333447
v 0.115145 0.095263 -0.320867
v 0.142554 0.070707 -0.310612
v 0.160444 0.037622 -0.303918
v 0.166657 0.000000 -0.301594
v 0.160444 -0.037622 -0.303918
v 0.142554 -0.070707 -0.310612
v 0.115145 -0.095263 -0.320867
v 0.081523 -0.108329 -0.333447
v 0.045743 -0.108329 -0.346835
v 0.012120 -0.095263 -0.359414
v -0.015289 -0.070707 -0.369670
v -0.033179 -0.037622 -0.376363
v -0.051046 0.000000 -0.346124
v -0.044769 0.037622 -0.343979
v -0.026693 0.070707 -0.337804
v 0.001001 0.095263 -0.328344
v 0.034972 0.108329 -0.316738
v 0.071123 0.108329 -0.304388
v 0.105094 0.095263 -0.292783
v 0.132788 0.070707 -0.283323
v 0.150863 0.037622 -0.277148
v 0.157141 0.000000 -0.275003
v 0.150863 -0.037622 -0.277148
v 0.132788 -0.070707 -0.283323
v 0.105094 -0.095263 -0.292783
v 0.071123 -0.108329 -0.304388
v 0.034972 -0.108329 -0.316738
v 0.001001 -0.095263 -0.328344
v -0.026693 -0.070707 -0.337804
v -0.044769 -0.037622 -0.343979
v -0.061670 0.000000 -0.313469
v -0.055332 0.037622 -0.311510
v -0.037083 0.070707 -0.305869
v -0.009123 0.095263 -0.297227
v 0.025175 0.108329 -0.286627
v 0.061674 0.108329 -0.275345
v 0.095971 0.095263 -0.264744
v 0.123931 0.070707 -0.256102
v 0.142181 0.037622 -0.250462
v 0.148519 0.000000 -0.248503
v 0.142181 -0.037622 -0.250462
v 0.123931 -0.070707 -0.256102
v 0.095971 -0.095263 -0.264744
v 0.061674 -0.108329 -0.275345
v 0.025175 -0.108329 -0.286627
v -0.009123 -0.095263 -0.297227
v -0.037083 -0.070707 -0.305869
v -0.055332 -0.037622 -0.311510
v -0.071257 0.000000 -0.280728
v -0.064863 0.037622 -0.278960
v -0.046453 0.070707 -0.273869
v -0.018247 0.095263 -0.266068
v 0.016353 0.108329 -0.256500
v 0.053174 0.108329 -0.246317
v 0.087774 0.095263 -0.236749
v 0.115980 0.070707 -0.228948
v 0.134390 0.037622 -0.223857
v 0.140784 0.000000 -0.222089
v 0.134390 -0.037622 -0.223857
v 0.115980 -0.070707 -0.228948
v 0.087774 -0.095263 -0.236749
v 0.053174 -0.108329 -0.246317
v 0.016353 -0.108329 -0.256500
v -0.018247 -0.095263 -0.266068
v -0.046453 -0.070707 -0.273869
v -0.064863 -0.037622 -0.278960
v -0.079800 0.000000 -0.247907
v -0.073355 0.037622 -0.246335
v -0.054798 0.070707 -0.241807
v -0.026367 0.095263 -0.234869
v 0.008508 0.108329 -0.226359
v 0.045622 0.108329 -0.217303
v 0.080497 0.095263 -0.208793
v 0.108928 0.070707 -0.201855
v 0.127485 0.037622 -0.197327
v 0.133929 0.000000 -0.195755
v 0.127485 -0.037622 -0.197327
v 0.108928 -0.070707 -0.201855
v 0.080497 -0.095263 -0.208793
v 0.045622 -0.108329 -0.217303
v 0.008508 -0.108329 -0.226359
v -0.026367 -0.095263 -0.234869
v -0.054798 -0.070707 -0.241807
v -0.073355 -0.037622 -0.246335
v -0.087291 0.000000 -0.215013
v -0.080801 0.037622 -0.213640
v -0.062113 0.070707 -0.209688
v -0.033481 0.095263 -0.203633
v 0.001641 0.108329 -0.196206
v 0.039017 0.108329 -0.188301
v 0.074139 0.095263 -0.180874
v 0.102770 0.070707 -0.174819
v 0.121458 0.037622 -0.170867
v 0.127949 0.000000 -0.169494
v 0.121458 -0.037622 -0.170867
v 0.102770 -0.070707 -0.174819
v 0.074139 -0.095263 -0.180874
v 0.039017 -0.108329 -0.188301
v 0.001641 -0.108329 -0.196206
v -0.033481 -0.095263 -0.203633
v -0.062113 -0.070707 -0.209688
v -0.080801 -0.037622 -0.213640
v -0.093725 0.000000 -0.182052
v -0.087195 0.037622 -0.180884
v -0.068392 0.070707 -0.177519
v -0.039585 0.095263 -0.172364
v -0.004248 0.108329 -0.166041
v 0.033358 0.108329 -0.159311
v 0.068695 0.095263 -0.152988
v 0.097502 0.070707 -0.147833
v 0.116305 0.037622 -0.144469
v 0.122835 0.000000 -0.143300
v 0.116305 -0.037622 -0.144469
v 0.097502 -0.070707 -0.147833
v 0.068695 -0.095263 -0.152988
v 0.033358 -0.108329 -0.159311
v -0.004248 -0.108329 -0.166041
v -0.039585 -0.095263 -0.172364
v -0.068392 -0.070707 -0.177519
v -0.087195 -0.037622 -0.180884
v -0.099096 0.000000 -0.149034
v -0.092532 0.037622 -0.148073
v -0.073633 0.070707 -0.145306
v -0.044676 0.095263 -0.141066
v -0.009156 0.108329 -0.135866
v 0.028643 0.108329 -0.130331
v 0.064163 0.095263 -0.125131
v 0.093119 0.070707 -0.120892
v 0.112019 0.037622 -0.118125
v 0.118583 0.000000 -0.117164
v 0.112019 -0.037622 -0.118125
v 0.093119 -0.070707 -0.120892
v 0.064163 -0.095263 -0.125131
v 0.028643 -0.108329 -0.130331
v -0.009156 -0.108329 -0.135866
v -0.044676 -0.095263 -0.141066
v -0.073633 -0.070707 -0.145306
v -0.092532 -0.037622 -0.148073
v -0.103400 0.000000 -0.115967
v -0.096808 0.037622 -0.115216
v -0.077830 0.070707 -0.113055
v -0.048753 0.095263 -0.109744
v -0.013085 0.108329 -0.105682
v 0.024873 0.108329 -0.101360
v 0.060541 0.095263 -0.097298
v 0.089618 0.070707 -0.093987
v 0.108597 0.037622 -0.091826
v 0.115188 0.000000 -0.091076
v 0.108597 -0.037622 -0.091826
v 0.089618 -0.070707 -0.093987
v 0.060541 -0.095263 -0.097298
v 0.024873 -0.108329 -0.101360
v -0.013085 -0.108329 -0.105682
v -0.048753 -0.095263 -0.109744
v -0.077830 -0.070707 -0.113055
v -0.096808 -0.037622 -0.115216
v -0.106631 0.000000 -0.082861
v -0.100019 0.037622 -0.082324
v -0.080980 0.070707 -0.080775
v -0.051812 0.095263 -0.078403
v -0.016031 0.108329 -0.075492
v 0.022046 0.108329 -0.072395
v 0.057826 0.095263 -0.069485
v 0.086995 0.070707 -0.067112
v 0.106033 0.037622 -0.065564
v 0.112645 0.000000 -0.065026
v 0.106033 -0.037622 -0.065564
v 0.086995 -0.070707 -0.067112
v 0.057826 -0.095263 -0.069485
v 0.022046 -0.108329 -0.072395
v -0.016031 -0.108329 -0.075492
v -0.051812 -0.095263 -0.078403
v -0.080980 -0.070707 -0.080775
v -0.100019 -0.037622 -0.082324
v -0.108787 0.000000 -0.049728
v -0.102161 0.037622 -0.049405
v -0.083082 0.070707 -0.048474
v -0.053852 0.095263 -0.047047
v -0.017996 0.108329 -0.045297
v 0.020161 0.108329 -0.043435
v 0.056017 0.095263 -0.041685
v 0.085247 0.070707 -0.040259
v 0.104326 0.037622 -0.039328
v 0.110952 0.000000 -0.039004
v 0.104326 -0.037622 -0.039328
v 0.085247 -0.070707 -0.040259
v 0.056017 -0.095263 -0.041685
v 0.020161 -0.108329 -0.043435
v -0.017996 -0.108329 -0.045297
v -0.053852 -0.095263 -0.047047
v -0.083082 -0.070707 -0.048474
v -0.102161 -0.037622 -0.049405
v -0.109865 0.000000 -0.016578
v -0.103232 0.037622 -0.016470
v -0.084133 0.070707 -0.016159
v -0.054872 0.095263 -0.015683
v -0.018978 0.108329 -0.015099
v 0.019219 0.108329 -0.014478
v 0.055113 0.095263 -0.013894
v 0.084374 0.070707 -0.013418
v 0.103473 0.037622 -0.013107
v 0.110106 0.000000 -0.013000
v 0.103473 -0.037622 -0.013107
v 0.084374 -0.070707 -0.013418
v 0.055113 -0.095263 -0.013894
v 0.019219 -0.108329 -0.014478
v -0.018978 -0.108329 -0.015099
v -0.054872 -0.095263 -0.015683
v -0.084133 -0.070707 -0.016159
v -0.103232 -0.037622 -0.016470
v -0.109865 0.000000 0.016578
v -0.103232 0.037622 0.016470
v -0.084133 0.070707 0.016159
v -0.054872 0.095263 0.015683
v -0.018978 0.108329 0.015099
v 0.019219 0.108329 0.014478
v 0.055113 0.095263 0.013894
v 0.084374 0.070707 0.013418
v 0.103473 0.037622 0.013107
v 0.110106 0.000000 0.013000
v 0.103473 -0.037622 0.013107
v 0.084374 -0.070707 0.013418
v 0.055113 -0.095263 0.013894
v 0.019219 -0.108329 0.014478
v -0.018978 -0.108329 0.015099
v -0.054872 -0.095263 0.015683
v -0.084133 -0.070707 0.016159
v -0.103232 -0.037622 0.016470
v -0.108787 0.000000 0.049728
v -0.102161 0.037622 0.049405
v -0.083082 0.070707 0.048474
v -0.053852 0.095263 0.047047
v -0.017996 0.108329 0.045297
v 0.020161 0.108329 0.043435
v 0.056017 0.095263 0.041685
v 0.085247 0.070707 0.040259
v 0.104326 0.037622 0.039328
v 0.110952 0.000000 0.039004
v 0.104326 -0.037622 0.039328
v 0.085247 -0.070707 0.040259
v 0.056017 -0.095263 0.041685
v 0.020161 -0.108329 0.043435
v -0.017996 -0.108329 0.045297
v -0.053852 -0.095263 0.047047
v -0.083082 -0.070707 0.048474
v -0.102161 -0.037622 0.049405
v -0.106631 0.000000 0.082861
v -0.100019 0.037622 0.082324
v -0.080980 0.070707 0.080775
v -0.051812 0.095263 0.078403
v -0.016031 0.108329 0.075492
v 0.022046 0.108329 0.072395
v 0.057826 0.095263 0.069485
v 0.086995 0.070707 0.067112
v 0.106033 0.037622 0.065564
v 0.112645 0.000000 0.065026
v 0.106033 -0.037622 0.065564
v 0.086995 -0.070707 0.067112
v 0.057826 -0.095263 0.069485
v 0.022046 -0.108329 0.072395
v -0.016031 -0.108329 0.075492
v -0.051812 -0.095263 0.078403
v -0.080980 -0.070707 0.080775
v -0.100019 -0.037622 0.082324
v -0.103400 0.000000 0.115967
v -0.096808 0.037622 0.115216
v -0.077830 0.070707 0.113055
v -0.048753 0.095263 0.109744
v -0.013085 0.108329 0.105682
v 0.024873 0.108329 0.101360
v 0.060541 0.095263 0.097298
v 0.089618 0.070707 0.093987
v 0.108597 0.037622 0.091826
v 0.115188 0.000000 0.091076
v 0.108597 -0.037622 0.091826
v 0.089618 -0.070707 0.093987
v 0.060541 -0.095263 0.097298
v 0.024873 -0.108329 0.101360
v -0.013085 -0.108329 0.105682
v -0.048753 -0.095263 0.109744
v -0.077830 -0.070707 0.113055
v -0.096808 -0.037622 0.115216
v -0.099096 0.000000 0.149034
v -0.092532 0.037622 0.148073
v -0.073633 0.070707 0.145306
v -0.044676 0.095263 0.141066
v -0.009156 0.108329 0.135866
v 0.028643 0.108329 0.130331
v 0.064163 0.095263 0.125131
v 0.093119 0.070707 0.120892
v 0.112019 0.037622 0.118125
v 0.118583 0.000000 0.117164
v 0.112019 -0.037622 0.118125
v 0.093119 -0.070707 0.120892
v 0.064163 -0.095263 0.125131
v 0.028643 -0.108329 0.130331
v -0.009156 -0.108329 0.135866
v -0.044676 -0.095263 0.141066
v -0.073633 -0.070707 0.145306
v -0.092532 -0.037622 0.148073
v -0.093725 0.000000 0.182052
v -0.087195 0.037622 0.180884
v -0.068392 0.070707 0.177519
v -0.039585 0.095263 0.172364
v -0.004248 0.108329 0.166041
v 0.033358 0.108329 0.159311
v 0.068695 0.095263 0.152988
v 0.097502 0.070707 0.147833
v 0.116305 0.037622 0.144469
v 0.122835 0.000000 0.143300
v 0.116305 -0.037622 0.144469
v 0.097502 -0.070707 0.147833
v 0.068695 -0.095263 0.152988
v 0.033358 -0.108329 0.159311
v -0.004248 -0.108329 0.166041
v -0.039585 -0.095263 0.172364
v -0.068392 -0.070707 0.177519
v -0.087195 -0.037622 0.180884
v -0.087291 0.000000 0.215013
v -0.080801 0.037622 0.213640
v -0.062113 0.070707 0.209688
v -0.033481 0.095263 0.203633
v 0.001641 0.108329 0.196206
v 0.039017 0.108329 0.188301
v 0.074139 0.095263 0.180874
v 0.102770 0.070707 0.174819
v 0.121458 0.037622 0.170867
v 0.127949 0.000000 0.169494
v 0.121458 -0.037622 0.170867
v 0.102770 -0.070707 0.174819
v 0.074139 -0.095263 0.180874
v 0.039017 -0.108329 0.188301
v 0.001641 -0.108329 0.196206
v -0.033481 -0.095263 0.203633
v -0.062113 -0.070707 0.209688
v -0.080801 -0.037622 0.213640
v -0.079800 0.000000 0.247907
v -0.073355 0.037622 0.246335
v -0.054798 0.070707 0.241807
v -0.026367 0.095263 0.234869
v 0.008508 0.108329 0.226359
v 0.045622 0.108329 0.217303
v 0.080497 0.095263 0.208793
v 0.108928 0.070707 0.201855
v 0.127485 0.037622 0.197327
v 0.133929 0.000000 0.195755
v 0.127485 -0.037622 0.197327
v 0.108928 -0.070707 0.201855
v 0.080497 -0.095263 0.208793
v 0.045622 -0.108329 0.217303
v 0.008508 -0.108329 0.226359
v -0.026367 -0.095263 0.234869
v -0.054798 -0.070707 0.241807
v -0.073355 -0.037622 0.246335
v -0.071257 0.000000 0.280728
v -0.064863 0.037622 0.278960
v -0.046453 0.070707 0.273869
v -0.018247 0.095263 0.266068
v 0.016353 0.108329 0.256500
v 0.053174 0.108329 0.246317
v 0.087774 0.095263 0.236749
v 0.115980 0.070707 0.228948
v 0.134390 0.037622 0.223857
v 0.140784 0.000000 0.222089
v 0.134390 -0.037622 0.223857
v 0.115980 -0.070707 0.228948
v 0.087774 -0.095263 0.236749
v 0.053174 -0.108329 0.246317
v 0.016353 -0.108329 0.256500
v -0.018247 -0.095263 0.266068
v -0.046453 -0.070707 0.273869
v -0.064863 -0.037622 0.278960
v -0.061670 0.000000 0.313469
v -0.055332 0.037622 0.311510
v -0.037083 0.070707 0.305869
v -0.009123 0.095263 0.297227
v 0.025175 0.108329 0.286627
v 0.061674 0.108329 0.275345
v 0.095971 0.095263 0.264744
v 0.123931 0.070707 0.256102
v 0.142181 0.037622 0.250462
v 0.148519 0.000000 0.248503
v 0.142181 -0.037622 0.250462
v 0.123931 -0.070707 0.256102
v 0.095971 -0.095263 0.264744
v 0.061674 -0.108329 0.275345
v 0.025175 -0.108329 0.286627
v -0.009123 -0.095263 0.297227
v -0.037083 -0.070707 0.305869
v -0.055332 -0.037622 0.311510
v -0.051046 0.000000 0.346124
v -0.044769 0.037622 0.343979
v -0.026693 0.070707 0.337804
v 0.001001 0.095263 0.328344
v 0.034972 0.108329 0.316738
v 0.071123 0.108329 0.304388
v 0.105094 0.095263 0.292783
v 0.132788 0.070707 0.283323
v 0.150863 0.037622 0.277148
v 0.157141 0.000000 0.275003
v 0.150863 -0.037622 0.277148
v 0.132788 -0.070707 0.283323
v 0.105094 -0.095263 0.292783
v 0.071123 -0.108329 0.304388
v 0.034972 -0.108329 0.316738
v 0.001001 -0.095263 0.328344
v -0.026693 -0.070707 0.337804
v -0.044769 -0.037622 0.343979
v -0.039392 0.000000 0.378688
v -0.033179 0.037622 0.376363
v -0.015289 0.070707 0.369670
v 0.012120 0.095263 0.359414
v 0.045743 0.108329 0.346835
v 0.081523 0.108329 0.333447
v 0.115145 0.095263 0.320867
v 0.142554 0.070707 0.310612
v 0.160444 0.037622 0.303918
v 0.166657 0.000000 0.301594
v 0.160444 -0.037622 0.303918
v 0.142554 -0.070707 0.310612
v 0.115145 -0.095263 0.320867
v 0.081523 -0.108329 0.333447
v 0.045743 -0.108329 0.346835
v 0.012120 -0.095263 0.359414
v -0.015289 -0.070707 0.369670
v -0.033179 -0.037622 0.376363
v -0.026715 0.000000 0.411158
v -0.020570 0.037622 0.408659
v -0.002876 0.070707 0.401463
v 0.024233 0.095263 0.390438
v 0.057486 0.108329 0.376914
v 0.092874 0.108329 0.362522
v 0.126128 0.095263 0.348998
v 0.153237 0.070707 0.337973
v 0.170931 0.037622 0.330777
v 0.177076 0.000000 0.328278
v 0.170931 -0.037622 0.330777
v 0.153237 -0.070707 0.337973
v 0.126128 -0.095263 0.348998
v 0.092874 -0.108329 0.362522
v 0.057486 -0.108329 0.376914
v 0.024233 -0.095263 0.390438
v -0.002876 -0.070707 0.401463
v -0.020570 -0.037622 0.408659
v -0.013023 0.000000 0.443532
v -0.006949 0.037622 0.440864
v 0.010539 0.070707 0.433182
v 0.037334 0.095263 0.421414
v 0.070202 0.108329 0.406977
v 0.105179 0.108329 0.391614
v 0.138047 0.095263 0.377178
v 0.164841 0.070707 0.365409
v 0.182330 0.037622 0.357728
v 0.188404 0.000000 0.355060
v 0.182330 -0.037622 0.357728
v 0.164841 -0.070707 0.365409
v 0.138047 -0.095263 0.377178
v 0.105179 -0.108329 0.391614
v 0.070202 -0.108329 0.406977
v 0.037334 -0.095263 0.421414
v 0.010539 -0.070707 0.433182
v -0.006949 -0.037622 0.440864
v 0.001678 0.000000 0.475806
v 0.007677 0.037622 0.472976
v 0.024953 0.070707 0.464826
v 0.051420 0.095263 0.452340
v 0.083887 0.108329 0.437023
v 0.118438 0.108329 0.420723
v 0.150905 0.095263 0.405407
v 0.177373 0.070707 0.392920
v 0.194648 0.037622 0.384771
v 0.200648 0.000000 0.381940
v 0.194648 -0.037622 0.384771
v 0.177373 -0.070707 0.392920
v 0.150905 -0.095263 0.405407
v 0.118438 -0.108329 0.420723
v 0.083887 -0.108329 0.437023
v 0.051420 -0.095263 0.452340
v 0.024953 -0.070707 0.464826
v 0.007677 -0.037622 0.472976
v 0.017380 0.000000 0.507981
v 0.023303 0.037622 0.504994
v 0.040358 0.070707 0.496393
v 0.066489 0.095263 0.483216
v 0.098542 0.108329 0.467052
v 0.132653 0.108329 0.449850
v 0.164706 0.095263 0.433685
v 0.190836 0.070707 0.420508
v 0.207892 0.037622 0.411907
v 0.213815 0.000000 0.408920
v 0.207892 -0.037622 0.411907
v 0.190836 -0.070707 0.420508
v 0.164706 -0.095263 0.433685
v 0.132653 -0.108329 0.449850
v 0.098542 -0.108329 0.467052
v 0.066489 -0.095263 0.483216
v 0.040358 -0.070707 0.496393
v 0.023303 -0.037622 0.504994
v 0.034077 0.000000 0.540057
v 0.039921 0.037622 0.536919
v 0.056751 0.070707 0.527884
v 0.082535 0.095263 0.514042
v 0.114165 0.108329 0.497063
v 0.147824 0.108329 0.478994
v 0.179453 0.095263 0.462014
v 0.205238 0.070707 0.448172
v 0.222067 0.037622 0.439137
v 0.227912 0.000000 0.436000
v 0.222067 -0.037622 0.439137
v 0.205238 -0.070707 0.448172
v 0.179453 -0.095263 0.462014
v 0.147824 -0.108329 0.478994
v 0.114165 -0.108329 0.497063
v 0.082535 -0.095263 0.514042
v 0.056751 -0.070707 0.527884
v 0.039921 -0.037622 0.536919
v 0.051762 0.000000 0.572032
v 0.057527 0.037622 0.568750
v 0.074126 0.070707 0.559299
v 0.099558 0.095263 0.544819
v 0.130754 0.108329 0.527057
v 0.163953 0.108329 0.508155
v 0.195149 0.095263 0.490392
v 0.220581 0.070707 0.475912
v 0.237180 0.037622 0.466461
v 0.242945 0.000000 0.463179
v 0.237180 -0.037622 0.466461
v 0.220581 -0.070707 0.475912
v 0.195149 -0.095263 0.490392
v 0.163953 -0.108329 0.508155
v 0.130754 -0.108329 0.527057
v 0.099558 -0.095263 0.544819
v 0.074126 -0.070707 0.559299
v 0.057527 -0.037622 0.568750
v 0.070430 0.000000 0.603909
v 0.076114 0.037622 0.600488
v 0.092479 0.070707 0.590638
v 0.117553 0.095263 0.575546
v 0.148310 0.108329 0.557034
v 0.181041 0.108329 0.537333
v 0.211798 0.095263 0.518820
v 0.236871 0.070707 0.503728
v 0.253237 0.037622 0.493878
v 0.258920 0.000000 0.490457
v 0.253237 -0.037622 0.493878
v 0.236871 -0.070707 0.503728
v 0.211798 -0.095263 0.518820
v 0.181041 -0.108329 0.537333
v 0.148310 -0.108329 0.557034
v 0.117553 -0.095263 0.575546
v 0.092479 -0.070707 0.590638
v 0.076114 -0.037622 0.600488
v 0.090075 0.000000 0.635689
v 0.095677 0.037622 0.632136
v 0.111806 0.070707 0.621903
v 0.136517 0.095263 0.606225
v 0.166830 0.108329 0.586993
v 0.199088 0.108329 0.566528
v 0.229401 0.095263 0.547296
v 0.254112 0.070707 0.531618
v 0.270241 0.037622 0.521386
v 0.275843 0.000000 0.517832
v 0.270241 -0.037622 0.521386
v 0.254112 -0.070707 0.531618
v 0.229401 -0.095263 0.547296
v 0.199088 -0.108329 0.566528
v 0.166830 -0.108329 0.586993
v 0.136517 -0.095263 0.606225
v 0.111806 -0.070707 0.621903
v 0.095677 -0.037622 0.632136
v 0.110693 0.000000 0.667374
v 0.116211 0.037622 0.663693
v 0.132102 0.070707 0.653095
v 0.156449 0.095263 0.636856
v 0.186314 0.108329 0.616937
v 0.218096 0.108329 0.595739
v 0.247962 0.095263 0.575820
v 0.272308 0.070707 0.559581
v 0.288199 0.037622 0.548983
v 0.293718 0.000000 0.545302
v 0.288199 -0.037622 0.548983
v 0.272308 -0.070707 0.559581
v 0.247962 -0.095263 0.575820
v 0.218096 -0.108329 0.595739
v 0.186314 -0.108329 0.616937
v 0.156449 -0.095263 0.636856
v 0.132102 -0.070707 0.653095
v 0.116211 -0.037622 0.663693
v 0.132277 0.000000 0.698967
v 0.137713 0.037622 0.695164
v 0.153365 0.070707 0.684215
v 0.177345 0.095263 0.667441
v 0.206762 0.108329 0.646864
v 0.238066 0.108329 0.624967
v 0.267482 0.095263 0.604390
v 0.291462 0.070707 0.587616
v 0.307114 0.037622 0.576667
v 0.312550 0.000000 0.572864
v 0.307114 -0.037622 0.576667
v 0.291462 -0.070707 0.587616
v 0.267482 -0.095263 0.604390
v 0.238066 -0.108329 0.624967
v 0.206762 -0.108329 0.646864
v 0.177345 -0.095263 0.667441
v 0.153365 -0.070707 0.684215
v 0.137713 -0.037622 0.695164
v 0.154825 0.000000 0.730468
v 0.160178 0.037622 0.726550
v 0.175591 0.070707 0.715267
v 0.199205 0.095263 0.697981
v 0.228172 0.108329 0.676776
v 0.258997 0.108329 0.654210
v 0.287964 0.095263 0.633005
v 0.311578 0.070707 0.615719
v 0.326991 0.037622 0.604436
v 0.332344 0.000000 0.600517
v 0.326991 -0.037622 0.604436
v 0.311578 -0.070707 0.615719
v 0.287964 -0.095263 0.633005
v 0.258997 -0.108329 0.654210
v 0.228172 -0.108329 0.676776
v 0.199205 -0.095263 0.697981
v 0.175591 -0.070707 0.715267
v 0.160178 -0.037622 0.726550
v 0.178333 0.000000 0.761883
v 0.183603 0.037622 0.757854
v 0.198777 0.070707 0.746252
v 0.222025 0.095263 0.728477
v 0.250543 0.108329 0.706672
v 0.280892 0.108329 0.683469
v 0.309410 0.095263 0.661664
v 0.332658 0.070707 0.643889
v 0.347832 0.037622 0.632287
v 0.353102 0.000000 0.628258
v 0.347832 -0.037622 0.632287
v 0.332658 -0.070707 0.643889
v 0.309410 -0.095263 0.661664
v 0.280892 -0.108329 0.683469
v 0.250543 -0.108329 0.706672
v 0.222025 -0.095263 0.728477
v 0.198777 -0.070707 0.746252
v 0.183603 -0.037622 0.757854
v 0.202796 0.000000 0.793213
v 0.207984 0.037622 0.789078
v 0.222920 0.070707 0.777172
v 0.245805 0.095263 0.758930
v 0.273876 0.108329 0.736554
v 0.303750 0.108329 0.712742
v 0.331821 0.095263 0.690365
v 0.354706 0.070707 0.672124
v 0.369642 0.037622 0.660218
v 0.374830 0.000000 0.656083
v 0.369642 -0.037622 0.660218
v 0.354706 -0.070707 0.672124
v 0.331821 -0.095263 0.690365
v 0.303750 -0.108329 0.712742
v 0.273876 -0.108329 0.736554
v 0.245805 -0.095263 0.758930
v 0.222920 -0.070707 0.777172
v 0.207984 -0.037622 0.789078
v 0.228213 0.000000 0.824461
v 0.233319 0.037622 0.820226
v 0.248019 0.070707 0.808029
v 0.270542 0.095263 0.789343
v 0.298170 0.108329 0.766422
v 0.327571 0.108329 0.742029
v 0.355200 0.095263 0.719107
v 0.377722 0.070707 0.700421
v 0.392423 0.037622 0.688225
v 0.397528 0.000000 0.683989
v 0.392423 -0.037622 0.688225
v 0.377722 -0.070707 0.700421
v 0.355200 -0.095263 0.719107
v 0.327571 -0.108329 0.742029
v 0.298170 -0.108329 0.766422
v 0.270542 -0.095263 0.789343
v 0.248019 -0.070707 0.808029
v 0.233319 -0.037622 0.820226
v 0.254580 0.000000 0.855632
v 0.259605 0.037622 0.851300
v 0.274071 0.070707 0.838827
v 0.296236 0.095263 0.819717
v 0.323424 0.108329 0.796276
v 0.352357 0.108329 0.771330
v 0.379546 0.095263 0.747888
v 0.401710 0.070707 0.728779
v 0.416177 0.037622 0.716306
v 0.421201 0.000000 0.711974
v 0.416177 -0.037622 0.716306
v 0.401710 -0.070707 0.728779
v 0.379546 -0.095263 0.747888
v 0.352357 -0.108329 0.771330
v 0.323424 -0.108329 0.796276
v 0.296236 -0.095263 0.819717
v 0.274071 -0.070707 0.838827
v 0.259605 -0.037622 0.851300
v 0.281896 0.000000 0.886727
v 0.286840 0.037622 0.882304
v 0.301075 0.070707 0.869567
v 0.322884 0.095263 0.850054
v 0.349638 0.108329 0.826117
v 0.378108 0.108329 0.800644
v 0.404862 0.095263 0.776707
v 0.426671 0.070707 0.757194
v 0.440907 0.037622 0.744457
v 0.445850 0.000000 0.740034
v 0.440907 -0.037622 0.744457
v 0.426671 -0.070707 0.757194
v 0.404862 -0.095263 0.776707
v 0.378108 -0.108329 0.800644
v 0.349638 -0.108329 0.826117
v 0.322884 -0.095263 0.850054
v 0.301075 -0.070707 0.869567
v 0.286840 -0.037622 0.882304
v 0.310157 0.000000 0.917750
v 0.315022 0.037622 0.913240
v 0.329028 0.070707 0.900252
v 0.350488 0.095263 0.880354
v 0.376811 0.108329 0.855945
v 0.404824 0.108329 0.829970
v 0.431148 0.095263 0.805561
v 0.452607 0.070707 0.785663
v 0.466614 0.037622 0.772676
v 0.471478 0.000000 0.768165
v 0.466614 -0.037622 0.772676
v 0.452607 -0.070707 0.785663
v 0.431148 -0.095263 0.805561
v 0.404824 -0.108329 0.829970
v 0.376811 -0.108329 0.855945
v 0.350488 -0.095263 0.880354
v 0.329028 -0.070707 0.900252
v 0.315022 -0.037622 0.913240
v 0.339364 0.000000 0.948705
v 0.344150 0.037622 0.944111
v 0.357931 0.070707 0.930885
v 0.379044 0.095263 0.910620
v 0.404944 0.108329 0.885762
v 0.432506 0.108329 0.859308
v 0.458405 0.095263 0.834450
v 0.479519 0.070707 0.814186
v 0.493300 0.037622 0.800959
v 0.498086 0.000000 0.796365
v 0.493300 -0.037622 0.800959
v 0.479519 -0.070707 0.814186
v 0.458405 -0.095263 0.834450
v 0.432506 -0.108329 0.859308
v 0.404944 -0.108329 0.885762
v 0.379044 -0.095263 0.910620
v 0.357931 -0.070707 0.930885
v 0.344150 -0.037622 0.944111
v 0.369513 0.000000 0.979594
v 0.374222 0.037622 0.974921
v 0.387781 0.070707 0.961467
v 0.408554 0.095263 0.940853
v 0.434035 0.108329 0.915567
v 0.461153 0.108329 0.888658
v 0.486634 0.095263 0.863372
v 0.507407 0.070707 0.842758
v 0.520966 0.037622 0.829304
v 0.525675 0.000000 0.824631
v 0.520966 -0.037622 0.829304
v 0.507407 -0.070707 0.842758
v 0.486634 -0.095263 0.863372
v 0.461153 -0.108329 0.888658
v 0.434035 -0.108329 0.915567
v 0.408554 -0.095263 0.940853
v 0.387781 -0.070707 0.961467
v 0.374222 -0.037622 0.974921
v 0.400605 0.000000 1.010421
v 0.405237 0.037622 1.005673
v 0.418577 0.070707 0.992001
v 0.439015 0.095263 0.971056
v 0.464086 0.108329 0.945362
v 0.490765 0.108329 0.918019
v 0.515836 0.095263 0.892325
v 0.536274 0.070707 0.871379
v 0.549614 0.037622 0.857707
v 0.554247 0.000000 0.852959
v 0.549614 -0.037622 0.857707
v 0.536274 -0.070707 0.871379
v 0.515836 -0.095263 0.892325
v 0.490765 -0.108329 0.918019
v 0.464086 -0.108329 0.945362
v 0.439015 -0.095263 0.971056
v 0.418577 -0.070707 0.992001
v 0.405237 -0.037622 1.005673
v 0.432637 0.000000 1.041188
v 0.437195 0.037622 1.036368
v 0.450320 0.070707 1.022490
v 0.470428 0.095263 1.001228
v 0.495095 0.108329 0.975146
v 0.521344 0.108329 0.947390
v 0.546011 0.095263 0.921307
v 0.566119 0.070707 0.900045
v 0.579244 0.037622 0.886167
v 0.583802 0.000000 0.881347
v 0.579244 -0.037622 0.886167
v 0.566119 -0.070707 0.900045
v 0.546011 -0.095263 0.921307
v 0.521344 -0.108329 0.947390
v 0.495095 -0.108329 0.975146
v 0.470428 -0.095263 1.001228
v 0.450320 -0.070707 1.022490
v 0.437195 -0.037622 1.036368
v 0.465610 0.000000 1.071899
v 0.470095 0.037622 1.067011
v 0.483008 0.070707 1.052936
v 0.502793 0.095263 1.031372
v 0.527062 0.108329 1.004920
v 0.552889 0.108329 0.976770
v 0.577159 0.095263 0.950318
v 0.596943 0.070707 0.928754
v 0.609857 0.037622 0.914680
v 0.614342 0.000000 0.909791
v 0.609857 -0.037622 0.914680
v 0.596943 -0.070707 0.928754
v 0.577159 -0.095263 0.950318
v 0.552889 -0.108329 0.976770
v 0.527062 -0.108329 1.004920
v 0.502793 -0.095263 1.031372
v 0.483008 -0.070707 1.052936
v 0.470095 -0.037622 1.067011
v 0.499522 0.000000 1.102556
v 0.503935 0.037622 1.097602
v 0.516641 0.070707 1.083340
v 0.536108 0.095263 1.061489
v 0.559988 0.108329 1.034685
v 0.585400 0.108329 1.006160
v 0.609280 0.095263 0.979356
v 0.628747 0.070707 0.957505
v 0.641453 0.037622 0.943243
v 0.645866 0.000000 0.938289
v 0.641453 -0.037622 0.943243
v 0.628747 -0.070707 0.957505
v 0.609280 -0.095263 0.979356
v 0.585400 -0.108329 1.006160
v 0.559988 -0.108329 1.034685
v 0.536108 -0.095263 1.061489
v 0.516641 -0.070707 1.083340
v 0.503935 -0.037622 1.097602
v 0.533791 0.000000 1.132653
v 0.538169 0.037622 1.127669
v 0.550773 0.070707 1.113316
v 0.570083 0.095263 1.091327
v 0.593771 0.108329 1.064353
v 0.618979 0.108329 1.035647
v 0.642667 0.095263 1.008673
v 0.661977 0.070707 0.986684
v 0.674581 0.037622 0.972331
v 0.678959 0.000000 0.967347
v 0.674581 -0.037622 0.972331
v 0.661977 -0.070707 0.986684
v 0.642667 -0.095263 1.008673
v 0.618979 -0.108329 1.035647
v 0.593771 -0.108329 1.064353
v 0.570083 -0.095263 1.091327
v 0.550773 -0.070707 1.113316
v 0.538169 -0.037622 1.127669
f 1 2 20
f 1 20 19
f 2 3 21
f 2 21 20
f 3 4 22
f 3 22 21
f 4 5 23
f 4 23 22
f 5 6 24
f 5 24 23
f 6 7 25
f 6 25 24
f 7 8 26
f 7 26 25
f 8 9 27
f 8 27 26
f 9 10 28
f 9 28 27
f 10 11 29
f 10 29 28
f 11 12 30
f 11 30 29
f 12 13 31
f 12 31 30
f 13 14 32
f 13 32 31
f 14 15 33
f 14 33 32
f 15 16 34
f 15 34 33
f 16 17 35
f 16 35 34
f 17 18 36
f 17 36 35
f 18 1 19
f 18 19 36
f 19 20 38
f 19 38 37
f 20 21 39
f 20 39 38
f 21 22 40
f 21 40 39
f 22 23 41
f 22 41 40
f 23 24 42
f 23 42 41
f 24 25 43
f 24 43 42
f 25 26 44
f 25 44 43
f 26 27 45
f 26 45 44
f 27 28 46
f 27 46 45
f 28 29 47
f 28 47 46
f 29 30 48
f 29 48 47
f 30 31 49
f 30 49 48
f 31 32 50
f 31 50 49
f 32 33 51
f 32 51 50
f 33 34 52
f 33 52 51
f 34 35 53
f 34 53 52
f 35 36 54
f 35 54 53
f 36 19 37
f 36 37 54
f 37 38 56
f 37 56 55
f 38 39 57
f 38 57 56
f 39 40 58
f 39 58 57
f 40 41 59
f 40 59 58
f 41 42 60
f 41 60 59
f 42 43 61
f 42 61 60
f 43 44 62
f 43 62 61
f 44 45 63
f 44 63 62
f 45 46 64
f 45 64 63
f 46 47 65
f 46 65 64
f 47 48 66
f 47 66 65
f 48 49 67
f 48 67 66
f 49 50 68
f 49 68 67
f 50 51 69
f 50 69 68
f 51 52 70
f 51 70 69
f 52 53 71
f 52 71 70
f 53 54 72
f 53 72 71
f 54 37 55
f 54 55 72
f 55 56 74
f 55 74 73
f 56 57 75
f 56 75 74
f 57 58 76
f 57 76 75
f 58 59 77
f 58 77 76
f 59 60 78
f 59 78 77
f 60 61 79
f 60 79 78
f 61 62 80
f 61 80 79
f 62 63 81
f 62 81 80
f 63 64 82
f 63 82 81
f 64 65 83
f 64 83 82
f 65 66 84
f 65 84 83
f 66 67 85
f 66 85 84
f 67 68 86
f 67 86 85
f 68 69 87
f 68 87 86
f 69 70 88
f 69 88 87
f 70 71 89
f 70 89 88
f 71 72 90
f 71 90 89
f 72 55 73
f 72 73 90
f 73 74 92
f 73 92 91
f 74 75 93
f 74 93 92
f 75 76 94
f 75 94 93
f 76 77 95
f 76 95 94
f 77 78 96
f 77 96 95
f 78 79 97
f 78 97 96
f 79 80 98
f 79 98 97
f 80 81 99
f 80 99 98
f 81 82 100
f 81 100 99
f 82 83 101
f 82 101 100
f 83 84 102
f 83 102 101
f 84 85 103
f 84 103 102
f 85 86 104
f 85 104 103
f 86 87 105
f 86 105 104
f 87 88 106
f 87 106 105
f 88 89 107
f 88 107 106
f 89 90 108
f 89 108 107
f 90 73 91
f 90 91 108
f 91 92 110
f 91 110 109
f 92 93 111
f 92 111 110
f 93 94 112
f 93 112 111
f 94 95 113
f 94 113 112
f 95 96 114
f 95 114 113
f 96 97 115
f 96 115 114
f 97 98 116
f 97 116 115
f 98 99 117
f 98 117 116
f 99 100 118
f 99 118 117
f 100 101 119
f 100 119 118
f 101 102 120
f 101 120 119
f 102 103 121
f 102 121 120
f 103 104 122
f 103 122 121
f 104 105 123
f 104 123 122
f 105 106 124
f 105 124 123
f 106 107 125
f 106 125 124
f 107 108 126
f 107 126 125
f 108 91 109
f 108 109 126
f 109 110 128
f 109 128 127
f 110 111 129
f 110 129 128
f 111 112 130
f 111 130 129
f 112 113 131
f 112 131 130
f 113 114 132
f 113 132 131
f 114 115 133
f 114 133 132
f 115 116 134
f 115 134 133
f 116 117 135
f 116 135 134
f 117 118 136
f 117 136 135
f 118 119 137
f 118 137 136
f 119 120 138
f 119 138 137
f 120 121 139
f 120 139 138
f 121 122 140
f 121 140 139
f 122 123 141
f 122 141 140
f 123 124 142
f 123 142 141
f 124 125 143
f 124 143 142
f 125 126 144
f 125 144 143
f 126 109 127
f 126 127 144
f 127 128 146
f 127 146 145
f 128 129 147
f 128 147 146
f 129 130 148
f 129 148 147
f 130 131 149
f 130 149 148
f 131 132 150
f 131 150 149
f 132 133 151
f 132 151 150
f 133 134 152
f 133 152 151
f 134 135 153
f 134 153 152
f 135 136 154
f 135 154 153
f 136 137 155
f 136 155 154
f 137 138 156
f 137 156 155
f 138 139 157
f 138 157 156
f 139 140 158
f 139 158 157
f 140 141 159
f 140 159 158
f 141 142 160
f 141 160 159
f 142 143 161
f 142 161 160
f 143 144 162
f 143 162 161
f 144 127 145
f 144 145 162
f 145 146 164
f 145 164 163
f 146 147 165
f 146 165 164
f 147 148 166
f 147 166 165
f 148 149 167
f 148 167 166
f 149 150 168
f 149 168 167
f 150 151 169
f 150 169 168
f 151 152 170
f 151 170 169
f 152 153 171
f 152 171 170
f 153 154 172
f 153 172 171
f 154 155 173
f 154 173 172
f 155 156 174
f 155 174 173
f 156 157 175
f 156 175 174
f 157 158 176
f 157 176 175
f 158 159 177
f 158 177 176
f 159 160 178
f 159 178 177
f 160 161 179
f 160 179 178
f 161 162 180
f 161 180 179
f 162 145 163
f 162 163 180
f 163 164 182
f 163 182 181
f 164 165 183
f 164 183 182
f 165 166 184
f 165 184 183
f 166 167 185
f 166 185 184
f 167 168 186
f 167 186 185
f 168 169 187
f 168 187 186
f 169 170 188
f 169 188 187
f 170 171 189
f 170 189 188
f 171 172 190
f 171 190 189
f 172 173 191
f 172 191 190
f 173 174 192
f 173 192 191
f 174 175 193
f 174 193 192
f 175 176 194
f 175 194 193
f 176 177 195
f 176 195 194
f 177 178 196
f 177 196 195
f 178 179 197
f 178 197 196
f 179 180 198
f 179 198 197
f 180 163 181
f 180 181 198
f 181 182 200
f 181 200 199
f 182 183 201
f 182 201 200
f 183 184 202
f 183 202 201
f 184 185 203
f 184 203 202
f 185 186 204
f 185 204 203
f 186 187 205
f 186 205 204
f 187 188 206
f 187 206 205
f 188 189 207
f 188 207 206
f 189 190 208
f 189 208 207
f 190 191 209
f 190 209 208
f 191 192 210
f 191 210 209
f 192 193 211
f 192 211 210
f 193 194 212
f 193 212 211
f 194 195 213
f 194 213 212
f 195 196 214
f 195 214 213
f 196 197 215
f 196 215 214
f 197 198 216
f 197 216 215
f 198 181 199
f 198 199 216
f 199 200 218
f 199 218 217
f 200 201 219
f 200 219 218
f 201 202 220
f 201 220 219
f 202 203 221
f 202 221 220
f 203 204 222
f 203 222 221
f 204 205 223
f 204 223 222
f 205 206 224
f 205 224 223
f 206 207 225
f 206 225 224
f 207 208 226
f 207 226 225
f 208 209 227
f 208 227 226
f 209 210 228
f 209 228 227
f 210 211 229
f 210 229 228
f 211 212 230
f 211 230 229
f 212 213 231
f 212 231 230
f 213 214 232
f 213 232 231
f 214 215 233
f 214 233 232
f 215 216 234
f 215 234 233
f 216 199 217
f 216 217 234
f 217 218 236
f 217 236 235
f 218 219 237
f 218 237 236
f 219 220 238
f 219 238 237
f 220 221 239
f 220 239 238
f 221 222 240
f 221 240 239
f 222 223 241
f 222 241 240
f 223 224 242
f 223 242 241
f 224 225 243
f 224 243 242
f 225 226 244
f 225 244 243
f 226 227 245
f 226 245 244
f 227 228 246
f 227 246 245
f 228 229 247
f 228 247 246
f 229 230 248
f 229 248 247
f 230 231 249
f 230 249 248
f 231 232 250
f 231 250 249
f 232 233 251
f 232 251 250
f 233 234 252
f 233 252 251
f 234 217 235
f 234 235 252
f 235 236 254
f 235 254 253
f 236 237 255
f 236 255 254
f 237 238 256
f 237 256 255
f 238 239 257
f 238 257 256
f 239 240 258
f 239 258 257
f 240 241 259
f 240 259 258
f 241 242 260
f 241 260 259
f 242 243 261
f 242 261 260
f 243 244 262
f 243 262 261
f 244 245 263
f 244 263 262
f 245 246 264
f 245 264 263
f 246 247 265
f 246 265 264
f 247 248 266
f 247 266 265
f 248 249 267
f 248 267 266
f 249 250 268
f 249 268 267
f 250 251 269
f 250 269 268
f 251 252 270
f 251 270 269
f 252 235 253
f 252 253 270
f 253 254 272
f 253 272 271
f 254 255 273
f 254 273 272
f 255 256 274
f 255 274 273
f 256 257 275
f 256 275 274
f 257 258 276
f 257 276 275
f 258 259 277
f 258 277 276
f 259 260 278
f 259 278 277
f 260 261 279
f 260 279 278
f 261 262 280
f 261 280 279
f 262 263 281
f 262 281 280
f 263 264 282
f 263 282 281
f 264 265 283
f 264 283 282
f 265 266 284
f 265 284 283
f 266 267 285
f 266 285 284
f 267 268 286
f 267 286 285
f 268 269 287
f 268 287 286
f 269 270 288
f 269 288 287
f 270 253 271
f 270 271 288
f 271 272 290
f 271 290 289
f 272 273 291
f 272 291 290
f 273 274 292
f 273 292 291
f 274 275 293
f 274 293 292
f 275 276 294
f 275 294 293
f 276 277 295
f 276 295 294
f 277 278 296
f 277 296 295
f 278 279 297
f 278 297 296
f 279 280 298
f 279 298 297
f 280 281 299
f 280 299 298
f 281 282 300
f 281 300 299
f 282 283 301
f 282 301 300
f 283 284 302
f 283 302 301
f 284 285 303
f 284 303 302
f 285 286 304
f 285 304 303
f 286 287 305
f 286 305 304
f 287 288 306
f 287 306 305
f 288 271 289
f 288 289 306
f 289 290 308
f 289 308 307
f 290 291 309
f 290 309 308
f 291 292 310
f 291 310 309
f 292 293 311
f 292 311 310
f 293 294 312
f 293 312 311
f 294 295 313
f 294 313 312
f 295 296 314
f 295 314 313
f 296 297 315
f 296 315 314
f 297 298 316
f 297 316 315
f 298 299 317
f 298 317 316
f 299 300 318
f 299 318 317
f 300 301 319
f 300 319 318
f 301 302 320
f 301 320 319
f 302 303 321
f 302 321 320
f 303 304 322
f 303 322 321
f 304 305 323
f 304 323 322
f 305 306 324
f 305 324 323
f 306 289 307
f 306 307 324
f 307 308 326
f 307 326 325
f 308 309 327
f 308 327 326
f 309 310 328
f 309 328 327
f 310 311 329
f 310 329 328
f 311 312 330
f 311 330 329
f 312 313 331
f 312 331 330
f 313 314 332
f 313 332 331
f 314 315 333
f 314 333 332
f 315 316 334
f 315 334 333
f 316 317 335
f 316 335 334
f 317 318 336
f 317 336 335
f 318 319 337
f 318 337 336
f 319 320 338
f 319 338 337
f 320 321 339
f 320 339 338
f 321 322 340
f 321 340 339
f 322 323 341
f 322 341 340
f 323 324 342
f 323 342 341
f 324 307 325
f 324 325 342
f 325 326 344
f 325 344 343
f 326 327 345
f 326 345 344
f 327 328 346
f 327 346 345
f 328 329 347
f 328 347 346
f 329 330 348
f 329 348 347
f 330 331 349
f 330 349 348
f 331 332 350
f 331 350 349
f 332 333 351
f 332 351 350
f 333 334 352
f 333 352 351
f 334 335 353
f 334 353 352
f 335 336 354
f 335 354 353
f 336 337 355
f 336 355 354
f 337 338 356
f 337 356 355
f 338 339 357
f 338 357 356
f 339 340 358
f 339 358 357
f 340 341 359
f 340 359 358
f 341 342 360
f 341 360 359
f 342 325 343
f 342 343 360
f 343 344 362
f 343 362 361
f 344 345 363
f 344 363 362
f 345 346 364
f 345 364 363
f 346 347 365
f 346 365 364
f 347 348 366
f 347 366 365
f 348 349 367
f 348 367 366
f 349 350 368
f 349 368 367
f 350 351 369
f 350 369 368
f 351 352 370
f 351 370 369
f 352 353 371
f 352 371 370
f 353 354 372
f 353 372 371
f 354 355 373
f 354 373 372
f 355 356 374
f 355 374 373
f 356 357 375
f 356 375 374
f 357 358 376
f 357 376 375
f 358 359 377
f 358 377 376
f 359 360 378
f 359 378 377
f 360 343 361
f 360 361 378
f 361 362 380
f 361 380 379
f 362 363 381
f 362 381 380
f 363 364 382
f 363 382 381
f 364 365 383
f 364 383 382
f 365 366 384
f 365 384 383
f 366 367 385
f 366 385 384
f 367 368 386
f 367 386 385
f 368 369 387
f 368 387 386
f 369 370 388
f 369 388 387
f 370 371 389
f 370 389 388
f 371 372 390
f 371 390 389
f 372 373 391
f 372 391 390
f 373 374 392
f 373 392 391
f 374 375 393
f 374 393 392
f 375 376 394
f 375 394 393
f 376 377 395
f 376 395 394
f 377 378 396
f 377 396 395
f 378 361 379
f 378 379 396
f 379 380 398
f 379 398 397
f 380 381 399
f 380 399 398
f 381 382 400
f 381 400 399
f 382 383 401
f 382 401 400
f 383 384 402
f 383 402 401
f 384 385 403
f 384 403 402
f 385 386 404
f 385 404 403
f 386 387 405
f 386 405 404
f 387 388 406
f 387 406 405
f 388 389 407
f 388 407 406
f 389 390 408
f 389 408 407
f 390 391 409
f 390 409 408
f 391 392 410
f 391 410 409
f 392 393 411
f 392 411 410
f 393 394 412
f 393 412 411
f 394 395 413
f 394 413 412
f 395 396 414
f 395 414 413
f 396 379 397
f 396 397 414
f 397 398 416
f 397 416 415
f 398 399 417
f 398 417 416
f 399 400 418
f 399 418 417
f 400 401 419
f 400 419 418
f 401 402 420
f 401 420 419
f 402 403 421
f 402 421 420
f 403 404 422
f 403 422 421
f 404 405 423
f 404 423 422
f 405 406 424
f 405 424 423
f 406 407 425
f 406 425 424
f 407 408 426
f 407 426 425
f 408 409 427
f 408 427 426
f 409 410 428
f 409 428 427
f 410 411 429
f 410 429 428
f 411 412 430
f 411 430 429
f 412 413 431
f 412 431 430
f 413 414 432
f 413 432 431
f 414 397 415
f 414 415 432
f 415 416 434
f 415 434 433
f 416 417 435
f 416 435 434
f 417 418 436
f 417 436 435
f 418 419 437
f 418 437 436
f 419 420 438
f 419 438 437
f 420 421 439
f 420 439 438
f 421 422 440
f 421 440 439
f 422 423 441
f 422 441 440
f 423 424 442
f 423 442 441
f 424 425 443
f 424 443 442
f 425 426 444
f 425 444 443
f 426 427 445
f 426 445 444
f 427 428 446
f 427 446 445
f 428 429 447
f 428 447 446
f 429 430 448
f 429 448 447
f 430 431 449
f 430 449 448
f 431 432 450
f 431 450 449
f 432 415 433
f 432 433 450
f 433 434 452
f 433 452 451
f 434 435 453
f 434 453 452
f 435 436 454
f 435 454 453
f 436 437 455
f 436 455 454
f 437 438 456
f 437 456 455
f 438 439 457
f 438 457 456
f 439 440 458
f 439 458 457
f 440 441 459
f 440 459 458
f 441 442 460
f 441 460 459
f 442 443 461
f 442 461 460
f 443 444 462
f 443 462 461
f 444 445 463
f 444 463 462
f 445 446 464
f 445 464 463
f 446 447 465
f 446 465 464
f 447 448 466
f 447 466 465
f 448 449 467
f 448 467 466
f 449 450 468
f 449 468 467
f 450 433 451
f 450 451 468
f 451 452 470
f 451 470 469
f 452 453 471
f 452 471 470
f 453 454 472
f 453 472 471
f 454 455 473
f 454 473 472
f 455 456 474
f 455 474 473
f 456 457 475
f 456 475 474
f 457 458 476
f 457 476 475
f 458 459 477
f 458 477 476
f 459 460 478
f 459 478 477
f 460 461 479
f 460 479 478
f 461 462 480
f 461 480 479
f 462 463 481
f 462 481 480
f 463 464 482
f 463 482 481
f 464 465 483
f 464 483 482
f 465 466 484
f 465 484 483
f 466 467 485
f 466 485 484
f 467 468 486
f 467 486 485
f 468 451 469
f 468 469 486
f 469 470 488
f 469 488 487
f 470 471 489
f 470 489 488
f 471 472 490
f 471 490 489
f 472 473 491
f 472 491 490
f 473 474 492
f 473 492 491
f 474 475 493
f 474 493 492
f 475 476 494
f 475 494 493
f 476 477 495
f 476 495 494
f 477 478 496
f 477 496 495
f 478 479 497
f 478 497 496
f 479 480 498
f 479 498 497
f 480 481 499
f 480 499 498
f 481 482 500
f 481 500 499
f 482 483 501
f 482 501 500
f 483 484 502
f 483 502 501
f 484 485 503
f 484 503 502
f 485 486 504
f 485 504 503
f 486 469 487
f 486 487 504
f 487 488 506
f 487 506 505
f 488 489 507
f 488 507 506
f 489 490 508
f 489 508 507
f 490 491 509
f 490 509 508
f 491 492 510
f 491 510 509
f 492 493 511
f 492 511 510
f 493 494 512
f 493 512 511
f 494 495 513
f 494 513 512
f 495 496 514
f 495 514 513
f 496 497 515
f 496 515 514
f 497 498 516
f 497 516 515
f 498 499 517
f 498 517 516
f 499 500 518
f 499 518 517
f 500 501 519
f 500 519 518
f 501 502 520
f 501 520 519
f 502 503 521
f 502 521 520
f 503 504 522
f 503 522 521
f 504 487 505
f 504 505 522
f 505 506 524
f 505 524 523
f 506 507 525
f 506 525 524
f 507 508 526
f 507 526 525
f 508 509 527
f 508 527 526
f 509 510 528
f 509 528 527
f 510 511 529
f 510 529 528
f 511 512 530
f 511 530 529
f 512 513 531
f 512 531 530
f 513 514 532
f 513 532 531
f 514 515 533
f 514 533 532
f 515 516 534
f 515 534 533
f 516 517 535
f 516 535 534
f 517 518 536
f 517 536 535
f 518 519 537
f 518 537 536
f 519 520 538
f 519 538 537
f 520 521 539
f 520 539 538
f 521 522 540
f 521 540 539
f 522 505 523
f 522 523 540
f 523 524 542
f 523 542 541
f 524 525 543
f 524 543 542
f 525 526 544
f 525 544 543
f 526 527 545
f 526 545 544
f 527 528 546
f 527 546 545
f 528 529 547
f 528 547 546
f 529 530 548
f 529 548 547
f 530 531 549
f 530 549 548
f 531 532 550
f 531 550 549
f 532 533 551
f 532 551 550
f 533 534 552
f 533 552 551
f 534 535 553
f 534 553 552
f 535 536 554
f 535 554 553
f 536 537 555
f 536 555 554
f 537 538 556
f 537 556 555
f 538 539 557
f 538 557 556
f 539 540 558
f 539 558 557
f 540 523 541
f 540 541 558
f 541 542 560
f 541 560 559
f 542 543 561
f 542 561 560
f 543 544 562
f 543 562 561
f 544 545 563
f 544 563 562
f 545 546 564
f 545 564 563
f 546 547 565
f 546 565 564
f 547 548 566
f 547 566 565
f 548 549 567
f 548 567 566
f 549 550 568
f 549 568 567
f 550 551 569
f 550 569 568
f 551 552 570
f 551 570 569
f 552 553 571
f 552 571 570
f 553 554 572
f 553 572 571
f 554 555 573
f 554 573 572
f 555 556 574
f 555 574 573
f 556 557 575
f 556 575 574
f 557 558 576
f 557 576 575
f 558 541 559
f 558 559 576
f 559 560 578
f 559 578 577
f 560 561 579
f 560 579 578
f 561 562 580
f 561 580 579
f 562 563 581
f 562 581 580
f 563 564 582
f 563 582 581
f 564 565 583
f 564 583 582
f 565 566 584
f 565 584 583
f 566 567 585
f 566 585 584
f 567 568 586
f 567 586 585
f 568 569 587
f 568 587 586
f 569 570 588
f 569 588 587
f 570 571 589
f 570 589 588
f 571 572 590
f 571 590 589
f 572 573 591
f 572 591 590
f 573 574 592
f 573 592 591
f 574 575 593
f 574 593 592
f 575 576 594
f 575 594 593
f 576 559 577
f 576 577 594
f 577 578 596
f 577 596 595
f 578 579 597
f 578 597 596
f 579 580 598
f 579 598 597
f 580 581 599
f 580 599 598
f 581 582 600
f 581 600 599
f 582 583 601
f 582 601 600
f 583 584 602
f 583 602 601
f 584 585 603
f 584 603 602
f 585 586 604
f 585 604 603
f 586 587 605
f 586 605 604
f 587 588 606
f 587 606 605
f 588 589 607
f 588 607 606
f 589 590 608
f 589 608 607
f 590 591 609
f 590 609 608
f 591 592 610
f 591 610 609
f 592 593 611
f 592 611 610
f 593 594 612
f 593 612 611
f 594 577 595
f 594 595 612
f 595 596 614
f 595 614 613
f 596 597 615
f 596 615 614
f 597 598 616
f 597 616 615
f 598 599 617
f 598 617 616
f 599 600 618
f 599 618 617
f 600 601 619
f 600 619 618
f 601 602 620
f 601 620 619
f 602 603 621
f 602 621 620
f 603 604 622
f 603 622 621
f 604 605 623
f 604 623 622
f 605 606 624
f 605 624 623
f 606 607 625
f 606 625 624
f 607 608 626
f 607 626 625
f 608 609 627
f 608 627 626
f 609 610 628
f 609 628 627
f 610 611 629
f 610 629 628
f 611 612 630
f 611 630 629
f 612 595 613
f 612 613 630
f 613 614 632
f 613 632 631
f 614 615 633
f 614 633 632
f 615 616 634
f 615 634 633
f 616 617 635
f 616 635 634
f 617 618 636
f 617 636 635
f 618 619 637
f 618 637 636
f 619 620 638
f 619 638 637
f 620 621 639
f 620 639 638
f 621 622 640
f 621 640 639
f 622 623 641
f 622 641 640
f 623 624 642
f 623 642 641
f 624 625 643
f 624 643 642
f 625 626 644
f 625 644 643
f 626 627 645
f 626 645 644
f 627 628 646
f 627 646 645
f 628 629 647
f 628 647 646
f 629 630 648
f 629 648 647
f 630 613 631
f 630 631 648
f 631 632 650
f 631 650 649
f 632 633 651
f 632 651 650
f 633 634 652
f 633 652 651
f 634 635 653
f 634 653 652
f 635 636 654
f 635 654 653
f 636 637 655
f 636 655 654
f 637 638 656
f 637 656 655
f 638 639 657
f 638 657 656
f 639 640 658
f 639 658 657
f 640 641 659
f 640 659 658
f 641 642 660
f 641 660 659
f 642 643 661
f 642 661 660
f 643 644 662
f 643 662 661
f 644 645 663
f 644 663 662
f 645 646 664
f 645 664 663
f 646 647 665
f 646 665 664
f 647 648 666
f 647 666 665
f 648 631 649
f 648 649 666
f 649 650 668
f 649 668 667
f 650 651 669
f 650 669 668
f 651 652 670
f 651 670 669
f 652 653 671
f 652 671 670
f 653 654 672
f 653 672 671
f 654 655 673
f 654 673 672
f 655 656 674
f 655 674 673
f 656 657 675
f 656 675 674
f 657 658 676
f 657 676 675
f 658 659 677
f 658 677 676
f 659 660 678
f 659 678 677
f 660 661 679
f 660 679 678
f 661 662 680
f 661 680 679
f 662 663 681
f 662 681 680
f 663 664 682
f 663 682 681
f 664 665 683
f 664 683 682
f 665 666 684
f 665 684 683
f 666 649 667
f 666 667 684
f 667 668 686
f 667 686 685
f 668 669 687
f 668 687 686
f 669 670 688
f 669 688 687
f 670 671 689
f 670 689 688
f 671 672 690
f 671 690 689
f 672 673 691
f 672 691 690
f 673 674 692
f 673 692 691
f 674 675 693
f 674 693 692
f 675 676 694
f 675 694 693
f 676 677 695
f 676 695 694
f 677 678 696
f 677 696 695
f 678 679 697
f 678 697 696
f 679 680 698
f 679 698 697
f 680 681 699
f 680 699 698
f 681 682 700
f 681 700 699
f 682 683 701
f 682 701 700
f 683 684 702
f 683 702 701
f 684 667 685
f 684 685 702
f 685 686 704
f 685 704 703
f 686 687 705
f 686 705 704
f 687 688 706
f 687 706 705
f 688 689 707
f 688 707 706
f 689 690 708
f 689 708 707
f 690 691 709
f 690 709 708
f 691 692 710
f 691 710 709
f 692 693 711
f 692 711 710
f 693 694 712
f 693 712 711
f 694 695 713
f 694 713 712
f 695 696 714
f 695 714 713
f 696 697 715
f 696 715 714
f 697 698 716
f 697 716 715
f 698 699 717
f 698 717 716
f 699 700 718
f 699 718 717
f 700 701 719
f 700 719 718
f 701 702 720
f 701 720 719
f 702 685 703
f 702 703 720
f 703 704 722
f 703 722 721
f 704 705 723
f 704 723 722
f 705 706 724
f 705 724 723
f 706 707 725
f 706 725 724
f 707 708 726
f 707 726 725
f 708 709 727
f 708 727 726
f 709 710 728
f 709 728 727
f 710 711 729
f 710 729 728
f 711 712 730
f 711 730 729
f 712 713 731
f 712 731 730
f 713 714 732
f 713 732 731
f 714 715 733
f 714 733 732
f 715 716 734
f 715 734 733
f 716 717 735
f 716 735 734
f 717 718 736
f 717 736 735
f 718 719 737
f 718 737 736
f 719 720 738
f 719 738 737
f 720 703 721
f 720 721 738
f 721 722 740
f 721 740 739
f 722 723 741
f 722 741 740
f 723 724 742
f 723 742 741
f 724 725 743
f 724 743 742
f 725 726 744
f 725 744 743
f 726 727 745
f 726 745 744
f 727 728 746
f 727 746 745
f 728 729 747
f 728 747 746
f 729 730 748
f 729 748 747
f 730 731 749
f 730 749 748
f 731 732 750
f 731 750 749
f 732 733 751
f 732 751 750
f 733 734 752
f 733 752 751
f 734 735 753
f 734 753 752
f 735 736 754
f 735 754 753
f 736 737 755
f 736 755 754
f 737 738 756
f 737 756 755
f 738 721 739
f 738 739 756
f 739 740 758
f 739 758 757
f 740 741 759
f 740 759 758
f 741 742 760
f 741 760 759
f 742 743 761
f 742 761 760
f 743 744 762
f 743 762 761
f 744 745 763
f 744 763 762
f 745 746 764
f 745 764 763
f 746 747 765
f 746 765 764
f 747 748 766
f 747 766 765
f 748 749 767
f 748 767 766
f 749 750 768
f 749 768 767
f 750 751 769
f 750 769 768
f 751 752 770
f 751 770 769
f 752 753 771
f 752 771 770
f 753 754 772
f 753 772 771
f 754 755 773
f 754 773 772
f 755 756 774
f 755 774 773
f 756 739 757
f 756 757 774
f 757 758 776
f 757 776 775
f 758 759 777
f 758 777 776
f 759 760 778
f 759 778 777
f 760 761 779
f 760 779 778
f 761 762 780
f 761 780 779
f 762 763 781
f 762 781 780
f 763 764 782
f 763 782 781
f 764 765 783
f 764 783 782
f 765 766 784
f 765 784 783
f 766 767 785
f 766 785 784
f 767 768 786
f 767 786 785
f 768 769 787
f 768 787 786
f 769 770 788
f 769 788 787
f 770 771 789
f 770 789 788
f 771 772 790
f 771 790 789
f 772 773 791
f 772 791 790
f 773 774 792
f 773 792 791
f 774 757 775
f 774 775 792
f 775 776 794
f 775 794 793
f 776 777 795
f 776 795 794
f 777 778 796
f 777 796 795
f 778 779 797
f 778 797 796
f 779 780 798
f 779 798 797
f 780 781 799
f 780 799 798
f 781 782 800
f 781 800 799
f 782 783 801
f 782 801 800
f 783 784 802
f 783 802 801
f 784 785 803
f 784 803 802
f 785 786 804
f 785 804 803
f 786 787 805
f 786 805 804
f 787 788 806
f 787 806 805
f 788 789 807
f 788 807 806
f 789 790 808
f 789 808 807
f 790 791 809
f 790 809 808
f 791 792 810
f 791 810 809
f 792 775 793
f 792 793 810
f 793 794 812
f 793 812 811
f 794 795 813
f 794 813 812
f 795 796 814
f 795 814 813
f 796 797 815
f 796 815 814
f 797 798 816
f 797 816 815
f 798 799 817
f 798 817 816
f 799 800 818
f 799 818 817
f 800 801 819
f 800 819 818
f 801 802 820
f 801 820 819
f 802 803 821
f 802 821 820
f 803 804 822
f 803 822 821
f 804 805 823
f 804 823 822
f 805 806 824
f 805 824 823
f 806 807 825
f 806 825 824
f 807 808 826
f 807 826 825
f 808 809 827
f 808 827 826
f 809 810 828
f 809 828 827
f 810 793 811
f 810 811 828
f 811 812 830
f 811 830 829
f 812 813 831
f 812 831 830
f 813 814 832
f 813 832 831
f 814 815 833
f 814 833 832
f 815 816 834
f 815 834 833
f 816 817 835
f 816 835 834
f 817 818 836
f 817 836 835
f 818 819 837
f 818 837 836
f 819 820 838
f 819 838 837
f 820 821 839
f 820 839 838
f 821 822 840
f 821 840 839
f 822 823 841
f 822 841 840
f 823 824 842
f 823 842 841
f 824 825 843
f 824 843 842
f 825 826 844
f 825 844 843
f 826 827 845
f 826 845 844
f 827 828 846
f 827 846 845
f 828 811 829
f 828 829 846
f 829 830 848
f 829 848 847
f 830 831 849
f 830 849 848
f 831 832 850
f 831 850 849
f 832 833 851
f 832 851 850
f 833 834 852
f 833 852 851
f 834 835 853
f 834 853 852
f 835 836 854
f 835 854 853
f 836 837 855
f 836 855 854
f 837 838 856
f 837 856 855
f 838 839 857
f 838 857 856
f 839 840 858
f 839 858 857
f 840 841 859
f 840 859 858
f 841 842 860
f 841 860 859
f 842 843 861
f 842 861 860
f 843 844 862
f 843 862 861
f 844 845 863
f 844 863 862
f 845 846 864
f 845 864 863
f 846 829 847
f 846 847 864
f 847 848 866
f 847 866 865
f 848 849 867
f 848 867 866
f 849 850 868
f 849 868 867
f 850 851 869
f 850 869 868
f 851 852 870
f 851 870 869
f 852 853 871
f 852 871 870
f 853 854 872
f 853 872 871
f 854 855 873
f 854 873 872
f 855 856 874
f 855 874 873
f 856 857 875
f 856 875 874
f 857 858 876
f 857 876 875
f 858 859 877
f 858 877 876
f 859 860 878
f 859 878 877
f 860 861 879
f 860 879 878
f 861 862 880
f 861 880 879
f 862 863 881
f 862 881 880
f 863 864 882
f 863 882 881
f 864 847 865
f 864 865 882
f 865 866 884
f 865 884 883
f 866 867 885
f 866 885 884
f 867 868 886
f 867 886 885
f 868 869 887
f 868 887 886
f 869 870 888
f 869 888 887
f 870 871 889
f 870 889 888
f 871 872 890
f 871 890 889
f 872 873 891
f 872 891 890
f 873 874 892
f 873 892 891
f 874 875 893
f 874 893 892
f 875 876 894
f 875 894 893
f 876 877 895
f 876 895 894
f 877 878 896
f 877 896 895
f 878 879 897
f 878 897 896
f 879 880 898
f 879 898 897
f 880 881 899
f 880 899 898
f 881 882 900
f 881 900 899
f 882 865 883
f 882 883 900
f 883 884 902
f 883 902 901
f 884 885 903
f 884 903 902
f 885 886 904
f 885 904 903
f 886 887 905
f 886 905 904
f 887 888 906
f 887 906 905
f 888 889 907
f 888 907 906
f 889 890 908
f 889 908 907
f 890 891 909
f 890 909 908
f 891 892 910
f 891 910 909
f 892 893 911
f 892 911 910
f 893 894 912
f 893 912 911
f 894 895 913
f 894 913 912
f 895 896 914
f 895 914 913
f 896 897 915
f 896 915 914
f 897 898 916
f 897 916 915
f 898 899 917
f 898 917 916
f 899 900 918
f 899 918 917
f 900 883 901
f 900 901 918
f 901 902 920
f 901 920 919
f 902 903 921
f 902 921 920
f 903 904 922
f 903 922 921
f 904 905 923
f 904 923 922
f 905 906 924
f 905 924 923
f 906 907 925
f 906 925 924
f 907 908 926
f 907 926 925
f 908 909 927
f 908 927 926
f 909 910 928
f 909 928 927
f 910 911 929
f 910 929 928
f 911 912 930
f 911 930 929
f 912 913 931
f 912 931 930
f 913 914 932
f 913 932 931
f 914 915 933
f 914 933 932
f 915 916 934
f 915 934 933
f 916 917 935
f 916 935 934
f 917 918 936
f 917 936 935
f 918 901 919
f 918 919 936
f 919 920 938
f 919 938 937
f 920 921 939
f 920 939 938
f 921 922 940
f 921 940 939
f 922 923 941
f 922 941 940
f 923 924 942
f 923 942 941
f 924 925 943
f 924 943 942
f 925 926 944
f 925 944 943
f 926 927 945
f 926 945 944
f 927 928 946
f 927 946 945
f 928 929 947
f 928 947 946
f 929 930 948
f 929 948 947
f 930 931 949
f 930 949 948
f 931 932 950
f 931 950 949
f 932 933 951
f 932 951 950
f 933 934 952
f 933 952 951
f 934 935 953
f 934 953 952
f 935 936 954
f 935 954 953
f 936 919 937
f 936 937 954
f 937 938 956
f 937 956 955
f 938 939 957
f 938 957 956
f 939 940 958
f 939 958 957
f 940 941 959
f 940 959 958
f 941 942 960
f 941 960 959
f 942 943 961
f 942 961 960
f 943 944 962
f 943 962 961
f 944 945 963
f 944 963 962
f 945 946 964
f 945 964 963
f 946 947 965
f 946 965 964
f 947 948 966
f 947 966 965
f 948 949 967
f 948 967 966
f 949 950 968
f 949 968 967
f 950 951 969
f 950 969 968
f 951 952 970
f 951 970 969
f 952 953 971
f 952 971 970
f 953 954 972
f 953 972 971
f 954 937 955
f 954 955 972
f 955 956 974
f 955 974 973
f 956 957 975
f 956 975 974
f 957 958 976
f 957 976 975
f 958 959 977
f 958 977 976
f 959 960 978
f 959 978 977
f 960 961 979
f 960 979 978
f 961 962 980
f 961 980 979
f 962 963 981
f 962 981 980
f 963 964 982
f 963 982 981
f 964 965 983
f 964 983 982
f 965 966 984
f 965 984 983
f 966 967 985
f 966 985 984
f 967 968 986
f 967 986 985
f 968 969 987
f 968 987 986
f 969 970 988
f 969 988 987
f 970 971 989
f 970 989 988
f 971 972 990
f 971 990 989
f 972 955 973
f 972 973 990
f 973 974 992
f 973 992 991
f 974 975 993
f 974 993 992
f 975 976 994
f 975 994 993
f 976 977 995
f 976 995 994
f 977 978 996
f 977 996 995
f 978 979 997
f 978 997 996
f 979 980 998
f 979 998 997
f 980 981 999
f 980 999 998
f 981 982 1000
f 981 1000 999
f 982 983 1001
f 982 1001 1000
f 983 984 1002
f 983 1002 1001
f 984 985 1003
f 984 1003 1002
f 985 986 1004
f 985 1004 1003
f 986 987 1005
f 986 1005 1004
f 987 988 1006
f 987 1006 1005
f 988 989 1007
f 988 1007 1006
f 989 990 1008
f 989 1008 1007
f 990 973 991
f 990 991 1008
f 991 992 1010
f 991 1010 1009
f 992 993 1011
f 992 1011 1010
f 993 994 1012
f 993 1012 1011
f 994 995 1013
f 994 1013 1012
f 995 996 1014
f 995 1014 1013
f 996 997 1015
f 996 1015 1014
f 997 998 1016
f 997 1016 1015
f 998 999 1017
f 998 1017 1016
f 999 1000 1018
f 999 1018 1017
f 1000 1001 1019
f 1000 1019 1018
f 1001 1002 1020
f 1001 1020 1019
f 1002 1003 1021
f 1002 1021 1020
f 1003 1004 1022
f 1003 1022 1021
f 1004 1005 1023
f 1004 1023 1022
f 1005 1006 1024
f 1005 1024 1023
f 1006 1007 1025
f 1006 1025 1024
f 1007 1008 1026
f 1007 1026 1025
f 1008 991 1009
f 1008 1009 1026
f 1009 1010 1028
f 1009 1028 1027
f 1010 1011 1029
f 1010 1029 1028
f 1011 1012 1030
f 1011 1030 1029
f 1012 1013 1031
f 1012 1031 1030
f 1013 1014 1032
f 1013 1032 1031
f 1014 1015 1033
f 1014 1033 1032
f 1015 1016 1034
f 1015 1034 1033
f 1016 1017 1035
f 1016 1035 1034
f 1017 1018 1036
f 1017 1036 1035
f 1018 1019 1037
f 1018 1037 1036
f 1019 1020 1038
f 1019 1038 1037
f 1020 1021 1039
f 1020 1039 1038
f 1021 1022 1040
f 1021 1040 1039
f 1022 1023 1041
f 1022 1041 1040
f 1023 1024 1042
f 1023 1042 1041
f 1024 1025 1043
f 1024 1043 1042
f 1025 1026 1044
f 1025 1044 1043
f 1026 1009 1027
f 1026 1027 1044
f 1027 1028 1046
f 1027 1046 1045
f 1028 1029 1047
f 1028 1047 1046
f 1029 1030 1048
f 1029 1048 1047
f 1030 1031 1049
f 1030 1049 1048
f 1031 1032 1050
f 1031 1050 1049
f 1032 1033 1051
f 1032 1051 1050
f 1033 1034 1052
f 1033 1052 1051
f 1034 1035 1053
f 1034 1053 1052
f 1035 1036 1054
f 1035 1054 1053
f 1036 1037 1055
f 1036 1055 1054
f 1037 1038 1056
f 1037 1056 1055
f 1038 1039 1057
f 1038 1057 1056
f 1039 1040 1058
f 1039 1058 1057
f 1040 1041 1059
f 1040 1059 1058
f 1041 1042 1060
f 1041 1060 1059
f 1042 1043 1061
f 1042 1061 1060
f 1043 1044 1062
f 1043 1062 1061
f 1044 1027 1045
f 1044 1045 1062
f 1045 1046 1064
f 1045 1064 1063
f 1046 1047 1065
f 1046 1065 1064
f 1047 1048 1066
f 1047 1066 1065
f 1048 1049 1067
f 1048 1067 1066
f 1049 1050 1068
f 1049 1068 1067
f 1050 1051 1069
f 1050 1069 1068
f 1051 1052 1070
f 1051 1070 1069
f 1052 1053 1071
f 1052 1071 1070
f 1053 1054 1072
f 1053 1072 1071
f 1054 1055 1073
f 1054 1073 1072
f 1055 1056 1074
f 1055 1074 1073
f 1056 1057 1075
f 1056 1075 1074
f 1057 1058 1076
f 1057 1076 1075
f 1058 1059 1077
f 1058 1077 1076
f 1059 1060 1078
f 1059 1078 1077
f 1060 1061 1079
f 1060 1079 1078
f 1061 1062 1080
f 1061 1080 1079
f 1062 1045 1063
f 1062 1063 1080
f 1063 1064 1082
f 1063 1082 1081
f 1064 1065 1083
f 1064 1083 1082
f 1065 1066 1084
f 1065 1084 1083
f 1066 1067 1085
f 1066 1085 1084
f 1067 1068 1086
f 1067 1086 1085
f 1068 1069 1087
f 1068 1087 1086
f 1069 1070 1088
f 1069 1088 1087
f 1070 1071 1089
f 1070 1089 1088
f 1071 1072 1090
f 1071 1090 1089
f 1072 1073 1091
f 1072 1091 1090
f 1073 1074 1092
f 1073 1092 1091
f 1074 1075 1093
f 1074 1093 1092
f 1075 1076 1094
f 1075 1094 1093
f 1076 1077 1095
f 1076 1095 1094
f 1077 1078 1096
f 1077 1096 1095
f 1078 1079 1097
f 1078 1097 1096
f 1079 1080 1098
f 1079 1098 1097
f 1080 1063 1081
f 1080 1081 1098
f 1081 1082 1100
f 1081 1100 1099
f 1082 1083 1101
f 1082 1101 1100
f 1083 1084 1102
f 1083 1102 1101
f 1084 1085 1103
f 1084 1103 1102
f 1085 1086 1104
f 1085 1104 1103
f 1086 1087 1105
f 1086 1105 1104
f 1087 1088 1106
f 1087 1106 1105
f 1088 1089 1107
f 1088 1107 1106
f 1089 1090 1108
f 1089 1108 1107
f 1090 1091 1109
f 1090 1109 1108
f 1091 1092 1110
f 1091 1110 1109
f 1092 1093 1111
f 1092 1111 1110
f 1093 1094 1112
f 1093 1112 1111
f 1094 1095 1113
f 1094 1113 1112
f 1095 1096 1114
f 1095 1114 1113
f 1096 1097 1115
f 1096 1115 1114
f 1097 1098 1116
f 1097 1116 1115
f 1098 1081 1099
f 1098 1099 1116
f 1099 1100 1118
f 1099 1118 1117
f 1100 1101 1119
f 1100 1119 1118
f 1101 1102 1120
f 1101 1120 1119
f 1102 1103 1121
f 1102 1121 1120
f 1103 1104 1122
f 1103 1122 1121
f 1104 1105 1123
f 1104 1123 1122
f 1105 1106 1124
f 1105 1124 1123
f 1106 1107 1125
f 1106 1125 1124
f 1107 1108 1126
f 1107 1126 1125
f 1108 1109 1127
f 1108 1127 1126
f 1109 1110 1128
f 1109 1128 1127
f 1110 1111 1129
f 1110 1129 1128
f 1111 1112 1130
f 1111 1130 1129
f 1112 1113 1131
f 1112 1131 1130
f 1113 1114 1132
f 1113 1132 1131
f 1114 1115 1133
f 1114 1133 1132
f 1115 1116 1134
f 1115 1134 1133
f 1116 1099 1117
f 1116 1117 1134
f 1117 1118 1136
f 1117 1136 1135
f 1118 1119 1137
f 1118 1137 1136
f 1119 1120 1138
f 1119 1138 1137
f 1120 1121 1139
f 1120 1139 1138
f 1121 1122 1140
f 1121 1140 1139
f 1122 1123 1141
f 1122 1141 1140
f 1123 1124 1142
f 1123 1142 1141
f 1124 1125 1143
f 1124 1143 1142
f 1125 1126 1144
f 1125 1144 1143
f 1126 1127 1145
f 1126 1145 1144
f 1127 1128 1146
f 1127 1146 1145
f 1128 1129 1147
f 1128 1147 1146
f 1129 1130 1148
f 1129 1148 1147
f 1130 1131 1149
f 1130 1149 1148
f 1131 1132 1150
f 1131 1150 1149
f 1132 1133 1151
f 1132 1151 1150
f 1133 1134 1152
f 1133 1152 1151
f 1134 1117 1135
f 1134 1135 1152
f 1135 1136 1154
f 1135 1154 1153
f 1136 1137 1155
f 1136 1155 1154
f 1137 1138 1156
f 1137 1156 1155
f 1138 1139 1157
f 1138 1157 1156
f 1139 1140 1158
f 1139 1158 1157
f 1140 1141 1159
f 1140 1159 1158
f 1141 1142 1160
f 1141 1160 1159
f 1142 1143 1161
f 1142 1161 1160
f 1143 1144 1162
f 1143 1162 1161
f 1144 1145 1163
f 1144 1163 1162
f 1145 1146 1164
f 1145 1164 1163
f 1146 1147 1165
f 1146 1165 1164
f 1147 1148 1166
f 1147 1166 1165
f 1148 1149 1167
f 1148 1167 1166
f 1149 1150 1168
f 1149 1168 1167
f 1150 1151 1169
f 1150 1169 1168
f 1151 1152 1170
f 1151 1170 1169
f 1152 1135 1153
f 1152 1153 1170
f 1153 1154 1172
f 1153 1172 1171
f 1154 1155 1173
f 1154 1173 1172
f 1155 1156 1174
f 1155 1174 1173
f 1156 1157 1175
f 1156 1175 1174
f 1157 1158 1176
f 1157 1176 1175
f 1158 1159 1177
f 1158 1177 1176
f 1159 1160 1178
f 1159 1178 1177
f 1160 1161 1179
f 1160 1179 1178
f 1161 1162 1180
f 1161 1180 1179
f 1162 1163 1181
f 1162 1181 1180
f 1163 1164 1182
f 1163 1182 1181
f 1164 1165 1183
f 1164 1183 1182
f 1165 1166 1184
f 1165 1184 1183
f 1166 1167 1185
f 1166 1185 1184
f 1167 1168 1186
f 1167 1186 1185
f 1168 1169 1187
f 1168 1187 1186
f 1169 1170 1188
f 1169 1188 1187
f 1170 1153 1171
f 1170 1171 1188
f 1171 1172 1190
f 1171 1190 1189
f 1172 1173 1191
f 1172 1191 1190
f 1173 1174 1192
f 1173 1192 1191
f 1174 1175 1193
f 1174 1193 1192
f 1175 1176 1194
f 1175 1194 1193
f 1176 1177 1195
f 1176 1195 1194
f 1177 1178 1196
f 1177 1196 1195
f 1178 1179 1197
f 1178 1197 1196
f 1179 1180 1198
f 1179 1198 1197
f 1180 1181 1199
f 1180 1199 1198
f 1181 1182 1200
f 1181 1200 1199
f 1182 1183 1201
f 1182 1201 1200
f 1183 1184 1202
f 1183 1202 1201
f 1184 1185 1203
f 1184 1203 1202
f 1185 1186 1204
f 1185 1204 1203
f 1186 1187 1205
f 1186 1205 1204
f 1187 1188 1206
f 1187 1206 1205
f 1188 1171 1189
f 1188 1189 1206
f 1189 1190 1208
f 1189 1208 1207
f 1190 1191 1209
f 1190 1209 1208
f 1191 1192 1210
f 1191 1210 1209
f 1192 1193 1211
f 1192 1211 1210
f 1193 1194 1212
f 1193 1212 1211
f 1194 1195 1213
f 1194 1213 1212
f 1195 1196 1214
f 1195 1214 1213
f 1196 1197 1215
f 1196 1215 1214
f 1197 1198 1216
f 1197 1216 1215
f 1198 1199 1217
f 1198 1217 1216
f 1199 1200 1218
f 1199 1218 1217
f 1200 1201 1219
f 1200 1219 1218
f 1201 1202 1220
f 1201 1220 1219
f 1202 1203 1221
f 1202 1221 1220
f 1203 1204 1222
f 1203 1222 1221
f 1204 1205 1223
f 1204 1223 1222
f 1205 1206 1224
f 1205 1224 1223
f 1206 1189 1207
f 1206 1207 1224
f 1207 1208 1226
f 1207 1226 1225
f 1208 1209 1227
f 1208 1227 1226
f 1209 1210 1228
f 1209 1228 1227
f 1210 1211 1229
f 1210 1229 1228
f 1211 1212 1230
f 1211 1230 1229
f 1212 1213 1231
f 1212 1231 1230
f 1213 1214 1232
f 1213 1232 1231
f 1214 1215 1233
f 1214 1233 1232
f 1215 1216 1234
f 1215 1234 1233
f 1216 1217 1235
f 1216 1235 1234
f 1217 1218 1236
f 1217 1236 1235
f 1218 1219 1237
f 1218 1237 1236
f 1219 1220 1238
f 1219 1238 1237
f 1220 1221 1239
f 1220 1239 1238
f 1221 1222 1240
f 1221 1240 1239
f 1222 1223 1241
f 1222 1241 1240
f 1223 1224 1242
f 1223 1242 1241
f 1224 1207 1225
f 1224 1225 1242
f 1225 1226 1244
f 1225 1244 1243
f 1226 1227 1245
f 1226 1245 1244
f 1227 1228 1246
f 1227 1246 1245
f 1228 1229 1247
f 1228 1247 1246
f 1229 1230 1248
f 1229 1248 1247
f 1230 1231 1249
f 1230 1249 1248
f 1231 1232 1250
f 1231 1250 1249
f 1232 1233 1251
f 1232 1251 1250
f 1233 1234 1252
f 1233 1252 1251
f 1234 1235 1253
f 1234 1253 1252
f 1235 1236 1254
f 1235 1254 1253
f 1236 1237 1255
f 1236 1255 1254
f 1237 1238 1256
f 1237 1256 1255
f 1238 1239 1257
f 1238 1257 1256
f 1239 1240 1258
f 1239 1258 1257
f 1240 1241 1259
f 1240 1259 1258
f 1241 1242 1260
f 1241 1260 1259
f 1242 1225 1243
f 1242 1243 1260
f 1243 1244 1262
f 1243 1262 1261
f 1244 1245 1263
f 1244 1263 1262
f 1245 1246 1264
f 1245 1264 1263
f 1246 1247 1265
f 1246 1265 1264
f 1247 1248 1266
f 1247 1266 1265
f 1248 1249 1267
f 1248 1267 1266
f 1249 1250 1268
f 1249 1268 1267
f 1250 1251 1269
f 1250 1269 1268
f 1251 1252 1270
f 1251 1270 1269
f 1252 1253 1271
f 1252 1271 1270
f 1253 1254 1272
f 1253 1272 1271
f 1254 1255 1273
f 1254 1273 1272
f 1255 1256 1274
f 1255 1274 1273
f 1256 1257 1275
f 1256 1275 1274
f 1257 1258 1276
f 1257 1276 1275
f 1258 1259 1277
f 1258 1277 1276
f 1259 1260 1278
f 1259 1278 1277
f 1260 1243 1261
f 1260 1261 1278
f 1261 1262 1280
f 1261 1280 1279
f 1262 1263 1281
f 1262 1281 1280
f 1263 1264 1282
f 1263 1282 1281
f 1264 1265 1283
f 1264 1283 1282
f 1265 1266 1284
f 1265 1284 1283
f 1266 1267 1285
f 1266 1285 1284
f 1267 1268 1286
f 1267 1286 1285
f 1268 1269 1287
f 1268 1287 1286
f 1269 1270 1288
f 1269 1288 1287
f 1270 1271 1289
f 1270 1289 1288
f 1271 1272 1290
f 1271 1290 1289
f 1272 1273 1291
f 1272 1291 1290
f 1273 1274 1292
f 1273 1292 1291
f 1274 1275 1293
f 1274 1293 1292
f 1275 1276 1294
f 1275 1294 1293
f 1276 1277 1295
f 1276 1295 1294
f 1277 1278 1296
f 1277 1296 1295
f 1278 1261 1279
f 1278 1279 1296
