# tube retopo
v -0.774585 -0.108551 -0.536522
v -0.755303 -0.100181 -0.577976
v -0.738149 -0.075928 -0.614546
v -0.726147 -0.037422 -0.639959
v -0.723855 0.009662 -0.644820
v -0.730500 0.052953 -0.630826
v -0.743080 0.084128 -0.604171
v -0.758469 0.102158 -0.571325
v -0.774724 0.108106 -0.536361
v -0.790910 0.102678 -0.501282
v -0.806239 0.084730 -0.467826
v -0.818615 0.053092 -0.440650
v -0.824994 0.009482 -0.426572
v -0.822727 -0.037913 -0.431538
v -0.810894 -0.076611 -0.457525
v -0.793848 -0.100789 -0.494760
v -0.705499 -0.108554 -0.466521
v -0.676927 -0.100870 -0.501136
v -0.652026 -0.076960 -0.530844
v -0.635019 -0.040109 -0.550874
v -0.630066 0.003834 -0.556672
v -0.637613 0.046257 -0.547847
v -0.655097 0.080308 -0.527228
v -0.679036 0.101558 -0.498630
v -0.705675 0.108103 -0.466339
v -0.731590 0.099820 -0.434487
v -0.753728 0.077750 -0.406955
v -0.769188 0.044407 -0.387563
v -0.775670 0.003751 -0.379390
v -0.771612 -0.038422 -0.384499
v -0.756515 -0.074622 -0.403447
v -0.733373 -0.099284 -0.432250
v -0.632564 -0.108552 -0.403883
v -0.597939 -0.101496 -0.431601
v -0.567352 -0.079117 -0.455545
v -0.545742 -0.044197 -0.472128
v -0.537064 -0.001618 -0.478704
v -0.544570 0.041440 -0.473013
v -0.566004 0.077367 -0.456577
v -0.597092 0.100693 -0.432258
v -0.632638 0.108105 -0.403810
v -0.667130 0.098860 -0.375610
v -0.695632 0.074681 -0.351910
v -0.714310 0.039400 -0.336201
v -0.720425 -0.001778 -0.331031
v -0.713144 -0.042376 -0.337190
v -0.694242 -0.076577 -0.353082
v -0.666164 -0.099743 -0.376419
v -0.550064 -0.108545 -0.345006
v -0.517340 -0.100420 -0.374560
v -0.489030 -0.077292 -0.399485
v -0.469516 -0.042428 -0.416294
v -0.462021 -0.000803 -0.422666
v -0.469064 0.041072 -0.416679
v -0.488546 0.076373 -0.399904
v -0.517090 0.099881 -0.374781
v -0.550204 0.108113 -0.344877
v -0.582881 0.099848 -0.314627
v -0.610365 0.076305 -0.288663
v -0.628759 0.040963 -0.271038
v -0.635315 -0.000951 -0.264711
v -0.628242 -0.042604 -0.271536
v -0.609722 -0.077452 -0.289275
v -0.582388 -0.100516 -0.315089
v -0.466736 -0.108535 -0.289408
v -0.436599 -0.100202 -0.321345
v -0.410644 -0.076584 -0.348077
v -0.392974 -0.041206 -0.365848
v -0.386692 0.000680 -0.372083
v -0.393583 0.042235 -0.365248
v -0.411369 0.077002 -0.347351
v -0.437107 0.100044 -0.320830
v -0.466810 0.108123 -0.289347
v -0.496117 0.100099 -0.257414
v -0.520887 0.077076 -0.229791
v -0.537680 0.042258 -0.210750
v -0.544113 0.000547 -0.203390
v -0.538193 -0.041413 -0.210157
v -0.521475 -0.076784 -0.229115
v -0.496477 -0.100325 -0.256999
v -0.380460 -0.108521 -0.239785
v -0.351718 -0.100222 -0.272050
v -0.326917 -0.076613 -0.298980
v -0.310009 -0.041202 -0.316843
v -0.304012 0.000759 -0.323082
v -0.310654 0.042406 -0.316177
v -0.327728 0.077192 -0.298129
v -0.352334 0.100156 -0.271391
v -0.380644 0.108137 -0.239600
v -0.408508 0.100041 -0.207276
v -0.432013 0.076993 -0.179246
v -0.447919 0.042206 -0.159895
v -0.453996 0.000612 -0.152420
v -0.448397 -0.041346 -0.159298
v -0.432525 -0.076725 -0.178608
v -0.408770 -0.100279 -0.206943
v -0.292436 -0.108502 -0.197030
v -0.264648 -0.100261 -0.228407
v -0.240616 -0.076846 -0.254490
v -0.224145 -0.041680 -0.271791
v -0.218024 0.000100 -0.278103
v -0.224327 0.041796 -0.271610
v -0.240862 0.076793 -0.254242
v -0.264874 0.100029 -0.228177
v -0.292574 0.108155 -0.196894
v -0.319817 0.100004 -0.164888
v -0.342718 0.076738 -0.137063
v -0.358109 0.041702 -0.117899
v -0.363875 -0.000035 -0.110624
v -0.358186 -0.041849 -0.117793
v -0.342773 -0.077004 -0.136977
v -0.319791 -0.100357 -0.164897
v -0.204966 -0.108478 -0.160957
v -0.179280 -0.100229 -0.191366
v -0.157046 -0.076782 -0.216539
v -0.141810 -0.041577 -0.233173
v -0.136188 0.000225 -0.239187
v -0.142037 0.041888 -0.232937
v -0.157331 0.076842 -0.216239
v -0.179506 0.100050 -0.191126
v -0.205056 0.108179 -0.160872
v -0.230160 0.100057 -0.129773
v -0.251245 0.076832 -0.102610
v -0.265413 0.041830 -0.083825
v -0.270733 0.000100 -0.076658
v -0.265546 -0.041733 -0.083637
v -0.251378 -0.076924 -0.102417
v -0.230210 -0.100314 -0.129687
v -0.121710 -0.108450 -0.130731
v -0.098211 -0.100180 -0.159148
v -0.077862 -0.076687 -0.182618
v -0.063926 -0.041436 -0.198094
v -0.058834 0.000390 -0.203631
v -0.064213 0.042026 -0.197787
v -0.078218 0.076932 -0.182231
v -0.098485 0.100095 -0.158842
v -0.121802 0.108208 -0.130634
v -0.144683 0.100106 -0.101576
v -0.163881 0.076931 -0.076121
v -0.176782 0.041980 -0.058458
v -0.181643 0.000278 -0.051683
v -0.176973 -0.041589 -0.058186
v -0.164082 -0.076834 -0.075837
v -0.144776 -0.100269 -0.101438
v -0.047791 -0.108419 -0.103625
v -0.025568 -0.100198 -0.128699
v -0.006306 -0.076850 -0.149442
v 0.006928 -0.041765 -0.163177
v 0.011918 -0.000041 -0.168250
v 0.006886 0.041696 -0.163137
v -0.006390 0.076770 -0.149358
v -0.025685 0.100080 -0.128573
v -0.047914 0.108239 -0.103484
v -0.069726 0.100069 -0.077632
v -0.087995 0.076743 -0.055007
v -0.100222 0.041639 -0.039356
v -0.104769 -0.000137 -0.033431
v -0.100186 -0.041928 -0.039405
v -0.087920 -0.077021 -0.055104
v -0.069615 -0.100310 -0.077768
v 0.011955 -0.108387 -0.074636
v 0.033669 -0.100184 -0.096158
v 0.052400 -0.076853 -0.114140
v 0.065224 -0.041775 -0.126148
v 0.070055 -0.000043 -0.130609
v 0.065189 0.041754 -0.126114
v 0.052335 0.076816 -0.114073
v 0.033580 0.100117 -0.096059
v 0.011852 0.108271 -0.074514
v -0.009585 0.100091 -0.052524
v -0.027628 0.076756 -0.033434
v -0.039748 0.041650 -0.020306
v -0.044259 -0.000121 -0.015359
v -0.039697 -0.041938 -0.020374
v -0.027544 -0.076997 -0.033545
v -0.009483 -0.100268 -0.052653
v 0.054607 -0.108358 -0.037873
v 0.077391 -0.100134 -0.056490
v 0.096782 -0.076729 -0.072339
v 0.109908 -0.041559 -0.083071
v 0.114746 0.000261 -0.087027
v 0.109772 0.041924 -0.082955
v 0.096626 0.076898 -0.072201
v 0.077291 0.100138 -0.056387
v 0.054615 0.108300 -0.037850
v 0.031923 0.100205 -0.019310
v 0.012547 0.077001 -0.003489
v -0.000653 0.041983 0.007280
v -0.005651 0.000207 0.011350
v -0.000791 -0.041616 0.007374
v 0.012374 -0.076796 -0.003379
v 0.031805 -0.100182 -0.019249
v 0.081343 -0.108334 0.011794
v 0.106914 -0.100114 -0.004963
v 0.128410 -0.076749 -0.019511
v 0.142828 -0.041644 -0.029514
v 0.148175 0.000090 -0.033274
v 0.142772 0.041800 -0.029470
v 0.128332 0.076847 -0.019446
v 0.106842 0.100148 -0.004894
v 0.081302 0.108324 0.011851
v 0.055401 0.100184 0.028248
v 0.033029 0.076894 0.041955
v 0.017689 0.041818 0.051117
v 0.011885 0.000048 0.054528
v 0.017651 -0.041754 0.051121
v 0.032996 -0.076877 0.041945
v 0.055399 -0.100199 0.028214
v 0.097177 -0.108317 0.076424
v 0.126222 -0.100150 0.059966
v 0.150482 -0.076908 0.045491
v 0.166702 -0.041929 0.035417
v 0.172777 -0.000259 0.031559
v 0.166861 0.041554 0.035320
v 0.150661 0.076720 0.045390
v 0.126322 0.100128 0.059922
v 0.097129 0.108340 0.076472
v 0.067287 0.100145 0.092474
v 0.041371 0.076735 0.105675
v 0.023569 0.041538 0.114391
v 0.016964 -0.000294 0.117552
v 0.023794 -0.042069 0.114270
v 0.041639 -0.077041 0.105520
v 0.067483 -0.100231 0.092347
v 0.109416 -0.108308 0.154231
v 0.141669 -0.100175 0.136174
v 0.168521 -0.076951 0.120248
v 0.186438 -0.041935 0.109123
v 0.193134 -0.000200 0.104856
v 0.186616 0.041579 0.109011
v 0.168766 0.076735 0.120101
v 0.141869 0.100132 0.136065
v 0.109496 0.108350 0.154199
v 0.076298 0.100182 0.171699
v 0.047393 0.076816 0.186124
v 0.027479 0.041632 0.195659
v 0.020047 -0.000221 0.199136
v 0.027631 -0.041937 0.195579
v 0.047535 -0.076942 0.186042
v 0.076355 -0.100177 0.171656
v 0.124521 -0.108303 0.240910
v 0.159009 -0.100150 0.220568
v 0.187751 -0.076916 0.202681
v 0.206918 -0.041939 0.190223
v 0.214089 -0.000265 0.185443
v 0.207143 0.041519 0.190072
v 0.188024 0.076699 0.202505
v 0.159208 0.100123 0.220448
v 0.124552 0.108355 0.240897
v 0.089069 0.100174 0.260707
v 0.058245 0.076768 0.277101
v 0.037083 0.041561 0.287959
v 0.029239 -0.000284 0.291907
v 0.037322 -0.042005 0.287835
v 0.058512 -0.076994 0.276956
v 0.089227 -0.100201 0.260615
v 0.146235 -0.108302 0.331978
v 0.181812 -0.100156 0.309317
v 0.211578 -0.076971 0.289454
v 0.231506 -0.042057 0.275635
v 0.239006 -0.000425 0.270316
v 0.231854 0.041400 0.275387
v 0.211975 0.076643 0.289178
v 0.182053 0.100116 0.309156
v 0.146191 0.108355 0.332004
v 0.109623 0.100146 0.354228
v 0.077995 0.076686 0.372686
v 0.056375 0.041427 0.384939
v 0.048464 -0.000444 0.389353
v 0.056767 -0.042150 0.384718
v 0.078462 -0.077090 0.372417
v 0.109952 -0.100239 0.354031
v 0.176170 -0.108304 0.423905
v 0.211914 -0.100174 0.399085
v 0.241954 -0.077031 0.377383
v 0.262149 -0.042161 0.362301
v 0.269790 -0.000551 0.356480
v 0.262597 0.041303 0.361957
v 0.242464 0.076591 0.377000
v 0.212228 0.100101 0.398858
v 0.176117 0.108354 0.423937
v 0.139449 0.100128 0.448417
v 0.107866 0.076629 0.468810
v 0.086358 0.041327 0.482370
v 0.078568 -0.000569 0.487221
v 0.086854 -0.042256 0.482060
v 0.108458 -0.077153 0.468433
v 0.139868 -0.100260 0.448144
v 0.214375 -0.108306 0.514361
v 0.249581 -0.100169 0.487276
v 0.279254 -0.076974 0.463662
v 0.299231 -0.042038 0.447303
v 0.306765 -0.000382 0.441026
v 0.299549 0.041437 0.447035
v 0.279627 0.076661 0.463354
v 0.249828 0.100117 0.487076
v 0.214370 0.108352 0.514360
v 0.178496 0.100147 0.541064
v 0.147679 0.076703 0.563381
v 0.126711 0.041462 0.578274
v 0.119035 -0.000396 0.583672
v 0.127046 -0.042097 0.578039
v 0.148067 -0.077048 0.563104
v 0.178754 -0.100218 0.540879
v 0.260064 -0.108308 0.601955
v 0.294286 -0.100188 0.573019
v 0.323225 -0.076967 0.547832
v 0.342748 -0.041963 0.530414
v 0.350096 -0.000242 0.523760
v 0.342968 0.041551 0.530212
v 0.323515 0.076723 0.547569
v 0.294525 0.100131 0.572807
v 0.260149 0.108349 0.601879
v 0.225471 0.100174 0.630401
v 0.195731 0.076789 0.654308
v 0.175494 0.041590 0.670320
v 0.168015 -0.000253 0.676188
v 0.175685 -0.041959 0.670170
v 0.195921 -0.076950 0.654160
v 0.225554 -0.100176 0.630338
v 0.312316 -0.108311 0.685971
v 0.345254 -0.100137 0.655306
v 0.373128 -0.076819 0.628705
v 0.391914 -0.041735 0.610389
v 0.398938 0.000016 0.603451
v 0.391912 0.041791 0.610387
v 0.373123 0.076873 0.628703
v 0.345245 0.100184 0.655308
v 0.312301 0.108347 0.685979
v 0.279150 0.100176 0.716123
v 0.250765 0.076855 0.741444
v 0.231452 0.041764 0.758446
v 0.224196 0.000005 0.764792
v 0.231467 -0.041774 0.758435
v 0.250784 -0.076852 0.741429
v 0.279170 -0.100156 0.716109
v 0.370186 -0.108313 0.766292
v 0.401951 -0.100143 0.734722
v 0.428882 -0.076849 0.707378
v 0.447071 -0.041800 0.688566
v 0.453894 -0.000078 0.681429
v 0.447141 0.041685 0.688489
v 0.428963 0.076802 0.707289
v 0.402003 0.100155 0.734662
v 0.370183 0.108344 0.766289
v 0.338210 0.100175 0.797434
v 0.310870 0.076829 0.823636
v 0.292296 0.041701 0.841241
v 0.285362 -0.000088 0.847776
v 0.292367 -0.041840 0.841176
v 0.310953 -0.076898 0.823560
v 0.338266 -0.100176 0.797384
v 0.433596 -0.108315 0.841939
v 0.464967 -0.099819 0.811547
v 0.491443 -0.076754 0.785430
v 0.509438 -0.042319 0.767400
v 0.516384 -0.001240 0.760373
v 0.510343 0.040298 0.766483
v 0.492500 0.075629 0.784371
v 0.465668 0.099519 0.810855
v 0.433579 0.108342 0.841950
v 0.401098 0.100515 0.872877
v 0.373190 0.077028 0.899073
v 0.354248 0.041314 0.916679
v 0.347642 -0.001245 0.922790
v 0.355182 -0.043387 0.915816
v 0.374283 -0.078196 0.898056
v 0.401828 -0.100837 0.872192
v 0.500716 -0.108317 0.915058
v 0.535291 -0.100966 0.894578
v 0.566184 -0.080704 0.876023
v 0.589316 -0.048519 0.861954
v 0.600215 -0.007317 0.855268
v 0.595336 0.036915 0.858263
v 0.573258 0.074376 0.871731
v 0.539941 0.099185 0.891794
v 0.500784 0.108341 0.915011
v 0.460924 0.100750 0.938287
v 0.425909 0.076523 0.958469
v 0.402009 0.038551 0.972117
v 0.396480 -0.007200 0.975262
v 0.408349 -0.050242 0.968509
v 0.433185 -0.083022 0.954298
v 0.465633 -0.102553 0.935559
f 1 2 18 17
f 2 3 19 18
f 3 4 20 19
f 4 5 21 20
f 5 6 22 21
f 6 7 23 22
f 7 8 24 23
f 8 9 25 24
f 9 10 26 25
f 10 11 27 26
f 11 12 28 27
f 12 13 29 28
f 13 14 30 29
f 14 15 31 30
f 15 16 32 31
f 16 1 17 32
f 17 18 34 33
f 18 19 35 34
f 19 20 36 35
f 20 21 37 36
f 21 22 38 37
f 22 23 39 38
f 23 24 40 39
f 24 25 41 40
f 25 26 42 41
f 26 27 43 42
f 27 28 44 43
f 28 29 45 44
f 29 30 46 45
f 30 31 47 46
f 31 32 48 47
f 32 17 33 48
f 33 34 50 49
f 34 35 51 50
f 35 36 52 51
f 36 37 53 52
f 37 38 54 53
f 38 39 55 54
f 39 40 56 55
f 40 41 57 56
f 41 42 58 57
f 42 43 59 58
f 43 44 60 59
f 44 45 61 60
f 45 46 62 61
f 46 47 63 62
f 47 48 64 63
f 48 33 49 64
f 49 50 66 65
f 50 51 67 66
f 51 52 68 67
f 52 53 69 68
f 53 54 70 69
f 54 55 71 70
f 55 56 72 71
f 56 57 73 72
f 57 58 74 73
f 58 59 75 74
f 59 60 76 75
f 60 61 77 76
f 61 62 78 77
f 62 63 79 78
f 63 64 80 79
f 64 49 65 80
f 65 66 82 81
f 66 67 83 82
f 67 68 84 83
f 68 69 85 84
f 69 70 86 85
f 70 71 87 86
f 71 72 88 87
f 72 73 89 88
f 73 74 90 89
f 74 75 91 90
f 75 76 92 91
f 76 77 93 92
f 77 78 94 93
f 78 79 95 94
f 79 80 96 95
f 80 65 81 96
f 81 82 98 97
f 82 83 99 98
f 83 84 100 99
f 84 85 101 100
f 85 86 102 101
f 86 87 103 102
f 87 88 104 103
f 88 89 105 104
f 89 90 106 105
f 90 91 107 106
f 91 92 108 107
f 92 93 109 108
f 93 94 110 109
f 94 95 111 110
f 95 96 112 111
f 96 81 97 112
f 97 98 114 113
f 98 99 115 114
f 99 100 116 115
f 100 101 117 116
f 101 102 118 117
f 102 103 119 118
f 103 104 120 119
f 104 105 121 120
f 105 106 122 121
f 106 107 123 122
f 107 108 124 123
f 108 109 125 124
f 109 110 126 125
f 110 111 127 126
f 111 112 128 127
f 112 97 113 128
f 113 114 130 129
f 114 115 131 130
f 115 116 132 131
f 116 117 133 132
f 117 118 134 133
f 118 119 135 134
f 119 120 136 135
f 120 121 137 136
f 121 122 138 137
f 122 123 139 138
f 123 124 140 139
f 124 125 141 140
f 125 126 142 141
f 126 127 143 142
f 127 128 144 143
f 128 113 129 144
f 129 130 146 145
f 130 131 147 146
f 131 132 148 147
f 132 133 149 148
f 133 134 150 149
f 134 135 151 150
f 135 136 152 151
f 136 137 153 152
f 137 138 154 153
f 138 139 155 154
f 139 140 156 155
f 140 141 157 156
f 141 142 158 157
f 142 143 159 158
f 143 144 160 159
f 144 129 145 160
f 145 146 162 161
f 146 147 163 162
f 147 148 164 163
f 148 149 165 164
f 149 150 166 165
f 150 151 167 166
f 151 152 168 167
f 152 153 169 168
f 153 154 170 169
f 154 155 171 170
f 155 156 172 171
f 156 157 173 172
f 157 158 174 173
f 158 159 175 174
f 159 160 176 175
f 160 145 161 176
f 161 162 178 177
f 162 163 179 178
f 163 164 180 179
f 164 165 181 180
f 165 166 182 181
f 166 167 183 182
f 167 168 184 183
f 168 169 185 184
f 169 170 186 185
f 170 171 187 186
f 171 172 188 187
f 172 173 189 188
f 173 174 190 189
f 174 175 191 190
f 175 176 192 191
f 176 161 177 192
f 177 178 194 193
f 178 179 195 194
f 179 180 196 195
f 180 181 197 196
f 181 182 198 197
f 182 183 199 198
f 183 184 200 199
f 184 185 201 200
f 185 186 202 201
f 186 187 203 202
f 187 188 204 203
f 188 189 205 204
f 189 190 206 205
f 190 191 207 206
f 191 192 208 207
f 192 177 193 208
f 193 194 210 209
f 194 195 211 210
f 195 196 212 211
f 196 197 213 212
f 197 198 214 213
f 198 199 215 214
f 199 200 216 215
f 200 201 217 216
f 201 202 218 217
f 202 203 219 218
f 203 204 220 219
f 204 205 221 220
f 205 206 222 221
f 206 207 223 222
f 207 208 224 223
f 208 193 209 224
f 209 210 226 225
f 210 211 227 226
f 211 212 228 227
f 212 213 229 228
f 213 214 230 229
f 214 215 231 230
f 215 216 232 231
f 216 217 233 232
f 217 218 234 233
f 218 219 235 234
f 219 220 236 235
f 220 221 237 236
f 221 222 238 237
f 222 223 239 238
f 223 224 240 239
f 224 209 225 240
f 225 226 242 241
f 226 227 243 242
f 227 228 244 243
f 228 229 245 244
f 229 230 246 245
f 230 231 247 246
f 231 232 248 247
f 232 233 249 248
f 233 234 250 249
f 234 235 251 250
f 235 236 252 251
f 236 237 253 252
f 237 238 254 253
f 238 239 255 254
f 239 240 256 255
f 240 225 241 256
f 241 242 258 257
f 242 243 259 258
f 243 244 260 259
f 244 245 261 260
f 245 246 262 261
f 246 247 263 262
f 247 248 264 263
f 248 249 265 264
f 249 250 266 265
f 250 251 267 266
f 251 252 268 267
f 252 253 269 268
f 253 254 270 269
f 254 255 271 270
f 255 256 272 271
f 256 241 257 272
f 257 258 274 273
f 258 259 275 274
f 259 260 276 275
f 260 261 277 276
f 261 262 278 277
f 262 263 279 278
f 263 264 280 279
f 264 265 281 280
f 265 266 282 281
f 266 267 283 282
f 267 268 284 283
f 268 269 285 284
f 269 270 286 285
f 270 271 287 286
f 271 272 288 287
f 272 257 273 288
f 273 274 290 289
f 274 275 291 290
f 275 276 292 291
f 276 277 293 292
f 277 278 294 293
f 278 279 295 294
f 279 280 296 295
f 280 281 297 296
f 281 282 298 297
f 282 283 299 298
f 283 284 300 299
f 284 285 301 300
f 285 286 302 301
f 286 287 303 302
f 287 288 304 303
f 288 273 289 304
f 289 290 306 305
f 290 291 307 306
f 291 292 308 307
f 292 293 309 308
f 293 294 310 309
f 294 295 311 310
f 295 296 312 311
f 296 297 313 312
f 297 298 314 313
f 298 299 315 314
f 299 300 316 315
f 300 301 317 316
f 301 302 318 317
f 302 303 319 318
f 303 304 320 319
f 304 289 305 320
f 305 306 322 321
f 306 307 323 322
f 307 308 324 323
f 308 309 325 324
f 309 310 326 325
f 310 311 327 326
f 311 312 328 327
f 312 313 329 328
f 313 314 330 329
f 314 315 331 330
f 315 316 332 331
f 316 317 333 332
f 317 318 334 333
f 318 319 335 334
f 319 320 336 335
f 320 305 321 336
f 321 322 338 337
f 322 323 339 338
f 323 324 340 339
f 324 325 341 340
f 325 326 342 341
f 326 327 343 342
f 327 328 344 343
f 328 329 345 344
f 329 330 346 345
f 330 331 347 346
f 331 332 348 347
f 332 333 349 348
f 333 334 350 349
f 334 335 351 350
f 335 336 352 351
f 336 321 337 352
f 337 338 354 353
f 338 339 355 354
f 339 340 356 355
f 340 341 357 356
f 341 342 358 357
f 342 343 359 358
f 343 344 360 359
f 344 345 361 360
f 345 346 362 361
f 346 347 363 362
f 347 348 364 363
f 348 349 365 364
f 349 350 366 365
f 350 351 367 366
f 351 352 368 367
f 352 337 353 368
f 353 354 370 369
f 354 355 371 370
f 355 356 372 371
f 356 357 373 372
f 357 358 374 373
f 358 359 375 374
f 359 360 376 375
f 360 361 377 376
f 361 362 378 377
f 362 363 379 378
f 363 364 380 379
f 364 365 381 380
f 365 366 382 381
f 366 367 383 382
f 367 368 384 383
f 368 353 369 384
