# elbow demo mesh
v 0.105000 1.199946 -0.000054
v 0.099861 1.199947 0.032391
v 0.084947 1.199948 0.061660
v 0.061717 1.199949 0.084888
v 0.032447 1.199950 0.099802
v 0.000000 1.199950 0.104941
v -0.032447 1.199950 0.099802
v -0.061717 1.199949 0.084888
v -0.084947 1.199948 0.061660
v -0.099861 1.199947 0.032391
v -0.105000 1.199946 -0.000054
v -0.099861 1.199944 -0.032500
v -0.084947 1.199943 -0.061769
v -0.061717 1.199942 -0.084997
v -0.032447 1.199941 -0.099911
v -0.000000 1.199941 -0.105050
v 0.032447 1.199941 -0.099911
v 0.061717 1.199942 -0.084997
v 0.084947 1.199943 -0.061769
v 0.099861 1.199944 -0.032500
v 0.093103 1.141383 0.055650
v 0.071322 1.141385 0.081690
v 0.042559 1.141386 0.099726
v 0.009631 1.141387 0.107992
v -0.024240 1.141387 0.105678
v -0.055739 1.141386 0.093011
v -0.081781 1.141384 0.071232
v -0.099818 1.141382 0.042472
v -0.108084 1.141380 0.009546
v -0.105770 1.141377 -0.024323
v -0.093103 1.141375 -0.055819
v -0.071322 1.141373 -0.081859
v -0.042559 1.141372 -0.099895
v -0.009631 1.141371 -0.108160
v 0.024240 1.141371 -0.105847
v 0.055739 1.141372 -0.093180
v 0.081781 1.141374 -0.071401
v 0.099818 1.141376 -0.042641
v 0.108084 1.141378 -0.009715
v 0.105770 1.141381 0.024154
v 0.054572 1.082808 0.097691
v 0.021669 1.082810 0.109765
v -0.013355 1.082810 0.111082
v -0.047072 1.082809 0.101512
v -0.076181 1.082806 0.081993
v -0.097833 1.082803 0.054435
v -0.109909 1.082799 0.021536
v -0.111225 1.082795 -0.013484
v -0.101655 1.082791 -0.047197
v -0.082133 1.082787 -0.076303
v -0.054572 1.082785 -0.097952
v -0.021669 1.082783 -0.110026
v 0.013355 1.082783 -0.111342
v 0.047072 1.082784 -0.101773
v 0.076181 1.082787 -0.082254
v 0.097833 1.082790 -0.054696
v 0.109909 1.082794 -0.021797
v 0.111225 1.082798 0.013223
v 0.101655 1.082802 0.046936
v 0.082133 1.082806 0.076042
v 0.000250 1.024212 0.115313
v -0.035465 1.024211 0.109736
v -0.067708 1.024208 0.093399
v -0.093324 1.024203 0.067899
v -0.109804 1.024196 0.035733
v -0.115536 1.024189 0.000049
v -0.109959 1.024182 -0.035659
v -0.093618 1.024176 -0.067896
v -0.068113 1.024171 -0.093506
v -0.035941 1.024168 -0.109984
v -0.000250 1.024167 -0.115715
v 0.035465 1.024168 -0.110138
v 0.067708 1.024171 -0.093800
v 0.093324 1.024176 -0.068300
v 0.109804 1.024182 -0.036134
v 0.115536 1.024189 -0.000451
v 0.109959 1.024196 0.035257
v 0.093618 1.024203 0.067494
v 0.068113 1.024208 0.093105
v 0.035941 1.024211 0.109582
v -0.055979 0.965579 0.104725
v -0.085706 0.965572 0.082291
v -0.107044 0.965562 0.051772
v -0.117904 0.965550 0.016155
v -0.117223 0.965539 -0.021074
v -0.105067 0.965527 -0.056269
v -0.082626 0.965518 -0.085987
v -0.052097 0.965511 -0.107319
v -0.016469 0.965508 -0.118175
v 0.020772 0.965508 -0.117494
v 0.055979 0.965512 -0.105341
v 0.085706 0.965519 -0.082908
v 0.107044 0.965529 -0.052389
v 0.117904 0.965540 -0.016772
v 0.117223 0.965552 0.020457
v 0.105067 0.965563 0.055652
v 0.082626 0.965573 0.085371
v 0.052097 0.965579 0.106702
v 0.016469 0.965583 0.117558
v -0.020772 0.965583 0.116877
v -0.101548 0.906882 0.070190
v -0.118425 0.906864 0.035368
v -0.123710 0.906844 -0.002963
v -0.116885 0.906824 -0.041049
v -0.098618 0.906806 -0.075164
v -0.070699 0.906792 -0.101967
v -0.035858 0.906784 -0.118835
v 0.002492 0.906781 -0.124117
v 0.040598 0.906784 -0.117296
v 0.074731 0.906794 -0.099039
v 0.101548 0.906808 -0.071134
v 0.118425 0.906827 -0.036312
v 0.123710 0.906846 0.002019
v 0.116885 0.906866 0.040105
v 0.098618 0.906884 0.074220
v 0.070699 0.906898 0.101023
v 0.035858 0.906907 0.117891
v -0.002492 0.906910 0.123173
v -0.040598 0.906906 0.116352
v -0.074731 0.906896 0.098095
v -0.127334 0.848078 0.019018
v -0.127206 0.848044 -0.021263
v -0.114626 0.848012 -0.059533
v -0.090825 0.847984 -0.092046
v -0.058135 0.847964 -0.115619
v -0.019753 0.847954 -0.127945
v 0.020562 0.847954 -0.127817
v 0.058864 0.847965 -0.115247
v 0.091405 0.847985 -0.091467
v 0.114998 0.848012 -0.058804
v 0.127334 0.848045 -0.020455
v 0.127206 0.848079 0.019826
v 0.114626 0.848112 0.058096
v 0.090825 0.848139 0.090608
v 0.058135 0.848159 0.114181
v 0.019753 0.848170 0.126507
v -0.020562 0.848169 0.126379
v -0.058864 0.848159 0.113810
v -0.091405 0.848139 0.090030
v -0.114998 0.848111 0.057367
v -0.128649 0.789103 -0.038451
v -0.110791 0.789051 -0.076322
v -0.082088 0.789009 -0.106829
v -0.045350 0.788981 -0.126986
v -0.004173 0.788970 -0.134818
v 0.037413 0.788977 -0.129561
v 0.075337 0.789002 -0.111728
v 0.105886 0.789041 -0.083065
v 0.126070 0.789092 -0.046377
v 0.133914 0.789149 -0.005256
v 0.128649 0.789206 0.036272
v 0.110791 0.789258 0.074143
v 0.082088 0.789301 0.104650
v 0.045350 0.789328 0.124807
v 0.004173 0.789339 0.132640
v -0.037413 0.789332 0.127382
v -0.075337 0.789307 0.109549
v -0.105886 0.789268 0.080886
v -0.126070 0.789217 0.044198
v -0.133914 0.789160 0.003078
v -0.106046 0.729864 -0.091457
v -0.073039 0.729800 -0.119758
v -0.032882 0.729763 -0.136497
v 0.010494 0.729755 -0.140035
v 0.052842 0.729777 -0.130026
v 0.090018 0.729828 -0.107450
v 0.118382 0.729902 -0.074516
v 0.135158 0.729992 -0.034449
v 0.138704 0.730089 0.008829
v 0.128673 0.730184 0.051082
v 0.106046 0.730268 0.088175
v 0.073039 0.730331 0.116475
v 0.032882 0.730369 0.133214
v -0.010494 0.730377 0.136752
v -0.052842 0.730355 0.126743
v -0.090018 0.730304 0.104167
v -0.118382 0.730230 0.071233
v -0.135158 0.730140 0.031167
v -0.138704 0.730042 -0.012112
v -0.128673 0.729947 -0.054365
v -0.064168 0.670243 -0.131146
v -0.021114 0.670194 -0.144604
v 0.024006 0.670196 -0.144148
v 0.066777 0.670248 -0.129822
v 0.103011 0.670346 -0.103028
v 0.129161 0.670480 -0.066390
v 0.142669 0.670638 -0.023494
v 0.142211 0.670802 0.021462
v 0.127832 0.670958 0.064077
v 0.100940 0.671090 0.100179
v 0.064168 0.671186 0.126234
v 0.021114 0.671235 0.139692
v -0.024006 0.671233 0.139236
v -0.066777 0.671181 0.124910
v -0.103011 0.671083 0.098116
v -0.129161 0.670949 0.061478
v -0.142669 0.670792 0.018581
v -0.142211 0.670627 -0.026375
v -0.127832 0.670471 -0.068989
v -0.100940 0.670339 -0.105091
v -0.010316 0.610107 -0.151749
v 0.036228 0.610131 -0.147669
v 0.079227 0.610239 -0.129491
v 0.114470 0.610421 -0.098994
v 0.138508 0.610659 -0.059164
v 0.148988 0.610929 -0.013899
v 0.144884 0.611205 0.032369
v 0.126597 0.611460 0.075113
v 0.095919 0.611669 0.110147
v 0.055851 0.611811 0.134042
v 0.010316 0.611873 0.144460
v -0.036228 0.611849 0.140381
v -0.079227 0.611741 0.122203
v -0.114470 0.611559 0.091706
v -0.138508 0.611321 0.051876
v -0.148988 0.611051 0.006611
v -0.144884 0.610775 -0.039658
v -0.126597 0.610520 -0.082401
v -0.095919 0.610311 -0.117435
v -0.055851 0.610169 -0.141331
v 0.047096 0.549332 -0.151047
v 0.090251 0.549541 -0.129502
v 0.124572 0.549869 -0.095805
v 0.146698 0.550282 -0.053254
v 0.154465 0.550741 -0.006013
v 0.147112 0.551200 0.041293
v 0.125358 0.551616 0.084032
v 0.091334 0.551946 0.118023
v 0.048369 0.552159 0.139937
v 0.000669 0.552233 0.147629
v -0.047096 0.552163 0.140346
v -0.090251 0.551953 0.118802
v -0.124572 0.551626 0.085105
v -0.146698 0.551213 0.042553
v -0.154465 0.550754 -0.004687
v -0.147112 0.550294 -0.051993
v -0.125358 0.549879 -0.094733
v -0.091334 0.549549 -0.128723
v -0.048369 0.549336 -0.150637
v -0.000669 0.549261 -0.158329
v 0.099404 0.487897 -0.128711
v 0.132509 0.488469 -0.092551
v 0.152644 0.489173 -0.048091
v 0.157836 0.489939 0.000318
v 0.147578 0.490692 0.047938
v 0.122875 0.491359 0.090106
v 0.086143 0.491875 0.122696
v 0.040979 0.492189 0.142516
v -0.008196 0.492270 0.147628
v -0.056569 0.492110 0.137530
v -0.099404 0.491725 0.113211
v -0.132509 0.491153 0.077052
v -0.152644 0.490449 0.032591
v -0.157836 0.489683 -0.015818
v -0.147578 0.488930 -0.063437
v -0.122875 0.488263 -0.105606
v -0.086143 0.487747 -0.138195
v -0.040979 0.487434 -0.158016
v 0.008196 0.487353 -0.163128
v 0.056569 0.487512 -0.153030
v 0.139462 0.425951 -0.090331
v 0.157773 0.427134 -0.044437
v 0.160641 0.428401 0.004728
v 0.147784 0.429628 0.052351
v 0.120460 0.430696 0.093769
v 0.081346 0.431499 0.124929
v 0.034268 0.431959 0.142780
v -0.016164 0.432031 0.145576
v -0.065013 0.431708 0.133041
v -0.107499 0.431021 0.106405
v -0.139462 0.430039 0.068272
v -0.157773 0.428856 0.022378
v -0.160641 0.427589 -0.026787
v -0.147784 0.426362 -0.074410
v -0.120460 0.425294 -0.115828
v -0.081346 0.424491 -0.146988
v -0.034268 0.424031 -0.164839
v 0.016164 0.423959 -0.167635
v 0.065013 0.424282 -0.155100
v 0.107499 0.424969 -0.128464
v 0.162396 0.364018 -0.042555
v 0.163215 0.366096 0.006939
v 0.148057 0.368081 0.054254
v 0.118406 0.369782 0.094758
v 0.077165 0.371029 0.124485
v 0.028371 0.371703 0.140527
v -0.023201 0.371736 0.141313
v -0.072501 0.371125 0.126766
v -0.114705 0.369931 0.098310
v -0.145680 0.368269 0.058730
v -0.162396 0.366304 0.011901
v -0.163215 0.364226 -0.037593
v -0.148057 0.362240 -0.084908
v -0.118406 0.360540 -0.125411
v -0.077165 0.359293 -0.155139
v -0.028371 0.358619 -0.171181
v 0.023201 0.358586 -0.171967
v 0.072501 0.359197 -0.157420
v 0.114705 0.360391 -0.128964
v 0.145680 0.362053 -0.089384
v 0.165691 0.303224 0.006810
v 0.148531 0.306409 0.053393
v 0.116833 0.309098 0.092734
v 0.073698 0.311029 0.120980
v 0.023349 0.312013 0.135367
v -0.029285 0.311952 0.134487
v -0.079053 0.310854 0.118426
v -0.121083 0.308826 0.088756
v -0.151260 0.306066 0.048381
v -0.166631 0.302844 0.001254
v -0.165691 0.299476 -0.048012
v -0.148531 0.296292 -0.094596
v -0.116833 0.293602 -0.133936
v -0.073698 0.291671 -0.162182
v -0.023349 0.290688 -0.176569
v 0.029285 0.290748 -0.175689
v 0.079053 0.291846 -0.159628
v 0.121083 0.293874 -0.129958
v 0.151260 0.296634 -0.089584
v 0.166631 0.299856 -0.042456
v 0.149317 0.245508 0.049813
v 0.115838 0.249716 0.087602
v 0.071020 0.252681 0.114232
v 0.019251 0.254113 0.127098
v -0.034403 0.253873 0.124938
v -0.084690 0.251983 0.107965
v -0.126686 0.248629 0.077841
v -0.156282 0.244139 0.037514
v -0.170579 0.238952 -0.009069
v -0.168179 0.233576 -0.057348
v -0.149317 0.228538 -0.102596
v -0.115838 0.224331 -0.140385
v -0.071020 0.221366 -0.167015
v -0.019251 0.219933 -0.179880
v 0.034403 0.220174 -0.177721
v 0.084690 0.222063 -0.160748
v 0.126686 0.225418 -0.130624
v 0.156282 0.229908 -0.090296
v 0.170579 0.235095 -0.043713
v 0.168179 0.240470 0.004565
v 0.115499 0.193623 0.079912
v 0.069193 0.198113 0.104673
v 0.016113 0.200187 0.116110
v -0.038544 0.199642 0.113103
v -0.089429 0.196530 0.095946
v -0.131559 0.191157 0.066318
v -0.160811 0.184049 0.027119
v -0.174322 0.175900 -0.017812
v -0.170769 0.167510 -0.064079
v -0.150500 0.159698 -0.107151
v -0.115499 0.153231 -0.142814
v -0.069193 0.148740 -0.167576
v -0.016113 0.146666 -0.179013
v 0.038544 0.147212 -0.176005
v 0.089429 0.150323 -0.158848
v 0.131559 0.155696 -0.129220
v 0.160811 0.162805 -0.090022
v 0.174322 0.170953 -0.045090
v 0.170769 0.179344 0.001176
v 0.150500 0.187155 0.044249
v 0.068263 0.150573 0.093928
v 0.013966 0.153542 0.103982
v -0.041698 0.152541 0.100591
v -0.093281 0.147666 0.084087
v -0.135732 0.139395 0.056086
v -0.164897 0.128538 0.019328
v -0.177921 0.116157 -0.022588
v -0.173529 0.103464 -0.065559
v -0.152150 0.091702 -0.105380
v -0.115878 0.082022 -0.138151
v -0.068263 0.075372 -0.160666
v -0.013966 0.072402 -0.170720
v 0.041698 0.073404 -0.167330
v 0.093281 0.078279 -0.150826
v 0.135732 0.086550 -0.122824
v 0.164897 0.097407 -0.086067
v 0.177921 0.109788 -0.044150
v 0.173529 0.122480 -0.001179
v 0.152150 0.134242 0.038642
v 0.115878 0.143922 0.071413
v 0.012804 0.118186 0.093914
v -0.043859 0.116588 0.090593
v -0.096229 0.109381 0.075613
v -0.139179 0.097270 0.050439
v -0.168505 0.081441 0.017535
v -0.181337 0.063443 -0.019876
v -0.176418 0.045038 -0.058134
v -0.154231 0.028027 -0.093493
v -0.116946 0.014076 -0.122492
v -0.068213 0.004550 -0.142292
v -0.012804 0.000382 -0.150956
v 0.043859 0.001980 -0.147635
v 0.096229 0.009187 -0.132654
v 0.139179 0.021298 -0.107480
v 0.168505 0.037127 -0.074577
v 0.181337 0.055125 -0.037166
v 0.176418 0.073530 0.001092
v 0.154231 0.090541 0.036451
v 0.116946 0.104492 0.065450
v 0.068213 0.114018 0.085251
v -0.045036 0.095258 0.087770
v -0.098293 0.085285 0.075042
v -0.141929 0.068570 0.053709
v -0.171671 0.046749 0.025861
v -0.184609 0.021958 -0.005777
v -0.179476 -0.003376 -0.038109
v -0.156775 -0.026773 -0.067969
v -0.118728 -0.045943 -0.092434
v -0.069059 -0.059009 -0.109110
v -0.012629 -0.064693 -0.116364
v 0.045036 -0.062438 -0.113486
v 0.098293 -0.052465 -0.100758
v 0.141929 -0.035750 -0.079426
v 0.171671 -0.013929 -0.051578
v 0.184609 0.010862 -0.019939
v 0.179476 0.036196 0.012392
v 0.156775 0.059593 0.042252
v 0.118728 0.078763 0.066718
v 0.069059 0.091829 0.083393
v 0.012629 0.097513 0.090647
v -0.099497 0.076770 0.086639
v -0.144026 0.055144 0.069695
v -0.174457 0.026862 0.047534
v -0.187810 -0.005308 0.022326
v -0.182780 -0.038217 -0.003460
v -0.159858 -0.068644 -0.027302
v -0.121287 -0.093610 -0.046864
v -0.070845 -0.110672 -0.060233
v -0.013467 -0.118159 -0.066100
v 0.045229 -0.115338 -0.063890
v 0.099497 -0.102486 -0.053819
v 0.144026 -0.080861 -0.036875
v 0.174457 -0.052579 -0.014714
v 0.187810 -0.020409 0.010494
v 0.182780 0.012500 0.036280
v 0.159858 0.042927 0.060122
v 0.121287 0.067894 0.079684
v 0.070845 0.084955 0.093053
v 0.013467 0.092442 0.098920
v -0.045229 0.089622 0.096710
v -0.147553 0.057862 0.100842
v -0.179867 0.022848 0.083997
v -0.194574 -0.017193 0.064733
v -0.190235 -0.058344 0.044936
v -0.167275 -0.096576 0.026544
v -0.127941 -0.128145 0.011356
v -0.076082 -0.149963 0.000860
v -0.016777 -0.159893 -0.003918
v 0.044171 -0.156964 -0.002508
v 0.100795 -0.141461 0.004950
v 0.147553 -0.114904 0.017726
v 0.179867 -0.079890 0.034571
v 0.194574 -0.039848 0.053835
v 0.190235 0.001303 0.073632
v 0.167275 0.039534 0.092024
v 0.127941 0.071104 0.107212
v 0.076082 0.092922 0.117708
v 0.016777 0.102852 0.122486
v -0.044171 0.099922 0.121076
v -0.100795 0.084420 0.113618
v -0.187585 0.033182 0.132630
v -0.205044 -0.014825 0.118450
v -0.202431 -0.064646 0.103734
v -0.180004 -0.111406 0.089922
v -0.139956 -0.150527 0.078367
v -0.086208 -0.178180 0.070199
v -0.024022 -0.191658 0.066218
v 0.040515 -0.189642 0.066813
v 0.101087 -0.172328 0.071927
v 0.151764 -0.141412 0.081059
v 0.187585 -0.099920 0.093315
v 0.205044 -0.051914 0.107495
v 0.202431 -0.002092 0.122211
v 0.180004 0.044668 0.136022
v 0.139956 0.083789 0.147578
v 0.086208 0.111442 0.155746
v 0.024022 0.124920 0.159727
v -0.040515 0.122903 0.159131
v -0.101087 0.105590 0.154017
v -0.151764 0.074674 0.144885
v -0.214755 -0.001784 0.178807
v -0.215074 -0.059412 0.168356
v -0.194340 -0.114302 0.158402
v -0.154583 -0.161083 0.149918
v -0.099695 -0.195174 0.143735
v -0.035047 -0.213239 0.140459
v 0.033031 -0.213509 0.140410
v 0.097876 -0.195958 0.143593
v 0.153140 -0.162304 0.149696
v 0.193414 -0.115841 0.158122
v 0.214755 -0.061118 0.168047
v 0.215074 -0.003491 0.178498
v 0.194340 0.051400 0.188452
v 0.154583 0.098180 0.196936
v 0.099695 0.132271 0.203118
v 0.035047 0.150336 0.206394
v -0.033031 0.150606 0.206443
v -0.097876 0.133056 0.203260
v -0.153140 0.099402 0.197157
v -0.193414 0.052939 0.188731
v -0.227733 -0.045738 0.234869
v -0.209943 -0.108114 0.227924
v -0.171602 -0.162490 0.221869
v -0.116464 -0.203544 0.217298
v -0.049925 -0.227257 0.214658
v 0.021501 -0.231308 0.214207
v 0.090822 -0.215300 0.215989
v 0.151253 -0.180801 0.219831
v 0.196878 -0.131186 0.225355
v 0.223231 -0.071314 0.232021
v 0.227733 -0.007045 0.239177
v 0.209943 0.055331 0.246123
v 0.171602 0.109707 0.252177
v 0.116464 0.150761 0.256748
v 0.049925 0.174474 0.259389
v -0.021501 0.178525 0.259840
v -0.090822 0.162517 0.258057
v -0.151253 0.128018 0.254216
v -0.196878 0.078404 0.248692
v -0.223231 0.018532 0.242025
v -0.226311 -0.095091 0.296258
v -0.190642 -0.156904 0.292032
v -0.136312 -0.205375 0.288718
v -0.068639 -0.235759 0.286641
v 0.005753 -0.245082 0.286004
v 0.079582 -0.232431 0.286869
v 0.145621 -0.199045 0.289151
v 0.197405 -0.148191 0.292628
v 0.229866 -0.084848 0.296958
v 0.239826 -0.015216 0.301718
v 0.226311 0.053888 0.306442
v 0.190642 0.115701 0.310668
v 0.136312 0.164172 0.313982
v 0.068639 0.194556 0.316059
v -0.005753 0.203879 0.316696
v -0.079582 0.191228 0.315831
v -0.145621 0.157842 0.313549
v -0.197405 0.106989 0.310072
v -0.229866 0.043646 0.305742
v -0.239826 -0.025986 0.300982
v -0.211177 -0.145608 0.359693
v -0.158892 -0.201860 0.357332
v -0.091054 -0.239853 0.355737
v -0.014303 -0.255868 0.355065
v 0.063848 -0.248337 0.355381
v 0.135750 -0.217997 0.356654
v 0.194363 -0.167819 0.358760
v 0.233951 -0.102713 0.361493
v 0.250638 -0.029054 0.364585
v 0.242790 0.045949 0.367733
v 0.211177 0.114954 0.370629
v 0.158892 0.171207 0.372990
v 0.091054 0.209200 0.374585
v 0.014303 0.225214 0.375257
v -0.063848 0.217683 0.374941
v -0.135750 0.187344 0.373668
v -0.194363 0.137165 0.371561
v -0.233951 0.072060 0.368829
v -0.250638 -0.001600 0.365737
v -0.242790 -0.076603 0.362589
v -0.183692 -0.193422 0.423295
v -0.116887 -0.239833 0.422099
v -0.038640 -0.263847 0.421480
v 0.043390 -0.263113 0.421499
v 0.121172 -0.237704 0.422153
v 0.187092 -0.190106 0.423380
v 0.234699 -0.124980 0.425058
v 0.259332 -0.048698 0.427024
v 0.258580 0.031270 0.429085
v 0.232516 0.107098 0.431039
v 0.183692 0.171363 0.432695
v 0.116887 0.217774 0.433891
v 0.038640 0.241788 0.434510
v -0.043390 0.241054 0.434491
v -0.121172 0.215645 0.433836
v -0.187092 0.168047 0.432610
v -0.234699 0.102921 0.430931
v -0.259332 0.026639 0.428966
v -0.258580 -0.053329 0.426905
v -0.232516 -0.129157 0.424951
v -0.142392 -0.232122 0.486261
v -0.064991 -0.264457 0.485749
v 0.018772 -0.271663 0.485635
v 0.100697 -0.253036 0.485930
v 0.172765 -0.210399 0.486605
v 0.227922 -0.147924 0.487593
v 0.260769 -0.071729 0.488799
v 0.268089 0.010729 0.490103
v 0.249167 0.091379 0.491380
v 0.205855 0.162325 0.492502
v 0.142392 0.216622 0.493361
v 0.064991 0.248957 0.493873
v -0.018772 0.256164 0.493987
v -0.100697 0.237536 0.493692
v -0.172765 0.194899 0.493017
v -0.227922 0.132425 0.492029
v -0.260769 0.056229 0.490823
v -0.268089 -0.026229 0.489519
v -0.249167 -0.106878 0.488243
v -0.205855 -0.177824 0.487120
v -0.087519 -0.252617 0.548345
v -0.006084 -0.267300 0.548203
v 0.075947 -0.256341 0.548309
v 0.150544 -0.220814 0.548654
v 0.210405 -0.164195 0.549204
v 0.249669 -0.092027 0.549905
v 0.264495 -0.011375 0.550689
v 0.253429 0.069867 0.551478
v 0.217556 0.143746 0.552196
v 0.160388 0.203030 0.552772
v 0.087519 0.241917 0.553149
v 0.006084 0.256600 0.553292
v -0.075947 0.245641 0.553186
v -0.150544 0.210113 0.552840
v -0.210405 0.153495 0.552290
v -0.249669 0.081327 0.551589
v -0.264495 0.000675 0.550806
v -0.253429 -0.080567 0.550017
v -0.217556 -0.154446 0.549299
v -0.160388 -0.213731 0.548723
v -0.029192 -0.260852 0.609456
v 0.052193 -0.257230 0.609477
v 0.128468 -0.228786 0.609647
v 0.192168 -0.178304 0.609948
v 0.237057 -0.110724 0.610351
v 0.258742 -0.032663 0.610817
v 0.255099 0.048239 0.611299
v 0.226485 0.124062 0.611752
v 0.175701 0.187384 0.612129
v 0.107719 0.232008 0.612395
v 0.029192 0.253563 0.612524
v -0.052193 0.249942 0.612502
v -0.128468 0.221498 0.612333
v -0.192168 0.171015 0.612032
v -0.237057 0.103436 0.611629
v -0.258742 0.025375 0.611163
v -0.255099 -0.055527 0.610681
v -0.226485 -0.131350 0.610228
v -0.175701 -0.194673 0.609851
v -0.107719 -0.239296 0.609584
v 0.029686 -0.256004 0.669786
v 0.106871 -0.234454 0.669865
v 0.173594 -0.190195 0.670027
v 0.223325 -0.127559 0.670256
v 0.251195 -0.052677 0.670531
v 0.254476 0.027122 0.670823
v 0.232848 0.104025 0.671105
v 0.188427 0.170505 0.671348
v 0.125561 0.220054 0.671529
v 0.050404 0.247822 0.671631
v -0.029686 0.251092 0.671643
v -0.106871 0.229542 0.671564
v -0.173594 0.185283 0.671402
v -0.223325 0.122647 0.671173
v -0.251195 0.047764 0.670899
v -0.254476 -0.032034 0.670606
v -0.232848 -0.108937 0.670325
v -0.188427 -0.175417 0.670081
v -0.125561 -0.224966 0.669900
v -0.050404 -0.252735 0.669798
v 0.086038 -0.237990 0.729534
v 0.155027 -0.199894 0.729620
v 0.208841 -0.142392 0.729749
v 0.242212 -0.071113 0.729910
v 0.251873 0.006967 0.730085
v 0.236880 0.084204 0.730259
v 0.198698 0.153038 0.730414
v 0.141067 0.206731 0.730534
v 0.069628 0.240027 0.730609
v -0.008628 0.249667 0.730631
v -0.086038 0.234707 0.730597
v -0.155027 0.196611 0.730512
v -0.208841 0.139110 0.730382
v -0.242212 0.067830 0.730222
v -0.251873 -0.010250 0.730047
v -0.236880 -0.087487 0.729873
v -0.198698 -0.156321 0.729718
v -0.141067 -0.210014 0.729597
v -0.069628 -0.243310 0.729523
v 0.008628 -0.252950 0.729501
v 0.136772 -0.207488 0.788870
v 0.193946 -0.155180 0.788942
v 0.232136 -0.087788 0.789035
v 0.247603 -0.011909 0.789140
v 0.238832 0.065028 0.789246
v 0.206683 0.135494 0.789343
v 0.154303 0.192590 0.789422
v 0.086818 0.230727 0.789475
v 0.010835 0.246172 0.789496
v -0.066209 0.237414 0.789484
v -0.136772 0.205309 0.789439
v -0.193946 0.153001 0.789367
v -0.232136 0.085609 0.789274
v -0.247603 0.009731 0.789169
v -0.238832 -0.067207 0.789063
v -0.206683 -0.137672 0.788966
v -0.154303 -0.194768 0.788887
v -0.086818 -0.232905 0.788835
v -0.010835 -0.248351 0.788813
v 0.066209 -0.239593 0.788825
v 0.178950 -0.165946 0.847922
v 0.221293 -0.102607 0.847975
v 0.241974 -0.029295 0.848038
v 0.238969 0.046814 0.848102
v 0.212572 0.118271 0.848163
v 0.165367 0.178080 0.848213
v 0.101975 0.220387 0.848249
v 0.028600 0.241050 0.848267
v -0.047573 0.238048 0.848264
v -0.119091 0.211673 0.848242
v -0.178950 0.164508 0.848202
v -0.221293 0.101170 0.848148
v -0.241974 0.027857 0.848086
v -0.238969 -0.048252 0.848021
v -0.212572 -0.119709 0.847961
v -0.165367 -0.179518 0.847910
v -0.101975 -0.221824 0.847874
v -0.028600 -0.242488 0.847857
v 0.047573 -0.239486 0.847859
v 0.119091 -0.213111 0.847882
v 0.210011 -0.115570 0.906785
v 0.235318 -0.045073 0.906822
v 0.237591 0.029789 0.906861
v 0.216606 0.101689 0.906898
v 0.174419 0.163589 0.906931
v 0.115158 0.209430 0.906954
v 0.044625 0.234724 0.906968
v -0.030277 0.236995 0.906969
v -0.102214 0.216022 0.906958
v -0.164147 0.173856 0.906936
v -0.210011 0.114626 0.906905
v -0.235318 0.044130 0.906868
v -0.237591 -0.030733 0.906829
v -0.216606 -0.102633 0.906792
v -0.174419 -0.164533 0.906760
v -0.115158 -0.210374 0.906736
v -0.044625 -0.235668 0.906723
v 0.030277 -0.237939 0.906722
v 0.102214 -0.216966 0.906733
v 0.164147 -0.174800 0.906754
v 0.228102 -0.059293 0.965526
v 0.235171 0.014059 0.965550
v 0.219220 0.086004 0.965573
v 0.181810 0.149501 0.965593
v 0.126603 0.198333 0.965609
v 0.059003 0.227721 0.965618
v -0.014372 0.234787 0.965620
v -0.086340 0.218841 0.965615
v -0.149857 0.181443 0.965603
v -0.198705 0.126254 0.965586
v -0.228102 0.058676 0.965564
v -0.235171 -0.014676 0.965541
v -0.219220 -0.086621 0.965518
v -0.181810 -0.150118 0.965497
v -0.126603 -0.198950 0.965482
v -0.059003 -0.228338 0.965472
v 0.014372 -0.235404 0.965470
v 0.086340 -0.219458 0.965475
v 0.149857 -0.182060 0.965487
v 0.198705 -0.126871 0.965505
v 0.231707 -0.000315 1.024189
v 0.220402 0.071278 1.024203
v 0.187522 0.135874 1.024216
v 0.136286 0.187151 1.024226
v 0.071710 0.220087 1.024233
v 0.000114 0.231461 1.024235
v -0.071493 0.220158 1.024233
v -0.136102 0.187284 1.024226
v -0.187388 0.136059 1.024216
v -0.220332 0.071495 1.024203
v -0.231707 -0.000087 1.024189
v -0.220402 -0.071680 1.024175
v -0.187522 -0.136276 1.024163
v -0.136286 -0.187552 1.024153
v -0.071710 -0.220489 1.024146
v -0.000114 -0.231863 1.024144
v 0.071493 -0.220560 1.024146
v 0.136102 -0.187686 1.024153
v 0.187388 -0.136460 1.024163
v 0.220332 -0.071897 1.024175
v 0.220354 0.057649 1.082803
v 0.191712 0.122906 1.082811
v 0.144304 0.176119 1.082818
v 0.082771 0.212080 1.082822
v 0.013135 0.227268 1.082824
v -0.057786 0.220197 1.082823
v -0.123051 0.191558 1.082820
v -0.176271 0.144156 1.082814
v -0.212236 0.082630 1.082806
v -0.227426 0.013003 1.082798
v -0.220354 -0.057910 1.082789
v -0.191712 -0.123167 1.082782
v -0.144304 -0.176380 1.082775
v -0.082771 -0.212341 1.082771
v -0.013135 -0.227529 1.082769
v 0.057786 -0.220458 1.082770
v 0.123051 -0.191819 1.082773
v 0.176271 -0.144417 1.082779
v 0.212236 -0.082891 1.082786
v 0.227426 -0.013264 1.082795
v 0.194539 0.110753 1.141387
v 0.150765 0.165440 1.141391
v 0.092232 0.203924 1.141394
v 0.024671 0.222438 1.141395
v -0.045304 0.219170 1.141395
v -0.110846 0.194441 1.141393
v -0.165536 0.150669 1.141390
v -0.204023 0.092141 1.141386
v -0.222539 0.024585 1.141381
v -0.219271 -0.045386 1.141376
v -0.194539 -0.110922 1.141371
v -0.150765 -0.165609 1.141367
v -0.092232 -0.204093 1.141364
v -0.024671 -0.222607 1.141363
v 0.045304 -0.219339 1.141363
v 0.110846 -0.194609 1.141365
v 0.165536 -0.150838 1.141368
v 0.204023 -0.092310 1.141372
v 0.222539 -0.024754 1.141377
v 0.219271 0.045217 1.141382
v 0.155784 0.155281 1.199953
v 0.100155 0.195816 1.199954
v 0.034723 0.217178 1.199955
v -0.034108 0.217276 1.199955
v -0.099600 0.196099 1.199954
v -0.155343 0.155722 1.199953
v -0.195880 0.100096 1.199950
v -0.217242 0.034667 1.199947
v -0.217340 -0.034161 1.199944
v -0.196163 -0.099650 1.199941
v -0.155784 -0.155390 1.199938
v -0.100155 -0.195925 1.199937
v -0.034723 -0.217287 1.199936
v 0.034108 -0.217385 1.199936
v 0.099600 -0.196208 1.199937
v 0.155343 -0.155831 1.199938
v 0.195880 -0.100205 1.199941
v 0.217242 -0.034776 1.199944
v 0.217340 0.034052 1.199947
v 0.196163 0.099541 1.199950
f 1 2 22 21
f 2 3 23 22
f 3 4 24 23
f 4 5 25 24
f 5 6 26 25
f 6 7 27 26
f 7 8 28 27
f 8 9 29 28
f 9 10 30 29
f 10 11 31 30
f 11 12 32 31
f 12 13 33 32
f 13 14 34 33
f 14 15 35 34
f 15 16 36 35
f 16 17 37 36
f 17 18 38 37
f 18 19 39 38
f 19 20 40 39
f 20 1 21 40
f 21 22 42 41
f 22 23 43 42
f 23 24 44 43
f 24 25 45 44
f 25 26 46 45
f 26 27 47 46
f 27 28 48 47
f 28 29 49 48
f 29 30 50 49
f 30 31 51 50
f 31 32 52 51
f 32 33 53 52
f 33 34 54 53
f 34 35 55 54
f 35 36 56 55
f 36 37 57 56
f 37 38 58 57
f 38 39 59 58
f 39 40 60 59
f 40 21 41 60
f 41 42 62 61
f 42 43 63 62
f 43 44 64 63
f 44 45 65 64
f 45 46 66 65
f 46 47 67 66
f 47 48 68 67
f 48 49 69 68
f 49 50 70 69
f 50 51 71 70
f 51 52 72 71
f 52 53 73 72
f 53 54 74 73
f 54 55 75 74
f 55 56 76 75
f 56 57 77 76
f 57 58 78 77
f 58 59 79 78
f 59 60 80 79
f 60 41 61 80
f 61 62 82 81
f 62 63 83 82
f 63 64 84 83
f 64 65 85 84
f 65 66 86 85
f 66 67 87 86
f 67 68 88 87
f 68 69 89 88
f 69 70 90 89
f 70 71 91 90
f 71 72 92 91
f 72 73 93 92
f 73 74 94 93
f 74 75 95 94
f 75 76 96 95
f 76 77 97 96
f 77 78 98 97
f 78 79 99 98
f 79 80 100 99
f 80 61 81 100
f 81 82 102 101
f 82 83 103 102
f 83 84 104 103
f 84 85 105 104
f 85 86 106 105
f 86 87 107 106
f 87 88 108 107
f 88 89 109 108
f 89 90 110 109
f 90 91 111 110
f 91 92 112 111
f 92 93 113 112
f 93 94 114 113
f 94 95 115 114
f 95 96 116 115
f 96 97 117 116
f 97 98 118 117
f 98 99 119 118
f 99 100 120 119
f 100 81 101 120
f 101 102 122 121
f 102 103 123 122
f 103 104 124 123
f 104 105 125 124
f 105 106 126 125
f 106 107 127 126
f 107 108 128 127
f 108 109 129 128
f 109 110 130 129
f 110 111 131 130
f 111 112 132 131
f 112 113 133 132
f 113 114 134 133
f 114 115 135 134
f 115 116 136 135
f 116 117 137 136
f 117 118 138 137
f 118 119 139 138
f 119 120 140 139
f 120 101 121 140
f 121 122 142 141
f 122 123 143 142
f 123 124 144 143
f 124 125 145 144
f 125 126 146 145
f 126 127 147 146
f 127 128 148 147
f 128 129 149 148
f 129 130 150 149
f 130 131 151 150
f 131 132 152 151
f 132 133 153 152
f 133 134 154 153
f 134 135 155 154
f 135 136 156 155
f 136 137 157 156
f 137 138 158 157
f 138 139 159 158
f 139 140 160 159
f 140 121 141 160
f 141 142 162 161
f 142 143 163 162
f 143 144 164 163
f 144 145 165 164
f 145 146 166 165
f 146 147 167 166
f 147 148 168 167
f 148 149 169 168
f 149 150 170 169
f 150 151 171 170
f 151 152 172 171
f 152 153 173 172
f 153 154 174 173
f 154 155 175 174
f 155 156 176 175
f 156 157 177 176
f 157 158 178 177
f 158 159 179 178
f 159 160 180 179
f 160 141 161 180
f 161 162 182 181
f 162 163 183 182
f 163 164 184 183
f 164 165 185 184
f 165 166 186 185
f 166 167 187 186
f 167 168 188 187
f 168 169 189 188
f 169 170 190 189
f 170 171 191 190
f 171 172 192 191
f 172 173 193 192
f 173 174 194 193
f 174 175 195 194
f 175 176 196 195
f 176 177 197 196
f 177 178 198 197
f 178 179 199 198
f 179 180 200 199
f 180 161 181 200
f 181 182 202 201
f 182 183 203 202
f 183 184 204 203
f 184 185 205 204
f 185 186 206 205
f 186 187 207 206
f 187 188 208 207
f 188 189 209 208
f 189 190 210 209
f 190 191 211 210
f 191 192 212 211
f 192 193 213 212
f 193 194 214 213
f 194 195 215 214
f 195 196 216 215
f 196 197 217 216
f 197 198 218 217
f 198 199 219 218
f 199 200 220 219
f 200 181 201 220
f 201 202 222 221
f 202 203 223 222
f 203 204 224 223
f 204 205 225 224
f 205 206 226 225
f 206 207 227 226
f 207 208 228 227
f 208 209 229 228
f 209 210 230 229
f 210 211 231 230
f 211 212 232 231
f 212 213 233 232
f 213 214 234 233
f 214 215 235 234
f 215 216 236 235
f 216 217 237 236
f 217 218 238 237
f 218 219 239 238
f 219 220 240 239
f 220 201 221 240
f 221 222 242 241
f 222 223 243 242
f 223 224 244 243
f 224 225 245 244
f 225 226 246 245
f 226 227 247 246
f 227 228 248 247
f 228 229 249 248
f 229 230 250 249
f 230 231 251 250
f 231 232 252 251
f 232 233 253 252
f 233 234 254 253
f 234 235 255 254
f 235 236 256 255
f 236 237 257 256
f 237 238 258 257
f 238 239 259 258
f 239 240 260 259
f 240 221 241 260
f 241 242 262 261
f 242 243 263 262
f 243 244 264 263
f 244 245 265 264
f 245 246 266 265
f 246 247 267 266
f 247 248 268 267
f 248 249 269 268
f 249 250 270 269
f 250 251 271 270
f 251 252 272 271
f 252 253 273 272
f 253 254 274 273
f 254 255 275 274
f 255 256 276 275
f 256 257 277 276
f 257 258 278 277
f 258 259 279 278
f 259 260 280 279
f 260 241 261 280
f 261 262 282 281
f 262 263 283 282
f 263 264 284 283
f 264 265 285 284
f 265 266 286 285
f 266 267 287 286
f 267 268 288 287
f 268 269 289 288
f 269 270 290 289
f 270 271 291 290
f 271 272 292 291
f 272 273 293 292
f 273 274 294 293
f 274 275 295 294
f 275 276 296 295
f 276 277 297 296
f 277 278 298 297
f 278 279 299 298
f 279 280 300 299
f 280 261 281 300
f 281 282 302 301
f 282 283 303 302
f 283 284 304 303
f 284 285 305 304
f 285 286 306 305
f 286 287 307 306
f 287 288 308 307
f 288 289 309 308
f 289 290 310 309
f 290 291 311 310
f 291 292 312 311
f 292 293 313 312
f 293 294 314 313
f 294 295 315 314
f 295 296 316 315
f 296 297 317 316
f 297 298 318 317
f 298 299 319 318
f 299 300 320 319
f 300 281 301 320
f 301 302 322 321
f 302 303 323 322
f 303 304 324 323
f 304 305 325 324
f 305 306 326 325
f 306 307 327 326
f 307 308 328 327
f 308 309 329 328
f 309 310 330 329
f 310 311 331 330
f 311 312 332 331
f 312 313 333 332
f 313 314 334 333
f 314 315 335 334
f 315 316 336 335
f 316 317 337 336
f 317 318 338 337
f 318 319 339 338
f 319 320 340 339
f 320 301 321 340
f 321 322 342 341
f 322 323 343 342
f 323 324 344 343
f 324 325 345 344
f 325 326 346 345
f 326 327 347 346
f 327 328 348 347
f 328 329 349 348
f 329 330 350 349
f 330 331 351 350
f 331 332 352 351
f 332 333 353 352
f 333 334 354 353
f 334 335 355 354
f 335 336 356 355
f 336 337 357 356
f 337 338 358 357
f 338 339 359 358
f 339 340 360 359
f 340 321 341 360
f 341 342 362 361
f 342 343 363 362
f 343 344 364 363
f 344 345 365 364
f 345 346 366 365
f 346 347 367 366
f 347 348 368 367
f 348 349 369 368
f 349 350 370 369
f 350 351 371 370
f 351 352 372 371
f 352 353 373 372
f 353 354 374 373
f 354 355 375 374
f 355 356 376 375
f 356 357 377 376
f 357 358 378 377
f 358 359 379 378
f 359 360 380 379
f 360 341 361 380
f 361 362 382 381
f 362 363 383 382
f 363 364 384 383
f 364 365 385 384
f 365 366 386 385
f 366 367 387 386
f 367 368 388 387
f 368 369 389 388
f 369 370 390 389
f 370 371 391 390
f 371 372 392 391
f 372 373 393 392
f 373 374 394 393
f 374 375 395 394
f 375 376 396 395
f 376 377 397 396
f 377 378 398 397
f 378 379 399 398
f 379 380 400 399
f 380 361 381 400
f 381 382 402 401
f 382 383 403 402
f 383 384 404 403
f 384 385 405 404
f 385 386 406 405
f 386 387 407 406
f 387 388 408 407
f 388 389 409 408
f 389 390 410 409
f 390 391 411 410
f 391 392 412 411
f 392 393 413 412
f 393 394 414 413
f 394 395 415 414
f 395 396 416 415
f 396 397 417 416
f 397 398 418 417
f 398 399 419 418
f 399 400 420 419
f 400 381 401 420
f 401 402 422 421
f 402 403 423 422
f 403 404 424 423
f 404 405 425 424
f 405 406 426 425
f 406 407 427 426
f 407 408 428 427
f 408 409 429 428
f 409 410 430 429
f 410 411 431 430
f 411 412 432 431
f 412 413 433 432
f 413 414 434 433
f 414 415 435 434
f 415 416 436 435
f 416 417 437 436
f 417 418 438 437
f 418 419 439 438
f 419 420 440 439
f 420 401 421 440
f 421 422 442 441
f 422 423 443 442
f 423 424 444 443
f 424 425 445 444
f 425 426 446 445
f 426 427 447 446
f 427 428 448 447
f 428 429 449 448
f 429 430 450 449
f 430 431 451 450
f 431 432 452 451
f 432 433 453 452
f 433 434 454 453
f 434 435 455 454
f 435 436 456 455
f 436 437 457 456
f 437 438 458 457
f 438 439 459 458
f 439 440 460 459
f 440 421 441 460
f 441 442 462 461
f 442 443 463 462
f 443 444 464 463
f 444 445 465 464
f 445 446 466 465
f 446 447 467 466
f 447 448 468 467
f 448 449 469 468
f 449 450 470 469
f 450 451 471 470
f 451 452 472 471
f 452 453 473 472
f 453 454 474 473
f 454 455 475 474
f 455 456 476 475
f 456 457 477 476
f 457 458 478 477
f 458 459 479 478
f 459 460 480 479
f 460 441 461 480
f 461 462 482 481
f 462 463 483 482
f 463 464 484 483
f 464 465 485 484
f 465 466 486 485
f 466 467 487 486
f 467 468 488 487
f 468 469 489 488
f 469 470 490 489
f 470 471 491 490
f 471 472 492 491
f 472 473 493 492
f 473 474 494 493
f 474 475 495 494
f 475 476 496 495
f 476 477 497 496
f 477 478 498 497
f 478 479 499 498
f 479 480 500 499
f 480 461 481 500
f 481 482 502 501
f 482 483 503 502
f 483 484 504 503
f 484 485 505 504
f 485 486 506 505
f 486 487 507 506
f 487 488 508 507
f 488 489 509 508
f 489 490 510 509
f 490 491 511 510
f 491 492 512 511
f 492 493 513 512
f 493 494 514 513
f 494 495 515 514
f 495 496 516 515
f 496 497 517 516
f 497 498 518 517
f 498 499 519 518
f 499 500 520 519
f 500 481 501 520
f 501 502 522 521
f 502 503 523 522
f 503 504 524 523
f 504 505 525 524
f 505 506 526 525
f 506 507 527 526
f 507 508 528 527
f 508 509 529 528
f 509 510 530 529
f 510 511 531 530
f 511 512 532 531
f 512 513 533 532
f 513 514 534 533
f 514 515 535 534
f 515 516 536 535
f 516 517 537 536
f 517 518 538 537
f 518 519 539 538
f 519 520 540 539
f 520 501 521 540
f 521 522 542 541
f 522 523 543 542
f 523 524 544 543
f 524 525 545 544
f 525 526 546 545
f 526 527 547 546
f 527 528 548 547
f 528 529 549 548
f 529 530 550 549
f 530 531 551 550
f 531 532 552 551
f 532 533 553 552
f 533 534 554 553
f 534 535 555 554
f 535 536 556 555
f 536 537 557 556
f 537 538 558 557
f 538 539 559 558
f 539 540 560 559
f 540 521 541 560
f 541 542 562 561
f 542 543 563 562
f 543 544 564 563
f 544 545 565 564
f 545 546 566 565
f 546 547 567 566
f 547 548 568 567
f 548 549 569 568
f 549 550 570 569
f 550 551 571 570
f 551 552 572 571
f 552 553 573 572
f 553 554 574 573
f 554 555 575 574
f 555 556 576 575
f 556 557 577 576
f 557 558 578 577
f 558 559 579 578
f 559 560 580 579
f 560 541 561 580
f 561 562 582 581
f 562 563 583 582
f 563 564 584 583
f 564 565 585 584
f 565 566 586 585
f 566 567 587 586
f 567 568 588 587
f 568 569 589 588
f 569 570 590 589
f 570 571 591 590
f 571 572 592 591
f 572 573 593 592
f 573 574 594 593
f 574 575 595 594
f 575 576 596 595
f 576 577 597 596
f 577 578 598 597
f 578 579 599 598
f 579 580 600 599
f 580 561 581 600
f 581 582 602 601
f 582 583 603 602
f 583 584 604 603
f 584 585 605 604
f 585 586 606 605
f 586 587 607 606
f 587 588 608 607
f 588 589 609 608
f 589 590 610 609
f 590 591 611 610
f 591 592 612 611
f 592 593 613 612
f 593 594 614 613
f 594 595 615 614
f 595 596 616 615
f 596 597 617 616
f 597 598 618 617
f 598 599 619 618
f 599 600 620 619
f 600 581 601 620
f 601 602 622 621
f 602 603 623 622
f 603 604 624 623
f 604 605 625 624
f 605 606 626 625
f 606 607 627 626
f 607 608 628 627
f 608 609 629 628
f 609 610 630 629
f 610 611 631 630
f 611 612 632 631
f 612 613 633 632
f 613 614 634 633
f 614 615 635 634
f 615 616 636 635
f 616 617 637 636
f 617 618 638 637
f 618 619 639 638
f 619 620 640 639
f 620 601 621 640
f 621 622 642 641
f 622 623 643 642
f 623 624 644 643
f 624 625 645 644
f 625 626 646 645
f 626 627 647 646
f 627 628 648 647
f 628 629 649 648
f 629 630 650 649
f 630 631 651 650
f 631 632 652 651
f 632 633 653 652
f 633 634 654 653
f 634 635 655 654
f 635 636 656 655
f 636 637 657 656
f 637 638 658 657
f 638 639 659 658
f 639 640 660 659
f 640 621 641 660
f 641 642 662 661
f 642 643 663 662
f 643 644 664 663
f 644 645 665 664
f 645 646 666 665
f 646 647 667 666
f 647 648 668 667
f 648 649 669 668
f 649 650 670 669
f 650 651 671 670
f 651 652 672 671
f 652 653 673 672
f 653 654 674 673
f 654 655 675 674
f 655 656 676 675
f 656 657 677 676
f 657 658 678 677
f 658 659 679 678
f 659 660 680 679
f 660 641 661 680
f 661 662 682 681
f 662 663 683 682
f 663 664 684 683
f 664 665 685 684
f 665 666 686 685
f 666 667 687 686
f 667 668 688 687
f 668 669 689 688
f 669 670 690 689
f 670 671 691 690
f 671 672 692 691
f 672 673 693 692
f 673 674 694 693
f 674 675 695 694
f 675 676 696 695
f 676 677 697 696
f 677 678 698 697
f 678 679 699 698
f 679 680 700 699
f 680 661 681 700
f 681 682 702 701
f 682 683 703 702
f 683 684 704 703
f 684 685 705 704
f 685 686 706 705
f 686 687 707 706
f 687 688 708 707
f 688 689 709 708
f 689 690 710 709
f 690 691 711 710
f 691 692 712 711
f 692 693 713 712
f 693 694 714 713
f 694 695 715 714
f 695 696 716 715
f 696 697 717 716
f 697 698 718 717
f 698 699 719 718
f 699 700 720 719
f 700 681 701 720
f 701 702 722 721
f 702 703 723 722
f 703 704 724 723
f 704 705 725 724
f 705 706 726 725
f 706 707 727 726
f 707 708 728 727
f 708 709 729 728
f 709 710 730 729
f 710 711 731 730
f 711 712 732 731
f 712 713 733 732
f 713 714 734 733
f 714 715 735 734
f 715 716 736 735
f 716 717 737 736
f 717 718 738 737
f 718 719 739 738
f 719 720 740 739
f 720 701 721 740
f 721 722 742 741
f 722 723 743 742
f 723 724 744 743
f 724 725 745 744
f 725 726 746 745
f 726 727 747 746
f 727 728 748 747
f 728 729 749 748
f 729 730 750 749
f 730 731 751 750
f 731 732 752 751
f 732 733 753 752
f 733 734 754 753
f 734 735 755 754
f 735 736 756 755
f 736 737 757 756
f 737 738 758 757
f 738 739 759 758
f 739 740 760 759
f 740 721 741 760
f 741 742 762 761
f 742 743 763 762
f 743 744 764 763
f 744 745 765 764
f 745 746 766 765
f 746 747 767 766
f 747 748 768 767
f 748 749 769 768
f 749 750 770 769
f 750 751 771 770
f 751 752 772 771
f 752 753 773 772
f 753 754 774 773
f 754 755 775 774
f 755 756 776 775
f 756 757 777 776
f 757 758 778 777
f 758 759 779 778
f 759 760 780 779
f 760 741 761 780
f 761 762 782 781
f 762 763 783 782
f 763 764 784 783
f 764 765 785 784
f 765 766 786 785
f 766 767 787 786
f 767 768 788 787
f 768 769 789 788
f 769 770 790 789
f 770 771 791 790
f 771 772 792 791
f 772 773 793 792
f 773 774 794 793
f 774 775 795 794
f 775 776 796 795
f 776 777 797 796
f 777 778 798 797
f 778 779 799 798
f 779 780 800 799
f 780 761 781 800
f 781 782 802 801
f 782 783 803 802
f 783 784 804 803
f 784 785 805 804
f 785 786 806 805
f 786 787 807 806
f 787 788 808 807
f 788 789 809 808
f 789 790 810 809
f 790 791 811 810
f 791 792 812 811
f 792 793 813 812
f 793 794 814 813
f 794 795 815 814
f 795 796 816 815
f 796 797 817 816
f 797 798 818 817
f 798 799 819 818
f 799 800 820 819
f 800 781 801 820
f 801 802 822 821
f 802 803 823 822
f 803 804 824 823
f 804 805 825 824
f 805 806 826 825
f 806 807 827 826
f 807 808 828 827
f 808 809 829 828
f 809 810 830 829
f 810 811 831 830
f 811 812 832 831
f 812 813 833 832
f 813 814 834 833
f 814 815 835 834
f 815 816 836 835
f 816 817 837 836
f 817 818 838 837
f 818 819 839 838
f 819 820 840 839
f 820 801 821 840
