# tube retopo
v -0.246562 -0.059376 -0.758839
v -0.225158 -0.054352 -0.765794
v -0.207114 -0.041458 -0.771657
v -0.194858 -0.022480 -0.775639
v -0.190092 0.000000 -0.777188
v -0.194870 0.022505 -0.775635
v -0.207133 0.041478 -0.771651
v -0.225182 0.054365 -0.765786
v -0.246562 0.059376 -0.758839
v -0.267966 0.054352 -0.751885
v -0.286010 0.041458 -0.746022
v -0.298266 0.022480 -0.742040
v -0.303032 0.000000 -0.740491
v -0.298254 -0.022505 -0.742044
v -0.285991 -0.041478 -0.746028
v -0.267942 -0.054365 -0.751893
v -0.225122 -0.062350 -0.692853
v -0.202639 -0.057070 -0.700158
v -0.183694 -0.043531 -0.706314
v -0.170827 -0.023603 -0.710495
v -0.165824 0.000000 -0.712120
v -0.170845 0.023639 -0.710489
v -0.183721 0.043559 -0.706305
v -0.202674 0.057089 -0.700147
v -0.225122 0.062350 -0.692853
v -0.247604 0.057070 -0.685548
v -0.266549 0.043531 -0.679393
v -0.279416 0.023603 -0.675212
v -0.284420 0.000000 -0.673586
v -0.279399 -0.023639 -0.675218
v -0.266522 -0.043559 -0.679402
v -0.247570 -0.057089 -0.685559
v -0.203682 -0.065323 -0.626867
v -0.180141 -0.059800 -0.634516
v -0.160281 -0.045610 -0.640969
v -0.146799 -0.024731 -0.645350
v -0.141556 0.000000 -0.647053
v -0.146809 0.024751 -0.645346
v -0.160304 0.045634 -0.640962
v -0.180161 0.059810 -0.634510
v -0.203682 0.065323 -0.626867
v -0.227222 0.059800 -0.619219
v -0.247082 0.045610 -0.612766
v -0.260564 0.024731 -0.608385
v -0.265808 0.000000 -0.606681
v -0.260554 -0.024751 -0.608388
v -0.247059 -0.045634 -0.612773
v -0.227202 -0.059810 -0.619225
v -0.182241 -0.068297 -0.560881
v -0.157642 -0.062528 -0.568874
v -0.136876 -0.047697 -0.575621
v -0.122772 -0.025863 -0.580204
v -0.117287 0.000000 -0.581986
v -0.122774 0.025866 -0.580204
v -0.136879 0.047700 -0.575620
v -0.157644 0.062529 -0.568873
v -0.182241 0.068297 -0.560881
v -0.206841 0.062528 -0.552888
v -0.227607 0.047697 -0.546141
v -0.241710 0.025863 -0.541559
v -0.247195 0.000000 -0.539776
v -0.241709 -0.025866 -0.541559
v -0.227604 -0.047700 -0.546142
v -0.206839 -0.062529 -0.552889
v -0.160801 -0.072964 -0.494895
v -0.134529 -0.066805 -0.503432
v -0.112348 -0.050969 -0.510639
v -0.097275 -0.027643 -0.515536
v -0.091409 0.000000 -0.517442
v -0.097266 0.027625 -0.515539
v -0.112326 0.050946 -0.510646
v -0.134511 0.066796 -0.503438
v -0.160801 0.072964 -0.494895
v -0.187074 0.066805 -0.486359
v -0.209254 0.050969 -0.479152
v -0.224328 0.027643 -0.474254
v -0.230194 0.000000 -0.472348
v -0.224337 -0.027625 -0.474251
v -0.209276 -0.050946 -0.479145
v -0.187092 -0.066796 -0.486353
v -0.139361 -0.079902 -0.428909
v -0.110593 -0.073160 -0.438256
v -0.086306 -0.055822 -0.446148
v -0.069803 -0.030290 -0.451510
v -0.063370 0.000000 -0.453600
v -0.069782 0.030248 -0.451517
v -0.086272 0.055785 -0.446159
v -0.110553 0.073138 -0.438269
v -0.139361 0.079902 -0.428909
v -0.168129 0.073160 -0.419562
v -0.192416 0.055822 -0.411671
v -0.208920 0.030290 -0.406308
v -0.215352 0.000000 -0.404218
v -0.208940 -0.030248 -0.406302
v -0.192451 -0.055785 -0.411659
v -0.168169 -0.073138 -0.419549
v -0.117921 -0.086840 -0.362923
v -0.086654 -0.079511 -0.373083
v -0.060256 -0.060666 -0.381660
v -0.042322 -0.032919 -0.387487
v -0.035331 0.000000 -0.389758
v -0.042301 0.032876 -0.387494
v -0.060224 0.060632 -0.381670
v -0.086613 0.079490 -0.373096
v -0.117921 0.086840 -0.362923
v -0.149188 0.079511 -0.352764
v -0.175586 0.060666 -0.344187
v -0.193520 0.032919 -0.338359
v -0.200511 0.000000 -0.336088
v -0.193541 -0.032876 -0.338353
v -0.175618 -0.060632 -0.344176
v -0.149229 -0.079490 -0.352751
v -0.096481 -0.086474 -0.296937
v -0.065339 -0.079173 -0.307056
v -0.039049 -0.060399 -0.315598
v -0.021190 -0.032760 -0.321400
v -0.014239 0.000000 -0.323659
v -0.021183 0.032745 -0.321403
v -0.039038 0.060387 -0.315602
v -0.065324 0.079165 -0.307060
v -0.096481 0.086474 -0.296937
v -0.127623 0.079173 -0.286818
v -0.153913 0.060399 -0.278276
v -0.171771 0.032760 -0.272474
v -0.178722 0.000000 -0.270215
v -0.171778 -0.032745 -0.272471
v -0.153924 -0.060387 -0.278273
v -0.127637 -0.079165 -0.286814
v -0.075041 -0.079998 -0.230951
v -0.046210 -0.073233 -0.240319
v -0.021895 -0.055861 -0.248219
v -0.005380 -0.030290 -0.253585
v 0.001042 0.000000 -0.255672
v -0.005392 0.030314 -0.253581
v -0.021913 0.055880 -0.248213
v -0.046233 0.073245 -0.240311
v -0.075041 0.079998 -0.230951
v -0.103871 0.073233 -0.221584
v -0.128186 0.055861 -0.213683
v -0.144701 0.030290 -0.208317
v -0.151123 0.000000 -0.206230
v -0.144689 -0.030314 -0.208321
v -0.128168 -0.055880 -0.213689
v -0.103848 -0.073245 -0.221591
v -0.053600 -0.073522 -0.164965
v -0.027091 -0.067298 -0.173579
v -0.004750 -0.051332 -0.180837
v 0.010423 -0.027834 -0.185768
v 0.016324 0.000000 -0.187685
v 0.010404 0.027874 -0.185761
v -0.004781 0.051364 -0.180828
v -0.027129 0.067318 -0.173566
v -0.053600 0.073522 -0.164965
v -0.080110 0.067298 -0.156352
v -0.102451 0.051332 -0.149093
v -0.117624 0.027834 -0.144163
v -0.123524 0.000000 -0.142245
v -0.117605 -0.027874 -0.144169
v -0.102420 -0.051364 -0.149103
v -0.080072 -0.067318 -0.156364
v -0.032160 -0.067047 -0.098979
v -0.007992 -0.061374 -0.106832
v 0.012387 -0.046811 -0.113453
v 0.026224 -0.025382 -0.117949
v 0.031605 0.000000 -0.119698
v 0.026210 0.025412 -0.117945
v 0.012360 0.046840 -0.113444
v -0.008020 0.061389 -0.106823
v -0.032160 0.067047 -0.098979
v -0.056328 0.061374 -0.091126
v -0.076708 0.046811 -0.084505
v -0.090545 0.025382 -0.080009
v -0.095926 0.000000 -0.078260
v -0.090530 -0.025412 -0.080013
v -0.076680 -0.046840 -0.084514
v -0.056300 -0.061389 -0.091136
v -0.010720 -0.063408 -0.032993
v 0.012122 -0.058051 -0.040415
v 0.031402 -0.044279 -0.046679
v 0.044494 -0.024010 -0.050933
v 0.049585 0.000000 -0.052587
v 0.044490 0.024017 -0.050932
v 0.031392 0.044290 -0.046676
v 0.012115 0.058055 -0.040413
v -0.010720 0.063408 -0.032993
v -0.033562 0.058051 -0.025571
v -0.052842 0.044279 -0.019307
v -0.065934 0.024010 -0.015053
v -0.071025 0.000000 -0.013399
v -0.065930 -0.024017 -0.015054
v -0.052832 -0.044290 -0.019310
v -0.033555 -0.058055 -0.025573
v 0.010720 -0.069792 0.032993
v 0.035853 -0.063900 0.024827
v 0.057070 -0.048750 0.017933
v 0.071487 -0.026437 0.013249
v 0.077096 0.000000 0.011426
v 0.071493 0.026426 0.013247
v 0.057084 0.048735 0.017928
v 0.035863 0.063894 0.024823
v 0.010720 0.069792 0.032993
v -0.014412 0.063900 0.041159
v -0.035629 0.048750 0.048053
v -0.050047 0.026437 0.052737
v -0.055656 -0.000000 0.054560
v -0.050052 -0.026426 0.052739
v -0.035644 -0.048735 0.048058
v -0.014423 -0.063894 0.041163
v 0.032160 -0.076175 0.098979
v 0.059587 -0.069747 0.090068
v 0.082741 -0.053217 0.082544
v 0.098477 -0.028871 0.077431
v 0.104607 0.000000 0.075440
v 0.098493 0.028838 0.077426
v 0.082772 0.053184 0.082534
v 0.059618 0.069730 0.090057
v 0.032160 0.076175 0.098979
v 0.004734 0.069747 0.107890
v -0.018421 0.053217 0.115414
v -0.034157 0.028871 0.120527
v -0.040286 -0.000000 0.122518
v -0.034173 -0.028838 0.120532
v -0.018452 -0.053184 0.115424
v 0.004702 -0.069730 0.107901
v 0.053600 -0.082558 0.164965
v 0.083325 -0.075591 0.155307
v 0.108420 -0.057676 0.147153
v 0.125470 -0.031299 0.141613
v 0.132118 -0.000000 0.139453
v 0.125492 0.031254 0.141606
v 0.108454 0.057641 0.147142
v 0.083368 0.075568 0.155293
v 0.053600 0.082558 0.164965
v 0.023876 0.075591 0.174623
v -0.001219 0.057676 0.182777
v -0.018269 0.031299 0.188317
v -0.024917 -0.000000 0.190477
v -0.018291 -0.031254 0.188324
v -0.001253 -0.057641 0.182788
v 0.023833 -0.075568 0.174637
v 0.075041 -0.083164 0.230951
v 0.104988 -0.076144 0.221221
v 0.130270 -0.058092 0.213006
v 0.147445 -0.031514 0.207425
v 0.154134 -0.000000 0.205252
v 0.147458 0.031489 0.207421
v 0.130290 0.058072 0.213000
v 0.105013 0.076131 0.221213
v 0.075041 0.083164 0.230951
v 0.045093 0.076144 0.240682
v 0.019811 0.058092 0.248896
v 0.002636 0.031514 0.254477
v -0.004053 -0.000000 0.256650
v 0.002623 -0.031489 0.254481
v 0.019792 -0.058072 0.248903
v 0.045069 -0.076131 0.240690
v 0.096481 -0.080191 0.296937
v 0.125373 -0.073413 0.287550
v 0.149750 -0.056000 0.279629
v 0.166307 -0.030366 0.274249
v 0.172747 -0.000000 0.272157
v 0.166301 0.030379 0.274251
v 0.149740 0.056011 0.279632
v 0.125360 0.073420 0.287554
v 0.096481 0.080191 0.296937
v 0.067589 0.073413 0.306325
v 0.043212 0.056000 0.314245
v 0.026654 0.030366 0.319625
v 0.020215 -0.000000 0.321717
v 0.026661 -0.030379 0.319623
v 0.043222 -0.056011 0.314242
v 0.067601 -0.073420 0.306321
v 0.117921 -0.077217 0.362923
v 0.145760 -0.070681 0.353878
v 0.169224 -0.053913 0.346254
v 0.185161 -0.029233 0.341075
v 0.191359 -0.000000 0.339062
v 0.185143 0.029272 0.341081
v 0.169196 0.053944 0.346263
v 0.145723 0.070701 0.353890
v 0.117921 0.077217 0.362923
v 0.090082 0.070681 0.371969
v 0.066617 0.053913 0.379593
v 0.050680 0.029233 0.384771
v 0.044483 -0.000000 0.386785
v 0.050699 -0.029272 0.384765
v 0.066646 -0.053944 0.379583
v 0.090118 -0.070701 0.371957
v 0.139361 -0.074244 0.428909
v 0.166128 -0.067959 0.420212
v 0.188691 -0.051835 0.412881
v 0.204013 -0.028106 0.407903
v 0.209971 -0.000000 0.405967
v 0.203994 0.028145 0.407909
v 0.188659 0.051869 0.412891
v 0.166092 0.067979 0.420224
v 0.139361 0.074244 0.428909
v 0.112594 0.067959 0.437606
v 0.090031 0.051835 0.444937
v 0.074709 0.028106 0.449916
v 0.068751 -0.000000 0.451852
v 0.074728 -0.028145 0.449910
v 0.090063 -0.051869 0.444927
v 0.112630 -0.067979 0.437594
v 0.160801 -0.071270 0.494895
v 0.186481 -0.065246 0.486551
v 0.208150 -0.049764 0.479511
v 0.222862 -0.026984 0.474730
v 0.228583 -0.000000 0.472872
v 0.222854 0.027001 0.474733
v 0.208130 0.049786 0.479517
v 0.186464 0.065255 0.486557
v 0.160801 0.071270 0.494895
v 0.135122 0.065246 0.503239
v 0.113452 0.049764 0.510280
v 0.098740 0.026984 0.515060
v 0.093019 -0.000000 0.516919
v 0.098749 -0.027001 0.515057
v 0.113473 -0.049786 0.510273
v 0.135138 -0.065255 0.503234
v 0.182241 -0.067729 0.560881
v 0.206635 -0.062009 0.552955
v 0.227227 -0.047303 0.546265
v 0.241215 -0.025651 0.541720
v 0.246655 -0.000000 0.539952
v 0.241216 0.025649 0.541719
v 0.227230 0.047300 0.546264
v 0.206637 0.062008 0.552955
v 0.182241 0.067729 0.560881
v 0.157848 0.062009 0.568807
v 0.137256 0.047303 0.575498
v 0.123268 0.025651 0.580043
v 0.117827 -0.000000 0.581811
v 0.123267 -0.025649 0.580043
v 0.137253 -0.047300 0.575499
v 0.157846 -0.062008 0.568808
v 0.203682 -0.063764 0.626867
v 0.226641 -0.058383 0.619407
v 0.246024 -0.044544 0.613109
v 0.259197 -0.024161 0.608829
v 0.264325 -0.000000 0.607163
v 0.259207 0.024141 0.608826
v 0.246046 0.044522 0.613102
v 0.226660 0.058373 0.619401
v 0.203682 0.063764 0.626867
v 0.180722 0.058383 0.634327
v 0.161339 0.044544 0.640625
v 0.148166 0.024161 0.644905
v 0.143038 -0.000000 0.646571
v 0.148156 -0.024141 0.644909
v 0.161317 -0.044522 0.640632
v 0.180703 -0.058373 0.634333
v 0.225122 -0.059799 0.692853
v 0.246652 -0.054754 0.685858
v 0.264829 -0.041778 0.679952
v 0.277179 -0.022672 0.675939
v 0.281994 -0.000000 0.674374
v 0.277195 0.022638 0.675934
v 0.264855 0.041750 0.679943
v 0.246684 0.054736 0.685847
v 0.225122 0.059799 0.692853
v 0.203592 0.054754 0.699849
v 0.185415 0.041778 0.705755
v 0.173065 0.022672 0.709768
v 0.168249 -0.000000 0.711332
v 0.173048 -0.022638 0.709773
v 0.185389 -0.041750 0.705763
v 0.203559 -0.054736 0.699859
v 0.246562 -0.055835 0.758839
v 0.266666 -0.051122 0.752307
v 0.283639 -0.039005 0.746792
v 0.295171 -0.021163 0.743045
v 0.299664 -0.000000 0.741585
v 0.295182 0.021139 0.743042
v 0.283657 0.038986 0.746786
v 0.266689 0.051110 0.752300
v 0.246562 0.055835 0.758839
v 0.226457 0.051122 0.765372
v 0.209484 0.039005 0.770887
v 0.197953 0.021163 0.774633
v 0.193460 -0.000000 0.776093
v 0.197942 -0.021139 0.774637
v 0.209466 -0.038986 0.770892
v 0.226435 -0.051110 0.765379
f 1 2 18 17
f 2 3 19 18
f 3 4 20 19
f 4 5 21 20
f 5 6 22 21
f 6 7 23 22
f 7 8 24 23
f 8 9 25 24
f 9 10 26 25
f 10 11 27 26
f 11 12 28 27
f 12 13 29 28
f 13 14 30 29
f 14 15 31 30
f 15 16 32 31
f 16 1 17 32
f 17 18 34 33
f 18 19 35 34
f 19 20 36 35
f 20 21 37 36
f 21 22 38 37
f 22 23 39 38
f 23 24 40 39
f 24 25 41 40
f 25 26 42 41
f 26 27 43 42
f 27 28 44 43
f 28 29 45 44
f 29 30 46 45
f 30 31 47 46
f 31 32 48 47
f 32 17 33 48
f 33 34 50 49
f 34 35 51 50
f 35 36 52 51
f 36 37 53 52
f 37 38 54 53
f 38 39 55 54
f 39 40 56 55
f 40 41 57 56
f 41 42 58 57
f 42 43 59 58
f 43 44 60 59
f 44 45 61 60
f 45 46 62 61
f 46 47 63 62
f 47 48 64 63
f 48 33 49 64
f 49 50 66 65
f 50 51 67 66
f 51 52 68 67
f 52 53 69 68
f 53 54 70 69
f 54 55 71 70
f 55 56 72 71
f 56 57 73 72
f 57 58 74 73
f 58 59 75 74
f 59 60 76 75
f 60 61 77 76
f 61 62 78 77
f 62 63 79 78
f 63 64 80 79
f 64 49 65 80
f 65 66 82 81
f 66 67 83 82
f 67 68 84 83
f 68 69 85 84
f 69 70 86 85
f 70 71 87 86
f 71 72 88 87
f 72 73 89 88
f 73 74 90 89
f 74 75 91 90
f 75 76 92 91
f 76 77 93 92
f 77 78 94 93
f 78 79 95 94
f 79 80 96 95
f 80 65 81 96
f 81 82 98 97
f 82 83 99 98
f 83 84 100 99
f 84 85 101 100
f 85 86 102 101
f 86 87 103 102
f 87 88 104 103
f 88 89 105 104
f 89 90 106 105
f 90 91 107 106
f 91 92 108 107
f 92 93 109 108
f 93 94 110 109
f 94 95 111 110
f 95 96 112 111
f 96 81 97 112
f 97 98 114 113
f 98 99 115 114
f 99 100 116 115
f 100 101 117 116
f 101 102 118 117
f 102 103 119 118
f 103 104 120 119
f 104 105 121 120
f 105 106 122 121
f 106 107 123 122
f 107 108 124 123
f 108 109 125 124
f 109 110 126 125
f 110 111 127 126
f 111 112 128 127
f 112 97 113 128
f 113 114 130 129
f 114 115 131 130
f 115 116 132 131
f 116 117 133 132
f 117 118 134 133
f 118 119 135 134
f 119 120 136 135
f 120 121 137 136
f 121 122 138 137
f 122 123 139 138
f 123 124 140 139
f 124 125 141 140
f 125 126 142 141
f 126 127 143 142
f 127 128 144 143
f 128 113 129 144
f 129 130 146 145
f 130 131 147 146
f 131 132 148 147
f 132 133 149 148
f 133 134 150 149
f 134 135 151 150
f 135 136 152 151
f 136 137 153 152
f 137 138 154 153
f 138 139 155 154
f 139 140 156 155
f 140 141 157 156
f 141 142 158 157
f 142 143 159 158
f 143 144 160 159
f 144 129 145 160
f 145 146 162 161
f 146 147 163 162
f 147 148 164 163
f 148 149 165 164
f 149 150 166 165
f 150 151 167 166
f 151 152 168 167
f 152 153 169 168
f 153 154 170 169
f 154 155 171 170
f 155 156 172 171
f 156 157 173 172
f 157 158 174 173
f 158 159 175 174
f 159 160 176 175
f 160 145 161 176
f 161 162 178 177
f 162 163 179 178
f 163 164 180 179
f 164 165 181 180
f 165 166 182 181
f 166 167 183 182
f 167 168 184 183
f 168 169 185 184
f 169 170 186 185
f 170 171 187 186
f 171 172 188 187
f 172 173 189 188
f 173 174 190 189
f 174 175 191 190
f 175 176 192 191
f 176 161 177 192
f 177 178 194 193
f 178 179 195 194
f 179 180 196 195
f 180 181 197 196
f 181 182 198 197
f 182 183 199 198
f 183 184 200 199
f 184 185 201 200
f 185 186 202 201
f 186 187 203 202
f 187 188 204 203
f 188 189 205 204
f 189 190 206 205
f 190 191 207 206
f 191 192 208 207
f 192 177 193 208
f 193 194 210 209
f 194 195 211 210
f 195 196 212 211
f 196 197 213 212
f 197 198 214 213
f 198 199 215 214
f 199 200 216 215
f 200 201 217 216
f 201 202 218 217
f 202 203 219 218
f 203 204 220 219
f 204 205 221 220
f 205 206 222 221
f 206 207 223 222
f 207 208 224 223
f 208 193 209 224
f 209 210 226 225
f 210 211 227 226
f 211 212 228 227
f 212 213 229 228
f 213 214 230 229
f 214 215 231 230
f 215 216 232 231
f 216 217 233 232
f 217 218 234 233
f 218 219 235 234
f 219 220 236 235
f 220 221 237 236
f 221 222 238 237
f 222 223 239 238
f 223 224 240 239
f 224 209 225 240
f 225 226 242 241
f 226 227 243 242
f 227 228 244 243
f 228 229 245 244
f 229 230 246 245
f 230 231 247 246
f 231 232 248 247
f 232 233 249 248
f 233 234 250 249
f 234 235 251 250
f 235 236 252 251
f 236 237 253 252
f 237 238 254 253
f 238 239 255 254
f 239 240 256 255
f 240 225 241 256
f 241 242 258 257
f 242 243 259 258
f 243 244 260 259
f 244 245 261 260
f 245 246 262 261
f 246 247 263 262
f 247 248 264 263
f 248 249 265 264
f 249 250 266 265
f 250 251 267 266
f 251 252 268 267
f 252 253 269 268
f 253 254 270 269
f 254 255 271 270
f 255 256 272 271
f 256 241 257 272
f 257 258 274 273
f 258 259 275 274
f 259 260 276 275
f 260 261 277 276
f 261 262 278 277
f 262 263 279 278
f 263 264 280 279
f 264 265 281 280
f 265 266 282 281
f 266 267 283 282
f 267 268 284 283
f 268 269 285 284
f 269 270 286 285
f 270 271 287 286
f 271 272 288 287
f 272 257 273 288
f 273 274 290 289
f 274 275 291 290
f 275 276 292 291
f 276 277 293 292
f 277 278 294 293
f 278 279 295 294
f 279 280 296 295
f 280 281 297 296
f 281 282 298 297
f 282 283 299 298
f 283 284 300 299
f 284 285 301 300
f 285 286 302 301
f 286 287 303 302
f 287 288 304 303
f 288 273 289 304
f 289 290 306 305
f 290 291 307 306
f 291 292 308 307
f 292 293 309 308
f 293 294 310 309
f 294 295 311 310
f 295 296 312 311
f 296 297 313 312
f 297 298 314 313
f 298 299 315 314
f 299 300 316 315
f 300 301 317 316
f 301 302 318 317
f 302 303 319 318
f 303 304 320 319
f 304 289 305 320
f 305 306 322 321
f 306 307 323 322
f 307 308 324 323
f 308 309 325 324
f 309 310 326 325
f 310 311 327 326
f 311 312 328 327
f 312 313 329 328
f 313 314 330 329
f 314 315 331 330
f 315 316 332 331
f 316 317 333 332
f 317 318 334 333
f 318 319 335 334
f 319 320 336 335
f 320 305 321 336
f 321 322 338 337
f 322 323 339 338
f 323 324 340 339
f 324 325 341 340
f 325 326 342 341
f 326 327 343 342
f 327 328 344 343
f 328 329 345 344
f 329 330 346 345
f 330 331 347 346
f 331 332 348 347
f 332 333 349 348
f 333 334 350 349
f 334 335 351 350
f 335 336 352 351
f 336 321 337 352
f 337 338 354 353
f 338 339 355 354
f 339 340 356 355
f 340 341 357 356
f 341 342 358 357
f 342 343 359 358
f 343 344 360 359
f 344 345 361 360
f 345 346 362 361
f 346 347 363 362
f 347 348 364 363
f 348 349 365 364
f 349 350 366 365
f 350 351 367 366
f 351 352 368 367
f 352 337 353 368
f 353 354 370 369
f 354 355 371 370
f 355 356 372 371
f 356 357 373 372
f 357 358 374 373
f 358 359 375 374
f 359 360 376 375
f 360 361 377 376
f 361 362 378 377
f 362 363 379 378
f 363 364 380 379
f 364 365 381 380
f 365 366 382 381
f 366 367 383 382
f 367 368 384 383
f 368 353 369 384
