# tube retopo
v -0.225807 0.000000 -0.872947
v -0.228367 0.016996 -0.872115
v -0.235797 0.032328 -0.869701
v -0.247369 0.044496 -0.865941
v -0.261951 0.052308 -0.861203
v -0.278115 0.055000 -0.855951
v -0.294279 0.052308 -0.850699
v -0.308861 0.044496 -0.845961
v -0.320433 0.032328 -0.842201
v -0.327863 0.016996 -0.839787
v -0.330423 0.000000 -0.838955
v -0.327863 -0.016996 -0.839787
v -0.320433 -0.032328 -0.842201
v -0.308861 -0.044496 -0.845961
v -0.294279 -0.052308 -0.850699
v -0.278115 -0.055000 -0.855951
v -0.261951 -0.052308 -0.861203
v -0.247369 -0.044496 -0.865941
v -0.235797 -0.032328 -0.869701
v -0.228367 -0.016996 -0.872115
v -0.214360 0.000000 -0.842255
v -0.216985 0.017429 -0.841402
v -0.224605 0.033153 -0.838926
v -0.236472 0.045631 -0.835070
v -0.251426 0.053642 -0.830211
v -0.268002 0.056403 -0.824825
v -0.284578 0.053642 -0.819439
v -0.299532 0.045631 -0.814581
v -0.311399 0.033153 -0.810725
v -0.319019 0.017429 -0.808249
v -0.321644 0.000000 -0.807396
v -0.319019 -0.017429 -0.808249
v -0.311399 -0.033153 -0.810725
v -0.299532 -0.045631 -0.814581
v -0.284578 -0.053642 -0.819439
v -0.268002 -0.056403 -0.824825
v -0.251426 -0.053642 -0.830211
v -0.236472 -0.045631 -0.835070
v -0.224605 -0.033153 -0.838926
v -0.216985 -0.017429 -0.841402
v -0.202913 0.000000 -0.811563
v -0.205603 0.017863 -0.810688
v -0.213412 0.033977 -0.808151
v -0.225575 0.046765 -0.804199
v -0.240900 0.054976 -0.799220
v -0.257889 0.057805 -0.793700
v -0.274877 0.054976 -0.788180
v -0.290203 0.046765 -0.783200
v -0.302365 0.033977 -0.779249
v -0.310174 0.017863 -0.776711
v -0.312865 0.000000 -0.775837
v -0.310174 -0.017863 -0.776711
v -0.302365 -0.033977 -0.779249
v -0.290203 -0.046765 -0.783200
v -0.274877 -0.054976 -0.788180
v -0.257889 -0.057805 -0.793700
v -0.240900 -0.054976 -0.799220
v -0.225575 -0.046765 -0.804199
v -0.213412 -0.033977 -0.808151
v -0.205603 -0.017863 -0.810688
v -0.191465 0.000000 -0.780871
v -0.194221 0.018296 -0.779975
v -0.202220 0.034801 -0.777376
v -0.214677 0.047900 -0.773329
v -0.230375 0.056310 -0.768228
v -0.247775 0.059208 -0.762574
v -0.265176 0.056310 -0.756921
v -0.280874 0.047900 -0.751820
v -0.293331 0.034801 -0.747772
v -0.301329 0.018296 -0.745174
v -0.304085 0.000000 -0.744278
v -0.301329 -0.018296 -0.745174
v -0.293331 -0.034801 -0.747772
v -0.280874 -0.047900 -0.751820
v -0.265176 -0.056310 -0.756921
v -0.247775 -0.059208 -0.762574
v -0.230375 -0.056310 -0.768228
v -0.214677 -0.047900 -0.773329
v -0.202220 -0.034801 -0.777376
v -0.194221 -0.018296 -0.779975
v -0.180018 0.000000 -0.750179
v -0.182840 0.018730 -0.749262
v -0.191027 0.035626 -0.746602
v -0.203780 0.049035 -0.742458
v -0.219849 0.057644 -0.737237
v -0.237662 0.060610 -0.731449
v -0.255475 0.057644 -0.725661
v -0.271544 0.049035 -0.720440
v -0.284297 0.035626 -0.716296
v -0.292485 0.018730 -0.713636
v -0.295306 0.000000 -0.712719
v -0.292485 -0.018730 -0.713636
v -0.284297 -0.035626 -0.716296
v -0.271544 -0.049035 -0.720440
v -0.255475 -0.057644 -0.725661
v -0.237662 -0.060610 -0.731449
v -0.219849 -0.057644 -0.737237
v -0.203780 -0.049035 -0.742458
v -0.191027 -0.035626 -0.746602
v -0.182840 -0.018730 -0.749262
v -0.168571 0.000000 -0.719487
v -0.171458 0.019163 -0.718549
v -0.179835 0.036450 -0.715827
v -0.192883 0.050170 -0.711587
v -0.209324 0.058978 -0.706245
v -0.227549 0.062013 -0.700323
v -0.245774 0.058978 -0.694402
v -0.262215 0.050170 -0.689060
v -0.275263 0.036450 -0.684820
v -0.283640 0.019163 -0.682098
v -0.286527 0.000000 -0.681160
v -0.283640 -0.019163 -0.682098
v -0.275263 -0.036450 -0.684820
v -0.262215 -0.050170 -0.689060
v -0.245774 -0.058978 -0.694402
v -0.227549 -0.062013 -0.700323
v -0.209324 -0.058978 -0.706245
v -0.192883 -0.050170 -0.711587
v -0.179835 -0.036450 -0.715827
v -0.171458 -0.019163 -0.718549
v -0.157124 0.000000 -0.688794
v -0.160076 0.019596 -0.687835
v -0.168642 0.037275 -0.685052
v -0.181985 0.051304 -0.680716
v -0.198798 0.060312 -0.675254
v -0.217436 0.063416 -0.669198
v -0.236073 0.060312 -0.663142
v -0.252886 0.051304 -0.657679
v -0.266229 0.037275 -0.653344
v -0.274796 0.019596 -0.650561
v -0.277747 0.000000 -0.649601
v -0.274796 -0.019596 -0.650561
v -0.266229 -0.037275 -0.653344
v -0.252886 -0.051304 -0.657679
v -0.236073 -0.060312 -0.663142
v -0.217436 -0.063416 -0.669198
v -0.198798 -0.060312 -0.675254
v -0.181985 -0.051304 -0.680716
v -0.168642 -0.037275 -0.685052
v -0.160076 -0.019596 -0.687835
v -0.145677 0.000000 -0.658102
v -0.148694 0.020030 -0.657122
v -0.157450 0.038099 -0.654277
v -0.171088 0.052439 -0.649846
v -0.188273 0.061646 -0.644262
v -0.207322 0.064818 -0.638072
v -0.226372 0.061646 -0.631883
v -0.243557 0.052439 -0.626299
v -0.257195 0.038099 -0.621868
v -0.265951 0.020030 -0.619023
v -0.268968 0.000000 -0.618043
v -0.265951 -0.020030 -0.619023
v -0.257195 -0.038099 -0.621868
v -0.243557 -0.052439 -0.626299
v -0.226372 -0.061646 -0.631883
v -0.207322 -0.064818 -0.638072
v -0.188273 -0.061646 -0.644262
v -0.171088 -0.052439 -0.649846
v -0.157450 -0.038099 -0.654277
v -0.148694 -0.020030 -0.657122
v -0.134229 0.000000 -0.627410
v -0.137312 0.020463 -0.626409
v -0.146257 0.038924 -0.623502
v -0.160190 0.053574 -0.618975
v -0.177747 0.062980 -0.613270
v -0.197209 0.066221 -0.606947
v -0.216671 0.062980 -0.600623
v -0.234228 0.053574 -0.594919
v -0.248161 0.038924 -0.590392
v -0.257106 0.020463 -0.587485
v -0.260189 0.000000 -0.586484
v -0.257106 -0.020463 -0.587485
v -0.248161 -0.038924 -0.590392
v -0.234228 -0.053574 -0.594919
v -0.216671 -0.062980 -0.600623
v -0.197209 -0.066221 -0.606947
v -0.177747 -0.062980 -0.613270
v -0.160190 -0.053574 -0.618975
v -0.146257 -0.038924 -0.623502
v -0.137312 -0.020463 -0.626409
v -0.122782 0.000000 -0.596718
v -0.125930 0.020897 -0.595696
v -0.135065 0.039748 -0.592727
v -0.149293 0.054708 -0.588104
v -0.167222 0.064314 -0.582279
v -0.187096 0.067623 -0.575821
v -0.206970 0.064314 -0.569364
v -0.224898 0.054708 -0.563539
v -0.239127 0.039748 -0.558916
v -0.248262 0.020897 -0.555947
v -0.251409 0.000000 -0.554925
v -0.248262 -0.020897 -0.555947
v -0.239127 -0.039748 -0.558916
v -0.224898 -0.054708 -0.563539
v -0.206970 -0.064314 -0.569364
v -0.187096 -0.067623 -0.575821
v -0.167222 -0.064314 -0.582279
v -0.149293 -0.054708 -0.588104
v -0.135065 -0.039748 -0.592727
v -0.125930 -0.020897 -0.595696
v -0.111335 0.000000 -0.566026
v -0.114548 0.021330 -0.564982
v -0.123872 0.040572 -0.561952
v -0.138396 0.055843 -0.557234
v -0.156696 0.065648 -0.551287
v -0.176982 0.069026 -0.544696
v -0.197269 0.065648 -0.538105
v -0.215569 0.055843 -0.532158
v -0.230092 0.040572 -0.527440
v -0.239417 0.021330 -0.524410
v -0.242630 0.000000 -0.523366
v -0.239417 -0.021330 -0.524410
v -0.230092 -0.040572 -0.527440
v -0.215569 -0.055843 -0.532158
v -0.197269 -0.065648 -0.538105
v -0.176982 -0.069026 -0.544696
v -0.156696 -0.065648 -0.551287
v -0.138396 -0.055843 -0.557234
v -0.123872 -0.040572 -0.561952
v -0.114548 -0.021330 -0.564982
v -0.099344 0.000000 -0.535511
v -0.102649 0.021940 -0.534437
v -0.112240 0.041733 -0.531321
v -0.127179 0.057440 -0.526467
v -0.146003 0.067525 -0.520350
v -0.166869 0.071000 -0.513571
v -0.187736 0.067525 -0.506791
v -0.206559 0.057440 -0.500674
v -0.221498 0.041733 -0.495821
v -0.231089 0.021940 -0.492704
v -0.234394 0.000000 -0.491630
v -0.231089 -0.021940 -0.492704
v -0.221498 -0.041733 -0.495821
v -0.206559 -0.057440 -0.500674
v -0.187736 -0.067525 -0.506791
v -0.166869 -0.071000 -0.513571
v -0.146003 -0.067525 -0.520350
v -0.127179 -0.057440 -0.526467
v -0.112240 -0.041733 -0.531321
v -0.102649 -0.021940 -0.534437
v -0.086118 0.000000 -0.505397
v -0.089576 0.022952 -0.504273
v -0.099609 0.043656 -0.501013
v -0.115236 0.060088 -0.495936
v -0.134928 0.070638 -0.489537
v -0.156756 0.074273 -0.482445
v -0.178584 0.070638 -0.475353
v -0.198276 0.060088 -0.468954
v -0.213903 0.043656 -0.463877
v -0.223936 0.022952 -0.460617
v -0.227393 0.000000 -0.459493
v -0.223936 -0.022952 -0.460617
v -0.213903 -0.043656 -0.463877
v -0.198276 -0.060088 -0.468954
v -0.178584 -0.070638 -0.475353
v -0.156756 -0.074273 -0.482445
v -0.134928 -0.070638 -0.489537
v -0.115236 -0.060088 -0.495936
v -0.099609 -0.043656 -0.501013
v -0.089576 -0.022952 -0.504273
v -0.072893 0.000000 -0.475282
v -0.076502 0.023963 -0.474110
v -0.086978 0.045580 -0.470706
v -0.103293 0.062736 -0.465405
v -0.123853 0.073750 -0.458724
v -0.146643 0.077545 -0.451320
v -0.169433 0.073750 -0.443915
v -0.189992 0.062736 -0.437235
v -0.206308 0.045580 -0.431933
v -0.216783 0.023963 -0.428530
v -0.220393 0.000000 -0.427357
v -0.216783 -0.023963 -0.428530
v -0.206308 -0.045580 -0.431933
v -0.189992 -0.062736 -0.437235
v -0.169433 -0.073750 -0.443915
v -0.146643 -0.077545 -0.451320
v -0.123853 -0.073750 -0.458724
v -0.103293 -0.062736 -0.465405
v -0.086978 -0.045580 -0.470706
v -0.076502 -0.023963 -0.474110
v -0.059667 0.000000 -0.445168
v -0.063429 0.024974 -0.443946
v -0.074346 0.047504 -0.440399
v -0.091351 0.065383 -0.434874
v -0.112777 0.076863 -0.427912
v -0.136529 0.080818 -0.420194
v -0.160281 0.076863 -0.412477
v -0.181708 0.065383 -0.405515
v -0.198713 0.047504 -0.399990
v -0.209630 0.024974 -0.396442
v -0.213392 0.000000 -0.395220
v -0.209630 -0.024974 -0.396442
v -0.198713 -0.047504 -0.399990
v -0.181708 -0.065383 -0.405515
v -0.160281 -0.076863 -0.412477
v -0.136529 -0.080818 -0.420194
v -0.112777 -0.076863 -0.427912
v -0.091351 -0.065383 -0.434874
v -0.074346 -0.047504 -0.440399
v -0.063429 -0.024974 -0.443946
v -0.046441 0.000000 -0.415054
v -0.050355 0.025986 -0.413782
v -0.061715 0.049427 -0.410091
v -0.079408 0.068031 -0.404342
v -0.101702 0.079975 -0.397099
v -0.126416 0.084091 -0.389069
v -0.151130 0.079975 -0.381039
v -0.173424 0.068031 -0.373795
v -0.191117 0.049427 -0.368046
v -0.202477 0.025986 -0.364355
v -0.206391 0.000000 -0.363083
v -0.202477 -0.025986 -0.364355
v -0.191117 -0.049427 -0.368046
v -0.173424 -0.068031 -0.373795
v -0.151130 -0.079975 -0.381039
v -0.126416 -0.084091 -0.389069
v -0.101702 -0.079975 -0.397099
v -0.079408 -0.068031 -0.404342
v -0.061715 -0.049427 -0.410091
v -0.050355 -0.025986 -0.413782
v -0.033215 0.000000 -0.384940
v -0.037282 0.026997 -0.383619
v -0.049083 0.051351 -0.379784
v -0.067465 0.070679 -0.373811
v -0.090627 0.083088 -0.366286
v -0.116303 0.087364 -0.357943
v -0.141978 0.083088 -0.349601
v -0.165141 0.070679 -0.342075
v -0.183522 0.051351 -0.336102
v -0.195324 0.026997 -0.332268
v -0.199391 0.000000 -0.330946
v -0.195324 -0.026997 -0.332268
v -0.183522 -0.051351 -0.336102
v -0.165141 -0.070679 -0.342075
v -0.141978 -0.083088 -0.349601
v -0.116303 -0.087364 -0.357943
v -0.090627 -0.083088 -0.366286
v -0.067465 -0.070679 -0.373811
v -0.049083 -0.051351 -0.379784
v -0.037282 -0.026997 -0.383619
v -0.021159 0.000000 -0.354446
v -0.025321 0.027628 -0.353093
v -0.037399 0.052552 -0.349169
v -0.056210 0.072331 -0.343057
v -0.079914 0.085030 -0.335355
v -0.106189 0.089406 -0.326818
v -0.132465 0.085030 -0.318280
v -0.156169 0.072331 -0.310578
v -0.174980 0.052552 -0.304466
v -0.187058 0.027628 -0.300542
v -0.191220 0.000000 -0.299190
v -0.187058 -0.027628 -0.300542
v -0.174980 -0.052552 -0.304466
v -0.156169 -0.072331 -0.310578
v -0.132465 -0.085030 -0.318280
v -0.106189 -0.089406 -0.326818
v -0.079914 -0.085030 -0.335355
v -0.056210 -0.072331 -0.343057
v -0.037399 -0.052552 -0.349169
v -0.025321 -0.027628 -0.353093
v -0.013951 0.000000 -0.322376
v -0.017971 0.026684 -0.321070
v -0.029636 0.050756 -0.317280
v -0.047804 0.069860 -0.311377
v -0.070698 0.082125 -0.303938
v -0.096076 0.086352 -0.295692
v -0.121454 0.082125 -0.287446
v -0.144348 0.069860 -0.280008
v -0.162517 0.050756 -0.274104
v -0.174182 0.026684 -0.270314
v -0.178201 0.000000 -0.269008
v -0.174182 -0.026684 -0.270314
v -0.162517 -0.050756 -0.274104
v -0.144348 -0.069860 -0.280008
v -0.121454 -0.082125 -0.287446
v -0.096076 -0.086352 -0.295692
v -0.070698 -0.082125 -0.303938
v -0.047804 -0.069860 -0.311377
v -0.029636 -0.050756 -0.317280
v -0.017971 -0.026684 -0.321070
v -0.006743 0.000000 -0.290307
v -0.010620 0.025740 -0.289047
v -0.021872 0.048961 -0.285391
v -0.039398 0.067389 -0.279696
v -0.061483 0.079220 -0.272521
v -0.085963 0.083297 -0.264567
v -0.110443 0.079220 -0.256612
v -0.132527 0.067389 -0.249437
v -0.150053 0.048961 -0.243742
v -0.161306 0.025740 -0.240086
v -0.165183 0.000000 -0.238826
v -0.161306 -0.025740 -0.240086
v -0.150053 -0.048961 -0.243742
v -0.132527 -0.067389 -0.249437
v -0.110443 -0.079220 -0.256612
v -0.085963 -0.083297 -0.264567
v -0.061483 -0.079220 -0.272521
v -0.039398 -0.067389 -0.279696
v -0.021872 -0.048961 -0.285391
v -0.010620 -0.025740 -0.289047
v 0.000465 0.000000 -0.258237
v -0.003270 0.024796 -0.257024
v -0.014109 0.047165 -0.253502
v -0.030993 0.064917 -0.248016
v -0.052267 0.076315 -0.241104
v -0.075850 0.080242 -0.233441
v -0.099432 0.076315 -0.225779
v -0.120707 0.064917 -0.218866
v -0.137590 0.047165 -0.213381
v -0.148430 0.024796 -0.209858
v -0.152165 0.000000 -0.208645
v -0.148430 -0.024796 -0.209858
v -0.137590 -0.047165 -0.213381
v -0.120707 -0.064917 -0.218866
v -0.099432 -0.076315 -0.225779
v -0.075850 -0.080242 -0.233441
v -0.052267 -0.076315 -0.241104
v -0.030993 -0.064917 -0.248016
v -0.014109 -0.047165 -0.253502
v -0.003270 -0.024796 -0.257024
v 0.007674 0.000000 -0.226168
v 0.004081 0.023852 -0.225001
v -0.006346 0.045370 -0.221613
v -0.022587 0.062446 -0.216336
v -0.043051 0.073410 -0.209686
v -0.065736 0.077188 -0.202316
v -0.088421 0.073410 -0.194945
v -0.108886 0.062446 -0.188296
v -0.125126 0.045370 -0.183019
v -0.135553 0.023852 -0.179631
v -0.139146 0.000000 -0.178463
v -0.135553 -0.023852 -0.179631
v -0.125126 -0.045370 -0.183019
v -0.108886 -0.062446 -0.188296
v -0.088421 -0.073410 -0.194945
v -0.065736 -0.077188 -0.202316
v -0.043051 -0.073410 -0.209686
v -0.022587 -0.062446 -0.216336
v -0.006346 -0.045370 -0.221613
v 0.004081 -0.023852 -0.225001
v 0.014882 0.000000 -0.194099
v 0.011431 0.022908 -0.192977
v 0.001417 0.043574 -0.189724
v -0.014181 0.059975 -0.184655
v -0.033836 0.070505 -0.178269
v -0.055623 0.074133 -0.171190
v -0.077410 0.070505 -0.164111
v -0.097065 0.059975 -0.157725
v -0.112663 0.043574 -0.152657
v -0.122677 0.022908 -0.149403
v -0.126128 0.000000 -0.148282
v -0.122677 -0.022908 -0.149403
v -0.112663 -0.043574 -0.152657
v -0.097065 -0.059975 -0.157725
v -0.077410 -0.070505 -0.164111
v -0.055623 -0.074133 -0.171190
v -0.033836 -0.070505 -0.178269
v -0.014181 -0.059975 -0.184655
v 0.001417 -0.043574 -0.189724
v 0.011431 -0.022908 -0.192977
v 0.022090 0.000000 -0.162029
v 0.018782 0.021965 -0.160954
v 0.009180 0.041779 -0.157834
v -0.005776 0.057504 -0.152975
v -0.024620 0.067600 -0.146852
v -0.045510 0.071079 -0.140065
v -0.066399 0.067600 -0.133277
v -0.085244 0.057504 -0.127154
v -0.100199 0.041779 -0.122295
v -0.109801 0.021965 -0.119175
v -0.113110 0.000000 -0.118100
v -0.109801 -0.021965 -0.119175
v -0.100199 -0.041779 -0.122295
v -0.085244 -0.057504 -0.127154
v -0.066399 -0.067600 -0.133277
v -0.045510 -0.071079 -0.140065
v -0.024620 -0.067600 -0.146852
v -0.005776 -0.057504 -0.152975
v 0.009180 -0.041779 -0.157834
v 0.018782 -0.021965 -0.160954
v 0.029298 0.000000 -0.129960
v 0.026132 0.021021 -0.128931
v 0.016943 0.039984 -0.125945
v 0.002630 0.055033 -0.121295
v -0.015405 0.064695 -0.115435
v -0.035396 0.068024 -0.108939
v -0.055388 0.064695 -0.102443
v -0.073423 0.055033 -0.096584
v -0.087736 0.039984 -0.091933
v -0.096925 0.021021 -0.088947
v -0.100091 0.000000 -0.087919
v -0.096925 -0.021021 -0.088947
v -0.087736 -0.039984 -0.091933
v -0.073423 -0.055033 -0.096584
v -0.055388 -0.064695 -0.102443
v -0.035396 -0.068024 -0.108939
v -0.015405 -0.064695 -0.115435
v 0.002630 -0.055033 -0.121295
v 0.016943 -0.039984 -0.125945
v 0.026132 -0.021021 -0.128931
v 0.036507 0.000000 -0.097890
v 0.033482 0.020077 -0.096908
v 0.024706 0.038188 -0.094056
v 0.011036 0.052562 -0.089615
v -0.006189 0.061790 -0.084018
v -0.025283 0.064970 -0.077814
v -0.044377 0.061790 -0.071610
v -0.061602 0.052562 -0.066013
v -0.075272 0.038188 -0.061571
v -0.084049 0.020077 -0.058720
v -0.087073 0.000000 -0.057737
v -0.084049 -0.020077 -0.058720
v -0.075272 -0.038188 -0.061571
v -0.061602 -0.052562 -0.066013
v -0.044377 -0.061790 -0.071610
v -0.025283 -0.064970 -0.077814
v -0.006189 -0.061790 -0.084018
v 0.011036 -0.052562 -0.089615
v 0.024706 -0.038188 -0.094056
v 0.033482 -0.020077 -0.096908
v 0.043875 0.000000 -0.065873
v 0.040985 0.019185 -0.064934
v 0.032599 0.036492 -0.062209
v 0.019536 0.050227 -0.057965
v 0.003076 0.059045 -0.052617
v -0.015170 0.062084 -0.046688
v -0.033416 0.059045 -0.040760
v -0.049876 0.050227 -0.035412
v -0.062938 0.036492 -0.031167
v -0.071325 0.019185 -0.028442
v -0.074215 0.000000 -0.027503
v -0.071325 -0.019185 -0.028442
v -0.062938 -0.036492 -0.031167
v -0.049876 -0.050227 -0.035412
v -0.033416 -0.059045 -0.040760
v -0.015170 -0.062084 -0.046688
v 0.003076 -0.059045 -0.052617
v 0.019536 -0.050227 -0.057965
v 0.032599 -0.036492 -0.062209
v 0.040985 -0.019185 -0.064934
v 0.056852 0.000000 -0.035678
v 0.053822 0.020115 -0.034694
v 0.045028 0.038262 -0.031836
v 0.031332 0.052663 -0.027386
v 0.014074 0.061909 -0.021779
v -0.005057 0.065095 -0.015563
v -0.024187 0.061909 -0.009347
v -0.041446 0.052663 -0.003739
v -0.055142 0.038262 0.000711
v -0.063935 0.020115 0.003568
v -0.066965 0.000000 0.004553
v -0.063935 -0.020115 0.003568
v -0.055142 -0.038262 0.000711
v -0.041446 -0.052663 -0.003739
v -0.024187 -0.061909 -0.009347
v -0.005057 -0.065095 -0.015563
v 0.014074 -0.061909 -0.021779
v 0.031332 -0.052663 -0.027386
v 0.045028 -0.038262 -0.031836
v 0.053822 -0.020115 -0.034694
v 0.069829 0.000000 -0.005483
v 0.066659 0.021046 -0.004453
v 0.057458 0.040031 -0.001464
v 0.043129 0.055098 0.003192
v 0.025072 0.064772 0.009059
v 0.005057 0.068105 0.015563
v -0.014959 0.064772 0.022066
v -0.033015 0.055098 0.027933
v -0.047345 0.040031 0.032589
v -0.056545 0.021046 0.035578
v -0.059715 0.000000 0.036608
v -0.056545 -0.021046 0.035578
v -0.047345 -0.040031 0.032589
v -0.033015 -0.055098 0.027933
v -0.014959 -0.064772 0.022066
v 0.005057 -0.068105 0.015563
v 0.025072 -0.064772 0.009059
v 0.043129 -0.055098 0.003192
v 0.057458 -0.040031 -0.001464
v 0.066659 -0.021046 -0.004453
v 0.082806 0.000000 0.024712
v 0.079495 0.021976 0.025788
v 0.069888 0.041801 0.028909
v 0.054925 0.057534 0.033771
v 0.036071 0.067636 0.039897
v 0.015170 0.071116 0.046688
v -0.005731 0.067636 0.053479
v -0.024585 0.057534 0.059605
v -0.039548 0.041801 0.064467
v -0.049155 0.021976 0.067589
v -0.052466 0.000000 0.068664
v -0.049155 -0.021976 0.067589
v -0.039548 -0.041801 0.064467
v -0.024585 -0.057534 0.059605
v -0.005731 -0.067636 0.053479
v 0.015170 -0.071116 0.046688
v 0.036071 -0.067636 0.039897
v 0.054925 -0.057534 0.033771
v 0.069888 -0.041801 0.028909
v 0.079495 -0.021976 0.025788
v 0.095782 0.000000 0.054907
v 0.092332 0.022907 0.056028
v 0.082318 0.043571 0.059282
v 0.066722 0.059970 0.064350
v 0.047069 0.070499 0.070735
v 0.025283 0.074127 0.077814
v 0.003498 0.070499 0.084892
v -0.016155 0.059970 0.091278
v -0.031752 0.043571 0.096346
v -0.041766 0.022907 0.099599
v -0.045216 0.000000 0.100720
v -0.041766 -0.022907 0.099599
v -0.031752 -0.043571 0.096346
v -0.016155 -0.059970 0.091278
v 0.003498 -0.070499 0.084892
v 0.025283 -0.074127 0.077814
v 0.047069 -0.070499 0.070735
v 0.066722 -0.059970 0.064350
v 0.082318 -0.043571 0.059282
v 0.092332 -0.022907 0.056028
v 0.108759 0.000000 0.085102
v 0.105169 0.023837 0.086269
v 0.094748 0.045341 0.089655
v 0.078518 0.062406 0.094928
v 0.058067 0.073363 0.101573
v 0.035396 0.077138 0.108939
v 0.012726 0.073363 0.116305
v -0.007725 0.062406 0.122950
v -0.023955 0.045341 0.128224
v -0.034376 0.023837 0.131610
v -0.037966 0.000000 0.132776
v -0.034376 -0.023837 0.131610
v -0.023955 -0.045341 0.128224
v -0.007725 -0.062406 0.122950
v 0.012726 -0.073363 0.116305
v 0.035396 -0.077138 0.108939
v 0.058067 -0.073363 0.101573
v 0.078518 -0.062406 0.094928
v 0.094748 -0.045341 0.089655
v 0.105169 -0.023837 0.086269
v 0.121736 0.000000 0.115297
v 0.118005 0.024767 0.116509
v 0.107178 0.047110 0.120027
v 0.090314 0.064842 0.125507
v 0.069065 0.076226 0.132411
v 0.045510 0.080149 0.140065
v 0.021955 0.076226 0.147718
v 0.000705 0.064842 0.154623
v -0.016159 0.047110 0.160102
v -0.026986 0.024767 0.163620
v -0.030717 0.000000 0.164832
v -0.026986 -0.024767 0.163620
v -0.016159 -0.047110 0.160102
v 0.000705 -0.064842 0.154623
v 0.021955 -0.076226 0.147718
v 0.045510 -0.080149 0.140065
v 0.069065 -0.076226 0.132411
v 0.090314 -0.064842 0.125507
v 0.107178 -0.047110 0.120027
v 0.118005 -0.024767 0.116509
v 0.134713 0.000000 0.145492
v 0.130842 0.025698 0.146750
v 0.119608 0.048880 0.150400
v 0.102111 0.067278 0.156085
v 0.080063 0.079090 0.163249
v 0.055623 0.083160 0.171190
v 0.031183 0.079090 0.179131
v 0.009135 0.067278 0.186295
v -0.008362 0.048880 0.191980
v -0.019596 0.025698 0.195630
v -0.023467 0.000000 0.196888
v -0.019596 -0.025698 0.195630
v -0.008362 -0.048880 0.191980
v 0.009135 -0.067278 0.186295
v 0.031183 -0.079090 0.179131
v 0.055623 -0.083160 0.171190
v 0.080063 -0.079090 0.163249
v 0.102111 -0.067278 0.156085
v 0.119608 -0.048880 0.150400
v 0.130842 -0.025698 0.146750
v 0.146057 0.000000 0.176218
v 0.142126 0.026098 0.177495
v 0.130717 0.049641 0.181202
v 0.112948 0.068325 0.186976
v 0.090557 0.080321 0.194251
v 0.065736 0.084455 0.202316
v 0.040916 0.080321 0.210380
v 0.018525 0.068325 0.217656
v 0.000755 0.049641 0.223429
v -0.010654 0.026098 0.227136
v -0.014585 0.000000 0.228414
v -0.010654 -0.026098 0.227136
v 0.000755 -0.049641 0.223429
v 0.018525 -0.068325 0.217656
v 0.040916 -0.080321 0.210380
v 0.065736 -0.084455 0.202316
v 0.090557 -0.080321 0.194251
v 0.112948 -0.068325 0.186976
v 0.130717 -0.049641 0.181202
v 0.142126 -0.026098 0.177495
v 0.154837 0.000000 0.207777
v 0.150971 0.025664 0.209033
v 0.139752 0.048817 0.212678
v 0.122277 0.067190 0.218356
v 0.100258 0.078987 0.225510
v 0.075850 0.083052 0.233441
v 0.051441 0.078987 0.241372
v 0.029422 0.067190 0.248526
v 0.011948 0.048817 0.254204
v 0.000728 0.025664 0.257850
v -0.003137 0.000000 0.259106
v 0.000728 -0.025664 0.257850
v 0.011948 -0.048817 0.254204
v 0.029422 -0.067190 0.248526
v 0.051441 -0.078987 0.241372
v 0.075850 -0.083052 0.233441
v 0.100258 -0.078987 0.225510
v 0.122277 -0.067190 0.218356
v 0.139752 -0.048817 0.212678
v 0.150971 -0.025664 0.209033
v 0.163616 0.000000 0.239336
v 0.159815 0.025231 0.240570
v 0.148786 0.047992 0.244154
v 0.131606 0.066056 0.249736
v 0.109959 0.077653 0.256770
v 0.085963 0.081649 0.264567
v 0.061967 0.077653 0.272363
v 0.040320 0.066056 0.279397
v 0.023140 0.047992 0.284979
v 0.012110 0.025231 0.288563
v 0.008310 0.000000 0.289798
v 0.012110 -0.025231 0.288563
v 0.023140 -0.047992 0.284979
v 0.040320 -0.066056 0.279397
v 0.061967 -0.077653 0.272363
v 0.085963 -0.081649 0.264567
v 0.109959 -0.077653 0.256770
v 0.131606 -0.066056 0.249736
v 0.148786 -0.047992 0.244154
v 0.159815 -0.025231 0.240570
v 0.172395 0.000000 0.270895
v 0.168660 0.024798 0.272108
v 0.157820 0.047168 0.275630
v 0.140935 0.064921 0.281116
v 0.119660 0.076319 0.288029
v 0.096076 0.080247 0.295692
v 0.072492 0.076319 0.303355
v 0.051217 0.064921 0.310268
v 0.034333 0.047168 0.315754
v 0.023492 0.024798 0.319276
v 0.019757 0.000000 0.320490
v 0.023492 -0.024798 0.319276
v 0.034333 -0.047168 0.315754
v 0.051217 -0.064921 0.310268
v 0.072492 -0.076319 0.303355
v 0.096076 -0.080247 0.295692
v 0.119660 -0.076319 0.288029
v 0.140935 -0.064921 0.281116
v 0.157820 -0.047168 0.275630
v 0.168660 -0.024798 0.272108
v 0.181175 0.000000 0.302453
v 0.177505 0.024364 0.303646
v 0.166854 0.046343 0.307107
v 0.150265 0.063786 0.312497
v 0.129361 0.074985 0.319289
v 0.106189 0.078844 0.326818
v 0.083018 0.074985 0.334347
v 0.062114 0.063786 0.341139
v 0.045525 0.046343 0.346529
v 0.034874 0.024364 0.349989
v 0.031204 0.000000 0.351182
v 0.034874 -0.024364 0.349989
v 0.045525 -0.046343 0.346529
v 0.062114 -0.063786 0.341139
v 0.083018 -0.074985 0.334347
v 0.106189 -0.078844 0.326818
v 0.129361 -0.074985 0.319289
v 0.150265 -0.063786 0.312497
v 0.166854 -0.046343 0.307107
v 0.177505 -0.024364 0.303646
v 0.189954 0.000000 0.334012
v 0.186349 0.023931 0.335184
v 0.175888 0.045519 0.338583
v 0.159594 0.062652 0.343877
v 0.139062 0.073651 0.350548
v 0.116303 0.077442 0.357943
v 0.093543 0.073651 0.365338
v 0.073012 0.062652 0.372009
v 0.056718 0.045519 0.377303
v 0.046256 0.023931 0.380703
v 0.042651 0.000000 0.381874
v 0.046256 -0.023931 0.380703
v 0.056718 -0.045519 0.377303
v 0.073012 -0.062652 0.372009
v 0.093543 -0.073651 0.365338
v 0.116303 -0.077442 0.357943
v 0.139062 -0.073651 0.350548
v 0.159594 -0.062652 0.343877
v 0.175888 -0.045519 0.338583
v 0.186349 -0.023931 0.335184
v 0.198733 0.000000 0.365571
v 0.195194 0.023497 0.366721
v 0.184922 0.044695 0.370059
v 0.168923 0.061517 0.375257
v 0.148763 0.072317 0.381808
v 0.126416 0.076039 0.389069
v 0.104069 0.072317 0.396330
v 0.083909 0.061517 0.402880
v 0.067910 0.044695 0.408078
v 0.057638 0.023497 0.411416
v 0.054099 0.000000 0.412566
v 0.057638 -0.023497 0.411416
v 0.067910 -0.044695 0.408078
v 0.083909 -0.061517 0.402880
v 0.104069 -0.072317 0.396330
v 0.126416 -0.076039 0.389069
v 0.148763 -0.072317 0.381808
v 0.168923 -0.061517 0.375257
v 0.184922 -0.044695 0.370059
v 0.195194 -0.023497 0.366721
v 0.207513 0.000000 0.397130
v 0.204039 0.023064 0.398259
v 0.193956 0.043870 0.401535
v 0.178252 0.060382 0.406637
v 0.158464 0.070983 0.413067
v 0.136529 0.074636 0.420194
v 0.114594 0.070983 0.427321
v 0.094806 0.060382 0.433751
v 0.079103 0.043870 0.438853
v 0.069020 0.023064 0.442129
v 0.065546 0.000000 0.443258
v 0.069020 -0.023064 0.442129
v 0.079103 -0.043870 0.438853
v 0.094806 -0.060382 0.433751
v 0.114594 -0.070983 0.427321
v 0.136529 -0.074636 0.420194
v 0.158464 -0.070983 0.413067
v 0.178252 -0.060382 0.406637
v 0.193956 -0.043870 0.401535
v 0.204039 -0.023064 0.398259
v 0.216292 0.000000 0.428689
v 0.212883 0.022630 0.429797
v 0.202990 0.043046 0.433011
v 0.187582 0.059247 0.438018
v 0.168165 0.069649 0.444326
v 0.146643 0.073234 0.451320
v 0.125120 0.069649 0.458313
v 0.105704 0.059247 0.464621
v 0.090295 0.043046 0.469628
v 0.080402 0.022630 0.472842
v 0.076993 0.000000 0.473950
v 0.080402 -0.022630 0.472842
v 0.090295 -0.043046 0.469628
v 0.105704 -0.059247 0.464621
v 0.125120 -0.069649 0.458313
v 0.146643 -0.073234 0.451320
v 0.168165 -0.069649 0.444326
v 0.187582 -0.059247 0.438018
v 0.202990 -0.043046 0.433011
v 0.212883 -0.022630 0.429797
v 0.225071 0.000000 0.460248
v 0.221728 0.022197 0.461334
v 0.212024 0.042221 0.464487
v 0.196911 0.058113 0.469398
v 0.177867 0.068316 0.475586
v 0.156756 0.071831 0.482445
v 0.135645 0.068316 0.489304
v 0.116601 0.058113 0.495492
v 0.101487 0.042221 0.500403
v 0.091784 0.022197 0.503556
v 0.088440 0.000000 0.504642
v 0.091784 -0.022197 0.503556
v 0.101487 -0.042221 0.500403
v 0.116601 -0.058113 0.495492
v 0.135645 -0.068316 0.489304
v 0.156756 -0.071831 0.482445
v 0.177867 -0.068316 0.475586
v 0.196911 -0.058113 0.469398
v 0.212024 -0.042221 0.464487
v 0.221728 -0.022197 0.461334
v 0.233851 0.000000 0.491807
v 0.230572 0.021764 0.492872
v 0.221058 0.041397 0.495963
v 0.206240 0.056978 0.500778
v 0.187568 0.066982 0.506845
v 0.166869 0.070429 0.513571
v 0.146171 0.066982 0.520296
v 0.127498 0.056978 0.526363
v 0.112680 0.041397 0.531178
v 0.103166 0.021764 0.534269
v 0.099888 0.000000 0.535334
v 0.103166 -0.021764 0.534269
v 0.112680 -0.041397 0.531178
v 0.127498 -0.056978 0.526363
v 0.146171 -0.066982 0.520296
v 0.166869 -0.070429 0.513571
v 0.187568 -0.066982 0.506845
v 0.206240 -0.056978 0.500778
v 0.221058 -0.041397 0.495963
v 0.230572 -0.021764 0.492872
v 0.242321 0.000000 0.523466
v 0.239123 0.021230 0.524505
v 0.229843 0.040382 0.527521
v 0.215388 0.055581 0.532217
v 0.197173 0.065339 0.538136
v 0.176982 0.068701 0.544696
v 0.156792 0.065339 0.551256
v 0.138577 0.055581 0.557175
v 0.124122 0.040382 0.561871
v 0.114842 0.021230 0.564887
v 0.111644 0.000000 0.565926
v 0.114842 -0.021230 0.564887
v 0.124122 -0.040382 0.561871
v 0.138577 -0.055581 0.557175
v 0.156792 -0.065339 0.551256
v 0.176982 -0.068701 0.544696
v 0.197173 -0.065339 0.538136
v 0.215388 -0.055581 0.532217
v 0.229843 -0.040382 0.527521
v 0.239123 -0.021230 0.524505
v 0.250656 0.000000 0.555170
v 0.247545 0.020652 0.556180
v 0.238517 0.039282 0.559114
v 0.224456 0.054068 0.563683
v 0.206737 0.063560 0.569440
v 0.187096 0.066831 0.575821
v 0.167455 0.063560 0.582203
v 0.149736 0.054068 0.587960
v 0.135674 0.039282 0.592529
v 0.126646 0.020652 0.595463
v 0.123536 0.000000 0.596473
v 0.126646 -0.020652 0.595463
v 0.135674 -0.039282 0.592529
v 0.149736 -0.054068 0.587960
v 0.167455 -0.063560 0.582203
v 0.187096 -0.066831 0.575821
v 0.206737 -0.063560 0.569440
v 0.224456 -0.054068 0.563683
v 0.238517 -0.039282 0.559114
v 0.247545 -0.020652 0.556180
v 0.258991 0.000000 0.586873
v 0.255967 0.020074 0.587855
v 0.247191 0.038183 0.590707
v 0.233523 0.052555 0.595148
v 0.216301 0.061782 0.600744
v 0.197209 0.064961 0.606947
v 0.178117 0.061782 0.613150
v 0.160895 0.052555 0.618746
v 0.147227 0.038183 0.623187
v 0.138451 0.020074 0.626039
v 0.135427 0.000000 0.627021
v 0.138451 -0.020074 0.626039
v 0.147227 -0.038183 0.623187
v 0.160895 -0.052555 0.618746
v 0.178117 -0.061782 0.613150
v 0.197209 -0.064961 0.606947
v 0.216301 -0.061782 0.600744
v 0.233523 -0.052555 0.595148
v 0.247191 -0.038183 0.590707
v 0.255967 -0.020074 0.587855
v 0.267325 0.000000 0.618576
v 0.264389 0.019496 0.619531
v 0.255866 0.037084 0.622300
v 0.242591 0.051042 0.626613
v 0.225864 0.060003 0.632048
v 0.207322 0.063091 0.638072
v 0.188780 0.060003 0.644097
v 0.172053 0.051042 0.649532
v 0.158779 0.037084 0.653845
v 0.150256 0.019496 0.656614
v 0.147319 0.000000 0.657569
v 0.150256 -0.019496 0.656614
v 0.158779 -0.037084 0.653845
v 0.172053 -0.051042 0.649532
v 0.188780 -0.060003 0.644097
v 0.207322 -0.063091 0.638072
v 0.225864 -0.060003 0.632048
v 0.242591 -0.051042 0.626613
v 0.255866 -0.037084 0.622300
v 0.264389 -0.019496 0.619531
v 0.275660 0.000000 0.650280
v 0.272810 0.018918 0.651206
v 0.264540 0.035985 0.653893
v 0.251659 0.049529 0.658078
v 0.235428 0.058224 0.663352
v 0.217436 0.061221 0.669198
v 0.199443 0.058224 0.675044
v 0.183212 0.049529 0.680318
v 0.170331 0.035985 0.684503
v 0.162061 0.018918 0.687190
v 0.159211 0.000000 0.688116
v 0.162061 -0.018918 0.687190
v 0.170331 -0.035985 0.684503
v 0.183212 -0.049529 0.680318
v 0.199443 -0.058224 0.675044
v 0.217436 -0.061221 0.669198
v 0.235428 -0.058224 0.663352
v 0.251659 -0.049529 0.658078
v 0.264540 -0.035985 0.653893
v 0.272810 -0.018918 0.651206
v 0.283995 0.000000 0.681983
v 0.281232 0.018340 0.682881
v 0.273215 0.034885 0.685486
v 0.260727 0.048016 0.689543
v 0.244992 0.056446 0.694656
v 0.227549 0.059351 0.700323
v 0.210106 0.056446 0.705991
v 0.194371 0.048016 0.711104
v 0.181883 0.034885 0.715161
v 0.173866 0.018340 0.717766
v 0.171103 0.000000 0.718664
v 0.173866 -0.018340 0.717766
v 0.181883 -0.034885 0.715161
v 0.194371 -0.048016 0.711104
v 0.210106 -0.056446 0.705991
v 0.227549 -0.059351 0.700323
v 0.244992 -0.056446 0.694656
v 0.260727 -0.048016 0.689543
v 0.273215 -0.034885 0.685486
v 0.281232 -0.018340 0.682881
v 0.292329 0.000000 0.713686
v 0.289654 0.017762 0.714556
v 0.281889 0.033786 0.717079
v 0.269795 0.046503 0.721008
v 0.254555 0.054667 0.725960
v 0.237662 0.057481 0.731449
v 0.220769 0.054667 0.736938
v 0.205530 0.046503 0.741889
v 0.193435 0.033786 0.745819
v 0.185671 0.017762 0.748342
v 0.182995 0.000000 0.749211
v 0.185671 -0.017762 0.748342
v 0.193435 -0.033786 0.745819
v 0.205530 -0.046503 0.741889
v 0.220769 -0.054667 0.736938
v 0.237662 -0.057481 0.731449
v 0.254555 -0.054667 0.725960
v 0.269795 -0.046503 0.721008
v 0.281889 -0.033786 0.717079
v 0.289654 -0.017762 0.714556
v 0.300664 0.000000 0.745390
v 0.298076 0.017185 0.746231
v 0.290563 0.032687 0.748672
v 0.278863 0.044990 0.752474
v 0.264119 0.052889 0.757264
v 0.247775 0.055610 0.762574
v 0.231432 0.052889 0.767885
v 0.216688 0.044990 0.772675
v 0.204988 0.032687 0.776477
v 0.197475 0.017185 0.778918
v 0.194887 0.000000 0.779759
v 0.197475 -0.017185 0.778918
v 0.204988 -0.032687 0.776477
v 0.216688 -0.044990 0.772675
v 0.231432 -0.052889 0.767885
v 0.247775 -0.055610 0.762574
v 0.264119 -0.052889 0.757264
v 0.278863 -0.044990 0.752474
v 0.290563 -0.032687 0.748672
v 0.298076 -0.017185 0.746231
v 0.308999 0.000000 0.777093
v 0.306497 0.016607 0.777906
v 0.299238 0.031588 0.780265
v 0.287930 0.043477 0.783939
v 0.273683 0.051110 0.788568
v 0.257889 0.053740 0.793700
v 0.242095 0.051110 0.798832
v 0.227847 0.043477 0.803461
v 0.216540 0.031588 0.807135
v 0.209280 0.016607 0.809494
v 0.206779 0.000000 0.810307
v 0.209280 -0.016607 0.809494
v 0.216540 -0.031588 0.807135
v 0.227847 -0.043477 0.803461
v 0.242095 -0.051110 0.798832
v 0.257889 -0.053740 0.793700
v 0.273683 -0.051110 0.788568
v 0.287930 -0.043477 0.783939
v 0.299238 -0.031588 0.780265
v 0.306497 -0.016607 0.777906
v 0.317333 0.000000 0.808797
v 0.314919 0.016029 0.809581
v 0.307912 0.030488 0.811858
v 0.296998 0.041964 0.815404
v 0.283246 0.049331 0.819872
v 0.268002 0.051870 0.824825
v 0.252758 0.049331 0.829779
v 0.239006 0.041964 0.834247
v 0.228092 0.030488 0.837793
v 0.221085 0.016029 0.840070
v 0.218671 0.000000 0.840854
v 0.221085 -0.016029 0.840070
v 0.228092 -0.030488 0.837793
v 0.239006 -0.041964 0.834247
v 0.252758 -0.049331 0.829779
v 0.268002 -0.051870 0.824825
v 0.283246 -0.049331 0.819872
v 0.296998 -0.041964 0.815404
v 0.307912 -0.030488 0.811858
v 0.314919 -0.016029 0.809581
v 0.325668 0.000000 0.840500
v 0.323341 0.015451 0.841256
v 0.316586 0.029389 0.843451
v 0.306066 0.040451 0.846869
v 0.292810 0.047553 0.851176
v 0.278115 0.050000 0.855951
v 0.263421 0.047553 0.860725
v 0.250164 0.040451 0.865033
v 0.239644 0.029389 0.868451
v 0.232890 0.015451 0.870645
v 0.230562 0.000000 0.871402
v 0.232890 -0.015451 0.870645
v 0.239644 -0.029389 0.868451
v 0.250164 -0.040451 0.865033
v 0.263421 -0.047553 0.860725
v 0.278115 -0.050000 0.855951
v 0.292810 -0.047553 0.851176
v 0.306066 -0.040451 0.846869
v 0.316586 -0.029389 0.843451
v 0.323341 -0.015451 0.841256
f 1 2 22
f 1 22 21
f 2 3 23
f 2 23 22
f 3 4 24
f 3 24 23
f 4 5 25
f 4 25 24
f 5 6 26
f 5 26 25
f 6 7 27
f 6 27 26
f 7 8 28
f 7 28 27
f 8 9 29
f 8 29 28
f 9 10 30
f 9 30 29
f 10 11 31
f 10 31 30
f 11 12 32
f 11 32 31
f 12 13 33
f 12 33 32
f 13 14 34
f 13 34 33
f 14 15 35
f 14 35 34
f 15 16 36
f 15 36 35
f 16 17 37
f 16 37 36
f 17 18 38
f 17 38 37
f 18 19 39
f 18 39 38
f 19 20 40
f 19 40 39
f 20 1 21
f 20 21 40
f 21 22 42
f 21 42 41
f 22 23 43
f 22 43 42
f 23 24 44
f 23 44 43
f 24 25 45
f 24 45 44
f 25 26 46
f 25 46 45
f 26 27 47
f 26 47 46
f 27 28 48
f 27 48 47
f 28 29 49
f 28 49 48
f 29 30 50
f 29 50 49
f 30 31 51
f 30 51 50
f 31 32 52
f 31 52 51
f 32 33 53
f 32 53 52
f 33 34 54
f 33 54 53
f 34 35 55
f 34 55 54
f 35 36 56
f 35 56 55
f 36 37 57
f 36 57 56
f 37 38 58
f 37 58 57
f 38 39 59
f 38 59 58
f 39 40 60
f 39 60 59
f 40 21 41
f 40 41 60
f 41 42 62
f 41 62 61
f 42 43 63
f 42 63 62
f 43 44 64
f 43 64 63
f 44 45 65
f 44 65 64
f 45 46 66
f 45 66 65
f 46 47 67
f 46 67 66
f 47 48 68
f 47 68 67
f 48 49 69
f 48 69 68
f 49 50 70
f 49 70 69
f 50 51 71
f 50 71 70
f 51 52 72
f 51 72 71
f 52 53 73
f 52 73 72
f 53 54 74
f 53 74 73
f 54 55 75
f 54 75 74
f 55 56 76
f 55 76 75
f 56 57 77
f 56 77 76
f 57 58 78
f 57 78 77
f 58 59 79
f 58 79 78
f 59 60 80
f 59 80 79
f 60 41 61
f 60 61 80
f 61 62 82
f 61 82 81
f 62 63 83
f 62 83 82
f 63 64 84
f 63 84 83
f 64 65 85
f 64 85 84
f 65 66 86
f 65 86 85
f 66 67 87
f 66 87 86
f 67 68 88
f 67 88 87
f 68 69 89
f 68 89 88
f 69 70 90
f 69 90 89
f 70 71 91
f 70 91 90
f 71 72 92
f 71 92 91
f 72 73 93
f 72 93 92
f 73 74 94
f 73 94 93
f 74 75 95
f 74 95 94
f 75 76 96
f 75 96 95
f 76 77 97
f 76 97 96
f 77 78 98
f 77 98 97
f 78 79 99
f 78 99 98
f 79 80 100
f 79 100 99
f 80 61 81
f 80 81 100
f 81 82 102
f 81 102 101
f 82 83 103
f 82 103 102
f 83 84 104
f 83 104 103
f 84 85 105
f 84 105 104
f 85 86 106
f 85 106 105
f 86 87 107
f 86 107 106
f 87 88 108
f 87 108 107
f 88 89 109
f 88 109 108
f 89 90 110
f 89 110 109
f 90 91 111
f 90 111 110
f 91 92 112
f 91 112 111
f 92 93 113
f 92 113 112
f 93 94 114
f 93 114 113
f 94 95 115
f 94 115 114
f 95 96 116
f 95 116 115
f 96 97 117
f 96 117 116
f 97 98 118
f 97 118 117
f 98 99 119
f 98 119 118
f 99 100 120
f 99 120 119
f 100 81 101
f 100 101 120
f 101 102 122
f 101 122 121
f 102 103 123
f 102 123 122
f 103 104 124
f 103 124 123
f 104 105 125
f 104 125 124
f 105 106 126
f 105 126 125
f 106 107 127
f 106 127 126
f 107 108 128
f 107 128 127
f 108 109 129
f 108 129 128
f 109 110 130
f 109 130 129
f 110 111 131
f 110 131 130
f 111 112 132
f 111 132 131
f 112 113 133
f 112 133 132
f 113 114 134
f 113 134 133
f 114 115 135
f 114 135 134
f 115 116 136
f 115 136 135
f 116 117 137
f 116 137 136
f 117 118 138
f 117 138 137
f 118 119 139
f 118 139 138
f 119 120 140
f 119 140 139
f 120 101 121
f 120 121 140
f 121 122 142
f 121 142 141
f 122 123 143
f 122 143 142
f 123 124 144
f 123 144 143
f 124 125 145
f 124 145 144
f 125 126 146
f 125 146 145
f 126 127 147
f 126 147 146
f 127 128 148
f 127 148 147
f 128 129 149
f 128 149 148
f 129 130 150
f 129 150 149
f 130 131 151
f 130 151 150
f 131 132 152
f 131 152 151
f 132 133 153
f 132 153 152
f 133 134 154
f 133 154 153
f 134 135 155
f 134 155 154
f 135 136 156
f 135 156 155
f 136 137 157
f 136 157 156
f 137 138 158
f 137 158 157
f 138 139 159
f 138 159 158
f 139 140 160
f 139 160 159
f 140 121 141
f 140 141 160
f 141 142 162
f 141 162 161
f 142 143 163
f 142 163 162
f 143 144 164
f 143 164 163
f 144 145 165
f 144 165 164
f 145 146 166
f 145 166 165
f 146 147 167
f 146 167 166
f 147 148 168
f 147 168 167
f 148 149 169
f 148 169 168
f 149 150 170
f 149 170 169
f 150 151 171
f 150 171 170
f 151 152 172
f 151 172 171
f 152 153 173
f 152 173 172
f 153 154 174
f 153 174 173
f 154 155 175
f 154 175 174
f 155 156 176
f 155 176 175
f 156 157 177
f 156 177 176
f 157 158 178
f 157 178 177
f 158 159 179
f 158 179 178
f 159 160 180
f 159 180 179
f 160 141 161
f 160 161 180
f 161 162 182
f 161 182 181
f 162 163 183
f 162 183 182
f 163 164 184
f 163 184 183
f 164 165 185
f 164 185 184
f 165 166 186
f 165 186 185
f 166 167 187
f 166 187 186
f 167 168 188
f 167 188 187
f 168 169 189
f 168 189 188
f 169 170 190
f 169 190 189
f 170 171 191
f 170 191 190
f 171 172 192
f 171 192 191
f 172 173 193
f 172 193 192
f 173 174 194
f 173 194 193
f 174 175 195
f 174 195 194
f 175 176 196
f 175 196 195
f 176 177 197
f 176 197 196
f 177 178 198
f 177 198 197
f 178 179 199
f 178 199 198
f 179 180 200
f 179 200 199
f 180 161 181
f 180 181 200
f 181 182 202
f 181 202 201
f 182 183 203
f 182 203 202
f 183 184 204
f 183 204 203
f 184 185 205
f 184 205 204
f 185 186 206
f 185 206 205
f 186 187 207
f 186 207 206
f 187 188 208
f 187 208 207
f 188 189 209
f 188 209 208
f 189 190 210
f 189 210 209
f 190 191 211
f 190 211 210
f 191 192 212
f 191 212 211
f 192 193 213
f 192 213 212
f 193 194 214
f 193 214 213
f 194 195 215
f 194 215 214
f 195 196 216
f 195 216 215
f 196 197 217
f 196 217 216
f 197 198 218
f 197 218 217
f 198 199 219
f 198 219 218
f 199 200 220
f 199 220 219
f 200 181 201
f 200 201 220
f 201 202 222
f 201 222 221
f 202 203 223
f 202 223 222
f 203 204 224
f 203 224 223
f 204 205 225
f 204 225 224
f 205 206 226
f 205 226 225
f 206 207 227
f 206 227 226
f 207 208 228
f 207 228 227
f 208 209 229
f 208 229 228
f 209 210 230
f 209 230 229
f 210 211 231
f 210 231 230
f 211 212 232
f 211 232 231
f 212 213 233
f 212 233 232
f 213 214 234
f 213 234 233
f 214 215 235
f 214 235 234
f 215 216 236
f 215 236 235
f 216 217 237
f 216 237 236
f 217 218 238
f 217 238 237
f 218 219 239
f 218 239 238
f 219 220 240
f 219 240 239
f 220 201 221
f 220 221 240
f 221 222 242
f 221 242 241
f 222 223 243
f 222 243 242
f 223 224 244
f 223 244 243
f 224 225 245
f 224 245 244
f 225 226 246
f 225 246 245
f 226 227 247
f 226 247 246
f 227 228 248
f 227 248 247
f 228 229 249
f 228 249 248
f 229 230 250
f 229 250 249
f 230 231 251
f 230 251 250
f 231 232 252
f 231 252 251
f 232 233 253
f 232 253 252
f 233 234 254
f 233 254 253
f 234 235 255
f 234 255 254
f 235 236 256
f 235 256 255
f 236 237 257
f 236 257 256
f 237 238 258
f 237 258 257
f 238 239 259
f 238 259 258
f 239 240 260
f 239 260 259
f 240 221 241
f 240 241 260
f 241 242 262
f 241 262 261
f 242 243 263
f 242 263 262
f 243 244 264
f 243 264 263
f 244 245 265
f 244 265 264
f 245 246 266
f 245 266 265
f 246 247 267
f 246 267 266
f 247 248 268
f 247 268 267
f 248 249 269
f 248 269 268
f 249 250 270
f 249 270 269
f 250 251 271
f 250 271 270
f 251 252 272
f 251 272 271
f 252 253 273
f 252 273 272
f 253 254 274
f 253 274 273
f 254 255 275
f 254 275 274
f 255 256 276
f 255 276 275
f 256 257 277
f 256 277 276
f 257 258 278
f 257 278 277
f 258 259 279
f 258 279 278
f 259 260 280
f 259 280 279
f 260 241 261
f 260 261 280
f 261 262 282
f 261 282 281
f 262 263 283
f 262 283 282
f 263 264 284
f 263 284 283
f 264 265 285
f 264 285 284
f 265 266 286
f 265 286 285
f 266 267 287
f 266 287 286
f 267 268 288
f 267 288 287
f 268 269 289
f 268 289 288
f 269 270 290
f 269 290 289
f 270 271 291
f 270 291 290
f 271 272 292
f 271 292 291
f 272 273 293
f 272 293 292
f 273 274 294
f 273 294 293
f 274 275 295
f 274 295 294
f 275 276 296
f 275 296 295
f 276 277 297
f 276 297 296
f 277 278 298
f 277 298 297
f 278 279 299
f 278 299 298
f 279 280 300
f 279 300 299
f 280 261 281
f 280 281 300
f 281 282 302
f 281 302 301
f 282 283 303
f 282 303 302
f 283 284 304
f 283 304 303
f 284 285 305
f 284 305 304
f 285 286 306
f 285 306 305
f 286 287 307
f 286 307 306
f 287 288 308
f 287 308 307
f 288 289 309
f 288 309 308
f 289 290 310
f 289 310 309
f 290 291 311
f 290 311 310
f 291 292 312
f 291 312 311
f 292 293 313
f 292 313 312
f 293 294 314
f 293 314 313
f 294 295 315
f 294 315 314
f 295 296 316
f 295 316 315
f 296 297 317
f 296 317 316
f 297 298 318
f 297 318 317
f 298 299 319
f 298 319 318
f 299 300 320
f 299 320 319
f 300 281 301
f 300 301 320
f 301 302 322
f 301 322 321
f 302 303 323
f 302 323 322
f 303 304 324
f 303 324 323
f 304 305 325
f 304 325 324
f 305 306 326
f 305 326 325
f 306 307 327
f 306 327 326
f 307 308 328
f 307 328 327
f 308 309 329
f 308 329 328
f 309 310 330
f 309 330 329
f 310 311 331
f 310 331 330
f 311 312 332
f 311 332 331
f 312 313 333
f 312 333 332
f 313 314 334
f 313 334 333
f 314 315 335
f 314 335 334
f 315 316 336
f 315 336 335
f 316 317 337
f 316 337 336
f 317 318 338
f 317 338 337
f 318 319 339
f 318 339 338
f 319 320 340
f 319 340 339
f 320 301 321
f 320 321 340
f 321 322 342
f 321 342 341
f 322 323 343
f 322 343 342
f 323 324 344
f 323 344 343
f 324 325 345
f 324 345 344
f 325 326 346
f 325 346 345
f 326 327 347
f 326 347 346
f 327 328 348
f 327 348 347
f 328 329 349
f 328 349 348
f 329 330 350
f 329 350 349
f 330 331 351
f 330 351 350
f 331 332 352
f 331 352 351
f 332 333 353
f 332 353 352
f 333 334 354
f 333 354 353
f 334 335 355
f 334 355 354
f 335 336 356
f 335 356 355
f 336 337 357
f 336 357 356
f 337 338 358
f 337 358 357
f 338 339 359
f 338 359 358
f 339 340 360
f 339 360 359
f 340 321 341
f 340 341 360
f 341 342 362
f 341 362 361
f 342 343 363
f 342 363 362
f 343 344 364
f 343 364 363
f 344 345 365
f 344 365 364
f 345 346 366
f 345 366 365
f 346 347 367
f 346 367 366
f 347 348 368
f 347 368 367
f 348 349 369
f 348 369 368
f 349 350 370
f 349 370 369
f 350 351 371
f 350 371 370
f 351 352 372
f 351 372 371
f 352 353 373
f 352 373 372
f 353 354 374
f 353 374 373
f 354 355 375
f 354 375 374
f 355 356 376
f 355 376 375
f 356 357 377
f 356 377 376
f 357 358 378
f 357 378 377
f 358 359 379
f 358 379 378
f 359 360 380
f 359 380 379
f 360 341 361
f 360 361 380
f 361 362 382
f 361 382 381
f 362 363 383
f 362 383 382
f 363 364 384
f 363 384 383
f 364 365 385
f 364 385 384
f 365 366 386
f 365 386 385
f 366 367 387
f 366 387 386
f 367 368 388
f 367 388 387
f 368 369 389
f 368 389 388
f 369 370 390
f 369 390 389
f 370 371 391
f 370 391 390
f 371 372 392
f 371 392 391
f 372 373 393
f 372 393 392
f 373 374 394
f 373 394 393
f 374 375 395
f 374 395 394
f 375 376 396
f 375 396 395
f 376 377 397
f 376 397 396
f 377 378 398
f 377 398 397
f 378 379 399
f 378 399 398
f 379 380 400
f 379 400 399
f 380 361 381
f 380 381 400
f 381 382 402
f 381 402 401
f 382 383 403
f 382 403 402
f 383 384 404
f 383 404 403
f 384 385 405
f 384 405 404
f 385 386 406
f 385 406 405
f 386 387 407
f 386 407 406
f 387 388 408
f 387 408 407
f 388 389 409
f 388 409 408
f 389 390 410
f 389 410 409
f 390 391 411
f 390 411 410
f 391 392 412
f 391 412 411
f 392 393 413
f 392 413 412
f 393 394 414
f 393 414 413
f 394 395 415
f 394 415 414
f 395 396 416
f 395 416 415
f 396 397 417
f 396 417 416
f 397 398 418
f 397 418 417
f 398 399 419
f 398 419 418
f 399 400 420
f 399 420 419
f 400 381 401
f 400 401 420
f 401 402 422
f 401 422 421
f 402 403 423
f 402 423 422
f 403 404 424
f 403 424 423
f 404 405 425
f 404 425 424
f 405 406 426
f 405 426 425
f 406 407 427
f 406 427 426
f 407 408 428
f 407 428 427
f 408 409 429
f 408 429 428
f 409 410 430
f 409 430 429
f 410 411 431
f 410 431 430
f 411 412 432
f 411 432 431
f 412 413 433
f 412 433 432
f 413 414 434
f 413 434 433
f 414 415 435
f 414 435 434
f 415 416 436
f 415 436 435
f 416 417 437
f 416 437 436
f 417 418 438
f 417 438 437
f 418 419 439
f 418 439 438
f 419 420 440
f 419 440 439
f 420 401 421
f 420 421 440
f 421 422 442
f 421 442 441
f 422 423 443
f 422 443 442
f 423 424 444
f 423 444 443
f 424 425 445
f 424 445 444
f 425 426 446
f 425 446 445
f 426 427 447
f 426 447 446
f 427 428 448
f 427 448 447
f 428 429 449
f 428 449 448
f 429 430 450
f 429 450 449
f 430 431 451
f 430 451 450
f 431 432 452
f 431 452 451
f 432 433 453
f 432 453 452
f 433 434 454
f 433 454 453
f 434 435 455
f 434 455 454
f 435 436 456
f 435 456 455
f 436 437 457
f 436 457 456
f 437 438 458
f 437 458 457
f 438 439 459
f 438 459 458
f 439 440 460
f 439 460 459
f 440 421 441
f 440 441 460
f 441 442 462
f 441 462 461
f 442 443 463
f 442 463 462
f 443 444 464
f 443 464 463
f 444 445 465
f 444 465 464
f 445 446 466
f 445 466 465
f 446 447 467
f 446 467 466
f 447 448 468
f 447 468 467
f 448 449 469
f 448 469 468
f 449 450 470
f 449 470 469
f 450 451 471
f 450 471 470
f 451 452 472
f 451 472 471
f 452 453 473
f 452 473 472
f 453 454 474
f 453 474 473
f 454 455 475
f 454 475 474
f 455 456 476
f 455 476 475
f 456 457 477
f 456 477 476
f 457 458 478
f 457 478 477
f 458 459 479
f 458 479 478
f 459 460 480
f 459 480 479
f 460 441 461
f 460 461 480
f 461 462 482
f 461 482 481
f 462 463 483
f 462 483 482
f 463 464 484
f 463 484 483
f 464 465 485
f 464 485 484
f 465 466 486
f 465 486 485
f 466 467 487
f 466 487 486
f 467 468 488
f 467 488 487
f 468 469 489
f 468 489 488
f 469 470 490
f 469 490 489
f 470 471 491
f 470 491 490
f 471 472 492
f 471 492 491
f 472 473 493
f 472 493 492
f 473 474 494
f 473 494 493
f 474 475 495
f 474 495 494
f 475 476 496
f 475 496 495
f 476 477 497
f 476 497 496
f 477 478 498
f 477 498 497
f 478 479 499
f 478 499 498
f 479 480 500
f 479 500 499
f 480 461 481
f 480 481 500
f 481 482 502
f 481 502 501
f 482 483 503
f 482 503 502
f 483 484 504
f 483 504 503
f 484 485 505
f 484 505 504
f 485 486 506
f 485 506 505
f 486 487 507
f 486 507 506
f 487 488 508
f 487 508 507
f 488 489 509
f 488 509 508
f 489 490 510
f 489 510 509
f 490 491 511
f 490 511 510
f 491 492 512
f 491 512 511
f 492 493 513
f 492 513 512
f 493 494 514
f 493 514 513
f 494 495 515
f 494 515 514
f 495 496 516
f 495 516 515
f 496 497 517
f 496 517 516
f 497 498 518
f 497 518 517
f 498 499 519
f 498 519 518
f 499 500 520
f 499 520 519
f 500 481 501
f 500 501 520
f 501 502 522
f 501 522 521
f 502 503 523
f 502 523 522
f 503 504 524
f 503 524 523
f 504 505 525
f 504 525 524
f 505 506 526
f 505 526 525
f 506 507 527
f 506 527 526
f 507 508 528
f 507 528 527
f 508 509 529
f 508 529 528
f 509 510 530
f 509 530 529
f 510 511 531
f 510 531 530
f 511 512 532
f 511 532 531
f 512 513 533
f 512 533 532
f 513 514 534
f 513 534 533
f 514 515 535
f 514 535 534
f 515 516 536
f 515 536 535
f 516 517 537
f 516 537 536
f 517 518 538
f 517 538 537
f 518 519 539
f 518 539 538
f 519 520 540
f 519 540 539
f 520 501 521
f 520 521 540
f 521 522 542
f 521 542 541
f 522 523 543
f 522 543 542
f 523 524 544
f 523 544 543
f 524 525 545
f 524 545 544
f 525 526 546
f 525 546 545
f 526 527 547
f 526 547 546
f 527 528 548
f 527 548 547
f 528 529 549
f 528 549 548
f 529 530 550
f 529 550 549
f 530 531 551
f 530 551 550
f 531 532 552
f 531 552 551
f 532 533 553
f 532 553 552
f 533 534 554
f 533 554 553
f 534 535 555
f 534 555 554
f 535 536 556
f 535 556 555
f 536 537 557
f 536 557 556
f 537 538 558
f 537 558 557
f 538 539 559
f 538 559 558
f 539 540 560
f 539 560 559
f 540 521 541
f 540 541 560
f 541 542 562
f 541 562 561
f 542 543 563
f 542 563 562
f 543 544 564
f 543 564 563
f 544 545 565
f 544 565 564
f 545 546 566
f 545 566 565
f 546 547 567
f 546 567 566
f 547 548 568
f 547 568 567
f 548 549 569
f 548 569 568
f 549 550 570
f 549 570 569
f 550 551 571
f 550 571 570
f 551 552 572
f 551 572 571
f 552 553 573
f 552 573 572
f 553 554 574
f 553 574 573
f 554 555 575
f 554 575 574
f 555 556 576
f 555 576 575
f 556 557 577
f 556 577 576
f 557 558 578
f 557 578 577
f 558 559 579
f 558 579 578
f 559 560 580
f 559 580 579
f 560 541 561
f 560 561 580
f 561 562 582
f 561 582 581
f 562 563 583
f 562 583 582
f 563 564 584
f 563 584 583
f 564 565 585
f 564 585 584
f 565 566 586
f 565 586 585
f 566 567 587
f 566 587 586
f 567 568 588
f 567 588 587
f 568 569 589
f 568 589 588
f 569 570 590
f 569 590 589
f 570 571 591
f 570 591 590
f 571 572 592
f 571 592 591
f 572 573 593
f 572 593 592
f 573 574 594
f 573 594 593
f 574 575 595
f 574 595 594
f 575 576 596
f 575 596 595
f 576 577 597
f 576 597 596
f 577 578 598
f 577 598 597
f 578 579 599
f 578 599 598
f 579 580 600
f 579 600 599
f 580 561 581
f 580 581 600
f 581 582 602
f 581 602 601
f 582 583 603
f 582 603 602
f 583 584 604
f 583 604 603
f 584 585 605
f 584 605 604
f 585 586 606
f 585 606 605
f 586 587 607
f 586 607 606
f 587 588 608
f 587 608 607
f 588 589 609
f 588 609 608
f 589 590 610
f 589 610 609
f 590 591 611
f 590 611 610
f 591 592 612
f 591 612 611
f 592 593 613
f 592 613 612
f 593 594 614
f 593 614 613
f 594 595 615
f 594 615 614
f 595 596 616
f 595 616 615
f 596 597 617
f 596 617 616
f 597 598 618
f 597 618 617
f 598 599 619
f 598 619 618
f 599 600 620
f 599 620 619
f 600 581 601
f 600 601 620
f 601 602 622
f 601 622 621
f 602 603 623
f 602 623 622
f 603 604 624
f 603 624 623
f 604 605 625
f 604 625 624
f 605 606 626
f 605 626 625
f 606 607 627
f 606 627 626
f 607 608 628
f 607 628 627
f 608 609 629
f 608 629 628
f 609 610 630
f 609 630 629
f 610 611 631
f 610 631 630
f 611 612 632
f 611 632 631
f 612 613 633
f 612 633 632
f 613 614 634
f 613 634 633
f 614 615 635
f 614 635 634
f 615 616 636
f 615 636 635
f 616 617 637
f 616 637 636
f 617 618 638
f 617 638 637
f 618 619 639
f 618 639 638
f 619 620 640
f 619 640 639
f 620 601 621
f 620 621 640
f 621 622 642
f 621 642 641
f 622 623 643
f 622 643 642
f 623 624 644
f 623 644 643
f 624 625 645
f 624 645 644
f 625 626 646
f 625 646 645
f 626 627 647
f 626 647 646
f 627 628 648
f 627 648 647
f 628 629 649
f 628 649 648
f 629 630 650
f 629 650 649
f 630 631 651
f 630 651 650
f 631 632 652
f 631 652 651
f 632 633 653
f 632 653 652
f 633 634 654
f 633 654 653
f 634 635 655
f 634 655 654
f 635 636 656
f 635 656 655
f 636 637 657
f 636 657 656
f 637 638 658
f 637 658 657
f 638 639 659
f 638 659 658
f 639 640 660
f 639 660 659
f 640 621 641
f 640 641 660
f 641 642 662
f 641 662 661
f 642 643 663
f 642 663 662
f 643 644 664
f 643 664 663
f 644 645 665
f 644 665 664
f 645 646 666
f 645 666 665
f 646 647 667
f 646 667 666
f 647 648 668
f 647 668 667
f 648 649 669
f 648 669 668
f 649 650 670
f 649 670 669
f 650 651 671
f 650 671 670
f 651 652 672
f 651 672 671
f 652 653 673
f 652 673 672
f 653 654 674
f 653 674 673
f 654 655 675
f 654 675 674
f 655 656 676
f 655 676 675
f 656 657 677
f 656 677 676
f 657 658 678
f 657 678 677
f 658 659 679
f 658 679 678
f 659 660 680
f 659 680 679
f 660 641 661
f 660 661 680
f 661 662 682
f 661 682 681
f 662 663 683
f 662 683 682
f 663 664 684
f 663 684 683
f 664 665 685
f 664 685 684
f 665 666 686
f 665 686 685
f 666 667 687
f 666 687 686
f 667 668 688
f 667 688 687
f 668 669 689
f 668 689 688
f 669 670 690
f 669 690 689
f 670 671 691
f 670 691 690
f 671 672 692
f 671 692 691
f 672 673 693
f 672 693 692
f 673 674 694
f 673 694 693
f 674 675 695
f 674 695 694
f 675 676 696
f 675 696 695
f 676 677 697
f 676 697 696
f 677 678 698
f 677 698 697
f 678 679 699
f 678 699 698
f 679 680 700
f 679 700 699
f 680 661 681
f 680 681 700
f 681 682 702
f 681 702 701
f 682 683 703
f 682 703 702
f 683 684 704
f 683 704 703
f 684 685 705
f 684 705 704
f 685 686 706
f 685 706 705
f 686 687 707
f 686 707 706
f 687 688 708
f 687 708 707
f 688 689 709
f 688 709 708
f 689 690 710
f 689 710 709
f 690 691 711
f 690 711 710
f 691 692 712
f 691 712 711
f 692 693 713
f 692 713 712
f 693 694 714
f 693 714 713
f 694 695 715
f 694 715 714
f 695 696 716
f 695 716 715
f 696 697 717
f 696 717 716
f 697 698 718
f 697 718 717
f 698 699 719
f 698 719 718
f 699 700 720
f 699 720 719
f 700 681 701
f 700 701 720
f 701 702 722
f 701 722 721
f 702 703 723
f 702 723 722
f 703 704 724
f 703 724 723
f 704 705 725
f 704 725 724
f 705 706 726
f 705 726 725
f 706 707 727
f 706 727 726
f 707 708 728
f 707 728 727
f 708 709 729
f 708 729 728
f 709 710 730
f 709 730 729
f 710 711 731
f 710 731 730
f 711 712 732
f 711 732 731
f 712 713 733
f 712 733 732
f 713 714 734
f 713 734 733
f 714 715 735
f 714 735 734
f 715 716 736
f 715 736 735
f 716 717 737
f 716 737 736
f 717 718 738
f 717 738 737
f 718 719 739
f 718 739 738
f 719 720 740
f 719 740 739
f 720 701 721
f 720 721 740
f 721 722 742
f 721 742 741
f 722 723 743
f 722 743 742
f 723 724 744
f 723 744 743
f 724 725 745
f 724 745 744
f 725 726 746
f 725 746 745
f 726 727 747
f 726 747 746
f 727 728 748
f 727 748 747
f 728 729 749
f 728 749 748
f 729 730 750
f 729 750 749
f 730 731 751
f 730 751 750
f 731 732 752
f 731 752 751
f 732 733 753
f 732 753 752
f 733 734 754
f 733 754 753
f 734 735 755
f 734 755 754
f 735 736 756
f 735 756 755
f 736 737 757
f 736 757 756
f 737 738 758
f 737 758 757
f 738 739 759
f 738 759 758
f 739 740 760
f 739 760 759
f 740 721 741
f 740 741 760
f 741 742 762
f 741 762 761
f 742 743 763
f 742 763 762
f 743 744 764
f 743 764 763
f 744 745 765
f 744 765 764
f 745 746 766
f 745 766 765
f 746 747 767
f 746 767 766
f 747 748 768
f 747 768 767
f 748 749 769
f 748 769 768
f 749 750 770
f 749 770 769
f 750 751 771
f 750 771 770
f 751 752 772
f 751 772 771
f 752 753 773
f 752 773 772
f 753 754 774
f 753 774 773
f 754 755 775
f 754 775 774
f 755 756 776
f 755 776 775
f 756 757 777
f 756 777 776
f 757 758 778
f 757 778 777
f 758 759 779
f 758 779 778
f 759 760 780
f 759 780 779
f 760 741 761
f 760 761 780
f 761 762 782
f 761 782 781
f 762 763 783
f 762 783 782
f 763 764 784
f 763 784 783
f 764 765 785
f 764 785 784
f 765 766 786
f 765 786 785
f 766 767 787
f 766 787 786
f 767 768 788
f 767 788 787
f 768 769 789
f 768 789 788
f 769 770 790
f 769 790 789
f 770 771 791
f 770 791 790
f 771 772 792
f 771 792 791
f 772 773 793
f 772 793 792
f 773 774 794
f 773 794 793
f 774 775 795
f 774 795 794
f 775 776 796
f 775 796 795
f 776 777 797
f 776 797 796
f 777 778 798
f 777 798 797
f 778 779 799
f 778 799 798
f 779 780 800
f 779 800 799
f 780 761 781
f 780 781 800
f 781 782 802
f 781 802 801
f 782 783 803
f 782 803 802
f 783 784 804
f 783 804 803
f 784 785 805
f 784 805 804
f 785 786 806
f 785 806 805
f 786 787 807
f 786 807 806
f 787 788 808
f 787 808 807
f 788 789 809
f 788 809 808
f 789 790 810
f 789 810 809
f 790 791 811
f 790 811 810
f 791 792 812
f 791 812 811
f 792 793 813
f 792 813 812
f 793 794 814
f 793 814 813
f 794 795 815
f 794 815 814
f 795 796 816
f 795 816 815
f 796 797 817
f 796 817 816
f 797 798 818
f 797 818 817
f 798 799 819
f 798 819 818
f 799 800 820
f 799 820 819
f 800 781 801
f 800 801 820
f 801 802 822
f 801 822 821
f 802 803 823
f 802 823 822
f 803 804 824
f 803 824 823
f 804 805 825
f 804 825 824
f 805 806 826
f 805 826 825
f 806 807 827
f 806 827 826
f 807 808 828
f 807 828 827
f 808 809 829
f 808 829 828
f 809 810 830
f 809 830 829
f 810 811 831
f 810 831 830
f 811 812 832
f 811 832 831
f 812 813 833
f 812 833 832
f 813 814 834
f 813 834 833
f 814 815 835
f 814 835 834
f 815 816 836
f 815 836 835
f 816 817 837
f 816 837 836
f 817 818 838
f 817 838 837
f 818 819 839
f 818 839 838
f 819 820 840
f 819 840 839
f 820 801 821
f 820 821 840
f 821 822 842
f 821 842 841
f 822 823 843
f 822 843 842
f 823 824 844
f 823 844 843
f 824 825 845
f 824 845 844
f 825 826 846
f 825 846 845
f 826 827 847
f 826 847 846
f 827 828 848
f 827 848 847
f 828 829 849
f 828 849 848
f 829 830 850
f 829 850 849
f 830 831 851
f 830 851 850
f 831 832 852
f 831 852 851
f 832 833 853
f 832 853 852
f 833 834 854
f 833 854 853
f 834 835 855
f 834 855 854
f 835 836 856
f 835 856 855
f 836 837 857
f 836 857 856
f 837 838 858
f 837 858 857
f 838 839 859
f 838 859 858
f 839 840 860
f 839 860 859
f 840 821 841
f 840 841 860
f 841 842 862
f 841 862 861
f 842 843 863
f 842 863 862
f 843 844 864
f 843 864 863
f 844 845 865
f 844 865 864
f 845 846 866
f 845 866 865
f 846 847 867
f 846 867 866
f 847 848 868
f 847 868 867
f 848 849 869
f 848 869 868
f 849 850 870
f 849 870 869
f 850 851 871
f 850 871 870
f 851 852 872
f 851 872 871
f 852 853 873
f 852 873 872
f 853 854 874
f 853 874 873
f 854 855 875
f 854 875 874
f 855 856 876
f 855 876 875
f 856 857 877
f 856 877 876
f 857 858 878
f 857 878 877
f 858 859 879
f 858 879 878
f 859 860 880
f 859 880 879
f 860 841 861
f 860 861 880
f 861 862 882
f 861 882 881
f 862 863 883
f 862 883 882
f 863 864 884
f 863 884 883
f 864 865 885
f 864 885 884
f 865 866 886
f 865 886 885
f 866 867 887
f 866 887 886
f 867 868 888
f 867 888 887
f 868 869 889
f 868 889 888
f 869 870 890
f 869 890 889
f 870 871 891
f 870 891 890
f 871 872 892
f 871 892 891
f 872 873 893
f 872 893 892
f 873 874 894
f 873 894 893
f 874 875 895
f 874 895 894
f 875 876 896
f 875 896 895
f 876 877 897
f 876 897 896
f 877 878 898
f 877 898 897
f 878 879 899
f 878 899 898
f 879 880 900
f 879 900 899
f 880 861 881
f 880 881 900
f 881 882 902
f 881 902 901
f 882 883 903
f 882 903 902
f 883 884 904
f 883 904 903
f 884 885 905
f 884 905 904
f 885 886 906
f 885 906 905
f 886 887 907
f 886 907 906
f 887 888 908
f 887 908 907
f 888 889 909
f 888 909 908
f 889 890 910
f 889 910 909
f 890 891 911
f 890 911 910
f 891 892 912
f 891 912 911
f 892 893 913
f 892 913 912
f 893 894 914
f 893 914 913
f 894 895 915
f 894 915 914
f 895 896 916
f 895 916 915
f 896 897 917
f 896 917 916
f 897 898 918
f 897 918 917
f 898 899 919
f 898 919 918
f 899 900 920
f 899 920 919
f 900 881 901
f 900 901 920
f 901 902 922
f 901 922 921
f 902 903 923
f 902 923 922
f 903 904 924
f 903 924 923
f 904 905 925
f 904 925 924
f 905 906 926
f 905 926 925
f 906 907 927
f 906 927 926
f 907 908 928
f 907 928 927
f 908 909 929
f 908 929 928
f 909 910 930
f 909 930 929
f 910 911 931
f 910 931 930
f 911 912 932
f 911 932 931
f 912 913 933
f 912 933 932
f 913 914 934
f 913 934 933
f 914 915 935
f 914 935 934
f 915 916 936
f 915 936 935
f 916 917 937
f 916 937 936
f 917 918 938
f 917 938 937
f 918 919 939
f 918 939 938
f 919 920 940
f 919 940 939
f 920 901 921
f 920 921 940
f 921 922 942
f 921 942 941
f 922 923 943
f 922 943 942
f 923 924 944
f 923 944 943
f 924 925 945
f 924 945 944
f 925 926 946
f 925 946 945
f 926 927 947
f 926 947 946
f 927 928 948
f 927 948 947
f 928 929 949
f 928 949 948
f 929 930 950
f 929 950 949
f 930 931 951
f 930 951 950
f 931 932 952
f 931 952 951
f 932 933 953
f 932 953 952
f 933 934 954
f 933 954 953
f 934 935 955
f 934 955 954
f 935 936 956
f 935 956 955
f 936 937 957
f 936 957 956
f 937 938 958
f 937 958 957
f 938 939 959
f 938 959 958
f 939 940 960
f 939 960 959
f 940 921 941
f 940 941 960
f 941 942 962
f 941 962 961
f 942 943 963
f 942 963 962
f 943 944 964
f 943 964 963
f 944 945 965
f 944 965 964
f 945 946 966
f 945 966 965
f 946 947 967
f 946 967 966
f 947 948 968
f 947 968 967
f 948 949 969
f 948 969 968
f 949 950 970
f 949 970 969
f 950 951 971
f 950 971 970
f 951 952 972
f 951 972 971
f 952 953 973
f 952 973 972
f 953 954 974
f 953 974 973
f 954 955 975
f 954 975 974
f 955 956 976
f 955 976 975
f 956 957 977
f 956 977 976
f 957 958 978
f 957 978 977
f 958 959 979
f 958 979 978
f 959 960 980
f 959 980 979
f 960 941 961
f 960 961 980
f 961 962 982
f 961 982 981
f 962 963 983
f 962 983 982
f 963 964 984
f 963 984 983
f 964 965 985
f 964 985 984
f 965 966 986
f 965 986 985
f 966 967 987
f 966 987 986
f 967 968 988
f 967 988 987
f 968 969 989
f 968 989 988
f 969 970 990
f 969 990 989
f 970 971 991
f 970 991 990
f 971 972 992
f 971 992 991
f 972 973 993
f 972 993 992
f 973 974 994
f 973 994 993
f 974 975 995
f 974 995 994
f 975 976 996
f 975 996 995
f 976 977 997
f 976 997 996
f 977 978 998
f 977 998 997
f 978 979 999
f 978 999 998
f 979 980 1000
f 979 1000 999
f 980 961 981
f 980 981 1000
f 981 982 1002
f 981 1002 1001
f 982 983 1003
f 982 1003 1002
f 983 984 1004
f 983 1004 1003
f 984 985 1005
f 984 1005 1004
f 985 986 1006
f 985 1006 1005
f 986 987 1007
f 986 1007 1006
f 987 988 1008
f 987 1008 1007
f 988 989 1009
f 988 1009 1008
f 989 990 1010
f 989 1010 1009
f 990 991 1011
f 990 1011 1010
f 991 992 1012
f 991 1012 1011
f 992 993 1013
f 992 1013 1012
f 993 994 1014
f 993 1014 1013
f 994 995 1015
f 994 1015 1014
f 995 996 1016
f 995 1016 1015
f 996 997 1017
f 996 1017 1016
f 997 998 1018
f 997 1018 1017
f 998 999 1019
f 998 1019 1018
f 999 1000 1020
f 999 1020 1019
f 1000 981 1001
f 1000 1001 1020
f 1001 1002 1022
f 1001 1022 1021
f 1002 1003 1023
f 1002 1023 1022
f 1003 1004 1024
f 1003 1024 1023
f 1004 1005 1025
f 1004 1025 1024
f 1005 1006 1026
f 1005 1026 1025
f 1006 1007 1027
f 1006 1027 1026
f 1007 1008 1028
f 1007 1028 1027
f 1008 1009 1029
f 1008 1029 1028
f 1009 1010 1030
f 1009 1030 1029
f 1010 1011 1031
f 1010 1031 1030
f 1011 1012 1032
f 1011 1032 1031
f 1012 1013 1033
f 1012 1033 1032
f 1013 1014 1034
f 1013 1034 1033
f 1014 1015 1035
f 1014 1035 1034
f 1015 1016 1036
f 1015 1036 1035
f 1016 1017 1037
f 1016 1037 1036
f 1017 1018 1038
f 1017 1038 1037
f 1018 1019 1039
f 1018 1039 1038
f 1019 1020 1040
f 1019 1040 1039
f 1020 1001 1021
f 1020 1021 1040
f 1021 1022 1042
f 1021 1042 1041
f 1022 1023 1043
f 1022 1043 1042
f 1023 1024 1044
f 1023 1044 1043
f 1024 1025 1045
f 1024 1045 1044
f 1025 1026 1046
f 1025 1046 1045
f 1026 1027 1047
f 1026 1047 1046
f 1027 1028 1048
f 1027 1048 1047
f 1028 1029 1049
f 1028 1049 1048
f 1029 1030 1050
f 1029 1050 1049
f 1030 1031 1051
f 1030 1051 1050
f 1031 1032 1052
f 1031 1052 1051
f 1032 1033 1053
f 1032 1053 1052
f 1033 1034 1054
f 1033 1054 1053
f 1034 1035 1055
f 1034 1055 1054
f 1035 1036 1056
f 1035 1056 1055
f 1036 1037 1057
f 1036 1057 1056
f 1037 1038 1058
f 1037 1058 1057
f 1038 1039 1059
f 1038 1059 1058
f 1039 1040 1060
f 1039 1060 1059
f 1040 1021 1041
f 1040 1041 1060
f 1041 1042 1062
f 1041 1062 1061
f 1042 1043 1063
f 1042 1063 1062
f 1043 1044 1064
f 1043 1064 1063
f 1044 1045 1065
f 1044 1065 1064
f 1045 1046 1066
f 1045 1066 1065
f 1046 1047 1067
f 1046 1067 1066
f 1047 1048 1068
f 1047 1068 1067
f 1048 1049 1069
f 1048 1069 1068
f 1049 1050 1070
f 1049 1070 1069
f 1050 1051 1071
f 1050 1071 1070
f 1051 1052 1072
f 1051 1072 1071
f 1052 1053 1073
f 1052 1073 1072
f 1053 1054 1074
f 1053 1074 1073
f 1054 1055 1075
f 1054 1075 1074
f 1055 1056 1076
f 1055 1076 1075
f 1056 1057 1077
f 1056 1077 1076
f 1057 1058 1078
f 1057 1078 1077
f 1058 1059 1079
f 1058 1079 1078
f 1059 1060 1080
f 1059 1080 1079
f 1060 1041 1061
f 1060 1061 1080
f 1061 1062 1082
f 1061 1082 1081
f 1062 1063 1083
f 1062 1083 1082
f 1063 1064 1084
f 1063 1084 1083
f 1064 1065 1085
f 1064 1085 1084
f 1065 1066 1086
f 1065 1086 1085
f 1066 1067 1087
f 1066 1087 1086
f 1067 1068 1088
f 1067 1088 1087
f 1068 1069 1089
f 1068 1089 1088
f 1069 1070 1090
f 1069 1090 1089
f 1070 1071 1091
f 1070 1091 1090
f 1071 1072 1092
f 1071 1092 1091
f 1072 1073 1093
f 1072 1093 1092
f 1073 1074 1094
f 1073 1094 1093
f 1074 1075 1095
f 1074 1095 1094
f 1075 1076 1096
f 1075 1096 1095
f 1076 1077 1097
f 1076 1097 1096
f 1077 1078 1098
f 1077 1098 1097
f 1078 1079 1099
f 1078 1099 1098
f 1079 1080 1100
f 1079 1100 1099
f 1080 1061 1081
f 1080 1081 1100
f 1081 1082 1102
f 1081 1102 1101
f 1082 1083 1103
f 1082 1103 1102
f 1083 1084 1104
f 1083 1104 1103
f 1084 1085 1105
f 1084 1105 1104
f 1085 1086 1106
f 1085 1106 1105
f 1086 1087 1107
f 1086 1107 1106
f 1087 1088 1108
f 1087 1108 1107
f 1088 1089 1109
f 1088 1109 1108
f 1089 1090 1110
f 1089 1110 1109
f 1090 1091 1111
f 1090 1111 1110
f 1091 1092 1112
f 1091 1112 1111
f 1092 1093 1113
f 1092 1113 1112
f 1093 1094 1114
f 1093 1114 1113
f 1094 1095 1115
f 1094 1115 1114
f 1095 1096 1116
f 1095 1116 1115
f 1096 1097 1117
f 1096 1117 1116
f 1097 1098 1118
f 1097 1118 1117
f 1098 1099 1119
f 1098 1119 1118
f 1099 1100 1120
f 1099 1120 1119
f 1100 1081 1101
f 1100 1101 1120
