# tube retopo
v -0.242779 -0.057450 -0.794285
v -0.222011 -0.052547 -0.799899
v -0.204474 -0.039986 -0.804552
v -0.192571 -0.021519 -0.807606
v -0.188079 0.000351 -0.808606
v -0.192738 0.022089 -0.807112
v -0.204631 0.040370 -0.803682
v -0.222083 0.052720 -0.798797
v -0.242741 0.057400 -0.793115
v -0.263337 0.052515 -0.787546
v -0.280748 0.040075 -0.782922
v -0.292626 0.021776 -0.779867
v -0.297320 0.000045 -0.778808
v -0.292821 -0.021705 -0.780260
v -0.281018 -0.040101 -0.783671
v -0.263554 -0.052620 -0.788566
v -0.216039 -0.060466 -0.725480
v -0.194274 -0.055301 -0.731216
v -0.175899 -0.042075 -0.735968
v -0.163432 -0.022634 -0.739085
v -0.158739 0.000365 -0.740100
v -0.163624 0.023240 -0.738572
v -0.176086 0.042475 -0.735067
v -0.194371 0.055470 -0.730076
v -0.216001 0.060395 -0.724275
v -0.237583 0.055259 -0.718585
v -0.255830 0.042170 -0.713859
v -0.268276 0.022917 -0.710738
v -0.273198 0.000049 -0.709656
v -0.268485 -0.022847 -0.711141
v -0.256113 -0.042212 -0.714630
v -0.237810 -0.055387 -0.719635
v -0.188088 -0.063503 -0.655991
v -0.165553 -0.058092 -0.662114
v -0.146543 -0.044237 -0.667233
v -0.133653 -0.023866 -0.670652
v -0.128772 0.000239 -0.671868
v -0.133858 0.024274 -0.670366
v -0.146807 0.044500 -0.666738
v -0.165812 0.058184 -0.661488
v -0.188285 0.063368 -0.655331
v -0.210714 0.057951 -0.649235
v -0.229636 0.044160 -0.644135
v -0.242495 0.023893 -0.640721
v -0.247490 -0.000109 -0.639471
v -0.242493 -0.024124 -0.640951
v -0.229610 -0.044410 -0.644566
v -0.210615 -0.058196 -0.649817
v -0.158849 -0.066529 -0.586163
v -0.135643 -0.060850 -0.592556
v -0.116109 -0.046372 -0.597942
v -0.102872 -0.025094 -0.601598
v -0.097831 0.000090 -0.602998
v -0.103090 0.025270 -0.601558
v -0.116458 0.046476 -0.597882
v -0.136089 0.060856 -0.592477
v -0.159311 0.066350 -0.586079
v -0.182518 0.060671 -0.579684
v -0.202051 0.046193 -0.574300
v -0.215285 0.024915 -0.570651
v -0.220323 -0.000269 -0.569257
v -0.215063 -0.025449 -0.570699
v -0.201696 -0.046655 -0.574373
v -0.182068 -0.061035 -0.579772
v -0.128627 -0.069735 -0.516361
v -0.104607 -0.063791 -0.522499
v -0.084375 -0.048617 -0.527675
v -0.070670 -0.026320 -0.531188
v -0.065452 0.000071 -0.532534
v -0.070897 0.026453 -0.531152
v -0.084745 0.048685 -0.527619
v -0.105074 0.063759 -0.522426
v -0.129120 0.069520 -0.516279
v -0.153142 0.063576 -0.510138
v -0.173372 0.048401 -0.504966
v -0.187072 0.026105 -0.501462
v -0.192285 -0.000286 -0.500126
v -0.186838 -0.026668 -0.501511
v -0.172992 -0.048901 -0.505040
v -0.152669 -0.063974 -0.510224
v -0.097556 -0.075882 -0.446568
v -0.071864 -0.069429 -0.452419
v -0.050205 -0.052925 -0.457359
v -0.035530 -0.028664 -0.460714
v -0.029943 0.000055 -0.462001
v -0.035764 0.028742 -0.460684
v -0.050586 0.052941 -0.457311
v -0.072350 0.069353 -0.452351
v -0.098095 0.075630 -0.446482
v -0.123790 0.069177 -0.440625
v -0.145446 0.052674 -0.435691
v -0.160113 0.028413 -0.432351
v -0.165692 -0.000307 -0.431080
v -0.159868 -0.028994 -0.432402
v -0.145049 -0.053193 -0.435768
v -0.123293 -0.069605 -0.440714
v -0.066325 -0.082907 -0.377246
v -0.038881 -0.075869 -0.382441
v -0.015740 -0.057856 -0.386830
v -0.000050 -0.031353 -0.389814
v 0.005929 0.000038 -0.390960
v -0.000286 0.031369 -0.389789
v -0.016117 0.057805 -0.386788
v -0.039378 0.075751 -0.382373
v -0.066904 0.082624 -0.377150
v -0.094353 0.075587 -0.371945
v -0.117489 0.057574 -0.367566
v -0.133167 0.031070 -0.364605
v -0.139133 -0.000320 -0.363483
v -0.132914 -0.031652 -0.364662
v -0.117088 -0.058088 -0.367654
v -0.093839 -0.076034 -0.372046
v -0.036163 -0.089002 -0.309137
v -0.007559 -0.081459 -0.313041
v 0.016564 -0.062134 -0.316343
v 0.032920 -0.033704 -0.318591
v 0.039168 0.000017 -0.319455
v 0.032694 0.033651 -0.318569
v 0.016197 0.062035 -0.316299
v -0.008037 0.081303 -0.312965
v -0.036753 0.088703 -0.309020
v -0.065365 0.081160 -0.305102
v -0.089481 0.061834 -0.301814
v -0.105819 0.033405 -0.299601
v -0.112049 -0.000315 -0.298772
v -0.105568 -0.033950 -0.299672
v -0.089078 -0.062334 -0.301926
v -0.064862 -0.081602 -0.305226
v -0.008999 -0.083731 -0.243299
v 0.016901 -0.076645 -0.244979
v 0.038747 -0.058470 -0.246403
v 0.053562 -0.031728 -0.247373
v 0.059223 -0.000019 -0.247742
v 0.053369 0.031629 -0.247347
v 0.038436 0.058339 -0.246347
v 0.016495 0.076474 -0.244884
v -0.009493 0.083441 -0.243163
v -0.035401 0.076355 -0.241467
v -0.057239 0.058181 -0.240059
v -0.072034 0.031439 -0.239127
v -0.077675 -0.000270 -0.238797
v -0.071814 -0.031917 -0.239207
v -0.056889 -0.058628 -0.240191
v -0.034968 -0.076763 -0.241617
v 0.012623 -0.077162 -0.181103
v 0.035370 -0.070636 -0.180402
v 0.054555 -0.053887 -0.179812
v 0.067570 -0.029236 -0.179412
v 0.072543 -0.000034 -0.179249
v 0.067413 0.029152 -0.179378
v 0.054308 0.053780 -0.179736
v 0.035049 0.070503 -0.180278
v 0.012255 0.076925 -0.180938
v -0.010500 0.070399 -0.181623
v -0.029676 0.053650 -0.182228
v -0.042671 0.028999 -0.182668
v -0.047624 -0.000203 -0.182871
v -0.042486 -0.029389 -0.182757
v -0.029390 -0.054016 -0.182382
v -0.010150 -0.070740 -0.181802
v 0.025634 -0.070563 -0.124071
v 0.045250 -0.064596 -0.121008
v 0.061782 -0.049280 -0.118425
v 0.073006 -0.026735 -0.116666
v 0.077309 -0.000023 -0.115974
v 0.072901 0.026709 -0.116621
v 0.061628 0.049244 -0.118325
v 0.045048 0.064552 -0.120853
v 0.025421 0.070440 -0.123869
v 0.005797 0.064472 -0.126917
v -0.010727 0.049156 -0.129516
v -0.021932 0.026611 -0.131312
v -0.026215 -0.000101 -0.132043
v -0.021800 -0.026832 -0.131410
v -0.010535 -0.049367 -0.129690
v 0.006025 -0.064676 -0.127125
v 0.026979 -0.063980 -0.073604
v 0.043558 -0.058578 -0.068366
v 0.057545 -0.044682 -0.063942
v 0.067050 -0.024219 -0.060928
v 0.070710 0.000030 -0.059747
v 0.067011 0.024301 -0.060870
v 0.057503 0.044776 -0.063814
v 0.043507 0.058687 -0.068174
v 0.026928 0.064047 -0.073363
v 0.010343 0.058644 -0.078587
v -0.003637 0.044748 -0.083024
v -0.013125 0.024286 -0.086072
v -0.016768 0.000037 -0.087287
v -0.013063 -0.024234 -0.086177
v -0.003562 -0.044709 -0.083219
v 0.010417 -0.058620 -0.078826
v 0.014315 -0.066285 -0.030637
v 0.030165 -0.060702 -0.022503
v 0.043565 -0.046290 -0.015625
v 0.052687 -0.025051 -0.010938
v 0.056222 0.000126 -0.009104
v 0.052721 0.025309 -0.010856
v 0.043654 0.046582 -0.015447
v 0.030282 0.061045 -0.022241
v 0.014427 0.066629 -0.030322
v -0.001430 0.061046 -0.038441
v -0.014822 0.046634 -0.045334
v -0.023925 0.025396 -0.050058
v -0.027440 0.000218 -0.051931
v -0.023933 -0.024965 -0.050193
v -0.014874 -0.046238 -0.045587
v -0.001521 -0.060701 -0.038756
v -0.013340 -0.072550 0.004690
v 0.002564 -0.066448 0.016569
v 0.016026 -0.050662 0.026615
v 0.025215 -0.027371 0.033467
v 0.028804 0.000259 0.036147
v 0.025331 0.027880 0.033581
v 0.016271 0.051222 0.026867
v 0.002873 0.067111 0.016927
v -0.013034 0.073261 0.005103
v -0.028947 0.067159 -0.006758
v -0.042399 0.051373 -0.016822
v -0.051566 0.028082 -0.023717
v -0.055132 0.000453 -0.026442
v -0.051652 -0.027168 -0.023893
v -0.042601 -0.050510 -0.017161
v -0.029225 -0.066400 -0.007178
v -0.055270 -0.078774 0.033098
v -0.039482 -0.072151 0.049062
v -0.026101 -0.054988 0.062566
v -0.016951 -0.029663 0.071772
v -0.013344 0.000427 0.075379
v -0.016748 0.030492 0.071924
v -0.025705 0.055907 0.062890
v -0.038970 0.073211 0.049524
v -0.054759 0.079934 0.033608
v -0.070557 0.073311 0.017662
v -0.083928 0.056147 0.004140
v -0.093054 0.030823 -0.005114
v -0.096636 0.000733 -0.008770
v -0.093223 -0.029332 -0.005333
v -0.084276 -0.054747 0.003722
v -0.071036 -0.072051 0.017134
v -0.109321 -0.083436 0.055959
v -0.093998 -0.076418 0.075795
v -0.080998 -0.058200 0.092573
v -0.072092 -0.031310 0.104012
v -0.068558 0.000630 0.108487
v -0.071823 0.032566 0.104187
v -0.080480 0.059568 0.092948
v -0.093325 0.077959 0.076324
v -0.108625 0.085109 0.056546
v -0.123957 0.078091 0.036729
v -0.136948 0.059873 0.019932
v -0.145830 0.032984 0.008447
v -0.149339 0.001043 0.003924
v -0.146065 -0.030893 0.008207
v -0.137419 -0.057895 0.019465
v -0.124597 -0.076285 0.036134
v -0.172509 -0.080445 0.074958
v -0.158870 -0.073658 0.096534
v -0.147291 -0.056030 0.114778
v -0.139348 -0.030003 0.127215
v -0.136183 0.000884 0.132070
v -0.139060 0.031808 0.127382
v -0.146736 0.057950 0.115144
v -0.158145 0.075756 0.097047
v -0.171733 0.082677 0.075545
v -0.185380 0.075890 0.053985
v -0.196950 0.058262 0.035726
v -0.204875 0.032236 0.023252
v -0.208021 0.001349 0.018360
v -0.205137 -0.029576 0.023034
v -0.197469 -0.055717 0.035288
v -0.186079 -0.073524 0.053420
v -0.241832 -0.077148 0.091647
v -0.229630 -0.070611 0.114308
v -0.219277 -0.053641 0.133447
v -0.212166 -0.028583 0.146494
v -0.209318 0.001155 0.151585
v -0.211871 0.030966 0.146650
v -0.218710 0.056141 0.133794
v -0.228887 0.073293 0.114793
v -0.241017 0.079966 0.092223
v -0.253224 0.073429 0.069574
v -0.263571 0.056459 0.050424
v -0.270668 0.031402 0.037350
v -0.273502 0.001663 0.032231
v -0.270944 -0.028148 0.037156
v -0.264111 -0.053322 0.050023
v -0.253948 -0.070475 0.069051
v -0.314678 -0.073845 0.107309
v -0.303667 -0.067569 0.130510
v -0.294315 -0.051251 0.150116
v -0.287887 -0.027157 0.163477
v -0.285303 0.001441 0.168688
v -0.287590 0.030109 0.163630
v -0.293748 0.054333 0.150452
v -0.302920 0.070836 0.130983
v -0.313860 0.077262 0.107862
v -0.324875 0.070986 0.084668
v -0.334223 0.054668 0.065055
v -0.340641 0.030574 0.051675
v -0.343214 0.001976 0.046443
v -0.340924 -0.026692 0.051494
v -0.334770 -0.050916 0.064680
v -0.325608 -0.067419 0.084168
v -0.389092 -0.070541 0.122838
v -0.379061 -0.064530 0.146142
v -0.370529 -0.048867 0.165854
v -0.364661 -0.025730 0.179287
v -0.362296 0.001735 0.184525
v -0.364367 0.029247 0.179443
v -0.369970 0.052519 0.166191
v -0.378324 0.068378 0.146611
v -0.388293 0.074558 0.123361
v -0.398327 0.068546 0.100063
v -0.406856 0.052884 0.080346
v -0.412717 0.029747 0.066899
v -0.415075 0.002282 0.061647
v -0.413001 -0.025230 0.066724
v -0.407401 -0.048502 0.079981
v -0.399054 -0.064361 0.099575
v -0.463772 -0.067043 0.138779
v -0.454573 -0.061307 0.161793
v -0.446747 -0.046348 0.181262
v -0.441357 -0.024232 0.194539
v -0.439181 0.002033 0.199717
v -0.441073 0.028322 0.194696
v -0.446203 0.050565 0.181606
v -0.453862 0.065737 0.162254
v -0.463007 0.071655 0.139269
v -0.472208 0.065919 0.116259
v -0.480032 0.050960 0.096787
v -0.485416 0.028844 0.083500
v -0.487588 0.002580 0.078313
v -0.485694 -0.023710 0.083330
v -0.480566 -0.045953 0.096424
v -0.472912 -0.061125 0.115785
v -0.537949 -0.062801 0.155408
v -0.529547 -0.057396 0.177628
v -0.522397 -0.043295 0.196427
v -0.517474 -0.022452 0.209244
v -0.515480 0.002334 0.214249
v -0.517205 0.027123 0.209398
v -0.521887 0.048099 0.196757
v -0.528876 0.062407 0.178074
v -0.537234 0.068000 0.155859
v -0.545637 0.062595 0.133641
v -0.552786 0.048494 0.114840
v -0.557706 0.027652 0.102017
v -0.559697 0.002866 0.097005
v -0.557970 -0.021924 0.101854
v -0.553290 -0.042900 0.114498
v -0.546304 -0.057207 0.133187
v -0.611251 -0.058506 0.172812
v -0.603550 -0.053433 0.194032
v -0.596997 -0.040195 0.211982
v -0.592485 -0.020628 0.224218
v -0.590658 0.002633 0.228992
v -0.592238 0.025908 0.224356
v -0.596528 0.045603 0.212279
v -0.602932 0.059034 0.194435
v -0.610588 0.064284 0.173226
v -0.618290 0.059210 0.152008
v -0.624842 0.045972 0.134056
v -0.629352 0.026405 0.121816
v -0.631177 0.003144 0.117038
v -0.629596 -0.020131 0.121673
v -0.625307 -0.039825 0.133752
v -0.618905 -0.053257 0.151599
v -0.680712 -0.054370 0.189759
v -0.677287 -0.049579 0.210962
v -0.674800 -0.036944 0.228982
v -0.673582 -0.018272 0.241349
v -0.673871 0.003916 0.245921
v -0.675757 0.025913 0.241116
v -0.678721 0.044135 0.228957
v -0.682324 0.056207 0.211358
v -0.686055 0.060222 0.190805
v -0.689338 0.055568 0.170495
v -0.691774 0.043663 0.153116
v -0.693044 0.025884 0.140874
v -0.692932 0.004326 0.135562
v -0.691210 -0.017726 0.139367
v -0.688276 -0.036535 0.151045
v -0.684600 -0.049355 0.168678
v -0.752363 -0.050016 0.208337
v -0.753851 -0.045824 0.228851
v -0.756012 -0.034451 0.246671
v -0.758604 -0.017035 0.259558
v -0.761276 0.004550 0.264724
v -0.763431 0.026118 0.259536
v -0.764722 0.043424 0.246525
v -0.764965 0.053553 0.228537
v -0.764250 0.055799 0.208943
v -0.762858 0.051559 0.190302
v -0.760927 0.041433 0.174076
v -0.758576 0.025825 0.161776
v -0.756042 0.005925 0.155598
v -0.753779 -0.015453 0.158361
v -0.752309 -0.033666 0.170061
v -0.751835 -0.045643 0.187727
f 1 2 18 17
f 2 3 19 18
f 3 4 20 19
f 4 5 21 20
f 5 6 22 21
f 6 7 23 22
f 7 8 24 23
f 8 9 25 24
f 9 10 26 25
f 10 11 27 26
f 11 12 28 27
f 12 13 29 28
f 13 14 30 29
f 14 15 31 30
f 15 16 32 31
f 16 1 17 32
f 17 18 34 33
f 18 19 35 34
f 19 20 36 35
f 20 21 37 36
f 21 22 38 37
f 22 23 39 38
f 23 24 40 39
f 24 25 41 40
f 25 26 42 41
f 26 27 43 42
f 27 28 44 43
f 28 29 45 44
f 29 30 46 45
f 30 31 47 46
f 31 32 48 47
f 32 17 33 48
f 33 34 50 49
f 34 35 51 50
f 35 36 52 51
f 36 37 53 52
f 37 38 54 53
f 38 39 55 54
f 39 40 56 55
f 40 41 57 56
f 41 42 58 57
f 42 43 59 58
f 43 44 60 59
f 44 45 61 60
f 45 46 62 61
f 46 47 63 62
f 47 48 64 63
f 48 33 49 64
f 49 50 66 65
f 50 51 67 66
f 51 52 68 67
f 52 53 69 68
f 53 54 70 69
f 54 55 71 70
f 55 56 72 71
f 56 57 73 72
f 57 58 74 73
f 58 59 75 74
f 59 60 76 75
f 60 61 77 76
f 61 62 78 77
f 62 63 79 78
f 63 64 80 79
f 64 49 65 80
f 65 66 82 81
f 66 67 83 82
f 67 68 84 83
f 68 69 85 84
f 69 70 86 85
f 70 71 87 86
f 71 72 88 87
f 72 73 89 88
f 73 74 90 89
f 74 75 91 90
f 75 76 92 91
f 76 77 93 92
f 77 78 94 93
f 78 79 95 94
f 79 80 96 95
f 80 65 81 96
f 81 82 98 97
f 82 83 99 98
f 83 84 100 99
f 84 85 101 100
f 85 86 102 101
f 86 87 103 102
f 87 88 104 103
f 88 89 105 104
f 89 90 106 105
f 90 91 107 106
f 91 92 108 107
f 92 93 109 108
f 93 94 110 109
f 94 95 111 110
f 95 96 112 111
f 96 81 97 112
f 97 98 114 113
f 98 99 115 114
f 99 100 116 115
f 100 101 117 116
f 101 102 118 117
f 102 103 119 118
f 103 104 120 119
f 104 105 121 120
f 105 106 122 121
f 106 107 123 122
f 107 108 124 123
f 108 109 125 124
f 109 110 126 125
f 110 111 127 126
f 111 112 128 127
f 112 97 113 128
f 113 114 130 129
f 114 115 131 130
f 115 116 132 131
f 116 117 133 132
f 117 118 134 133
f 118 119 135 134
f 119 120 136 135
f 120 121 137 136
f 121 122 138 137
f 122 123 139 138
f 123 124 140 139
f 124 125 141 140
f 125 126 142 141
f 126 127 143 142
f 127 128 144 143
f 128 113 129 144
f 129 130 146 145
f 130 131 147 146
f 131 132 148 147
f 132 133 149 148
f 133 134 150 149
f 134 135 151 150
f 135 136 152 151
f 136 137 153 152
f 137 138 154 153
f 138 139 155 154
f 139 140 156 155
f 140 141 157 156
f 141 142 158 157
f 142 143 159 158
f 143 144 160 159
f 144 129 145 160
f 145 146 162 161
f 146 147 163 162
f 147 148 164 163
f 148 149 165 164
f 149 150 166 165
f 150 151 167 166
f 151 152 168 167
f 152 153 169 168
f 153 154 170 169
f 154 155 171 170
f 155 156 172 171
f 156 157 173 172
f 157 158 174 173
f 158 159 175 174
f 159 160 176 175
f 160 145 161 176
f 161 162 178 177
f 162 163 179 178
f 163 164 180 179
f 164 165 181 180
f 165 166 182 181
f 166 167 183 182
f 167 168 184 183
f 168 169 185 184
f 169 170 186 185
f 170 171 187 186
f 171 172 188 187
f 172 173 189 188
f 173 174 190 189
f 174 175 191 190
f 175 176 192 191
f 176 161 177 192
f 177 178 194 193
f 178 179 195 194
f 179 180 196 195
f 180 181 197 196
f 181 182 198 197
f 182 183 199 198
f 183 184 200 199
f 184 185 201 200
f 185 186 202 201
f 186 187 203 202
f 187 188 204 203
f 188 189 205 204
f 189 190 206 205
f 190 191 207 206
f 191 192 208 207
f 192 177 193 208
f 193 194 210 209
f 194 195 211 210
f 195 196 212 211
f 196 197 213 212
f 197 198 214 213
f 198 199 215 214
f 199 200 216 215
f 200 201 217 216
f 201 202 218 217
f 202 203 219 218
f 203 204 220 219
f 204 205 221 220
f 205 206 222 221
f 206 207 223 222
f 207 208 224 223
f 208 193 209 224
f 209 210 226 225
f 210 211 227 226
f 211 212 228 227
f 212 213 229 228
f 213 214 230 229
f 214 215 231 230
f 215 216 232 231
f 216 217 233 232
f 217 218 234 233
f 218 219 235 234
f 219 220 236 235
f 220 221 237 236
f 221 222 238 237
f 222 223 239 238
f 223 224 240 239
f 224 209 225 240
f 225 226 242 241
f 226 227 243 242
f 227 228 244 243
f 228 229 245 244
f 229 230 246 245
f 230 231 247 246
f 231 232 248 247
f 232 233 249 248
f 233 234 250 249
f 234 235 251 250
f 235 236 252 251
f 236 237 253 252
f 237 238 254 253
f 238 239 255 254
f 239 240 256 255
f 240 225 241 256
f 241 242 258 257
f 242 243 259 258
f 243 244 260 259
f 244 245 261 260
f 245 246 262 261
f 246 247 263 262
f 247 248 264 263
f 248 249 265 264
f 249 250 266 265
f 250 251 267 266
f 251 252 268 267
f 252 253 269 268
f 253 254 270 269
f 254 255 271 270
f 255 256 272 271
f 256 241 257 272
f 257 258 274 273
f 258 259 275 274
f 259 260 276 275
f 260 261 277 276
f 261 262 278 277
f 262 263 279 278
f 263 264 280 279
f 264 265 281 280
f 265 266 282 281
f 266 267 283 282
f 267 268 284 283
f 268 269 285 284
f 269 270 286 285
f 270 271 287 286
f 271 272 288 287
f 272 257 273 288
f 273 274 290 289
f 274 275 291 290
f 275 276 292 291
f 276 277 293 292
f 277 278 294 293
f 278 279 295 294
f 279 280 296 295
f 280 281 297 296
f 281 282 298 297
f 282 283 299 298
f 283 284 300 299
f 284 285 301 300
f 285 286 302 301
f 286 287 303 302
f 287 288 304 303
f 288 273 289 304
f 289 290 306 305
f 290 291 307 306
f 291 292 308 307
f 292 293 309 308
f 293 294 310 309
f 294 295 311 310
f 295 296 312 311
f 296 297 313 312
f 297 298 314 313
f 298 299 315 314
f 299 300 316 315
f 300 301 317 316
f 301 302 318 317
f 302 303 319 318
f 303 304 320 319
f 304 289 305 320
f 305 306 322 321
f 306 307 323 322
f 307 308 324 323
f 308 309 325 324
f 309 310 326 325
f 310 311 327 326
f 311 312 328 327
f 312 313 329 328
f 313 314 330 329
f 314 315 331 330
f 315 316 332 331
f 316 317 333 332
f 317 318 334 333
f 318 319 335 334
f 319 320 336 335
f 320 305 321 336
f 321 322 338 337
f 322 323 339 338
f 323 324 340 339
f 324 325 341 340
f 325 326 342 341
f 326 327 343 342
f 327 328 344 343
f 328 329 345 344
f 329 330 346 345
f 330 331 347 346
f 331 332 348 347
f 332 333 349 348
f 333 334 350 349
f 334 335 351 350
f 335 336 352 351
f 336 321 337 352
f 337 338 354 353
f 338 339 355 354
f 339 340 356 355
f 340 341 357 356
f 341 342 358 357
f 342 343 359 358
f 343 344 360 359
f 344 345 361 360
f 345 346 362 361
f 346 347 363 362
f 347 348 364 363
f 348 349 365 364
f 349 350 366 365
f 350 351 367 366
f 351 352 368 367
f 352 337 353 368
f 353 354 370 369
f 354 355 371 370
f 355 356 372 371
f 356 357 373 372
f 357 358 374 373
f 358 359 375 374
f 359 360 376 375
f 360 361 377 376
f 361 362 378 377
f 362 363 379 378
f 363 364 380 379
f 364 365 381 380
f 365 366 382 381
f 366 367 383 382
f 367 368 384 383
f 368 353 369 384
f 369 370 386 385
f 370 371 387 386
f 371 372 388 387
f 372 373 389 388
f 373 374 390 389
f 374 375 391 390
f 375 376 392 391
f 376 377 393 392
f 377 378 394 393
f 378 379 395 394
f 379 380 396 395
f 380 381 397 396
f 381 382 398 397
f 382 383 399 398
f 383 384 400 399
f 384 369 385 400
