# tube retopo
v 0.449407 -0.108880 -1.127500
v 0.487137 -0.103082 -1.111199
v 0.520461 -0.082936 -1.095437
v 0.542670 -0.048740 -1.083047
v 0.551984 -0.007380 -1.075399
v 0.545515 0.035701 -1.074193
v 0.523242 0.073325 -1.080090
v 0.489857 0.100187 -1.091610
v 0.449409 0.108880 -1.107732
v 0.409693 0.101267 -1.125029
v 0.377344 0.076856 -1.140770
v 0.356874 0.041225 -1.152563
v 0.349757 0.000136 -1.159268
v 0.359135 -0.040507 -1.159036
v 0.380725 -0.075122 -1.153152
v 0.411917 -0.099857 -1.142356
v 0.410497 -0.108880 -1.030245
v 0.449476 -0.102575 -1.013376
v 0.482957 -0.080679 -0.997390
v 0.504734 -0.045401 -0.985082
v 0.513131 -0.003580 -0.977776
v 0.504869 0.038811 -0.977382
v 0.482467 0.075176 -0.983447
v 0.449584 0.100513 -0.994896
v 0.410550 0.108880 -1.010456
v 0.372059 0.101783 -1.027194
v 0.339883 0.079170 -1.042699
v 0.318959 0.044619 -1.054584
v 0.310907 0.003968 -1.061641
v 0.318477 -0.037371 -1.062228
v 0.339945 -0.073266 -1.056511
v 0.371764 -0.099233 -1.045564
v 0.371485 -0.108880 -0.933033
v 0.411039 -0.102317 -0.915900
v 0.444585 -0.079552 -0.899808
v 0.466130 -0.043777 -0.887553
v 0.474077 -0.001763 -0.880416
v 0.464972 0.040267 -0.880408
v 0.442516 0.076033 -0.886550
v 0.409917 0.100648 -0.897945
v 0.371528 0.108880 -0.913248
v 0.333647 0.102049 -0.929707
v 0.301502 0.080286 -0.945122
v 0.280354 0.046241 -0.957055
v 0.271857 0.005825 -0.964276
v 0.278577 -0.035908 -0.965255
v 0.299981 -0.072392 -0.959617
v 0.332154 -0.098980 -0.948579
v 0.332018 -0.108880 -0.836012
v 0.370954 -0.102589 -0.819161
v 0.404439 -0.080733 -0.803177
v 0.426228 -0.045479 -0.790867
v 0.434644 -0.003686 -0.783555
v 0.426423 0.038744 -0.783140
v 0.404013 0.075149 -0.789205
v 0.371134 0.100505 -0.800651
v 0.332028 0.108880 -0.816241
v 0.293515 0.101761 -0.832989
v 0.261343 0.079087 -0.848499
v 0.240431 0.044484 -0.860383
v 0.232419 0.003845 -0.867422
v 0.240056 -0.037491 -0.867981
v 0.261525 -0.073333 -0.862258
v 0.293315 -0.099251 -0.851320
v 0.292771 -0.108880 -0.738898
v 0.331775 -0.102571 -0.722017
v 0.365267 -0.080647 -0.706024
v 0.387034 -0.045367 -0.693721
v 0.395422 -0.003529 -0.686416
v 0.387134 0.038858 -0.686034
v 0.364730 0.075203 -0.692102
v 0.331855 0.100517 -0.703549
v 0.292844 0.108880 -0.719101
v 0.254381 0.101794 -0.735825
v 0.222199 0.079209 -0.751331
v 0.201271 0.044686 -0.763214
v 0.193200 0.004038 -0.770279
v 0.200737 -0.037313 -0.770881
v 0.222190 -0.073217 -0.765171
v 0.254034 -0.099222 -0.754217
v 0.253472 -0.108880 -0.641806
v 0.292042 -0.102730 -0.625121
v 0.325490 -0.081349 -0.609196
v 0.347373 -0.046450 -0.596879
v 0.356059 -0.004757 -0.589462
v 0.348346 0.037863 -0.588818
v 0.325995 0.074598 -0.594829
v 0.292989 0.100400 -0.606287
v 0.253494 0.108880 -0.622030
v 0.214640 0.101633 -0.638933
v 0.182381 0.078454 -0.654524
v 0.161599 0.043573 -0.666379
v 0.153835 0.002780 -0.673329
v 0.161969 -0.038350 -0.673661
v 0.183482 -0.073854 -0.667890
v 0.215126 -0.099447 -0.656982
v 0.214314 -0.108880 -0.544655
v 0.253268 -0.102581 -0.527796
v 0.286746 -0.080705 -0.511813
v 0.308532 -0.045432 -0.499503
v 0.316936 -0.003628 -0.492194
v 0.308695 0.038777 -0.491791
v 0.286286 0.075164 -0.497857
v 0.253407 0.100509 -0.509303
v 0.214343 0.108880 -0.524876
v 0.175835 0.101772 -0.541622
v 0.143664 0.079133 -0.557127
v 0.122743 0.044552 -0.569014
v 0.114711 0.003908 -0.576061
v 0.122313 -0.037427 -0.576635
v 0.143784 -0.073301 -0.570914
v 0.175587 -0.099242 -0.559972
v 0.175562 -0.108880 -0.447334
v 0.215998 -0.101948 -0.429799
v 0.249599 -0.077983 -0.413575
v 0.270851 -0.041441 -0.401372
v 0.277922 0.000874 -0.394575
v 0.267828 0.042374 -0.395028
v 0.245287 0.077283 -0.401283
v 0.213076 0.100853 -0.412611
v 0.175625 0.108880 -0.427541
v 0.138575 0.102408 -0.443619
v 0.106528 0.081869 -0.458882
v 0.085078 0.048586 -0.470872
v 0.075936 0.008481 -0.478335
v 0.081422 -0.033776 -0.479877
v 0.102732 -0.071117 -0.474357
v 0.135368 -0.098573 -0.463204
v 0.135315 -0.113727 -0.351079
v 0.175036 -0.107728 -0.333926
v 0.210233 -0.086661 -0.317298
v 0.234070 -0.050783 -0.304075
v 0.244427 -0.007018 -0.295772
v 0.237789 0.038900 -0.294379
v 0.214302 0.079298 -0.300532
v 0.178630 0.108134 -0.312829
v 0.135314 0.117443 -0.330095
v 0.092865 0.109079 -0.348602
v 0.058489 0.082788 -0.365361
v 0.037085 0.044590 -0.377778
v 0.030016 0.000940 -0.384696
v 0.040125 -0.041913 -0.384359
v 0.063112 -0.078176 -0.378040
v 0.095929 -0.104114 -0.366673
v 0.095883 -0.133989 -0.255881
v 0.144405 -0.126432 -0.234908
v 0.186296 -0.099425 -0.214942
v 0.213942 -0.055633 -0.199408
v 0.225004 -0.003269 -0.190030
v 0.214733 0.050126 -0.189477
v 0.186750 0.096159 -0.196998
v 0.145209 0.128057 -0.211471
v 0.095959 0.138529 -0.231112
v 0.047537 0.129289 -0.252196
v 0.007283 0.100587 -0.271632
v -0.018504 0.057023 -0.286368
v -0.028056 0.006185 -0.294976
v -0.018542 -0.045220 -0.295665
v 0.008358 -0.089631 -0.288449
v 0.047888 -0.121737 -0.274836
v 0.056154 -0.154383 -0.160820
v 0.112482 -0.145594 -0.136472
v 0.160964 -0.113950 -0.113329
v 0.192755 -0.063077 -0.095419
v 0.205232 -0.002501 -0.084704
v 0.192545 0.058839 -0.084440
v 0.160044 0.111278 -0.093269
v 0.112343 0.147164 -0.109955
v 0.056194 0.158980 -0.132358
v 0.001085 0.148560 -0.156346
v -0.045135 0.116220 -0.178606
v -0.075052 0.066720 -0.195608
v -0.086384 0.008438 -0.205636
v -0.076064 -0.050972 -0.206714
v -0.045215 -0.102477 -0.198491
v 0.000504 -0.139929 -0.182776
v 0.015402 -0.169367 -0.065696
v 0.074300 -0.160927 -0.040305
v 0.126909 -0.130188 -0.015518
v 0.162690 -0.076983 0.004271
v 0.178208 -0.011680 0.016687
v 0.168468 0.056905 0.018841
v 0.133268 0.117055 0.009584
v 0.079843 0.159683 -0.008884
v 0.015447 0.173172 -0.034584
v -0.047530 0.160456 -0.062069
v -0.097940 0.120963 -0.086730
v -0.129421 0.064453 -0.105022
v -0.139751 0.000137 -0.115179
v -0.124631 -0.062950 -0.114584
v -0.090918 -0.116424 -0.105343
v -0.042646 -0.154654 -0.088630
v -0.022598 -0.173185 0.031593
v 0.041534 -0.162417 0.059384
v 0.095118 -0.124712 0.085210
v 0.128663 -0.066460 0.104523
v 0.139642 0.000694 0.115209
v 0.123109 0.066234 0.114246
v 0.087101 0.120953 0.104158
v 0.036115 0.157259 0.086136
v -0.022522 0.169380 0.062720
v -0.080260 0.159043 0.037641
v -0.129910 0.126678 0.013945
v -0.163463 0.075060 -0.004769
v -0.178101 0.012635 -0.016556
v -0.169984 -0.053477 -0.019163
v -0.137069 -0.112415 -0.010752
v -0.085986 -0.156132 0.006638
v -0.062110 -0.159175 0.129867
v -0.005893 -0.150337 0.154174
v 0.043046 -0.119333 0.177450
v 0.074709 -0.068256 0.195325
v 0.086906 -0.007489 0.205940
v 0.075291 0.054263 0.206689
v 0.042541 0.107044 0.197788
v -0.005325 0.143654 0.181098
v -0.062078 0.155520 0.158447
v -0.117742 0.145032 0.134221
v -0.163824 0.111661 0.111925
v -0.193854 0.061872 0.094850
v -0.205415 0.003413 0.084710
v -0.194067 -0.055899 0.084070
v -0.163407 -0.107466 0.092209
v -0.117766 -0.144939 0.107890
v -0.100735 -0.144276 0.228594
v -0.049376 -0.136020 0.250816
v -0.005125 -0.107299 0.271925
v 0.023364 -0.060623 0.288073
v 0.034061 -0.005540 0.297546
v 0.023009 0.050055 0.297971
v -0.006656 0.097461 0.289872
v -0.049790 0.130192 0.274808
v -0.100689 0.140882 0.254498
v -0.150775 0.131591 0.232713
v -0.192502 0.102019 0.212583
v -0.219918 0.057211 0.197053
v -0.230720 0.004330 0.187736
v -0.221016 -0.049711 0.186888
v -0.193227 -0.096923 0.194221
v -0.151646 -0.131260 0.208489
v -0.139039 -0.129284 0.327463
v -0.091659 -0.121227 0.348004
v -0.052001 -0.093462 0.367105
v -0.027055 -0.050512 0.381434
v -0.018528 -0.000749 0.389516
v -0.030326 0.048119 0.389019
v -0.056981 0.089216 0.381605
v -0.094903 0.116933 0.368266
v -0.138977 0.126243 0.350684
v -0.182499 0.118562 0.331790
v -0.219850 0.094073 0.313950
v -0.244958 0.055093 0.299914
v -0.255695 0.008170 0.291165
v -0.248963 -0.041195 0.289499
v -0.224178 -0.084900 0.295894
v -0.186067 -0.117109 0.308905
v -0.178600 -0.114295 0.425806
v -0.139459 -0.108241 0.442720
v -0.104758 -0.087264 0.459133
v -0.081642 -0.051772 0.472019
v -0.072082 -0.008757 0.479921
v -0.078666 0.036030 0.481234
v -0.101902 0.075066 0.475062
v -0.136581 0.102994 0.463098
v -0.178599 0.111995 0.446347
v -0.219866 0.104134 0.428380
v -0.253412 0.078688 0.412044
v -0.274762 0.041742 0.399764
v -0.282023 -0.000948 0.392853
v -0.272359 -0.043173 0.393061
v -0.249979 -0.079205 0.399147
v -0.217595 -0.104949 0.410350
v -0.217315 -0.108880 0.523633
v -0.178329 -0.102574 0.540506
v -0.144846 -0.080671 0.556493
v -0.123071 -0.045394 0.568800
v -0.114677 -0.003568 0.576106
v -0.122944 0.038821 0.576497
v -0.145346 0.075181 0.570432
v -0.178228 0.100514 0.558983
v -0.217256 0.108880 0.543425
v -0.255740 0.101786 0.526691
v -0.287918 0.079179 0.511185
v -0.308843 0.044636 0.499301
v -0.316900 0.003984 0.492242
v -0.309337 -0.037357 0.491651
v -0.287872 -0.073255 0.497367
v -0.256048 -0.099231 0.508315
v -0.256393 -0.108880 0.620818
v -0.217071 -0.102414 0.637845
v -0.183544 -0.079968 0.653901
v -0.161919 -0.044392 0.666172
v -0.153802 -0.002457 0.673372
v -0.162586 0.039715 0.673527
v -0.185016 0.075701 0.667416
v -0.217708 0.100590 0.656006
v -0.256355 0.108880 0.640601
v -0.294461 0.101952 0.624040
v -0.326633 0.079861 0.608583
v -0.347683 0.045656 0.596677
v -0.356023 0.005118 0.589510
v -0.348974 -0.036475 0.588682
v -0.327545 -0.072731 0.594350
v -0.295495 -0.099088 0.605358
v -0.295786 -0.108880 0.717870
v -0.256847 -0.102587 0.734722
v -0.223364 -0.080727 0.750706
v -0.201576 -0.045467 0.763016
v -0.193163 -0.003672 0.770327
v -0.201388 0.038751 0.770739
v -0.223799 0.075153 0.764674
v -0.256678 0.100505 0.753228
v -0.295773 0.108880 0.737643
v -0.334286 0.101763 0.720894
v -0.366457 0.079098 0.705386
v -0.387372 0.044499 0.693501
v -0.395388 0.003859 0.686460
v -0.387758 -0.037479 0.685898
v -0.366289 -0.073326 0.691620
v -0.334497 -0.099249 0.702560
v -0.335040 -0.108880 0.814981
v -0.296031 -0.102570 0.831864
v -0.262535 -0.080639 0.847859
v -0.240771 -0.045357 0.860162
v -0.232385 -0.003518 0.867466
v -0.240680 0.038869 0.867845
v -0.263086 0.075212 0.861776
v -0.295957 0.100519 0.850330
v -0.334964 0.108880 0.834780
v -0.373423 0.101796 0.818057
v -0.405603 0.079217 0.802553
v -0.426532 0.044699 0.790669
v -0.434606 0.004055 0.783604
v -0.427077 -0.037300 0.782998
v -0.405629 -0.073204 0.788706
v -0.373778 -0.099220 0.799662
v -0.374404 -0.108880 0.912046
v -0.336059 -0.102824 0.928628
v -0.302640 -0.081767 0.944512
v -0.280658 -0.047021 0.956857
v -0.271819 -0.005450 0.964326
v -0.279205 0.037296 0.965118
v -0.301535 0.074262 0.959137
v -0.334639 0.100343 0.947664
v -0.374387 0.108880 0.931820
v -0.413469 0.101536 0.914813
v -0.445754 0.078029 0.899181
v -0.466451 0.042952 0.887343
v -0.474044 0.002081 0.880459
v -0.465584 -0.038916 0.880275
v -0.444045 -0.074193 0.886078
v -0.412524 -0.099555 0.896955
v -0.413495 -0.108880 1.009225
v -0.374536 -0.102579 1.026086
v -0.341057 -0.080698 1.042070
v -0.319273 -0.045422 1.054380
v -0.310871 -0.003615 1.061688
v -0.319118 0.038785 1.062089
v -0.341525 0.075167 1.056023
v -0.374405 0.100510 1.044576
v -0.413460 0.108880 1.029007
v -0.451965 0.101775 1.012263
v -0.484137 0.079143 0.996757
v -0.505059 0.044569 0.984871
v -0.513096 0.003924 0.977821
v -0.505503 -0.037411 0.977244
v -0.484031 -0.073292 0.982964
v -0.452225 -0.099240 0.993907
v -0.452317 -0.108880 1.106517
v -0.412107 -0.102043 1.123949
v -0.378523 -0.078392 1.140138
v -0.357196 -0.042052 1.152353
v -0.349775 0.000196 1.159291
v -0.359733 0.041826 1.158906
v -0.382263 0.076972 1.152677
v -0.414573 0.100803 1.141331
v -0.452259 0.108880 1.126308
v -0.489519 0.102316 1.110133
v -0.521594 0.081461 1.094830
v -0.542966 0.047981 1.082855
v -0.551942 0.007791 1.075454
v -0.546136 -0.034330 1.074058
v -0.524802 -0.071448 1.079608
v -0.492286 -0.098679 1.090732
vn -0.03769 -0.99920 -0.01346
vn 0.28951 -0.94914 0.12377
vn 0.60628 -0.75345 0.25442
vn 0.83101 -0.43849 0.34228
vn 0.92200 -0.07212 0.38041
vn 0.87257 0.33016 0.36002
vn 0.68771 0.66890 0.28217
vn 0.38089 0.91143 0.15565
vn 0.01122 0.99993 0.00305
vn -0.34675 0.92663 -0.14530
vn -0.65817 0.70163 -0.27302
vn -0.85245 0.38936 -0.34891
vn -0.92528 0.00309 -0.37926
vn -0.85508 -0.38146 -0.35117
vn -0.67839 -0.68074 -0.27636
vn -0.38815 -0.90815 -0.15685
vn -0.03760 -0.99920 -0.01383
vn 0.29906 -0.94590 0.12581
vn 0.61704 -0.74408 0.25614
vn 0.83652 -0.42763 0.34259
vn 0.92391 -0.05397 0.37879
vn 0.86812 0.34592 0.35597
vn 0.68188 0.67637 0.27852
vn 0.37646 0.91366 0.15329
vn 0.01248 0.99991 0.00389
vn -0.33895 0.93018 -0.14095
vn -0.64978 0.71131 -0.26801
vn -0.84834 0.40049 -0.34631
vn -0.92546 0.02187 -0.37823
vn -0.86152 -0.36539 -0.35253
vn -0.68392 -0.67449 -0.27806
vn -0.39271 -0.90587 -0.15864
vn -0.03684 -0.99921 -0.01490
vn 0.31413 -0.94086 0.12691
vn 0.63387 -0.72980 0.25612
vn 0.84510 -0.41133 0.34149
vn 0.92682 -0.02690 0.37454
vn 0.86169 0.36912 0.34821
vn 0.67351 0.68726 0.27212
vn 0.37014 0.91686 0.14956
vn 0.01427 0.99988 0.00582
vn -0.32796 0.93538 -0.13232
vn -0.63821 0.72549 -0.25758
vn -0.84290 0.41677 -0.34033
vn -0.92616 0.04927 -0.37390
vn -0.87144 -0.34178 -0.35182
vn -0.69216 -0.66539 -0.27957
vn -0.39904 -0.90265 -0.16121
vn -0.03666 -0.99921 -0.01528
vn 0.31447 -0.94092 0.12559
vn 0.63439 -0.72996 0.25437
vn 0.84546 -0.41151 0.34038
vn 0.92731 -0.02724 0.37331
vn 0.86227 0.36885 0.34706
vn 0.67389 0.68715 0.27147
vn 0.37028 0.91684 0.14932
vn 0.01401 0.99988 0.00606
vn -0.32881 0.93521 -0.13142
vn -0.63923 0.72505 -0.25628
vn -0.84351 0.41628 -0.33942
vn -0.92669 0.04850 -0.37269
vn -0.87170 -0.34245 -0.35053
vn -0.69214 -0.66564 -0.27904
vn -0.39887 -0.90273 -0.16120
vn -0.03712 -0.99920 -0.01522
vn 0.31002 -0.94256 0.12440
vn 0.62963 -0.73448 0.25319
vn 0.84316 -0.41662 0.33986
vn 0.92692 -0.03568 0.37357
vn 0.86475 0.36163 0.34846
vn 0.67674 0.68381 0.27281
vn 0.37230 0.91589 0.15012
vn 0.01328 0.99990 0.00554
vn -0.33272 0.93351 -0.13365
vn -0.64337 0.72047 -0.25884
vn -0.84546 0.41113 -0.34084
vn -0.92677 0.03997 -0.37350
vn -0.86898 -0.34969 -0.35014
vn -0.68983 -0.66833 -0.27833
vn -0.39722 -0.90359 -0.16045
vn -0.03706 -0.99920 -0.01497
vn 0.30735 -0.94347 0.12412
vn 0.62656 -0.73713 0.25309
vn 0.84155 -0.41975 0.33999
vn 0.92642 -0.04088 0.37427
vn 0.86604 0.35715 0.34988
vn 0.67848 0.68156 0.27410
vn 0.37372 0.91517 0.15099
vn 0.01309 0.99990 0.00533
vn -0.33465 0.93261 -0.13508
vn -0.64550 0.71792 -0.26061
vn -0.84650 0.40814 -0.34186
vn -0.92669 0.03487 -0.37422
vn -0.86717 -0.35412 -0.35017
vn -0.68827 -0.67007 -0.27801
vn -0.39586 -0.90428 -0.15991
vn -0.03747 -0.99920 -0.01377
vn 0.30533 -0.94359 0.12809
vn 0.62384 -0.73758 0.25847
vn 0.83961 -0.42030 0.34410
vn 0.92444 -0.04174 0.37903
vn 0.86464 0.35644 0.35404
vn 0.67773 0.68129 0.27664
vn 0.37347 0.91510 0.15199
vn 0.01345 0.99990 0.00425
vn -0.33330 0.93254 -0.13889
vn -0.64349 0.71779 -0.26588
vn -0.84512 0.40799 -0.34543
vn -0.92491 0.03457 -0.37861
vn -0.86529 -0.35437 -0.35454
vn -0.68744 -0.67024 -0.27963
vn -0.39565 -0.90438 -0.15985
vn -0.02734 -0.99893 -0.03727
vn 0.33071 -0.93791 0.10462
vn 0.65228 -0.72184 0.23126
vn 0.86106 -0.40026 0.31363
vn 0.93985 -0.01180 0.34139
vn 0.87112 0.38068 0.31021
vn 0.68241 0.69322 0.23187
vn 0.38126 0.91794 0.10969
vn 0.03036 0.99909 -0.02993
vn -0.30740 0.93768 -0.16206
vn -0.61826 0.73316 -0.28327
vn -0.82760 0.42624 -0.36523
vn -0.91587 0.06370 -0.39640
vn -0.86690 -0.32963 -0.37393
vn -0.68749 -0.66037 -0.30212
vn -0.39326 -0.90078 -0.18422
vn 0.00900 -0.99177 -0.12774
vn 0.35809 -0.93363 0.01060
vn 0.67642 -0.72391 0.13566
vn 0.88739 -0.40561 0.21913
vn 0.96847 -0.02544 0.24782
vn 0.90441 0.36588 0.21948
vn 0.71746 0.68202 0.14180
vn 0.41766 0.90840 0.01935
vn 0.06521 0.99057 -0.12051
vn -0.27494 0.92732 -0.25395
vn -0.58419 0.72000 -0.37459
vn -0.78855 0.41450 -0.45428
vn -0.87325 0.04908 -0.48480
vn -0.82004 -0.33971 -0.46057
vn -0.64275 -0.65989 -0.38913
vn -0.35149 -0.89547 -0.27313
vn 0.03374 -0.98026 -0.19479
vn 0.36898 -0.92776 -0.05583
vn 0.68223 -0.72764 0.07142
vn 0.89583 -0.41568 0.15718
vn 0.98037 -0.04481 0.19203
vn 0.92222 0.34727 0.17002
vn 0.73741 0.66877 0.09468
vn 0.43781 0.89859 -0.02923
vn 0.08311 0.98126 -0.17383
vn -0.25808 0.91291 -0.31621
vn -0.56116 0.70023 -0.44134
vn -0.75701 0.39703 -0.51894
vn -0.83310 0.03006 -0.55230
vn -0.77385 -0.35005 -0.52785
vn -0.60134 -0.65720 -0.45439
vn -0.31660 -0.88594 -0.33894
vn 0.02291 -0.98425 -0.17529
vn 0.37220 -0.92740 -0.03731
vn 0.68889 -0.71933 0.08937
vn 0.89650 -0.40536 0.17878
vn 0.97713 -0.02289 0.21140
vn 0.91025 0.36925 0.18734
vn 0.72191 0.68240 0.11475
vn 0.42124 0.90694 -0.00498
vn 0.07103 0.98718 -0.14291
vn -0.26725 0.92305 -0.27670
vn -0.57240 0.71627 -0.39914
vn -0.77231 0.41199 -0.48353
vn -0.85398 0.05123 -0.51778
vn -0.80056 -0.33359 -0.49783
vn -0.62225 -0.65374 -0.43061
vn -0.33402 -0.88702 -0.31880
vn -0.01150 -0.99495 -0.09967
vn 0.32636 -0.94419 0.04457
vn 0.64209 -0.74493 0.18109
vn 0.85871 -0.43077 0.27757
vn 0.94525 -0.05280 0.32205
vn 0.88620 0.34944 0.30420
vn 0.69640 0.67984 0.22989
vn 0.38824 0.91550 0.10546
vn 0.02615 0.99873 -0.04310
vn -0.32410 0.92690 -0.18923
vn -0.63075 0.70734 -0.31909
vn -0.82416 0.39705 -0.40387
vn -0.89648 0.02340 -0.44247
vn -0.83068 -0.36019 -0.42454
vn -0.65115 -0.66943 -0.35758
vn -0.36368 -0.89889 -0.24438
vn -0.06378 -0.99757 0.02821
vn 0.28024 -0.94394 0.17451
vn 0.59666 -0.73971 0.31117
vn 0.81147 -0.42231 0.40394
vn 0.89371 -0.04087 0.44679
vn 0.83075 0.35746 0.42670
vn 0.64027 0.68332 0.35090
vn 0.33341 0.91496 0.22735
vn -0.02350 0.99654 0.07974
vn -0.36915 0.92716 -0.06402
vn -0.67517 0.71179 -0.19367
vn -0.87119 0.40401 -0.27894
vn -0.94783 0.03609 -0.31673
vn -0.88733 -0.35027 -0.29992
vn -0.70812 -0.66669 -0.23257
vn -0.42018 -0.89981 -0.11743
vn -0.09320 -0.98985 0.10724
vn 0.25797 -0.93437 0.24577
vn 0.57740 -0.72577 0.37399
vn 0.78862 -0.40718 0.46074
vn 0.86914 -0.02331 0.49401
vn 0.80306 0.37018 0.46697
vn 0.61259 0.68670 0.39138
vn 0.30913 0.91154 0.27117
vn -0.04185 0.99048 0.13111
vn -0.38223 0.92407 -0.00184
vn -0.68788 0.71535 -0.12285
vn -0.88745 0.41218 -0.20626
vn -0.97008 0.05120 -0.23731
vn -0.91716 -0.33470 -0.21630
vn -0.73965 -0.65606 -0.14998
vn -0.45226 -0.89118 -0.03538
vn -0.09468 -0.98893 0.11428
vn 0.24288 -0.93623 0.25395
vn 0.55883 -0.73486 0.38430
vn 0.77682 -0.42018 0.46903
vn 0.86210 -0.04595 0.50465
vn 0.80402 0.35023 0.48051
vn 0.61749 0.67558 0.40286
vn 0.31382 0.90742 0.27946
vn -0.04307 0.99029 0.13219
vn -0.38970 0.92089 -0.00996
vn -0.69563 0.70556 -0.13522
vn -0.89157 0.39973 -0.21288
vn -0.96933 0.02918 -0.24404
vn -0.90893 -0.35397 -0.22036
vn -0.73339 -0.66369 -0.14715
vn -0.44757 -0.89379 -0.02869
vn -0.09207 -0.98925 0.11364
vn 0.25744 -0.93247 0.25344
vn 0.57549 -0.72345 0.38135
vn 0.78578 -0.40689 0.46582
vn 0.86643 -0.02407 0.49873
vn 0.80131 0.36898 0.47091
vn 0.61312 0.68421 0.39491
vn 0.31108 0.90990 0.27442
vn -0.04013 0.99026 0.13331
vn -0.37972 0.92510 -0.00062
vn -0.68625 0.71700 -0.12238
vn -0.88764 0.41268 -0.20444
vn -0.97052 0.05067 -0.23563
vn -0.91719 -0.33571 -0.21461
vn -0.73969 -0.65690 -0.14605
vn -0.45119 -0.89194 -0.02963
vn -0.07316 -0.99464 0.07303
vn 0.26995 -0.93982 0.20943
vn 0.58833 -0.73541 0.33623
vn 0.80433 -0.41882 0.42149
vn 0.88996 -0.04107 0.45419
vn 0.83095 0.35625 0.42732
vn 0.64388 0.68061 0.34955
vn 0.33983 0.91265 0.22711
vn -0.01922 0.99637 0.08290
vn -0.36733 0.92855 -0.05359
vn -0.67773 0.71409 -0.17536
vn -0.87803 0.40505 -0.25494
vn -0.95850 0.03332 -0.28314
vn -0.89956 -0.35263 -0.25777
vn -0.72121 -0.66694 -0.18722
vn -0.43057 -0.89987 -0.06964
vn -0.04694 -0.99885 0.00993
vn 0.28922 -0.94573 0.14817
vn 0.60693 -0.74489 0.27708
vn 0.82781 -0.42856 0.36204
vn 0.91630 -0.05558 0.39663
vn 0.86180 0.34455 0.37227
vn 0.67603 0.67606 0.29315
vn 0.37097 0.91344 0.16739
vn 0.00676 0.99982 0.01790
vn -0.34580 0.92977 -0.12628
vn -0.65708 0.71052 -0.25182
vn -0.85605 0.39896 -0.32866
vn -0.93340 0.01991 -0.35828
vn -0.87001 -0.36586 -0.33049
vn -0.69283 -0.67461 -0.25473
vn -0.40188 -0.90577 -0.13442
vn -0.03690 -0.99921 -0.01492
vn 0.31259 -0.94146 0.12624
vn 0.63222 -0.73149 0.25538
vn 0.84431 -0.41326 0.34110
vn 0.92677 -0.03013 0.37442
vn 0.86273 0.36634 0.34855
vn 0.67470 0.68592 0.27257
vn 0.37099 0.91646 0.14989
vn 0.01399 0.99989 0.00571
vn -0.32953 0.93473 -0.13300
vn -0.63988 0.72375 -0.25833
vn -0.84369 0.41484 -0.34072
vn -0.92627 0.04598 -0.37405
vn -0.87045 -0.34462 -0.35150
vn -0.69127 -0.66646 -0.27923
vn -0.39832 -0.90302 -0.16092
vn -0.03675 -0.99921 -0.01515
vn 0.31271 -0.94153 0.12543
vn 0.63244 -0.73167 0.25432
vn 0.84448 -0.41346 0.34044
vn 0.92704 -0.03052 0.37371
vn 0.86312 0.36602 0.34791
vn 0.67496 0.68580 0.27224
vn 0.37110 0.91643 0.14979
vn 0.01380 0.99989 0.00582
vn -0.33016 0.93457 -0.13255
vn -0.64062 0.72334 -0.25765
vn -0.84412 0.41437 -0.34023
vn -0.92657 0.04525 -0.37338
vn -0.87050 -0.34526 -0.35076
vn -0.69116 -0.66671 -0.27891
vn -0.39813 -0.90311 -0.16091
vn -0.03706 -0.99919 -0.01537
vn 0.31030 -0.94253 0.12392
vn 0.62999 -0.73439 0.25256
vn 0.84338 -0.41652 0.33944
vn 0.92713 -0.03552 0.37305
vn 0.86490 0.36177 0.34794
vn 0.67681 0.68387 0.27248
vn 0.37231 0.91591 0.14999
vn 0.01324 0.99990 0.00568
vn -0.33286 0.93353 -0.13316
vn -0.64358 0.72052 -0.25817
vn -0.84561 0.41119 -0.34039
vn -0.92698 0.04007 -0.37295
vn -0.86923 -0.34960 -0.34961
vn -0.68996 -0.66828 -0.27814
vn -0.39726 -0.90357 -0.16046
vn -0.03710 -0.99920 -0.01498
vn 0.30572 -0.94408 0.12351
vn 0.62484 -0.73881 0.25246
vn 0.84073 -0.42162 0.33973
vn 0.92626 -0.04408 0.37431
vn 0.86700 0.35438 0.35034
vn 0.67959 0.68027 0.27457
vn 0.37451 0.91479 0.15131
vn 0.01282 0.99990 0.00522
vn -0.33618 0.93198 -0.13566
vn -0.64719 0.71618 -0.26122
vn -0.84735 0.40614 -0.34213
vn -0.92682 0.03152 -0.37417
vn -0.86618 -0.35700 -0.34969
vn -0.68736 -0.67117 -0.27761
vn -0.39510 -0.90467 -0.15960
vn -0.03750 -0.99920 -0.01379
vn 0.30370 -0.94420 0.12748
vn 0.62211 -0.73926 0.25783
vn 0.83898 -0.42213 0.34339
vn 0.92445 -0.04491 0.37864
vn 0.86559 0.35366 0.35452
vn 0.67884 0.67997 0.27715
vn 0.37428 0.91472 0.15235
vn 0.01319 0.99990 0.00415
vn -0.33480 0.93191 -0.13948
vn -0.64516 0.71606 -0.26651
vn -0.84596 0.40600 -0.34572
vn -0.92504 0.03123 -0.37858
vn -0.86429 -0.35726 -0.35407
vn -0.68652 -0.67136 -0.27924
vn -0.39488 -0.90477 -0.15954
vn -0.03780 -0.99920 -0.01337
vn 0.30720 -0.94264 0.13057
vn 0.62577 -0.73486 0.26151
vn 0.84062 -0.41707 0.34557
vn 0.92419 -0.03634 0.38020
vn 0.86245 0.36105 0.35472
vn 0.67543 0.68359 0.27659
vn 0.37185 0.91583 0.15160
vn 0.01397 0.99989 0.00397
vn -0.33023 0.93358 -0.13923
vn -0.63988 0.72075 -0.26659
vn -0.84315 0.41144 -0.34614
vn -0.92407 0.04038 -0.38007
vn -0.86641 -0.34934 -0.35678
vn -0.68884 -0.66830 -0.28085
vn -0.39714 -0.90363 -0.16039
f 1//1 2//2 18//18 17//17
f 2//2 3//3 19//19 18//18
f 3//3 4//4 20//20 19//19
f 4//4 5//5 21//21 20//20
f 5//5 6//6 22//22 21//21
f 6//6 7//7 23//23 22//22
f 7//7 8//8 24//24 23//23
f 8//8 9//9 25//25 24//24
f 9//9 10//10 26//26 25//25
f 10//10 11//11 27//27 26//26
f 11//11 12//12 28//28 27//27
f 12//12 13//13 29//29 28//28
f 13//13 14//14 30//30 29//29
f 14//14 15//15 31//31 30//30
f 15//15 16//16 32//32 31//31
f 16//16 1//1 17//17 32//32
f 17//17 18//18 34//34 33//33
f 18//18 19//19 35//35 34//34
f 19//19 20//20 36//36 35//35
f 20//20 21//21 37//37 36//36
f 21//21 22//22 38//38 37//37
f 22//22 23//23 39//39 38//38
f 23//23 24//24 40//40 39//39
f 24//24 25//25 41//41 40//40
f 25//25 26//26 42//42 41//41
f 26//26 27//27 43//43 42//42
f 27//27 28//28 44//44 43//43
f 28//28 29//29 45//45 44//44
f 29//29 30//30 46//46 45//45
f 30//30 31//31 47//47 46//46
f 31//31 32//32 48//48 47//47
f 32//32 17//17 33//33 48//48
f 33//33 34//34 50//50 49//49
f 34//34 35//35 51//51 50//50
f 35//35 36//36 52//52 51//51
f 36//36 37//37 53//53 52//52
f 37//37 38//38 54//54 53//53
f 38//38 39//39 55//55 54//54
f 39//39 40//40 56//56 55//55
f 40//40 41//41 57//57 56//56
f 41//41 42//42 58//58 57//57
f 42//42 43//43 59//59 58//58
f 43//43 44//44 60//60 59//59
f 44//44 45//45 61//61 60//60
f 45//45 46//46 62//62 61//61
f 46//46 47//47 63//63 62//62
f 47//47 48//48 64//64 63//63
f 48//48 33//33 49//49 64//64
f 49//49 50//50 66//66 65//65
f 50//50 51//51 67//67 66//66
f 51//51 52//52 68//68 67//67
f 52//52 53//53 69//69 68//68
f 53//53 54//54 70//70 69//69
f 54//54 55//55 71//71 70//70
f 55//55 56//56 72//72 71//71
f 56//56 57//57 73//73 72//72
f 57//57 58//58 74//74 73//73
f 58//58 59//59 75//75 74//74
f 59//59 60//60 76//76 75//75
f 60//60 61//61 77//77 76//76
f 61//61 62//62 78//78 77//77
f 62//62 63//63 79//79 78//78
f 63//63 64//64 80//80 79//79
f 64//64 49//49 65//65 80//80
f 65//65 66//66 82//82 81//81
f 66//66 67//67 83//83 82//82
f 67//67 68//68 84//84 83//83
f 68//68 69//69 85//85 84//84
f 69//69 70//70 86//86 85//85
f 70//70 71//71 87//87 86//86
f 71//71 72//72 88//88 87//87
f 72//72 73//73 89//89 88//88
f 73//73 74//74 90//90 89//89
f 74//74 75//75 91//91 90//90
f 75//75 76//76 92//92 91//91
f 76//76 77//77 93//93 92//92
f 77//77 78//78 94//94 93//93
f 78//78 79//79 95//95 94//94
f 79//79 80//80 96//96 95//95
f 80//80 65//65 81//81 96//96
f 81//81 82//82 98//98 97//97
f 82//82 83//83 99//99 98//98
f 83//83 84//84 100//100 99//99
f 84//84 85//85 101//101 100//100
f 85//85 86//86 102//102 101//101
f 86//86 87//87 103//103 102//102
f 87//87 88//88 104//104 103//103
f 88//88 89//89 105//105 104//104
f 89//89 90//90 106//106 105//105
f 90//90 91//91 107//107 106//106
f 91//91 92//92 108//108 107//107
f 92//92 93//93 109//109 108//108
f 93//93 94//94 110//110 109//109
f 94//94 95//95 111//111 110//110
f 95//95 96//96 112//112 111//111
f 96//96 81//81 97//97 112//112
f 97//97 98//98 114//114 113//113
f 98//98 99//99 115//115 114//114
f 99//99 100//100 116//116 115//115
f 100//100 101//101 117//117 116//116
f 101//101 102//102 118//118 117//117
f 102//102 103//103 119//119 118//118
f 103//103 104//104 120//120 119//119
f 104//104 105//105 121//121 120//120
f 105//105 106//106 122//122 121//121
f 106//106 107//107 123//123 122//122
f 107//107 108//108 124//124 123//123
f 108//108 109//109 125//125 124//124
f 109//109 110//110 126//126 125//125
f 110//110 111//111 127//127 126//126
f 111//111 112//112 128//128 127//127
f 112//112 97//97 113//113 128//128
f 113//113 114//114 130//130 129//129
f 114//114 115//115 131//131 130//130
f 115//115 116//116 132//132 131//131
f 116//116 117//117 133//133 132//132
f 117//117 118//118 134//134 133//133
f 118//118 119//119 135//135 134//134
f 119//119 120//120 136//136 135//135
f 120//120 121//121 137//137 136//136
f 121//121 122//122 138//138 137//137
f 122//122 123//123 139//139 138//138
f 123//123 124//124 140//140 139//139
f 124//124 125//125 141//141 140//140
f 125//125 126//126 142//142 141//141
f 126//126 127//127 143//143 142//142
f 127//127 128//128 144//144 143//143
f 128//128 113//113 129//129 144//144
f 129//129 130//130 146//146 145//145
f 130//130 131//131 147//147 146//146
f 131//131 132//132 148//148 147//147
f 132//132 133//133 149//149 148//148
f 133//133 134//134 150//150 149//149
f 134//134 135//135 151//151 150//150
f 135//135 136//136 152//152 151//151
f 136//136 137//137 153//153 152//152
f 137//137 138//138 154//154 153//153
f 138//138 139//139 155//155 154//154
f 139//139 140//140 156//156 155//155
f 140//140 141//141 157//157 156//156
f 141//141 142//142 158//158 157//157
f 142//142 143//143 159//159 158//158
f 143//143 144//144 160//160 159//159
f 144//144 129//129 145//145 160//160
f 145//145 146//146 162//162 161//161
f 146//146 147//147 163//163 162//162
f 147//147 148//148 164//164 163//163
f 148//148 149//149 165//165 164//164
f 149//149 150//150 166//166 165//165
f 150//150 151//151 167//167 166//166
f 151//151 152//152 168//168 167//167
f 152//152 153//153 169//169 168//168
f 153//153 154//154 170//170 169//169
f 154//154 155//155 171//171 170//170
f 155//155 156//156 172//172 171//171
f 156//156 157//157 173//173 172//172
f 157//157 158//158 174//174 173//173
f 158//158 159//159 175//175 174//174
f 159//159 160//160 176//176 175//175
f 160//160 145//145 161//161 176//176
f 161//161 162//162 178//178 177//177
f 162//162 163//163 179//179 178//178
f 163//163 164//164 180//180 179//179
f 164//164 165//165 181//181 180//180
f 165//165 166//166 182//182 181//181
f 166//166 167//167 183//183 182//182
f 167//167 168//168 184//184 183//183
f 168//168 169//169 185//185 184//184
f 169//169 170//170 186//186 185//185
f 170//170 171//171 187//187 186//186
f 171//171 172//172 188//188 187//187
f 172//172 173//173 189//189 188//188
f 173//173 174//174 190//190 189//189
f 174//174 175//175 191//191 190//190
f 175//175 176//176 192//192 191//191
f 176//176 161//161 177//177 192//192
f 177//177 178//178 194//194 193//193
f 178//178 179//179 195//195 194//194
f 179//179 180//180 196//196 195//195
f 180//180 181//181 197//197 196//196
f 181//181 182//182 198//198 197//197
f 182//182 183//183 199//199 198//198
f 183//183 184//184 200//200 199//199
f 184//184 185//185 201//201 200//200
f 185//185 186//186 202//202 201//201
f 186//186 187//187 203//203 202//202
f 187//187 188//188 204//204 203//203
f 188//188 189//189 205//205 204//204
f 189//189 190//190 206//206 205//205
f 190//190 191//191 207//207 206//206
f 191//191 192//192 208//208 207//207
f 192//192 177//177 193//193 208//208
f 193//193 194//194 210//210 209//209
f 194//194 195//195 211//211 210//210
f 195//195 196//196 212//212 211//211
f 196//196 197//197 213//213 212//212
f 197//197 198//198 214//214 213//213
f 198//198 199//199 215//215 214//214
f 199//199 200//200 216//216 215//215
f 200//200 201//201 217//217 216//216
f 201//201 202//202 218//218 217//217
f 202//202 203//203 219//219 218//218
f 203//203 204//204 220//220 219//219
f 204//204 205//205 221//221 220//220
f 205//205 206//206 222//222 221//221
f 206//206 207//207 223//223 222//222
f 207//207 208//208 224//224 223//223
f 208//208 193//193 209//209 224//224
f 209//209 210//210 226//226 225//225
f 210//210 211//211 227//227 226//226
f 211//211 212//212 228//228 227//227
f 212//212 213//213 229//229 228//228
f 213//213 214//214 230//230 229//229
f 214//214 215//215 231//231 230//230
f 215//215 216//216 232//232 231//231
f 216//216 217//217 233//233 232//232
f 217//217 218//218 234//234 233//233
f 218//218 219//219 235//235 234//234
f 219//219 220//220 236//236 235//235
f 220//220 221//221 237//237 236//236
f 221//221 222//222 238//238 237//237
f 222//222 223//223 239//239 238//238
f 223//223 224//224 240//240 239//239
f 224//224 209//209 225//225 240//240
f 225//225 226//226 242//242 241//241
f 226//226 227//227 243//243 242//242
f 227//227 228//228 244//244 243//243
f 228//228 229//229 245//245 244//244
f 229//229 230//230 246//246 245//245
f 230//230 231//231 247//247 246//246
f 231//231 232//232 248//248 247//247
f 232//232 233//233 249//249 248//248
f 233//233 234//234 250//250 249//249
f 234//234 235//235 251//251 250//250
f 235//235 236//236 252//252 251//251
f 236//236 237//237 253//253 252//252
f 237//237 238//238 254//254 253//253
f 238//238 239//239 255//255 254//254
f 239//239 240//240 256//256 255//255
f 240//240 225//225 241//241 256//256
f 241//241 242//242 258//258 257//257
f 242//242 243//243 259//259 258//258
f 243//243 244//244 260//260 259//259
f 244//244 245//245 261//261 260//260
f 245//245 246//246 262//262 261//261
f 246//246 247//247 263//263 262//262
f 247//247 248//248 264//264 263//263
f 248//248 249//249 265//265 264//264
f 249//249 250//250 266//266 265//265
f 250//250 251//251 267//267 266//266
f 251//251 252//252 268//268 267//267
f 252//252 253//253 269//269 268//268
f 253//253 254//254 270//270 269//269
f 254//254 255//255 271//271 270//270
f 255//255 256//256 272//272 271//271
f 256//256 241//241 257//257 272//272
f 257//257 258//258 274//274 273//273
f 258//258 259//259 275//275 274//274
f 259//259 260//260 276//276 275//275
f 260//260 261//261 277//277 276//276
f 261//261 262//262 278//278 277//277
f 262//262 263//263 279//279 278//278
f 263//263 264//264 280//280 279//279
f 264//264 265//265 281//281 280//280
f 265//265 266//266 282//282 281//281
f 266//266 267//267 283//283 282//282
f 267//267 268//268 284//284 283//283
f 268//268 269//269 285//285 284//284
f 269//269 270//270 286//286 285//285
f 270//270 271//271 287//287 286//286
f 271//271 272//272 288//288 287//287
f 272//272 257//257 273//273 288//288
f 273//273 274//274 290//290 289//289
f 274//274 275//275 291//291 290//290
f 275//275 276//276 292//292 291//291
f 276//276 277//277 293//293 292//292
f 277//277 278//278 294//294 293//293
f 278//278 279//279 295//295 294//294
f 279//279 280//280 296//296 295//295
f 280//280 281//281 297//297 296//296
f 281//281 282//282 298//298 297//297
f 282//282 283//283 299//299 298//298
f 283//283 284//284 300//300 299//299
f 284//284 285//285 301//301 300//300
f 285//285 286//286 302//302 301//301
f 286//286 287//287 303//303 302//302
f 287//287 288//288 304//304 303//303
f 288//288 273//273 289//289 304//304
f 289//289 290//290 306//306 305//305
f 290//290 291//291 307//307 306//306
f 291//291 292//292 308//308 307//307
f 292//292 293//293 309//309 308//308
f 293//293 294//294 310//310 309//309
f 294//294 295//295 311//311 310//310
f 295//295 296//296 312//312 311//311
f 296//296 297//297 313//313 312//312
f 297//297 298//298 314//314 313//313
f 298//298 299//299 315//315 314//314
f 299//299 300//300 316//316 315//315
f 300//300 301//301 317//317 316//316
f 301//301 302//302 318//318 317//317
f 302//302 303//303 319//319 318//318
f 303//303 304//304 320//320 319//319
f 304//304 289//289 305//305 320//320
f 305//305 306//306 322//322 321//321
f 306//306 307//307 323//323 322//322
f 307//307 308//308 324//324 323//323
f 308//308 309//309 325//325 324//324
f 309//309 310//310 326//326 325//325
f 310//310 311//311 327//327 326//326
f 311//311 312//312 328//328 327//327
f 312//312 313//313 329//329 328//328
f 313//313 314//314 330//330 329//329
f 314//314 315//315 331//331 330//330
f 315//315 316//316 332//332 331//331
f 316//316 317//317 333//333 332//332
f 317//317 318//318 334//334 333//333
f 318//318 319//319 335//335 334//334
f 319//319 320//320 336//336 335//335
f 320//320 305//305 321//321 336//336
f 321//321 322//322 338//338 337//337
f 322//322 323//323 339//339 338//338
f 323//323 324//324 340//340 339//339
f 324//324 325//325 341//341 340//340
f 325//325 326//326 342//342 341//341
f 326//326 327//327 343//343 342//342
f 327//327 328//328 344//344 343//343
f 328//328 329//329 345//345 344//344
f 329//329 330//330 346//346 345//345
f 330//330 331//331 347//347 346//346
f 331//331 332//332 348//348 347//347
f 332//332 333//333 349//349 348//348
f 333//333 334//334 350//350 349//349
f 334//334 335//335 351//351 350//350
f 335//335 336//336 352//352 351//351
f 336//336 321//321 337//337 352//352
f 337//337 338//338 354//354 353//353
f 338//338 339//339 355//355 354//354
f 339//339 340//340 356//356 355//355
f 340//340 341//341 357//357 356//356
f 341//341 342//342 358//358 357//357
f 342//342 343//343 359//359 358//358
f 343//343 344//344 360//360 359//359
f 344//344 345//345 361//361 360//360
f 345//345 346//346 362//362 361//361
f 346//346 347//347 363//363 362//362
f 347//347 348//348 364//364 363//363
f 348//348 349//349 365//365 364//364
f 349//349 350//350 366//366 365//365
f 350//350 351//351 367//367 366//366
f 351//351 352//352 368//368 367//367
f 352//352 337//337 353//353 368//368
f 353//353 354//354 370//370 369//369
f 354//354 355//355 371//371 370//370
f 355//355 356//356 372//372 371//371
f 356//356 357//357 373//373 372//372
f 357//357 358//358 374//374 373//373
f 358//358 359//359 375//375 374//374
f 359//359 360//360 376//376 375//375
f 360//360 361//361 377//377 376//376
f 361//361 362//362 378//378 377//377
f 362//362 363//363 379//379 378//378
f 363//363 364//364 380//380 379//379
f 364//364 365//365 381//381 380//380
f 365//365 366//366 382//382 381//381
f 366//366 367//367 383//383 382//382
f 367//367 368//368 384//384 383//383
f 368//368 353//353 369//369 384//384
