# tube retopo
v -1.037312 -0.121184 -0.490939
v -1.006524 -0.084898 -0.554318
v -0.990026 -0.011502 -0.577860
v -0.995334 0.057583 -0.552454
v -1.008143 0.087349 -0.517528
v -1.014345 0.092639 -0.502373
v -1.016549 0.094206 -0.497047
v -1.018753 0.095774 -0.491722
v -1.020843 0.096878 -0.486746
v -1.022633 0.096765 -0.482687
v -1.024423 0.096652 -0.478628
v -1.030042 0.096297 -0.465884
v -1.043072 0.088192 -0.437725
v -1.065879 0.045825 -0.393787
v -1.077002 -0.029446 -0.382737
v -1.066289 -0.098781 -0.420431
v -0.932677 -0.120016 -0.454167
v -0.902544 -0.087120 -0.515286
v -0.885527 -0.019055 -0.540274
v -0.886806 0.045313 -0.525086
v -0.897144 0.078908 -0.495602
v -0.904768 0.090839 -0.476324
v -0.909387 0.094092 -0.465406
v -0.913218 0.096791 -0.456349
v -0.916078 0.098040 -0.449734
v -0.919698 0.097815 -0.441707
v -0.923317 0.097591 -0.433679
v -0.930890 0.094840 -0.417315
v -0.945003 0.080508 -0.388556
v -0.963864 0.036459 -0.354793
v -0.972421 -0.034480 -0.349068
v -0.960835 -0.098855 -0.387148
v -0.826296 -0.118833 -0.418141
v -0.796859 -0.089676 -0.476540
v -0.779217 -0.027378 -0.502985
v -0.777749 0.033526 -0.494611
v -0.785810 0.071671 -0.469959
v -0.794072 0.087315 -0.449147
v -0.800144 0.093837 -0.434796
v -0.804713 0.097010 -0.424326
v -0.809184 0.099237 -0.414245
v -0.814487 0.098917 -0.402844
v -0.819933 0.098589 -0.391137
v -0.829625 0.091903 -0.371437
v -0.844055 0.073304 -0.343702
v -0.860108 0.027315 -0.317508
v -0.866268 -0.039689 -0.316599
v -0.853689 -0.098968 -0.354935
v -0.718175 -0.117636 -0.382849
v -0.689337 -0.091495 -0.438063
v -0.670747 -0.034091 -0.466043
v -0.667034 0.024730 -0.462806
v -0.674030 0.064600 -0.440915
v -0.682497 0.084457 -0.419718
v -0.689175 0.093707 -0.404195
v -0.695328 0.097899 -0.390694
v -0.700795 0.100434 -0.378919
v -0.706852 0.100081 -0.366452
v -0.714564 0.098027 -0.350869
v -0.725439 0.089912 -0.329838
v -0.739918 0.066262 -0.304138
v -0.754594 0.019368 -0.282176
v -0.758320 -0.044499 -0.285964
v -0.744915 -0.099041 -0.323752
v -0.608565 -0.116424 -0.348295
v -0.580295 -0.092723 -0.399632
v -0.561089 -0.040455 -0.427920
v -0.555853 0.015777 -0.428051
v -0.560190 0.056609 -0.412261
v -0.568303 0.080098 -0.392249
v -0.576454 0.093256 -0.374029
v -0.583742 0.098319 -0.358935
v -0.591061 0.101639 -0.344093
v -0.598805 0.101210 -0.329082
v -0.608404 0.096660 -0.311173
v -0.620326 0.084873 -0.289982
v -0.634543 0.058616 -0.266781
v -0.646910 0.011513 -0.250729
v -0.648797 -0.048577 -0.257401
v -0.634886 -0.099020 -0.293485
v -0.498375 -0.115207 -0.314013
v -0.470551 -0.094054 -0.360986
v -0.450756 -0.046093 -0.388703
v -0.443693 0.006497 -0.392499
v -0.446567 0.048836 -0.380133
v -0.454196 0.076250 -0.361796
v -0.463094 0.091201 -0.343315
v -0.471965 0.099029 -0.326094
v -0.480677 0.102858 -0.309829
v -0.490328 0.102358 -0.292594
v -0.501512 0.095738 -0.273598
v -0.514644 0.080661 -0.252451
v -0.528953 0.051619 -0.231383
v -0.539156 0.003709 -0.220671
v -0.539019 -0.052763 -0.230007
v -0.524354 -0.099104 -0.264149
v -0.389194 -0.113995 -0.279465
v -0.361565 -0.095255 -0.321679
v -0.341134 -0.051738 -0.348138
v -0.332116 -0.001561 -0.354880
v -0.334098 0.041686 -0.344911
v -0.341404 0.071502 -0.328518
v -0.350982 0.089690 -0.310324
v -0.361059 0.099577 -0.292630
v -0.371719 0.104061 -0.274834
v -0.383291 0.103403 -0.256343
v -0.396240 0.094910 -0.236784
v -0.410571 0.076856 -0.216359
v -0.424029 0.044136 -0.199395
v -0.433028 -0.003133 -0.191660
v -0.430800 -0.056507 -0.203031
v -0.415121 -0.099115 -0.234875
v -0.283811 -0.112812 -0.243465
v -0.256221 -0.096541 -0.280338
v -0.235007 -0.057661 -0.304893
v -0.224891 -0.009452 -0.312362
v -0.224787 0.033629 -0.306496
v -0.231750 0.065915 -0.292338
v -0.242161 0.087618 -0.274915
v -0.254050 0.100065 -0.256750
v -0.267033 0.105228 -0.238065
v -0.280815 0.103342 -0.219196
v -0.295799 0.092749 -0.199752
v -0.310863 0.071029 -0.181542
v -0.323855 0.036487 -0.167736
v -0.331011 -0.010014 -0.163507
v -0.326893 -0.060258 -0.175632
v -0.309948 -0.099086 -0.204595
v -0.186585 -0.116549 -0.204502
v -0.157780 -0.102675 -0.236808
v -0.134682 -0.066893 -0.259621
v -0.122051 -0.020078 -0.268676
v -0.119581 0.025927 -0.265967
v -0.125552 0.064479 -0.254475
v -0.137627 0.091810 -0.237416
v -0.152863 0.108463 -0.218074
v -0.170005 0.114920 -0.197760
v -0.188205 0.111101 -0.177368
v -0.206516 0.096149 -0.157988
v -0.223444 0.068837 -0.141384
v -0.236328 0.029557 -0.130547
v -0.240146 -0.018966 -0.131103
v -0.233458 -0.067854 -0.144027
v -0.213977 -0.103793 -0.170794
v -0.102995 -0.135811 -0.161055
v -0.069374 -0.123499 -0.191093
v -0.041742 -0.086012 -0.212825
v -0.023851 -0.036234 -0.224044
v -0.019212 0.017618 -0.222627
v -0.025097 0.066216 -0.212315
v -0.039619 0.104551 -0.195482
v -0.061004 0.128265 -0.174163
v -0.085906 0.137021 -0.151246
v -0.111917 0.130491 -0.128724
v -0.136614 0.108667 -0.108575
v -0.157497 0.072101 -0.092867
v -0.169559 0.022445 -0.085984
v -0.171067 -0.033013 -0.089106
v -0.159313 -0.084940 -0.104248
v -0.135262 -0.122763 -0.129840
v -0.037063 -0.155341 -0.110539
v 0.001950 -0.143363 -0.136246
v 0.034821 -0.105499 -0.155272
v 0.057183 -0.051760 -0.165423
v 0.065509 0.009186 -0.165343
v 0.058927 0.067182 -0.155773
v 0.040556 0.115277 -0.139667
v 0.012647 0.147313 -0.119091
v -0.021129 0.158324 -0.096649
v -0.055868 0.149273 -0.075097
v -0.087666 0.120827 -0.056606
v -0.111263 0.073829 -0.044361
v -0.123263 0.015194 -0.040214
v -0.122053 -0.047148 -0.045024
v -0.104288 -0.102107 -0.060699
v -0.074900 -0.141915 -0.083579
v 0.007369 -0.169624 -0.051010
v 0.050918 -0.157920 -0.070021
v 0.088515 -0.120825 -0.084088
v 0.114285 -0.064811 -0.090924
v 0.125842 0.000493 -0.090453
v 0.118762 0.065728 -0.081953
v 0.096654 0.121369 -0.068150
v 0.062437 0.160296 -0.050976
v 0.020123 0.173180 -0.032628
v -0.022830 0.162083 -0.015630
v -0.060550 0.127625 -0.002007
v -0.086110 0.072763 0.005683
v -0.097555 0.007881 0.007043
v -0.091943 -0.058407 0.000892
v -0.069687 -0.115518 -0.012410
v -0.035409 -0.156188 -0.030530
v 0.028196 -0.172914 0.018966
v 0.073487 -0.161923 0.008182
v 0.113193 -0.127601 0.000800
v 0.140091 -0.072879 -0.001446
v 0.151991 -0.008109 0.001012
v 0.145496 0.058195 0.007935
v 0.120820 0.115386 0.018035
v 0.082971 0.156209 0.029458
v 0.036132 0.169826 0.040622
v -0.010982 0.158311 0.050162
v -0.050803 0.121409 0.056757
v -0.077112 0.065483 0.059545
v -0.087744 0.000137 0.058421
v -0.078492 -0.065154 0.052544
v -0.053714 -0.120904 0.043145
v -0.016760 -0.159915 0.031354
v 0.025823 -0.158573 0.099905
v 0.067687 -0.149909 0.096915
v 0.105279 -0.121793 0.095941
v 0.132282 -0.074958 0.097572
v 0.144767 -0.016314 0.101496
v 0.140799 0.046207 0.106978
v 0.116237 0.101778 0.113107
v 0.077513 0.142260 0.118647
v 0.029243 0.156232 0.122531
v -0.018966 0.144554 0.124570
v -0.057750 0.106610 0.124457
v -0.082001 0.052814 0.122652
v -0.088310 -0.008285 0.119305
v -0.076724 -0.066435 0.114769
v -0.051499 -0.114825 0.109582
v -0.015795 -0.147187 0.104347
v 0.003416 -0.143509 0.189465
v 0.040696 -0.137112 0.191736
v 0.074896 -0.114584 0.195266
v 0.102225 -0.076773 0.199882
v 0.115611 -0.024989 0.205093
v 0.113273 0.033040 0.209999
v 0.091424 0.087468 0.213316
v 0.052663 0.127429 0.214129
v 0.003773 0.141713 0.212008
v -0.044803 0.129671 0.207844
v -0.081897 0.091012 0.202583
v -0.103432 0.039424 0.197550
v -0.104885 -0.017037 0.193444
v -0.091642 -0.067826 0.190513
v -0.066855 -0.108417 0.188793
v -0.033542 -0.133882 0.188478
v -0.034078 -0.128480 0.285461
v -0.002389 -0.124404 0.290562
v 0.027767 -0.107605 0.296580
v 0.053427 -0.077334 0.303188
v 0.070328 -0.033436 0.309767
v 0.070104 0.019974 0.314583
v 0.051772 0.073107 0.316453
v 0.013541 0.112590 0.313760
v -0.035324 0.127085 0.307033
v -0.083253 0.113492 0.298080
v -0.118503 0.075373 0.289277
v -0.134950 0.025073 0.282628
v -0.133486 -0.026048 0.278778
v -0.118866 -0.069454 0.277544
v -0.094387 -0.101012 0.278693
v -0.065316 -0.120617 0.281444
v -0.080990 -0.113532 0.385681
v -0.055685 -0.111683 0.391580
v -0.029940 -0.100393 0.398456
v -0.006124 -0.077437 0.406004
v 0.011748 -0.041255 0.413476
v 0.016834 0.006376 0.419119
v 0.001683 0.058155 0.420441
v -0.034467 0.097962 0.415653
v -0.083007 0.112776 0.405580
v -0.129952 0.097461 0.393183
v -0.162446 0.058966 0.382219
v -0.173855 0.010273 0.375357
v -0.168515 -0.035187 0.372657
v -0.151575 -0.069561 0.373544
v -0.129304 -0.093563 0.376506
v -0.105832 -0.107463 0.380598
v -0.133061 -0.108200 0.487290
v -0.111509 -0.108024 0.493388
v -0.088528 -0.100019 0.500630
v -0.064606 -0.082548 0.509051
v -0.044491 -0.050312 0.517832
v -0.034975 -0.003437 0.525033
v -0.047450 0.050045 0.526582
v -0.083798 0.093531 0.520260
v -0.135159 0.109563 0.506957
v -0.184279 0.091954 0.491181
v -0.215568 0.049426 0.478321
v -0.224353 -0.000702 0.471271
v -0.213500 -0.044228 0.470414
v -0.195149 -0.074123 0.472892
v -0.174323 -0.092801 0.477068
v -0.153520 -0.103321 0.481970
v -0.186706 -0.108302 0.589332
v -0.167845 -0.108259 0.595412
v -0.146852 -0.102304 0.602745
v -0.123035 -0.087886 0.611808
v -0.099099 -0.059310 0.622293
v -0.086692 -0.011638 0.630918
v -0.096528 0.044949 0.633189
v -0.133868 0.092076 0.625546
v -0.188867 0.109456 0.609241
v -0.241103 0.089592 0.590325
v -0.272462 0.042446 0.575721
v -0.277407 -0.009880 0.569259
v -0.264006 -0.053073 0.569581
v -0.244052 -0.080603 0.573454
v -0.223473 -0.096073 0.578639
v -0.204981 -0.104001 0.583852
v -0.240207 -0.108405 0.691367
v -0.223531 -0.108378 0.697217
v -0.204585 -0.104318 0.704251
v -0.181839 -0.093264 0.713293
v -0.156173 -0.067204 0.724817
v -0.138743 -0.021340 0.735378
v -0.145290 0.039136 0.738913
v -0.183581 0.090515 0.730327
v -0.242221 0.109350 0.711381
v -0.297592 0.087077 0.689691
v -0.328587 0.035756 0.673920
v -0.329525 -0.020070 0.668349
v -0.312571 -0.062127 0.670355
v -0.291102 -0.086039 0.675636
v -0.272338 -0.099167 0.680977
v -0.255934 -0.104728 0.686202
v -0.292491 -0.108499 0.792919
v -0.279329 -0.108484 0.797802
v -0.262881 -0.106842 0.804059
v -0.240680 -0.099317 0.813014
v -0.213201 -0.076164 0.825431
v -0.189795 -0.030192 0.838544
v -0.193174 0.033738 0.843430
v -0.232295 0.089115 0.834156
v -0.294145 0.109256 0.813002
v -0.352521 0.084619 0.788899
v -0.382565 0.028299 0.772400
v -0.379903 -0.030674 0.767838
v -0.357295 -0.071122 0.772419
v -0.335164 -0.091521 0.778703
v -0.319019 -0.101105 0.783783
v -0.304867 -0.105649 0.788600
v -0.342565 -0.108580 0.893988
v -0.331428 -0.108571 0.898278
v -0.319998 -0.108562 0.902680
v -0.298821 -0.102503 0.911411
v -0.269897 -0.084820 0.924236
v -0.241896 -0.039295 0.939368
v -0.240287 0.027722 0.946380
v -0.279157 0.087578 0.937058
v -0.344386 0.109175 0.913886
v -0.405276 0.081577 0.887748
v -0.433416 0.020012 0.871092
v -0.425461 -0.040923 0.868434
v -0.399908 -0.080213 0.874582
v -0.378120 -0.096391 0.881448
v -0.364918 -0.102428 0.885962
v -0.353130 -0.106191 0.890146
v -0.391711 -0.108647 0.994010
v -0.384463 -0.108643 0.996874
v -0.372975 -0.108637 1.001412
v -0.359492 -0.106852 1.006907
v -0.328857 -0.093261 1.020294
v -0.293202 -0.050125 1.038465
v -0.286288 0.020827 1.047909
v -0.324496 0.086179 1.038952
v -0.392835 0.109108 1.014041
v -0.455819 0.078009 0.986178
v -0.482399 0.010820 0.969368
v -0.467933 -0.053533 0.969064
v -0.437071 -0.088919 0.977943
v -0.416609 -0.101293 0.984865
v -0.407254 -0.104267 0.988281
v -0.399262 -0.106808 0.991200
v -0.438090 -0.108701 1.093797
v -0.432529 -0.108699 1.096033
v -0.426968 -0.108697 1.098269
v -0.420594 -0.108694 1.100832
v -0.389443 -0.101687 1.114012
v -0.343279 -0.060424 1.136446
v -0.330895 0.014635 1.148471
v -0.368213 0.084759 1.140019
v -0.439577 0.109055 1.113547
v -0.504564 0.074560 1.084157
v -0.529600 0.001803 1.067303
v -0.505349 -0.066976 1.070649
v -0.469294 -0.098602 1.082196
v -0.452222 -0.104708 1.088489
v -0.446537 -0.106510 1.090606
v -0.442528 -0.107781 1.092099
f 1 2 18 17
f 2 3 19 18
f 3 4 20 19
f 4 5 21 20
f 5 6 22 21
f 6 7 23 22
f 7 8 24 23
f 8 9 25 24
f 9 10 26 25
f 10 11 27 26
f 11 12 28 27
f 12 13 29 28
f 13 14 30 29
f 14 15 31 30
f 15 16 32 31
f 16 1 17 32
f 17 18 34 33
f 18 19 35 34
f 19 20 36 35
f 20 21 37 36
f 21 22 38 37
f 22 23 39 38
f 23 24 40 39
f 24 25 41 40
f 25 26 42 41
f 26 27 43 42
f 27 28 44 43
f 28 29 45 44
f 29 30 46 45
f 30 31 47 46
f 31 32 48 47
f 32 17 33 48
f 33 34 50 49
f 34 35 51 50
f 35 36 52 51
f 36 37 53 52
f 37 38 54 53
f 38 39 55 54
f 39 40 56 55
f 40 41 57 56
f 41 42 58 57
f 42 43 59 58
f 43 44 60 59
f 44 45 61 60
f 45 46 62 61
f 46 47 63 62
f 47 48 64 63
f 48 33 49 64
f 49 50 66 65
f 50 51 67 66
f 51 52 68 67
f 52 53 69 68
f 53 54 70 69
f 54 55 71 70
f 55 56 72 71
f 56 57 73 72
f 57 58 74 73
f 58 59 75 74
f 59 60 76 75
f 60 61 77 76
f 61 62 78 77
f 62 63 79 78
f 63 64 80 79
f 64 49 65 80
f 65 66 82 81
f 66 67 83 82
f 67 68 84 83
f 68 69 85 84
f 69 70 86 85
f 70 71 87 86
f 71 72 88 87
f 72 73 89 88
f 73 74 90 89
f 74 75 91 90
f 75 76 92 91
f 76 77 93 92
f 77 78 94 93
f 78 79 95 94
f 79 80 96 95
f 80 65 81 96
f 81 82 98 97
f 82 83 99 98
f 83 84 100 99
f 84 85 101 100
f 85 86 102 101
f 86 87 103 102
f 87 88 104 103
f 88 89 105 104
f 89 90 106 105
f 90 91 107 106
f 91 92 108 107
f 92 93 109 108
f 93 94 110 109
f 94 95 111 110
f 95 96 112 111
f 96 81 97 112
f 97 98 114 113
f 98 99 115 114
f 99 100 116 115
f 100 101 117 116
f 101 102 118 117
f 102 103 119 118
f 103 104 120 119
f 104 105 121 120
f 105 106 122 121
f 106 107 123 122
f 107 108 124 123
f 108 109 125 124
f 109 110 126 125
f 110 111 127 126
f 111 112 128 127
f 112 97 113 128
f 113 114 130 129
f 114 115 131 130
f 115 116 132 131
f 116 117 133 132
f 117 118 134 133
f 118 119 135 134
f 119 120 136 135
f 120 121 137 136
f 121 122 138 137
f 122 123 139 138
f 123 124 140 139
f 124 125 141 140
f 125 126 142 141
f 126 127 143 142
f 127 128 144 143
f 128 113 129 144
f 129 130 146 145
f 130 131 147 146
f 131 132 148 147
f 132 133 149 148
f 133 134 150 149
f 134 135 151 150
f 135 136 152 151
f 136 137 153 152
f 137 138 154 153
f 138 139 155 154
f 139 140 156 155
f 140 141 157 156
f 141 142 158 157
f 142 143 159 158
f 143 144 160 159
f 144 129 145 160
f 145 146 162 161
f 146 147 163 162
f 147 148 164 163
f 148 149 165 164
f 149 150 166 165
f 150 151 167 166
f 151 152 168 167
f 152 153 169 168
f 153 154 170 169
f 154 155 171 170
f 155 156 172 171
f 156 157 173 172
f 157 158 174 173
f 158 159 175 174
f 159 160 176 175
f 160 145 161 176
f 161 162 178 177
f 162 163 179 178
f 163 164 180 179
f 164 165 181 180
f 165 166 182 181
f 166 167 183 182
f 167 168 184 183
f 168 169 185 184
f 169 170 186 185
f 170 171 187 186
f 171 172 188 187
f 172 173 189 188
f 173 174 190 189
f 174 175 191 190
f 175 176 192 191
f 176 161 177 192
f 177 178 194 193
f 178 179 195 194
f 179 180 196 195
f 180 181 197 196
f 181 182 198 197
f 182 183 199 198
f 183 184 200 199
f 184 185 201 200
f 185 186 202 201
f 186 187 203 202
f 187 188 204 203
f 188 189 205 204
f 189 190 206 205
f 190 191 207 206
f 191 192 208 207
f 192 177 193 208
f 193 194 210 209
f 194 195 211 210
f 195 196 212 211
f 196 197 213 212
f 197 198 214 213
f 198 199 215 214
f 199 200 216 215
f 200 201 217 216
f 201 202 218 217
f 202 203 219 218
f 203 204 220 219
f 204 205 221 220
f 205 206 222 221
f 206 207 223 222
f 207 208 224 223
f 208 193 209 224
f 209 210 226 225
f 210 211 227 226
f 211 212 228 227
f 212 213 229 228
f 213 214 230 229
f 214 215 231 230
f 215 216 232 231
f 216 217 233 232
f 217 218 234 233
f 218 219 235 234
f 219 220 236 235
f 220 221 237 236
f 221 222 238 237
f 222 223 239 238
f 223 224 240 239
f 224 209 225 240
f 225 226 242 241
f 226 227 243 242
f 227 228 244 243
f 228 229 245 244
f 229 230 246 245
f 230 231 247 246
f 231 232 248 247
f 232 233 249 248
f 233 234 250 249
f 234 235 251 250
f 235 236 252 251
f 236 237 253 252
f 237 238 254 253
f 238 239 255 254
f 239 240 256 255
f 240 225 241 256
f 241 242 258 257
f 242 243 259 258
f 243 244 260 259
f 244 245 261 260
f 245 246 262 261
f 246 247 263 262
f 247 248 264 263
f 248 249 265 264
f 249 250 266 265
f 250 251 267 266
f 251 252 268 267
f 252 253 269 268
f 253 254 270 269
f 254 255 271 270
f 255 256 272 271
f 256 241 257 272
f 257 258 274 273
f 258 259 275 274
f 259 260 276 275
f 260 261 277 276
f 261 262 278 277
f 262 263 279 278
f 263 264 280 279
f 264 265 281 280
f 265 266 282 281
f 266 267 283 282
f 267 268 284 283
f 268 269 285 284
f 269 270 286 285
f 270 271 287 286
f 271 272 288 287
f 272 257 273 288
f 273 274 290 289
f 274 275 291 290
f 275 276 292 291
f 276 277 293 292
f 277 278 294 293
f 278 279 295 294
f 279 280 296 295
f 280 281 297 296
f 281 282 298 297
f 282 283 299 298
f 283 284 300 299
f 284 285 301 300
f 285 286 302 301
f 286 287 303 302
f 287 288 304 303
f 288 273 289 304
f 289 290 306 305
f 290 291 307 306
f 291 292 308 307
f 292 293 309 308
f 293 294 310 309
f 294 295 311 310
f 295 296 312 311
f 296 297 313 312
f 297 298 314 313
f 298 299 315 314
f 299 300 316 315
f 300 301 317 316
f 301 302 318 317
f 302 303 319 318
f 303 304 320 319
f 304 289 305 320
f 305 306 322 321
f 306 307 323 322
f 307 308 324 323
f 308 309 325 324
f 309 310 326 325
f 310 311 327 326
f 311 312 328 327
f 312 313 329 328
f 313 314 330 329
f 314 315 331 330
f 315 316 332 331
f 316 317 333 332
f 317 318 334 333
f 318 319 335 334
f 319 320 336 335
f 320 305 321 336
f 321 322 338 337
f 322 323 339 338
f 323 324 340 339
f 324 325 341 340
f 325 326 342 341
f 326 327 343 342
f 327 328 344 343
f 328 329 345 344
f 329 330 346 345
f 330 331 347 346
f 331 332 348 347
f 332 333 349 348
f 333 334 350 349
f 334 335 351 350
f 335 336 352 351
f 336 321 337 352
f 337 338 354 353
f 338 339 355 354
f 339 340 356 355
f 340 341 357 356
f 341 342 358 357
f 342 343 359 358
f 343 344 360 359
f 344 345 361 360
f 345 346 362 361
f 346 347 363 362
f 347 348 364 363
f 348 349 365 364
f 349 350 366 365
f 350 351 367 366
f 351 352 368 367
f 352 337 353 368
f 353 354 370 369
f 354 355 371 370
f 355 356 372 371
f 356 357 373 372
f 357 358 374 373
f 358 359 375 374
f 359 360 376 375
f 360 361 377 376
f 361 362 378 377
f 362 363 379 378
f 363 364 380 379
f 364 365 381 380
f 365 366 382 381
f 366 367 383 382
f 367 368 384 383
f 368 353 369 384
