# tube retopo
v 0.588979 0.000000 -1.164132
v 0.584847 0.030991 -1.165801
v 0.572788 0.059470 -1.170674
v 0.553778 0.083132 -1.178354
v 0.529357 0.100060 -1.188221
v 0.501503 0.108880 -1.199475
v 0.472474 0.108880 -1.211203
v 0.444620 0.100060 -1.222457
v 0.420199 0.083132 -1.232324
v 0.401189 0.059470 -1.240004
v 0.389130 0.030991 -1.244877
v 0.384998 0.000000 -1.246546
v 0.389130 -0.030991 -1.244877
v 0.401189 -0.059470 -1.240004
v 0.420199 -0.083132 -1.232324
v 0.444620 -0.100060 -1.222457
v 0.472474 -0.108880 -1.211203
v 0.501503 -0.108880 -1.199475
v 0.529357 -0.100060 -1.188221
v 0.553778 -0.083132 -1.178354
v 0.572788 -0.059470 -1.170674
v 0.584847 -0.030991 -1.165801
v 0.572471 0.000000 -1.123273
v 0.568339 0.030991 -1.124942
v 0.556280 0.059470 -1.129815
v 0.537270 0.083132 -1.137495
v 0.512849 0.100060 -1.147362
v 0.484995 0.108880 -1.158616
v 0.455966 0.108880 -1.170344
v 0.428112 0.100060 -1.181598
v 0.403691 0.083132 -1.191465
v 0.384681 0.059470 -1.199145
v 0.372622 0.030991 -1.204018
v 0.368490 0.000000 -1.205687
v 0.372622 -0.030991 -1.204018
v 0.384681 -0.059470 -1.199145
v 0.403691 -0.083132 -1.191465
v 0.428112 -0.100060 -1.181598
v 0.455966 -0.108880 -1.170344
v 0.484995 -0.108880 -1.158616
v 0.512849 -0.100060 -1.147362
v 0.537270 -0.083132 -1.137495
v 0.556280 -0.059470 -1.129815
v 0.568339 -0.030991 -1.124942
v 0.555963 0.000000 -1.082414
v 0.551831 0.030991 -1.084084
v 0.539772 0.059470 -1.088956
v 0.520762 0.083132 -1.096636
v 0.496341 0.100060 -1.106503
v 0.468487 0.108880 -1.117757
v 0.439458 0.108880 -1.129485
v 0.411604 0.100060 -1.140739
v 0.387183 0.083132 -1.150606
v 0.368173 0.059470 -1.158286
v 0.356113 0.030991 -1.163159
v 0.351982 0.000000 -1.164828
v 0.356113 -0.030991 -1.163159
v 0.368173 -0.059470 -1.158286
v 0.387183 -0.083132 -1.150606
v 0.411604 -0.100060 -1.140739
v 0.439458 -0.108880 -1.129485
v 0.468487 -0.108880 -1.117757
v 0.496341 -0.100060 -1.106503
v 0.520762 -0.083132 -1.096636
v 0.539772 -0.059470 -1.088956
v 0.551831 -0.030991 -1.084084
v 0.539455 0.000000 -1.041555
v 0.535323 0.030991 -1.043225
v 0.523264 0.059470 -1.048097
v 0.504254 0.083132 -1.055777
v 0.479833 0.100060 -1.065644
v 0.451979 0.108880 -1.076898
v 0.422950 0.108880 -1.088626
v 0.395096 0.100060 -1.099880
v 0.370675 0.083132 -1.109747
v 0.351665 0.059470 -1.117427
v 0.339605 0.030991 -1.122300
v 0.335474 0.000000 -1.123969
v 0.339605 -0.030991 -1.122300
v 0.351665 -0.059470 -1.117427
v 0.370675 -0.083132 -1.109747
v 0.395096 -0.100060 -1.099880
v 0.422950 -0.108880 -1.088626
v 0.451979 -0.108880 -1.076898
v 0.479833 -0.100060 -1.065644
v 0.504254 -0.083132 -1.055777
v 0.523264 -0.059470 -1.048097
v 0.535323 -0.030991 -1.043225
v 0.522946 0.000000 -1.000696
v 0.518815 0.030991 -1.002366
v 0.506756 0.059470 -1.007238
v 0.487746 0.083132 -1.014919
v 0.463324 0.100060 -1.024785
v 0.435471 0.108880 -1.036039
v 0.406442 0.108880 -1.047768
v 0.378588 0.100060 -1.059021
v 0.354167 0.083132 -1.068888
v 0.335157 0.059470 -1.076569
v 0.323097 0.030991 -1.081441
v 0.318966 0.000000 -1.083110
v 0.323097 -0.030991 -1.081441
v 0.335157 -0.059470 -1.076569
v 0.354167 -0.083132 -1.068888
v 0.378588 -0.100060 -1.059021
v 0.406442 -0.108880 -1.047768
v 0.435471 -0.108880 -1.036039
v 0.463324 -0.100060 -1.024785
v 0.487746 -0.083132 -1.014919
v 0.506756 -0.059470 -1.007238
v 0.518815 -0.030991 -1.002366
v 0.506438 0.000000 -0.959838
v 0.502307 0.030991 -0.961507
v 0.490248 0.059470 -0.966379
v 0.471238 0.083132 -0.974060
v 0.446816 0.100060 -0.983926
v 0.418963 0.108880 -0.995180
v 0.389933 0.108880 -1.006909
v 0.362080 0.100060 -1.018162
v 0.337659 0.083132 -1.028029
v 0.318648 0.059470 -1.035710
v 0.306589 0.030991 -1.040582
v 0.302458 0.000000 -1.042251
v 0.306589 -0.030991 -1.040582
v 0.318648 -0.059470 -1.035710
v 0.337659 -0.083132 -1.028029
v 0.362080 -0.100060 -1.018162
v 0.389933 -0.108880 -1.006909
v 0.418963 -0.108880 -0.995180
v 0.446816 -0.100060 -0.983926
v 0.471238 -0.083132 -0.974060
v 0.490248 -0.059470 -0.966379
v 0.502307 -0.030991 -0.961507
v 0.489930 0.000000 -0.918979
v 0.485799 0.030991 -0.920648
v 0.473740 0.059470 -0.925520
v 0.454729 0.083132 -0.933201
v 0.430308 0.100060 -0.943067
v 0.402455 0.108880 -0.954321
v 0.373425 0.108880 -0.966050
v 0.345572 0.100060 -0.977303
v 0.321151 0.083132 -0.987170
v 0.302140 0.059470 -0.994851
v 0.290081 0.030991 -0.999723
v 0.285950 0.000000 -1.001392
v 0.290081 -0.030991 -0.999723
v 0.302140 -0.059470 -0.994851
v 0.321151 -0.083132 -0.987170
v 0.345572 -0.100060 -0.977303
v 0.373425 -0.108880 -0.966050
v 0.402455 -0.108880 -0.954321
v 0.430308 -0.100060 -0.943067
v 0.454729 -0.083132 -0.933201
v 0.473740 -0.059470 -0.925520
v 0.485799 -0.030991 -0.920648
v 0.473422 0.000000 -0.878120
v 0.469291 0.030991 -0.879789
v 0.457232 0.059470 -0.884661
v 0.438221 0.083132 -0.892342
v 0.413800 0.100060 -0.902208
v 0.385947 0.108880 -0.913462
v 0.356917 0.108880 -0.925191
v 0.329064 0.100060 -0.936444
v 0.304643 0.083132 -0.946311
v 0.285632 0.059470 -0.953992
v 0.273573 0.030991 -0.958864
v 0.269442 0.000000 -0.960533
v 0.273573 -0.030991 -0.958864
v 0.285632 -0.059470 -0.953992
v 0.304643 -0.083132 -0.946311
v 0.329064 -0.100060 -0.936444
v 0.356917 -0.108880 -0.925191
v 0.385947 -0.108880 -0.913462
v 0.413800 -0.100060 -0.902208
v 0.438221 -0.083132 -0.892342
v 0.457232 -0.059470 -0.884661
v 0.469291 -0.030991 -0.879789
v 0.456914 0.000000 -0.837261
v 0.452783 0.030991 -0.838930
v 0.440724 0.059470 -0.843802
v 0.421713 0.083132 -0.851483
v 0.397292 0.100060 -0.861350
v 0.369439 0.108880 -0.872603
v 0.340409 0.108880 -0.884332
v 0.312556 0.100060 -0.895585
v 0.288134 0.083132 -0.905452
v 0.269124 0.059470 -0.913133
v 0.257065 0.030991 -0.918005
v 0.252934 0.000000 -0.919674
v 0.257065 -0.030991 -0.918005
v 0.269124 -0.059470 -0.913133
v 0.288134 -0.083132 -0.905452
v 0.312556 -0.100060 -0.895585
v 0.340409 -0.108880 -0.884332
v 0.369439 -0.108880 -0.872603
v 0.397292 -0.100060 -0.861350
v 0.421713 -0.083132 -0.851483
v 0.440724 -0.059470 -0.843802
v 0.452783 -0.030991 -0.838930
v 0.440406 0.000000 -0.796402
v 0.436275 0.030991 -0.798071
v 0.424215 0.059470 -0.802943
v 0.405205 0.083132 -0.810624
v 0.380784 0.100060 -0.820491
v 0.352931 0.108880 -0.831744
v 0.323901 0.108880 -0.843473
v 0.296048 0.100060 -0.854726
v 0.271626 0.083132 -0.864593
v 0.252616 0.059470 -0.872274
v 0.240557 0.030991 -0.877146
v 0.236426 0.000000 -0.878815
v 0.240557 -0.030991 -0.877146
v 0.252616 -0.059470 -0.872274
v 0.271626 -0.083132 -0.864593
v 0.296048 -0.100060 -0.854726
v 0.323901 -0.108880 -0.843473
v 0.352931 -0.108880 -0.831744
v 0.380784 -0.100060 -0.820491
v 0.405205 -0.083132 -0.810624
v 0.424215 -0.059470 -0.802943
v 0.436275 -0.030991 -0.798071
v 0.423898 0.000000 -0.755543
v 0.419767 0.030991 -0.757212
v 0.407707 0.059470 -0.762084
v 0.388697 0.083132 -0.769765
v 0.364276 0.100060 -0.779632
v 0.336422 0.108880 -0.790885
v 0.307393 0.108880 -0.802614
v 0.279539 0.100060 -0.813867
v 0.255118 0.083132 -0.823734
v 0.236108 0.059470 -0.831415
v 0.224049 0.030991 -0.836287
v 0.219917 0.000000 -0.837956
v 0.224049 -0.030991 -0.836287
v 0.236108 -0.059470 -0.831415
v 0.255118 -0.083132 -0.823734
v 0.279539 -0.100060 -0.813867
v 0.307393 -0.108880 -0.802614
v 0.336422 -0.108880 -0.790885
v 0.364276 -0.100060 -0.779632
v 0.388697 -0.083132 -0.769765
v 0.407707 -0.059470 -0.762084
v 0.419767 -0.030991 -0.757212
v 0.407390 0.000000 -0.714684
v 0.403259 0.030991 -0.716353
v 0.391199 0.059470 -0.721225
v 0.372189 0.083132 -0.728906
v 0.347768 0.100060 -0.738773
v 0.319914 0.108880 -0.750026
v 0.290885 0.108880 -0.761755
v 0.263031 0.100060 -0.773008
v 0.238610 0.083132 -0.782875
v 0.219600 0.059470 -0.790556
v 0.207541 0.030991 -0.795428
v 0.203409 0.000000 -0.797097
v 0.207541 -0.030991 -0.795428
v 0.219600 -0.059470 -0.790556
v 0.238610 -0.083132 -0.782875
v 0.263031 -0.100060 -0.773008
v 0.290885 -0.108880 -0.761755
v 0.319914 -0.108880 -0.750026
v 0.347768 -0.100060 -0.738773
v 0.372189 -0.083132 -0.728906
v 0.391199 -0.059470 -0.721225
v 0.403259 -0.030991 -0.716353
v 0.390882 0.000000 -0.673825
v 0.386750 0.030991 -0.675494
v 0.374691 0.059470 -0.680366
v 0.355681 0.083132 -0.688047
v 0.331260 0.100060 -0.697914
v 0.303406 0.108880 -0.709167
v 0.274377 0.108880 -0.720896
v 0.246523 0.100060 -0.732150
v 0.222102 0.083132 -0.742016
v 0.203092 0.059470 -0.749697
v 0.191033 0.030991 -0.754569
v 0.186901 0.000000 -0.756238
v 0.191033 -0.030991 -0.754569
v 0.203092 -0.059470 -0.749697
v 0.222102 -0.083132 -0.742016
v 0.246523 -0.100060 -0.732150
v 0.274377 -0.108880 -0.720896
v 0.303406 -0.108880 -0.709167
v 0.331260 -0.100060 -0.697914
v 0.355681 -0.083132 -0.688047
v 0.374691 -0.059470 -0.680366
v 0.386750 -0.030991 -0.675494
v 0.374374 0.000000 -0.632966
v 0.370242 0.030991 -0.634635
v 0.358183 0.059470 -0.639507
v 0.339173 0.083132 -0.647188
v 0.314752 0.100060 -0.657055
v 0.286898 0.108880 -0.668308
v 0.257869 0.108880 -0.680037
v 0.230015 0.100060 -0.691291
v 0.205594 0.083132 -0.701157
v 0.186584 0.059470 -0.708838
v 0.174525 0.030991 -0.713710
v 0.170393 0.000000 -0.715379
v 0.174525 -0.030991 -0.713710
v 0.186584 -0.059470 -0.708838
v 0.205594 -0.083132 -0.701157
v 0.230015 -0.100060 -0.691291
v 0.257869 -0.108880 -0.680037
v 0.286898 -0.108880 -0.668308
v 0.314752 -0.100060 -0.657055
v 0.339173 -0.083132 -0.647188
v 0.358183 -0.059470 -0.639507
v 0.370242 -0.030991 -0.634635
v 0.357866 0.000000 -0.592107
v 0.353734 0.030991 -0.593776
v 0.341675 0.059470 -0.598648
v 0.322665 0.083132 -0.606329
v 0.298244 0.100060 -0.616196
v 0.270390 0.108880 -0.627449
v 0.241361 0.108880 -0.639178
v 0.213507 0.100060 -0.650432
v 0.189086 0.083132 -0.660298
v 0.170076 0.059470 -0.667979
v 0.158016 0.030991 -0.672851
v 0.153885 0.000000 -0.674520
v 0.158016 -0.030991 -0.672851
v 0.170076 -0.059470 -0.667979
v 0.189086 -0.083132 -0.660298
v 0.213507 -0.100060 -0.650432
v 0.241361 -0.108880 -0.639178
v 0.270390 -0.108880 -0.627449
v 0.298244 -0.100060 -0.616196
v 0.322665 -0.083132 -0.606329
v 0.341675 -0.059470 -0.598648
v 0.353734 -0.030991 -0.593776
v 0.341357 0.000000 -0.551248
v 0.337226 0.030991 -0.552917
v 0.325167 0.059470 -0.557789
v 0.306157 0.083132 -0.565470
v 0.281736 0.100060 -0.575337
v 0.253882 0.108880 -0.586590
v 0.224853 0.108880 -0.598319
v 0.196999 0.100060 -0.609573
v 0.172578 0.083132 -0.619439
v 0.153568 0.059470 -0.627120
v 0.141508 0.030991 -0.631992
v 0.137377 0.000000 -0.633661
v 0.141508 -0.030991 -0.631992
v 0.153568 -0.059470 -0.627120
v 0.172578 -0.083132 -0.619439
v 0.196999 -0.100060 -0.609573
v 0.224853 -0.108880 -0.598319
v 0.253882 -0.108880 -0.586590
v 0.281736 -0.100060 -0.575337
v 0.306157 -0.083132 -0.565470
v 0.325167 -0.059470 -0.557789
v 0.337226 -0.030991 -0.552917
v 0.324849 0.000000 -0.510389
v 0.320718 0.030991 -0.512058
v 0.308659 0.059470 -0.516931
v 0.289649 0.083132 -0.524611
v 0.265227 0.100060 -0.534478
v 0.237374 0.108880 -0.545731
v 0.208344 0.108880 -0.557460
v 0.180491 0.100060 -0.568714
v 0.156070 0.083132 -0.578580
v 0.137060 0.059470 -0.586261
v 0.125000 0.030991 -0.591133
v 0.120869 0.000000 -0.592803
v 0.125000 -0.030991 -0.591133
v 0.137060 -0.059470 -0.586261
v 0.156070 -0.083132 -0.578580
v 0.180491 -0.100060 -0.568714
v 0.208344 -0.108880 -0.557460
v 0.237374 -0.108880 -0.545731
v 0.265227 -0.100060 -0.534478
v 0.289649 -0.083132 -0.524611
v 0.308659 -0.059470 -0.516931
v 0.320718 -0.030991 -0.512058
v 0.308341 0.000000 -0.469530
v 0.304210 0.030991 -0.471199
v 0.292151 0.059470 -0.476072
v 0.273140 0.083132 -0.483752
v 0.248719 0.100060 -0.493619
v 0.220866 0.108880 -0.504873
v 0.191836 0.108880 -0.516601
v 0.163983 0.100060 -0.527855
v 0.139562 0.083132 -0.537722
v 0.120551 0.059470 -0.545402
v 0.108492 0.030991 -0.550274
v 0.104361 0.000000 -0.551944
v 0.108492 -0.030991 -0.550274
v 0.120551 -0.059470 -0.545402
v 0.139562 -0.083132 -0.537722
v 0.163983 -0.100060 -0.527855
v 0.191836 -0.108880 -0.516601
v 0.220866 -0.108880 -0.504873
v 0.248719 -0.100060 -0.493619
v 0.273140 -0.083132 -0.483752
v 0.292151 -0.059470 -0.476072
v 0.304210 -0.030991 -0.471199
v 0.291833 0.000000 -0.428671
v 0.287702 0.030991 -0.430340
v 0.275643 0.059470 -0.435213
v 0.256632 0.083132 -0.442893
v 0.232211 0.100060 -0.452760
v 0.204358 0.108880 -0.464014
v 0.175328 0.108880 -0.475742
v 0.147475 0.100060 -0.486996
v 0.123054 0.083132 -0.496863
v 0.104043 0.059470 -0.504543
v 0.091984 0.030991 -0.509415
v 0.087853 0.000000 -0.511085
v 0.091984 -0.030991 -0.509415
v 0.104043 -0.059470 -0.504543
v 0.123054 -0.083132 -0.496863
v 0.147475 -0.100060 -0.486996
v 0.175328 -0.108880 -0.475742
v 0.204358 -0.108880 -0.464014
v 0.232211 -0.100060 -0.452760
v 0.256632 -0.083132 -0.442893
v 0.275643 -0.059470 -0.435213
v 0.287702 -0.030991 -0.430340
v 0.275325 0.000000 -0.387812
v 0.271194 0.030991 -0.389481
v 0.259135 0.059470 -0.394354
v 0.240124 0.083132 -0.402034
v 0.215703 0.100060 -0.411901
v 0.187850 0.108880 -0.423155
v 0.158820 0.108880 -0.434883
v 0.130967 0.100060 -0.446137
v 0.106546 0.083132 -0.456004
v 0.087535 0.059470 -0.463684
v 0.075476 0.030991 -0.468557
v 0.071345 0.000000 -0.470226
v 0.075476 -0.030991 -0.468557
v 0.087535 -0.059470 -0.463684
v 0.106546 -0.083132 -0.456004
v 0.130967 -0.100060 -0.446137
v 0.158820 -0.108880 -0.434883
v 0.187850 -0.108880 -0.423155
v 0.215703 -0.100060 -0.411901
v 0.240124 -0.083132 -0.402034
v 0.259135 -0.059470 -0.394354
v 0.271194 -0.030991 -0.389481
v 0.258817 0.000000 -0.346953
v 0.254686 0.030991 -0.348622
v 0.242626 0.059470 -0.353495
v 0.223616 0.083132 -0.361175
v 0.199195 0.100060 -0.371042
v 0.171342 0.108880 -0.382296
v 0.142312 0.108880 -0.394024
v 0.114459 0.100060 -0.405278
v 0.090037 0.083132 -0.415145
v 0.071027 0.059470 -0.422825
v 0.058968 0.030991 -0.427698
v 0.054837 0.000000 -0.429367
v 0.058968 -0.030991 -0.427698
v 0.071027 -0.059470 -0.422825
v 0.090037 -0.083132 -0.415145
v 0.114459 -0.100060 -0.405278
v 0.142312 -0.108880 -0.394024
v 0.171342 -0.108880 -0.382296
v 0.199195 -0.100060 -0.371042
v 0.223616 -0.083132 -0.361175
v 0.242626 -0.059470 -0.353495
v 0.254686 -0.030991 -0.348622
v 0.247023 0.000000 -0.304190
v 0.242701 0.032423 -0.305936
v 0.230084 0.062220 -0.311033
v 0.210195 0.086975 -0.319069
v 0.184645 0.104685 -0.329392
v 0.155504 0.113913 -0.341166
v 0.125133 0.113913 -0.353436
v 0.095992 0.104685 -0.365210
v 0.070442 0.086975 -0.375533
v 0.050553 0.062220 -0.383569
v 0.037936 0.032423 -0.388666
v 0.033614 0.000000 -0.390413
v 0.037936 -0.032423 -0.388666
v 0.050553 -0.062220 -0.383569
v 0.070442 -0.086975 -0.375533
v 0.095992 -0.104685 -0.365210
v 0.125133 -0.113913 -0.353436
v 0.155504 -0.113913 -0.341166
v 0.184645 -0.104685 -0.329392
v 0.210195 -0.086975 -0.319069
v 0.230084 -0.062220 -0.311033
v 0.242701 -0.032423 -0.305936
v 0.238687 0.000000 -0.260029
v 0.234034 0.034906 -0.261909
v 0.220451 0.066984 -0.267397
v 0.199039 0.093636 -0.276048
v 0.171532 0.112702 -0.287161
v 0.140159 0.122637 -0.299837
v 0.107462 0.122637 -0.313047
v 0.076089 0.112702 -0.325723
v 0.048583 0.093636 -0.336836
v 0.027170 0.066984 -0.345487
v 0.013587 0.034906 -0.350975
v 0.008934 0.000000 -0.352855
v 0.013587 -0.034906 -0.350975
v 0.027170 -0.066984 -0.345487
v 0.048583 -0.093636 -0.336836
v 0.076089 -0.112702 -0.325723
v 0.107462 -0.122637 -0.313047
v 0.140159 -0.122637 -0.299837
v 0.171532 -0.112702 -0.287161
v 0.199039 -0.093636 -0.276048
v 0.220451 -0.066984 -0.267397
v 0.234034 -0.034906 -0.261909
v 0.230351 0.000000 -0.215868
v 0.225367 0.037389 -0.217882
v 0.210817 0.071749 -0.223760
v 0.187882 0.100297 -0.233027
v 0.158419 0.120719 -0.244931
v 0.124814 0.131361 -0.258508
v 0.089791 0.131361 -0.272658
v 0.056186 0.120719 -0.286235
v 0.026723 0.100297 -0.298139
v 0.003788 0.071749 -0.307406
v -0.010761 0.037389 -0.313284
v -0.015746 0.000000 -0.315298
v -0.010761 -0.037389 -0.313284
v 0.003788 -0.071749 -0.307406
v 0.026723 -0.100297 -0.298139
v 0.056186 -0.120719 -0.286235
v 0.089791 -0.131361 -0.272658
v 0.124814 -0.131361 -0.258508
v 0.158419 -0.120719 -0.244931
v 0.187882 -0.100297 -0.233027
v 0.210817 -0.071749 -0.223760
v 0.225367 -0.037389 -0.217882
v 0.222015 0.000000 -0.171708
v 0.216699 0.039872 -0.173855
v 0.201184 0.076514 -0.180124
v 0.176725 0.106958 -0.190006
v 0.145305 0.128736 -0.202700
v 0.109469 0.140085 -0.217179
v 0.072120 0.140085 -0.232269
v 0.036284 0.128736 -0.246748
v 0.004864 0.106958 -0.259443
v -0.019595 0.076514 -0.269324
v -0.035110 0.039872 -0.275593
v -0.040426 0.000000 -0.277741
v -0.035110 -0.039872 -0.275593
v -0.019595 -0.076514 -0.269324
v 0.004864 -0.106958 -0.259443
v 0.036284 -0.128736 -0.246748
v 0.072120 -0.140085 -0.232269
v 0.109469 -0.140085 -0.217179
v 0.145305 -0.128736 -0.202700
v 0.176725 -0.106958 -0.190006
v 0.201184 -0.076514 -0.180124
v 0.216699 -0.039872 -0.173855
v 0.213678 0.000000 -0.127547
v 0.208032 0.042355 -0.129829
v 0.191550 0.081279 -0.136488
v 0.165569 0.113619 -0.146985
v 0.132192 0.136753 -0.160470
v 0.094124 0.148809 -0.175850
v 0.054449 0.148809 -0.191880
v 0.016381 0.136753 -0.207261
v -0.016996 0.113619 -0.220746
v -0.042978 0.081279 -0.231243
v -0.059459 0.042355 -0.237902
v -0.065105 0.000000 -0.240183
v -0.059459 -0.042355 -0.237902
v -0.042978 -0.081279 -0.231243
v -0.016996 -0.113619 -0.220746
v 0.016381 -0.136753 -0.207261
v 0.054449 -0.148809 -0.191880
v 0.094124 -0.148809 -0.175850
v 0.132192 -0.136753 -0.160470
v 0.165569 -0.113619 -0.146985
v 0.191550 -0.081279 -0.136488
v 0.208032 -0.042355 -0.129829
v 0.205342 0.000000 -0.083387
v 0.199365 0.044838 -0.085802
v 0.181917 0.086044 -0.092851
v 0.154412 0.120279 -0.103964
v 0.119078 0.144770 -0.118239
v 0.078779 0.157533 -0.134522
v 0.036778 0.157533 -0.151491
v -0.003522 0.144770 -0.167773
v -0.038855 0.120279 -0.182049
v -0.066360 0.086044 -0.193162
v -0.083808 0.044838 -0.200211
v -0.089785 0.000000 -0.202626
v -0.083808 -0.044838 -0.200211
v -0.066360 -0.086044 -0.193162
v -0.038855 -0.120279 -0.182049
v -0.003522 -0.144770 -0.167773
v 0.036778 -0.157533 -0.151491
v 0.078779 -0.157533 -0.134522
v 0.119078 -0.144770 -0.118239
v 0.154412 -0.120279 -0.103964
v 0.181917 -0.086044 -0.092851
v 0.199365 -0.044838 -0.085802
v 0.194544 0.000000 -0.040221
v 0.188335 0.046573 -0.042729
v 0.170212 0.089374 -0.050051
v 0.141643 0.124934 -0.061594
v 0.104942 0.150372 -0.076422
v 0.063083 0.163628 -0.093334
v 0.019457 0.163628 -0.110960
v -0.022402 0.150372 -0.127873
v -0.059103 0.124934 -0.142701
v -0.087672 0.089374 -0.154243
v -0.105795 0.046573 -0.161565
v -0.112003 0.000000 -0.164074
v -0.105795 -0.046573 -0.161565
v -0.087672 -0.089374 -0.154243
v -0.059103 -0.124934 -0.142701
v -0.022402 -0.150372 -0.127873
v 0.019457 -0.163628 -0.110960
v 0.063083 -0.163628 -0.093334
v 0.104942 -0.150372 -0.076422
v 0.141643 -0.124934 -0.061594
v 0.170212 -0.089374 -0.050051
v 0.188335 -0.046573 -0.042729
v 0.183483 0.000000 0.002839
v 0.177054 0.048229 0.000242
v 0.158287 0.092550 -0.007341
v 0.128702 0.129374 -0.019294
v 0.090697 0.155717 -0.034649
v 0.047351 0.169444 -0.052162
v 0.002174 0.169444 -0.070415
v -0.041173 0.155717 -0.087928
v -0.079178 0.129374 -0.103283
v -0.108763 0.092550 -0.115236
v -0.127530 0.048229 -0.122818
v -0.133959 0.000000 -0.125416
v -0.127530 -0.048229 -0.122818
v -0.108763 -0.092550 -0.115236
v -0.079178 -0.129374 -0.103283
v -0.041173 -0.155717 -0.087928
v 0.002174 -0.169444 -0.070415
v 0.047351 -0.169444 -0.052162
v 0.090697 -0.155717 -0.034649
v 0.128702 -0.129374 -0.019294
v 0.158287 -0.092550 -0.007341
v 0.177054 -0.048229 0.000242
v 0.172423 0.000000 0.045899
v 0.165773 0.049884 0.043212
v 0.146362 0.095727 0.035370
v 0.115762 0.133815 0.023007
v 0.076452 0.161061 0.007124
v 0.031618 0.175260 -0.010990
v -0.015110 0.175260 -0.029869
v -0.059944 0.161061 -0.047983
v -0.099254 0.133815 -0.063866
v -0.129854 0.095727 -0.076229
v -0.149265 0.049884 -0.084071
v -0.155915 0.000000 -0.086758
v -0.149265 -0.049884 -0.084071
v -0.129854 -0.095727 -0.076229
v -0.099254 -0.133815 -0.063866
v -0.059944 -0.161061 -0.047983
v -0.015110 -0.175260 -0.029869
v 0.031618 -0.175260 -0.010990
v 0.076452 -0.161061 0.007124
v 0.115762 -0.133815 0.023007
v 0.146362 -0.095727 0.035370
v 0.165773 -0.049884 0.043212
v 0.155915 0.000000 0.086758
v 0.149265 0.049884 0.084071
v 0.129854 0.095727 0.076229
v 0.099254 0.133815 0.063866
v 0.059944 0.161061 0.047983
v 0.015110 0.175260 0.029869
v -0.031618 0.175260 0.010990
v -0.076452 0.161061 -0.007124
v -0.115762 0.133815 -0.023007
v -0.146362 0.095727 -0.035370
v -0.165773 0.049884 -0.043212
v -0.172423 0.000000 -0.045899
v -0.165773 -0.049884 -0.043212
v -0.146362 -0.095727 -0.035370
v -0.115762 -0.133815 -0.023007
v -0.076452 -0.161061 -0.007124
v -0.031618 -0.175260 0.010990
v 0.015110 -0.175260 0.029869
v 0.059944 -0.161061 0.047983
v 0.099254 -0.133815 0.063866
v 0.129854 -0.095727 0.076229
v 0.149265 -0.049884 0.084071
v 0.133959 0.000000 0.125416
v 0.127530 0.048229 0.122818
v 0.108763 0.092550 0.115236
v 0.079178 0.129374 0.103283
v 0.041173 0.155717 0.087928
v -0.002174 0.169444 0.070415
v -0.047351 0.169444 0.052162
v -0.090697 0.155717 0.034649
v -0.128702 0.129374 0.019294
v -0.158287 0.092550 0.007341
v -0.177054 0.048229 -0.000242
v -0.183483 0.000000 -0.002839
v -0.177054 -0.048229 -0.000242
v -0.158287 -0.092550 0.007341
v -0.128702 -0.129374 0.019294
v -0.090697 -0.155717 0.034649
v -0.047351 -0.169444 0.052162
v -0.002174 -0.169444 0.070415
v 0.041173 -0.155717 0.087928
v 0.079178 -0.129374 0.103283
v 0.108763 -0.092550 0.115236
v 0.127530 -0.048229 0.122818
v 0.112003 0.000000 0.164074
v 0.105795 0.046573 0.161565
v 0.087672 0.089374 0.154243
v 0.059103 0.124934 0.142701
v 0.022402 0.150372 0.127873
v -0.019457 0.163628 0.110960
v -0.063083 0.163628 0.093334
v -0.104942 0.150372 0.076422
v -0.141643 0.124934 0.061594
v -0.170212 0.089374 0.050051
v -0.188335 0.046573 0.042729
v -0.194544 0.000000 0.040221
v -0.188335 -0.046573 0.042729
v -0.170212 -0.089374 0.050051
v -0.141643 -0.124934 0.061594
v -0.104942 -0.150372 0.076422
v -0.063083 -0.163628 0.093334
v -0.019457 -0.163628 0.110960
v 0.022402 -0.150372 0.127873
v 0.059103 -0.124934 0.142701
v 0.087672 -0.089374 0.154243
v 0.105795 -0.046573 0.161565
v 0.090010 0.000000 0.202717
v 0.084023 0.044907 0.200298
v 0.066549 0.086175 0.193238
v 0.039002 0.120462 0.182108
v 0.003615 0.144990 0.167811
v -0.036746 0.157772 0.151504
v -0.078811 0.157772 0.134509
v -0.119172 0.144990 0.118202
v -0.154559 0.120462 0.103904
v -0.182106 0.086175 0.092775
v -0.199580 0.044907 0.085715
v -0.205566 0.000000 0.083296
v -0.199580 -0.044907 0.085715
v -0.182106 -0.086175 0.092775
v -0.154559 -0.120462 0.103904
v -0.119172 -0.144990 0.118202
v -0.078811 -0.157772 0.134509
v -0.036746 -0.157772 0.151504
v 0.003615 -0.144990 0.167811
v 0.039002 -0.120462 0.182108
v 0.066549 -0.086175 0.193238
v 0.084023 -0.044907 0.200298
v 0.067665 0.000000 0.241217
v 0.061915 0.043133 0.238894
v 0.045131 0.082772 0.232113
v 0.018672 0.115705 0.221423
v -0.015318 0.139264 0.207690
v -0.054085 0.151541 0.192027
v -0.094488 0.151541 0.175703
v -0.133255 0.139264 0.160040
v -0.167245 0.115705 0.146308
v -0.193703 0.082772 0.135618
v -0.210488 0.043133 0.128836
v -0.216238 0.000000 0.126513
v -0.210488 -0.043133 0.128836
v -0.193703 -0.082772 0.135618
v -0.167245 -0.115705 0.146308
v -0.133255 -0.139264 0.160040
v -0.094488 -0.151541 0.175703
v -0.054085 -0.151541 0.192027
v -0.015318 -0.139264 0.207690
v 0.018672 -0.115705 0.221423
v 0.045131 -0.082772 0.232113
v 0.061915 -0.043133 0.238894
v 0.045320 0.000000 0.279718
v 0.039806 0.041359 0.277490
v 0.023712 0.079368 0.270988
v -0.001659 0.110947 0.260737
v -0.034251 0.133538 0.247569
v -0.071423 0.145310 0.232551
v -0.110166 0.145310 0.216898
v -0.147338 0.133538 0.201879
v -0.179930 0.110947 0.188711
v -0.205301 0.079368 0.178461
v -0.221395 0.041359 0.171958
v -0.226909 0.000000 0.169731
v -0.221395 -0.041359 0.171958
v -0.205301 -0.079368 0.178461
v -0.179930 -0.110947 0.188711
v -0.147338 -0.133538 0.201879
v -0.110166 -0.145310 0.216898
v -0.071423 -0.145310 0.232551
v -0.034251 -0.133538 0.247569
v -0.001659 -0.110947 0.260737
v 0.023712 -0.079368 0.270988
v 0.039806 -0.041359 0.277490
v 0.022975 0.000000 0.318219
v 0.017697 0.039586 0.316086
v 0.002294 0.075965 0.309863
v -0.021989 0.106189 0.300052
v -0.053183 0.127811 0.287449
v -0.088762 0.139078 0.273074
v -0.125843 0.139078 0.258092
v -0.161422 0.127811 0.243718
v -0.192616 0.106189 0.231114
v -0.216899 0.075965 0.221303
v -0.232303 0.039586 0.215080
v -0.237580 0.000000 0.212948
v -0.232303 -0.039586 0.215080
v -0.216899 -0.075965 0.221303
v -0.192616 -0.106189 0.231114
v -0.161422 -0.127811 0.243718
v -0.125843 -0.139078 0.258092
v -0.088762 -0.139078 0.273074
v -0.053183 -0.127811 0.287449
v -0.021989 -0.106189 0.300052
v 0.002294 -0.075965 0.309863
v 0.017697 -0.039586 0.316086
v 0.000630 0.000000 0.356719
v -0.004411 0.037812 0.354683
v -0.019125 0.072561 0.348738
v -0.042320 0.101431 0.339367
v -0.072116 0.122085 0.327328
v -0.106101 0.132847 0.313597
v -0.141520 0.132847 0.299287
v -0.175505 0.122085 0.285556
v -0.205302 0.101431 0.273518
v -0.228496 0.072561 0.264146
v -0.243210 0.037812 0.258202
v -0.248251 0.000000 0.256165
v -0.243210 -0.037812 0.258202
v -0.228496 -0.072561 0.264146
v -0.205302 -0.101431 0.273518
v -0.175505 -0.122085 0.285556
v -0.141520 -0.132847 0.299287
v -0.106101 -0.132847 0.313597
v -0.072116 -0.122085 0.327328
v -0.042320 -0.101431 0.339367
v -0.019125 -0.072561 0.348738
v -0.004411 -0.037812 0.354683
v -0.021716 0.000000 0.395220
v -0.026520 0.036039 0.393279
v -0.040543 0.069158 0.387613
v -0.062650 0.096674 0.378681
v -0.091049 0.116358 0.367207
v -0.123440 0.126616 0.354121
v -0.157198 0.126616 0.340482
v -0.189588 0.116358 0.327395
v -0.217987 0.096674 0.315921
v -0.240094 0.069158 0.306989
v -0.254118 0.036039 0.301323
v -0.258922 0.000000 0.299382
v -0.254118 -0.036039 0.301323
v -0.240094 -0.069158 0.306989
v -0.217987 -0.096674 0.315921
v -0.189588 -0.116358 0.327395
v -0.157198 -0.126616 0.340482
v -0.123440 -0.126616 0.354121
v -0.091049 -0.116358 0.367207
v -0.062650 -0.096674 0.378681
v -0.040543 -0.069158 0.387613
v -0.026520 -0.036039 0.393279
v -0.044061 0.000000 0.433721
v -0.048628 0.034265 0.431875
v -0.061962 0.065754 0.426488
v -0.082981 0.091916 0.417996
v -0.109982 0.110632 0.407087
v -0.140779 0.120384 0.394644
v -0.172875 0.120384 0.381676
v -0.203672 0.110632 0.369234
v -0.230673 0.091916 0.358324
v -0.251692 0.065754 0.349832
v -0.265025 0.034265 0.344445
v -0.269593 0.000000 0.342600
v -0.265025 -0.034265 0.344445
v -0.251692 -0.065754 0.349832
v -0.230673 -0.091916 0.358324
v -0.203672 -0.110632 0.369234
v -0.172875 -0.120384 0.381676
v -0.140779 -0.120384 0.394644
v -0.109982 -0.110632 0.407087
v -0.082981 -0.091916 0.417996
v -0.061962 -0.065754 0.426488
v -0.048628 -0.034265 0.431875
v -0.066406 0.000000 0.472221
v -0.070737 0.032491 0.470471
v -0.083380 0.062350 0.465363
v -0.103311 0.087158 0.457310
v -0.128915 0.104905 0.446966
v -0.158117 0.114153 0.435167
v -0.188553 0.114153 0.422871
v -0.217755 0.104905 0.411072
v -0.243359 0.087158 0.400728
v -0.263289 0.062350 0.392675
v -0.275933 0.032491 0.387567
v -0.280264 0.000000 0.385817
v -0.275933 -0.032491 0.387567
v -0.263289 -0.062350 0.392675
v -0.243359 -0.087158 0.400728
v -0.217755 -0.104905 0.411072
v -0.188553 -0.114153 0.422871
v -0.158117 -0.114153 0.435167
v -0.128915 -0.104905 0.446966
v -0.103311 -0.087158 0.457310
v -0.083380 -0.062350 0.465363
v -0.070737 -0.032491 0.470471
v -0.087853 0.000000 0.511085
v -0.091984 0.030991 0.509415
v -0.104043 0.059470 0.504543
v -0.123054 0.083132 0.496863
v -0.147475 0.100060 0.486996
v -0.175328 0.108880 0.475742
v -0.204358 0.108880 0.464014
v -0.232211 0.100060 0.452760
v -0.256632 0.083132 0.442893
v -0.275643 0.059470 0.435213
v -0.287702 0.030991 0.430340
v -0.291833 0.000000 0.428671
v -0.287702 -0.030991 0.430340
v -0.275643 -0.059470 0.435213
v -0.256632 -0.083132 0.442893
v -0.232211 -0.100060 0.452760
v -0.204358 -0.108880 0.464014
v -0.175328 -0.108880 0.475742
v -0.147475 -0.100060 0.486996
v -0.123054 -0.083132 0.496863
v -0.104043 -0.059470 0.504543
v -0.091984 -0.030991 0.509415
v -0.104361 0.000000 0.551944
v -0.108492 0.030991 0.550274
v -0.120551 0.059470 0.545402
v -0.139562 0.083132 0.537722
v -0.163983 0.100060 0.527855
v -0.191836 0.108880 0.516601
v -0.220866 0.108880 0.504873
v -0.248719 0.100060 0.493619
v -0.273140 0.083132 0.483752
v -0.292151 0.059470 0.476072
v -0.304210 0.030991 0.471199
v -0.308341 0.000000 0.469530
v -0.304210 -0.030991 0.471199
v -0.292151 -0.059470 0.476072
v -0.273140 -0.083132 0.483752
v -0.248719 -0.100060 0.493619
v -0.220866 -0.108880 0.504873
v -0.191836 -0.108880 0.516601
v -0.163983 -0.100060 0.527855
v -0.139562 -0.083132 0.537722
v -0.120551 -0.059470 0.545402
v -0.108492 -0.030991 0.550274
v -0.120869 0.000000 0.592803
v -0.125000 0.030991 0.591133
v -0.137060 0.059470 0.586261
v -0.156070 0.083132 0.578580
v -0.180491 0.100060 0.568714
v -0.208344 0.108880 0.557460
v -0.237374 0.108880 0.545731
v -0.265227 0.100060 0.534478
v -0.289649 0.083132 0.524611
v -0.308659 0.059470 0.516931
v -0.320718 0.030991 0.512058
v -0.324849 0.000000 0.510389
v -0.320718 -0.030991 0.512058
v -0.308659 -0.059470 0.516931
v -0.289649 -0.083132 0.524611
v -0.265227 -0.100060 0.534478
v -0.237374 -0.108880 0.545731
v -0.208344 -0.108880 0.557460
v -0.180491 -0.100060 0.568714
v -0.156070 -0.083132 0.578580
v -0.137060 -0.059470 0.586261
v -0.125000 -0.030991 0.591133
v -0.137377 0.000000 0.633661
v -0.141508 0.030991 0.631992
v -0.153568 0.059470 0.627120
v -0.172578 0.083132 0.619439
v -0.196999 0.100060 0.609573
v -0.224853 0.108880 0.598319
v -0.253882 0.108880 0.586590
v -0.281736 0.100060 0.575337
v -0.306157 0.083132 0.565470
v -0.325167 0.059470 0.557789
v -0.337226 0.030991 0.552917
v -0.341357 0.000000 0.551248
v -0.337226 -0.030991 0.552917
v -0.325167 -0.059470 0.557789
v -0.306157 -0.083132 0.565470
v -0.281736 -0.100060 0.575337
v -0.253882 -0.108880 0.586590
v -0.224853 -0.108880 0.598319
v -0.196999 -0.100060 0.609573
v -0.172578 -0.083132 0.619439
v -0.153568 -0.059470 0.627120
v -0.141508 -0.030991 0.631992
v -0.153885 0.000000 0.674520
v -0.158016 0.030991 0.672851
v -0.170076 0.059470 0.667979
v -0.189086 0.083132 0.660298
v -0.213507 0.100060 0.650432
v -0.241361 0.108880 0.639178
v -0.270390 0.108880 0.627449
v -0.298244 0.100060 0.616196
v -0.322665 0.083132 0.606329
v -0.341675 0.059470 0.598648
v -0.353734 0.030991 0.593776
v -0.357866 0.000000 0.592107
v -0.353734 -0.030991 0.593776
v -0.341675 -0.059470 0.598648
v -0.322665 -0.083132 0.606329
v -0.298244 -0.100060 0.616196
v -0.270390 -0.108880 0.627449
v -0.241361 -0.108880 0.639178
v -0.213507 -0.100060 0.650432
v -0.189086 -0.083132 0.660298
v -0.170076 -0.059470 0.667979
v -0.158016 -0.030991 0.672851
v -0.170393 0.000000 0.715379
v -0.174525 0.030991 0.713710
v -0.186584 0.059470 0.708838
v -0.205594 0.083132 0.701157
v -0.230015 0.100060 0.691291
v -0.257869 0.108880 0.680037
v -0.286898 0.108880 0.668308
v -0.314752 0.100060 0.657055
v -0.339173 0.083132 0.647188
v -0.358183 0.059470 0.639507
v -0.370242 0.030991 0.634635
v -0.374374 0.000000 0.632966
v -0.370242 -0.030991 0.634635
v -0.358183 -0.059470 0.639507
v -0.339173 -0.083132 0.647188
v -0.314752 -0.100060 0.657055
v -0.286898 -0.108880 0.668308
v -0.257869 -0.108880 0.680037
v -0.230015 -0.100060 0.691291
v -0.205594 -0.083132 0.701157
v -0.186584 -0.059470 0.708838
v -0.174525 -0.030991 0.713710
v -0.186901 0.000000 0.756238
v -0.191033 0.030991 0.754569
v -0.203092 0.059470 0.749697
v -0.222102 0.083132 0.742016
v -0.246523 0.100060 0.732150
v -0.274377 0.108880 0.720896
v -0.303406 0.108880 0.709167
v -0.331260 0.100060 0.697914
v -0.355681 0.083132 0.688047
v -0.374691 0.059470 0.680366
v -0.386750 0.030991 0.675494
v -0.390882 0.000000 0.673825
v -0.386750 -0.030991 0.675494
v -0.374691 -0.059470 0.680366
v -0.355681 -0.083132 0.688047
v -0.331260 -0.100060 0.697914
v -0.303406 -0.108880 0.709167
v -0.274377 -0.108880 0.720896
v -0.246523 -0.100060 0.732150
v -0.222102 -0.083132 0.742016
v -0.203092 -0.059470 0.749697
v -0.191033 -0.030991 0.754569
v -0.203409 0.000000 0.797097
v -0.207541 0.030991 0.795428
v -0.219600 0.059470 0.790556
v -0.238610 0.083132 0.782875
v -0.263031 0.100060 0.773008
v -0.290885 0.108880 0.761755
v -0.319914 0.108880 0.750026
v -0.347768 0.100060 0.738773
v -0.372189 0.083132 0.728906
v -0.391199 0.059470 0.721225
v -0.403259 0.030991 0.716353
v -0.407390 0.000000 0.714684
v -0.403259 -0.030991 0.716353
v -0.391199 -0.059470 0.721225
v -0.372189 -0.083132 0.728906
v -0.347768 -0.100060 0.738773
v -0.319914 -0.108880 0.750026
v -0.290885 -0.108880 0.761755
v -0.263031 -0.100060 0.773008
v -0.238610 -0.083132 0.782875
v -0.219600 -0.059470 0.790556
v -0.207541 -0.030991 0.795428
v -0.219917 0.000000 0.837956
v -0.224049 0.030991 0.836287
v -0.236108 0.059470 0.831415
v -0.255118 0.083132 0.823734
v -0.279539 0.100060 0.813867
v -0.307393 0.108880 0.802614
v -0.336422 0.108880 0.790885
v -0.364276 0.100060 0.779632
v -0.388697 0.083132 0.769765
v -0.407707 0.059470 0.762084
v -0.419767 0.030991 0.757212
v -0.423898 0.000000 0.755543
v -0.419767 -0.030991 0.757212
v -0.407707 -0.059470 0.762084
v -0.388697 -0.083132 0.769765
v -0.364276 -0.100060 0.779632
v -0.336422 -0.108880 0.790885
v -0.307393 -0.108880 0.802614
v -0.279539 -0.100060 0.813867
v -0.255118 -0.083132 0.823734
v -0.236108 -0.059470 0.831415
v -0.224049 -0.030991 0.836287
v -0.236426 0.000000 0.878815
v -0.240557 0.030991 0.877146
v -0.252616 0.059470 0.872274
v -0.271626 0.083132 0.864593
v -0.296048 0.100060 0.854726
v -0.323901 0.108880 0.843473
v -0.352931 0.108880 0.831744
v -0.380784 0.100060 0.820491
v -0.405205 0.083132 0.810624
v -0.424215 0.059470 0.802943
v -0.436275 0.030991 0.798071
v -0.440406 0.000000 0.796402
v -0.436275 -0.030991 0.798071
v -0.424215 -0.059470 0.802943
v -0.405205 -0.083132 0.810624
v -0.380784 -0.100060 0.820491
v -0.352931 -0.108880 0.831744
v -0.323901 -0.108880 0.843473
v -0.296048 -0.100060 0.854726
v -0.271626 -0.083132 0.864593
v -0.252616 -0.059470 0.872274
v -0.240557 -0.030991 0.877146
v -0.252934 0.000000 0.919674
v -0.257065 0.030991 0.918005
v -0.269124 0.059470 0.913133
v -0.288134 0.083132 0.905452
v -0.312556 0.100060 0.895585
v -0.340409 0.108880 0.884332
v -0.369439 0.108880 0.872603
v -0.397292 0.100060 0.861350
v -0.421713 0.083132 0.851483
v -0.440724 0.059470 0.843802
v -0.452783 0.030991 0.838930
v -0.456914 0.000000 0.837261
v -0.452783 -0.030991 0.838930
v -0.440724 -0.059470 0.843802
v -0.421713 -0.083132 0.851483
v -0.397292 -0.100060 0.861350
v -0.369439 -0.108880 0.872603
v -0.340409 -0.108880 0.884332
v -0.312556 -0.100060 0.895585
v -0.288134 -0.083132 0.905452
v -0.269124 -0.059470 0.913133
v -0.257065 -0.030991 0.918005
v -0.269442 0.000000 0.960533
v -0.273573 0.030991 0.958864
v -0.285632 0.059470 0.953992
v -0.304643 0.083132 0.946311
v -0.329064 0.100060 0.936444
v -0.356917 0.108880 0.925191
v -0.385947 0.108880 0.913462
v -0.413800 0.100060 0.902208
v -0.438221 0.083132 0.892342
v -0.457232 0.059470 0.884661
v -0.469291 0.030991 0.879789
v -0.473422 0.000000 0.878120
v -0.469291 -0.030991 0.879789
v -0.457232 -0.059470 0.884661
v -0.438221 -0.083132 0.892342
v -0.413800 -0.100060 0.902208
v -0.385947 -0.108880 0.913462
v -0.356917 -0.108880 0.925191
v -0.329064 -0.100060 0.936444
v -0.304643 -0.083132 0.946311
v -0.285632 -0.059470 0.953992
v -0.273573 -0.030991 0.958864
v -0.285950 0.000000 1.001392
v -0.290081 0.030991 0.999723
v -0.302140 0.059470 0.994851
v -0.321151 0.083132 0.987170
v -0.345572 0.100060 0.977303
v -0.373425 0.108880 0.966050
v -0.402455 0.108880 0.954321
v -0.430308 0.100060 0.943067
v -0.454729 0.083132 0.933201
v -0.473740 0.059470 0.925520
v -0.485799 0.030991 0.920648
v -0.489930 0.000000 0.918979
v -0.485799 -0.030991 0.920648
v -0.473740 -0.059470 0.925520
v -0.454729 -0.083132 0.933201
v -0.430308 -0.100060 0.943067
v -0.402455 -0.108880 0.954321
v -0.373425 -0.108880 0.966050
v -0.345572 -0.100060 0.977303
v -0.321151 -0.083132 0.987170
v -0.302140 -0.059470 0.994851
v -0.290081 -0.030991 0.999723
v -0.302458 0.000000 1.042251
v -0.306589 0.030991 1.040582
v -0.318648 0.059470 1.035710
v -0.337659 0.083132 1.028029
v -0.362080 0.100060 1.018162
v -0.389933 0.108880 1.006909
v -0.418963 0.108880 0.995180
v -0.446816 0.100060 0.983926
v -0.471238 0.083132 0.974060
v -0.490248 0.059470 0.966379
v -0.502307 0.030991 0.961507
v -0.506438 0.000000 0.959838
v -0.502307 -0.030991 0.961507
v -0.490248 -0.059470 0.966379
v -0.471238 -0.083132 0.974060
v -0.446816 -0.100060 0.983926
v -0.418963 -0.108880 0.995180
v -0.389933 -0.108880 1.006909
v -0.362080 -0.100060 1.018162
v -0.337659 -0.083132 1.028029
v -0.318648 -0.059470 1.035710
v -0.306589 -0.030991 1.040582
v -0.318966 0.000000 1.083110
v -0.323097 0.030991 1.081441
v -0.335157 0.059470 1.076569
v -0.354167 0.083132 1.068888
v -0.378588 0.100060 1.059021
v -0.406442 0.108880 1.047768
v -0.435471 0.108880 1.036039
v -0.463324 0.100060 1.024785
v -0.487746 0.083132 1.014919
v -0.506756 0.059470 1.007238
v -0.518815 0.030991 1.002366
v -0.522946 0.000000 1.000696
v -0.518815 -0.030991 1.002366
v -0.506756 -0.059470 1.007238
v -0.487746 -0.083132 1.014919
v -0.463324 -0.100060 1.024785
v -0.435471 -0.108880 1.036039
v -0.406442 -0.108880 1.047768
v -0.378588 -0.100060 1.059021
v -0.354167 -0.083132 1.068888
v -0.335157 -0.059470 1.076569
v -0.323097 -0.030991 1.081441
v -0.335474 0.000000 1.123969
v -0.339605 0.030991 1.122300
v -0.351665 0.059470 1.117427
v -0.370675 0.083132 1.109747
v -0.395096 0.100060 1.099880
v -0.422950 0.108880 1.088626
v -0.451979 0.108880 1.076898
v -0.479833 0.100060 1.065644
v -0.504254 0.083132 1.055777
v -0.523264 0.059470 1.048097
v -0.535323 0.030991 1.043225
v -0.539455 0.000000 1.041555
v -0.535323 -0.030991 1.043225
v -0.523264 -0.059470 1.048097
v -0.504254 -0.083132 1.055777
v -0.479833 -0.100060 1.065644
v -0.451979 -0.108880 1.076898
v -0.422950 -0.108880 1.088626
v -0.395096 -0.100060 1.099880
v -0.370675 -0.083132 1.109747
v -0.351665 -0.059470 1.117427
v -0.339605 -0.030991 1.122300
v -0.351982 0.000000 1.164828
v -0.356113 0.030991 1.163159
v -0.368173 0.059470 1.158286
v -0.387183 0.083132 1.150606
v -0.411604 0.100060 1.140739
v -0.439458 0.108880 1.129485
v -0.468487 0.108880 1.117757
v -0.496341 0.100060 1.106503
v -0.520762 0.083132 1.096636
v -0.539772 0.059470 1.088956
v -0.551831 0.030991 1.084084
v -0.555963 0.000000 1.082414
v -0.551831 -0.030991 1.084084
v -0.539772 -0.059470 1.088956
v -0.520762 -0.083132 1.096636
v -0.496341 -0.100060 1.106503
v -0.468487 -0.108880 1.117757
v -0.439458 -0.108880 1.129485
v -0.411604 -0.100060 1.140739
v -0.387183 -0.083132 1.150606
v -0.368173 -0.059470 1.158286
v -0.356113 -0.030991 1.163159
v -0.368490 0.000000 1.205687
v -0.372622 0.030991 1.204018
v -0.384681 0.059470 1.199145
v -0.403691 0.083132 1.191465
v -0.428112 0.100060 1.181598
v -0.455966 0.108880 1.170344
v -0.484995 0.108880 1.158616
v -0.512849 0.100060 1.147362
v -0.537270 0.083132 1.137495
v -0.556280 0.059470 1.129815
v -0.568339 0.030991 1.124942
v -0.572471 0.000000 1.123273
v -0.568339 -0.030991 1.124942
v -0.556280 -0.059470 1.129815
v -0.537270 -0.083132 1.137495
v -0.512849 -0.100060 1.147362
v -0.484995 -0.108880 1.158616
v -0.455966 -0.108880 1.170344
v -0.428112 -0.100060 1.181598
v -0.403691 -0.083132 1.191465
v -0.384681 -0.059470 1.199145
v -0.372622 -0.030991 1.204018
v -0.384998 0.000000 1.246546
v -0.389130 0.030991 1.244877
v -0.401189 0.059470 1.240004
v -0.420199 0.083132 1.232324
v -0.444620 0.100060 1.222457
v -0.472474 0.108880 1.211203
v -0.501503 0.108880 1.199475
v -0.529357 0.100060 1.188221
v -0.553778 0.083132 1.178354
v -0.572788 0.059470 1.170674
v -0.584847 0.030991 1.165801
v -0.588979 0.000000 1.164132
v -0.584847 -0.030991 1.165801
v -0.572788 -0.059470 1.170674
v -0.553778 -0.083132 1.178354
v -0.529357 -0.100060 1.188221
v -0.501503 -0.108880 1.199475
v -0.472474 -0.108880 1.211203
v -0.444620 -0.100060 1.222457
v -0.420199 -0.083132 1.232324
v -0.401189 -0.059470 1.240004
v -0.389130 -0.030991 1.244877
f 1 2 24
f 1 24 23
f 2 3 25
f 2 25 24
f 3 4 26
f 3 26 25
f 4 5 27
f 4 27 26
f 5 6 28
f 5 28 27
f 6 7 29
f 6 29 28
f 7 8 30
f 7 30 29
f 8 9 31
f 8 31 30
f 9 10 32
f 9 32 31
f 10 11 33
f 10 33 32
f 11 12 34
f 11 34 33
f 12 13 35
f 12 35 34
f 13 14 36
f 13 36 35
f 14 15 37
f 14 37 36
f 15 16 38
f 15 38 37
f 16 17 39
f 16 39 38
f 17 18 40
f 17 40 39
f 18 19 41
f 18 41 40
f 19 20 42
f 19 42 41
f 20 21 43
f 20 43 42
f 21 22 44
f 21 44 43
f 22 1 23
f 22 23 44
f 23 24 46
f 23 46 45
f 24 25 47
f 24 47 46
f 25 26 48
f 25 48 47
f 26 27 49
f 26 49 48
f 27 28 50
f 27 50 49
f 28 29 51
f 28 51 50
f 29 30 52
f 29 52 51
f 30 31 53
f 30 53 52
f 31 32 54
f 31 54 53
f 32 33 55
f 32 55 54
f 33 34 56
f 33 56 55
f 34 35 57
f 34 57 56
f 35 36 58
f 35 58 57
f 36 37 59
f 36 59 58
f 37 38 60
f 37 60 59
f 38 39 61
f 38 61 60
f 39 40 62
f 39 62 61
f 40 41 63
f 40 63 62
f 41 42 64
f 41 64 63
f 42 43 65
f 42 65 64
f 43 44 66
f 43 66 65
f 44 23 45
f 44 45 66
f 45 46 68
f 45 68 67
f 46 47 69
f 46 69 68
f 47 48 70
f 47 70 69
f 48 49 71
f 48 71 70
f 49 50 72
f 49 72 71
f 50 51 73
f 50 73 72
f 51 52 74
f 51 74 73
f 52 53 75
f 52 75 74
f 53 54 76
f 53 76 75
f 54 55 77
f 54 77 76
f 55 56 78
f 55 78 77
f 56 57 79
f 56 79 78
f 57 58 80
f 57 80 79
f 58 59 81
f 58 81 80
f 59 60 82
f 59 82 81
f 60 61 83
f 60 83 82
f 61 62 84
f 61 84 83
f 62 63 85
f 62 85 84
f 63 64 86
f 63 86 85
f 64 65 87
f 64 87 86
f 65 66 88
f 65 88 87
f 66 45 67
f 66 67 88
f 67 68 90
f 67 90 89
f 68 69 91
f 68 91 90
f 69 70 92
f 69 92 91
f 70 71 93
f 70 93 92
f 71 72 94
f 71 94 93
f 72 73 95
f 72 95 94
f 73 74 96
f 73 96 95
f 74 75 97
f 74 97 96
f 75 76 98
f 75 98 97
f 76 77 99
f 76 99 98
f 77 78 100
f 77 100 99
f 78 79 101
f 78 101 100
f 79 80 102
f 79 102 101
f 80 81 103
f 80 103 102
f 81 82 104
f 81 104 103
f 82 83 105
f 82 105 104
f 83 84 106
f 83 106 105
f 84 85 107
f 84 107 106
f 85 86 108
f 85 108 107
f 86 87 109
f 86 109 108
f 87 88 110
f 87 110 109
f 88 67 89
f 88 89 110
f 89 90 112
f 89 112 111
f 90 91 113
f 90 113 112
f 91 92 114
f 91 114 113
f 92 93 115
f 92 115 114
f 93 94 116
f 93 116 115
f 94 95 117
f 94 117 116
f 95 96 118
f 95 118 117
f 96 97 119
f 96 119 118
f 97 98 120
f 97 120 119
f 98 99 121
f 98 121 120
f 99 100 122
f 99 122 121
f 100 101 123
f 100 123 122
f 101 102 124
f 101 124 123
f 102 103 125
f 102 125 124
f 103 104 126
f 103 126 125
f 104 105 127
f 104 127 126
f 105 106 128
f 105 128 127
f 106 107 129
f 106 129 128
f 107 108 130
f 107 130 129
f 108 109 131
f 108 131 130
f 109 110 132
f 109 132 131
f 110 89 111
f 110 111 132
f 111 112 134
f 111 134 133
f 112 113 135
f 112 135 134
f 113 114 136
f 113 136 135
f 114 115 137
f 114 137 136
f 115 116 138
f 115 138 137
f 116 117 139
f 116 139 138
f 117 118 140
f 117 140 139
f 118 119 141
f 118 141 140
f 119 120 142
f 119 142 141
f 120 121 143
f 120 143 142
f 121 122 144
f 121 144 143
f 122 123 145
f 122 145 144
f 123 124 146
f 123 146 145
f 124 125 147
f 124 147 146
f 125 126 148
f 125 148 147
f 126 127 149
f 126 149 148
f 127 128 150
f 127 150 149
f 128 129 151
f 128 151 150
f 129 130 152
f 129 152 151
f 130 131 153
f 130 153 152
f 131 132 154
f 131 154 153
f 132 111 133
f 132 133 154
f 133 134 156
f 133 156 155
f 134 135 157
f 134 157 156
f 135 136 158
f 135 158 157
f 136 137 159
f 136 159 158
f 137 138 160
f 137 160 159
f 138 139 161
f 138 161 160
f 139 140 162
f 139 162 161
f 140 141 163
f 140 163 162
f 141 142 164
f 141 164 163
f 142 143 165
f 142 165 164
f 143 144 166
f 143 166 165
f 144 145 167
f 144 167 166
f 145 146 168
f 145 168 167
f 146 147 169
f 146 169 168
f 147 148 170
f 147 170 169
f 148 149 171
f 148 171 170
f 149 150 172
f 149 172 171
f 150 151 173
f 150 173 172
f 151 152 174
f 151 174 173
f 152 153 175
f 152 175 174
f 153 154 176
f 153 176 175
f 154 133 155
f 154 155 176
f 155 156 178
f 155 178 177
f 156 157 179
f 156 179 178
f 157 158 180
f 157 180 179
f 158 159 181
f 158 181 180
f 159 160 182
f 159 182 181
f 160 161 183
f 160 183 182
f 161 162 184
f 161 184 183
f 162 163 185
f 162 185 184
f 163 164 186
f 163 186 185
f 164 165 187
f 164 187 186
f 165 166 188
f 165 188 187
f 166 167 189
f 166 189 188
f 167 168 190
f 167 190 189
f 168 169 191
f 168 191 190
f 169 170 192
f 169 192 191
f 170 171 193
f 170 193 192
f 171 172 194
f 171 194 193
f 172 173 195
f 172 195 194
f 173 174 196
f 173 196 195
f 174 175 197
f 174 197 196
f 175 176 198
f 175 198 197
f 176 155 177
f 176 177 198
f 177 178 200
f 177 200 199
f 178 179 201
f 178 201 200
f 179 180 202
f 179 202 201
f 180 181 203
f 180 203 202
f 181 182 204
f 181 204 203
f 182 183 205
f 182 205 204
f 183 184 206
f 183 206 205
f 184 185 207
f 184 207 206
f 185 186 208
f 185 208 207
f 186 187 209
f 186 209 208
f 187 188 210
f 187 210 209
f 188 189 211
f 188 211 210
f 189 190 212
f 189 212 211
f 190 191 213
f 190 213 212
f 191 192 214
f 191 214 213
f 192 193 215
f 192 215 214
f 193 194 216
f 193 216 215
f 194 195 217
f 194 217 216
f 195 196 218
f 195 218 217
f 196 197 219
f 196 219 218
f 197 198 220
f 197 220 219
f 198 177 199
f 198 199 220
f 199 200 222
f 199 222 221
f 200 201 223
f 200 223 222
f 201 202 224
f 201 224 223
f 202 203 225
f 202 225 224
f 203 204 226
f 203 226 225
f 204 205 227
f 204 227 226
f 205 206 228
f 205 228 227
f 206 207 229
f 206 229 228
f 207 208 230
f 207 230 229
f 208 209 231
f 208 231 230
f 209 210 232
f 209 232 231
f 210 211 233
f 210 233 232
f 211 212 234
f 211 234 233
f 212 213 235
f 212 235 234
f 213 214 236
f 213 236 235
f 214 215 237
f 214 237 236
f 215 216 238
f 215 238 237
f 216 217 239
f 216 239 238
f 217 218 240
f 217 240 239
f 218 219 241
f 218 241 240
f 219 220 242
f 219 242 241
f 220 199 221
f 220 221 242
f 221 222 244
f 221 244 243
f 222 223 245
f 222 245 244
f 223 224 246
f 223 246 245
f 224 225 247
f 224 247 246
f 225 226 248
f 225 248 247
f 226 227 249
f 226 249 248
f 227 228 250
f 227 250 249
f 228 229 251
f 228 251 250
f 229 230 252
f 229 252 251
f 230 231 253
f 230 253 252
f 231 232 254
f 231 254 253
f 232 233 255
f 232 255 254
f 233 234 256
f 233 256 255
f 234 235 257
f 234 257 256
f 235 236 258
f 235 258 257
f 236 237 259
f 236 259 258
f 237 238 260
f 237 260 259
f 238 239 261
f 238 261 260
f 239 240 262
f 239 262 261
f 240 241 263
f 240 263 262
f 241 242 264
f 241 264 263
f 242 221 243
f 242 243 264
f 243 244 266
f 243 266 265
f 244 245 267
f 244 267 266
f 245 246 268
f 245 268 267
f 246 247 269
f 246 269 268
f 247 248 270
f 247 270 269
f 248 249 271
f 248 271 270
f 249 250 272
f 249 272 271
f 250 251 273
f 250 273 272
f 251 252 274
f 251 274 273
f 252 253 275
f 252 275 274
f 253 254 276
f 253 276 275
f 254 255 277
f 254 277 276
f 255 256 278
f 255 278 277
f 256 257 279
f 256 279 278
f 257 258 280
f 257 280 279
f 258 259 281
f 258 281 280
f 259 260 282
f 259 282 281
f 260 261 283
f 260 283 282
f 261 262 284
f 261 284 283
f 262 263 285
f 262 285 284
f 263 264 286
f 263 286 285
f 264 243 265
f 264 265 286
f 265 266 288
f 265 288 287
f 266 267 289
f 266 289 288
f 267 268 290
f 267 290 289
f 268 269 291
f 268 291 290
f 269 270 292
f 269 292 291
f 270 271 293
f 270 293 292
f 271 272 294
f 271 294 293
f 272 273 295
f 272 295 294
f 273 274 296
f 273 296 295
f 274 275 297
f 274 297 296
f 275 276 298
f 275 298 297
f 276 277 299
f 276 299 298
f 277 278 300
f 277 300 299
f 278 279 301
f 278 301 300
f 279 280 302
f 279 302 301
f 280 281 303
f 280 303 302
f 281 282 304
f 281 304 303
f 282 283 305
f 282 305 304
f 283 284 306
f 283 306 305
f 284 285 307
f 284 307 306
f 285 286 308
f 285 308 307
f 286 265 287
f 286 287 308
f 287 288 310
f 287 310 309
f 288 289 311
f 288 311 310
f 289 290 312
f 289 312 311
f 290 291 313
f 290 313 312
f 291 292 314
f 291 314 313
f 292 293 315
f 292 315 314
f 293 294 316
f 293 316 315
f 294 295 317
f 294 317 316
f 295 296 318
f 295 318 317
f 296 297 319
f 296 319 318
f 297 298 320
f 297 320 319
f 298 299 321
f 298 321 320
f 299 300 322
f 299 322 321
f 300 301 323
f 300 323 322
f 301 302 324
f 301 324 323
f 302 303 325
f 302 325 324
f 303 304 326
f 303 326 325
f 304 305 327
f 304 327 326
f 305 306 328
f 305 328 327
f 306 307 329
f 306 329 328
f 307 308 330
f 307 330 329
f 308 287 309
f 308 309 330
f 309 310 332
f 309 332 331
f 310 311 333
f 310 333 332
f 311 312 334
f 311 334 333
f 312 313 335
f 312 335 334
f 313 314 336
f 313 336 335
f 314 315 337
f 314 337 336
f 315 316 338
f 315 338 337
f 316 317 339
f 316 339 338
f 317 318 340
f 317 340 339
f 318 319 341
f 318 341 340
f 319 320 342
f 319 342 341
f 320 321 343
f 320 343 342
f 321 322 344
f 321 344 343
f 322 323 345
f 322 345 344
f 323 324 346
f 323 346 345
f 324 325 347
f 324 347 346
f 325 326 348
f 325 348 347
f 326 327 349
f 326 349 348
f 327 328 350
f 327 350 349
f 328 329 351
f 328 351 350
f 329 330 352
f 329 352 351
f 330 309 331
f 330 331 352
f 331 332 354
f 331 354 353
f 332 333 355
f 332 355 354
f 333 334 356
f 333 356 355
f 334 335 357
f 334 357 356
f 335 336 358
f 335 358 357
f 336 337 359
f 336 359 358
f 337 338 360
f 337 360 359
f 338 339 361
f 338 361 360
f 339 340 362
f 339 362 361
f 340 341 363
f 340 363 362
f 341 342 364
f 341 364 363
f 342 343 365
f 342 365 364
f 343 344 366
f 343 366 365
f 344 345 367
f 344 367 366
f 345 346 368
f 345 368 367
f 346 347 369
f 346 369 368
f 347 348 370
f 347 370 369
f 348 349 371
f 348 371 370
f 349 350 372
f 349 372 371
f 350 351 373
f 350 373 372
f 351 352 374
f 351 374 373
f 352 331 353
f 352 353 374
f 353 354 376
f 353 376 375
f 354 355 377
f 354 377 376
f 355 356 378
f 355 378 377
f 356 357 379
f 356 379 378
f 357 358 380
f 357 380 379
f 358 359 381
f 358 381 380
f 359 360 382
f 359 382 381
f 360 361 383
f 360 383 382
f 361 362 384
f 361 384 383
f 362 363 385
f 362 385 384
f 363 364 386
f 363 386 385
f 364 365 387
f 364 387 386
f 365 366 388
f 365 388 387
f 366 367 389
f 366 389 388
f 367 368 390
f 367 390 389
f 368 369 391
f 368 391 390
f 369 370 392
f 369 392 391
f 370 371 393
f 370 393 392
f 371 372 394
f 371 394 393
f 372 373 395
f 372 395 394
f 373 374 396
f 373 396 395
f 374 353 375
f 374 375 396
f 375 376 398
f 375 398 397
f 376 377 399
f 376 399 398
f 377 378 400
f 377 400 399
f 378 379 401
f 378 401 400
f 379 380 402
f 379 402 401
f 380 381 403
f 380 403 402
f 381 382 404
f 381 404 403
f 382 383 405
f 382 405 404
f 383 384 406
f 383 406 405
f 384 385 407
f 384 407 406
f 385 386 408
f 385 408 407
f 386 387 409
f 386 409 408
f 387 388 410
f 387 410 409
f 388 389 411
f 388 411 410
f 389 390 412
f 389 412 411
f 390 391 413
f 390 413 412
f 391 392 414
f 391 414 413
f 392 393 415
f 392 415 414
f 393 394 416
f 393 416 415
f 394 395 417
f 394 417 416
f 395 396 418
f 395 418 417
f 396 375 397
f 396 397 418
f 397 398 420
f 397 420 419
f 398 399 421
f 398 421 420
f 399 400 422
f 399 422 421
f 400 401 423
f 400 423 422
f 401 402 424
f 401 424 423
f 402 403 425
f 402 425 424
f 403 404 426
f 403 426 425
f 404 405 427
f 404 427 426
f 405 406 428
f 405 428 427
f 406 407 429
f 406 429 428
f 407 408 430
f 407 430 429
f 408 409 431
f 408 431 430
f 409 410 432
f 409 432 431
f 410 411 433
f 410 433 432
f 411 412 434
f 411 434 433
f 412 413 435
f 412 435 434
f 413 414 436
f 413 436 435
f 414 415 437
f 414 437 436
f 415 416 438
f 415 438 437
f 416 417 439
f 416 439 438
f 417 418 440
f 417 440 439
f 418 397 419
f 418 419 440
f 419 420 442
f 419 442 441
f 420 421 443
f 420 443 442
f 421 422 444
f 421 444 443
f 422 423 445
f 422 445 444
f 423 424 446
f 423 446 445
f 424 425 447
f 424 447 446
f 425 426 448
f 425 448 447
f 426 427 449
f 426 449 448
f 427 428 450
f 427 450 449
f 428 429 451
f 428 451 450
f 429 430 452
f 429 452 451
f 430 431 453
f 430 453 452
f 431 432 454
f 431 454 453
f 432 433 455
f 432 455 454
f 433 434 456
f 433 456 455
f 434 435 457
f 434 457 456
f 435 436 458
f 435 458 457
f 436 437 459
f 436 459 458
f 437 438 460
f 437 460 459
f 438 439 461
f 438 461 460
f 439 440 462
f 439 462 461
f 440 419 441
f 440 441 462
f 441 442 464
f 441 464 463
f 442 443 465
f 442 465 464
f 443 444 466
f 443 466 465
f 444 445 467
f 444 467 466
f 445 446 468
f 445 468 467
f 446 447 469
f 446 469 468
f 447 448 470
f 447 470 469
f 448 449 471
f 448 471 470
f 449 450 472
f 449 472 471
f 450 451 473
f 450 473 472
f 451 452 474
f 451 474 473
f 452 453 475
f 452 475 474
f 453 454 476
f 453 476 475
f 454 455 477
f 454 477 476
f 455 456 478
f 455 478 477
f 456 457 479
f 456 479 478
f 457 458 480
f 457 480 479
f 458 459 481
f 458 481 480
f 459 460 482
f 459 482 481
f 460 461 483
f 460 483 482
f 461 462 484
f 461 484 483
f 462 441 463
f 462 463 484
f 463 464 486
f 463 486 485
f 464 465 487
f 464 487 486
f 465 466 488
f 465 488 487
f 466 467 489
f 466 489 488
f 467 468 490
f 467 490 489
f 468 469 491
f 468 491 490
f 469 470 492
f 469 492 491
f 470 471 493
f 470 493 492
f 471 472 494
f 471 494 493
f 472 473 495
f 472 495 494
f 473 474 496
f 473 496 495
f 474 475 497
f 474 497 496
f 475 476 498
f 475 498 497
f 476 477 499
f 476 499 498
f 477 478 500
f 477 500 499
f 478 479 501
f 478 501 500
f 479 480 502
f 479 502 501
f 480 481 503
f 480 503 502
f 481 482 504
f 481 504 503
f 482 483 505
f 482 505 504
f 483 484 506
f 483 506 505
f 484 463 485
f 484 485 506
f 485 486 508
f 485 508 507
f 486 487 509
f 486 509 508
f 487 488 510
f 487 510 509
f 488 489 511
f 488 511 510
f 489 490 512
f 489 512 511
f 490 491 513
f 490 513 512
f 491 492 514
f 491 514 513
f 492 493 515
f 492 515 514
f 493 494 516
f 493 516 515
f 494 495 517
f 494 517 516
f 495 496 518
f 495 518 517
f 496 497 519
f 496 519 518
f 497 498 520
f 497 520 519
f 498 499 521
f 498 521 520
f 499 500 522
f 499 522 521
f 500 501 523
f 500 523 522
f 501 502 524
f 501 524 523
f 502 503 525
f 502 525 524
f 503 504 526
f 503 526 525
f 504 505 527
f 504 527 526
f 505 506 528
f 505 528 527
f 506 485 507
f 506 507 528
f 507 508 530
f 507 530 529
f 508 509 531
f 508 531 530
f 509 510 532
f 509 532 531
f 510 511 533
f 510 533 532
f 511 512 534
f 511 534 533
f 512 513 535
f 512 535 534
f 513 514 536
f 513 536 535
f 514 515 537
f 514 537 536
f 515 516 538
f 515 538 537
f 516 517 539
f 516 539 538
f 517 518 540
f 517 540 539
f 518 519 541
f 518 541 540
f 519 520 542
f 519 542 541
f 520 521 543
f 520 543 542
f 521 522 544
f 521 544 543
f 522 523 545
f 522 545 544
f 523 524 546
f 523 546 545
f 524 525 547
f 524 547 546
f 525 526 548
f 525 548 547
f 526 527 549
f 526 549 548
f 527 528 550
f 527 550 549
f 528 507 529
f 528 529 550
f 529 530 552
f 529 552 551
f 530 531 553
f 530 553 552
f 531 532 554
f 531 554 553
f 532 533 555
f 532 555 554
f 533 534 556
f 533 556 555
f 534 535 557
f 534 557 556
f 535 536 558
f 535 558 557
f 536 537 559
f 536 559 558
f 537 538 560
f 537 560 559
f 538 539 561
f 538 561 560
f 539 540 562
f 539 562 561
f 540 541 563
f 540 563 562
f 541 542 564
f 541 564 563
f 542 543 565
f 542 565 564
f 543 544 566
f 543 566 565
f 544 545 567
f 544 567 566
f 545 546 568
f 545 568 567
f 546 547 569
f 546 569 568
f 547 548 570
f 547 570 569
f 548 549 571
f 548 571 570
f 549 550 572
f 549 572 571
f 550 529 551
f 550 551 572
f 551 552 574
f 551 574 573
f 552 553 575
f 552 575 574
f 553 554 576
f 553 576 575
f 554 555 577
f 554 577 576
f 555 556 578
f 555 578 577
f 556 557 579
f 556 579 578
f 557 558 580
f 557 580 579
f 558 559 581
f 558 581 580
f 559 560 582
f 559 582 581
f 560 561 583
f 560 583 582
f 561 562 584
f 561 584 583
f 562 563 585
f 562 585 584
f 563 564 586
f 563 586 585
f 564 565 587
f 564 587 586
f 565 566 588
f 565 588 587
f 566 567 589
f 566 589 588
f 567 568 590
f 567 590 589
f 568 569 591
f 568 591 590
f 569 570 592
f 569 592 591
f 570 571 593
f 570 593 592
f 571 572 594
f 571 594 593
f 572 551 573
f 572 573 594
f 573 574 596
f 573 596 595
f 574 575 597
f 574 597 596
f 575 576 598
f 575 598 597
f 576 577 599
f 576 599 598
f 577 578 600
f 577 600 599
f 578 579 601
f 578 601 600
f 579 580 602
f 579 602 601
f 580 581 603
f 580 603 602
f 581 582 604
f 581 604 603
f 582 583 605
f 582 605 604
f 583 584 606
f 583 606 605
f 584 585 607
f 584 607 606
f 585 586 608
f 585 608 607
f 586 587 609
f 586 609 608
f 587 588 610
f 587 610 609
f 588 589 611
f 588 611 610
f 589 590 612
f 589 612 611
f 590 591 613
f 590 613 612
f 591 592 614
f 591 614 613
f 592 593 615
f 592 615 614
f 593 594 616
f 593 616 615
f 594 573 595
f 594 595 616
f 595 596 618
f 595 618 617
f 596 597 619
f 596 619 618
f 597 598 620
f 597 620 619
f 598 599 621
f 598 621 620
f 599 600 622
f 599 622 621
f 600 601 623
f 600 623 622
f 601 602 624
f 601 624 623
f 602 603 625
f 602 625 624
f 603 604 626
f 603 626 625
f 604 605 627
f 604 627 626
f 605 606 628
f 605 628 627
f 606 607 629
f 606 629 628
f 607 608 630
f 607 630 629
f 608 609 631
f 608 631 630
f 609 610 632
f 609 632 631
f 610 611 633
f 610 633 632
f 611 612 634
f 611 634 633
f 612 613 635
f 612 635 634
f 613 614 636
f 613 636 635
f 614 615 637
f 614 637 636
f 615 616 638
f 615 638 637
f 616 595 617
f 616 617 638
f 617 618 640
f 617 640 639
f 618 619 641
f 618 641 640
f 619 620 642
f 619 642 641
f 620 621 643
f 620 643 642
f 621 622 644
f 621 644 643
f 622 623 645
f 622 645 644
f 623 624 646
f 623 646 645
f 624 625 647
f 624 647 646
f 625 626 648
f 625 648 647
f 626 627 649
f 626 649 648
f 627 628 650
f 627 650 649
f 628 629 651
f 628 651 650
f 629 630 652
f 629 652 651
f 630 631 653
f 630 653 652
f 631 632 654
f 631 654 653
f 632 633 655
f 632 655 654
f 633 634 656
f 633 656 655
f 634 635 657
f 634 657 656
f 635 636 658
f 635 658 657
f 636 637 659
f 636 659 658
f 637 638 660
f 637 660 659
f 638 617 639
f 638 639 660
f 639 640 662
f 639 662 661
f 640 641 663
f 640 663 662
f 641 642 664
f 641 664 663
f 642 643 665
f 642 665 664
f 643 644 666
f 643 666 665
f 644 645 667
f 644 667 666
f 645 646 668
f 645 668 667
f 646 647 669
f 646 669 668
f 647 648 670
f 647 670 669
f 648 649 671
f 648 671 670
f 649 650 672
f 649 672 671
f 650 651 673
f 650 673 672
f 651 652 674
f 651 674 673
f 652 653 675
f 652 675 674
f 653 654 676
f 653 676 675
f 654 655 677
f 654 677 676
f 655 656 678
f 655 678 677
f 656 657 679
f 656 679 678
f 657 658 680
f 657 680 679
f 658 659 681
f 658 681 680
f 659 660 682
f 659 682 681
f 660 639 661
f 660 661 682
f 661 662 684
f 661 684 683
f 662 663 685
f 662 685 684
f 663 664 686
f 663 686 685
f 664 665 687
f 664 687 686
f 665 666 688
f 665 688 687
f 666 667 689
f 666 689 688
f 667 668 690
f 667 690 689
f 668 669 691
f 668 691 690
f 669 670 692
f 669 692 691
f 670 671 693
f 670 693 692
f 671 672 694
f 671 694 693
f 672 673 695
f 672 695 694
f 673 674 696
f 673 696 695
f 674 675 697
f 674 697 696
f 675 676 698
f 675 698 697
f 676 677 699
f 676 699 698
f 677 678 700
f 677 700 699
f 678 679 701
f 678 701 700
f 679 680 702
f 679 702 701
f 680 681 703
f 680 703 702
f 681 682 704
f 681 704 703
f 682 661 683
f 682 683 704
f 683 684 706
f 683 706 705
f 684 685 707
f 684 707 706
f 685 686 708
f 685 708 707
f 686 687 709
f 686 709 708
f 687 688 710
f 687 710 709
f 688 689 711
f 688 711 710
f 689 690 712
f 689 712 711
f 690 691 713
f 690 713 712
f 691 692 714
f 691 714 713
f 692 693 715
f 692 715 714
f 693 694 716
f 693 716 715
f 694 695 717
f 694 717 716
f 695 696 718
f 695 718 717
f 696 697 719
f 696 719 718
f 697 698 720
f 697 720 719
f 698 699 721
f 698 721 720
f 699 700 722
f 699 722 721
f 700 701 723
f 700 723 722
f 701 702 724
f 701 724 723
f 702 703 725
f 702 725 724
f 703 704 726
f 703 726 725
f 704 683 705
f 704 705 726
f 705 706 728
f 705 728 727
f 706 707 729
f 706 729 728
f 707 708 730
f 707 730 729
f 708 709 731
f 708 731 730
f 709 710 732
f 709 732 731
f 710 711 733
f 710 733 732
f 711 712 734
f 711 734 733
f 712 713 735
f 712 735 734
f 713 714 736
f 713 736 735
f 714 715 737
f 714 737 736
f 715 716 738
f 715 738 737
f 716 717 739
f 716 739 738
f 717 718 740
f 717 740 739
f 718 719 741
f 718 741 740
f 719 720 742
f 719 742 741
f 720 721 743
f 720 743 742
f 721 722 744
f 721 744 743
f 722 723 745
f 722 745 744
f 723 724 746
f 723 746 745
f 724 725 747
f 724 747 746
f 725 726 748
f 725 748 747
f 726 705 727
f 726 727 748
f 727 728 750
f 727 750 749
f 728 729 751
f 728 751 750
f 729 730 752
f 729 752 751
f 730 731 753
f 730 753 752
f 731 732 754
f 731 754 753
f 732 733 755
f 732 755 754
f 733 734 756
f 733 756 755
f 734 735 757
f 734 757 756
f 735 736 758
f 735 758 757
f 736 737 759
f 736 759 758
f 737 738 760
f 737 760 759
f 738 739 761
f 738 761 760
f 739 740 762
f 739 762 761
f 740 741 763
f 740 763 762
f 741 742 764
f 741 764 763
f 742 743 765
f 742 765 764
f 743 744 766
f 743 766 765
f 744 745 767
f 744 767 766
f 745 746 768
f 745 768 767
f 746 747 769
f 746 769 768
f 747 748 770
f 747 770 769
f 748 727 749
f 748 749 770
f 749 750 772
f 749 772 771
f 750 751 773
f 750 773 772
f 751 752 774
f 751 774 773
f 752 753 775
f 752 775 774
f 753 754 776
f 753 776 775
f 754 755 777
f 754 777 776
f 755 756 778
f 755 778 777
f 756 757 779
f 756 779 778
f 757 758 780
f 757 780 779
f 758 759 781
f 758 781 780
f 759 760 782
f 759 782 781
f 760 761 783
f 760 783 782
f 761 762 784
f 761 784 783
f 762 763 785
f 762 785 784
f 763 764 786
f 763 786 785
f 764 765 787
f 764 787 786
f 765 766 788
f 765 788 787
f 766 767 789
f 766 789 788
f 767 768 790
f 767 790 789
f 768 769 791
f 768 791 790
f 769 770 792
f 769 792 791
f 770 749 771
f 770 771 792
f 771 772 794
f 771 794 793
f 772 773 795
f 772 795 794
f 773 774 796
f 773 796 795
f 774 775 797
f 774 797 796
f 775 776 798
f 775 798 797
f 776 777 799
f 776 799 798
f 777 778 800
f 777 800 799
f 778 779 801
f 778 801 800
f 779 780 802
f 779 802 801
f 780 781 803
f 780 803 802
f 781 782 804
f 781 804 803
f 782 783 805
f 782 805 804
f 783 784 806
f 783 806 805
f 784 785 807
f 784 807 806
f 785 786 808
f 785 808 807
f 786 787 809
f 786 809 808
f 787 788 810
f 787 810 809
f 788 789 811
f 788 811 810
f 789 790 812
f 789 812 811
f 790 791 813
f 790 813 812
f 791 792 814
f 791 814 813
f 792 771 793
f 792 793 814
f 793 794 816
f 793 816 815
f 794 795 817
f 794 817 816
f 795 796 818
f 795 818 817
f 796 797 819
f 796 819 818
f 797 798 820
f 797 820 819
f 798 799 821
f 798 821 820
f 799 800 822
f 799 822 821
f 800 801 823
f 800 823 822
f 801 802 824
f 801 824 823
f 802 803 825
f 802 825 824
f 803 804 826
f 803 826 825
f 804 805 827
f 804 827 826
f 805 806 828
f 805 828 827
f 806 807 829
f 806 829 828
f 807 808 830
f 807 830 829
f 808 809 831
f 808 831 830
f 809 810 832
f 809 832 831
f 810 811 833
f 810 833 832
f 811 812 834
f 811 834 833
f 812 813 835
f 812 835 834
f 813 814 836
f 813 836 835
f 814 793 815
f 814 815 836
f 815 816 838
f 815 838 837
f 816 817 839
f 816 839 838
f 817 818 840
f 817 840 839
f 818 819 841
f 818 841 840
f 819 820 842
f 819 842 841
f 820 821 843
f 820 843 842
f 821 822 844
f 821 844 843
f 822 823 845
f 822 845 844
f 823 824 846
f 823 846 845
f 824 825 847
f 824 847 846
f 825 826 848
f 825 848 847
f 826 827 849
f 826 849 848
f 827 828 850
f 827 850 849
f 828 829 851
f 828 851 850
f 829 830 852
f 829 852 851
f 830 831 853
f 830 853 852
f 831 832 854
f 831 854 853
f 832 833 855
f 832 855 854
f 833 834 856
f 833 856 855
f 834 835 857
f 834 857 856
f 835 836 858
f 835 858 857
f 836 815 837
f 836 837 858
f 837 838 860
f 837 860 859
f 838 839 861
f 838 861 860
f 839 840 862
f 839 862 861
f 840 841 863
f 840 863 862
f 841 842 864
f 841 864 863
f 842 843 865
f 842 865 864
f 843 844 866
f 843 866 865
f 844 845 867
f 844 867 866
f 845 846 868
f 845 868 867
f 846 847 869
f 846 869 868
f 847 848 870
f 847 870 869
f 848 849 871
f 848 871 870
f 849 850 872
f 849 872 871
f 850 851 873
f 850 873 872
f 851 852 874
f 851 874 873
f 852 853 875
f 852 875 874
f 853 854 876
f 853 876 875
f 854 855 877
f 854 877 876
f 855 856 878
f 855 878 877
f 856 857 879
f 856 879 878
f 857 858 880
f 857 880 879
f 858 837 859
f 858 859 880
f 859 860 882
f 859 882 881
f 860 861 883
f 860 883 882
f 861 862 884
f 861 884 883
f 862 863 885
f 862 885 884
f 863 864 886
f 863 886 885
f 864 865 887
f 864 887 886
f 865 866 888
f 865 888 887
f 866 867 889
f 866 889 888
f 867 868 890
f 867 890 889
f 868 869 891
f 868 891 890
f 869 870 892
f 869 892 891
f 870 871 893
f 870 893 892
f 871 872 894
f 871 894 893
f 872 873 895
f 872 895 894
f 873 874 896
f 873 896 895
f 874 875 897
f 874 897 896
f 875 876 898
f 875 898 897
f 876 877 899
f 876 899 898
f 877 878 900
f 877 900 899
f 878 879 901
f 878 901 900
f 879 880 902
f 879 902 901
f 880 859 881
f 880 881 902
f 881 882 904
f 881 904 903
f 882 883 905
f 882 905 904
f 883 884 906
f 883 906 905
f 884 885 907
f 884 907 906
f 885 886 908
f 885 908 907
f 886 887 909
f 886 909 908
f 887 888 910
f 887 910 909
f 888 889 911
f 888 911 910
f 889 890 912
f 889 912 911
f 890 891 913
f 890 913 912
f 891 892 914
f 891 914 913
f 892 893 915
f 892 915 914
f 893 894 916
f 893 916 915
f 894 895 917
f 894 917 916
f 895 896 918
f 895 918 917
f 896 897 919
f 896 919 918
f 897 898 920
f 897 920 919
f 898 899 921
f 898 921 920
f 899 900 922
f 899 922 921
f 900 901 923
f 900 923 922
f 901 902 924
f 901 924 923
f 902 881 903
f 902 903 924
f 903 904 926
f 903 926 925
f 904 905 927
f 904 927 926
f 905 906 928
f 905 928 927
f 906 907 929
f 906 929 928
f 907 908 930
f 907 930 929
f 908 909 931
f 908 931 930
f 909 910 932
f 909 932 931
f 910 911 933
f 910 933 932
f 911 912 934
f 911 934 933
f 912 913 935
f 912 935 934
f 913 914 936
f 913 936 935
f 914 915 937
f 914 937 936
f 915 916 938
f 915 938 937
f 916 917 939
f 916 939 938
f 917 918 940
f 917 940 939
f 918 919 941
f 918 941 940
f 919 920 942
f 919 942 941
f 920 921 943
f 920 943 942
f 921 922 944
f 921 944 943
f 922 923 945
f 922 945 944
f 923 924 946
f 923 946 945
f 924 903 925
f 924 925 946
f 925 926 948
f 925 948 947
f 926 927 949
f 926 949 948
f 927 928 950
f 927 950 949
f 928 929 951
f 928 951 950
f 929 930 952
f 929 952 951
f 930 931 953
f 930 953 952
f 931 932 954
f 931 954 953
f 932 933 955
f 932 955 954
f 933 934 956
f 933 956 955
f 934 935 957
f 934 957 956
f 935 936 958
f 935 958 957
f 936 937 959
f 936 959 958
f 937 938 960
f 937 960 959
f 938 939 961
f 938 961 960
f 939 940 962
f 939 962 961
f 940 941 963
f 940 963 962
f 941 942 964
f 941 964 963
f 942 943 965
f 942 965 964
f 943 944 966
f 943 966 965
f 944 945 967
f 944 967 966
f 945 946 968
f 945 968 967
f 946 925 947
f 946 947 968
f 947 948 970
f 947 970 969
f 948 949 971
f 948 971 970
f 949 950 972
f 949 972 971
f 950 951 973
f 950 973 972
f 951 952 974
f 951 974 973
f 952 953 975
f 952 975 974
f 953 954 976
f 953 976 975
f 954 955 977
f 954 977 976
f 955 956 978
f 955 978 977
f 956 957 979
f 956 979 978
f 957 958 980
f 957 980 979
f 958 959 981
f 958 981 980
f 959 960 982
f 959 982 981
f 960 961 983
f 960 983 982
f 961 962 984
f 961 984 983
f 962 963 985
f 962 985 984
f 963 964 986
f 963 986 985
f 964 965 987
f 964 987 986
f 965 966 988
f 965 988 987
f 966 967 989
f 966 989 988
f 967 968 990
f 967 990 989
f 968 947 969
f 968 969 990
f 969 970 992
f 969 992 991
f 970 971 993
f 970 993 992
f 971 972 994
f 971 994 993
f 972 973 995
f 972 995 994
f 973 974 996
f 973 996 995
f 974 975 997
f 974 997 996
f 975 976 998
f 975 998 997
f 976 977 999
f 976 999 998
f 977 978 1000
f 977 1000 999
f 978 979 1001
f 978 1001 1000
f 979 980 1002
f 979 1002 1001
f 980 981 1003
f 980 1003 1002
f 981 982 1004
f 981 1004 1003
f 982 983 1005
f 982 1005 1004
f 983 984 1006
f 983 1006 1005
f 984 985 1007
f 984 1007 1006
f 985 986 1008
f 985 1008 1007
f 986 987 1009
f 986 1009 1008
f 987 988 1010
f 987 1010 1009
f 988 989 1011
f 988 1011 1010
f 989 990 1012
f 989 1012 1011
f 990 969 991
f 990 991 1012
f 991 992 1014
f 991 1014 1013
f 992 993 1015
f 992 1015 1014
f 993 994 1016
f 993 1016 1015
f 994 995 1017
f 994 1017 1016
f 995 996 1018
f 995 1018 1017
f 996 997 1019
f 996 1019 1018
f 997 998 1020
f 997 1020 1019
f 998 999 1021
f 998 1021 1020
f 999 1000 1022
f 999 1022 1021
f 1000 1001 1023
f 1000 1023 1022
f 1001 1002 1024
f 1001 1024 1023
f 1002 1003 1025
f 1002 1025 1024
f 1003 1004 1026
f 1003 1026 1025
f 1004 1005 1027
f 1004 1027 1026
f 1005 1006 1028
f 1005 1028 1027
f 1006 1007 1029
f 1006 1029 1028
f 1007 1008 1030
f 1007 1030 1029
f 1008 1009 1031
f 1008 1031 1030
f 1009 1010 1032
f 1009 1032 1031
f 1010 1011 1033
f 1010 1033 1032
f 1011 1012 1034
f 1011 1034 1033
f 1012 991 1013
f 1012 1013 1034
f 1013 1014 1036
f 1013 1036 1035
f 1014 1015 1037
f 1014 1037 1036
f 1015 1016 1038
f 1015 1038 1037
f 1016 1017 1039
f 1016 1039 1038
f 1017 1018 1040
f 1017 1040 1039
f 1018 1019 1041
f 1018 1041 1040
f 1019 1020 1042
f 1019 1042 1041
f 1020 1021 1043
f 1020 1043 1042
f 1021 1022 1044
f 1021 1044 1043
f 1022 1023 1045
f 1022 1045 1044
f 1023 1024 1046
f 1023 1046 1045
f 1024 1025 1047
f 1024 1047 1046
f 1025 1026 1048
f 1025 1048 1047
f 1026 1027 1049
f 1026 1049 1048
f 1027 1028 1050
f 1027 1050 1049
f 1028 1029 1051
f 1028 1051 1050
f 1029 1030 1052
f 1029 1052 1051
f 1030 1031 1053
f 1030 1053 1052
f 1031 1032 1054
f 1031 1054 1053
f 1032 1033 1055
f 1032 1055 1054
f 1033 1034 1056
f 1033 1056 1055
f 1034 1013 1035
f 1034 1035 1056
f 1035 1036 1058
f 1035 1058 1057
f 1036 1037 1059
f 1036 1059 1058
f 1037 1038 1060
f 1037 1060 1059
f 1038 1039 1061
f 1038 1061 1060
f 1039 1040 1062
f 1039 1062 1061
f 1040 1041 1063
f 1040 1063 1062
f 1041 1042 1064
f 1041 1064 1063
f 1042 1043 1065
f 1042 1065 1064
f 1043 1044 1066
f 1043 1066 1065
f 1044 1045 1067
f 1044 1067 1066
f 1045 1046 1068
f 1045 1068 1067
f 1046 1047 1069
f 1046 1069 1068
f 1047 1048 1070
f 1047 1070 1069
f 1048 1049 1071
f 1048 1071 1070
f 1049 1050 1072
f 1049 1072 1071
f 1050 1051 1073
f 1050 1073 1072
f 1051 1052 1074
f 1051 1074 1073
f 1052 1053 1075
f 1052 1075 1074
f 1053 1054 1076
f 1053 1076 1075
f 1054 1055 1077
f 1054 1077 1076
f 1055 1056 1078
f 1055 1078 1077
f 1056 1035 1057
f 1056 1057 1078
f 1057 1058 1080
f 1057 1080 1079
f 1058 1059 1081
f 1058 1081 1080
f 1059 1060 1082
f 1059 1082 1081
f 1060 1061 1083
f 1060 1083 1082
f 1061 1062 1084
f 1061 1084 1083
f 1062 1063 1085
f 1062 1085 1084
f 1063 1064 1086
f 1063 1086 1085
f 1064 1065 1087
f 1064 1087 1086
f 1065 1066 1088
f 1065 1088 1087
f 1066 1067 1089
f 1066 1089 1088
f 1067 1068 1090
f 1067 1090 1089
f 1068 1069 1091
f 1068 1091 1090
f 1069 1070 1092
f 1069 1092 1091
f 1070 1071 1093
f 1070 1093 1092
f 1071 1072 1094
f 1071 1094 1093
f 1072 1073 1095
f 1072 1095 1094
f 1073 1074 1096
f 1073 1096 1095
f 1074 1075 1097
f 1074 1097 1096
f 1075 1076 1098
f 1075 1098 1097
f 1076 1077 1099
f 1076 1099 1098
f 1077 1078 1100
f 1077 1100 1099
f 1078 1057 1079
f 1078 1079 1100
f 1079 1080 1102
f 1079 1102 1101
f 1080 1081 1103
f 1080 1103 1102
f 1081 1082 1104
f 1081 1104 1103
f 1082 1083 1105
f 1082 1105 1104
f 1083 1084 1106
f 1083 1106 1105
f 1084 1085 1107
f 1084 1107 1106
f 1085 1086 1108
f 1085 1108 1107
f 1086 1087 1109
f 1086 1109 1108
f 1087 1088 1110
f 1087 1110 1109
f 1088 1089 1111
f 1088 1111 1110
f 1089 1090 1112
f 1089 1112 1111
f 1090 1091 1113
f 1090 1113 1112
f 1091 1092 1114
f 1091 1114 1113
f 1092 1093 1115
f 1092 1115 1114
f 1093 1094 1116
f 1093 1116 1115
f 1094 1095 1117
f 1094 1117 1116
f 1095 1096 1118
f 1095 1118 1117
f 1096 1097 1119
f 1096 1119 1118
f 1097 1098 1120
f 1097 1120 1119
f 1098 1099 1121
f 1098 1121 1120
f 1099 1100 1122
f 1099 1122 1121
f 1100 1079 1101
f 1100 1101 1122
f 1101 1102 1124
f 1101 1124 1123
f 1102 1103 1125
f 1102 1125 1124
f 1103 1104 1126
f 1103 1126 1125
f 1104 1105 1127
f 1104 1127 1126
f 1105 1106 1128
f 1105 1128 1127
f 1106 1107 1129
f 1106 1129 1128
f 1107 1108 1130
f 1107 1130 1129
f 1108 1109 1131
f 1108 1131 1130
f 1109 1110 1132
f 1109 1132 1131
f 1110 1111 1133
f 1110 1133 1132
f 1111 1112 1134
f 1111 1134 1133
f 1112 1113 1135
f 1112 1135 1134
f 1113 1114 1136
f 1113 1136 1135
f 1114 1115 1137
f 1114 1137 1136
f 1115 1116 1138
f 1115 1138 1137
f 1116 1117 1139
f 1116 1139 1138
f 1117 1118 1140
f 1117 1140 1139
f 1118 1119 1141
f 1118 1141 1140
f 1119 1120 1142
f 1119 1142 1141
f 1120 1121 1143
f 1120 1143 1142
f 1121 1122 1144
f 1121 1144 1143
f 1122 1101 1123
f 1122 1123 1144
f 1123 1124 1146
f 1123 1146 1145
f 1124 1125 1147
f 1124 1147 1146
f 1125 1126 1148
f 1125 1148 1147
f 1126 1127 1149
f 1126 1149 1148
f 1127 1128 1150
f 1127 1150 1149
f 1128 1129 1151
f 1128 1151 1150
f 1129 1130 1152
f 1129 1152 1151
f 1130 1131 1153
f 1130 1153 1152
f 1131 1132 1154
f 1131 1154 1153
f 1132 1133 1155
f 1132 1155 1154
f 1133 1134 1156
f 1133 1156 1155
f 1134 1135 1157
f 1134 1157 1156
f 1135 1136 1158
f 1135 1158 1157
f 1136 1137 1159
f 1136 1159 1158
f 1137 1138 1160
f 1137 1160 1159
f 1138 1139 1161
f 1138 1161 1160
f 1139 1140 1162
f 1139 1162 1161
f 1140 1141 1163
f 1140 1163 1162
f 1141 1142 1164
f 1141 1164 1163
f 1142 1143 1165
f 1142 1165 1164
f 1143 1144 1166
f 1143 1166 1165
f 1144 1123 1145
f 1144 1145 1166
f 1145 1146 1168
f 1145 1168 1167
f 1146 1147 1169
f 1146 1169 1168
f 1147 1148 1170
f 1147 1170 1169
f 1148 1149 1171
f 1148 1171 1170
f 1149 1150 1172
f 1149 1172 1171
f 1150 1151 1173
f 1150 1173 1172
f 1151 1152 1174
f 1151 1174 1173
f 1152 1153 1175
f 1152 1175 1174
f 1153 1154 1176
f 1153 1176 1175
f 1154 1155 1177
f 1154 1177 1176
f 1155 1156 1178
f 1155 1178 1177
f 1156 1157 1179
f 1156 1179 1178
f 1157 1158 1180
f 1157 1180 1179
f 1158 1159 1181
f 1158 1181 1180
f 1159 1160 1182
f 1159 1182 1181
f 1160 1161 1183
f 1160 1183 1182
f 1161 1162 1184
f 1161 1184 1183
f 1162 1163 1185
f 1162 1185 1184
f 1163 1164 1186
f 1163 1186 1185
f 1164 1165 1187
f 1164 1187 1186
f 1165 1166 1188
f 1165 1188 1187
f 1166 1145 1167
f 1166 1167 1188
f 1167 1168 1190
f 1167 1190 1189
f 1168 1169 1191
f 1168 1191 1190
f 1169 1170 1192
f 1169 1192 1191
f 1170 1171 1193
f 1170 1193 1192
f 1171 1172 1194
f 1171 1194 1193
f 1172 1173 1195
f 1172 1195 1194
f 1173 1174 1196
f 1173 1196 1195
f 1174 1175 1197
f 1174 1197 1196
f 1175 1176 1198
f 1175 1198 1197
f 1176 1177 1199
f 1176 1199 1198
f 1177 1178 1200
f 1177 1200 1199
f 1178 1179 1201
f 1178 1201 1200
f 1179 1180 1202
f 1179 1202 1201
f 1180 1181 1203
f 1180 1203 1202
f 1181 1182 1204
f 1181 1204 1203
f 1182 1183 1205
f 1182 1205 1204
f 1183 1184 1206
f 1183 1206 1205
f 1184 1185 1207
f 1184 1207 1206
f 1185 1186 1208
f 1185 1208 1207
f 1186 1187 1209
f 1186 1209 1208
f 1187 1188 1210
f 1187 1210 1209
f 1188 1167 1189
f 1188 1189 1210
f 1189 1190 1212
f 1189 1212 1211
f 1190 1191 1213
f 1190 1213 1212
f 1191 1192 1214
f 1191 1214 1213
f 1192 1193 1215
f 1192 1215 1214
f 1193 1194 1216
f 1193 1216 1215
f 1194 1195 1217
f 1194 1217 1216
f 1195 1196 1218
f 1195 1218 1217
f 1196 1197 1219
f 1196 1219 1218
f 1197 1198 1220
f 1197 1220 1219
f 1198 1199 1221
f 1198 1221 1220
f 1199 1200 1222
f 1199 1222 1221
f 1200 1201 1223
f 1200 1223 1222
f 1201 1202 1224
f 1201 1224 1223
f 1202 1203 1225
f 1202 1225 1224
f 1203 1204 1226
f 1203 1226 1225
f 1204 1205 1227
f 1204 1227 1226
f 1205 1206 1228
f 1205 1228 1227
f 1206 1207 1229
f 1206 1229 1228
f 1207 1208 1230
f 1207 1230 1229
f 1208 1209 1231
f 1208 1231 1230
f 1209 1210 1232
f 1209 1232 1231
f 1210 1189 1211
f 1210 1211 1232
f 1211 1212 1234
f 1211 1234 1233
f 1212 1213 1235
f 1212 1235 1234
f 1213 1214 1236
f 1213 1236 1235
f 1214 1215 1237
f 1214 1237 1236
f 1215 1216 1238
f 1215 1238 1237
f 1216 1217 1239
f 1216 1239 1238
f 1217 1218 1240
f 1217 1240 1239
f 1218 1219 1241
f 1218 1241 1240
f 1219 1220 1242
f 1219 1242 1241
f 1220 1221 1243
f 1220 1243 1242
f 1221 1222 1244
f 1221 1244 1243
f 1222 1223 1245
f 1222 1245 1244
f 1223 1224 1246
f 1223 1246 1245
f 1224 1225 1247
f 1224 1247 1246
f 1225 1226 1248
f 1225 1248 1247
f 1226 1227 1249
f 1226 1249 1248
f 1227 1228 1250
f 1227 1250 1249
f 1228 1229 1251
f 1228 1251 1250
f 1229 1230 1252
f 1229 1252 1251
f 1230 1231 1253
f 1230 1253 1252
f 1231 1232 1254
f 1231 1254 1253
f 1232 1211 1233
f 1232 1233 1254
f 1233 1234 1256
f 1233 1256 1255
f 1234 1235 1257
f 1234 1257 1256
f 1235 1236 1258
f 1235 1258 1257
f 1236 1237 1259
f 1236 1259 1258
f 1237 1238 1260
f 1237 1260 1259
f 1238 1239 1261
f 1238 1261 1260
f 1239 1240 1262
f 1239 1262 1261
f 1240 1241 1263
f 1240 1263 1262
f 1241 1242 1264
f 1241 1264 1263
f 1242 1243 1265
f 1242 1265 1264
f 1243 1244 1266
f 1243 1266 1265
f 1244 1245 1267
f 1244 1267 1266
f 1245 1246 1268
f 1245 1268 1267
f 1246 1247 1269
f 1246 1269 1268
f 1247 1248 1270
f 1247 1270 1269
f 1248 1249 1271
f 1248 1271 1270
f 1249 1250 1272
f 1249 1272 1271
f 1250 1251 1273
f 1250 1273 1272
f 1251 1252 1274
f 1251 1274 1273
f 1252 1253 1275
f 1252 1275 1274
f 1253 1254 1276
f 1253 1276 1275
f 1254 1233 1255
f 1254 1255 1276
f 1255 1256 1278
f 1255 1278 1277
f 1256 1257 1279
f 1256 1279 1278
f 1257 1258 1280
f 1257 1280 1279
f 1258 1259 1281
f 1258 1281 1280
f 1259 1260 1282
f 1259 1282 1281
f 1260 1261 1283
f 1260 1283 1282
f 1261 1262 1284
f 1261 1284 1283
f 1262 1263 1285
f 1262 1285 1284
f 1263 1264 1286
f 1263 1286 1285
f 1264 1265 1287
f 1264 1287 1286
f 1265 1266 1288
f 1265 1288 1287
f 1266 1267 1289
f 1266 1289 1288
f 1267 1268 1290
f 1267 1290 1289
f 1268 1269 1291
f 1268 1291 1290
f 1269 1270 1292
f 1269 1292 1291
f 1270 1271 1293
f 1270 1293 1292
f 1271 1272 1294
f 1271 1294 1293
f 1272 1273 1295
f 1272 1295 1294
f 1273 1274 1296
f 1273 1296 1295
f 1274 1275 1297
f 1274 1297 1296
f 1275 1276 1298
f 1275 1298 1297
f 1276 1255 1277
f 1276 1277 1298
f 1277 1278 1300
f 1277 1300 1299
f 1278 1279 1301
f 1278 1301 1300
f 1279 1280 1302
f 1279 1302 1301
f 1280 1281 1303
f 1280 1303 1302
f 1281 1282 1304
f 1281 1304 1303
f 1282 1283 1305
f 1282 1305 1304
f 1283 1284 1306
f 1283 1306 1305
f 1284 1285 1307
f 1284 1307 1306
f 1285 1286 1308
f 1285 1308 1307
f 1286 1287 1309
f 1286 1309 1308
f 1287 1288 1310
f 1287 1310 1309
f 1288 1289 1311
f 1288 1311 1310
f 1289 1290 1312
f 1289 1312 1311
f 1290 1291 1313
f 1290 1313 1312
f 1291 1292 1314
f 1291 1314 1313
f 1292 1293 1315
f 1292 1315 1314
f 1293 1294 1316
f 1293 1316 1315
f 1294 1295 1317
f 1294 1317 1316
f 1295 1296 1318
f 1295 1318 1317
f 1296 1297 1319
f 1296 1319 1318
f 1297 1298 1320
f 1297 1320 1319
f 1298 1277 1299
f 1298 1299 1320
