# tube retopo
v -0.827993 0.219172 0.310767
v -0.788481 0.202572 0.382658
v -0.754951 0.154824 0.443825
v -0.732492 0.083199 0.484876
v -0.724509 -0.001409 0.499485
v -0.732215 -0.086133 0.485395
v -0.754443 -0.158086 0.444779
v -0.787824 -0.206313 0.383894
v -0.827291 -0.223464 0.312092
v -0.866841 -0.206913 0.240347
v -0.900445 -0.159169 0.179555
v -0.922971 -0.087500 0.138889
v -0.930974 -0.002827 0.124449
v -0.923230 0.081946 0.138392
v -0.900928 0.153902 0.178633
v -0.867480 0.202086 0.239133
v -0.738994 0.225440 0.272383
v -0.698344 0.208378 0.345198
v -0.663856 0.159306 0.407208
v -0.640757 0.085695 0.448855
v -0.632546 -0.001261 0.463685
v -0.640466 -0.088338 0.449392
v -0.663323 -0.162288 0.408194
v -0.697658 -0.211854 0.346474
v -0.738264 -0.229478 0.273749
v -0.778968 -0.212462 0.201153
v -0.813562 -0.163388 0.139700
v -0.836756 -0.089726 0.098622
v -0.844998 -0.002702 0.084039
v -0.837024 0.084421 0.098112
v -0.814061 0.158369 0.138753
v -0.779630 0.207884 0.199905
v -0.648683 0.231712 0.235305
v -0.606823 0.214181 0.308619
v -0.571323 0.163777 0.371131
v -0.547554 0.088173 0.413151
v -0.539106 -0.001130 0.428122
v -0.547254 -0.090552 0.413697
v -0.570773 -0.166493 0.372135
v -0.606113 -0.217392 0.309925
v -0.647925 -0.235489 0.236711
v -0.689858 -0.218013 0.163726
v -0.725514 -0.167613 0.102022
v -0.749431 -0.091961 0.060815
v -0.757932 -0.002585 0.046186
v -0.749711 0.086893 0.060282
v -0.726036 0.162838 0.101035
v -0.690548 0.213688 0.162433
v -0.564708 0.236935 0.206861
v -0.534419 0.218710 0.280743
v -0.507188 0.168971 0.344287
v -0.486793 0.094230 0.387972
v -0.476437 0.004176 0.404159
v -0.478149 -0.088079 0.388968
v -0.492135 -0.168079 0.343873
v -0.516621 -0.222717 0.275684
v -0.548086 -0.241881 0.195310
v -0.581430 -0.221958 0.116263
v -0.611022 -0.165633 0.051569
v -0.631666 -0.082574 0.011550
v -0.639942 0.012432 0.001775
v -0.635067 0.103237 0.022322
v -0.618726 0.176174 0.068556
v -0.594072 0.222288 0.132964
v -0.475066 0.243693 0.171520
v -0.435743 0.225226 0.244085
v -0.400368 0.173177 0.306138
v -0.374091 0.094769 0.347890
v -0.361008 0.001038 0.362155
v -0.363472 -0.094089 0.345927
v -0.381616 -0.175654 0.301204
v -0.412999 -0.230148 0.235123
v -0.452764 -0.248389 0.158738
v -0.494486 -0.227152 0.084593
v -0.531248 -0.170097 0.024385
v -0.557053 -0.087079 -0.013108
v -0.568051 0.008069 -0.023152
v -0.563104 0.100479 -0.005187
v -0.543585 0.176798 0.037682
v -0.512748 0.226723 0.099377
v -0.384091 0.250314 0.133686
v -0.341322 0.232709 0.207002
v -0.302856 0.178207 0.270650
v -0.275003 0.094311 0.313001
v -0.262563 -0.005459 0.325845
v -0.267509 -0.104404 0.307126
v -0.288942 -0.186421 0.260743
v -0.323281 -0.238776 0.195445
v -0.364990 -0.254076 0.122525
v -0.407558 -0.231035 0.053374
v -0.444531 -0.174154 -0.002370
v -0.470521 -0.092563 -0.037821
v -0.481945 0.001711 -0.049023
v -0.477342 0.095452 -0.034696
v -0.457265 0.175287 0.004046
v -0.424670 0.229730 0.062640
v -0.282394 0.257461 0.108560
v -0.236108 0.236693 0.176141
v -0.196467 0.180701 0.234155
v -0.169134 0.097455 0.273268
v -0.158162 -0.001037 0.286797
v -0.165427 -0.100179 0.272110
v -0.190226 -0.184800 0.231362
v -0.229174 -0.241481 0.171262
v -0.276501 -0.260912 0.101792
v -0.324822 -0.239690 0.034183
v -0.366339 -0.181115 -0.021235
v -0.394284 -0.094664 -0.056653
v -0.404243 0.005777 -0.067555
v -0.394932 0.104474 -0.052840
v -0.368261 0.186496 -0.014681
v -0.328711 0.239968 0.041723
v -0.195362 0.264469 0.078359
v -0.145905 0.243650 0.142527
v -0.103718 0.185825 0.198200
v -0.074988 0.099392 0.235810
v -0.064023 -0.002713 0.248512
v -0.072615 -0.104873 0.233851
v -0.099702 -0.191224 0.194442
v -0.141410 -0.248251 0.137378
v -0.191506 -0.267041 0.072537
v -0.242267 -0.244765 0.010373
v -0.285686 -0.185102 -0.040063
v -0.314853 -0.097529 -0.072274
v -0.325204 0.004351 -0.082580
v -0.315307 0.105053 -0.069928
v -0.286989 0.189567 -0.035751
v -0.244845 0.245454 0.015919
v -0.114198 0.262009 0.049316
v -0.062664 0.242641 0.106202
v -0.018740 0.185595 0.156543
v 0.010843 0.099127 0.190951
v 0.021463 -0.003323 0.202519
v 0.011394 -0.105347 0.188866
v -0.017868 -0.190571 0.152878
v -0.061830 -0.245644 0.101783
v -0.113713 -0.262478 0.045005
v -0.165530 -0.239272 -0.008245
v -0.209331 -0.180351 -0.050675
v -0.238448 -0.095078 -0.077533
v -0.248538 0.003805 -0.086335
v -0.238189 0.101985 -0.076319
v -0.209059 0.185339 -0.048243
v -0.165558 0.241615 -0.004696
v -0.039253 0.243844 0.023806
v 0.010591 0.224665 0.068594
v 0.052399 0.171613 0.108537
v 0.080206 0.092257 0.136282
v 0.089965 -0.001671 0.146201
v 0.080076 -0.095853 0.136049
v 0.051709 -0.175595 0.107763
v 0.008791 -0.228299 0.066973
v -0.042379 -0.245643 0.021379
v -0.093951 -0.224997 -0.021333
v -0.137721 -0.169797 -0.055124
v -0.166575 -0.088871 -0.076248
v -0.175850 0.005129 -0.082956
v -0.164233 0.097842 -0.074883
v -0.133905 0.175436 -0.052747
v -0.089942 0.226571 -0.018576
v 0.014180 0.226677 -0.007523
v 0.064081 0.211191 0.026504
v 0.106739 0.163056 0.058121
v 0.135588 0.088553 0.080842
v 0.145811 -0.001056 0.089153
v 0.135419 -0.090923 0.080730
v 0.105986 -0.165881 0.057674
v 0.062129 -0.213686 0.025445
v 0.010838 -0.227279 -0.009140
v -0.039761 -0.205683 -0.040117
v -0.081820 -0.153491 -0.063616
v -0.109072 -0.079381 -0.077848
v -0.117671 0.005389 -0.082305
v -0.106697 0.089033 -0.077013
v -0.077933 0.160079 -0.062140
v -0.035598 0.208517 -0.038345
v 0.060071 0.209189 -0.036194
v 0.110664 0.192302 -0.013671
v 0.152894 0.146215 0.006857
v 0.180697 0.077879 0.021256
v 0.190164 -0.002443 0.026354
v 0.179885 -0.082661 0.020957
v 0.151125 -0.150527 0.006265
v 0.107832 -0.195459 -0.014490
v 0.056350 -0.210318 -0.037085
v 0.004607 -0.192775 -0.057599
v -0.039194 -0.145743 -0.073335
v -0.068067 -0.076726 -0.082975
v -0.077480 0.003614 -0.086121
v -0.066058 0.083175 -0.082711
v -0.035729 0.150097 -0.072796
v 0.008640 0.194347 -0.056822
v 0.090899 0.192126 -0.071325
v 0.141696 0.176264 -0.059344
v 0.184177 0.133443 -0.048287
v 0.212027 0.070132 -0.040505
v 0.221121 -0.003951 -0.037823
v 0.210174 -0.077356 -0.040866
v 0.180918 -0.138865 -0.048821
v 0.137743 -0.179316 -0.059797
v 0.086984 -0.192843 -0.071530
v 0.036084 -0.177469 -0.082064
v -0.007293 -0.135297 -0.090118
v -0.036312 -0.072417 -0.095095
v -0.046159 0.001709 -0.096821
v -0.035105 0.075604 -0.095241
v -0.004947 0.137761 -0.090299
v 0.039392 0.178640 -0.082114
v 0.099364 0.185005 -0.116143
v 0.150972 0.169395 -0.111815
v 0.193894 0.127935 -0.107317
v 0.221869 0.067177 -0.103924
v 0.230995 -0.003603 -0.102692
v 0.220069 -0.073822 -0.103995
v 0.190645 -0.133038 -0.107367
v 0.146889 -0.172336 -0.111724
v 0.095171 -0.185660 -0.115855
v 0.043248 -0.170900 -0.118927
v -0.000907 -0.130143 -0.120736
v -0.030320 -0.069452 -0.121586
v -0.040218 0.001949 -0.121905
v -0.028930 0.073073 -0.121851
v 0.001755 0.132911 -0.121163
v 0.046910 0.172220 -0.119356
v 0.069805 0.180038 -0.168491
v 0.122838 0.165211 -0.170802
v 0.167174 0.125166 -0.171899
v 0.196235 0.066060 -0.172184
v 0.205795 -0.003085 -0.172162
v 0.194489 -0.071774 -0.172039
v 0.163957 -0.129592 -0.171570
v 0.118657 -0.167748 -0.170254
v 0.065318 -0.180416 -0.167752
v 0.012014 -0.165655 -0.164260
v -0.033055 -0.125722 -0.160576
v -0.062881 -0.066709 -0.157816
v -0.072790 0.002418 -0.156922
v -0.061213 0.071172 -0.158223
v -0.029949 0.129102 -0.161277
v 0.016117 0.167351 -0.165072
v 0.028450 0.174793 -0.225413
v 0.082091 0.160328 -0.233909
v 0.126955 0.121362 -0.240382
v 0.156336 0.063918 -0.244291
v 0.165933 -0.003209 -0.245482
v 0.154389 -0.069820 -0.243937
v 0.123428 -0.125837 -0.239686
v 0.077624 -0.162786 -0.232927
v 0.023804 -0.175060 -0.224265
v -0.029906 -0.160782 -0.214873
v -0.075294 -0.122107 -0.206385
v -0.105346 -0.064887 -0.200522
v -0.115369 0.002214 -0.198584
v -0.103756 0.069012 -0.201023
v -0.072272 0.125320 -0.207288
v -0.025796 0.162493 -0.216002
v -0.017038 0.169525 -0.288658
v 0.036048 0.155339 -0.303056
v 0.080424 0.117251 -0.314715
v 0.109359 0.061243 -0.322124
v 0.118584 -0.003987 -0.324435
v 0.106873 -0.068443 -0.321427
v 0.076135 -0.122408 -0.313469
v 0.031039 -0.157880 -0.301516
v -0.021701 -0.169660 -0.287119
v -0.074260 -0.156008 -0.272334
v -0.118768 -0.118872 -0.259492
v -0.148418 -0.063674 -0.250797
v -0.158520 0.001361 -0.247850
v -0.147336 0.066353 -0.251245
v -0.116465 0.121269 -0.260387
v -0.070655 0.157551 -0.273626
v -0.068314 0.164208 -0.357568
v -0.015844 0.150429 -0.375535
v 0.028027 0.113528 -0.390278
v 0.056636 0.059298 -0.399751
v 0.065755 -0.003845 -0.402738
v 0.054169 -0.066238 -0.398904
v 0.023770 -0.118488 -0.388785
v -0.020816 -0.152852 -0.373730
v -0.072948 -0.164289 -0.355811
v -0.124894 -0.151095 -0.337627
v -0.168878 -0.115135 -0.321987
v -0.198173 -0.061651 -0.311460
v -0.208149 0.001380 -0.307883
v -0.197088 0.064360 -0.311934
v -0.166575 0.117550 -0.322952
v -0.121302 0.152658 -0.339059
v -0.123567 0.158885 -0.430595
v -0.071282 0.145755 -0.449663
v -0.027419 0.110378 -0.465387
v 0.001381 0.058184 -0.475572
v 0.010793 -0.002845 -0.478873
v -0.000560 -0.063405 -0.474874
v -0.030938 -0.114301 -0.464100
v -0.075751 -0.147827 -0.447987
v -0.128238 -0.158919 -0.428791
v -0.180461 -0.145899 -0.409358
v -0.224482 -0.110725 -0.392729
v -0.253566 -0.058706 -0.381631
v -0.263224 0.002276 -0.377942
v -0.251933 0.062948 -0.382305
v -0.221398 0.114045 -0.393984
v -0.176300 0.147746 -0.411011
v -0.180501 0.152953 -0.506708
v -0.129522 0.140338 -0.527114
v -0.086712 0.106340 -0.544046
v -0.058559 0.056152 -0.555077
v -0.049311 -0.002573 -0.558683
v -0.060350 -0.060894 -0.554377
v -0.089998 -0.109943 -0.542745
v -0.133771 -0.142268 -0.525402
v -0.185044 -0.152962 -0.504841
v -0.236033 -0.140398 -0.484139
v -0.278973 -0.106476 -0.466516
v -0.307299 -0.056345 -0.454803
v -0.316663 0.002375 -0.450925
v -0.305614 0.060746 -0.455528
v -0.275836 0.109871 -0.467851
v -0.231889 0.142254 -0.485875
v -0.237457 0.144919 -0.584955
v -0.188821 0.132971 -0.605924
v -0.147956 0.100771 -0.623401
v -0.121066 0.053232 -0.634831
v -0.112220 -0.002404 -0.638581
v -0.122750 -0.057666 -0.634123
v -0.151054 -0.104147 -0.622088
v -0.192844 -0.134782 -0.604198
v -0.241780 -0.144912 -0.583075
v -0.290426 -0.132996 -0.561898
v -0.331374 -0.100840 -0.543940
v -0.358372 -0.053330 -0.532037
v -0.367287 0.002306 -0.528100
v -0.356747 0.057599 -0.532766
v -0.328360 0.104125 -0.545283
v -0.286462 0.134789 -0.563645
v -0.293320 0.136875 -0.664638
v -0.246853 0.125682 -0.684936
v -0.207725 0.095413 -0.701919
v -0.181881 0.050618 -0.713083
v -0.173276 -0.001925 -0.716793
v -0.183266 -0.054218 -0.712495
v -0.210369 -0.098263 -0.700788
v -0.250474 -0.127300 -0.683371
v -0.297454 -0.136871 -0.662832
v -0.344115 -0.125516 -0.642293
v -0.383312 -0.094997 -0.624935
v -0.409063 -0.050011 -0.613482
v -0.417466 0.002552 -0.609738
v -0.407283 0.054683 -0.614278
v -0.380108 0.098478 -0.626360
v -0.340097 0.127324 -0.644066
v -0.348996 0.128976 -0.744583
v -0.302109 0.120082 -0.758061
v -0.261235 0.093269 -0.769643
v -0.232827 0.051642 -0.777598
v -0.222251 0.001052 -0.780540
v -0.232125 -0.050202 -0.777798
v -0.261123 -0.093084 -0.769681
v -0.303861 -0.120546 -0.757566
v -0.353129 -0.128655 -0.743387
v -0.401205 -0.116705 -0.729344
v -0.440878 -0.086877 -0.717611
v -0.466240 -0.043950 -0.710046
v -0.473659 0.005306 -0.707825
v -0.462468 0.053305 -0.711177
v -0.434911 0.093083 -0.719387
v -0.395291 0.119410 -0.731084
v -0.403701 0.120693 -0.829341
v -0.358365 0.113192 -0.836877
v -0.317443 0.089710 -0.843515
v -0.287401 0.051415 -0.848282
v -0.275208 0.003013 -0.850191
v -0.284877 -0.046742 -0.848680
v -0.314931 -0.087752 -0.843919
v -0.358472 -0.113175 -0.836860
v -0.407711 -0.120443 -0.828663
v -0.455632 -0.109310 -0.820486
v -0.495606 -0.081305 -0.813526
v -0.521369 -0.040292 -0.808978
v -0.528353 0.007085 -0.807738
v -0.515847 0.052486 -0.809960
v -0.487359 0.088860 -0.814976
v -0.448266 0.112162 -0.821759
v -0.453073 0.114301 -0.914865
v -0.410693 0.106101 -0.922332
v -0.373442 0.083062 -0.928790
v -0.346864 0.047099 -0.933334
v -0.336292 0.002687 -0.935127
v -0.344912 -0.042859 -0.933668
v -0.371482 -0.081224 -0.929130
v -0.410946 -0.106178 -0.922290
v -0.456846 -0.114571 -0.914196
v -0.502769 -0.105494 -0.905959
v -0.542124 -0.079599 -0.898798
v -0.567917 -0.039976 -0.894058
v -0.575062 0.006517 -0.892738
v -0.562563 0.051125 -0.895045
v -0.534111 0.086216 -0.900264
v -0.495742 0.107657 -0.907228
v -0.508762 0.108865 -0.999141
v -0.468126 0.101913 -1.006632
v -0.431679 0.080458 -1.013277
v -0.405111 0.045801 -1.018074
v -0.394478 0.002262 -1.019983
v -0.403186 -0.042355 -1.018422
v -0.429937 -0.079076 -1.013596
v -0.468562 -0.102002 -1.006556
v -0.512327 -0.108617 -0.998483
v -0.555021 -0.098727 -0.990516
v -0.590758 -0.073667 -0.983783
v -0.613897 -0.036801 -0.979395
v -0.620320 0.005927 -0.978172
v -0.609302 0.047043 -0.980268
v -0.583862 0.080032 -0.985086
v -0.548783 0.101177 -0.991684
vn -0.05709 0.99799 0.02758
vn 0.10356 0.91705 0.38509
vn 0.24055 0.69496 0.67762
vn 0.33094 0.37405 0.86635
vn 0.36194 0.00347 0.93220
vn 0.32999 -0.36753 0.86950
vn 0.23986 -0.68981 0.68310
vn 0.10492 -0.91427 0.39130
vn -0.05242 -0.99810 0.03254
vn -0.20382 -0.92059 -0.33313
vn -0.32401 -0.69742 -0.63924
vn -0.39928 -0.37413 -0.83702
vn -0.42644 -0.00328 -0.90451
vn -0.40477 0.36814 -0.83704
vn -0.33233 0.69281 -0.63998
vn -0.21149 0.91790 -0.33574
vn -0.05666 0.99801 0.02751
vn 0.10252 0.91609 0.38765
vn 0.23841 0.69288 0.68049
vn 0.32785 0.37232 0.86827
vn 0.35828 0.00349 0.93361
vn 0.32638 -0.36573 0.87162
vn 0.23694 -0.68761 0.68633
vn 0.10324 -0.91321 0.39419
vn -0.05210 -0.99811 0.03251
vn -0.20025 -0.91988 -0.33722
vn -0.31609 -0.69508 -0.64572
vn -0.38751 -0.37184 -0.84354
vn -0.41337 -0.00327 -0.91056
vn -0.39368 0.36591 -0.84328
vn -0.32531 0.69054 -0.64601
vn -0.20846 0.91721 -0.33951
vn -0.05262 0.99829 0.02562
vn 0.09971 0.91373 0.39390
vn 0.23192 0.68778 0.68787
vn 0.31896 0.36812 0.87335
vn 0.34876 0.00348 0.93720
vn 0.31795 -0.36154 0.87647
vn 0.23075 -0.68248 0.69353
vn 0.10146 -0.91094 0.39988
vn -0.04638 -0.99848 0.02968
vn -0.18343 -0.91804 -0.35152
vn -0.28530 -0.68859 -0.66666
vn -0.34517 -0.36552 -0.86444
vn -0.36751 -0.00324 -0.93001
vn -0.35370 0.35981 -0.86338
vn -0.29736 0.68440 -0.66572
vn -0.19354 0.91548 -0.35276
vn -0.05224 0.99804 0.03447
vn 0.09751 0.91087 0.40101
vn 0.22788 0.68594 0.69106
vn 0.31404 0.37206 0.87347
vn 0.34415 0.01320 0.93882
vn 0.31415 -0.34931 0.88278
vn 0.22817 -0.67267 0.70388
vn 0.09900 -0.90815 0.40677
vn -0.04822 -0.99860 0.02196
vn -0.17913 -0.90881 -0.37679
vn -0.26939 -0.66334 -0.69815
vn -0.31846 -0.33298 -0.88753
vn -0.33800 0.02374 -0.94085
vn -0.33014 0.37681 -0.86546
vn -0.28361 0.69382 -0.66195
vn -0.18816 0.91965 -0.34474
vn -0.05855 0.99736 0.04296
vn 0.09572 0.90706 0.40998
vn 0.22951 0.68053 0.69585
vn 0.31909 0.37013 0.87246
vn 0.35179 0.01716 0.93592
vn 0.32243 -0.34141 0.88288
vn 0.23459 -0.66630 0.70782
vn 0.10061 -0.90723 0.40844
vn -0.05135 -0.99862 0.01057
vn -0.18109 -0.89708 -0.40306
vn -0.26330 -0.63652 -0.72492
vn -0.30451 -0.30431 -0.90259
vn -0.32357 0.04143 -0.94530
vn -0.32273 0.38231 -0.86584
vn -0.28577 0.69397 -0.66087
vn -0.19612 0.91976 -0.33996
vn -0.05483 0.99825 0.02205
vn 0.09983 0.90619 0.41091
vn 0.23484 0.66949 0.70473
vn 0.32173 0.35077 0.87946
vn 0.34811 -0.00188 0.93745
vn 0.31136 -0.35394 0.88192
vn 0.21612 -0.67262 0.70773
vn 0.07832 -0.90991 0.40733
vn -0.06918 -0.99760 0.00005
vn -0.18208 -0.88663 -0.42512
vn -0.23810 -0.62117 -0.74663
vn -0.25704 -0.30144 -0.91818
vn -0.26715 0.02026 -0.96344
vn -0.27352 0.34341 -0.89847
vn -0.25554 0.65803 -0.70831
vn -0.18442 0.90452 -0.38449
vn -0.05136 0.99821 0.03077
vn 0.10957 0.89634 0.42961
vn 0.24876 0.65188 0.71635
vn 0.33476 0.33559 0.88052
vn 0.35740 -0.00646 0.93393
vn 0.31655 -0.34635 0.88308
vn 0.21764 -0.65871 0.72023
vn 0.07618 -0.90098 0.42712
vn -0.07223 -0.99735 0.00845
vn -0.17478 -0.88087 -0.43991
vn -0.20906 -0.60329 -0.76963
vn -0.20910 -0.28819 -0.93447
vn -0.21411 0.01403 -0.97671
vn -0.23143 0.32084 -0.91842
vn -0.23437 0.63736 -0.73406
vn -0.17931 0.89926 -0.39898
vn -0.01404 0.99961 0.02425
vn 0.15865 0.88712 0.43342
vn 0.30630 0.63551 0.70873
vn 0.39766 0.32677 0.85737
vn 0.42544 -0.00029 0.90498
vn 0.38989 -0.32818 0.86040
vn 0.29512 -0.63991 0.70952
vn 0.15389 -0.89549 0.41763
vn 0.00211 -0.99966 -0.02617
vn -0.09897 -0.86069 -0.49941
vn -0.12528 -0.56125 -0.81811
vn -0.12132 -0.25689 -0.95880
vn -0.13189 0.01651 -0.99113
vn -0.16382 0.29800 -0.94040
vn -0.18682 0.61104 -0.76924
vn -0.14547 0.89146 -0.42911
vn 0.10549 0.99003 -0.09338
vn 0.29220 0.89120 0.34696
vn 0.44280 0.63073 0.63727
vn 0.52966 0.31828 0.78623
vn 0.55314 -0.00462 0.83308
vn 0.51644 -0.32775 0.79112
vn 0.42198 -0.64121 0.64092
vn 0.27733 -0.90142 0.33245
vn 0.11711 -0.98264 -0.14387
vn 0.01259 -0.79180 -0.61066
vn -0.00996 -0.47940 -0.87754
vn -0.00309 -0.21089 -0.97751
vn -0.01345 0.01041 -0.99986
vn -0.04772 0.24292 -0.96887
vn -0.07576 0.53078 -0.84411
vn -0.03656 0.83488 -0.54921
vn 0.18072 0.96727 -0.17815
vn 0.39940 0.87632 0.26932
vn 0.56130 0.61242 0.55667
vn 0.64835 0.30586 0.69720
vn 0.67221 -0.00377 0.74035
vn 0.63897 -0.31463 0.70194
vn 0.54700 -0.62449 0.55751
vn 0.39261 -0.88714 0.24256
vn 0.20185 -0.94734 -0.24862
vn 0.06479 -0.71882 -0.69217
vn 0.02708 -0.40830 -0.91245
vn 0.02892 -0.17304 -0.98449
vn 0.01531 0.00871 -0.99984
vn -0.02246 0.20473 -0.97856
vn -0.05036 0.46981 -0.88133
vn 0.00369 0.78302 -0.62198
vn 0.17746 0.95445 -0.23985
vn 0.45353 0.86963 0.19508
vn 0.64477 0.60163 0.47151
vn 0.74063 0.29861 0.60191
vn 0.76687 -0.00104 0.64180
vn 0.73389 -0.30212 0.60838
vn 0.63472 -0.60971 0.47475
vn 0.44885 -0.87763 0.16825
vn 0.19608 -0.92864 -0.31494
vn 0.00695 -0.68007 -0.73312
vn -0.04676 -0.37071 -0.92757
vn -0.04477 -0.15211 -0.98735
vn -0.05924 0.00922 -0.99820
vn -0.10136 0.18612 -0.97728
vn -0.12844 0.43712 -0.89019
vn -0.05278 0.75206 -0.65698
vn 0.16358 0.94067 -0.29728
vn 0.50570 0.85734 0.09608
vn 0.72904 0.58725 0.35164
vn 0.83386 0.28778 0.47101
vn 0.86202 -0.00316 0.50687
vn 0.82837 -0.29593 0.47564
vn 0.71843 -0.60056 0.35099
vn 0.49057 -0.86886 0.06659
vn 0.15801 -0.91690 -0.36652
vn -0.10602 -0.67518 -0.73000
vn -0.20073 -0.37547 -0.90484
vn -0.21310 -0.15691 -0.96435
vn -0.22860 0.00828 -0.97349
vn -0.26175 0.18725 -0.94680
vn -0.26314 0.43336 -0.86195
vn -0.13838 0.73887 -0.65949
vn 0.10232 0.97088 -0.21662
vn 0.52485 0.85075 0.02765
vn 0.79488 0.57515 0.19328
vn 0.92125 0.27734 0.27274
vn 0.95605 -0.00934 0.29307
vn 0.91779 -0.29680 0.26377
vn 0.78549 -0.59499 0.17024
vn 0.50722 -0.86164 -0.01748
vn 0.08617 -0.95661 -0.27834
vn -0.32210 -0.80401 -0.49983
vn -0.58070 -0.53003 -0.61794
vn -0.70466 -0.25306 -0.66288
vn -0.74401 0.00882 -0.66811
vn -0.71471 0.27391 -0.64355
vn -0.59321 0.55919 -0.57915
vn -0.32260 0.83636 -0.44320
vn 0.04211 0.99289 -0.11129
vn 0.51662 0.84480 -0.13933
vn 0.81725 0.56326 -0.12184
vn 0.95773 0.26840 -0.10348
vn 0.99460 -0.01275 -0.10301
vn 0.94811 -0.29302 -0.12337
vn 0.79614 -0.58407 -0.15816
vn 0.48379 -0.85668 -0.17899
vn 0.00533 -0.99198 -0.12629
vn -0.47940 -0.87754 0.01013
vn -0.79247 -0.59096 0.15084
vn -0.93110 -0.28126 0.23225
vn -0.96898 0.00999 0.24694
vn -0.93126 0.30377 0.20118
vn -0.78165 0.61461 0.10620
vn -0.45182 0.89198 -0.01517
vn 0.02283 0.99607 -0.08555
vn 0.47326 0.82976 -0.29585
vn 0.75051 0.54141 -0.37896
vn 0.87824 0.25552 -0.40424
vn 0.90882 -0.01148 -0.41704
vn 0.86086 -0.27555 -0.42778
vn 0.71939 -0.55423 -0.41870
vn 0.43520 -0.83740 -0.33070
vn -0.01610 -0.99698 -0.07594
vn -0.44834 -0.84693 0.28582
vn -0.65385 -0.51957 0.55002
vn -0.70727 -0.22982 0.66854
vn -0.72414 0.01084 0.68957
vn -0.72922 0.26004 0.63294
vn -0.67021 0.56230 0.48439
vn -0.43014 0.87465 0.22355
vn 0.01044 0.99672 -0.08024
vn 0.42476 0.84698 -0.31970
vn 0.69803 0.56622 -0.43834
vn 0.83161 0.27091 -0.48479
vn 0.86475 -0.01252 -0.50204
vn 0.81393 -0.29354 -0.50136
vn 0.66682 -0.58310 -0.46406
vn 0.38695 -0.85857 -0.33634
vn -0.02581 -0.99776 -0.06171
vn -0.41650 -0.86373 0.28373
vn -0.63035 -0.56170 0.53587
vn -0.70791 -0.26047 0.65651
vn -0.73095 0.01187 0.68233
vn -0.72077 0.28936 0.62989
vn -0.63798 0.59726 0.48606
vn -0.39897 0.88713 0.23202
vn 0.00370 0.99732 -0.07310
vn 0.39052 0.86524 -0.31441
vn 0.66252 0.59467 -0.45545
vn 0.80394 0.28846 -0.52007
vn 0.84064 -0.01641 -0.54134
vn 0.78615 -0.31897 -0.52937
vn 0.63098 -0.61890 -0.46779
vn 0.35277 -0.88030 -0.31722
vn -0.02993 -0.99810 -0.05376
vn -0.39569 -0.88266 0.25366
vn -0.62748 -0.60598 0.48893
vn -0.73298 -0.29401 0.61344
vn -0.76434 0.01037 0.64473
vn -0.73893 0.31741 0.59433
vn -0.62796 0.63195 0.45421
vn -0.37820 0.90001 0.21669
vn -0.00064 0.99770 -0.06775
vn 0.36405 0.87767 -0.31171
vn 0.63214 0.61611 -0.46990
vn 0.77869 0.30258 -0.54962
vn 0.81829 -0.01962 -0.57447
vn 0.76105 -0.33924 -0.55291
vn 0.60085 -0.64514 -0.47199
vn 0.32715 -0.89433 -0.30519
vn -0.03226 -0.99833 -0.04785
vn -0.37902 -0.89430 0.23785
vn -0.61938 -0.63442 0.46248
vn -0.74323 -0.31710 0.58911
vn -0.78112 0.00890 0.62431
vn -0.74544 0.33637 0.57547
vn -0.61624 0.65475 0.43767
vn -0.36178 0.90837 0.20970
vn -0.00444 0.99773 -0.06726
vn 0.34363 0.88721 -0.30785
vn 0.60887 0.63485 -0.47566
vn 0.76054 0.31737 -0.56643
vn 0.80372 -0.01819 -0.59474
vn 0.74511 -0.35141 -0.56685
vn 0.58134 -0.66188 -0.47324
vn 0.31045 -0.90274 -0.29778
vn -0.03475 -0.99827 -0.04749
vn -0.37068 -0.90193 0.22164
vn -0.61794 -0.65330 0.43744
vn -0.75575 -0.33169 0.56465
vn -0.79849 0.01164 0.60189
vn -0.75372 0.35512 0.55298
vn -0.60923 0.67495 0.41626
vn -0.35057 0.91560 0.19690
vn -0.01198 0.99687 -0.07814
vn 0.32473 0.89307 -0.31139
vn 0.58823 0.64884 -0.48270
vn 0.74459 0.32962 -0.58046
vn 0.79119 -0.01599 -0.61136
vn 0.73153 -0.35963 -0.57925
vn 0.56460 -0.67294 -0.47788
vn 0.29514 -0.90726 -0.29963
vn -0.04137 -0.99743 -0.05850
vn -0.37184 -0.90741 0.19580
vn -0.62610 -0.66731 0.40337
vn -0.77575 -0.34236 0.53009
vn -0.82263 0.01486 0.56838
vn -0.77002 0.37099 0.51907
vn -0.61237 0.69130 0.38354
vn -0.34882 0.92117 0.17252
vn -0.01803 0.99610 -0.08639
vn 0.31249 0.89739 -0.31151
vn 0.57607 0.65929 -0.48320
vn 0.73692 0.33846 -0.58515
vn 0.78630 -0.01582 -0.61765
vn 0.72485 -0.36811 -0.58231
vn 0.55404 -0.68296 -0.47603
vn 0.28440 -0.91112 -0.29829
vn -0.04687 -0.99662 -0.06740
vn -0.37449 -0.91100 0.17272
vn -0.63480 -0.67753 0.37147
vn -0.79412 -0.35103 0.49614
vn -0.84475 0.01573 0.53493
vn -0.78644 0.38077 0.48635
vn -0.61866 0.70144 0.35389
vn -0.35032 0.92426 0.15168
vn -0.01838 0.99641 -0.08259
vn 0.30937 0.90249 -0.29968
vn 0.57460 0.66940 -0.47089
vn 0.74003 0.34705 -0.57612
vn 0.79182 -0.01485 -0.61057
vn 0.72792 -0.37475 -0.57420
vn 0.55225 -0.69124 -0.46607
vn 0.28050 -0.91488 -0.29038
vn -0.04895 -0.99645 -0.06855
vn -0.37600 -0.91284 0.15919
vn -0.64140 -0.68337 0.34874
vn -0.80807 -0.35583 0.46947
vn -0.86135 0.01731 0.50772
vn -0.79816 0.38802 0.46085
vn -0.62199 0.70827 0.33390
vn -0.34898 0.92622 0.14254
vn -0.02444 0.99663 -0.07825
vn 0.29910 0.91022 -0.28642
vn 0.56657 0.68619 -0.45622
vn 0.73915 0.36588 -0.56550
vn 0.79705 -0.00304 -0.60390
vn 0.73338 -0.37386 -0.56779
vn 0.55296 -0.69654 -0.45724
vn 0.27703 -0.91888 -0.28092
vn -0.05383 -0.99653 -0.06353
vn -0.38199 -0.91100 0.15546
vn -0.65103 -0.68054 0.33620
vn -0.82166 -0.34922 0.45046
vn -0.87439 0.02967 0.48431
vn -0.80502 0.40245 0.43585
vn -0.62233 0.71747 0.31297
vn -0.34924 0.92754 0.13307
vn -0.02778 0.99703 -0.07188
vn 0.28679 0.91936 -0.26931
vn 0.55412 0.70881 -0.43651
vn 0.73658 0.39338 -0.55018
vn 0.80520 0.01629 -0.59278
vn 0.74507 -0.37041 -0.55468
vn 0.56006 -0.70377 -0.43707
vn 0.27946 -0.92495 -0.25762
vn -0.05199 -0.99766 -0.04451
vn -0.38057 -0.90955 0.16697
vn -0.65284 -0.67658 0.34063
vn -0.82689 -0.33844 0.44913
vn -0.87722 0.04995 0.47749
vn -0.79930 0.42593 0.42391
vn -0.61033 0.73307 0.30019
vn -0.34156 0.93122 0.12714
vn -0.00897 0.99785 -0.06497
vn 0.29825 0.91976 -0.25514
vn 0.56291 0.71273 -0.41852
vn 0.74652 0.40054 -0.53129
vn 0.81787 0.02327 -0.57494
vn 0.75911 -0.36502 -0.53899
vn 0.57482 -0.69901 -0.42540
vn 0.29606 -0.92107 -0.25294
vn -0.03316 -0.99824 -0.04922
vn -0.36423 -0.91818 0.15583
vn -0.64597 -0.68820 0.33031
vn -0.82845 -0.34235 0.44324
vn -0.87844 0.05890 0.47422
vn -0.79131 0.44404 0.42031
vn -0.59113 0.75026 0.29610
vn -0.31768 0.93974 0.12637
vn 0.00654 0.99799 -0.06302
vn 0.31194 0.91609 -0.25195
vn 0.57531 0.70587 -0.41323
vn 0.75522 0.39466 -0.52335
vn 0.82368 0.02167 -0.56664
vn 0.76453 -0.35999 -0.53470
vn 0.58340 -0.68939 -0.42940
vn 0.30829 -0.91375 -0.26462
vn -0.01965 -0.99762 -0.06608
vn -0.35342 -0.92539 0.13691
vn -0.64239 -0.69869 0.31491
vn -0.83065 -0.34897 0.43386
vn -0.88122 0.05857 0.46906
vn -0.78984 0.44946 0.41730
vn -0.58239 0.75784 0.29410
vn -0.30244 0.94480 0.12606
f 1//1 2//2 18//18 17//17
f 2//2 3//3 19//19 18//18
f 3//3 4//4 20//20 19//19
f 4//4 5//5 21//21 20//20
f 5//5 6//6 22//22 21//21
f 6//6 7//7 23//23 22//22
f 7//7 8//8 24//24 23//23
f 8//8 9//9 25//25 24//24
f 9//9 10//10 26//26 25//25
f 10//10 11//11 27//27 26//26
f 11//11 12//12 28//28 27//27
f 12//12 13//13 29//29 28//28
f 13//13 14//14 30//30 29//29
f 14//14 15//15 31//31 30//30
f 15//15 16//16 32//32 31//31
f 16//16 1//1 17//17 32//32
f 17//17 18//18 34//34 33//33
f 18//18 19//19 35//35 34//34
f 19//19 20//20 36//36 35//35
f 20//20 21//21 37//37 36//36
f 21//21 22//22 38//38 37//37
f 22//22 23//23 39//39 38//38
f 23//23 24//24 40//40 39//39
f 24//24 25//25 41//41 40//40
f 25//25 26//26 42//42 41//41
f 26//26 27//27 43//43 42//42
f 27//27 28//28 44//44 43//43
f 28//28 29//29 45//45 44//44
f 29//29 30//30 46//46 45//45
f 30//30 31//31 47//47 46//46
f 31//31 32//32 48//48 47//47
f 32//32 17//17 33//33 48//48
f 33//33 34//34 50//50 49//49
f 34//34 35//35 51//51 50//50
f 35//35 36//36 52//52 51//51
f 36//36 37//37 53//53 52//52
f 37//37 38//38 54//54 53//53
f 38//38 39//39 55//55 54//54
f 39//39 40//40 56//56 55//55
f 40//40 41//41 57//57 56//56
f 41//41 42//42 58//58 57//57
f 42//42 43//43 59//59 58//58
f 43//43 44//44 60//60 59//59
f 44//44 45//45 61//61 60//60
f 45//45 46//46 62//62 61//61
f 46//46 47//47 63//63 62//62
f 47//47 48//48 64//64 63//63
f 48//48 33//33 49//49 64//64
f 49//49 50//50 66//66 65//65
f 50//50 51//51 67//67 66//66
f 51//51 52//52 68//68 67//67
f 52//52 53//53 69//69 68//68
f 53//53 54//54 70//70 69//69
f 54//54 55//55 71//71 70//70
f 55//55 56//56 72//72 71//71
f 56//56 57//57 73//73 72//72
f 57//57 58//58 74//74 73//73
f 58//58 59//59 75//75 74//74
f 59//59 60//60 76//76 75//75
f 60//60 61//61 77//77 76//76
f 61//61 62//62 78//78 77//77
f 62//62 63//63 79//79 78//78
f 63//63 64//64 80//80 79//79
f 64//64 49//49 65//65 80//80
f 65//65 66//66 82//82 81//81
f 66//66 67//67 83//83 82//82
f 67//67 68//68 84//84 83//83
f 68//68 69//69 85//85 84//84
f 69//69 70//70 86//86 85//85
f 70//70 71//71 87//87 86//86
f 71//71 72//72 88//88 87//87
f 72//72 73//73 89//89 88//88
f 73//73 74//74 90//90 89//89
f 74//74 75//75 91//91 90//90
f 75//75 76//76 92//92 91//91
f 76//76 77//77 93//93 92//92
f 77//77 78//78 94//94 93//93
f 78//78 79//79 95//95 94//94
f 79//79 80//80 96//96 95//95
f 80//80 65//65 81//81 96//96
f 81//81 82//82 98//98 97//97
f 82//82 83//83 99//99 98//98
f 83//83 84//84 100//100 99//99
f 84//84 85//85 101//101 100//100
f 85//85 86//86 102//102 101//101
f 86//86 87//87 103//103 102//102
f 87//87 88//88 104//104 103//103
f 88//88 89//89 105//105 104//104
f 89//89 90//90 106//106 105//105
f 90//90 91//91 107//107 106//106
f 91//91 92//92 108//108 107//107
f 92//92 93//93 109//109 108//108
f 93//93 94//94 110//110 109//109
f 94//94 95//95 111//111 110//110
f 95//95 96//96 112//112 111//111
f 96//96 81//81 97//97 112//112
f 97//97 98//98 114//114 113//113
f 98//98 99//99 115//115 114//114
f 99//99 100//100 116//116 115//115
f 100//100 101//101 117//117 116//116
f 101//101 102//102 118//118 117//117
f 102//102 103//103 119//119 118//118
f 103//103 104//104 120//120 119//119
f 104//104 105//105 121//121 120//120
f 105//105 106//106 122//122 121//121
f 106//106 107//107 123//123 122//122
f 107//107 108//108 124//124 123//123
f 108//108 109//109 125//125 124//124
f 109//109 110//110 126//126 125//125
f 110//110 111//111 127//127 126//126
f 111//111 112//112 128//128 127//127
f 112//112 97//97 113//113 128//128
f 113//113 114//114 130//130 129//129
f 114//114 115//115 131//131 130//130
f 115//115 116//116 132//132 131//131
f 116//116 117//117 133//133 132//132
f 117//117 118//118 134//134 133//133
f 118//118 119//119 135//135 134//134
f 119//119 120//120 136//136 135//135
f 120//120 121//121 137//137 136//136
f 121//121 122//122 138//138 137//137
f 122//122 123//123 139//139 138//138
f 123//123 124//124 140//140 139//139
f 124//124 125//125 141//141 140//140
f 125//125 126//126 142//142 141//141
f 126//126 127//127 143//143 142//142
f 127//127 128//128 144//144 143//143
f 128//128 113//113 129//129 144//144
f 129//129 130//130 146//146 145//145
f 130//130 131//131 147//147 146//146
f 131//131 132//132 148//148 147//147
f 132//132 133//133 149//149 148//148
f 133//133 134//134 150//150 149//149
f 134//134 135//135 151//151 150//150
f 135//135 136//136 152//152 151//151
f 136//136 137//137 153//153 152//152
f 137//137 138//138 154//154 153//153
f 138//138 139//139 155//155 154//154
f 139//139 140//140 156//156 155//155
f 140//140 141//141 157//157 156//156
f 141//141 142//142 158//158 157//157
f 142//142 143//143 159//159 158//158
f 143//143 144//144 160//160 159//159
f 144//144 129//129 145//145 160//160
f 145//145 146//146 162//162 161//161
f 146//146 147//147 163//163 162//162
f 147//147 148//148 164//164 163//163
f 148//148 149//149 165//165 164//164
f 149//149 150//150 166//166 165//165
f 150//150 151//151 167//167 166//166
f 151//151 152//152 168//168 167//167
f 152//152 153//153 169//169 168//168
f 153//153 154//154 170//170 169//169
f 154//154 155//155 171//171 170//170
f 155//155 156//156 172//172 171//171
f 156//156 157//157 173//173 172//172
f 157//157 158//158 174//174 173//173
f 158//158 159//159 175//175 174//174
f 159//159 160//160 176//176 175//175
f 160//160 145//145 161//161 176//176
f 161//161 162//162 178//178 177//177
f 162//162 163//163 179//179 178//178
f 163//163 164//164 180//180 179//179
f 164//164 165//165 181//181 180//180
f 165//165 166//166 182//182 181//181
f 166//166 167//167 183//183 182//182
f 167//167 168//168 184//184 183//183
f 168//168 169//169 185//185 184//184
f 169//169 170//170 186//186 185//185
f 170//170 171//171 187//187 186//186
f 171//171 172//172 188//188 187//187
f 172//172 173//173 189//189 188//188
f 173//173 174//174 190//190 189//189
f 174//174 175//175 191//191 190//190
f 175//175 176//176 192//192 191//191
f 176//176 161//161 177//177 192//192
f 177//177 178//178 194//194 193//193
f 178//178 179//179 195//195 194//194
f 179//179 180//180 196//196 195//195
f 180//180 181//181 197//197 196//196
f 181//181 182//182 198//198 197//197
f 182//182 183//183 199//199 198//198
f 183//183 184//184 200//200 199//199
f 184//184 185//185 201//201 200//200
f 185//185 186//186 202//202 201//201
f 186//186 187//187 203//203 202//202
f 187//187 188//188 204//204 203//203
f 188//188 189//189 205//205 204//204
f 189//189 190//190 206//206 205//205
f 190//190 191//191 207//207 206//206
f 191//191 192//192 208//208 207//207
f 192//192 177//177 193//193 208//208
f 193//193 194//194 210//210 209//209
f 194//194 195//195 211//211 210//210
f 195//195 196//196 212//212 211//211
f 196//196 197//197 213//213 212//212
f 197//197 198//198 214//214 213//213
f 198//198 199//199 215//215 214//214
f 199//199 200//200 216//216 215//215
f 200//200 201//201 217//217 216//216
f 201//201 202//202 218//218 217//217
f 202//202 203//203 219//219 218//218
f 203//203 204//204 220//220 219//219
f 204//204 205//205 221//221 220//220
f 205//205 206//206 222//222 221//221
f 206//206 207//207 223//223 222//222
f 207//207 208//208 224//224 223//223
f 208//208 193//193 209//209 224//224
f 209//209 210//210 226//226 225//225
f 210//210 211//211 227//227 226//226
f 211//211 212//212 228//228 227//227
f 212//212 213//213 229//229 228//228
f 213//213 214//214 230//230 229//229
f 214//214 215//215 231//231 230//230
f 215//215 216//216 232//232 231//231
f 216//216 217//217 233//233 232//232
f 217//217 218//218 234//234 233//233
f 218//218 219//219 235//235 234//234
f 219//219 220//220 236//236 235//235
f 220//220 221//221 237//237 236//236
f 221//221 222//222 238//238 237//237
f 222//222 223//223 239//239 238//238
f 223//223 224//224 240//240 239//239
f 224//224 209//209 225//225 240//240
f 225//225 226//226 242//242 241//241
f 226//226 227//227 243//243 242//242
f 227//227 228//228 244//244 243//243
f 228//228 229//229 245//245 244//244
f 229//229 230//230 246//246 245//245
f 230//230 231//231 247//247 246//246
f 231//231 232//232 248//248 247//247
f 232//232 233//233 249//249 248//248
f 233//233 234//234 250//250 249//249
f 234//234 235//235 251//251 250//250
f 235//235 236//236 252//252 251//251
f 236//236 237//237 253//253 252//252
f 237//237 238//238 254//254 253//253
f 238//238 239//239 255//255 254//254
f 239//239 240//240 256//256 255//255
f 240//240 225//225 241//241 256//256
f 241//241 242//242 258//258 257//257
f 242//242 243//243 259//259 258//258
f 243//243 244//244 260//260 259//259
f 244//244 245//245 261//261 260//260
f 245//245 246//246 262//262 261//261
f 246//246 247//247 263//263 262//262
f 247//247 248//248 264//264 263//263
f 248//248 249//249 265//265 264//264
f 249//249 250//250 266//266 265//265
f 250//250 251//251 267//267 266//266
f 251//251 252//252 268//268 267//267
f 252//252 253//253 269//269 268//268
f 253//253 254//254 270//270 269//269
f 254//254 255//255 271//271 270//270
f 255//255 256//256 272//272 271//271
f 256//256 241//241 257//257 272//272
f 257//257 258//258 274//274 273//273
f 258//258 259//259 275//275 274//274
f 259//259 260//260 276//276 275//275
f 260//260 261//261 277//277 276//276
f 261//261 262//262 278//278 277//277
f 262//262 263//263 279//279 278//278
f 263//263 264//264 280//280 279//279
f 264//264 265//265 281//281 280//280
f 265//265 266//266 282//282 281//281
f 266//266 267//267 283//283 282//282
f 267//267 268//268 284//284 283//283
f 268//268 269//269 285//285 284//284
f 269//269 270//270 286//286 285//285
f 270//270 271//271 287//287 286//286
f 271//271 272//272 288//288 287//287
f 272//272 257//257 273//273 288//288
f 273//273 274//274 290//290 289//289
f 274//274 275//275 291//291 290//290
f 275//275 276//276 292//292 291//291
f 276//276 277//277 293//293 292//292
f 277//277 278//278 294//294 293//293
f 278//278 279//279 295//295 294//294
f 279//279 280//280 296//296 295//295
f 280//280 281//281 297//297 296//296
f 281//281 282//282 298//298 297//297
f 282//282 283//283 299//299 298//298
f 283//283 284//284 300//300 299//299
f 284//284 285//285 301//301 300//300
f 285//285 286//286 302//302 301//301
f 286//286 287//287 303//303 302//302
f 287//287 288//288 304//304 303//303
f 288//288 273//273 289//289 304//304
f 289//289 290//290 306//306 305//305
f 290//290 291//291 307//307 306//306
f 291//291 292//292 308//308 307//307
f 292//292 293//293 309//309 308//308
f 293//293 294//294 310//310 309//309
f 294//294 295//295 311//311 310//310
f 295//295 296//296 312//312 311//311
f 296//296 297//297 313//313 312//312
f 297//297 298//298 314//314 313//313
f 298//298 299//299 315//315 314//314
f 299//299 300//300 316//316 315//315
f 300//300 301//301 317//317 316//316
f 301//301 302//302 318//318 317//317
f 302//302 303//303 319//319 318//318
f 303//303 304//304 320//320 319//319
f 304//304 289//289 305//305 320//320
f 305//305 306//306 322//322 321//321
f 306//306 307//307 323//323 322//322
f 307//307 308//308 324//324 323//323
f 308//308 309//309 325//325 324//324
f 309//309 310//310 326//326 325//325
f 310//310 311//311 327//327 326//326
f 311//311 312//312 328//328 327//327
f 312//312 313//313 329//329 328//328
f 313//313 314//314 330//330 329//329
f 314//314 315//315 331//331 330//330
f 315//315 316//316 332//332 331//331
f 316//316 317//317 333//333 332//332
f 317//317 318//318 334//334 333//333
f 318//318 319//319 335//335 334//334
f 319//319 320//320 336//336 335//335
f 320//320 305//305 321//321 336//336
f 321//321 322//322 338//338 337//337
f 322//322 323//323 339//339 338//338
f 323//323 324//324 340//340 339//339
f 324//324 325//325 341//341 340//340
f 325//325 326//326 342//342 341//341
f 326//326 327//327 343//343 342//342
f 327//327 328//328 344//344 343//343
f 328//328 329//329 345//345 344//344
f 329//329 330//330 346//346 345//345
f 330//330 331//331 347//347 346//346
f 331//331 332//332 348//348 347//347
f 332//332 333//333 349//349 348//348
f 333//333 334//334 350//350 349//349
f 334//334 335//335 351//351 350//350
f 335//335 336//336 352//352 351//351
f 336//336 321//321 337//337 352//352
f 337//337 338//338 354//354 353//353
f 338//338 339//339 355//355 354//354
f 339//339 340//340 356//356 355//355
f 340//340 341//341 357//357 356//356
f 341//341 342//342 358//358 357//357
f 342//342 343//343 359//359 358//358
f 343//343 344//344 360//360 359//359
f 344//344 345//345 361//361 360//360
f 345//345 346//346 362//362 361//361
f 346//346 347//347 363//363 362//362
f 347//347 348//348 364//364 363//363
f 348//348 349//349 365//365 364//364
f 349//349 350//350 366//366 365//365
f 350//350 351//351 367//367 366//366
f 351//351 352//352 368//368 367//367
f 352//352 337//337 353//353 368//368
f 353//353 354//354 370//370 369//369
f 354//354 355//355 371//371 370//370
f 355//355 356//356 372//372 371//371
f 356//356 357//357 373//373 372//372
f 357//357 358//358 374//374 373//373
f 358//358 359//359 375//375 374//374
f 359//359 360//360 376//376 375//375
f 360//360 361//361 377//377 376//376
f 361//361 362//362 378//378 377//377
f 362//362 363//363 379//379 378//378
f 363//363 364//364 380//380 379//379
f 364//364 365//365 381//381 380//380
f 365//365 366//366 382//382 381//381
f 366//366 367//367 383//383 382//382
f 367//367 368//368 384//384 383//383
f 368//368 353//353 369//369 384//384
f 369//369 370//370 386//386 385//385
f 370//370 371//371 387//387 386//386
f 371//371 372//372 388//388 387//387
f 372//372 373//373 389//389 388//388
f 373//373 374//374 390//390 389//389
f 374//374 375//375 391//391 390//390
f 375//375 376//376 392//392 391//391
f 376//376 377//377 393//393 392//392
f 377//377 378//378 394//394 393//393
f 378//378 379//379 395//395 394//394
f 379//379 380//380 396//396 395//395
f 380//380 381//381 397//397 396//396
f 381//381 382//382 398//398 397//397
f 382//382 383//383 399//399 398//398
f 383//383 384//384 400//400 399//399
f 384//384 369//369 385//385 400//400
f 385//385 386//386 402//402 401//401
f 386//386 387//387 403//403 402//402
f 387//387 388//388 404//404 403//403
f 388//388 389//389 405//405 404//404
f 389//389 390//390 406//406 405//405
f 390//390 391//391 407//407 406//406
f 391//391 392//392 408//408 407//407
f 392//392 393//393 409//409 408//408
f 393//393 394//394 410//410 409//409
f 394//394 395//395 411//411 410//410
f 395//395 396//396 412//412 411//411
f 396//396 397//397 413//413 412//412
f 397//397 398//398 414//414 413//413
f 398//398 399//399 415//415 414//414
f 399//399 400//400 416//416 415//415
f 400//400 385//385 401//401 416//416
