# tube retopo
v 0.398106 0.216535 0.928774
v 0.484378 0.225904 0.961526
v 0.589761 0.216488 1.005646
v 0.607750 0.201624 1.015792
v 0.574139 0.195354 1.003549
v 0.540528 0.189084 0.991306
v 0.506916 0.182814 0.979062
v 0.473305 0.176544 0.966819
v 0.439694 0.170274 0.954576
v 0.406083 0.164003 0.942333
v 0.372472 0.157733 0.930090
v 0.338861 0.151463 0.917847
v 0.305250 0.145193 0.905603
v 0.271638 0.138923 0.893360
v 0.252731 0.142051 0.885161
v 0.321318 0.189636 0.903284
v 0.429916 0.232734 0.867696
v 0.529294 0.224036 0.874909
v 0.625878 0.181277 0.884617
v 0.703912 0.099797 0.896151
v 0.734118 -0.012695 0.906982
v 0.697948 -0.122958 0.913278
v 0.614852 -0.195191 0.913499
v 0.521104 -0.226888 0.909833
v 0.433457 -0.229090 0.904248
v 0.354143 -0.208356 0.897406
v 0.282144 -0.169152 0.889593
v 0.223639 -0.105167 0.880718
v 0.190600 -0.019432 0.871804
v 0.199789 0.076204 0.864887
v 0.253298 0.158168 0.861957
v 0.335232 0.210968 0.863187
v 0.417327 0.238153 0.809599
v 0.508957 0.222006 0.774592
v 0.587128 0.166589 0.743100
v 0.635795 0.080675 0.721486
v 0.646620 -0.018477 0.713551
v 0.619433 -0.112179 0.720090
v 0.561658 -0.185315 0.738907
v 0.485206 -0.228447 0.765904
v 0.402026 -0.238680 0.796710
v 0.322830 -0.217040 0.827267
v 0.256892 -0.167217 0.853951
v 0.212412 -0.094748 0.873469
v 0.196284 -0.008514 0.882889
v 0.211189 0.080079 0.880759
v 0.256940 0.158734 0.866667
v 0.328783 0.214919 0.841910
v 0.378410 0.244781 0.729350
v 0.467899 0.227592 0.687082
v 0.543445 0.171209 0.649177
v 0.590697 0.085114 0.622770
v 0.601959 -0.014543 0.612276
v 0.576595 -0.110305 0.618914
v 0.520591 -0.186879 0.640731
v 0.444471 -0.233635 0.673426
v 0.360503 -0.245766 0.711586
v 0.280323 -0.223533 0.749820
v 0.214192 -0.171018 0.783169
v 0.170459 -0.095241 0.807402
v 0.155850 -0.005792 0.818901
v 0.172267 0.085233 0.816146
v 0.218938 0.165365 0.798831
v 0.290887 0.222073 0.768592
v 0.340735 0.252128 0.643717
v 0.429650 0.232407 0.601164
v 0.503996 0.175298 0.563725
v 0.551528 0.090178 0.537563
v 0.564687 -0.008933 0.526863
v 0.541971 -0.105976 0.533062
v 0.487781 -0.185935 0.554786
v 0.411114 -0.237197 0.588353
v 0.323787 -0.252882 0.628541
v 0.238637 -0.231337 0.669414
v 0.167903 -0.176049 0.705079
v 0.121708 -0.095085 0.730424
v 0.106812 -0.000004 0.741754
v 0.126031 0.095366 0.737116
v 0.176666 0.176929 0.717130
v 0.251852 0.232232 0.684442
v 0.296868 0.259164 0.555586
v 0.386077 0.238273 0.510236
v 0.460969 0.180184 0.471427
v 0.509677 0.093971 0.445306
v 0.524611 -0.006702 0.435947
v 0.503722 -0.105999 0.444671
v 0.450665 -0.188623 0.469914
v 0.373954 -0.242242 0.507608
v 0.285443 -0.259208 0.551918
v 0.198369 -0.237436 0.596207
v 0.125527 -0.180404 0.633964
v 0.077588 -0.096562 0.659655
v 0.061695 0.001816 0.669456
v 0.080461 0.100232 0.661786
v 0.131467 0.183904 0.637595
v 0.207395 0.239891 0.600339
v 0.254805 0.265624 0.472921
v 0.345797 0.243829 0.426916
v 0.422093 0.184460 0.387736
v 0.471874 0.096703 0.361450
v 0.487519 -0.005811 0.352085
v 0.466799 -0.107251 0.360995
v 0.413116 -0.192147 0.386697
v 0.334823 -0.247756 0.425187
v 0.243847 -0.265875 0.470597
v 0.153878 -0.243928 0.516091
v 0.078398 -0.185262 0.554851
v 0.028745 -0.098650 0.581055
v 0.012466 0.002947 0.590725
v 0.032162 0.104236 0.582328
v 0.085031 0.189836 0.557044
v 0.163195 0.246589 0.518636
v 0.213288 0.262533 0.389127
v 0.302813 0.240877 0.344272
v 0.377950 0.182533 0.306279
v 0.427235 0.096414 0.280945
v 0.443171 -0.004321 0.272125
v 0.423376 -0.104301 0.281140
v 0.370920 -0.188329 0.306589
v 0.293808 -0.243680 0.344586
v 0.203742 -0.261989 0.389368
v 0.114360 -0.240465 0.434151
v 0.039239 -0.182326 0.472134
v -0.010164 -0.096368 0.497525
v -0.026284 0.004349 0.506437
v -0.006633 0.104458 0.497495
v 0.045799 0.188687 0.472060
v 0.123032 0.244203 0.434003
v 0.170739 0.244445 0.305253
v 0.254269 0.223691 0.264399
v 0.324229 0.169194 0.230182
v 0.370223 0.089284 0.207687
v 0.385448 -0.004042 0.200240
v 0.367630 -0.096842 0.208955
v 0.319353 -0.175217 0.232567
v 0.247731 -0.227309 0.267597
v 0.163441 -0.245058 0.308822
v 0.079230 -0.225481 0.350010
v 0.008042 -0.171281 0.384827
v -0.039010 -0.090612 0.407840
v -0.054501 0.004084 0.415416
v -0.036001 0.098061 0.406368
v 0.013504 0.176731 0.382155
v 0.086183 0.228064 0.346609
v 0.130982 0.226587 0.222272
v 0.208365 0.206126 0.185535
v 0.272492 0.155164 0.155091
v 0.314361 0.081650 0.135214
v 0.328255 -0.003677 0.128618
v 0.312241 -0.088653 0.136220
v 0.268200 -0.160885 0.157129
v 0.202379 -0.209601 0.188377
v 0.124203 -0.227260 0.225491
v 0.045153 -0.210432 0.263020
v -0.022556 -0.160809 0.295164
v -0.067743 -0.085400 0.316617
v -0.082523 0.003855 0.323634
v -0.064647 0.092300 0.315147
v -0.017232 0.165708 0.292637
v 0.051702 0.212695 0.259910
v 0.091218 0.209087 0.139146
v 0.161494 0.189598 0.103577
v 0.219309 0.142252 0.074314
v 0.256808 0.074670 0.055335
v 0.269222 -0.003369 0.049052
v 0.254969 -0.081119 0.056265
v 0.215436 -0.147528 0.076275
v 0.156045 -0.192844 0.106335
v 0.084992 -0.209749 0.142297
v 0.012765 -0.194653 0.178854
v -0.049250 -0.148929 0.210242
v -0.090638 -0.079122 0.231190
v -0.104190 0.003576 0.238049
v -0.087802 0.085538 0.229755
v -0.044333 0.153490 0.207754
v 0.018814 0.196742 0.175792
v 0.047379 0.192222 0.058161
v 0.112749 0.179521 0.022047
v 0.169716 0.138291 -0.009424
v 0.208472 0.073946 -0.030835
v 0.221174 -0.003335 -0.037853
v 0.205717 -0.079834 -0.029313
v 0.165251 -0.142481 -0.006958
v 0.107306 -0.181420 0.025054
v 0.041806 -0.191615 0.061240
v -0.021091 -0.172975 0.095988
v -0.072546 -0.129457 0.124415
v -0.105882 -0.067896 0.142831
v -0.116954 0.003051 0.148948
v -0.104309 0.073780 0.141962
v -0.069082 0.134244 0.122501
v -0.016221 0.175920 0.093297
v 0.002011 0.183951 -0.021909
v 0.066229 0.175976 -0.057215
v 0.124467 0.138147 -0.089234
v 0.165249 0.074792 -0.111655
v 0.179074 -0.003406 -0.119256
v 0.162456 -0.080771 -0.110120
v 0.119980 -0.142363 -0.086767
v 0.060844 -0.177848 -0.054254
v -0.003370 -0.183351 -0.018950
v -0.062012 -0.161313 0.013290
v -0.107592 -0.118037 0.038350
v -0.136013 -0.061002 0.053975
v -0.145496 0.002731 0.059189
v -0.134616 0.066256 0.053207
v -0.104449 0.122403 0.036622
v -0.057452 0.164089 0.010783
v -0.041481 0.180385 -0.103009
v 0.019731 0.167042 -0.135849
v 0.072111 0.127605 -0.163952
v 0.106909 0.067692 -0.182621
v 0.118372 -0.003052 -0.188771
v 0.104597 -0.073202 -0.181381
v 0.067963 -0.131480 -0.161726
v 0.014624 -0.168802 -0.133110
v -0.046747 -0.179797 -0.100184
v -0.106602 -0.163466 -0.068071
v -0.156113 -0.122951 -0.041508
v -0.188363 -0.064650 -0.024206
v -0.199028 0.002909 -0.018484
v -0.186670 0.070167 -0.025114
v -0.152818 0.127509 -0.043276
v -0.101980 0.166271 -0.070551
v -0.085391 0.174309 -0.183941
v -0.027818 0.157759 -0.215258
v 0.019414 0.118218 -0.240951
v 0.050009 0.062019 -0.257593
v 0.060135 -0.002785 -0.263102
v 0.048518 -0.067358 -0.256783
v 0.016274 -0.122579 -0.239243
v -0.032230 -0.160448 -0.212859
v -0.090439 -0.174879 -0.181195
v -0.149895 -0.162715 -0.148853
v -0.201236 -0.124816 -0.120925
v -0.235716 -0.066458 -0.102169
v -0.247012 0.002993 -0.096025
v -0.233336 0.071797 -0.103464
v -0.197200 0.128586 -0.123121
v -0.144966 0.164415 -0.151534
v -0.129692 0.168894 -0.264718
v -0.074792 0.152496 -0.296344
v -0.029937 0.114083 -0.322182
v -0.000942 0.059796 -0.338885
v 0.008660 -0.002688 -0.344417
v -0.002321 -0.064979 -0.338091
v -0.032953 -0.118332 -0.320445
v -0.079062 -0.155140 -0.293884
v -0.134589 -0.169462 -0.261897
v -0.191567 -0.158069 -0.229075
v -0.241022 -0.121549 -0.200586
v -0.274457 -0.064869 -0.181326
v -0.285391 0.002936 -0.175027
v -0.272096 0.070064 -0.182686
v -0.237114 0.125237 -0.202838
v -0.186789 0.159730 -0.231828
v -0.177421 0.164054 -0.343431
v -0.123498 0.149789 -0.374539
v -0.078524 0.113086 -0.400485
v -0.049052 0.059608 -0.417487
v -0.039316 -0.002678 -0.423104
v -0.050720 -0.064614 -0.416525
v -0.081660 -0.117068 -0.398676
v -0.127705 -0.152170 -0.372113
v -0.182121 -0.164432 -0.340720
v -0.236739 -0.151651 -0.309210
v -0.283113 -0.115430 -0.282457
v -0.313871 -0.061150 -0.264713
v -0.324024 0.002754 -0.258855
v -0.311925 0.066173 -0.265835
v -0.279584 0.119109 -0.284493
v -0.232254 0.153408 -0.311798
v -0.221764 0.158839 -0.423987
v -0.168595 0.145504 -0.452821
v -0.124001 0.110129 -0.477005
v -0.094675 0.058130 -0.492909
v -0.084995 -0.002627 -0.498159
v -0.096405 -0.063004 -0.491971
v -0.127216 -0.113909 -0.475261
v -0.172832 -0.147623 -0.450523
v -0.226397 -0.158962 -0.421475
v -0.279784 -0.146091 -0.392522
v -0.324821 -0.110868 -0.368098
v -0.354555 -0.058621 -0.351973
v -0.364369 0.002642 -0.346651
v -0.352740 0.063483 -0.352958
v -0.321485 0.114539 -0.369907
v -0.275462 0.148004 -0.394866
v -0.265287 0.152920 -0.505093
v -0.213929 0.140172 -0.532613
v -0.170806 0.106151 -0.555722
v -0.142424 0.056055 -0.570930
v -0.133053 -0.002521 -0.575952
v -0.144102 -0.060726 -0.570031
v -0.173919 -0.109756 -0.554053
v -0.218020 -0.142168 -0.530421
v -0.269744 -0.152993 -0.502705
v -0.321234 -0.140520 -0.475113
v -0.364622 -0.106587 -0.451864
v -0.393246 -0.056341 -0.436525
v -0.402695 0.002535 -0.431462
v -0.391513 0.061014 -0.437454
v -0.361432 0.110133 -0.453573
v -0.317089 0.142395 -0.477335
v -0.308929 0.144913 -0.586148
v -0.260182 0.132951 -0.612191
v -0.219187 0.100755 -0.634093
v -0.192178 0.053230 -0.648523
v -0.183261 -0.002393 -0.653287
v -0.193792 -0.057652 -0.647661
v -0.222170 -0.104142 -0.632499
v -0.264082 -0.134786 -0.610108
v -0.313151 -0.144917 -0.583892
v -0.361910 -0.132985 -0.557842
v -0.402933 -0.100800 -0.535924
v -0.429969 -0.053260 -0.521480
v -0.438895 0.002394 -0.516711
v -0.428351 0.057684 -0.522345
v -0.399945 0.104184 -0.537521
v -0.358007 0.134813 -0.559927
v -0.352261 0.136875 -0.667333
v -0.305830 0.125644 -0.691256
v -0.266741 0.095262 -0.711397
v -0.240967 0.050341 -0.724676
v -0.232457 -0.002270 -0.729061
v -0.242514 -0.054533 -0.723880
v -0.269596 -0.098467 -0.709926
v -0.309556 -0.127374 -0.689337
v -0.356289 -0.136870 -0.665257
v -0.402676 -0.125532 -0.641357
v -0.441667 -0.095109 -0.621267
v -0.467345 -0.050238 -0.608036
v -0.475819 0.002262 -0.603670
v -0.465806 0.054418 -0.608829
v -0.438823 0.098311 -0.622732
v -0.398958 0.127269 -0.643272
v -0.393243 0.128658 -0.749089
v -0.346858 0.118105 -0.765197
v -0.307567 0.089799 -0.778842
v -0.281379 0.047617 -0.787936
v -0.272645 -0.002129 -0.790970
v -0.282886 -0.051557 -0.787413
v -0.310316 -0.092875 -0.777887
v -0.350448 -0.119959 -0.763951
v -0.397226 -0.129012 -0.747706
v -0.443881 -0.118794 -0.731504
v -0.483662 -0.090589 -0.717689
v -0.510255 -0.048112 -0.708454
v -0.519017 0.002150 -0.705412
v -0.508454 0.051972 -0.709080
v -0.480544 0.093323 -0.718772
v -0.440058 0.120063 -0.732832
v -0.412245 0.117191 -0.838894
v -0.371577 0.100328 -0.847405
v -0.341301 0.071994 -0.853742
v -0.323028 0.036776 -0.857566
v -0.316695 -0.001615 -0.858891
v -0.324033 -0.039941 -0.857356
v -0.343500 -0.074537 -0.853281
v -0.374538 -0.102299 -0.846785
v -0.416009 -0.118231 -0.838106
v -0.464314 -0.118233 -0.827996
v -0.512585 -0.097329 -0.817893
v -0.549366 -0.054514 -0.810195
v -0.563051 0.002480 -0.807331
v -0.547070 0.058811 -0.810676
v -0.508886 0.100015 -0.818667
v -0.460043 0.118733 -0.828890
v -0.431488 0.101022 -0.928921
v -0.400218 0.077684 -0.935465
v -0.381515 0.051063 -0.939380
v -0.371671 0.024741 -0.941440
v -0.368831 -0.001069 -0.942034
v -0.372384 -0.027005 -0.941291
v -0.382722 -0.053236 -0.939127
v -0.402231 -0.080038 -0.935044
v -0.434818 -0.102705 -0.928224
v -0.481384 -0.114175 -0.918478
v -0.536883 -0.102640 -0.906862
v -0.584349 -0.061124 -0.896928
v -0.602259 0.002809 -0.893180
v -0.581163 0.065600 -0.897595
v -0.532472 0.105039 -0.907785
v -0.477143 0.113838 -0.919365
v -0.450843 0.075235 -1.018924
v -0.431621 0.048108 -1.022947
v -0.423910 0.028010 -1.024561
v -0.420965 0.012490 -1.025177
v -0.419744 -0.000534 -1.025433
v -0.421111 -0.013918 -1.025147
v -0.424310 -0.029279 -1.024477
v -0.432701 -0.050050 -1.022721
v -0.453050 -0.077815 -1.018462
v -0.495502 -0.102875 -1.009577
v -0.558295 -0.105193 -0.996435
v -0.617768 -0.066842 -0.983988
v -0.641466 0.003154 -0.979028
v -0.613820 0.071668 -0.984814
v -0.552859 0.106627 -0.997573
v -0.491133 0.101652 -1.010492
f 1 2 18 17
f 2 3 19 18
f 3 4 20 19
f 4 5 21 20
f 5 6 22 21
f 6 7 23 22
f 7 8 24 23
f 8 9 25 24
f 9 10 26 25
f 10 11 27 26
f 11 12 28 27
f 12 13 29 28
f 13 14 30 29
f 14 15 31 30
f 15 16 32 31
f 16 1 17 32
f 17 18 34 33
f 18 19 35 34
f 19 20 36 35
f 20 21 37 36
f 21 22 38 37
f 22 23 39 38
f 23 24 40 39
f 24 25 41 40
f 25 26 42 41
f 26 27 43 42
f 27 28 44 43
f 28 29 45 44
f 29 30 46 45
f 30 31 47 46
f 31 32 48 47
f 32 17 33 48
f 33 34 50 49
f 34 35 51 50
f 35 36 52 51
f 36 37 53 52
f 37 38 54 53
f 38 39 55 54
f 39 40 56 55
f 40 41 57 56
f 41 42 58 57
f 42 43 59 58
f 43 44 60 59
f 44 45 61 60
f 45 46 62 61
f 46 47 63 62
f 47 48 64 63
f 48 33 49 64
f 49 50 66 65
f 50 51 67 66
f 51 52 68 67
f 52 53 69 68
f 53 54 70 69
f 54 55 71 70
f 55 56 72 71
f 56 57 73 72
f 57 58 74 73
f 58 59 75 74
f 59 60 76 75
f 60 61 77 76
f 61 62 78 77
f 62 63 79 78
f 63 64 80 79
f 64 49 65 80
f 65 66 82 81
f 66 67 83 82
f 67 68 84 83
f 68 69 85 84
f 69 70 86 85
f 70 71 87 86
f 71 72 88 87
f 72 73 89 88
f 73 74 90 89
f 74 75 91 90
f 75 76 92 91
f 76 77 93 92
f 77 78 94 93
f 78 79 95 94
f 79 80 96 95
f 80 65 81 96
f 81 82 98 97
f 82 83 99 98
f 83 84 100 99
f 84 85 101 100
f 85 86 102 101
f 86 87 103 102
f 87 88 104 103
f 88 89 105 104
f 89 90 106 105
f 90 91 107 106
f 91 92 108 107
f 92 93 109 108
f 93 94 110 109
f 94 95 111 110
f 95 96 112 111
f 96 81 97 112
f 97 98 114 113
f 98 99 115 114
f 99 100 116 115
f 100 101 117 116
f 101 102 118 117
f 102 103 119 118
f 103 104 120 119
f 104 105 121 120
f 105 106 122 121
f 106 107 123 122
f 107 108 124 123
f 108 109 125 124
f 109 110 126 125
f 110 111 127 126
f 111 112 128 127
f 112 97 113 128
f 113 114 130 129
f 114 115 131 130
f 115 116 132 131
f 116 117 133 132
f 117 118 134 133
f 118 119 135 134
f 119 120 136 135
f 120 121 137 136
f 121 122 138 137
f 122 123 139 138
f 123 124 140 139
f 124 125 141 140
f 125 126 142 141
f 126 127 143 142
f 127 128 144 143
f 128 113 129 144
f 129 130 146 145
f 130 131 147 146
f 131 132 148 147
f 132 133 149 148
f 133 134 150 149
f 134 135 151 150
f 135 136 152 151
f 136 137 153 152
f 137 138 154 153
f 138 139 155 154
f 139 140 156 155
f 140 141 157 156
f 141 142 158 157
f 142 143 159 158
f 143 144 160 159
f 144 129 145 160
f 145 146 162 161
f 146 147 163 162
f 147 148 164 163
f 148 149 165 164
f 149 150 166 165
f 150 151 167 166
f 151 152 168 167
f 152 153 169 168
f 153 154 170 169
f 154 155 171 170
f 155 156 172 171
f 156 157 173 172
f 157 158 174 173
f 158 159 175 174
f 159 160 176 175
f 160 145 161 176
f 161 162 178 177
f 162 163 179 178
f 163 164 180 179
f 164 165 181 180
f 165 166 182 181
f 166 167 183 182
f 167 168 184 183
f 168 169 185 184
f 169 170 186 185
f 170 171 187 186
f 171 172 188 187
f 172 173 189 188
f 173 174 190 189
f 174 175 191 190
f 175 176 192 191
f 176 161 177 192
f 177 178 194 193
f 178 179 195 194
f 179 180 196 195
f 180 181 197 196
f 181 182 198 197
f 182 183 199 198
f 183 184 200 199
f 184 185 201 200
f 185 186 202 201
f 186 187 203 202
f 187 188 204 203
f 188 189 205 204
f 189 190 206 205
f 190 191 207 206
f 191 192 208 207
f 192 177 193 208
f 193 194 210 209
f 194 195 211 210
f 195 196 212 211
f 196 197 213 212
f 197 198 214 213
f 198 199 215 214
f 199 200 216 215
f 200 201 217 216
f 201 202 218 217
f 202 203 219 218
f 203 204 220 219
f 204 205 221 220
f 205 206 222 221
f 206 207 223 222
f 207 208 224 223
f 208 193 209 224
f 209 210 226 225
f 210 211 227 226
f 211 212 228 227
f 212 213 229 228
f 213 214 230 229
f 214 215 231 230
f 215 216 232 231
f 216 217 233 232
f 217 218 234 233
f 218 219 235 234
f 219 220 236 235
f 220 221 237 236
f 221 222 238 237
f 222 223 239 238
f 223 224 240 239
f 224 209 225 240
f 225 226 242 241
f 226 227 243 242
f 227 228 244 243
f 228 229 245 244
f 229 230 246 245
f 230 231 247 246
f 231 232 248 247
f 232 233 249 248
f 233 234 250 249
f 234 235 251 250
f 235 236 252 251
f 236 237 253 252
f 237 238 254 253
f 238 239 255 254
f 239 240 256 255
f 240 225 241 256
f 241 242 258 257
f 242 243 259 258
f 243 244 260 259
f 244 245 261 260
f 245 246 262 261
f 246 247 263 262
f 247 248 264 263
f 248 249 265 264
f 249 250 266 265
f 250 251 267 266
f 251 252 268 267
f 252 253 269 268
f 253 254 270 269
f 254 255 271 270
f 255 256 272 271
f 256 241 257 272
f 257 258 274 273
f 258 259 275 274
f 259 260 276 275
f 260 261 277 276
f 261 262 278 277
f 262 263 279 278
f 263 264 280 279
f 264 265 281 280
f 265 266 282 281
f 266 267 283 282
f 267 268 284 283
f 268 269 285 284
f 269 270 286 285
f 270 271 287 286
f 271 272 288 287
f 272 257 273 288
f 273 274 290 289
f 274 275 291 290
f 275 276 292 291
f 276 277 293 292
f 277 278 294 293
f 278 279 295 294
f 279 280 296 295
f 280 281 297 296
f 281 282 298 297
f 282 283 299 298
f 283 284 300 299
f 284 285 301 300
f 285 286 302 301
f 286 287 303 302
f 287 288 304 303
f 288 273 289 304
f 289 290 306 305
f 290 291 307 306
f 291 292 308 307
f 292 293 309 308
f 293 294 310 309
f 294 295 311 310
f 295 296 312 311
f 296 297 313 312
f 297 298 314 313
f 298 299 315 314
f 299 300 316 315
f 300 301 317 316
f 301 302 318 317
f 302 303 319 318
f 303 304 320 319
f 304 289 305 320
f 305 306 322 321
f 306 307 323 322
f 307 308 324 323
f 308 309 325 324
f 309 310 326 325
f 310 311 327 326
f 311 312 328 327
f 312 313 329 328
f 313 314 330 329
f 314 315 331 330
f 315 316 332 331
f 316 317 333 332
f 317 318 334 333
f 318 319 335 334
f 319 320 336 335
f 320 305 321 336
f 321 322 338 337
f 322 323 339 338
f 323 324 340 339
f 324 325 341 340
f 325 326 342 341
f 326 327 343 342
f 327 328 344 343
f 328 329 345 344
f 329 330 346 345
f 330 331 347 346
f 331 332 348 347
f 332 333 349 348
f 333 334 350 349
f 334 335 351 350
f 335 336 352 351
f 336 321 337 352
f 337 338 354 353
f 338 339 355 354
f 339 340 356 355
f 340 341 357 356
f 341 342 358 357
f 342 343 359 358
f 343 344 360 359
f 344 345 361 360
f 345 346 362 361
f 346 347 363 362
f 347 348 364 363
f 348 349 365 364
f 349 350 366 365
f 350 351 367 366
f 351 352 368 367
f 352 337 353 368
f 353 354 370 369
f 354 355 371 370
f 355 356 372 371
f 356 357 373 372
f 357 358 374 373
f 358 359 375 374
f 359 360 376 375
f 360 361 377 376
f 361 362 378 377
f 362 363 379 378
f 363 364 380 379
f 364 365 381 380
f 365 366 382 381
f 366 367 383 382
f 367 368 384 383
f 368 353 369 384
f 369 370 386 385
f 370 371 387 386
f 371 372 388 387
f 372 373 389 388
f 373 374 390 389
f 374 375 391 390
f 375 376 392 391
f 376 377 393 392
f 377 378 394 393
f 378 379 395 394
f 379 380 396 395
f 380 381 397 396
f 381 382 398 397
f 382 383 399 398
f 383 384 400 399
f 384 369 385 400
