# elbow demo mesh
v 0.105000 1.199946 -0.000054
v 0.099861 1.199947 0.032391
v 0.084947 1.199948 0.061660
v 0.061717 1.199949 0.084888
v 0.032447 1.199950 0.099802
v 0.000000 1.199950 0.104941
v -0.032447 1.199950 0.099802
v -0.061717 1.199949 0.084888
v -0.084947 1.199948 0.061660
v -0.099861 1.199947 0.032391
v -0.105000 1.199946 -0.000054
v -0.099861 1.199944 -0.032500
v -0.084947 1.199943 -0.061769
v -0.061717 1.199942 -0.084997
v -0.032447 1.199941 -0.099911
v -0.000000 1.199941 -0.105050
v 0.032447 1.199941 -0.099911
v 0.061717 1.199942 -0.084997
v 0.084947 1.199943 -0.061769
v 0.099861 1.199944 -0.032500
v 0.108512 1.141379 -0.000084
v 0.103201 1.141381 0.033445
v 0.087788 1.141384 0.063693
v 0.063782 1.141386 0.087697
v 0.033532 1.141387 0.103109
v 0.000000 1.141387 0.108420
v -0.033532 1.141387 0.103109
v -0.063782 1.141386 0.087697
v -0.087788 1.141384 0.063693
v -0.103201 1.141381 0.033445
v -0.108512 1.141379 -0.000084
v -0.103201 1.141377 -0.033614
v -0.087788 1.141374 -0.063862
v -0.063782 1.141373 -0.087866
v -0.033532 1.141371 -0.103278
v -0.000000 1.141371 -0.108589
v 0.033532 1.141371 -0.103278
v 0.063782 1.141373 -0.087866
v 0.087788 1.141374 -0.063862
v 0.103201 1.141377 -0.033614
v 0.112024 1.082796 -0.000130
v 0.106542 1.082801 0.034483
v 0.090630 1.082804 0.065708
v 0.065846 1.082807 0.090488
v 0.034617 1.082809 0.106398
v 0.000000 1.082810 0.111880
v -0.034617 1.082809 0.106398
v -0.065846 1.082807 0.090488
v -0.090630 1.082804 0.065708
v -0.106542 1.082801 0.034483
v -0.112024 1.082796 -0.000130
v -0.106542 1.082792 -0.034744
v -0.090630 1.082788 -0.065969
v -0.065846 1.082786 -0.090749
v -0.034617 1.082784 -0.106659
v -0.000000 1.082783 -0.112141
v 0.034617 1.082784 -0.106659
v 0.065846 1.082786 -0.090749
v 0.090630 1.082788 -0.065969
v 0.106542 1.082792 -0.034744
v 0.115537 1.024189 -0.000201
v 0.109882 1.024196 0.035495
v 0.093471 1.024203 0.067696
v 0.067911 1.024208 0.093252
v 0.035703 1.024211 0.109659
v 0.000000 1.024212 0.115313
v -0.035703 1.024211 0.109659
v -0.067911 1.024208 0.093252
v -0.093471 1.024203 0.067696
v -0.109882 1.024196 0.035495
v -0.115537 1.024189 -0.000201
v -0.109882 1.024182 -0.035897
v -0.093471 1.024176 -0.068098
v -0.067911 1.024171 -0.093654
v -0.035703 1.024168 -0.110061
v -0.000000 1.024167 -0.115715
v 0.035703 1.024168 -0.110061
v 0.067911 1.024171 -0.093654
v 0.093471 1.024176 -0.068098
v 0.109882 1.024182 -0.035897
v 0.119049 0.965545 -0.000308
v 0.113222 0.965557 0.036468
v 0.096312 0.965568 0.069644
v 0.069975 0.965576 0.095973
v 0.036788 0.965581 0.112877
v 0.000000 0.965583 0.118702
v -0.036788 0.965581 0.112877
v -0.069975 0.965576 0.095973
v -0.096312 0.965568 0.069644
v -0.113222 0.965557 0.036468
v -0.119049 0.965545 -0.000308
v -0.113222 0.965533 -0.037085
v -0.096312 0.965523 -0.070261
v -0.069975 0.965514 -0.096590
v -0.036788 0.965509 -0.113494
v -0.000000 0.965507 -0.119319
v 0.036788 0.965509 -0.113494
v 0.069975 0.965514 -0.096590
v 0.096312 0.965523 -0.070261
v 0.113222 0.965533 -0.037085
v 0.123735 0.906845 -0.000472
v 0.117679 0.906865 0.037744
v 0.100104 0.906883 0.072220
v 0.072729 0.906897 0.099580
v 0.038236 0.906906 0.117146
v 0.000000 0.906910 0.123199
v -0.038236 0.906906 0.117146
v -0.072729 0.906897 0.099580
v -0.100104 0.906883 0.072220
v -0.117679 0.906865 0.037744
v -0.123735 0.906845 -0.000472
v -0.117679 0.906825 -0.038688
v -0.100104 0.906807 -0.073164
v -0.072729 0.906793 -0.100523
v -0.038236 0.906784 -0.118089
v -0.000000 0.906781 -0.124142
v 0.038236 0.906784 -0.118089
v 0.072729 0.906793 -0.100523
v 0.100104 0.906807 -0.073164
v 0.117679 0.906825 -0.038688
v 0.128857 0.848062 -0.000719
v 0.122550 0.848095 0.039066
v 0.104247 0.848126 0.074957
v 0.075740 0.848150 0.103440
v 0.039819 0.848165 0.121727
v 0.000000 0.848171 0.128029
v -0.039819 0.848165 0.121727
v -0.075740 0.848150 0.103440
v -0.104247 0.848126 0.074957
v -0.122550 0.848095 0.039066
v -0.128857 0.848062 -0.000719
v -0.122550 0.848028 -0.040504
v -0.104247 0.847998 -0.076395
v -0.075740 0.847973 -0.104878
v -0.039819 0.847958 -0.123165
v -0.000000 0.847953 -0.129466
v 0.039819 0.847958 -0.123165
v 0.075740 0.847973 -0.104878
v 0.104247 0.847998 -0.076395
v 0.122550 0.848028 -0.040504
v 0.133979 0.789155 -0.001089
v 0.127421 0.789212 0.040255
v 0.108391 0.789263 0.077553
v 0.078751 0.789304 0.107152
v 0.041402 0.789330 0.126156
v 0.000000 0.789339 0.132705
v -0.041402 0.789330 0.126156
v -0.078751 0.789304 0.107152
v -0.108391 0.789263 0.077553
v -0.127421 0.789212 0.040255
v -0.133979 0.789155 -0.001089
v -0.127421 0.789097 -0.042434
v -0.108391 0.789046 -0.079731
v -0.078751 0.789005 -0.109331
v -0.041402 0.788979 -0.128335
v -0.000000 0.788970 -0.134883
v 0.041402 0.788979 -0.128335
v 0.078751 0.789005 -0.109331
v 0.108391 0.789046 -0.079731
v 0.127421 0.789097 -0.042434
v 0.139101 0.730066 -0.001641
v 0.132293 0.730162 0.041247
v 0.112535 0.730249 0.079936
v 0.081761 0.730318 0.110641
v 0.042984 0.730363 0.130354
v 0.000000 0.730378 0.137147
v -0.042984 0.730363 0.130354
v -0.081761 0.730318 0.110641
v -0.112535 0.730249 0.079936
v -0.132293 0.730162 0.041247
v -0.139101 0.730066 -0.001641
v -0.132293 0.729969 -0.044529
v -0.112535 0.729882 -0.083219
v -0.081761 0.729813 -0.113924
v -0.042984 0.729769 -0.133637
v -0.000000 0.729754 -0.140430
v 0.042984 0.729769 -0.133637
v 0.081761 0.729813 -0.113924
v 0.112535 0.729882 -0.083219
v 0.132293 0.729969 -0.044529
v 0.144223 0.670715 -0.002456
v 0.137164 0.670877 0.041948
v 0.116679 0.671024 0.082006
v 0.084772 0.671140 0.113797
v 0.044567 0.671215 0.134207
v 0.000000 0.671241 0.141240
v -0.044567 0.671215 0.134207
v -0.084772 0.671140 0.113797
v -0.116679 0.671024 0.082006
v -0.137164 0.670877 0.041948
v -0.144223 0.670715 -0.002456
v -0.137164 0.670552 -0.046861
v -0.116679 0.670405 -0.086919
v -0.084772 0.670289 -0.118709
v -0.044567 0.670214 -0.139119
v -0.000000 0.670188 -0.146152
v 0.044567 0.670214 -0.139119
v 0.084772 0.670289 -0.118709
v 0.116679 0.670405 -0.086919
v 0.137164 0.670552 -0.046861
v 0.149345 0.610990 -0.003644
v 0.142035 0.611264 0.042232
v 0.120822 0.611510 0.083618
v 0.087783 0.611706 0.116462
v 0.046150 0.611832 0.137549
v 0.000000 0.611875 0.144815
v -0.046150 0.611832 0.137549
v -0.087783 0.611706 0.116462
v -0.120822 0.611510 0.083618
v -0.142035 0.611264 0.042232
v -0.149345 0.610990 -0.003644
v -0.142035 0.610716 -0.049521
v -0.120822 0.610470 -0.090906
v -0.087783 0.610274 -0.123750
v -0.046150 0.610148 -0.144837
v -0.000000 0.610105 -0.152103
v 0.046150 0.610148 -0.144837
v 0.087783 0.610274 -0.123750
v 0.120822 0.610470 -0.090906
v 0.142035 0.610716 -0.049521
v 0.154466 0.550747 -0.005350
v 0.146906 0.551207 0.041923
v 0.124966 0.551621 0.084569
v 0.090793 0.551950 0.118414
v 0.047733 0.552161 0.140143
v 0.000000 0.552233 0.147630
v -0.047733 0.552161 0.140143
v -0.090793 0.551950 0.118414
v -0.124966 0.551621 0.084569
v -0.146906 0.551207 0.041923
v -0.154466 0.550747 -0.005350
v -0.146906 0.550288 -0.052624
v -0.124966 0.549874 -0.095270
v -0.090793 0.549545 -0.129114
v -0.047733 0.549334 -0.150843
v -0.000000 0.549261 -0.158331
v 0.047733 0.549334 -0.150843
v 0.090793 0.549545 -0.129114
v 0.124966 0.549874 -0.095270
v 0.146906 0.550288 -0.052624
v 0.158049 0.489811 -0.007750
v 0.150313 0.490572 0.040329
v 0.127864 0.491258 0.083702
v 0.092899 0.491803 0.118123
v 0.048840 0.492152 0.140222
v 0.000000 0.492273 0.147837
v -0.048840 0.492152 0.140222
v -0.092899 0.491803 0.118123
v -0.127864 0.491258 0.083702
v -0.150313 0.490572 0.040329
v -0.158049 0.489811 -0.007750
v -0.150313 0.489050 -0.055829
v -0.127864 0.488364 -0.099202
v -0.092899 0.487820 -0.133622
v -0.048840 0.487470 -0.155722
v -0.000000 0.487349 -0.163337
v 0.048840 0.487470 -0.155722
v 0.092899 0.487820 -0.133622
v 0.127864 0.488364 -0.099202
v 0.150313 0.489050 -0.055829
v 0.161452 0.427995 -0.011030
v 0.153550 0.429248 0.037609
v 0.130617 0.430379 0.081486
v 0.094899 0.431276 0.116306
v 0.049891 0.431852 0.138663
v 0.000000 0.432051 0.146366
v -0.049891 0.431852 0.138663
v -0.094899 0.431276 0.116306
v -0.130617 0.430379 0.081486
v -0.153550 0.429248 0.037609
v -0.161452 0.427995 -0.011030
v -0.153550 0.426741 -0.059668
v -0.130617 0.425611 -0.103545
v -0.094899 0.424713 -0.138366
v -0.049891 0.424137 -0.160722
v -0.000000 0.423939 -0.168425
v 0.049891 0.424137 -0.160722
v 0.094899 0.424713 -0.138366
v 0.130617 0.425611 -0.103545
v 0.153550 0.426741 -0.059668
v 0.164855 0.365161 -0.015327
v 0.156787 0.367213 0.033564
v 0.133371 0.369064 0.077669
v 0.096900 0.370533 0.112671
v 0.050943 0.371477 0.135144
v 0.000000 0.371802 0.142888
v -0.050943 0.371477 0.135144
v -0.096900 0.370533 0.112671
v -0.133371 0.369064 0.077669
v -0.156787 0.367213 0.033564
v -0.164855 0.365161 -0.015327
v -0.156787 0.363109 -0.064218
v -0.133371 0.361258 -0.108323
v -0.096900 0.359788 -0.143325
v -0.050943 0.358845 -0.165798
v -0.000000 0.358520 -0.173541
v 0.050943 0.358845 -0.165798
v 0.096900 0.359788 -0.143325
v 0.133371 0.361258 -0.108323
v 0.156787 0.363109 -0.064218
v 0.168259 0.301350 -0.020601
v 0.160023 0.304677 0.028067
v 0.136124 0.307679 0.071970
v 0.098900 0.310060 0.106813
v 0.051995 0.311590 0.129183
v 0.000000 0.312117 0.136891
v -0.051995 0.311590 0.129183
v -0.098900 0.310060 0.106813
v -0.136124 0.307679 0.071970
v -0.160023 0.304677 0.028067
v -0.168259 0.301350 -0.020601
v -0.160023 0.298023 -0.069269
v -0.136124 0.295022 -0.113173
v -0.098900 0.292640 -0.148015
v -0.051995 0.291110 -0.170385
v -0.000000 0.290583 -0.178093
v 0.051995 0.291110 -0.170385
v 0.098900 0.292640 -0.148015
v 0.136124 0.295022 -0.113173
v 0.160023 0.298023 -0.069269
v 0.171662 0.237023 -0.026391
v 0.163260 0.242338 0.021340
v 0.138877 0.247132 0.064400
v 0.100900 0.250937 0.098572
v 0.053046 0.253380 0.120512
v 0.000000 0.254222 0.128072
v -0.053046 0.253380 0.120512
v -0.100900 0.250937 0.098572
v -0.138877 0.247132 0.064400
v -0.163260 0.242338 0.021340
v -0.171662 0.237023 -0.026391
v -0.163260 0.231709 -0.074123
v -0.138877 0.226914 -0.117183
v -0.100900 0.223109 -0.151355
v -0.053046 0.220666 -0.173295
v -0.000000 0.219825 -0.180855
v 0.053046 0.220666 -0.173295
v 0.100900 0.223109 -0.151355
v 0.138877 0.226914 -0.117183
v 0.163260 0.231709 -0.074123
v 0.175065 0.173427 -0.031451
v 0.166497 0.181732 0.014342
v 0.141631 0.189223 0.055653
v 0.102901 0.195169 0.088437
v 0.054098 0.198986 0.109486
v 0.000000 0.200301 0.116739
v -0.054098 0.198986 0.109486
v -0.102901 0.195169 0.088437
v -0.141631 0.189223 0.055653
v -0.166497 0.181732 0.014342
v -0.175065 0.173427 -0.031451
v -0.166497 0.165122 -0.077245
v -0.141631 0.157630 -0.118556
v -0.102901 0.151685 -0.151340
v -0.054098 0.147868 -0.172389
v -0.000000 0.146552 -0.179642
v 0.054098 0.147868 -0.172389
v 0.102901 0.151685 -0.151340
v 0.141631 0.157630 -0.118556
v 0.166497 0.165122 -0.077245
v 0.178469 0.112972 -0.033369
v 0.169734 0.125548 0.009205
v 0.144384 0.136892 0.047612
v 0.104901 0.145895 0.078092
v 0.055150 0.151675 0.097661
v 0.000000 0.153667 0.104405
v -0.055150 0.151675 0.097661
v -0.104901 0.145895 0.078092
v -0.144384 0.136892 0.047612
v -0.169734 0.125548 0.009205
v -0.178469 0.112972 -0.033369
v -0.169734 0.100397 -0.075944
v -0.144384 0.089053 -0.114350
v -0.104901 0.080050 -0.144830
v -0.055150 0.074269 -0.164400
v -0.000000 0.072278 -0.171143
v 0.055150 0.074269 -0.164400
v 0.104901 0.080050 -0.144830
v 0.144384 0.089053 -0.114350
v 0.169734 0.100397 -0.075944
v 0.181789 0.059284 -0.028521
v 0.172891 0.077531 0.009408
v 0.147070 0.093992 0.043624
v 0.106853 0.107055 0.070778
v 0.056176 0.115443 0.088212
v 0.000000 0.118333 0.094219
v -0.056176 0.115443 0.088212
v -0.106853 0.107055 0.070778
v -0.147070 0.093992 0.043624
v -0.172891 0.077531 0.009408
v -0.181789 0.059284 -0.028521
v -0.172891 0.041037 -0.066450
v -0.147070 0.024576 -0.100666
v -0.106853 0.011513 -0.127820
v -0.056176 0.003126 -0.145253
v -0.000000 0.000235 -0.151261
v 0.056176 0.003126 -0.145253
v 0.106853 0.011513 -0.127820
v 0.147070 0.024576 -0.100666
v 0.172891 0.041037 -0.066450
v 0.185041 0.016410 -0.012858
v 0.175984 0.041531 0.019202
v 0.149701 0.064193 0.048123
v 0.108764 0.082177 0.071075
v 0.057181 0.093724 0.085812
v 0.000000 0.097703 0.090889
v -0.057181 0.093724 0.085812
v -0.108764 0.082177 0.071075
v -0.149701 0.064193 0.048123
v -0.175984 0.041531 0.019202
v -0.185041 0.016410 -0.012858
v -0.175984 -0.008711 -0.044918
v -0.149701 -0.031373 -0.073840
v -0.108764 -0.049357 -0.096792
v -0.057181 -0.060904 -0.111528
v -0.000000 -0.064883 -0.116606
v 0.057181 -0.060904 -0.111528
v 0.108764 -0.049357 -0.096792
v 0.149701 -0.031373 -0.073840
v 0.175984 -0.008711 -0.044918
v 0.188293 -0.012858 0.016410
v 0.179077 0.019765 0.041972
v 0.152332 0.049195 0.065033
v 0.110676 0.072550 0.083333
v 0.058186 0.087546 0.095083
v 0.000000 0.092713 0.099132
v -0.058186 0.087546 0.095083
v -0.110676 0.072550 0.083333
v -0.152332 0.049195 0.065033
v -0.179077 0.019765 0.041972
v -0.188293 -0.012858 0.016410
v -0.179077 -0.045482 -0.009152
v -0.152332 -0.074911 -0.032213
v -0.110676 -0.098267 -0.050513
v -0.058186 -0.113262 -0.062263
v -0.000000 -0.118429 -0.066312
v 0.058186 -0.113262 -0.062263
v 0.110676 -0.098267 -0.050513
v 0.152332 -0.074911 -0.032213
v 0.179077 -0.045482 -0.009152
v 0.195296 -0.028521 0.059284
v 0.185738 0.012226 0.078887
v 0.157998 0.048985 0.096571
v 0.114792 0.078156 0.110605
v 0.060350 0.096886 0.119615
v 0.000000 0.103339 0.122720
v -0.060350 0.096886 0.119615
v -0.114792 0.078156 0.110605
v -0.157998 0.048985 0.096571
v -0.185738 0.012226 0.078887
v -0.195296 -0.028521 0.059284
v -0.185738 -0.069268 0.039681
v -0.157998 -0.106026 0.021997
v -0.114792 -0.135198 0.007963
v -0.060350 -0.153927 -0.001047
v -0.000000 -0.160381 -0.004152
v 0.060350 -0.153927 -0.001047
v 0.114792 -0.135198 0.007963
v 0.157998 -0.106026 0.021997
v 0.185738 -0.069268 0.039681
v 0.206446 -0.033369 0.112972
v 0.196342 0.015879 0.127519
v 0.167018 0.060307 0.140642
v 0.121346 0.095565 0.151056
v 0.063795 0.118202 0.157743
v 0.000000 0.126003 0.160047
v -0.063795 0.118202 0.157743
v -0.121346 0.095565 0.151056
v -0.167018 0.060307 0.140642
v -0.196342 0.015879 0.127519
v -0.206446 -0.033369 0.112972
v -0.196342 -0.082618 0.098426
v -0.167018 -0.127045 0.085303
v -0.121346 -0.162304 0.074888
v -0.063795 -0.184941 0.068202
v -0.000000 -0.192741 0.065898
v 0.063795 -0.184941 0.068202
v 0.121346 -0.162304 0.074888
v 0.167018 -0.127045 0.085303
v 0.196342 -0.082618 0.098426
v 0.217596 -0.031451 0.173427
v 0.206946 0.025467 0.183749
v 0.176039 0.076814 0.193061
v 0.127900 0.117563 0.200451
v 0.067241 0.143726 0.205195
v 0.000000 0.152741 0.206830
v -0.067241 0.143726 0.205195
v -0.127900 0.117563 0.200451
v -0.176039 0.076814 0.193061
v -0.206946 0.025467 0.183749
v -0.217596 -0.031451 0.173427
v -0.206946 -0.088370 0.163105
v -0.176039 -0.139717 0.153793
v -0.127900 -0.180466 0.146403
v -0.067241 -0.206628 0.141658
v -0.000000 -0.215643 0.140023
v 0.067241 -0.206628 0.141658
v 0.127900 -0.180466 0.146403
v 0.176039 -0.139717 0.153793
v 0.206946 -0.088370 0.163105
v 0.228746 -0.026391 0.237023
v 0.217550 0.037213 0.244105
v 0.185059 0.094591 0.250494
v 0.134453 0.140127 0.255564
v 0.070686 0.169362 0.258819
v 0.000000 0.179436 0.259941
v -0.070686 0.169362 0.258819
v -0.134453 0.140127 0.255564
v -0.185059 0.094591 0.250494
v -0.217550 0.037213 0.244105
v -0.228746 -0.026391 0.237023
v -0.217550 -0.089996 0.229941
v -0.185059 -0.147374 0.223552
v -0.134453 -0.192910 0.218482
v -0.070686 -0.222145 0.215227
v -0.000000 -0.232219 0.214105
v 0.070686 -0.222145 0.215227
v 0.134453 -0.192910 0.218482
v 0.185059 -0.147374 0.223552
v 0.217550 -0.089996 0.229941
v 0.239895 -0.020601 0.301350
v 0.228154 0.048787 0.306094
v 0.194080 0.111383 0.310373
v 0.141007 0.161060 0.313769
v 0.074132 0.192954 0.315949
v 0.000000 0.203944 0.316701
v -0.074132 0.192954 0.315949
v -0.141007 0.161060 0.313769
v -0.194080 0.111383 0.310373
v -0.228154 0.048787 0.306094
v -0.239895 -0.020601 0.301350
v -0.228154 -0.089989 0.296607
v -0.194080 -0.152585 0.292327
v -0.141007 -0.202262 0.288931
v -0.074132 -0.234156 0.286751
v -0.000000 -0.245146 0.286000
v 0.074132 -0.234156 0.286751
v 0.141007 -0.202262 0.288931
v 0.194080 -0.152585 0.292327
v 0.228154 -0.089989 0.296607
v 0.251045 -0.015327 0.365161
v 0.238758 0.059125 0.368286
v 0.203100 0.126290 0.371105
v 0.147561 0.179592 0.373342
v 0.077577 0.213814 0.374779
v 0.000000 0.225606 0.375274
v -0.077577 0.213814 0.374779
v -0.147561 0.179592 0.373342
v -0.203100 0.126290 0.371105
v -0.238758 0.059125 0.368286
v -0.251045 -0.015327 0.365161
v -0.238758 -0.089779 0.362036
v -0.203100 -0.156944 0.359217
v -0.147561 -0.210245 0.356980
v -0.077577 -0.244467 0.355543
v -0.000000 -0.256260 0.355048
v 0.077577 -0.244467 0.355543
v 0.147561 -0.210245 0.356980
v 0.203100 -0.156944 0.359217
v 0.238758 -0.089779 0.362036
v 0.262195 -0.011030 0.427995
v 0.249362 0.067958 0.430030
v 0.212120 0.139213 0.431867
v 0.154114 0.195762 0.433324
v 0.081023 0.232068 0.434260
v 0.000000 0.244579 0.434582
v -0.081023 0.232068 0.434260
v -0.154114 0.195762 0.433324
v -0.212120 0.139213 0.431867
v -0.249362 0.067958 0.430030
v -0.262195 -0.011030 0.427995
v -0.249362 -0.090017 0.425959
v -0.212120 -0.161272 0.424123
v -0.154114 -0.217821 0.422666
v -0.081023 -0.254127 0.421730
v -0.000000 -0.266638 0.421408
v 0.081023 -0.254127 0.421730
v 0.154114 -0.217821 0.422666
v 0.212120 -0.161272 0.424123
v 0.249362 -0.090017 0.425959
v 0.268746 -0.007750 0.489811
v 0.255592 0.074004 0.491105
v 0.217420 0.147754 0.492272
v 0.157965 0.206283 0.493198
v 0.083047 0.243861 0.493792
v 0.000000 0.256810 0.493997
v -0.083047 0.243861 0.493792
v -0.157965 0.206283 0.493198
v -0.217420 0.147754 0.492272
v -0.255592 0.074004 0.491105
v -0.268746 -0.007750 0.489811
v -0.255592 -0.089503 0.488518
v -0.217420 -0.163254 0.487351
v -0.157965 -0.221783 0.486425
v -0.083047 -0.259361 0.485830
v -0.000000 -0.272310 0.485625
v 0.083047 -0.259361 0.485830
v 0.157965 -0.221783 0.486425
v 0.217420 -0.163254 0.487351
v 0.255592 -0.089503 0.488518
v 0.264564 -0.005350 0.550747
v 0.251616 0.075618 0.551534
v 0.214037 0.148661 0.552244
v 0.155507 0.206628 0.552807
v 0.081755 0.243845 0.553168
v 0.000000 0.256669 0.553293
v -0.081755 0.243845 0.553168
v -0.155507 0.206628 0.552807
v -0.214037 0.148661 0.552244
v -0.251616 0.075618 0.551534
v -0.264564 -0.005350 0.550747
v -0.251616 -0.086319 0.549961
v -0.214037 -0.159361 0.549251
v -0.155507 -0.217328 0.548688
v -0.081755 -0.254545 0.548327
v -0.000000 -0.267369 0.548202
v 0.081755 -0.254545 0.548327
v 0.155507 -0.217328 0.548688
v 0.214037 -0.159361 0.549251
v 0.251616 -0.086319 0.549961
v 0.260383 -0.003644 0.610990
v 0.247639 0.076342 0.611467
v 0.210654 0.148498 0.611897
v 0.153049 0.205761 0.612239
v 0.080463 0.242527 0.612458
v 0.000000 0.255195 0.612534
v -0.080463 0.242527 0.612458
v -0.153049 0.205761 0.612239
v -0.210654 0.148498 0.611897
v -0.247639 0.076342 0.611467
v -0.260383 -0.003644 0.610990
v -0.247639 -0.083630 0.610513
v -0.210654 -0.155786 0.610083
v -0.153049 -0.213050 0.609741
v -0.080463 -0.249815 0.609522
v -0.000000 -0.262484 0.609446
v 0.080463 -0.249815 0.609522
v 0.153049 -0.213050 0.609741
v 0.210654 -0.155786 0.610083
v 0.247639 -0.083630 0.610513
v 0.256202 -0.002456 0.670715
v 0.243663 0.076426 0.671003
v 0.207272 0.147586 0.671264
v 0.150592 0.204059 0.671471
v 0.079171 0.240318 0.671604
v 0.000000 0.252811 0.671649
v -0.079171 0.240318 0.671604
v -0.150592 0.204059 0.671471
v -0.207272 0.147586 0.671264
v -0.243663 0.076426 0.671003
v -0.256202 -0.002456 0.670715
v -0.243663 -0.081338 0.670426
v -0.207272 -0.152498 0.670165
v -0.150592 -0.208972 0.669958
v -0.079171 -0.245230 0.669826
v -0.000000 -0.257723 0.669780
v 0.079171 -0.245230 0.669826
v 0.150592 -0.208972 0.669958
v 0.207272 -0.152498 0.670165
v 0.243663 -0.081338 0.670426
v 0.252021 -0.001641 0.730066
v 0.239686 0.076063 0.730241
v 0.203889 0.146160 0.730398
v 0.148134 0.201790 0.730523
v 0.077879 0.237507 0.730604
v 0.000000 0.249814 0.730631
v -0.077879 0.237507 0.730604
v -0.148134 0.201790 0.730523
v -0.203889 0.146160 0.730398
v -0.239686 0.076063 0.730241
v -0.252021 -0.001641 0.730066
v -0.239686 -0.079345 0.729891
v -0.203889 -0.149443 0.729734
v -0.148134 -0.205073 0.729608
v -0.077879 -0.240790 0.729528
v -0.000000 -0.253097 0.729501
v 0.077879 -0.240790 0.729528
v 0.148134 -0.205073 0.729608
v 0.203889 -0.149443 0.729734
v 0.239686 -0.079345 0.729891
v 0.247840 -0.001089 0.789155
v 0.235710 0.075392 0.789260
v 0.200507 0.144386 0.789355
v 0.145677 0.199141 0.789431
v 0.076587 0.234295 0.789479
v 0.000000 0.246409 0.789496
v -0.076587 0.234295 0.789479
v -0.145677 0.199141 0.789431
v -0.200507 0.144386 0.789355
v -0.235710 0.075392 0.789260
v -0.247840 -0.001089 0.789155
v -0.235710 -0.077570 0.789049
v -0.200507 -0.146565 0.788954
v -0.145677 -0.201320 0.788878
v -0.076587 -0.236474 0.788830
v -0.000000 -0.248587 0.788813
v 0.076587 -0.236474 0.788830
v 0.145677 -0.201320 0.788878
v 0.200507 -0.146565 0.788954
v 0.235710 -0.077570 0.789049
v 0.243659 -0.000719 0.848062
v 0.231733 0.074512 0.848125
v 0.197124 0.142379 0.848183
v 0.143219 0.196238 0.848229
v 0.075295 0.230818 0.848258
v 0.000000 0.242733 0.848268
v -0.075295 0.230818 0.848258
v -0.143219 0.196238 0.848229
v -0.197124 0.142379 0.848183
v -0.231733 0.074512 0.848125
v -0.243659 -0.000719 0.848062
v -0.231733 -0.075950 0.847998
v -0.197124 -0.143816 0.847940
v -0.143219 -0.197676 0.847895
v -0.075295 -0.232256 0.847865
v -0.000000 -0.244171 0.847855
v 0.075295 -0.232256 0.847865
v 0.143219 -0.197676 0.847895
v 0.197124 -0.143816 0.847940
v 0.231733 -0.075950 0.847998
v 0.239512 -0.000472 0.906845
v 0.227790 0.073503 0.906884
v 0.193769 0.140237 0.906918
v 0.140782 0.193197 0.906946
v 0.074013 0.227199 0.906964
v 0.000000 0.238916 0.906970
v -0.074013 0.227199 0.906964
v -0.140782 0.193197 0.906946
v -0.193769 0.140237 0.906918
v -0.227790 0.073503 0.906884
v -0.239512 -0.000472 0.906845
v -0.227790 -0.074447 0.906807
v -0.193769 -0.141180 0.906772
v -0.140782 -0.194141 0.906744
v -0.074013 -0.228143 0.906727
v -0.000000 -0.239860 0.906721
v 0.074013 -0.228143 0.906727
v 0.140782 -0.194141 0.906744
v 0.193769 -0.141180 0.906772
v 0.227790 -0.074447 0.906807
v 0.235610 -0.000308 0.965545
v 0.224078 0.072476 0.965568
v 0.190612 0.138135 0.965589
v 0.138488 0.190243 0.965606
v 0.072807 0.223698 0.965617
v 0.000000 0.235226 0.965620
v -0.072807 0.223698 0.965617
v -0.138488 0.190243 0.965606
v -0.190612 0.138135 0.965589
v -0.224078 0.072476 0.965568
v -0.235610 -0.000308 0.965545
v -0.224078 -0.073093 0.965522
v -0.190612 -0.138752 0.965501
v -0.138488 -0.190860 0.965484
v -0.072807 -0.224315 0.965474
v -0.000000 -0.235843 0.965470
v 0.072807 -0.224315 0.965474
v 0.138488 -0.190860 0.965484
v 0.190612 -0.138752 0.965501
v 0.224078 -0.073093 0.965522
v 0.231707 -0.000201 1.024189
v 0.220367 0.071387 1.024203
v 0.187455 0.135967 1.024216
v 0.136194 0.187217 1.024226
v 0.071601 0.220123 1.024233
v 0.000000 0.231461 1.024235
v -0.071601 0.220123 1.024233
v -0.136194 0.187217 1.024226
v -0.187455 0.135967 1.024216
v -0.220367 0.071387 1.024203
v -0.231707 -0.000201 1.024189
v -0.220367 -0.071788 1.024175
v -0.187455 -0.136368 1.024163
v -0.136194 -0.187619 1.024153
v -0.071601 -0.220524 1.024146
v -0.000000 -0.231863 1.024144
v 0.071601 -0.220524 1.024146
v 0.136194 -0.187619 1.024153
v 0.187455 -0.136368 1.024163
v 0.220367 -0.071788 1.024175
v 0.227805 -0.000130 1.082796
v 0.216655 0.070257 1.082805
v 0.184298 0.133754 1.082813
v 0.133900 0.184145 1.082819
v 0.070396 0.216499 1.082823
v 0.000000 0.227647 1.082824
v -0.070396 0.216499 1.082823
v -0.133900 0.184145 1.082819
v -0.184298 0.133754 1.082813
v -0.216655 0.070257 1.082805
v -0.227805 -0.000130 1.082796
v -0.216655 -0.070518 1.082788
v -0.184298 -0.134015 1.082780
v -0.133900 -0.184406 1.082774
v -0.070396 -0.216760 1.082770
v -0.000000 -0.227908 1.082769
v 0.070396 -0.216760 1.082770
v 0.133900 -0.184406 1.082774
v 0.184298 -0.134015 1.082780
v 0.216655 -0.070518 1.082788
v 0.223902 -0.000084 1.141379
v 0.212944 0.069100 1.141384
v 0.181141 0.131512 1.141389
v 0.131607 0.181043 1.141392
v 0.069190 0.212844 1.141395
v 0.000000 0.223801 1.141396
v -0.069190 0.212844 1.141395
v -0.131607 0.181043 1.141392
v -0.181141 0.131512 1.141389
v -0.212944 0.069100 1.141384
v -0.223902 -0.000084 1.141379
v -0.212944 -0.069269 1.141374
v -0.181141 -0.131681 1.141369
v -0.131607 -0.181212 1.141366
v -0.069190 -0.213013 1.141363
v -0.000000 -0.223970 1.141362
v 0.069190 -0.213013 1.141363
v 0.131607 -0.181212 1.141366
v 0.181141 -0.131681 1.141369
v 0.212944 -0.069269 1.141374
v 0.220000 -0.000054 1.199946
v 0.209232 0.067926 1.199949
v 0.177984 0.129252 1.199951
v 0.129313 0.177921 1.199954
v 0.067984 0.209168 1.199955
v 0.000000 0.219936 1.199956
v -0.067984 0.209168 1.199955
v -0.129313 0.177921 1.199954
v -0.177984 0.129252 1.199951
v -0.209232 0.067926 1.199949
v -0.220000 -0.000054 1.199946
v -0.209232 -0.068035 1.199942
v -0.177984 -0.129361 1.199940
v -0.129313 -0.178030 1.199937
v -0.067984 -0.209277 1.199936
v -0.000000 -0.220044 1.199936
v 0.067984 -0.209277 1.199936
v 0.129313 -0.178030 1.199937
v 0.177984 -0.129361 1.199940
v 0.209232 -0.068035 1.199942
f 1 2 22 21
f 2 3 23 22
f 3 4 24 23
f 4 5 25 24
f 5 6 26 25
f 6 7 27 26
f 7 8 28 27
f 8 9 29 28
f 9 10 30 29
f 10 11 31 30
f 11 12 32 31
f 12 13 33 32
f 13 14 34 33
f 14 15 35 34
f 15 16 36 35
f 16 17 37 36
f 17 18 38 37
f 18 19 39 38
f 19 20 40 39
f 20 1 21 40
f 21 22 42 41
f 22 23 43 42
f 23 24 44 43
f 24 25 45 44
f 25 26 46 45
f 26 27 47 46
f 27 28 48 47
f 28 29 49 48
f 29 30 50 49
f 30 31 51 50
f 31 32 52 51
f 32 33 53 52
f 33 34 54 53
f 34 35 55 54
f 35 36 56 55
f 36 37 57 56
f 37 38 58 57
f 38 39 59 58
f 39 40 60 59
f 40 21 41 60
f 41 42 62 61
f 42 43 63 62
f 43 44 64 63
f 44 45 65 64
f 45 46 66 65
f 46 47 67 66
f 47 48 68 67
f 48 49 69 68
f 49 50 70 69
f 50 51 71 70
f 51 52 72 71
f 52 53 73 72
f 53 54 74 73
f 54 55 75 74
f 55 56 76 75
f 56 57 77 76
f 57 58 78 77
f 58 59 79 78
f 59 60 80 79
f 60 41 61 80
f 61 62 82 81
f 62 63 83 82
f 63 64 84 83
f 64 65 85 84
f 65 66 86 85
f 66 67 87 86
f 67 68 88 87
f 68 69 89 88
f 69 70 90 89
f 70 71 91 90
f 71 72 92 91
f 72 73 93 92
f 73 74 94 93
f 74 75 95 94
f 75 76 96 95
f 76 77 97 96
f 77 78 98 97
f 78 79 99 98
f 79 80 100 99
f 80 61 81 100
f 81 82 102 101
f 82 83 103 102
f 83 84 104 103
f 84 85 105 104
f 85 86 106 105
f 86 87 107 106
f 87 88 108 107
f 88 89 109 108
f 89 90 110 109
f 90 91 111 110
f 91 92 112 111
f 92 93 113 112
f 93 94 114 113
f 94 95 115 114
f 95 96 116 115
f 96 97 117 116
f 97 98 118 117
f 98 99 119 118
f 99 100 120 119
f 100 81 101 120
f 101 102 122 121
f 102 103 123 122
f 103 104 124 123
f 104 105 125 124
f 105 106 126 125
f 106 107 127 126
f 107 108 128 127
f 108 109 129 128
f 109 110 130 129
f 110 111 131 130
f 111 112 132 131
f 112 113 133 132
f 113 114 134 133
f 114 115 135 134
f 115 116 136 135
f 116 117 137 136
f 117 118 138 137
f 118 119 139 138
f 119 120 140 139
f 120 101 121 140
f 121 122 142 141
f 122 123 143 142
f 123 124 144 143
f 124 125 145 144
f 125 126 146 145
f 126 127 147 146
f 127 128 148 147
f 128 129 149 148
f 129 130 150 149
f 130 131 151 150
f 131 132 152 151
f 132 133 153 152
f 133 134 154 153
f 134 135 155 154
f 135 136 156 155
f 136 137 157 156
f 137 138 158 157
f 138 139 159 158
f 139 140 160 159
f 140 121 141 160
f 141 142 162 161
f 142 143 163 162
f 143 144 164 163
f 144 145 165 164
f 145 146 166 165
f 146 147 167 166
f 147 148 168 167
f 148 149 169 168
f 149 150 170 169
f 150 151 171 170
f 151 152 172 171
f 152 153 173 172
f 153 154 174 173
f 154 155 175 174
f 155 156 176 175
f 156 157 177 176
f 157 158 178 177
f 158 159 179 178
f 159 160 180 179
f 160 141 161 180
f 161 162 182 181
f 162 163 183 182
f 163 164 184 183
f 164 165 185 184
f 165 166 186 185
f 166 167 187 186
f 167 168 188 187
f 168 169 189 188
f 169 170 190 189
f 170 171 191 190
f 171 172 192 191
f 172 173 193 192
f 173 174 194 193
f 174 175 195 194
f 175 176 196 195
f 176 177 197 196
f 177 178 198 197
f 178 179 199 198
f 179 180 200 199
f 180 161 181 200
f 181 182 202 201
f 182 183 203 202
f 183 184 204 203
f 184 185 205 204
f 185 186 206 205
f 186 187 207 206
f 187 188 208 207
f 188 189 209 208
f 189 190 210 209
f 190 191 211 210
f 191 192 212 211
f 192 193 213 212
f 193 194 214 213
f 194 195 215 214
f 195 196 216 215
f 196 197 217 216
f 197 198 218 217
f 198 199 219 218
f 199 200 220 219
f 200 181 201 220
f 201 202 222 221
f 202 203 223 222
f 203 204 224 223
f 204 205 225 224
f 205 206 226 225
f 206 207 227 226
f 207 208 228 227
f 208 209 229 228
f 209 210 230 229
f 210 211 231 230
f 211 212 232 231
f 212 213 233 232
f 213 214 234 233
f 214 215 235 234
f 215 216 236 235
f 216 217 237 236
f 217 218 238 237
f 218 219 239 238
f 219 220 240 239
f 220 201 221 240
f 221 222 242 241
f 222 223 243 242
f 223 224 244 243
f 224 225 245 244
f 225 226 246 245
f 226 227 247 246
f 227 228 248 247
f 228 229 249 248
f 229 230 250 249
f 230 231 251 250
f 231 232 252 251
f 232 233 253 252
f 233 234 254 253
f 234 235 255 254
f 235 236 256 255
f 236 237 257 256
f 237 238 258 257
f 238 239 259 258
f 239 240 260 259
f 240 221 241 260
f 241 242 262 261
f 242 243 263 262
f 243 244 264 263
f 244 245 265 264
f 245 246 266 265
f 246 247 267 266
f 247 248 268 267
f 248 249 269 268
f 249 250 270 269
f 250 251 271 270
f 251 252 272 271
f 252 253 273 272
f 253 254 274 273
f 254 255 275 274
f 255 256 276 275
f 256 257 277 276
f 257 258 278 277
f 258 259 279 278
f 259 260 280 279
f 260 241 261 280
f 261 262 282 281
f 262 263 283 282
f 263 264 284 283
f 264 265 285 284
f 265 266 286 285
f 266 267 287 286
f 267 268 288 287
f 268 269 289 288
f 269 270 290 289
f 270 271 291 290
f 271 272 292 291
f 272 273 293 292
f 273 274 294 293
f 274 275 295 294
f 275 276 296 295
f 276 277 297 296
f 277 278 298 297
f 278 279 299 298
f 279 280 300 299
f 280 261 281 300
f 281 282 302 301
f 282 283 303 302
f 283 284 304 303
f 284 285 305 304
f 285 286 306 305
f 286 287 307 306
f 287 288 308 307
f 288 289 309 308
f 289 290 310 309
f 290 291 311 310
f 291 292 312 311
f 292 293 313 312
f 293 294 314 313
f 294 295 315 314
f 295 296 316 315
f 296 297 317 316
f 297 298 318 317
f 298 299 319 318
f 299 300 320 319
f 300 281 301 320
f 301 302 322 321
f 302 303 323 322
f 303 304 324 323
f 304 305 325 324
f 305 306 326 325
f 306 307 327 326
f 307 308 328 327
f 308 309 329 328
f 309 310 330 329
f 310 311 331 330
f 311 312 332 331
f 312 313 333 332
f 313 314 334 333
f 314 315 335 334
f 315 316 336 335
f 316 317 337 336
f 317 318 338 337
f 318 319 339 338
f 319 320 340 339
f 320 301 321 340
f 321 322 342 341
f 322 323 343 342
f 323 324 344 343
f 324 325 345 344
f 325 326 346 345
f 326 327 347 346
f 327 328 348 347
f 328 329 349 348
f 329 330 350 349
f 330 331 351 350
f 331 332 352 351
f 332 333 353 352
f 333 334 354 353
f 334 335 355 354
f 335 336 356 355
f 336 337 357 356
f 337 338 358 357
f 338 339 359 358
f 339 340 360 359
f 340 321 341 360
f 341 342 362 361
f 342 343 363 362
f 343 344 364 363
f 344 345 365 364
f 345 346 366 365
f 346 347 367 366
f 347 348 368 367
f 348 349 369 368
f 349 350 370 369
f 350 351 371 370
f 351 352 372 371
f 352 353 373 372
f 353 354 374 373
f 354 355 375 374
f 355 356 376 375
f 356 357 377 376
f 357 358 378 377
f 358 359 379 378
f 359 360 380 379
f 360 341 361 380
f 361 362 382 381
f 362 363 383 382
f 363 364 384 383
f 364 365 385 384
f 365 366 386 385
f 366 367 387 386
f 367 368 388 387
f 368 369 389 388
f 369 370 390 389
f 370 371 391 390
f 371 372 392 391
f 372 373 393 392
f 373 374 394 393
f 374 375 395 394
f 375 376 396 395
f 376 377 397 396
f 377 378 398 397
f 378 379 399 398
f 379 380 400 399
f 380 361 381 400
f 381 382 402 401
f 382 383 403 402
f 383 384 404 403
f 384 385 405 404
f 385 386 406 405
f 386 387 407 406
f 387 388 408 407
f 388 389 409 408
f 389 390 410 409
f 390 391 411 410
f 391 392 412 411
f 392 393 413 412
f 393 394 414 413
f 394 395 415 414
f 395 396 416 415
f 396 397 417 416
f 397 398 418 417
f 398 399 419 418
f 399 400 420 419
f 400 381 401 420
f 401 402 422 421
f 402 403 423 422
f 403 404 424 423
f 404 405 425 424
f 405 406 426 425
f 406 407 427 426
f 407 408 428 427
f 408 409 429 428
f 409 410 430 429
f 410 411 431 430
f 411 412 432 431
f 412 413 433 432
f 413 414 434 433
f 414 415 435 434
f 415 416 436 435
f 416 417 437 436
f 417 418 438 437
f 418 419 439 438
f 419 420 440 439
f 420 401 421 440
f 421 422 442 441
f 422 423 443 442
f 423 424 444 443
f 424 425 445 444
f 425 426 446 445
f 426 427 447 446
f 427 428 448 447
f 428 429 449 448
f 429 430 450 449
f 430 431 451 450
f 431 432 452 451
f 432 433 453 452
f 433 434 454 453
f 434 435 455 454
f 435 436 456 455
f 436 437 457 456
f 437 438 458 457
f 438 439 459 458
f 439 440 460 459
f 440 421 441 460
f 441 442 462 461
f 442 443 463 462
f 443 444 464 463
f 444 445 465 464
f 445 446 466 465
f 446 447 467 466
f 447 448 468 467
f 448 449 469 468
f 449 450 470 469
f 450 451 471 470
f 451 452 472 471
f 452 453 473 472
f 453 454 474 473
f 454 455 475 474
f 455 456 476 475
f 456 457 477 476
f 457 458 478 477
f 458 459 479 478
f 459 460 480 479
f 460 441 461 480
f 461 462 482 481
f 462 463 483 482
f 463 464 484 483
f 464 465 485 484
f 465 466 486 485
f 466 467 487 486
f 467 468 488 487
f 468 469 489 488
f 469 470 490 489
f 470 471 491 490
f 471 472 492 491
f 472 473 493 492
f 473 474 494 493
f 474 475 495 494
f 475 476 496 495
f 476 477 497 496
f 477 478 498 497
f 478 479 499 498
f 479 480 500 499
f 480 461 481 500
f 481 482 502 501
f 482 483 503 502
f 483 484 504 503
f 484 485 505 504
f 485 486 506 505
f 486 487 507 506
f 487 488 508 507
f 488 489 509 508
f 489 490 510 509
f 490 491 511 510
f 491 492 512 511
f 492 493 513 512
f 493 494 514 513
f 494 495 515 514
f 495 496 516 515
f 496 497 517 516
f 497 498 518 517
f 498 499 519 518
f 499 500 520 519
f 500 481 501 520
f 501 502 522 521
f 502 503 523 522
f 503 504 524 523
f 504 505 525 524
f 505 506 526 525
f 506 507 527 526
f 507 508 528 527
f 508 509 529 528
f 509 510 530 529
f 510 511 531 530
f 511 512 532 531
f 512 513 533 532
f 513 514 534 533
f 514 515 535 534
f 515 516 536 535
f 516 517 537 536
f 517 518 538 537
f 518 519 539 538
f 519 520 540 539
f 520 501 521 540
f 521 522 542 541
f 522 523 543 542
f 523 524 544 543
f 524 525 545 544
f 525 526 546 545
f 526 527 547 546
f 527 528 548 547
f 528 529 549 548
f 529 530 550 549
f 530 531 551 550
f 531 532 552 551
f 532 533 553 552
f 533 534 554 553
f 534 535 555 554
f 535 536 556 555
f 536 537 557 556
f 537 538 558 557
f 538 539 559 558
f 539 540 560 559
f 540 521 541 560
f 541 542 562 561
f 542 543 563 562
f 543 544 564 563
f 544 545 565 564
f 545 546 566 565
f 546 547 567 566
f 547 548 568 567
f 548 549 569 568
f 549 550 570 569
f 550 551 571 570
f 551 552 572 571
f 552 553 573 572
f 553 554 574 573
f 554 555 575 574
f 555 556 576 575
f 556 557 577 576
f 557 558 578 577
f 558 559 579 578
f 559 560 580 579
f 560 541 561 580
f 561 562 582 581
f 562 563 583 582
f 563 564 584 583
f 564 565 585 584
f 565 566 586 585
f 566 567 587 586
f 567 568 588 587
f 568 569 589 588
f 569 570 590 589
f 570 571 591 590
f 571 572 592 591
f 572 573 593 592
f 573 574 594 593
f 574 575 595 594
f 575 576 596 595
f 576 577 597 596
f 577 578 598 597
f 578 579 599 598
f 579 580 600 599
f 580 561 581 600
f 581 582 602 601
f 582 583 603 602
f 583 584 604 603
f 584 585 605 604
f 585 586 606 605
f 586 587 607 606
f 587 588 608 607
f 588 589 609 608
f 589 590 610 609
f 590 591 611 610
f 591 592 612 611
f 592 593 613 612
f 593 594 614 613
f 594 595 615 614
f 595 596 616 615
f 596 597 617 616
f 597 598 618 617
f 598 599 619 618
f 599 600 620 619
f 600 581 601 620
f 601 602 622 621
f 602 603 623 622
f 603 604 624 623
f 604 605 625 624
f 605 606 626 625
f 606 607 627 626
f 607 608 628 627
f 608 609 629 628
f 609 610 630 629
f 610 611 631 630
f 611 612 632 631
f 612 613 633 632
f 613 614 634 633
f 614 615 635 634
f 615 616 636 635
f 616 617 637 636
f 617 618 638 637
f 618 619 639 638
f 619 620 640 639
f 620 601 621 640
f 621 622 642 641
f 622 623 643 642
f 623 624 644 643
f 624 625 645 644
f 625 626 646 645
f 626 627 647 646
f 627 628 648 647
f 628 629 649 648
f 629 630 650 649
f 630 631 651 650
f 631 632 652 651
f 632 633 653 652
f 633 634 654 653
f 634 635 655 654
f 635 636 656 655
f 636 637 657 656
f 637 638 658 657
f 638 639 659 658
f 639 640 660 659
f 640 621 641 660
f 641 642 662 661
f 642 643 663 662
f 643 644 664 663
f 644 645 665 664
f 645 646 666 665
f 646 647 667 666
f 647 648 668 667
f 648 649 669 668
f 649 650 670 669
f 650 651 671 670
f 651 652 672 671
f 652 653 673 672
f 653 654 674 673
f 654 655 675 674
f 655 656 676 675
f 656 657 677 676
f 657 658 678 677
f 658 659 679 678
f 659 660 680 679
f 660 641 661 680
f 661 662 682 681
f 662 663 683 682
f 663 664 684 683
f 664 665 685 684
f 665 666 686 685
f 666 667 687 686
f 667 668 688 687
f 668 669 689 688
f 669 670 690 689
f 670 671 691 690
f 671 672 692 691
f 672 673 693 692
f 673 674 694 693
f 674 675 695 694
f 675 676 696 695
f 676 677 697 696
f 677 678 698 697
f 678 679 699 698
f 679 680 700 699
f 680 661 681 700
f 681 682 702 701
f 682 683 703 702
f 683 684 704 703
f 684 685 705 704
f 685 686 706 705
f 686 687 707 706
f 687 688 708 707
f 688 689 709 708
f 689 690 710 709
f 690 691 711 710
f 691 692 712 711
f 692 693 713 712
f 693 694 714 713
f 694 695 715 714
f 695 696 716 715
f 696 697 717 716
f 697 698 718 717
f 698 699 719 718
f 699 700 720 719
f 700 681 701 720
f 701 702 722 721
f 702 703 723 722
f 703 704 724 723
f 704 705 725 724
f 705 706 726 725
f 706 707 727 726
f 707 708 728 727
f 708 709 729 728
f 709 710 730 729
f 710 711 731 730
f 711 712 732 731
f 712 713 733 732
f 713 714 734 733
f 714 715 735 734
f 715 716 736 735
f 716 717 737 736
f 717 718 738 737
f 718 719 739 738
f 719 720 740 739
f 720 701 721 740
f 721 722 742 741
f 722 723 743 742
f 723 724 744 743
f 724 725 745 744
f 725 726 746 745
f 726 727 747 746
f 727 728 748 747
f 728 729 749 748
f 729 730 750 749
f 730 731 751 750
f 731 732 752 751
f 732 733 753 752
f 733 734 754 753
f 734 735 755 754
f 735 736 756 755
f 736 737 757 756
f 737 738 758 757
f 738 739 759 758
f 739 740 760 759
f 740 721 741 760
f 741 742 762 761
f 742 743 763 762
f 743 744 764 763
f 744 745 765 764
f 745 746 766 765
f 746 747 767 766
f 747 748 768 767
f 748 749 769 768
f 749 750 770 769
f 750 751 771 770
f 751 752 772 771
f 752 753 773 772
f 753 754 774 773
f 754 755 775 774
f 755 756 776 775
f 756 757 777 776
f 757 758 778 777
f 758 759 779 778
f 759 760 780 779
f 760 741 761 780
f 761 762 782 781
f 762 763 783 782
f 763 764 784 783
f 764 765 785 784
f 765 766 786 785
f 766 767 787 786
f 767 768 788 787
f 768 769 789 788
f 769 770 790 789
f 770 771 791 790
f 771 772 792 791
f 772 773 793 792
f 773 774 794 793
f 774 775 795 794
f 775 776 796 795
f 776 777 797 796
f 777 778 798 797
f 778 779 799 798
f 779 780 800 799
f 780 761 781 800
f 781 782 802 801
f 782 783 803 802
f 783 784 804 803
f 784 785 805 804
f 785 786 806 805
f 786 787 807 806
f 787 788 808 807
f 788 789 809 808
f 789 790 810 809
f 790 791 811 810
f 791 792 812 811
f 792 793 813 812
f 793 794 814 813
f 794 795 815 814
f 795 796 816 815
f 796 797 817 816
f 797 798 818 817
f 798 799 819 818
f 799 800 820 819
f 800 781 801 820
f 801 802 822 821
f 802 803 823 822
f 803 804 824 823
f 804 805 825 824
f 805 806 826 825
f 806 807 827 826
f 807 808 828 827
f 808 809 829 828
f 809 810 830 829
f 810 811 831 830
f 811 812 832 831
f 812 813 833 832
f 813 814 834 833
f 814 815 835 834
f 815 816 836 835
f 816 817 837 836
f 817 818 838 837
f 818 819 839 838
f 819 820 840 839
f 820 801 821 840
